<?xml version="1.0" standalone="no"?>
<!DOCTYPE svg PUBLIC "-//W3C//DTD SVG 20010904//EN"
 "http://www.w3.org/TR/2001/REC-SVG-20010904/DTD/svg10.dtd">
<svg version="1.0" xmlns="http://www.w3.org/2000/svg"
 width="400.000000pt" height="400.000000pt" viewBox="0 0 400.000000 400.000000"
 preserveAspectRatio="xMidYMid meet">

<g transform="translate(0.000000,400.000000) scale(0.100000,-0.100000)"
fill="#000000" stroke="none">
<path d="M0 2000 l0 -2000 2000 0 2000 0 0 2000 0 2000 -2000 0 -2000 0 0
-2000z m2967 419 c46 -22 73 -61 73 -104 0 -24 -3 -25 -55 -25 -49 0 -57 3
-65 24 -12 32 -62 44 -95 22 -33 -22 -22 -43 29 -57 160 -44 195 -68 203 -141
11 -95 -65 -158 -191 -158 -109 0 -196 62 -196 140 0 18 7 20 60 20 45 0 60
-3 60 -14 0 -28 52 -58 88 -52 91 14 77 63 -26 91 -86 24 -125 43 -147 73 -25
34 -26 99 -2 136 42 63 178 87 264 45z m-1656 -204 c43 -115 78 -213 79 -217
0 -5 -27 -8 -60 -8 l-60 0 -16 40 -16 40 -74 0 -73 0 -11 -40 -11 -40 -64 0
-64 0 27 73 c15 39 52 139 82 220 l55 148 64 -3 63 -3 79 -210z m320 80 c18
-74 36 -131 40 -127 3 4 21 64 39 135 l33 127 88 0 89 0 0 -220 0 -220 -61 0
-60 0 3 149 c2 82 0 147 -4 144 -5 -2 -8 -9 -8 -16 0 -6 -17 -71 -37 -144
l-37 -133 -48 0 c-47 0 -47 0 -59 43 -30 113 -69 251 -73 254 -2 3 -3 -63 -3
-146 l2 -151 -57 0 -58 0 0 220 0 220 89 0 89 0 33 -135z m574 118 c-9 -25
-113 -317 -133 -375 l-16 -48 -53 0 c-29 0 -53 2 -53 4 0 3 27 78 59 168 32
90 67 187 77 216 l19 52 53 0 c48 0 53 -2 47 -17z m230 -112 l70 -124 3 127 3
126 54 0 55 0 0 -220 0 -220 -62 0 -63 0 -70 130 -70 130 -3 -130 -3 -130 -54
0 -55 0 0 220 0 221 62 -3 62 -3 71 -124z m-1375 -551 l0 -190 -50 0 -50 0 0
190 0 190 50 0 50 0 0 -190z m202 87 c32 -54 59 -104 60 -110 1 -7 4 38 7 98
l6 110 45 0 45 0 3 -187 2 -188 -53 0 -54 0 -59 108 -59 107 -3 -107 -3 -108
-49 0 -50 0 0 183 c0 101 3 187 7 191 4 4 27 6 52 4 l45 -3 58 -98z m422 93
c81 -18 125 -71 133 -157 9 -97 -25 -170 -94 -198 -24 -10 -71 -15 -144 -15
l-109 0 0 183 c0 101 3 187 7 190 9 10 162 8 207 -3z m266 -180 l0 -190 -50 0
-50 0 0 183 c0 101 3 187 7 190 3 4 26 7 50 7 l43 0 0 -190z m267 178 c5 -7
31 -71 58 -143 26 -71 56 -151 66 -177 l19 -48 -56 0 c-52 0 -56 2 -65 30 -11
29 -13 30 -74 30 -60 0 -63 -1 -75 -30 -12 -28 -16 -30 -66 -30 l-54 0 19 48
c10 26 40 106 66 177 27 72 53 136 58 143 5 6 29 12 52 12 23 0 47 -6 52 -12z"/>
<path d="M1143 2225 l-21 -65 45 0 c35 0 44 3 40 14 -3 8 -11 34 -18 57 -7 24
-15 47 -19 51 -3 5 -15 -21 -27 -57z"/>
<path d="M1577 1843 c-9 -8 -9 -156 -1 -177 8 -21 77 -21 109 0 53 35 40 145
-21 170 -36 15 -76 18 -87 7z"/>
<path d="M2147 1766 c-23 -66 -22 -66 19 -66 34 0 36 2 30 26 -4 15 -13 41
-20 58 l-12 31 -17 -49z"/>
</g>
</svg>
