<?xml version="1.0" encoding="UTF-8"?>
<svg version="1.1" xmlns="http://www.w3.org/2000/svg" width="900" height="500">
<path d="M0 0 C297 0 594 0 900 0 C900 165 900 330 900 500 C603 500 306 500 0 500 C0 335 0 170 0 0 Z " fill="#FEFEFE" transform="translate(0,0)"/>
<path d="M0 0 C1.11697266 -0.020625 2.23394531 -0.04125 3.38476562 -0.0625 C19.31487368 -0.13637876 33.25993929 4.60393664 44.75 15.875 C54.35361345 25.79082455 60.06937742 36.98168338 62.90625 50.48046875 C63.74260136 54.2520917 64.41284333 55.2307678 67.5625 57.6875 C68.51125 58.203125 69.46 58.71875 70.4375 59.25 C70.623125 58.46625 70.80875 57.6825 71 56.875 C76.7693117 42.32630093 89.00220764 32.65962484 102.7578125 26.15234375 C116.85760637 20.87106208 134.14632623 23.97102611 147.515625 29.7734375 C152.01611168 32.04774761 155.69057083 34.90078957 159.4375 38.25 C160.16066406 38.86875 160.88382813 39.4875 161.62890625 40.125 C166.86129352 44.90449187 169.33503582 49.53318022 171.4375 56.25 C172.05625 57.9825 172.05625 57.9825 172.6875 59.75 C175.05789757 70.81185531 173.06254193 80.53584224 167 89.96484375 C160.47063422 99.5140412 152.08499335 105.61800908 140.59619141 107.93652344 C120.66381259 110.83102405 106.19705018 106.81283471 88.4375 97.25 C88.1075 116.72 87.7775 136.19 87.4375 156.25 C76.88577586 156.25 76.88577586 156.25 72.4375 153.25 C67.1617307 147.9742307 66.32628371 142.38425978 66.24560547 135.21044922 C66.25800957 132.82514626 66.27813738 130.43987494 66.3046875 128.0546875 C66.30388136 125.45703007 66.30122148 122.85937267 66.296875 120.26171875 C66.29628393 116.18175214 66.30942267 112.10264289 66.35839844 108.02294922 C66.40426792 104.0748079 66.38635025 100.12806314 66.3671875 96.1796875 C66.40572342 94.34831741 66.40572342 94.34831741 66.44503784 92.47994995 C66.57281744 86.35816057 66.57281744 86.35816057 63.59429932 81.34039307 C61.57836658 80.06752617 59.66853142 79.0803974 57.4375 78.25 C57.025 78.95125 56.6125 79.6525 56.1875 80.375 C47.23035609 95.09030785 36.12864806 103.12490863 19.5402832 107.78271484 C5.06224174 111.00005739 -10.17882446 107.4189472 -22.7890625 100.15234375 C-31.13541307 94.42745259 -40.74550181 86.7059017 -43.2421875 76.4921875 C-44.54687807 67.35935352 -44.35250237 59.25543648 -39.5625 51.25 C-38.964375 50.198125 -38.36625 49.14625 -37.75 48.0625 C-30.4099996 38.62535663 -19.30110324 33.0360128 -7.5625 31.25 C10.32697237 29.60476099 24.19710357 34.02179325 40.4375 41.25 C40.6304208 36.42697999 40.68787268 32.57026435 38.4375 28.25 C35.58591759 26.50178204 32.54629525 25.52579482 29.375 24.5 C28.55322266 24.20996094 27.73144531 23.91992188 26.88476562 23.62109375 C12.6497762 18.71556632 -5.17237187 15.80535719 -19.31640625 22.56640625 C-21.02328022 23.47822975 -22.71146729 24.42664595 -24.37109375 25.421875 C-26.5625 26.25 -26.5625 26.25 -28.74609375 25.52734375 C-33.16317434 22.42113869 -34.47656726 17.31768614 -35.5625 12.25 C-35.625 9.734375 -35.625 9.734375 -34.5625 7.25 C-31.96443144 5.71369556 -29.18699817 4.88373001 -26.3125 4 C-25.54808594 3.74476563 -24.78367187 3.48953125 -23.99609375 3.2265625 C-15.86708655 0.55901264 -8.54031675 0.03849157 0 0 Z " fill="#F58B4C" transform="translate(62.5625,171.75)"/>
<path d="M0 0 C6.53346897 3.47059463 11.19067199 8.19434598 13.9375 15.125 C16.60635458 24.81627821 15.89801532 35.1158756 11 43.9375 C4.11732487 53.21963986 4.11732487 53.21963986 -0.28125 54.7109375 C-0.8484375 54.78570312 -1.415625 54.86046875 -2 54.9375 C-2 55.5975 -2 56.2575 -2 56.9375 C1.29158865 56.99655417 4.58303756 57.03144375 7.875 57.0625 C8.7928125 57.07925781 9.710625 57.09601563 10.65625 57.11328125 C17.00812606 57.15801277 22.82610036 56.42601563 29 54.9375 C19.79486053 64.68411826 9.80613958 68.0262475 -3.41870117 68.41479492 C-20.00490893 68.53954359 -29.78210336 65.13175204 -45 56.9375 C-45.33 76.4075 -45.66 95.8775 -46 115.9375 C-56.55172414 115.9375 -56.55172414 115.9375 -61 112.9375 C-68.01657377 105.92092623 -67.33755989 96.99676135 -67.44921875 87.69921875 C-67.47095657 86.42327347 -67.4926944 85.14732819 -67.51509094 83.8327179 C-67.5589145 81.13883984 -67.5991376 78.4452112 -67.63305664 75.7512207 C-67.67646664 72.32527886 -67.73325673 68.89972536 -67.7946043 65.47406292 C-67.8523597 62.17420743 -67.90053055 58.87421861 -67.94921875 55.57421875 C-67.96997971 54.35723801 -67.99074066 53.14025726 -68.01213074 51.88639832 C-68.23102663 33.30594308 -68.23102663 33.30594308 -65.51933289 30.29154968 C-65.01795303 29.84471329 -64.51657318 29.39787689 -64 28.9375 C-63.67 28.2775 -63.34 27.6175 -63 26.9375 C-62.34 26.9375 -61.68 26.9375 -61 26.9375 C-60.67 26.2775 -60.34 25.6175 -60 24.9375 C-58.865625 25.06511719 -57.73125 25.19273437 -56.5625 25.32421875 C-47.82170256 26.2222966 -47.82170256 26.2222966 -40.23046875 22.6640625 C-38.24845141 19.83694025 -36.62271497 16.98163111 -35 13.9375 C-31.95052772 9.55219694 -28.38732436 6.76233815 -24.0625 3.75 C-23.45470703 3.31236328 -22.84691406 2.87472656 -22.22070312 2.42382812 C-14.36397506 -3.12758167 -9.05874931 -4.06887678 0 0 Z " fill="#F7A251" transform="translate(196,212.0625)"/>
<path d="M0 0 C2.26745594 1.71232018 4.39747801 3.50512175 6.515625 5.3984375 C7.23878906 6.0171875 7.96195313 6.6359375 8.70703125 7.2734375 C13.93941852 12.05292937 16.41316082 16.68161772 18.515625 23.3984375 C19.134375 25.1309375 19.134375 25.1309375 19.765625 26.8984375 C22.16635429 38.10184085 20.01104429 47.63088212 14.05078125 57.234375 C10.14510274 62.74008974 6.06456451 64.14235783 -0.484375 65.3984375 C-7.55316206 65.88040025 -14.49366465 65.49501952 -21.484375 64.3984375 C-21.484375 63.7384375 -21.484375 63.0784375 -21.484375 62.3984375 C-20.185 61.563125 -20.185 61.563125 -18.859375 60.7109375 C-11.33000508 55.84525977 -7.46194243 49.06845063 -5.484375 40.3984375 C-4.49746496 31.08378092 -5.24411697 22.39852138 -10.921875 14.7109375 C-15.86306465 9.43621755 -22.94581205 5.57836443 -30.171875 5.2109375 C-43.63205941 10.03628663 -53.77048146 18.88043237 -60.1171875 31.6953125 C-62.484375 34.3984375 -62.484375 34.3984375 -64.44116211 34.82592773 C-66.83550133 34.88191002 -69.15935725 34.77367718 -71.546875 34.5859375 C-73.16194861 34.48252172 -74.77792226 34.39212253 -76.39453125 34.31640625 C-77.10746338 34.26250732 -77.82039551 34.2086084 -78.55493164 34.15307617 C-81.10989099 34.47798243 -81.85011517 35.46523836 -83.484375 37.3984375 C-84.474375 38.3884375 -84.474375 38.3884375 -85.484375 39.3984375 C-85.94599927 41.83096411 -85.94599927 41.83096411 -86.109375 44.5234375 C-86.18414062 45.43351562 -86.25890625 46.34359375 -86.3359375 47.28125 C-86.40941406 48.32925781 -86.40941406 48.32925781 -86.484375 49.3984375 C-89.56948327 48.19867317 -92.53484542 46.89841194 -95.484375 45.3984375 C-95.896875 46.0996875 -96.309375 46.8009375 -96.734375 47.5234375 C-105.69151891 62.23874535 -116.79322694 70.27334613 -133.3815918 74.93115234 C-148.49123412 78.28885064 -163.28114019 74.10428813 -176.4375 66.765625 C-178.484375 65.3984375 -178.484375 65.3984375 -179.484375 63.3984375 C-178.2675 63.7284375 -177.050625 64.0584375 -175.796875 64.3984375 C-161.5131895 67.45126888 -148.63246656 64.49012363 -136.359375 56.8359375 C-131.32587139 53.44106669 -126.73442402 50.11943614 -123.171875 45.1484375 C-122.66011719 44.44203125 -122.14835937 43.735625 -121.62109375 43.0078125 C-121.24597656 42.47671875 -120.87085938 41.945625 -120.484375 41.3984375 C-119.72125 41.5634375 -118.958125 41.7284375 -118.171875 41.8984375 C-115.44841264 42.48989146 -115.44841264 42.48989146 -112.484375 42.3984375 C-110.484375 42.3984375 -108.484375 42.3984375 -106.484375 42.3984375 C-104.77905177 40.45834228 -104.77905177 40.45834228 -103.484375 38.3984375 C-102.164375 39.0584375 -100.844375 39.7184375 -99.484375 40.3984375 C-98.494375 39.4084375 -98.494375 39.4084375 -97.484375 38.3984375 C-94.859375 38.2734375 -94.859375 38.2734375 -92.484375 38.3984375 C-92.35160156 37.48320312 -92.21882813 36.56796875 -92.08203125 35.625 C-91.90542969 34.43648437 -91.72882813 33.24796875 -91.546875 32.0234375 C-91.37285156 30.84007812 -91.19882813 29.65671875 -91.01953125 28.4375 C-90.484375 25.3984375 -90.484375 25.3984375 -89.484375 23.3984375 C-84.734375 25.2734375 -84.734375 25.2734375 -82.484375 26.3984375 C-82.29875 25.6146875 -82.113125 24.8309375 -81.921875 24.0234375 C-76.1525633 9.47473843 -63.91966736 -0.19193766 -50.1640625 -6.69921875 C-34.6213719 -12.52095826 -13.64829191 -8.79842717 0 0 Z " fill="#F48349" transform="translate(215.484375,204.6015625)"/>
<path d="M0 0 C2.00720923 0.28674418 4.0085944 0.61866701 6 1 C6 1.66 6 2.32 6 3 C6.99 3 7.98 3 9 3 C9 2.34 9 1.68 9 1 C11.64 1.66 14.28 2.32 17 3 C17.33 4.98 17.66 6.96 18 9 C18.58007812 8.59007812 19.16015625 8.18015625 19.7578125 7.7578125 C27.76055658 2.2377679 34.17550315 -0.12940892 44 1 C48.68009149 2.44385801 53.42620068 4.58158326 57 8 C57 8.66 57 9.32 57 10 C57.66 10 58.32 10 59 10 C59.81498562 11.6029053 60.62689927 13.20737278 61.4375 14.8125 C62.11619141 16.15248047 62.11619141 16.15248047 62.80859375 17.51953125 C67.06770013 26.38685109 66.47419377 40.11779649 63.375 49.3125 C59.81880612 57.24554788 55.05312899 61.80622176 47 65 C40.40888204 67.19703932 31.42277837 67.47892364 24.98046875 64.6953125 C22.43314792 62.97515078 20.17057393 61.17057393 18 59 C17.97494385 59.90355225 17.9498877 60.80710449 17.92407227 61.73803711 C17.82912683 65.0796428 17.72988379 68.42106252 17.62768555 71.76245117 C17.5842837 73.2106424 17.54261256 74.65888654 17.50268555 76.10717773 C17.44510938 78.18489559 17.38137972 80.26234573 17.31640625 82.33984375 C17.27974854 83.59144287 17.24309082 84.84304199 17.20532227 86.13256836 C17 89 17 89 16 90 C15.83912587 92.50248642 15.72157284 94.99500167 15.625 97.5 C15.31510621 103.84648404 14.41472043 109.06381228 12 115 C11.67 115.99 11.34 116.98 11 118 C10.34 118 9.68 118 9 118 C8.95101562 117.09636719 8.90203125 116.19273437 8.8515625 115.26171875 C8.77679687 114.08222656 8.70203125 112.90273438 8.625 111.6875 C8.55539062 110.51574219 8.48578125 109.34398437 8.4140625 108.13671875 C8.21386253 104.84300113 8.21386253 104.84300113 6 102 C5.69933846 99.24582682 5.49074701 96.57354853 5.375 93.8125 C5.33632813 93.06291016 5.29765625 92.31332031 5.2578125 91.54101562 C5.16371784 89.69440801 5.08077681 87.8472381 5 86 C4.67 86 4.34 86 4 86 C3.67 88.97 3.34 91.94 3 95 C2.34 95 1.68 95 1 95 C1.00761353 93.64490578 1.00761353 93.64490578 1.01538086 92.26243591 C1.0445353 83.01159097 0.86872132 73.78161453 0.5625 64.53515625 C0.51745203 63.12170561 0.47261584 61.70824821 0.42797852 60.29478455 C0.31170563 56.63047435 0.19261773 52.96626125 0.07287598 49.30206299 C-0.04952225 45.54062404 -0.16916501 41.77909747 -0.2890625 38.01757812 C-0.52339522 30.67829861 -0.76071172 23.33911979 -1 16 C-1.33 16 -1.66 16 -2 16 C-1.85975781 13.52039864 -1.7130815 11.04147598 -1.5625 8.5625 C-1.52318359 7.85544922 -1.48386719 7.14839844 -1.44335938 6.41992188 C-1.11328125 1.11328125 -1.11328125 1.11328125 0 0 Z " fill="#EE5547" transform="translate(557,201)"/>
<path d="M0 0 C4.50421617 3.43446483 6.33434405 7.24074274 7.875 12.6796875 C8.26636372 15.70914046 8.29292372 18.69429062 8.28125 21.74609375 C8.29208618 22.58381821 8.30292236 23.42154266 8.31408691 24.28465271 C8.35955116 27.8325381 8.3713969 31.38034272 8.38623047 34.9284668 C8.40199771 37.53460069 8.43500278 40.14014042 8.46875 42.74609375 C8.46572876 43.53794571 8.46270752 44.32979767 8.45959473 45.14564514 C8.52964462 50.37256064 9.52859127 53.99891286 11.875 58.6796875 C9.45645554 58.81505379 7.04550217 58.91389029 4.625 58.9921875 C3.94308594 59.03408203 3.26117188 59.07597656 2.55859375 59.11914062 C0.546875 59.16796875 0.546875 59.16796875 -3.125 58.6796875 C-5.39030142 56.43996206 -6.71267827 54.50433097 -8.125 51.6796875 C-8.805625 52.4428125 -9.48625 53.2059375 -10.1875 53.9921875 C-16.01654582 59.32514431 -21.51029441 60.18745743 -29.125 60.1171875 C-29.89328125 60.13716797 -30.6615625 60.15714844 -31.453125 60.17773438 C-37.8517022 60.17229341 -41.98860948 58.48593165 -46.83203125 54.15234375 C-51.01368395 48.81815073 -52.63813553 44.68867285 -52.42578125 37.94921875 C-51.78034744 33.07912726 -49.75945629 30.07331035 -46.13671875 26.984375 C-37.510042 20.81607763 -29.43068462 20.38701053 -19.125 20.5546875 C-18.06410156 20.56371094 -17.00320313 20.57273438 -15.91015625 20.58203125 C-13.31486362 20.60541226 -10.72005535 20.63818194 -8.125 20.6796875 C-8.41077091 19.21966475 -8.70704615 17.76169506 -9.0078125 16.3046875 C-9.17168457 15.49257812 -9.33555664 14.68046875 -9.50439453 13.84375 C-9.99432963 11.51421417 -9.99432963 11.51421417 -12 9.6796875 C-18.24815405 6.73937971 -25.57540793 6.67075952 -32.1484375 8.5390625 C-34.0159523 9.22999291 -35.87303585 9.95023537 -37.71484375 10.70703125 C-40.125 11.6796875 -40.125 11.6796875 -44.125 12.6796875 C-44.125 8.0596875 -44.125 3.4396875 -44.125 -1.3203125 C-29.17705369 -5.72023362 -14.0959617 -8.75815267 0 0 Z " fill="#EE5446" transform="translate(463.125,207.3203125)"/>
<path d="M0 0 C0.78375 0.639375 1.5675 1.27875 2.375 1.9375 C2.375 2.5975 2.375 3.2575 2.375 3.9375 C3.035 3.9375 3.695 3.9375 4.375 3.9375 C9.70066346 13.27001843 9.01020815 23.35152764 9.0625 33.75 C9.09167187 36.41331911 9.12627604 39.0764729 9.16499329 41.7396698 C9.18727691 43.38682005 9.20321895 45.03407228 9.21183777 46.68135071 C9.24918828 52.38219458 9.24918828 52.38219458 10.375 57.9375 C11.035 58.2675 11.695 58.5975 12.375 58.9375 C9.9571288 59.04576289 7.54412444 59.12489789 5.125 59.1875 C4.44308594 59.22101563 3.76117187 59.25453125 3.05859375 59.2890625 C-0.39611858 59.35614429 -2.25308376 59.21823677 -5.046875 57.109375 C-6.625 54.9375 -6.625 54.9375 -7.625 51.9375 C-8.27855469 52.55238281 -8.27855469 52.55238281 -8.9453125 53.1796875 C-9.54085937 53.71851563 -10.13640625 54.25734375 -10.75 54.8125 C-11.33007812 55.34617187 -11.91015625 55.87984375 -12.5078125 56.4296875 C-17.6233929 60.07288683 -23.01186315 60.30180038 -29.0625 60.3125 C-29.78759766 60.33699219 -30.51269531 60.36148438 -31.25976562 60.38671875 C-37.66396945 60.42124276 -41.74327901 58.5503383 -46.55078125 54.19140625 C-50.50888969 49.36362892 -52.91925871 45.9393837 -52.5 39.5 C-51.62994874 33.46964471 -48.52979497 28.76667435 -43.671875 25.0390625 C-32.96969026 19.2794898 -19.35021214 20.61900832 -7.625 20.9375 C-8.06518482 19.48811097 -8.51657688 18.04212253 -8.97265625 16.59765625 C-9.34789429 15.38928101 -9.34789429 15.38928101 -9.73071289 14.15649414 C-10.57051744 11.67969723 -10.57051744 11.67969723 -13.0625 9.375 C-23.51146988 5.158749 -33.7375145 8.9825058 -43.625 12.9375 C-43.625 8.3175 -43.625 3.6975 -43.625 -1.0625 C-29.10746231 -5.48689244 -13.76936189 -8.52997593 0 0 Z " fill="#EE5446" transform="translate(679.625,207.0625)"/>
<path d="M0 0 C4.91657279 3.66954185 6.47183066 7.8828857 7.87890625 13.71484375 C8.2492793 16.70655264 8.29708642 19.64806756 8.28515625 22.66015625 C8.29599243 23.47426971 8.30682861 24.28838318 8.31799316 25.12716675 C8.36336632 28.56665841 8.37531304 32.0060639 8.39013672 35.44580078 C8.40590474 37.97585189 8.43890339 40.5052912 8.47265625 43.03515625 C8.46963501 43.80199738 8.46661377 44.5688385 8.46350098 45.35891724 C8.53478516 50.5140275 9.57515475 54.09437262 11.87890625 58.71484375 C9.4407404 58.79581605 7.00526241 58.85531347 4.56640625 58.90234375 C3.87611328 58.92748047 3.18582031 58.95261719 2.47460938 58.97851562 C-2.65253295 59.05282204 -2.65253295 59.05282204 -5.02734375 57.33984375 C-6.24543331 55.53011068 -7.22898368 53.70493544 -8.12109375 51.71484375 C-8.80171875 52.47796875 -9.48234375 53.24109375 -10.18359375 54.02734375 C-17.21114337 60.45680404 -24.72856605 60.48488824 -33.78125 60.1875 C-40.55968319 59.66675155 -44.33294166 56.82164179 -48.76171875 51.88671875 C-52.01636657 47.48757939 -52.84666654 43.46785814 -52.5390625 38.0390625 C-51.43058617 31.87510535 -46.97538763 28.23658637 -42.12109375 24.71484375 C-34.07426672 20.54241492 -25.96614731 20.56402908 -17.12109375 20.65234375 C-16.25097656 20.65685547 -15.38085938 20.66136719 -14.484375 20.66601562 C-12.36325082 20.67767015 -10.24216265 20.69560018 -8.12109375 20.71484375 C-8.39008083 19.25419882 -8.67423355 17.79634071 -8.96484375 16.33984375 C-9.12146484 15.52773437 -9.27808594 14.715625 -9.43945312 13.87890625 C-9.98611931 11.44212616 -9.98611931 11.44212616 -12.62109375 9.71484375 C-13.44609375 9.38484375 -14.27109375 9.05484375 -15.12109375 8.71484375 C-15.78109375 8.38484375 -16.44109375 8.05484375 -17.12109375 7.71484375 C-25.6602328 6.87874827 -32.30826774 8.37797638 -40.12109375 11.71484375 C-41.11109375 12.04484375 -42.10109375 12.37484375 -43.12109375 12.71484375 C-44.22338071 8.30569592 -44.19763911 4.23101974 -44.12109375 -0.28515625 C-42.56088508 -0.9365055 -40.99780796 -1.58098589 -39.43359375 -2.22265625 C-38.56347656 -2.58230469 -37.69335938 -2.94195312 -36.796875 -3.3125 C-24.92757617 -7.62703344 -10.7548224 -6.51627361 0 0 Z " fill="#EE5346" transform="translate(315.12109375,207.28515625)"/>
<path d="M0 0 C5.61 0 11.22 0 17 0 C17.33 2.64 17.66 5.28 18 8 C18.825 7.236875 19.65 6.47375 20.5 5.6875 C28.2718215 -0.60142222 37.32212208 -1.22136881 47 -0.35351562 C51.99432993 0.52927121 55.60612711 3.3881053 59 7 C62.08142286 11.76219897 63.12861031 16.15696334 63.11352539 21.76855469 C63.11344986 22.70922791 63.11337433 23.64990112 63.11329651 24.61907959 C63.10813522 25.62650208 63.10297394 26.63392456 63.09765625 27.671875 C63.0962413 28.70942932 63.09482635 29.74698364 63.09336853 30.815979 C63.08777447 34.12734876 63.07522303 37.43865071 63.0625 40.75 C63.05748423 42.99609277 63.05292146 45.24218661 63.04882812 47.48828125 C63.03780699 52.9922106 63.02107474 58.49610046 63 64 C61.57198882 64.05093976 60.14344715 64.08713574 58.71484375 64.1171875 C57.91941162 64.13894043 57.12397949 64.16069336 56.30444336 64.18310547 C51.85999669 63.82996054 49.02680209 61.02680209 46 58 C45.77878553 55.57661053 45.67481932 53.25846339 45.65625 50.83203125 C45.6416272 50.11899338 45.62700439 49.40595551 45.61193848 48.67131042 C45.56537883 46.38509776 45.53125235 44.09897006 45.5 41.8125 C45.45860081 38.81870142 45.40472996 35.82548779 45.34375 32.83203125 C45.3384729 32.15259964 45.3331958 31.47316803 45.32775879 30.77314758 C45.21191381 25.12783571 43.77047746 20.31143237 42 15 C36.84197503 13.02409734 30.26998436 13.21044022 25.125 15 C21.02281667 18.86087842 18.85393868 23.78763232 18.45410156 29.39648438 C18.41349696 30.961856 18.39306061 32.52785373 18.390625 34.09375 C18.37408875 34.92588013 18.35755249 35.75801025 18.34051514 36.61535645 C18.29236954 39.24364852 18.2707397 41.87136354 18.25 44.5 C18.2218122 46.29429935 18.19188088 48.0885722 18.16015625 49.8828125 C18.08337215 54.2554652 18.04254526 58.62634774 18 63 C12.06 63 6.12 63 0 63 C0 42.21 0 21.42 0 0 Z " fill="#EE5648" transform="translate(485,203)"/>
<path d="M0 0 C4.37919738 3.5901528 6.27250328 7.00927075 7.734375 12.421875 C8.01949611 15.47597568 8.03504749 18.51612906 8.04296875 21.58203125 C8.0681152 23.36263367 8.09351341 25.14323256 8.11914062 26.92382812 C8.14792183 29.71068505 8.17196299 32.49748086 8.19067383 35.28442383 C8.21234134 37.98810033 8.25176263 40.69109222 8.29296875 43.39453125 C8.29308456 44.22485367 8.29320038 45.05517609 8.2933197 45.91065979 C8.37294475 50.57330873 8.74734 53.61817529 11.734375 57.421875 C13.80392347 59.20531678 13.80392347 59.20531678 15.734375 60.421875 C13.02542733 60.50332443 10.31896237 60.56258114 7.609375 60.609375 C6.84882812 60.63451172 6.08828125 60.65964844 5.3046875 60.68554688 C0.3967852 60.74901113 -3.11032554 60.33311064 -7.265625 57.421875 C-9.46946077 53.28196361 -9.53086446 49.5618569 -9.57421875 44.92578125 C-9.59937496 43.46549073 -9.62477304 42.00520437 -9.65039062 40.54492188 C-9.67910857 38.26295009 -9.70315235 35.98105013 -9.72192383 33.69897461 C-9.74367934 31.48254219 -9.78311546 29.2669273 -9.82421875 27.05078125 C-9.83767334 25.73150635 -9.85112793 24.41223145 -9.86499023 23.05297852 C-10.40369946 18.1704543 -11.70705429 14.72068392 -15.515625 11.546875 C-20.14212663 9.65421524 -23.75486558 9.91828853 -28.453125 11.484375 C-32.59302376 14.33630526 -34.54859429 17.70708138 -35.85131836 22.6394043 C-36.39305177 26.27766927 -36.49910188 29.89555087 -36.58203125 33.56640625 C-36.60281235 34.33619308 -36.62359344 35.10597992 -36.64500427 35.89909363 C-36.71008549 38.34410167 -36.76919091 40.78921183 -36.828125 43.234375 C-36.87134968 44.89779677 -36.91496521 46.56120844 -36.95898438 48.22460938 C-37.06645548 52.29026171 -37.16583585 56.35599789 -37.265625 60.421875 C-42.875625 60.421875 -48.485625 60.421875 -54.265625 60.421875 C-54.265625 39.631875 -54.265625 18.841875 -54.265625 -2.578125 C-48.985625 -2.578125 -43.705625 -2.578125 -38.265625 -2.578125 C-37.935625 0.061875 -37.605625 2.701875 -37.265625 5.421875 C-36.853125 5.02355469 -36.440625 4.62523437 -36.015625 4.21484375 C-26.31711977 -4.68266886 -11.51457159 -7.70523963 0 0 Z " fill="#EE5244" transform="translate(779.265625,205.578125)"/>
<path d="M0 0 C6.53346897 3.47059463 11.19067199 8.19434598 13.9375 15.125 C16.60521203 24.81212931 15.90239569 35.12098998 11 43.9375 C3.22951476 54.2886418 3.22951476 54.2886418 -2 55.9375 C-17.76147644 54.50655154 -32.22097643 42.67006695 -44 32.9375 C-42.24933935 25.58165392 -39.56547526 19.95410432 -35 13.9375 C-34.41992188 13.133125 -33.83984375 12.32875 -33.2421875 11.5 C-30.49176874 8.35666427 -27.4748771 6.12679796 -24.0625 3.75 C-23.45470703 3.31236328 -22.84691406 2.87472656 -22.22070312 2.42382812 C-14.36397506 -3.12758167 -9.05874931 -4.06887678 0 0 Z " fill="#FEFDFD" transform="translate(196,212.0625)"/>
<path d="M0 0 C4.1071297 1.03764146 7.70567605 2.62935999 11.51171875 4.46484375 C12.26130859 4.82239746 13.01089844 5.17995117 13.78320312 5.54833984 C19.93956837 8.54050275 25.67430149 11.97411089 31.32421875 15.83984375 C33.05290786 16.98639743 34.78204643 18.13227386 36.51171875 19.27734375 C37.78336284 20.13030292 39.05452868 20.98397859 40.32421875 21.83984375 C36.8128154 35.53431682 25.44844923 45.28157044 13.85546875 52.34375 C9.49261514 54.54822004 5.5331016 55.61197867 0.66015625 54.765625 C-6.02297468 52.1169594 -11.28079647 46.48880507 -14.23828125 40.02734375 C-17.41515999 31.6823369 -17.60895275 23.30413866 -14.67578125 14.83984375 C-7.33286202 -0.43890123 -7.33286202 -0.43890123 0 0 Z " fill="#FEFDFD" transform="translate(60.67578125,213.16015625)"/>
<path d="M0 0 C0.88558594 -0.01224609 1.77117188 -0.02449219 2.68359375 -0.03710938 C7.57364883 -0.04804094 11.53655556 0.2718623 16.125 2.1875 C16.125 6.1475 16.125 10.1075 16.125 14.1875 C15.25875 14.0225 14.3925 13.8575 13.5 13.6875 C1.85523332 11.90558432 1.85523332 11.90558432 -8.875 15.1875 C-9.68671228 17.74269921 -9.68671228 17.74269921 -9.875 20.1875 C-6.36363762 22.46219643 -3.13476114 23.83844221 0.875 25 C8.02740896 27.31660537 13.5478541 30.42178245 18.6875 35.9375 C21.05338661 41.28646102 21.14371249 46.09218128 19.3125 51.65625 C16.3549389 57.81783562 12.37349691 60.67118483 6.125 63.1875 C-4.07326624 66.75689318 -15.52705855 65.89297324 -25.875 63.1875 C-26.205 62.8575 -26.535 62.5275 -26.875 62.1875 C-26.52834395 55.94769108 -26.52834395 55.94769108 -24.41796875 53.4921875 C-19.871525 51.15960346 -14.80694582 51.71317665 -9.78515625 51.66015625 C-4.85309402 51.56196309 -4.85309402 51.56196309 -0.31640625 49.8125 C1.32893562 48.22119416 1.32893562 48.22119416 1.6875 45.6875 C1.37798464 43.00775217 1.37798464 43.00775217 -1.015625 41.67578125 C-4.0177906 40.11317866 -6.99282826 38.98835267 -10.1875 37.875 C-17.0793391 35.26812089 -22.49168668 32.46455581 -26.875 26.4375 C-28.44829364 21.32429569 -29.09762412 16.24701351 -27.06640625 11.1640625 C-23.67655675 5.79191346 -18.0540262 2.42550552 -12.02319336 0.63891602 C-8.05955236 -0.19399366 -4.03541434 0.00291155 0 0 Z " fill="#EE5446" transform="translate(861.875,202.8125)"/>
<path d="M0 0 C0.8765625 -0.00773438 1.753125 -0.01546875 2.65625 -0.0234375 C7.50301655 -0.00883881 11.45196119 0.3649576 16 2.25 C16 6.21 16 10.17 16 14.25 C15.13375 14.085 14.2675 13.92 13.375 13.75 C9.54628511 13.21649055 5.73823297 13.08116036 1.875 13 C0.69679688 12.97421875 -0.48140625 12.9484375 -1.6953125 12.921875 C-5.26016811 13.27583229 -7.11796365 14.18363432 -10 16.25 C-10.2113453 18.6412295 -10.2113453 18.6412295 -9 21.25 C-4.85541567 23.88998022 -0.11118605 25.22695826 4.5625 26.625 C10.87994557 28.68287194 15.59248631 31.87482065 19 37.625 C20.531722 43.17749224 21.0946825 47.69158522 18.375 52.9375 C14.32331402 59.15669631 8.91950085 62.17695116 2 64.25 C1.38511719 64.43691406 0.77023437 64.62382812 0.13671875 64.81640625 C-8.31072647 66.53060446 -17.72791025 65.41274102 -26 63.25 C-26.33 62.92 -26.66 62.59 -27 62.25 C-26.65334395 56.01019108 -26.65334395 56.01019108 -24.54296875 53.5546875 C-19.996525 51.22210346 -14.93194582 51.77567665 -9.91015625 51.72265625 C-4.97809402 51.62446309 -4.97809402 51.62446309 -0.44140625 49.875 C1.20393562 48.28369416 1.20393562 48.28369416 1.5625 45.75 C1.25438753 43.08374476 1.25438753 43.08374476 -1.07421875 41.76953125 C-3.80087637 40.35341668 -6.5376684 39.21829271 -9.41918945 38.15771484 C-16.44160731 35.57175396 -23.02544215 33.06837625 -27.140625 26.40234375 C-29.03281543 21.66326681 -29.06419967 15.84398669 -27.125 11.1171875 C-20.95164836 1.73531758 -10.47271417 -0.0924063 0 0 Z " fill="#EE5446" transform="translate(360,202.75)"/>
<path d="M0 0 C0 5.94 0 11.88 0 18 C5.28 18 10.56 18 16 18 C16 21.96 16 25.92 16 30 C11.05 30 6.1 30 1 30 C1.12000659 34.62663717 1.24270713 39.25303931 1.37231445 43.87939453 C1.41557338 45.45259374 1.45725474 47.02583717 1.49731445 48.59912109 C1.55523662 50.86309115 1.61886714 53.12684051 1.68359375 55.390625 C1.70030624 56.09181458 1.71701874 56.79300415 1.73423767 57.51544189 C1.83609475 60.88791167 2.17479252 63.69917008 3 67 C9.93 67.495 9.93 67.495 17 68 C17 72.29 17 76.58 17 81 C13.37762495 82.20745835 10.0229405 82.22246029 6.25 82.25 C5.5590625 82.270625 4.868125 82.29125 4.15625 82.3125 C-1.69213192 82.3564728 -6.24840295 81.20462644 -10.92578125 77.45703125 C-11.61220703 76.64298828 -11.61220703 76.64298828 -12.3125 75.8125 C-12.78300781 75.28269531 -13.25351562 74.75289063 -13.73828125 74.20703125 C-17.73946354 67.20805914 -17.30699022 59.17097351 -17.30078125 51.36328125 C-17.30506638 50.16567673 -17.3093515 48.9680722 -17.31376648 47.73417664 C-17.31948832 45.21365998 -17.32002594 42.69312682 -17.31567383 40.17260742 C-17.31250177 36.31465726 -17.33604278 32.45746557 -17.36132812 28.59960938 C-17.36360009 26.1458343 -17.36430509 23.69205716 -17.36328125 21.23828125 C-17.372491 20.08612625 -17.38170074 18.93397125 -17.39118958 17.74690247 C-17.38496078 16.6719603 -17.37873199 15.59701813 -17.37231445 14.48950195 C-17.37294388 13.54766556 -17.3735733 12.60582916 -17.3742218 11.63545227 C-16.92520322 8.47324465 -15.8376217 6.58928392 -14 4 C-12.16796875 2.63671875 -12.16796875 2.63671875 -10.1875 1.6875 C-9.54167969 1.36136719 -8.89585937 1.03523437 -8.23046875 0.69921875 C-6 0 -6 0 0 0 Z " fill="#EE5547" transform="translate(811,185)"/>
<path d="M0 0 C1.12595581 0.00519653 1.12595581 0.00519653 2.2746582 0.01049805 C7.67623889 0.1170114 11.69527595 0.83297077 16.5625 3.3125 C17.573125 3.704375 18.58375 4.09625 19.625 4.5 C28.91883294 10.23449266 32.14560491 19.12701356 34.5625 29.3125 C35.01218588 32.76009177 34.99744684 35.86867435 34.5625 39.3125 C34.47871094 40.05757812 34.39492187 40.80265625 34.30859375 41.5703125 C33.10888012 48.81910852 29.28097307 56.55416562 23.5625 61.3125 C13.89115279 65.84944473 2.8407481 64.92477421 -7.4375 63.3125 C-7.4375 62.6525 -7.4375 61.9925 -7.4375 61.3125 C-6.57125 60.755625 -5.705 60.19875 -4.8125 59.625 C2.71686992 54.75932227 6.58493257 47.98251313 8.5625 39.3125 C9.54941004 29.99784342 8.80275803 21.31258388 3.125 13.625 C-0.45473873 9.73790996 -4.98645649 7.75228727 -9.73046875 5.57421875 C-12.4375 4.3125 -12.4375 4.3125 -15.4375 2.3125 C-10.16798365 0.57445978 -5.53703261 -0.04149214 0 0 Z " fill="#9385BB" transform="translate(201.4375,205.6875)"/>
<path d="M0 0 C1.39702148 0.00966797 1.39702148 0.00966797 2.82226562 0.01953125 C3.78197266 0.03628906 4.74167969 0.05304688 5.73046875 0.0703125 C6.70951172 0.07933594 7.68855469 0.08835938 8.69726562 0.09765625 C11.10441936 0.12114068 13.51106618 0.1539841 15.91796875 0.1953125 C15.91796875 0.8553125 15.91796875 1.5153125 15.91796875 2.1953125 C14.86609375 2.9378125 14.86609375 2.9378125 13.79296875 3.6953125 C6.01826944 10.45592059 3.39329219 19.20623713 2.60546875 29.1328125 C2.92839404 37.69883062 5.74380672 44.0804862 11.64453125 50.27734375 C15.05848568 53.15750118 18.70272032 54.79998721 22.91796875 56.1953125 C16.13798706 60.71530029 7.53774861 59.98711201 -0.25 58.65234375 C-9.36480629 56.14076065 -15.85128394 50.77797689 -20.58984375 42.58984375 C-23.88295045 34.79462266 -24.65160359 25.68881568 -22.31640625 17.515625 C-21.3730984 15.29211364 -20.32192923 13.26606996 -19.08203125 11.1953125 C-18.44265625 10.0815625 -17.80328125 8.9678125 -17.14453125 7.8203125 C-12.91188346 2.43330623 -6.77640227 -0.08314604 0 0 Z " fill="#9184BA" transform="translate(42.08203125,211.8046875)"/>
<path d="M0 0 C0.65484375 0.52335938 1.3096875 1.04671875 1.984375 1.5859375 C1.984375 2.2459375 1.984375 2.9059375 1.984375 3.5859375 C2.644375 3.5859375 3.304375 3.5859375 3.984375 3.5859375 C3.984375 4.2459375 3.984375 4.9059375 3.984375 5.5859375 C4.644375 5.5859375 5.304375 5.5859375 5.984375 5.5859375 C7.7109375 7.703125 7.7109375 7.703125 9.609375 10.4609375 C10.24101563 11.36585938 10.87265625 12.27078125 11.5234375 13.203125 C12.984375 15.5859375 12.984375 15.5859375 12.984375 17.5859375 C7.31175868 16.67099938 1.99174977 14.6209431 -3.421875 12.7578125 C-15.94254237 8.50078559 -32.45073285 7.01378338 -44.76953125 12.90234375 C-46.47640522 13.81416725 -48.16459229 14.76258345 -49.82421875 15.7578125 C-52.015625 16.5859375 -52.015625 16.5859375 -54.19921875 15.86328125 C-58.61629934 12.75707619 -59.92969226 7.65362364 -61.015625 2.5859375 C-61.078125 0.0703125 -61.078125 0.0703125 -60.015625 -2.4140625 C-57.41755644 -3.95036694 -54.64012317 -4.78033249 -51.765625 -5.6640625 C-51.00121094 -5.91929687 -50.23679687 -6.17453125 -49.44921875 -6.4375 C-31.59649044 -12.29590825 -15.7541292 -10.19123047 0 0 Z " fill="#9183BA" transform="translate(88.015625,181.4140625)"/>
<path d="M0 0 C5.94 0 11.88 0 18 0 C18 20.79 18 41.58 18 63 C8.42857143 63 8.42857143 63 5 61 C1.02221334 56.69073112 -0.12726283 53.57765168 -0.11352539 47.79418945 C-0.11344986 46.73331619 -0.11337433 45.67244293 -0.11329651 44.579422 C-0.10813522 43.43559555 -0.10297394 42.2917691 -0.09765625 41.11328125 C-0.0962413 39.94113571 -0.09482635 38.76899017 -0.09336853 37.56132507 C-0.08776388 33.81169093 -0.07521056 30.06211615 -0.0625 26.3125 C-0.0574856 23.77278732 -0.05292259 21.2330737 -0.04882812 18.69335938 C-0.03779294 12.46221665 -0.02052515 6.2311184 0 0 Z " fill="#EE5749" transform="translate(696,203)"/>
<path d="M0 0 C5.61 0 11.22 0 17 0 C17 20.79 17 41.58 17 63 C7.95783133 63 7.95783133 63 5.125 60.75 C4.57070313 60.33234375 4.01640625 59.9146875 3.4453125 59.484375 C0.22675951 56.1788341 -0.24812335 53.09839631 -0.22705078 48.58886719 C-0.22689972 47.50804871 -0.22674866 46.42723022 -0.22659302 45.31365967 C-0.21627045 44.15312073 -0.20594788 42.99258179 -0.1953125 41.796875 C-0.1924826 40.60394836 -0.18965271 39.41102173 -0.18673706 38.1819458 C-0.17554053 34.37119524 -0.15043653 30.56067955 -0.125 26.75 C-0.11496954 24.16667006 -0.1058438 21.58333644 -0.09765625 19 C-0.07560285 12.66657615 -0.04107626 6.3333279 0 0 Z " fill="#EE5143" transform="translate(387,203)"/>
<path d="M0 0 C4.89059678 1.61751255 8.71896849 4.42305239 12.875 7.375 C29.07526967 18.82849879 45.89244063 25.5126045 66.05859375 22.55078125 C68.38893488 22.08471302 70.69625587 21.58243644 73 21 C63.79486053 30.74661826 53.80613958 34.0887475 40.58129883 34.47729492 C24.76640132 34.59624239 12.51471008 31.21228794 -1 23 C-2.73962949 21.26037051 -2.17243833 18.92718277 -2.1875 16.5625 C-2.15319418 10.83342871 -1.37518228 5.54984279 0 0 Z " fill="#F27749" transform="translate(152,246)"/>
<path d="M0 0 C3.74238581 2.85134157 5.39579991 5.45610302 6.625 10 C7.55099604 18.03159827 7.62452074 26.26987592 2.625 33 C-0.74316247 36.20237209 -4.2933007 37.2502888 -8.875 37.5625 C-13.7988099 37.31042782 -17.01288836 35.56256274 -20.375 32 C-24.34320734 25.85567895 -24.03239362 19.13227047 -23.375 12 C-22.19944624 6.82391832 -19.34120701 3.45771893 -15.375 0 C-10.76210958 -2.30644521 -4.78020998 -1.41635851 0 0 Z " fill="#FEFDFD" transform="translate(597.375,217)"/>
<path d="M0 0 C0.66 0.33 1.32 0.66 2 1 C2 16.84 2 32.68 2 49 C-7.44827586 49 -7.44827586 49 -12 46 C-16.74509108 40.7419261 -17.14105196 37.39409571 -17.09765625 30.4921875 C-17.0962413 29.65156769 -17.09482635 28.81094788 -17.09336853 27.94485474 C-17.08776237 25.25486725 -17.07520886 22.56496241 -17.0625 19.875 C-17.05748579 18.05338662 -17.05292275 16.23177193 -17.04882812 14.41015625 C-17.03779094 9.94007223 -17.0205222 5.47005014 -17 1 C-12.36226038 -1.31886981 -5.1683441 0 0 0 Z " fill="#F48648" transform="translate(147,279)"/>
<path d="M0 0 C2.19270388 3.28905581 2.74221082 5.71873658 3.5625 9.5625 C4.42101371 13.90721829 4.42101371 13.90721829 6 18 C5.4228132 20.58138819 4.78643695 23.08536358 4.0625 25.625 C3.86720703 26.33140625 3.67191406 27.0378125 3.47070312 27.765625 C2.98685508 29.51219844 2.49424877 31.25634124 2 33 C0.824375 33.185625 0.824375 33.185625 -0.375 33.375 C-3.14057822 33.79117993 -3.14057822 33.79117993 -5 36 C-6.32 35.34 -7.64 34.68 -9 34 C-9.433125 34.66 -9.86625 35.32 -10.3125 36 C-10.869375 36.66 -11.42625 37.32 -12 38 C-16 38 -20 38 -24 38 C-25 35 -25 35 -24.109375 32.828125 C-23.66078125 31.97734375 -23.2121875 31.1265625 -22.75 30.25 C-19.96393 24.45404828 -18.75434909 18.75998334 -17.67578125 12.48046875 C-17.03587673 9.18477555 -16.13539173 6.15493957 -15 3 C-14.01 3.66 -13.02 4.32 -12 5 C-8.51394686 5 -5.4118321 4.74439973 -2 4 C-0.48705712 2.06402968 -0.48705712 2.06402968 0 0 Z " fill="#F7A24F" transform="translate(121,210)"/>
<path d="M0 0 C0.79921875 -0.00773438 1.5984375 -0.01546875 2.421875 -0.0234375 C16.53801914 0.02224581 29.01772771 4.95524372 39.625 14.25 C38.965 14.58 38.305 14.91 37.625 15.25 C35.60776656 14.28523618 33.60887708 13.28161608 31.625 12.25 C27.69796676 10.87735644 23.61063929 11.05846028 19.5 11.0625 C18.74025879 11.06258057 17.98051758 11.06266113 17.19775391 11.06274414 C12.21211331 11.11320609 7.56482229 11.55831021 2.70703125 12.75 C0.625 13.25 0.625 13.25 -3.3125 13.6875 C-6.58043962 14.28773381 -7.28142455 14.84238823 -9.375 17.25 C-17.70833333 17.25 -26.04166667 17.25 -34.375 17.25 C-34.705 16.26 -35.035 15.27 -35.375 14.25 C-25.45250822 4.77853057 -13.67885327 -0.13110722 0 0 Z " fill="#EF6348" transform="translate(182.375,195.75)"/>
<path d="M0 0 C1.60875 0.2784375 1.60875 0.2784375 3.25 0.5625 C6.5538867 0.94795345 7.96050624 0.83848104 11 0 C12.33333333 0.33333333 13.66666667 0.66666667 15 1 C15.66 0.835 16.32 0.67 17 0.5 C19.34648094 -0.08662023 20.72600578 0.26907328 23 1 C24.01399293 7.42195525 20.56063726 11.96659307 17 17 C13.55832425 21.09229391 9.10943126 22.02001649 4 23 C-3.06878706 23.48196275 -10.00928965 23.09658202 -17 22 C-17 21.34 -17 20.68 -17 20 C-15.5753599 19.08415994 -14.15024958 18.16904228 -12.72265625 17.2578125 C-7.31675689 13.31064789 -4.26930127 8.17754235 -2 2 C-1.34 2 -0.68 2 0 2 C0 1.34 0 0.68 0 0 Z " fill="#403D76" transform="translate(211,247)"/>
<path d="M0 0 C2.83967231 0 5.23735711 -0.40267181 8 -1 C8 -0.34 8 0.32 8 1 C13.36891879 0.50130596 18.69235173 -0.02227532 24 -1 C24 -0.34 24 0.32 24 1 C24.99 0.67 25.98 0.34 27 0 C27.495 1.98 27.495 1.98 28 4 C13.7674447 12.50649824 -0.31743068 15.35305531 -16.7265625 12.30859375 C-23.91358442 10.25883452 -30.77530911 7.15771338 -37 3 C-37.33 2.34 -37.66 1.68 -38 1 C-36.783125 1.33 -35.56625 1.66 -34.3125 2 C-24.45946824 4.13122004 -15.9048769 3.54375636 -6.55859375 -0.22265625 C-3.77676088 -1.06782379 -2.69241642 -0.90506176 0 0 Z " fill="#EF6248" transform="translate(74,267)"/>
<path d="M0 0 C1.12595581 0.00519653 1.12595581 0.00519653 2.2746582 0.01049805 C7.67623889 0.1170114 11.69527595 0.83297077 16.5625 3.3125 C17.573125 3.704375 18.58375 4.09625 19.625 4.5 C24.1679748 7.30311211 28.55723888 11.16662404 30.2265625 16.390625 C30.5 18.3125 30.5 18.3125 30.5625 21.3125 C27.13483436 22.16941641 24.93498325 22.32424497 21.5625 21.3125 C18.64225631 21.19726681 18.64225631 21.19726681 16.1875 21.875 C13.18008797 22.37623534 11.43738171 22.34450882 8.5625 21.3125 C6.28384988 18.82022643 4.46216112 16.16512727 2.5625 13.375 C-0.6591313 9.45433549 -5.17790759 7.70472989 -9.6953125 5.609375 C-12.4375 4.3125 -12.4375 4.3125 -15.4375 2.3125 C-10.16798365 0.57445978 -5.53703261 -0.04149214 0 0 Z " fill="#413C75" transform="translate(201.4375,205.6875)"/>
<path d="M0 0 C3.70697705 -0.26260373 7.41156358 -0.42156838 11.125 -0.5625 C12.17171875 -0.63791016 13.2184375 -0.71332031 14.296875 -0.79101562 C17.42975712 -0.88024328 19.97496316 -0.83633701 23 0 C25.12849393 2.09001119 26.39530931 4.07278639 27.76318359 6.71533203 C30.3670579 11.52525223 34.4510483 14.38041932 39.4375 16.375 C40.7059375 16.684375 40.7059375 16.684375 42 17 C35.22001831 21.51998779 26.61977986 20.79179951 18.83203125 19.45703125 C10.67470764 17.20928231 5.12124233 12.69948682 0 6 C-0.83203125 3.8125 -0.83203125 3.8125 -1 2 C-0.67 1.34 -0.34 0.68 0 0 Z " fill="#413E78" transform="translate(23,251)"/>
<path d="M0 0 C1.44149414 0.02707031 1.44149414 0.02707031 2.91210938 0.0546875 C5.25499227 0.10131204 7.5956829 0.16671831 9.9375 0.25 C9.9375 0.91 9.9375 1.57 9.9375 2.25 C9.18339844 2.83523437 8.42929687 3.42046875 7.65234375 4.0234375 C3.95555764 7.05533402 2.17883547 10.6547319 -0.12109375 14.7890625 C-2.51960051 17.82942318 -4.35166856 18.35564515 -8.0625 19.25 C-9.3 19.5903125 -9.3 19.5903125 -10.5625 19.9375 C-13.58476705 20.31528338 -16.08505255 19.83254407 -19.0625 19.25 C-20.0525 19.25 -21.0425 19.25 -22.0625 19.25 C-23.73349977 18.93911632 -25.40121537 18.60919668 -27.0625 18.25 C-26.81165931 13.23318613 -24.98299625 10.18141608 -22.21875 6.1796875 C-15.66174084 0.31163945 -8.46642178 -0.30637017 0 0 Z " fill="#403D77" transform="translate(48.0625,211.75)"/>
<path d="M0 0 C0.84353027 -0.00555908 1.68706055 -0.01111816 2.55615234 -0.0168457 C7.94909731 0.04509957 12.63114281 0.81247618 17.8125 2.3125 C16.8225 3.3025 15.8325 4.2925 14.8125 5.3125 C14.1525 4.9825 13.4925 4.6525 12.8125 4.3125 C13.3384375 5.488125 13.3384375 5.488125 13.875 6.6875 C14.184375 7.55375 14.49375 8.42 14.8125 9.3125 C14.4825 9.9725 14.1525 10.6325 13.8125 11.3125 C14.4725 11.6425 15.1325 11.9725 15.8125 12.3125 C15.1525 12.3125 14.4925 12.3125 13.8125 12.3125 C14.3075 15.7775 14.3075 15.7775 14.8125 19.3125 C14.28817383 19.07539307 13.76384766 18.83828613 13.22363281 18.59399414 C10.83812187 17.51756002 8.45034939 16.44623612 6.0625 15.375 C5.2375 15.00181641 4.4125 14.62863281 3.5625 14.24414062 C2.76328125 13.88642578 1.9640625 13.52871094 1.140625 13.16015625 C0.4074707 12.83023682 -0.32568359 12.50031738 -1.08105469 12.16040039 C-6.52515167 9.96900623 -11.70232514 10.12899014 -17.5 10.125 C-18.88735352 10.10663086 -18.88735352 10.10663086 -20.30273438 10.08789062 C-25.66919376 10.07644828 -30.11400199 10.54202414 -35.1875 12.3125 C-26.90875279 2.15221933 -12.24107093 0.06819227 0 0 Z " fill="#F5A052" transform="translate(65.1875,202.6875)"/>
<path d="M0 0 C4.10718681 1.48590246 7.63383389 3.46336401 11.3125 5.8125 C12.38113281 6.47894531 13.44976562 7.14539063 14.55078125 7.83203125 C17 10 17 10 17.41796875 12.57421875 C17 15 17 15 16 18 C15.85870424 21.39109824 15.92101907 23.7630572 17 27 C16.34 27.99 15.68 28.98 15 30 C10.89223994 29.400327 7.85798616 28.0282733 4.25 26 C3.28578125 25.46375 2.3215625 24.9275 1.328125 24.375 C-1 23 -1 23 -2 22 C-2.53563594 14.43881354 -1.8180258 7.33703271 0 0 Z " fill="#F0694C" transform="translate(152,246)"/>
<path d="M0 0 C1.10408203 0.01353516 1.10408203 0.01353516 2.23046875 0.02734375 C4.0287888 0.05069856 5.82693911 0.08656164 7.625 0.125 C7.15479988 6.94290175 5.54196501 10.60033394 1.125 15.9375 C-2.47671552 18.78885812 -7.5584267 18.5207276 -11.95703125 18.46875 C-14.375 18.125 -14.375 18.125 -17.5 16 C-19.73196906 12.57764744 -20.20828611 11.12477332 -19.375 7.125 C-14.15197393 0.36578979 -7.96036022 -0.18713324 0 0 Z " fill="#FEFAF9" transform="translate(448.375,237.875)"/>
<path d="M0 0 C-0.26758666 6.02069994 -0.86574196 10.30705844 -5 15 C-10.12246159 18.74814263 -15.879352 18.85115261 -22 18 C-25.25402611 15.98560288 -25.77864401 14.65023321 -27 11.0625 C-27 8 -27 8 -25.5625 5.3125 C-18.18133052 -1.34855538 -9.29730257 -0.32685829 0 0 Z " fill="#FEFBFA" transform="translate(672,238)"/>
<path d="M0 0 C1.03253906 0.01353516 1.03253906 0.01353516 2.0859375 0.02734375 C3.76577838 0.05067487 5.44543746 0.08653674 7.125 0.125 C6.91479821 9.79428251 6.91479821 9.79428251 3.875 13.625 C-0.94791786 18.00947078 -5.0970586 18.64708078 -11.4921875 18.50390625 C-13.875 18.125 -13.875 18.125 -17 16 C-19.23196906 12.57764744 -19.70828611 11.12477332 -18.875 7.125 C-13.80991802 0.57018803 -7.88702847 -0.19870421 0 0 Z " fill="#FEFCFB" transform="translate(299.875,237.875)"/>
<path d="M0 0 C0.66 0.66 1.32 1.32 2 2 C0.948125 2.45375 -0.10375 2.9075 -1.1875 3.375 C-6.06464291 5.76575633 -10.11781432 9.07883477 -14.25463867 12.55810547 C-17.77343086 15.41682152 -20.42869498 16.87835463 -25 17 C-25.99 16.34 -26.98 15.68 -28 15 C-28.33 15.66 -28.66 16.32 -29 17 C-29 16.34 -29 15.68 -29 15 C-30.65 15.66 -32.3 16.32 -34 17 C-34 16.34 -34 15.68 -34 15 C-34.56589844 15.15597656 -35.13179687 15.31195313 -35.71484375 15.47265625 C-36.81505859 15.76462891 -36.81505859 15.76462891 -37.9375 16.0625 C-38.66839844 16.25972656 -39.39929688 16.45695312 -40.15234375 16.66015625 C-40.76207031 16.77230469 -41.37179688 16.88445312 -42 17 C-42.33 16.67 -42.66 16.34 -43 16 C-43.66 16.66 -44.32 17.32 -45 18 C-45 11.25257773 -40.42228951 7.53309859 -36 3 C-35.39285156 3.1753125 -34.78570312 3.350625 -34.16015625 3.53125 C-31.5131332 4.10564921 -29.6310889 3.53971054 -27 3 C-26.01 3.33 -25.02 3.66 -24 4 C-22.65737935 3.70630173 -21.32303717 3.3721042 -20 3 C-17 3 -17 3 -14.5625 3.5625 C-11.9149337 4.01452351 -10.48875722 3.94401136 -8 3 C-7.34 2.34 -6.68 1.68 -6 1 C-4.33382885 0.95936168 -2.66611905 0.957279 -1 1 C-0.67 0.67 -0.34 0.34 0 0 Z " fill="#F37649" transform="translate(182,208)"/>
<path d="M0 0 C1.875 1.1875 1.875 1.1875 3 3 C2.814375 3.70125 2.62875 4.4025 2.4375 5.125 C1.75102344 9.6361317 3.9849834 13.03050378 6 17 C3.9263441 18.06080085 1.84064914 19.09809524 -0.25 20.125 C-1.41015625 20.70507812 -2.5703125 21.28515625 -3.765625 21.8828125 C-7 23 -7 23 -9.3203125 22.31640625 C-13.55131841 19.00047836 -14.91042307 14.08469234 -16 9 C-15.84375 6.42578125 -15.84375 6.42578125 -15 4 C-12.890625 2.63671875 -12.890625 2.63671875 -10.25 1.6875 C-9.38890625 1.36136719 -8.5278125 1.03523437 -7.640625 0.69921875 C-4.94093107 -0.01564103 -2.7782069 -0.2180845 0 0 Z " fill="#635798" transform="translate(43,175)"/>
<path d="M0 0 C13.76234929 -0.68811746 26.73611324 3.59629814 37.23046875 12.69140625 C45.4946164 20.38141862 45.4946164 20.38141862 46 27 C44.56274129 27.16873478 43.12518162 27.33490737 41.6875 27.5 C40.88699219 27.5928125 40.08648437 27.685625 39.26171875 27.78125 C37 28 37 28 34 28 C33.20724852 26.5839401 32.41584688 25.16712447 31.625 23.75 C31.18414062 22.96109375 30.74328125 22.1721875 30.2890625 21.359375 C29.14252177 19.26085803 28.05350448 17.1463923 27 15 C26.34 15 25.68 15 25 15 C25 14.34 25 13.68 25 13 C24.34 13 23.68 13 23 13 C23 12.34 23 11.68 23 11 C22.45988281 10.731875 21.91976562 10.46375 21.36328125 10.1875 C19.64616653 9.32468533 17.93610267 8.44779377 16.23046875 7.5625 C10.88450709 4.81746192 5.8720073 2.33454711 0 1 C0 0.67 0 0.34 0 0 Z " fill="#EE674D" transform="translate(67,172)"/>
<path d="M0 0 C0.74886475 0.00523682 1.49772949 0.01047363 2.26928711 0.01586914 C3.36188843 0.01961548 3.36188843 0.01961548 4.4765625 0.0234375 C5.40718506 0.0325415 6.33780762 0.04164551 7.29663086 0.05102539 C11.72069336 0.08196289 11.72069336 0.08196289 16.23413086 0.11352539 C16.23413086 6.71352539 16.23413086 13.31352539 16.23413086 20.11352539 C6.785855 20.11352539 6.785855 20.11352539 2.23413086 17.11352539 C-1.30543834 13.19130006 -2.90772162 10.80057252 -2.89086914 5.55102539 C-2.89473633 4.3425293 -2.89473633 4.3425293 -2.89868164 3.10961914 C-2.72918093 0.56212314 -2.5589233 0.16450979 0 0 Z " fill="#EF5F45" transform="translate(132.765869140625,307.886474609375)"/>
<path d="M0 0 C3.54548627 1.27333774 5.48219472 3.71308411 7.37109375 6.8515625 C8.37109375 10.0390625 8.37109375 10.0390625 8.37109375 12.8515625 C6.77348184 15.42549279 5.62054775 15.78774869 2.68359375 16.5390625 C1.92046875 16.6421875 1.15734375 16.7453125 0.37109375 16.8515625 C0.37109375 17.5115625 0.37109375 18.1715625 0.37109375 18.8515625 C-1.27890625 19.5115625 -2.92890625 20.1715625 -4.62890625 20.8515625 C-4.87640625 20.0471875 -5.12390625 19.2428125 -5.37890625 18.4140625 C-5.79140625 17.5684375 -6.20390625 16.7228125 -6.62890625 15.8515625 C-7.94890625 15.5215625 -9.26890625 15.1915625 -10.62890625 14.8515625 C-10.95890625 11.8815625 -11.28890625 8.9115625 -11.62890625 5.8515625 C-10.24655747 4.81254217 -8.84734834 3.79592804 -7.44140625 2.7890625 C-6.66410156 2.22058594 -5.88679688 1.65210938 -5.0859375 1.06640625 C-2.62890625 -0.1484375 -2.62890625 -0.1484375 0 0 Z " fill="#EE5547" transform="translate(396.62890625,171.1484375)"/>
<path d="M0 0 C2.83002866 0 4.50725208 0.58012325 6.6640625 2.41796875 C9.37415725 5.32714629 10.85410473 7.31031325 11.6875 11.25 C11 14 11 14 8.6875 15.875 C6 17 6 17 3 17 C3 17.66 3 18.32 3 19 C2.34 19 1.68 19 1 19 C1 19.66 1 20.32 1 21 C-0.9375 20.6875 -0.9375 20.6875 -3 20 C-3.33 19.01 -3.66 18.02 -4 17 C-4.99 16.67 -5.98 16.34 -7 16 C-8.20272819 13.59454362 -8.10071472 12.05003047 -8.0625 9.375 C-8.05347656 8.55773437 -8.04445313 7.74046875 -8.03515625 6.8984375 C-8.02355469 6.27195313 -8.01195312 5.64546875 -8 5 C-6.20963542 3.99088542 -4.41927083 2.98177083 -2.62890625 1.97265625 C-1.02121854 1.1027487 -1.02121854 1.1027487 0 0 Z " fill="#EE5547" transform="translate(703,171)"/>
<path d="M0 0 C1.65 0 3.3 0 5 0 C5.33 0.99 5.66 1.98 6 3 C9.0745356 2.2236068 9.0745356 2.2236068 11 0 C11.33 0.99 11.66 1.98 12 3 C15.0745356 2.2236068 15.0745356 2.2236068 17 0 C19 2 19 2 19.265625 4.53125 C19.26046875 5.5109375 19.2553125 6.490625 19.25 7.5 C19.25515625 8.4796875 19.2603125 9.459375 19.265625 10.46875 C19 13 19 13 17 15 C12.30380339 16.06102674 7.65722627 16.35209795 3 15 C3 14.34 3 13.68 3 13 C2.01 13.33 1.02 13.66 0 14 C0 9.38 0 4.76 0 0 Z " fill="#F27347" transform="translate(130,295)"/>
<path d="M0 0 C4.84590538 0.44053685 8.48141867 2.74505877 12 6 C12 6.66 12 7.32 12 8 C12.66 8 13.32 8 14 8 C14 8.66 14 9.32 14 10 C14.66 10 15.32 10 16 10 C17.7265625 12.1171875 17.7265625 12.1171875 19.625 14.875 C20.25664063 15.77992188 20.88828125 16.68484375 21.5390625 17.6171875 C23 20 23 20 23 22 C16.0078528 20.80465131 7.7192148 18.45119862 2.75 13.125 C0.67833358 9.42559568 0.6846779 7.17801785 1 3 C0.67 2.01 0.34 1.02 0 0 Z " fill="#665796" transform="translate(78,177)"/>
<path d="M0 0 C1.60875 0.2784375 1.60875 0.2784375 3.25 0.5625 C6.5538867 0.94795345 7.96050624 0.83848104 11 0 C12.33333333 0.33333333 13.66666667 0.66666667 15 1 C15.66 0.835 16.32 0.67 17 0.5 C19.34648094 -0.08662023 20.72600578 0.26907328 23 1 C23 2.98 23 4.96 23 7 C22.01 7.33 21.02 7.66 20 8 C19.67 8.66 19.34 9.32 19 10 C18.34 9.67 17.68 9.34 17 9 C16.67 9.66 16.34 10.32 16 11 C16 10.34 16 9.68 16 9 C15.01 9 14.02 9 13 9 C12.67 9.66 12.34 10.32 12 11 C11.34 11 10.68 11 10 11 C10 10.34 10 9.68 10 9 C9.319375 9.37125 8.63875 9.7425 7.9375 10.125 C4.06407781 11.27878533 1.74400143 10.32141227 -2 9 C-2.33 9.66 -2.66 10.32 -3 11 C-4.0326802 8.21176345 -4.04509293 7.1322726 -3.0625 4.25 C-2.711875 3.5075 -2.36125 2.765 -2 2 C-1.34 2 -0.68 2 0 2 C0 1.34 0 0.68 0 0 Z " fill="#5F5495" transform="translate(211,247)"/>
<path d="M0 0 C0.556875 0.350625 1.11375 0.70125 1.6875 1.0625 C4.53886783 2.21845993 6.08517222 1.80967438 9 1 C11.40814077 4.51187196 12.36629408 6.72656908 12 11 C8.57233436 11.85691641 6.37248325 12.01174497 3 11 C0.07975631 10.88476681 0.07975631 10.88476681 -2.375 11.5625 C-5.38241203 12.06373534 -7.12511829 12.03200882 -10 11 C-12.85967141 7.97211263 -14.93862444 4.60740723 -17 1 C-13 2 -13 2 -11.0625 2.625 C-8.47749901 3.09500018 -6.54395569 2.5870667 -4 2 C-3.01 2 -2.02 2 -1 2 C-0.67 1.34 -0.34 0.68 0 0 Z " fill="#5F5394" transform="translate(220,216)"/>
<path d="M0 0 C0.61875 0.33 1.2375 0.66 1.875 1 C3.91018344 2.14193235 3.91018344 2.14193235 6 2 C6.33 1.34 6.66 0.68 7 0 C7.66 0 8.32 0 9 0 C9 0.66 9 1.32 9 2 C10.0828125 1.9690625 10.0828125 1.9690625 11.1875 1.9375 C14 2 14 2 16.4375 2.625 C19.74558053 3.10910935 21.92961071 2.21387483 25 1 C24.13508147 4.89213341 23.64355037 6.5758418 20.25 8.8125 C14.72939725 10.82964331 10.75504701 11.1510094 5 10 C4.01 10 3.02 10 2 10 C0.32900023 9.68911632 -1.33871537 9.35919668 -3 9 C-2.5020163 5.26512223 -2.12508244 3.18762365 0 0 Z " fill="#605595" transform="translate(24,221)"/>
<path d="M0 0 C4.29 1.32 8.58 2.64 13 4 C14 9 14 9 13 12 C13.66 12.33 14.32 12.66 15 13 C15 14.32 15 15.64 15 17 C15.99 18.32 16.98 19.64 18 21 C13.71 20.01 9.42 19.02 5 18 C4.67 16.02 4.34 14.04 4 12 C3.34 11.67 2.68 11.34 2 11 C1.59367909 9.01354224 1.27050453 7.00946222 1 5 C0.67 3.35 0.34 1.7 0 0 Z " fill="#796BA7" transform="translate(66,172)"/>
<path d="M0 0 C11 0 11 0 13.5625 0.5625 C16.1271951 1.2236306 16.1271951 1.2236306 19 0 C19 18.15 19 36.3 19 55 C18.67 55 18.34 55 18 55 C17.67 39.16 17.34 23.32 17 7 C15.35 7.33 13.7 7.66 12 8 C10.66666667 7.66666667 9.33333333 7.33333333 8 7 C7.175 7.165 6.35 7.33 5.5 7.5 C2.90177093 8.01964581 1.4799699 7.82665663 -1 7 C-0.67 4.69 -0.34 2.38 0 0 Z " fill="#F69555" transform="translate(131,273)"/>
<path d="M0 0 C2.44140625 0.87109375 2.44140625 0.87109375 5 2 C6.79339373 5.9454662 5.54696831 9.49392448 4.546875 13.5078125 C3.64282377 17.62770313 3.33310362 21.80114122 3 26 C-0.93673644 24.68775452 -3.22719294 23.08089673 -6 20 C-5.566875 19.113125 -5.13375 18.22625 -4.6875 17.3125 C-2.29228777 11.79210609 -1.24308259 5.86276541 0 0 Z " fill="#EE6954" transform="translate(126,228)"/>
<path d="M0 0 C1.0625 2.375 1.0625 2.375 2 5 C1.67 5.66 1.34 6.32 1 7 C1.66 7.33 2.32 7.66 3 8 C3 9.65 3 11.3 3 13 C3.66 13.33 4.32 13.66 5 14 C5 14.66 5 15.32 5 16 C4.34 16 3.68 16 3 16 C3 16.66 3 17.32 3 18 C1.02 18.33 -0.96 18.66 -3 19 C-6.18041931 13.66510309 -8 10.29701485 -8 4 C-9.4166747 2.2488427 -9.4166747 2.2488427 -11 1 C-7.32589215 -0.17571451 -3.83070817 -0.07366746 0 0 Z " fill="#7D6FAA" transform="translate(52,173)"/>
<path d="M0 0 C7.59 0 15.18 0 23 0 C23.99 1.98 24.98 3.96 26 6 C24.68 6.99 23.36 7.98 22 9 C22 8.34 22 7.68 22 7 C19.72942623 6.94601013 17.45848712 6.90721258 15.1875 6.875 C13.92292969 6.85179687 12.65835938 6.82859375 11.35546875 6.8046875 C7.8661976 6.72418082 7.8661976 6.72418082 5 9 C0.23634558 6.5571003 0.23634558 6.5571003 -0.875 3.9375 C-1 2 -1 2 0 0 Z " fill="#605596" transform="translate(23,251)"/>
<path d="M0 0 C1.1055189 0.93590504 2.20935453 1.87379858 3.3125 2.8125 C3.92738281 3.33457031 4.54226562 3.85664063 5.17578125 4.39453125 C9.15595798 7.89742769 10.39339929 9.54059365 11 15 C9.56274129 15.16873478 8.12518162 15.33490737 6.6875 15.5 C5.88699219 15.5928125 5.08648437 15.685625 4.26171875 15.78125 C2 16 2 16 -1 16 C-6.05908096 8.12253829 -6.05908096 8.12253829 -5.8125 3.4375 C-5.544375 2.633125 -5.27625 1.82875 -5 1 C-3.515 1.99 -3.515 1.99 -2 3 C-1.34 3 -0.68 3 0 3 C0 2.01 0 1.02 0 0 Z " fill="#F27549" transform="translate(102,184)"/>
<path d="M0 0 C7.59 0 15.18 0 23 0 C23.33 2.31 23.66 4.62 24 7 C19.03417779 8.32421926 14.09250969 8.07768235 9 8 C8.01 8 7.02 8 6 8 C3.99690671 7.68578929 1.99628664 7.3548954 0 7 C0 4.69 0 2.38 0 0 Z " fill="#7A6CA8" transform="translate(210,225)"/>
<path d="M0 0 C-8.96142842 7.39901505 -18.10112985 12.4268653 -30 12 C-29 10 -29 10 -28 9 C-27.731875 8.360625 -27.46375 7.72125 -27.1875 7.0625 C-25.72433083 4.52120619 -24.69050721 4.08946595 -22 3 C-19.73828125 2.69140625 -19.73828125 2.69140625 -17.3125 2.5625 C-12.83007248 2.21106707 -9.07979813 1.17313247 -4.91015625 -0.4765625 C-3 -1 -3 -1 0 0 Z " fill="#F48B4D" transform="translate(225,268)"/>
<path d="M0 0 C2.23167185 -0.36856864 2.23167185 -0.36856864 4 -1 C4 -0.34 4 0.32 4 1 C5.65 1 7.3 1 9 1 C9.33 0.34 9.66 -0.32 10 -1 C10.99 -0.67 11.98 -0.34 13 0 C15.14255793 -0.38932856 15.14255793 -0.38932856 17 -1 C16.34 1.31 15.68 3.62 15 6 C6.9874678 7.03387512 -0.92905177 7.10466648 -9 7 C-9 4.69 -9 2.38 -9 0 C-5.6233144 -1.12556187 -3.43807549 -0.6876151 0 0 Z " fill="#796BA7" transform="translate(29,230)"/>
<path d="M0 0 C1.50422971 0.09252207 3.00456535 0.25057067 4.5 0.4375 C11.05621236 1.15971509 17.54862488 1.664871 24 0 C24.33 1.98 24.66 3.96 25 6 C21.54320988 8.09876543 21.54320988 8.09876543 18.9375 7.625 C18.298125 7.41875 17.65875 7.2125 17 7 C14.06537205 6.90194193 14.06537205 6.90194193 11.5 7.5 C8.18956672 8.16208666 6.22326138 8.07442046 3 7 C2.01 7.33 1.02 7.66 0 8 C-0.38063221 5.6739143 -0.71269945 3.33944736 -1 1 C-0.67 0.67 -0.34 0.34 0 0 Z " fill="#7A6DA8" transform="translate(21,245)"/>
<path d="M0 0 C2.56545961 -0.2229542 4.88244396 -0.28124147 7.4375 -0.1875 C8.11876953 -0.17396484 8.80003906 -0.16042969 9.50195312 -0.14648438 C11.3348981 -0.10878423 13.16749732 -0.05515894 15 0 C15.99 0 16.98 0 18 0 C21.77777778 0.77777778 21.77777778 0.77777778 23 2 C23.04092937 4.33297433 23.04241723 6.66705225 23 9 C22.113125 8.649375 21.22625 8.29875 20.3125 7.9375 C16.82867684 6.95151231 15.42461856 7.20970341 12 8 C10.33034549 7.68197057 8.66321482 7.35015049 7 7 C6.01 7.33 5.02 7.66 4 8 C1.3125 7.5625 1.3125 7.5625 -1 7 C-1.625 5.1875 -1.625 5.1875 -2 3 C-1.34 2.01 -0.68 1.02 0 0 Z " fill="#7C6EA9" transform="translate(212,242)"/>
<path d="M0 0 C0.70189453 0.00451172 1.40378906 0.00902344 2.12695312 0.01367188 C3.85550538 0.02543073 5.58401365 0.04336546 7.3125 0.0625 C7.9725 1.7125 8.6325 3.3625 9.3125 5.0625 C8.3225 5.3925 7.3325 5.7225 6.3125 6.0625 C5.3225 5.4025 4.3325 4.7425 3.3125 4.0625 C2.9825 4.7225 2.6525 5.3825 2.3125 6.0625 C2.3125 5.4025 2.3125 4.7425 2.3125 4.0625 C1.405 4.43375 0.4975 4.805 -0.4375 5.1875 C-3.6875 6.0625 -3.6875 6.0625 -6.0625 5.1875 C-6.59875 4.81625 -7.135 4.445 -7.6875 4.0625 C-8.0175 5.0525 -8.3475 6.0425 -8.6875 7.0625 C-8.6875 6.0725 -8.6875 5.0825 -8.6875 4.0625 C-9.3475 3.7325 -10.0075 3.4025 -10.6875 3.0625 C-10.6875 2.4025 -10.6875 1.7425 -10.6875 1.0625 C-7.06882441 -0.1437252 -3.76243749 -0.04566918 0 0 Z " fill="#EE5645" transform="translate(184.6875,195.9375)"/>
<path d="M0 0 C2.97 0.495 2.97 0.495 6 1 C6.05441656 2.89551022 6.09298035 4.7914792 6.125 6.6875 C6.14820312 7.74324219 6.17140625 8.79898438 6.1953125 9.88671875 C5.99858729 13.02251859 5.33057654 15.17645373 4 18 C2.5 17 2.5 17 1 15 C0.72654521 12.28153765 0.86508715 9.74322801 1 7 C0.01 7 -0.98 7 -2 7 C-1.34 4.69 -0.68 2.38 0 0 Z " fill="#F37B49" transform="translate(98,213)"/>
<path d="M0 0 C2.4375 0.6875 2.4375 0.6875 5 2 C6.65516445 6.55170223 5.52490715 10.7298038 4.5625 15.3125 C4.41490234 16.05306641 4.26730469 16.79363281 4.11523438 17.55664062 C3.75199921 19.37281643 3.37715682 21.18666411 3 23 C2.01 22.34 1.02 21.68 0 21 C-0.328125 18.6875 -0.328125 18.6875 -0.25 16 C-0.23453125 15.113125 -0.2190625 14.22625 -0.203125 13.3125 C0 11 0 11 1 9 C0.6127985 6.41865665 0.1694002 4.33880039 -1 2 C-0.67 1.34 -0.34 0.68 0 0 Z " fill="#E16154" transform="translate(126,228)"/>
<path d="M0 0 C5.28 0.99 10.56 1.98 16 3 C16.33 3.99 16.66 4.98 17 6 C16.34 6.66 15.68 7.32 15 8 C11.28754986 7.64495024 8.47043156 6.38344872 5.25 4.5625 C4.47140625 4.13066406 3.6928125 3.69882812 2.890625 3.25390625 C1 2 1 2 0 0 Z " fill="#EA6750" transform="translate(36,268)"/>
<path d="M0 0 C6.29174812 -0.25166992 11.25956408 0.12978204 17 3 C16.67 3.99 16.34 4.98 16 6 C15.43152344 5.80664062 14.86304687 5.61328125 14.27734375 5.4140625 C9.54635062 3.81863577 4.81205575 2.33099414 0 1 C0 0.67 0 0.34 0 0 Z " fill="#E65D4E" transform="translate(67,172)"/>
<path d="M0 0 C3.125 0.75 3.125 0.75 6 2 C6.33 2.66 6.66 3.32 7 4 C4.24921116 4.91692961 2.64051087 5.10886083 -0.1875 5.0625 C-2.0746875 5.0315625 -2.0746875 5.0315625 -4 5 C-3 2 -3 2 0 0 Z " fill="#EE5343" transform="translate(71,275)"/>
<path d="M0 0 C0.66 0 1.32 0 2 0 C1.875 1.75 1.875 1.75 1 4 C-2.0625 6.25 -2.0625 6.25 -5 8 C-3.63055898 5.05043472 -2.12169591 2.47531189 0 0 Z M-8 9 C-7.34 9 -6.68 9 -6 9 C-6.8125 11.4375 -6.8125 11.4375 -8 14 C-8.99 14.33 -9.98 14.66 -11 15 C-10.42655063 12.13275314 -10.1385485 11.1385485 -8 9 Z " fill="#F59157" transform="translate(95,246)"/>
<path d="M0 0 C0.66 0 1.32 0 2 0 C2 2.97 2 5.94 2 9 C1.01 9.33 0.02 9.66 -1 10 C-1.125 2.25 -1.125 2.25 0 0 Z " fill="#E06051" transform="translate(151,258)"/>
<path d="M0 0 C1.32 0.33 2.64 0.66 4 1 C4.33 2.32 4.66 3.64 5 5 C4.01 5.33 3.02 5.66 2 6 C1.34 5.34 0.68 4.68 0 4 C0 2.68 0 1.36 0 0 Z " fill="#F6954A" transform="translate(111,243)"/>
<path d="M0 0 C1.32 0.66 2.64 1.32 4 2 C3.67 2.99 3.34 3.98 3 5 C2.01 5 1.02 5 0 5 C-0.5625 3.0625 -0.5625 3.0625 -1 1 C-0.67 0.67 -0.34 0.34 0 0 Z " fill="#F6964A" transform="translate(106,243)"/>
<path d="M0 0 C-1.66666667 1.66666667 -3.33333333 3.33333333 -5 5 C-5.33 3.35 -5.66 1.7 -6 0 C-3.50907189 -1.24546405 -2.58919267 -0.7767578 0 0 Z " fill="#F06555" transform="translate(177,197)"/>
</svg>
