<?xml version="1.0" encoding="UTF-8"?>
<svg version="1.1" xmlns="http://www.w3.org/2000/svg" width="3274" height="1510">
<path d="M0 0 C0.79636871 0.04256927 1.59273743 0.08513855 2.41323853 0.1289978 C43.10071488 2.37119283 82.6955449 10.52687958 121.3125 23.375 C122.45897003 23.75557053 122.45897003 23.75557053 123.62860107 24.14382935 C154.81170539 34.54310244 154.81170539 34.54310244 160.78125 44.625 C163.2918427 50.07657272 164.49851262 54.90038251 164.50922108 60.91204929 C164.51367892 62.07320053 164.51813676 63.23435176 164.52272969 64.43068939 C164.52245315 66.34548604 164.52245315 66.34548604 164.52217102 68.29896545 C164.52547089 69.66813764 164.52919672 71.03730885 164.5333125 72.40647882 C164.54332675 76.17293023 164.54704837 79.93936571 164.54970181 83.70582855 C164.5536066 87.76668148 164.56318486 91.82752181 164.57191467 95.8883667 C164.59167479 105.69773616 164.60174501 115.50710665 164.61064246 125.31649104 C164.61502636 129.93692588 164.62039293 134.55735957 164.62563133 139.1777935 C164.64264364 154.539199 164.65713733 169.90060378 164.66438007 185.26201725 C164.66628994 189.2481645 164.66821028 193.23431175 164.67016602 197.22045898 C164.67064976 198.21118628 164.6711335 199.20191358 164.6716319 200.22266292 C164.6799304 216.26816505 164.70526427 232.31359258 164.73774669 248.35906214 C164.77083027 264.83595421 164.78883003 281.31280838 164.79202431 297.78973383 C164.79418827 307.03953231 164.80292019 316.28922203 164.82848549 325.53898811 C164.85021027 333.41738765 164.85823419 341.29565202 164.84851871 349.17407811 C164.84397906 353.191678 164.84584045 357.20899908 164.86528015 361.22656059 C164.88294913 364.91009369 164.88188433 368.59314538 164.86638286 372.27668386 C164.86289598 374.22884666 164.87900525 376.18101472 164.89598733 378.13310677 C164.81971116 388.6169272 162.83316536 397.74385119 155.39770508 405.49291992 C148.42439152 411.55048633 139.86467851 414.93337431 131.3125 418.125 C130.18054199 418.55208252 129.04858398 418.97916504 127.88232422 419.41918945 C89.58982723 433.68788665 49.25615381 443.56808706 8.375 446.25 C7.14515381 446.33467529 5.91530762 446.41935059 4.64819336 446.5065918 C-5.46828659 447.17376727 -15.55001505 447.45398601 -25.6875 447.4375 C-26.82277634 447.43609512 -26.82277634 447.43609512 -27.98098755 447.43466187 C-83.960912 447.28580834 -142.97458766 434.0642405 -184.14941406 393.69482422 C-185.71878837 392.15816685 -187.30825912 390.64400583 -188.8984375 389.12890625 C-229.45621374 350.04875229 -246.12634659 291.5139377 -247.73486328 236.49194336 C-247.79416001 232.57761177 -247.81886733 228.66466977 -247.8125 224.75 C-247.81189575 224.05512482 -247.8112915 223.36024963 -247.81066895 222.64431763 C-247.69853893 174.78326217 -236.70497535 124.28277761 -207.625 85.25 C-207.22490723 84.71149414 -206.82481445 84.17298828 -206.41259766 83.61816406 C-171.10933816 36.46754992 -120.91868479 10.4471218 -63.140625 1.54296875 C-56.32221299 0.60644773 -49.49189682 0.04095208 -42.625 -0.375 C-41.96185791 -0.4152832 -41.29871582 -0.45556641 -40.61547852 -0.49707031 C-27.07619586 -1.18619066 -13.52570717 -0.72764374 0 0 Z M-95.625 126.25 C-96.88376953 127.24580078 -96.88376953 127.24580078 -98.16796875 128.26171875 C-121.15646173 147.54353999 -130.33190145 178.43700093 -132.875 207.25 C-135.53216424 241.50936023 -131.30886592 279.86548506 -108.625 307.25 C-107.92632813 308.09949219 -107.22765625 308.94898438 -106.5078125 309.82421875 C-88.53006581 330.71295289 -63.69256048 340.94336431 -36.625 343.25 C-11.98656338 344.59981426 25.44493309 344.2782114 46 328.8125 C51.63860962 322.72873699 52.5252139 316.73051692 52.51544189 308.76153564 C52.51841302 308.00422173 52.52138414 307.24690782 52.5244453 306.466645 C52.5331215 303.92729642 52.53463963 301.38799504 52.53613281 298.84863281 C52.54076176 297.02853291 52.54578653 295.20843398 52.55117798 293.38833618 C52.56429689 288.44191302 52.57074599 283.49550343 52.57518864 278.54906559 C52.57812029 275.45809052 52.58222529 272.36711914 52.58669281 269.27614594 C52.60036664 259.60335916 52.61003376 249.93058085 52.6138947 240.25778508 C52.61837477 229.09547178 52.63592081 217.93328097 52.6648953 206.77100492 C52.68651899 198.14071949 52.69659936 189.51046851 52.69793582 180.88015628 C52.69898339 175.72672997 52.70488096 170.57341882 52.72275543 165.42002106 C52.73924786 160.57073834 52.74138589 155.72165721 52.73261642 150.87235641 C52.73184667 149.09544459 52.73618064 147.31852187 52.74607468 145.54163742 C52.75881907 143.10965273 52.75290419 140.67837938 52.74249268 138.24639893 C52.75054908 137.54871375 52.75860548 136.85102858 52.76690602 136.13220143 C52.70821858 130.24218358 51.3403163 124.89785225 47.7890625 120.11328125 C13.03880631 89.99133429 -61.91429044 98.83055816 -95.625 126.25 Z " fill="#000000" transform="translate(1150.625,612.75)"/>
<path d="M0 0 C40.85857213 39.12860949 61.84703597 96.50535236 63.43017578 152.45703125 C63.50191841 156.66279211 63.51414401 160.86792712 63.5078125 165.07421875 C63.50720825 165.82055573 63.506604 166.5668927 63.50598145 167.33584595 C63.47933114 179.51097254 63.04809563 191.50555968 61.3203125 203.57421875 C61.19140625 204.4863916 61.0625 205.39856445 60.9296875 206.33837891 C54.28887077 251.67886259 35.99075292 294.16139164 4.3203125 327.57421875 C3.86495117 328.06212891 3.40958984 328.55003906 2.94042969 329.05273438 C-33.4776295 367.86322081 -86.36660033 387.7445291 -138.94335938 389.6953125 C-193.82943894 391.23965914 -252.57264781 379.0103307 -294.6796875 341.57421875 C-295.48019531 340.88199219 -296.28070312 340.18976563 -297.10546875 339.4765625 C-299.67415241 337.21923443 -302.18392161 334.91193171 -304.6796875 332.57421875 C-305.41807861 331.88682617 -305.41807861 331.88682617 -306.17138672 331.18554688 C-348.14674766 291.78704667 -367.74830544 233.64230943 -369.80566406 177.11279297 C-370.99123255 124.11488014 -360.60796222 69.15786365 -328.6796875 25.57421875 C-327.92300781 24.53394531 -327.16632813 23.49367188 -326.38671875 22.421875 C-293.75814 -21.59778493 -245.36138906 -47.96706666 -191.484375 -56.0703125 C-122.48373174 -65.79624478 -51.26979705 -48.08044736 0 0 Z M-226.2734375 74.828125 C-250.99181839 103.03757592 -257.47787215 141.71177083 -255.23217773 178.12866211 C-253.15764203 205.75185427 -246.16178101 232.27350531 -227.6796875 253.57421875 C-226.8959375 254.60546875 -226.1121875 255.63671875 -225.3046875 256.69921875 C-208.27210868 275.35394794 -182.27515545 284.24337843 -157.57397461 285.69824219 C-132.00637919 286.67155918 -107.28755744 280.69752983 -87.6796875 263.57421875 C-86.70644531 262.79820312 -85.73320312 262.0221875 -84.73046875 261.22265625 C-62.70510392 242.85075491 -54.22892218 211.39899445 -51.4921875 184.13671875 C-48.38156548 149.58350966 -52.59686917 110.63558323 -74.4921875 82.32421875 C-75.86299812 80.71917253 -77.26021926 79.13639834 -78.6796875 77.57421875 C-79.89591797 76.21876953 -79.89591797 76.21876953 -81.13671875 74.8359375 C-100.74767541 54.07646215 -127.81369593 46.33542257 -155.7421875 45.48046875 C-182.87178113 46.34630684 -207.18802296 54.98774944 -226.2734375 74.828125 Z " fill="#000000" transform="translate(2261.6796875,670.42578125)"/>
<path d="M0 0 C0.72862244 0.04290161 1.45724487 0.08580322 2.20794678 0.13000488 C47.50408853 2.88163392 96.92479926 13.80994812 130.16650391 46.87744141 C131.40850446 48.0985899 132.6919446 49.27726545 133.98046875 50.44921875 C145.44548374 61.10255126 153.22202546 75.10152269 159.5625 89.25 C160.26826172 90.81234375 160.26826172 90.81234375 160.98828125 92.40625 C170.06475995 114.21227931 172.7227772 138.74797748 172.70294189 162.16157532 C172.70739858 163.84810983 172.70739858 163.84810983 172.7119453 165.56871575 C172.72054346 169.29622519 172.72213288 173.02370218 172.72363281 176.7512207 C172.72826693 179.43963263 172.73327256 182.12804176 172.73867798 184.81645203 C172.7521753 192.08871306 172.75827072 199.36096852 172.76268864 206.63323998 C172.7654622 211.17874978 172.76970117 215.72425748 172.77419281 220.26976585 C172.78636758 232.87274319 172.79667471 245.47571888 172.8000679 258.07870197 C172.80028747 258.88285839 172.80050703 259.68701481 172.80073325 260.5155396 C172.80095153 261.32150637 172.80116981 262.12747314 172.8013947 262.95786315 C172.80183815 264.59080525 172.80228472 266.22374735 172.80273438 267.85668945 C172.8029558 268.6666679 172.80317723 269.47664634 172.80340537 270.31116959 C172.80735995 283.45787892 172.82484203 296.60453306 172.8480939 309.75122104 C172.87181203 323.27114179 172.88426973 336.7910348 172.88543582 350.31097668 C172.88635161 357.89329021 172.89208088 365.4755315 172.91025543 373.05782509 C172.92566171 379.50730441 172.93077327 385.95668911 172.92251733 392.40618334 C172.91861448 395.69435432 172.92115987 398.98229514 172.93357468 402.27045059 C172.9462561 405.83824561 172.94043777 409.40555141 172.92999268 412.9733429 C172.94207728 414.52426721 172.94207728 414.52426721 172.95440602 416.10652333 C172.91117119 422.42041234 172.63051717 428.87716859 168.14596677 433.80726892 C163.01862588 438.27652297 158.64605167 438.40218608 152.1472168 438.41113281 C150.85891464 438.41858017 150.85891464 438.41858017 149.54458618 438.42617798 C146.70028891 438.44079526 143.85604743 438.44760105 141.01171875 438.453125 C139.03497821 438.45887702 137.0582377 438.46463474 135.08149719 438.47039795 C130.93461853 438.48090684 126.78775925 438.48675017 122.64086914 438.49023438 C117.33124336 438.49571743 112.02187423 438.51974196 106.71232891 438.54820633 C102.6279272 438.56684503 98.54358714 438.57203898 94.4591465 438.57357025 C92.5019573 438.57659475 90.54476913 438.58461645 88.58762169 438.59775543 C85.84687241 438.61484083 83.10674796 438.61292953 80.3659668 438.60644531 C79.56003586 438.6156601 78.75410492 438.62487488 77.92375183 438.6343689 C72.01036518 438.59062053 68.00247672 437.2155368 63.3125 433.4375 C58.87025757 427.88469696 59.2768947 421.50890993 59.30421448 414.7520752 C59.30053877 413.69510295 59.29686307 412.63813071 59.29307598 411.54912901 C59.28309598 408.00731295 59.28724692 404.4656539 59.29125977 400.92382812 C59.28687258 398.38411289 59.28157045 395.84439908 59.27542114 393.3046875 C59.2639171 387.83397891 59.25826869 382.36331302 59.25753975 376.89259338 C59.25621191 368.96765266 59.24107986 361.0427823 59.22204458 353.11786646 C59.19120888 340.23939365 59.16704336 327.36091905 59.14916992 314.48242188 C59.14809724 313.71192739 59.14702456 312.9414329 59.14591938 312.1475901 C59.13411173 303.56096007 59.12390517 294.97432932 59.11547852 286.38769531 C59.11240482 283.27864581 59.10931597 280.16959633 59.10620117 277.06054688 C59.10505316 275.90985658 59.10505316 275.90985658 59.10388196 274.73592001 C59.09077025 261.9145123 59.06608685 249.09315535 59.03245777 236.27178526 C59.01223701 228.37446091 59.00186879 220.47724538 59.00444698 212.57989496 C59.00561075 206.51591668 58.99137684 200.4520729 58.97163773 194.38812256 C58.96606006 191.91066604 58.96553273 189.43319191 58.97057533 186.95573425 C59.01340861 163.43577888 56.59682962 143.15214826 39.9375 125.125 C21.072963 107.2684917 -6.00559001 103.73851249 -30.89135742 104.36425781 C-32.24011833 104.40809054 -33.588833 104.45336718 -34.9375 104.5 C-35.6358194 104.52300171 -36.33413879 104.54600342 -37.05361938 104.56970215 C-48.99375951 104.98120244 -60.70165703 105.93943442 -72.4375 108.25 C-73.35692383 108.43079102 -74.27634766 108.61158203 -75.22363281 108.79785156 C-78.07316874 109.37704125 -80.91211429 109.9913191 -83.75 110.625 C-85.03136841 110.9019873 -85.03136841 110.9019873 -86.33862305 111.18457031 C-93.60324656 112.9220291 -99.46479471 115.07712794 -103.51882839 121.59757996 C-106.18622317 127.10383604 -105.98847685 132.45470194 -105.93629456 138.47143555 C-105.94167911 139.68952502 -105.94706366 140.9076145 -105.95261139 142.16261578 C-105.96355713 145.52708755 -105.95672962 148.8906623 -105.94232833 152.25506353 C-105.93118151 155.88976269 -105.94321808 159.52439411 -105.95251465 163.15908813 C-105.9655881 169.4526699 -105.96445307 175.74611875 -105.95392036 182.03970337 C-105.93896121 191.14779127 -105.94890999 200.25572371 -105.96543955 209.36380279 C-105.99188453 224.1536722 -106.00276006 238.94350667 -106.00170898 253.73339844 C-106.00165066 254.61797914 -106.00159234 255.50255985 -106.00153225 256.41394603 C-106.0012664 259.99811787 -106.00094912 263.5822897 -106.00056899 267.16646153 C-105.99960264 277.03317535 -106.00093082 286.8998881 -106.00366211 296.76660156 C-106.00402195 298.09185107 -106.00402195 298.09185107 -106.00438906 299.44387329 C-106.00879687 314.17954406 -106.02503434 328.91518242 -106.0488829 343.65083408 C-106.0629463 352.7352416 -106.06584005 361.81952583 -106.05426001 370.90393758 C-106.04693266 377.12821185 -106.05000335 383.35242403 -106.06121845 389.57669234 C-106.06728613 393.16657307 -106.06839474 396.75628003 -106.05634117 400.34614944 C-106.04334436 404.24036941 -106.05346197 408.13433773 -106.06568909 412.02856445 C-106.05811303 413.15930736 -106.05053698 414.29005026 -106.04273134 415.4550581 C-106.08625812 421.98771584 -106.19278754 428.69132942 -110.85401636 433.80357838 C-115.97616324 438.28019541 -120.35500035 438.40218753 -126.8527832 438.41113281 C-128.14108536 438.41858017 -128.14108536 438.41858017 -129.45541382 438.42617798 C-132.29971109 438.44079526 -135.14395257 438.44760105 -137.98828125 438.453125 C-139.96502179 438.45887702 -141.9417623 438.46463474 -143.91850281 438.47039795 C-148.06538147 438.48090684 -152.21224075 438.48675017 -156.35913086 438.49023438 C-161.66875664 438.49571743 -166.97812577 438.51974196 -172.28767109 438.54820633 C-176.3720728 438.56684503 -180.45641286 438.57203898 -184.5408535 438.57357025 C-186.4980427 438.57659475 -188.45523087 438.58461645 -190.41237831 438.59775543 C-193.15312759 438.61484083 -195.89325204 438.61292953 -198.6340332 438.60644531 C-199.43996414 438.6156601 -200.24589508 438.62487488 -201.07624817 438.6343689 C-206.60660082 438.59345429 -210.80948353 437.59086977 -215.08203125 433.78515625 C-219.10777362 428.70922021 -219.56175705 425.42735799 -219.56892776 419.05696011 C-219.57276891 417.77737342 -219.57661005 416.49778674 -219.5805676 415.1794247 C-219.57978735 413.75637077 -219.57890856 412.33331688 -219.57794189 410.91026306 C-219.58052549 409.40084795 -219.58353864 407.89143353 -219.5869453 406.38202006 C-219.59501944 402.22791319 -219.5968051 398.07382359 -219.59754276 393.9197098 C-219.59939264 389.44167722 -219.60693973 384.96365362 -219.61367798 380.48562622 C-219.62726561 370.68998359 -219.63328692 360.89434505 -219.63768864 351.09869456 C-219.6404508 344.98180158 -219.64468815 338.86491018 -219.64919281 332.74801826 C-219.66138692 315.81162458 -219.67168538 298.87523217 -219.6750679 281.93883419 C-219.67528747 280.85462853 -219.67550703 279.77042287 -219.67573325 278.65336249 C-219.67606067 277.0231573 -219.67606067 277.0231573 -219.6763947 275.36001867 C-219.67683817 273.15773706 -219.67728473 270.95545544 -219.67773438 268.75317383 C-219.6779558 267.66076563 -219.67817723 266.56835743 -219.67840537 265.44284595 C-219.68235199 247.74839625 -219.69980122 230.05398777 -219.7230939 212.35955399 C-219.74681602 194.19216323 -219.75927018 176.02479314 -219.76043582 157.85738665 C-219.76135219 147.65745936 -219.76709478 137.45758575 -219.78525543 127.25767326 C-219.80066815 118.57047878 -219.80577002 109.88335455 -219.79751733 101.19614898 C-219.79361475 96.76544749 -219.79452122 92.33488744 -219.80857468 87.90420341 C-219.82133727 83.84326019 -219.82009547 79.78256434 -219.80798396 75.72162134 C-219.80603102 74.25721873 -219.80908671 72.79279845 -219.81782833 71.32842063 C-219.88858177 58.66823559 -218.61520477 47.37062042 -209.98046875 37.6015625 C-176.35144067 5.36351612 -87.50723361 1.60599215 -44.625 -0.375 C-43.75504395 -0.41520264 -42.88508789 -0.45540527 -41.98876953 -0.49682617 C-27.97528058 -1.05419561 -13.99509646 -0.82940498 0 0 Z " fill="#000000" transform="translate(1638.4375,612.75)"/>
<path d="M0 0 C1.25879974 0.00140488 1.25879974 0.00140488 2.54302979 0.00283813 C35.78193453 0.08293854 68.59711392 4.43313526 100.6875 13.1875 C101.64382324 13.44756836 102.60014648 13.70763672 103.58544922 13.97558594 C125.00676673 19.91121979 145.88034512 28.08773644 165.6875 38.1875 C166.33315918 38.51459961 166.97881836 38.84169922 167.64404297 39.17871094 C176.46899472 43.71852301 183.97034165 48.18710865 188.1875 57.5 C190.33885678 73.36625624 181.19105497 87.56234017 174.57714844 101.41357422 C173.31898858 104.04890906 172.06538986 106.68637502 170.8125 109.32421875 C168.81818872 113.51787823 166.81125392 117.70527543 164.79449463 121.88818359 C164.07766628 123.37709342 163.36342515 124.86725278 162.65228271 126.35888672 C161.7242837 128.30323261 160.78576916 130.24210434 159.84375 132.1796875 C159.32876953 133.24815918 158.81378906 134.31663086 158.28320312 135.41748047 C155.32968309 140.54456712 151.28950418 143.61260273 146.3125 146.625 C135.46173555 148.95016381 127.58497654 145.32201829 118.19873047 140.24609375 C90.21806975 125.11927552 60.09292509 113.63269441 28.6875 108.1875 C27.98044922 108.05907715 27.27339844 107.9306543 26.54492188 107.79833984 C-2.49292461 102.72452258 -36.49797944 103.80648007 -61.56640625 120.70703125 C-68.20309431 125.88289233 -72.7605471 133.88792578 -74.3125 142.1875 C-75.26012698 150.9025612 -73.49817736 158.52450852 -68.53515625 165.7890625 C-47.7203942 190.82879487 -7.53089257 197.15949096 22.11752319 205.63949585 C108.22968132 230.27359181 108.22968132 230.27359181 140.6875 254.1875 C141.21827148 254.57309082 141.74904297 254.95868164 142.29589844 255.35595703 C172.80609149 277.68969938 192.33255366 307.55073547 199.1796875 344.86328125 C200.21629741 351.64908922 200.85296991 358.19242325 200.890625 365.05078125 C200.89632507 365.88224167 200.90202515 366.71370209 200.90789795 367.57035828 C200.91729484 369.32594556 200.92386064 371.08155005 200.92773438 372.8371582 C200.9373347 375.45492647 200.96836461 378.07187198 201 380.68945312 C201.0953154 395.68535961 199.86217197 410.76538415 194.8125 425 C194.58175781 425.72251953 194.35101562 426.44503906 194.11328125 427.18945312 C192.03360979 433.28945203 189.47852053 437.71182882 183.58192444 440.82948303 C179.27754066 442.56794888 175.2281779 442.61688462 170.63452148 442.59155273 C169.75556213 442.59841599 168.87660278 442.60527924 167.9710083 442.61235046 C165.08336965 442.63056076 162.19627715 442.6267901 159.30859375 442.62109375 C157.29272791 442.62565746 155.27686362 442.6309636 153.26100159 442.63697815 C149.04380964 442.64589726 144.82680721 442.64349874 140.60961914 442.63354492 C135.21029433 442.6220414 129.81162218 442.6422942 124.41238308 442.67146206 C120.25246542 442.68981969 116.09270442 442.68953272 111.93275642 442.68382454 C109.94207911 442.68367135 107.95139117 442.68971335 105.96075249 442.70211601 C103.17711402 442.71702039 100.39468501 442.70635403 97.61108398 442.68920898 C96.79273575 442.69887695 95.97438751 442.70854492 95.13124084 442.71850586 C89.85915953 442.65062812 86.893324 441.64439901 82.6875 438.1875 C79.93119266 434.67947247 80.35654739 430.45270846 80.6875 426.1875 C81.36396889 422.93484127 82.29199646 419.76064022 83.1875 416.5625 C87.89498634 398.19202102 87.69687528 378.57494833 79 361.375 C70.2933955 346.84217143 58.34092909 337.31968845 43.6875 329.1875 C43.08550781 328.85169922 42.48351562 328.51589844 41.86328125 328.16992188 C16.19081166 314.22209561 -13.56544068 306.9879469 -41.4465332 298.85693359 C-82.13469068 286.98052333 -124.02112526 274.14845915 -155.3125 244.1875 C-156.07046875 243.49269531 -156.8284375 242.79789063 -157.609375 242.08203125 C-172.24069671 228.23272846 -181.46934879 209.56010482 -186.3125 190.1875 C-186.79203125 188.3003125 -186.79203125 188.3003125 -187.28125 186.375 C-191.83309883 165.78679311 -191.3976121 140.60802889 -186.3125 120.1875 C-186.14621094 119.46820312 -185.97992188 118.74890625 -185.80859375 118.0078125 C-180.0872964 93.51218385 -168.32437994 72.58406784 -151.3125 54.1875 C-150.55195313 53.35605469 -149.79140625 52.52460937 -149.0078125 51.66796875 C-111.23094138 12.16138742 -52.52444304 -0.07605455 0 0 Z " fill="#000000" transform="translate(646.3125,608.8125)"/>
<path d="M0 0 C18.91743996 -0.42681526 37.41351546 0.84286905 56.00537109 4.43701172 C57.04153564 4.63383545 58.0777002 4.83065918 59.14526367 5.03344727 C66.30909527 6.51009653 72.99137889 8.15520001 78.00537109 13.81201172 C81.63146373 21.35428441 80.34232947 28.19129836 78.80224609 36.10498047 C78.60818176 37.15043533 78.41411743 38.1958902 78.21417236 39.27302551 C77.59325135 42.60073241 76.95550695 45.92497201 76.31787109 49.24951172 C75.90407282 51.4635107 75.49130278 53.67770212 75.07958984 55.89208984 C68.81452088 89.37558222 68.81452088 89.37558222 62.72460938 94.66210938 C56.1817856 98.90894564 46.94480688 96.85070627 39.69287109 95.68701172 C37.75046819 95.39978233 35.80776049 95.11460625 33.86474609 94.83154297 C32.48706055 94.62779053 32.48706055 94.62779053 31.08154297 94.41992188 C10.22417753 91.45013771 -14.49602223 91.54844892 -32.43212891 104.06201172 C-45.94167549 114.20983187 -51.71562856 127.7533141 -54.61962891 144.06201172 C-55.42485179 150.03016279 -55.72213352 155.98546294 -55.98291016 161.99951172 C-56.0269397 162.96953125 -56.07096924 163.93955078 -56.11633301 164.93896484 C-56.22378873 167.31322451 -56.32899857 169.6875609 -56.43212891 172.06201172 C-55.85013418 172.05924634 -55.26813946 172.05648096 -54.66850853 172.05363178 C-40.49628504 171.98733017 -26.32408485 171.93771085 -12.15173912 171.9065752 C-5.2980428 171.89111736 1.55554989 171.87004871 8.40917969 171.83569336 C15.02273704 171.80255728 21.63621499 171.78516033 28.24985886 171.77737999 C30.77364166 171.77183501 33.29741855 171.76100714 35.82115555 171.74482155 C39.35485847 171.72305909 42.88811589 171.72004438 46.421875 171.72143555 C47.46628754 171.71064972 48.51070007 171.69986389 49.58676147 171.68875122 C55.7698014 171.71510763 60.43920871 172.20831491 65.21240234 176.56201172 C69.09777892 181.55192679 69.69504458 184.67837496 69.72900391 190.91674805 C69.73396881 191.60980545 69.73893372 192.30286285 69.74404907 193.016922 C69.75865125 195.30930577 69.76546979 197.60162033 69.77099609 199.89404297 C69.7767496 201.4896393 69.78250731 203.08523561 69.78826904 204.68083191 C69.79877381 208.02737754 69.80461975 211.37389919 69.80810547 214.72045898 C69.81358597 219.00103123 69.8376065 223.28128471 69.86607742 227.56175709 C69.884736 230.85866714 69.88991113 234.15550095 69.89144135 237.45245934 C69.89446166 239.03006417 69.90246923 240.60766786 69.91562653 242.18522072 C69.93275324 244.39675496 69.93079097 246.60751746 69.92431641 248.8190918 C69.92978485 250.70414177 69.92978485 250.70414177 69.93536377 252.62727356 C69.39048964 257.71989197 67.79689589 260.95289178 64.00537109 264.37451172 C60.63580485 266.70728835 58.97077569 267.18663689 54.92355347 267.18226624 C53.94476227 267.1836409 52.96597107 267.18501556 51.95751953 267.18643188 C50.88002441 267.18283661 49.8025293 267.17924133 48.69238281 267.17553711 C46.99482346 267.17575615 46.99482346 267.17575615 45.26296997 267.17597961 C41.50781361 267.17528079 37.75270633 267.16748978 33.99755859 267.15966797 C31.39966865 267.15780368 28.80177836 267.15637983 26.20388794 267.15538025 C20.05573327 267.15194718 13.90759897 267.14405902 7.75945199 267.13403076 C0.76075042 267.12286239 -6.23795199 267.11735734 -13.23666024 267.11233532 C-27.63515933 267.10187622 -42.03364349 267.08428128 -56.43212891 267.06201172 C-56.43098975 267.7431916 -56.42985058 268.42437147 -56.4286769 269.12619317 C-56.36156571 309.48428069 -56.31008088 349.84236103 -56.27893292 390.20049305 C-56.27518073 395.04463218 -56.27129777 399.88877119 -56.26733398 404.73291016 C-56.26654705 405.69730486 -56.26576012 406.66169957 -56.26494934 407.65531836 C-56.2518898 423.27764372 -56.22823293 438.899936 -56.20067052 454.52224173 C-56.17263159 470.5481045 -56.15595585 486.57394993 -56.14986342 502.59983623 C-56.14574384 512.49137833 -56.13272506 522.38282698 -56.10837951 532.27434032 C-56.09254099 539.05418597 -56.08772427 545.8339832 -56.09162477 552.61384602 C-56.09354926 556.52746843 -56.09056636 560.44092734 -56.07451248 564.3545208 C-56.05992263 567.93734052 -56.05917045 571.51988667 -56.06943222 575.10271893 C-56.07130163 577.01303183 -56.05835461 578.92334147 -56.04488498 580.83360779 C-56.07978271 587.47694478 -56.24357116 592.56622315 -60.93212891 597.70654297 C-66.28162038 601.87190222 -70.17382855 602.21397804 -76.75561523 602.22314453 C-77.60472977 602.22810944 -78.4538443 602.23307434 -79.32868958 602.2381897 C-82.14052132 602.25280625 -84.95229664 602.25961266 -87.76416016 602.26513672 C-89.71848044 602.27088881 -91.67280072 602.27664653 -93.62712097 602.28240967 C-97.72692121 602.29291836 -101.82670185 602.29876182 -105.92651367 602.30224609 C-111.1756066 602.30772902 -116.42443989 602.33175336 -121.67345142 602.36021805 C-125.71153008 602.3788577 -129.74954637 602.38405075 -133.78766441 602.38558197 C-135.72252509 602.38860627 -137.65738472 602.39662729 -139.59220314 602.40976715 C-142.30182163 602.42685452 -145.01080822 602.42494079 -147.72045898 602.41845703 C-148.91532928 602.43227921 -148.91532928 602.43227921 -150.13433838 602.44638062 C-154.96897911 602.4102087 -158.22420177 601.69141898 -162.43212891 599.06201172 C-167.67219918 593.67638394 -168.68192117 588.16892085 -168.68381119 580.83146858 C-168.68671807 580.12261888 -168.68962495 579.41376919 -168.69261992 578.6834392 C-168.69991924 576.30792586 -168.69297678 573.93267088 -168.68609619 571.55715942 C-168.68840072 569.83666822 -168.69157719 568.116178 -168.69555068 566.39568985 C-168.70390992 561.66689295 -168.6997681 556.93817664 -168.69357824 552.20937943 C-168.68905877 547.10876812 -168.69603543 542.0081708 -168.70153809 536.90756226 C-168.71044255 526.90997157 -168.70850438 516.91241089 -168.7027128 506.91481902 C-168.69819592 498.78015348 -168.69758355 490.64549635 -168.69976044 482.51082993 C-168.7000669 481.35292049 -168.70037337 480.19501106 -168.70068912 479.00201347 C-168.70132859 476.64950022 -168.70197702 474.29698697 -168.7026343 471.94447373 C-168.70834186 449.86547505 -168.70177542 427.78649295 -168.69103357 405.70749699 C-168.68211895 386.80043235 -168.683632 367.89339231 -168.69287109 348.98632812 C-168.703603 327.01419955 -168.70777011 305.04208558 -168.70164657 283.06995475 C-168.70100951 280.7205956 -168.70038077 278.37123645 -168.69976044 276.02187729 C-168.69945189 274.86609799 -168.69914333 273.7103187 -168.69882543 272.51951579 C-168.69710564 264.41248331 -168.69999855 256.30546015 -168.70471954 248.19842911 C-168.71036182 238.29149209 -168.70874312 228.38458672 -168.69815806 218.47765328 C-168.69294271 213.43170672 -168.69077263 208.38581267 -168.69745636 203.33986664 C-168.7666348 146.19205109 -163.79235168 87.70434982 -121.55712891 44.81201172 C-89.41587182 13.21490685 -44.06372501 1.12348787 0 0 Z " fill="#000000" transform="translate(2575.43212890625,448.93798828125)"/>
<path d="M0 0 C0.84911453 -0.0049649 1.69822906 -0.00992981 2.57307434 -0.01504517 C5.38490609 -0.02966172 8.19668141 -0.03646813 11.00854492 -0.04199219 C12.96286521 -0.04774427 14.91718548 -0.053502 16.87150574 -0.05926514 C20.97130598 -0.06977383 25.07108662 -0.07561729 29.17089844 -0.07910156 C34.41999136 -0.08458449 39.66882466 -0.10860883 44.91783619 -0.13707352 C48.95591484 -0.15571317 52.99393114 -0.16090622 57.03204918 -0.16243744 C58.96690985 -0.16546174 60.90176949 -0.17348276 62.83658791 -0.18662262 C65.5462064 -0.20370999 68.25519298 -0.20179626 70.96484375 -0.1953125 C71.76142395 -0.20452728 72.55800415 -0.21374207 73.37872314 -0.22323608 C78.87989249 -0.18207733 83.14831796 0.80108314 87.32104492 4.69628906 C91.03809255 9.55704365 91.80188381 11.64875073 91.81073475 17.75956249 C91.81308698 18.44862947 91.81543921 19.13769645 91.81786272 19.84764424 C91.82457257 22.17971028 91.8240939 24.51172087 91.82368469 26.84379578 C91.82698209 28.52345246 91.83070739 30.20310834 91.83482617 31.88276321 C91.84486852 36.51657352 91.84856655 41.15037088 91.85121548 45.78419054 C91.85511194 50.77479822 91.86469075 55.76539559 91.87342834 60.7559967 C91.89321178 72.81759128 91.90326151 84.87918673 91.91215613 96.94079348 C91.91653611 102.61672169 91.92190368 108.29264896 91.927145 113.96857643 C91.94415943 132.82988002 91.95865433 151.69118301 91.96589375 170.5524931 C91.96780373 175.44962757 91.96972405 180.34676203 91.97167969 185.24389648 C91.97216343 186.46110014 91.97264717 187.67830379 91.97314557 188.9323924 C91.98144852 208.65693753 92.00678897 228.38142206 92.03926037 248.10594072 C92.07230539 268.34343115 92.09034021 288.58089076 92.09353799 308.81840831 C92.09570549 320.18638254 92.10448926 331.55426843 92.12999916 342.92221642 C92.15167127 352.60248184 92.15977381 362.28263746 92.15003238 371.96292438 C92.1454775 376.90351642 92.14744275 381.84388174 92.16679382 386.7844429 C92.18435369 391.30667601 92.18348637 395.82851582 92.16789653 400.35075269 C92.16550951 401.98741972 92.16990047 403.62411347 92.18172518 405.26073953 C92.19680432 407.48547063 92.187201 409.70880093 92.1714983 411.93349743 C92.17247511 413.1691624 92.17345192 414.40482737 92.17445832 415.67793673 C91.36116908 421.3670146 89.14422931 425.05484355 84.4855957 428.56628418 C80.29701438 430.65060996 76.33885626 430.72503293 71.73120117 430.67871094 C70.86360168 430.68572021 69.9960022 430.69272949 69.10211182 430.69995117 C66.25158097 430.71746886 63.40205354 430.70593067 60.55151367 430.69238281 C58.56046357 430.69507952 56.56941475 430.69896343 54.57836914 430.70397949 C50.4123883 430.70986611 46.24675131 430.70133847 42.08081055 430.68261719 C36.75105415 430.65982828 31.42210357 430.67295583 26.09237671 430.69690704 C21.98301158 430.71138757 17.87383629 430.70674867 13.76446533 430.69639587 C11.79974267 430.69373483 9.83500256 430.69697638 7.87030029 430.70631409 C5.12034705 430.71651682 2.37168378 430.70092685 -0.37817383 430.67871094 C-1.18357605 430.68680786 -1.98897827 430.69490479 -2.81878662 430.70324707 C-8.44338895 430.6194162 -11.79064419 429.57775824 -16.32348633 426.16113281 C-19.67151659 421.21930938 -20.82352716 418.04078573 -20.82405758 411.96028805 C-20.82957175 411.26684063 -20.83508591 410.57339321 -20.84076717 409.85893223 C-20.85433261 407.54173254 -20.83948222 405.22561114 -20.82469177 402.90843201 C-20.82858571 401.22786824 -20.8342269 399.54730777 -20.84146267 397.86675507 C-20.85622181 393.2535963 -20.84603337 388.64077872 -20.83172596 384.02763093 C-20.82062278 379.05075215 -20.83255657 374.07392149 -20.84156799 369.0970459 C-20.85550659 359.34957379 -20.84793982 349.60223117 -20.83289241 339.85476523 C-20.81604006 328.50656987 -20.81924157 317.15840684 -20.82298649 305.81020284 C-20.82886614 285.56460448 -20.814689 265.31906831 -20.79003906 245.07348633 C-20.76611482 225.42176991 -20.75903591 205.77013657 -20.76953125 186.1184082 C-20.78093642 164.72472056 -20.78287572 143.33107136 -20.76843315 121.93738419 C-20.76690729 119.65689059 -20.76538694 117.376397 -20.76387215 115.0959034 C-20.76311433 113.9738197 -20.76235652 112.85173601 -20.76157574 111.69564978 C-20.75683006 103.78252636 -20.75868634 95.86942008 -20.76293755 87.95629692 C-20.7678604 78.31564697 -20.76189675 68.67507561 -20.74204325 59.03444367 C-20.73216095 54.11424153 -20.72707629 49.19415914 -20.73493576 44.27395058 C-20.74198048 39.77174571 -20.7352163 35.26978276 -20.71733213 30.76760984 C-20.71327981 29.1371759 -20.71430062 27.50672 -20.720851 25.87629419 C-20.72898484 23.66261797 -20.7187097 21.44976014 -20.70380306 19.23613644 C-20.70277393 18.00583987 -20.7017448 16.77554331 -20.70068449 15.50796503 C-20.20902595 11.14554013 -18.79475909 7.77416883 -15.82348633 4.51660156 C-10.47399485 0.35124231 -6.58178668 0.00916649 0 0 Z " fill="#000000" transform="translate(2728.323486328125,620.8388671875)"/>
<path d="M0 0 C1.14855469 0.0928125 2.29710937 0.185625 3.48046875 0.28125 C19.47816504 1.97723411 34.73079143 7.82965912 45.21875 20.48828125 C55.84288336 35.46924123 58.61637217 53.34065409 56.3125 71.25 C53.82749263 85.81728457 48.0476015 98.89101128 36.375 108.375 C19.74953963 119.75031499 0.98766131 122.16918404 -18.5625 119 C-33.66276289 115.58714741 -46.78379855 107.7778378 -55.3984375 94.796875 C-65.44218464 77.25706292 -66.17620054 57.20806947 -61 38 C-56.37214595 23.69264169 -47.71471517 13.44308793 -34.5625 6.25 C-24.11440622 1.03666251 -11.60371168 -0.98605137 0 0 Z " fill="#7A00E6" transform="translate(514,940)"/>
<path d="M0 0 C11.99904778 11.55677519 17.64733897 25.70521332 17.97998047 42.2878418 C18.10082215 59.41346597 15.62382106 75.93066005 3.49609375 89.06640625 C-10.74541794 102.32362339 -26.85690957 106.42801796 -45.80859375 106 C-62.99106247 105.27177501 -77.66648557 98.93288465 -89.5 86.5625 C-101.56358571 72.36015108 -103.40350498 55.30434838 -102.52832031 37.36621094 C-101.20878243 21.37054581 -94.08829631 8.59661171 -82.33984375 -2.03515625 C-74.80287923 -8.08639471 -65.8287905 -11.78982844 -56.3125 -13.25 C-55.59191406 -13.37246094 -54.87132813 -13.49492187 -54.12890625 -13.62109375 C-35.22411516 -16.20336707 -14.72463184 -12.60838369 0 0 Z " fill="#7A00E6" transform="translate(2806.3125,463.25)"/>
</svg>
