<svg id="svg" version="1.1" xmlns="http://www.w3.org/2000/svg" xmlns:xlink="http://www.w3.org/1999/xlink" width="400" height="328.75" viewBox="0, 0, 400,328.75"><g id="svgg"><path id="path0" d="M19.881 7.535 C 14.653 8.762,9.821 13.358,7.975 18.859 L 7.188 21.204 7.188 47.477 L 7.188 73.750 200.000 73.750 L 392.813 73.750 392.813 47.477 L 392.813 21.204 392.025 18.859 C 390.156 13.292,385.769 9.105,380.272 7.641 C 378.287 7.113,22.125 7.008,19.881 7.535 M100.625 11.222 C 102.436 12.467,102.682 13.765,101.761 17.201 C 101.308 18.890,100.938 20.421,100.938 20.604 C 100.938 20.825,102.460 20.938,105.436 20.938 L 109.934 20.938 109.621 22.266 C 109.449 22.996,109.177 24.121,109.017 24.766 L 108.726 25.938 104.063 25.938 L 99.399 25.938 98.968 27.422 C 98.731 28.238,96.089 37.801,93.097 48.671 L 87.656 68.437 83.222 68.437 C 80.782 68.437,78.731 68.332,78.662 68.203 C 78.567 68.025,85.842 41.489,89.796 27.588 L 90.272 25.915 87.421 26.004 L 84.569 26.094 78.603 47.188 L 72.636 68.281 68.115 68.166 C 62.692 68.027,63.213 68.521,64.356 64.596 C 64.882 62.790,65.312 61.158,65.313 60.969 C 65.313 60.727,62.861 60.625,57.073 60.625 C 44.406 60.625,44.538 60.902,49.361 44.492 C 53.839 29.253,52.912 30.031,66.602 30.010 C 74.903 29.997,75.313 29.819,75.313 26.226 C 75.313 26.053,67.714 25.938,56.286 25.938 L 37.259 25.938 37.886 23.440 L 38.514 20.942 57.739 20.862 L 76.964 20.781 77.986 17.220 C 79.902 10.548,80.368 10.327,92.031 10.541 C 98.751 10.665,99.953 10.760,100.625 11.222 M267.164 11.383 C 268.411 12.579,268.619 13.845,267.955 16.210 L 267.418 18.125 262.894 18.125 L 258.370 18.125 258.575 17.266 C 258.687 16.793,258.853 16.160,258.942 15.859 C 259.087 15.373,258.848 15.313,256.782 15.313 L 254.460 15.313 253.685 18.047 L 252.910 20.781 261.417 20.864 L 269.924 20.947 269.395 23.364 L 268.866 25.781 260.131 25.864 L 251.396 25.947 250.174 30.328 L 248.952 34.709 241.155 34.671 C 232.073 34.626,232.708 34.390,231.876 38.122 C 231.058 41.791,230.697 41.561,237.299 41.572 C 243.557 41.583,243.731 41.631,244.528 43.538 C 245.266 45.305,245.103 46.990,243.714 51.957 C 241.443 60.076,240.596 60.787,233.217 60.769 L 228.114 60.756 227.825 61.862 C 227.666 62.471,227.244 64.125,226.888 65.538 C 225.708 70.224,226.098 70.025,219.178 69.486 L 216.638 69.288 217.889 65.548 L 219.140 61.808 218.410 60.513 C 217.382 58.692,217.382 56.166,218.409 54.726 C 220.525 51.759,227.437 51.316,228.991 54.048 C 229.402 54.770,229.755 54.998,230.469 55.002 C 230.984 55.006,231.696 55.086,232.049 55.181 C 233.333 55.526,234.014 54.456,234.713 50.995 C 235.596 46.619,235.999 46.946,229.573 46.823 C 221.376 46.667,221.188 46.428,222.969 38.427 C 224.855 29.957,225.209 29.688,234.462 29.688 L 240.601 29.687 241.082 28.068 C 241.346 27.178,241.563 26.334,241.563 26.193 C 241.563 26.053,233.748 25.938,224.198 25.938 C 207.810 25.938,206.841 25.907,206.985 25.391 C 207.144 24.821,207.236 24.472,207.806 22.266 L 208.149 20.938 225.599 20.938 L 243.049 20.938 243.916 17.734 C 245.142 13.200,245.935 11.819,247.969 10.670 C 248.402 10.425,251.298 10.340,257.402 10.393 L 266.210 10.469 267.164 11.383 M87.650 15.636 C 87.381 16.070,86.250 20.049,86.250 20.558 C 86.250 20.864,86.909 20.940,88.974 20.872 L 91.698 20.781 92.389 18.293 C 92.769 16.924,93.011 15.693,92.928 15.558 C 92.700 15.190,87.881 15.261,87.650 15.636 M201.135 21.641 C 201.031 22.027,200.786 23.152,200.589 24.141 L 200.231 25.937 196.270 25.938 L 192.310 25.938 186.614 46.016 C 183.482 57.059,180.775 66.627,180.598 67.278 L 180.276 68.463 175.841 68.252 C 173.402 68.136,171.360 68.001,171.303 67.953 C 171.245 67.905,171.644 66.295,172.188 64.375 C 172.731 62.455,173.104 60.813,173.016 60.725 C 172.928 60.637,169.205 60.473,164.742 60.360 C 152.588 60.055,152.623 60.126,157.031 44.282 C 158.492 39.032,159.688 34.655,159.688 34.556 C 159.688 34.456,158.211 34.375,156.406 34.375 C 152.682 34.375,152.855 34.566,153.775 31.479 L 154.424 29.298 164.701 29.429 C 170.353 29.501,175.065 29.648,175.172 29.755 C 175.279 29.863,175.038 30.981,174.637 32.241 L 173.906 34.531 171.889 34.688 L 169.872 34.844 166.943 44.063 C 163.163 55.956,162.888 55.220,171.148 55.285 L 174.639 55.313 174.958 54.297 C 175.134 53.738,176.916 47.317,178.918 40.028 C 180.920 32.738,182.631 26.586,182.719 26.356 C 182.852 26.010,179.978 25.938,166.044 25.938 L 149.209 25.937 146.478 36.172 C 142.691 50.363,142.829 50.201,134.568 50.088 C 128.693 50.008,129.131 50.266,130.070 47.441 L 130.831 45.156 132.444 44.992 C 134.999 44.731,134.628 45.615,139.040 29.297 L 139.948 25.938 134.740 25.938 L 129.531 25.939 126.938 36.016 C 123.612 48.940,123.298 46.566,129.844 58.009 C 132.852 63.267,135.313 67.694,135.313 67.847 C 135.313 68.000,133.079 68.125,130.350 68.125 L 125.388 68.125 120.824 59.894 C 114.005 47.597,114.229 49.327,117.804 36.476 C 119.174 31.551,120.385 27.165,120.494 26.729 L 120.693 25.938 118.159 25.938 C 116.765 25.938,115.625 25.852,115.625 25.748 C 115.625 25.530,116.523 21.912,116.722 21.328 C 116.828 21.018,125.582 20.938,159.089 20.938 L 201.323 20.937 201.135 21.641 M362.475 21.484 C 362.461 21.785,362.215 22.875,361.927 23.906 L 361.404 25.781 358.262 25.870 L 355.120 25.958 349.183 47.120 L 343.247 68.281 338.733 68.170 C 336.250 68.108,334.186 68.029,334.146 67.993 C 334.106 67.957,336.112 60.765,338.602 52.011 C 343.823 33.660,343.718 34.687,340.379 34.688 C 337.076 34.688,337.446 33.995,334.833 45.078 L 333.672 50.000 329.159 50.000 C 325.003 50.000,324.659 49.957,324.818 49.453 C 325.542 47.163,328.125 36.587,328.125 35.913 C 328.125 34.869,327.687 34.688,325.169 34.688 C 322.574 34.688,323.158 33.272,318.149 51.699 C 315.723 60.626,313.689 67.977,313.631 68.036 C 313.572 68.094,311.483 68.103,308.988 68.055 L 304.452 67.969 309.271 50.625 C 315.597 27.852,314.179 29.687,325.447 29.688 L 332.841 29.688 333.608 30.455 C 334.030 30.876,334.375 31.435,334.375 31.696 C 334.375 31.983,334.928 31.618,335.773 30.773 L 337.171 29.375 340.481 29.375 C 342.302 29.375,344.047 29.512,344.360 29.680 C 344.857 29.946,344.976 29.796,345.291 28.508 C 345.490 27.696,345.727 26.784,345.817 26.482 C 345.973 25.961,345.029 25.937,327.940 26.013 L 309.899 26.094 307.271 35.938 C 304.411 46.652,303.956 47.782,301.922 49.205 L 300.562 50.156 295.398 50.091 C 289.282 50.013,289.826 50.333,290.812 47.399 L 291.619 45.000 292.826 45.000 C 294.536 45.000,295.557 44.442,295.911 43.313 C 296.079 42.780,297.146 38.898,298.282 34.688 C 299.419 30.477,300.421 26.782,300.510 26.477 C 300.661 25.959,300.325 25.928,295.447 26.008 L 290.222 26.094 287.615 36.094 C 284.284 48.874,284.000 46.531,290.185 57.344 C 293.035 62.328,295.570 66.793,295.817 67.266 L 296.266 68.125 291.180 68.120 L 286.094 68.115 281.406 59.653 C 274.728 47.599,274.921 49.306,278.709 35.749 C 280.106 30.747,281.250 26.493,281.250 26.296 C 281.250 26.053,280.344 25.938,278.438 25.938 C 276.891 25.938,275.625 25.852,275.625 25.748 C 275.625 25.530,276.523 21.912,276.722 21.328 C 276.965 20.616,362.508 20.772,362.475 21.484 M65.748 35.239 C 65.512 35.396,66.001 37.089,67.282 40.560 C 68.316 43.360,69.268 45.539,69.397 45.403 C 69.526 45.267,70.134 43.328,70.749 41.094 C 71.363 38.859,71.999 36.574,72.161 36.016 L 72.456 35.000 69.275 35.005 C 67.525 35.007,65.938 35.113,65.748 35.239 M57.364 48.178 C 55.447 55.540,55.368 55.313,59.837 55.313 C 61.645 55.313,63.125 55.207,63.126 55.078 C 63.128 54.524,59.226 42.500,59.044 42.500 C 58.933 42.500,58.178 45.055,57.364 48.178 M176.488 123.669 L 155.691 152.656 158.331 152.747 C 160.657 152.827,160.952 152.901,160.804 153.372 C 160.712 153.666,153.879 175.281,145.619 201.406 C 137.360 227.531,130.528 249.152,130.436 249.453 C 130.281 249.966,130.879 250.000,140.000 250.000 L 149.730 250.000 149.506 250.703 C 147.484 257.064,131.930 307.346,131.972 307.386 C 132.048 307.457,171.685 252.221,171.819 251.859 C 171.874 251.709,170.729 251.547,169.275 251.497 L 166.631 251.406 174.118 229.375 C 178.236 217.258,181.701 207.259,181.818 207.155 C 182.084 206.920,193.003 207.892,193.283 208.176 C 193.434 208.329,186.668 231.780,181.373 249.448 C 181.222 249.952,181.824 249.996,189.933 250.073 L 198.654 250.156 189.958 278.594 C 179.648 312.306,180.294 310.148,180.615 309.806 C 180.756 309.655,190.666 296.488,202.635 280.547 L 224.399 251.563 221.418 251.563 C 219.237 251.563,218.438 251.457,218.438 251.171 C 218.437 250.955,225.668 229.088,234.506 202.577 L 250.574 154.375 240.287 154.375 C 232.260 154.375,230.002 154.289,230.010 153.984 C 230.016 153.770,234.006 140.445,238.877 124.375 C 243.748 108.305,247.701 95.118,247.661 95.071 C 247.317 94.662,244.269 98.748,227.031 122.731 C 216.203 137.795,206.889 150.636,206.334 151.264 C 205.052 152.715,205.178 152.813,208.333 152.813 C 210.124 152.813,210.938 152.928,210.938 153.181 C 210.938 153.383,207.888 163.164,204.161 174.916 L 197.384 196.283 192.051 196.062 C 189.118 195.940,186.425 195.757,186.065 195.655 C 185.441 195.477,185.700 194.551,191.876 174.922 L 198.339 154.375 188.701 154.375 C 183.400 154.375,179.063 154.266,179.063 154.132 C 179.063 153.998,183.201 140.605,188.258 124.369 C 193.316 108.134,197.416 94.812,197.370 94.766 C 197.324 94.719,187.927 107.726,176.488 123.669 M63.781 158.946 C 57.642 174.378,51.666 191.211,41.218 222.500 C 33.121 246.748,32.521 248.745,33.073 249.614 C 33.274 249.930,40.993 249.993,71.584 249.927 L 109.844 249.844 111.250 249.096 C 115.248 246.968,114.845 247.737,122.747 227.188 C 131.172 205.279,130.947 206.153,128.937 203.115 C 128.465 202.402,128.124 201.781,128.180 201.737 C 128.236 201.692,129.167 201.190,130.250 200.620 C 132.947 199.201,133.498 198.423,134.947 193.996 C 135.639 191.884,138.253 183.951,140.758 176.367 C 146.114 160.151,146.227 159.330,143.499 156.456 C 141.246 154.082,144.627 154.276,102.955 154.123 L 65.754 153.986 63.781 158.946 M263.005 158.359 C 252.019 187.087,231.513 246.668,231.979 248.507 C 232.355 249.989,232.018 249.970,261.049 250.197 L 288.739 250.414 289.538 248.608 C 290.530 246.366,291.239 243.423,291.245 241.528 L 291.250 240.086 289.297 239.900 C 288.223 239.798,284.109 239.475,280.156 239.184 C 276.203 238.892,272.853 238.552,272.711 238.428 C 272.568 238.304,274.957 231.294,278.018 222.851 L 283.584 207.500 293.462 207.500 L 303.339 207.500 304.160 205.391 C 305.145 202.862,305.927 199.642,305.933 198.087 L 305.938 196.955 300.547 196.755 C 289.622 196.350,287.464 196.191,287.563 195.800 C 287.614 195.594,290.045 188.389,292.965 179.787 L 298.275 164.148 301.530 163.949 C 303.320 163.840,306.837 163.749,309.345 163.748 C 311.854 163.747,314.864 163.655,316.034 163.545 L 318.162 163.344 318.897 161.893 C 319.696 160.317,320.464 157.802,320.788 155.703 L 320.992 154.375 292.761 154.375 L 264.529 154.375 263.005 158.359 M314.414 199.719 L 298.672 245.059 298.820 247.379 C 298.902 248.655,299.051 249.780,299.151 249.880 C 299.251 249.980,311.893 250.137,327.244 250.229 L 355.156 250.396 356.146 248.714 C 357.515 246.388,358.174 244.294,358.358 241.687 L 358.514 239.468 349.335 239.239 C 344.287 239.113,340.103 238.957,340.038 238.892 C 339.973 238.827,346.030 220.030,353.498 197.121 C 360.966 174.212,367.034 155.413,366.982 155.345 C 366.863 155.189,340.374 154.411,334.531 154.393 L 330.156 154.379 314.414 199.719 M102.110 164.491 C 104.822 165.894,104.526 167.949,99.823 180.392 C 94.205 195.253,94.267 195.171,88.576 195.133 C 84.925 195.108,83.125 194.675,83.125 193.821 C 83.125 193.557,85.395 186.760,88.170 178.714 L 93.216 164.086 95.749 163.965 C 99.243 163.798,101.060 163.948,102.110 164.491 M87.470 208.676 C 89.847 210.437,89.538 212.295,84.793 224.809 C 79.134 239.731,79.078 239.794,72.179 239.136 C 67.335 238.674,67.236 240.261,73.177 223.081 L 78.294 208.281 80.631 208.085 C 84.226 207.784,86.535 207.983,87.470 208.676 " stroke="none" fill="#fbfbfb" fill-rule="evenodd"></path><path id="path1" d="M17.969 0.613 C 9.509 2.856,2.859 9.514,0.649 17.953 L 0.000 20.430 -0.000 164.138 C -0.000 295.213,0.044 308.043,0.504 310.095 C 2.494 318.972,9.778 326.256,18.655 328.246 C 22.112 329.021,377.888 329.021,381.345 328.246 C 390.222 326.256,397.506 318.972,399.496 310.095 C 399.956 308.043,400.000 295.213,400.000 164.138 L 400.000 20.430 399.351 17.953 C 397.316 10.182,391.322 3.746,383.594 1.034 L 381.094 0.156 200.625 0.095 C 25.710 0.035,20.089 0.051,17.969 0.613 M379.438 7.218 C 385.639 8.501,390.902 13.598,392.507 19.870 C 393.098 22.183,393.125 23.406,393.125 48.175 L 393.125 74.063 199.990 74.063 L 6.855 74.063 6.943 47.266 L 7.031 20.469 7.866 18.319 C 9.994 12.844,14.670 8.636,20.085 7.324 C 22.297 6.788,376.855 6.683,379.438 7.218 M248.740 10.611 C 246.421 11.302,245.560 12.583,244.239 17.307 L 243.267 20.781 225.745 20.862 L 208.223 20.943 207.839 22.737 C 207.628 23.724,207.386 24.777,207.300 25.078 C 207.154 25.594,208.122 25.625,224.510 25.625 C 234.061 25.625,241.875 25.709,241.875 25.811 C 241.875 26.451,240.842 29.378,240.523 29.643 C 240.296 29.831,237.498 30.003,233.740 30.060 C 224.999 30.192,224.954 30.227,223.167 38.366 C 221.415 46.341,221.575 46.560,229.155 46.567 C 235.046 46.572,235.313 46.633,235.313 47.972 C 235.313 49.511,234.378 53.810,233.870 54.609 C 233.182 55.692,229.493 55.664,229.078 54.572 C 227.919 51.523,220.632 51.797,218.520 54.968 C 217.551 56.422,217.573 58.519,218.577 60.408 L 219.342 61.846 218.109 65.518 C 217.430 67.537,216.875 69.235,216.875 69.291 C 216.875 69.347,218.872 69.353,221.313 69.305 L 225.751 69.219 226.860 64.922 L 227.969 60.626 232.969 60.620 C 240.385 60.612,241.207 59.963,243.462 52.344 C 244.905 47.471,245.139 44.875,244.284 43.241 C 243.582 41.898,243.464 41.875,237.356 41.875 C 230.678 41.875,230.890 42.013,231.674 38.172 C 232.465 34.301,231.834 34.557,241.015 34.375 L 248.884 34.219 250.112 29.922 L 251.340 25.625 260.020 25.625 L 268.700 25.625 269.194 23.454 C 269.465 22.260,269.688 21.205,269.688 21.110 C 269.688 21.015,265.879 20.938,261.225 20.938 L 252.763 20.938 252.970 19.996 C 254.084 14.924,254.190 14.807,257.367 15.147 L 259.332 15.358 258.915 16.741 L 258.499 18.125 260.734 18.086 C 266.310 17.989,267.304 17.773,267.717 16.563 C 268.569 14.064,267.965 11.621,266.343 11.007 C 265.307 10.615,249.892 10.268,248.740 10.611 M82.344 11.070 C 80.190 11.874,79.319 13.160,78.148 17.265 L 77.101 20.933 57.868 21.013 L 38.635 21.094 38.276 22.500 C 38.079 23.273,37.821 24.293,37.703 24.766 L 37.488 25.625 56.557 25.625 C 69.250 25.625,75.625 25.731,75.625 25.942 C 75.625 26.117,75.391 27.101,75.105 28.130 L 74.585 30.000 72.058 30.019 C 58.855 30.119,54.519 30.705,53.331 32.549 C 53.072 32.952,51.428 38.130,49.679 44.056 C 46.011 56.480,45.874 57.580,47.761 59.468 L 48.761 60.469 57.193 60.561 C 61.831 60.612,65.625 60.683,65.625 60.718 C 65.625 60.754,65.203 62.259,64.688 64.063 C 64.172 65.866,63.750 67.519,63.750 67.734 C 63.750 68.028,64.825 68.125,68.101 68.125 L 72.452 68.125 72.774 67.109 C 72.952 66.551,75.569 57.305,78.589 46.563 C 81.610 35.820,84.215 26.715,84.378 26.328 C 84.727 25.500,90.314 25.205,90.312 26.016 C 90.311 26.230,87.710 35.747,84.532 47.163 C 81.354 58.580,78.788 67.950,78.830 67.986 C 78.872 68.022,80.834 68.153,83.189 68.276 L 87.472 68.500 87.660 67.766 C 87.764 67.362,90.410 57.750,93.541 46.406 L 99.235 25.781 103.968 25.695 L 108.702 25.609 109.051 23.982 C 109.243 23.087,109.480 22.036,109.577 21.646 L 109.755 20.938 105.190 20.938 C 102.679 20.938,100.625 20.901,100.625 20.857 C 100.625 20.813,100.975 19.512,101.402 17.967 C 102.517 13.936,102.320 12.381,100.553 11.277 C 99.534 10.641,83.968 10.464,82.344 11.070 M93.109 15.506 C 93.186 15.583,93.074 16.309,92.860 17.119 C 92.646 17.930,92.332 19.121,92.161 19.766 L 91.851 20.938 88.894 20.938 C 87.268 20.938,85.938 20.855,85.938 20.754 C 85.938 20.224,87.342 15.720,87.620 15.356 C 87.927 14.957,92.685 15.087,93.109 15.506 M116.444 22.955 C 116.166 24.064,115.938 25.119,115.938 25.299 C 115.938 25.498,116.908 25.625,118.438 25.625 C 119.813 25.625,120.938 25.693,120.938 25.776 C 120.938 25.860,119.749 30.184,118.297 35.386 C 114.377 49.427,114.185 47.524,120.710 59.297 L 125.430 67.813 130.215 67.813 C 132.847 67.813,135.000 67.724,135.000 67.616 C 135.000 67.508,132.574 63.184,129.609 58.007 C 123.068 46.583,123.338 48.771,126.835 35.563 C 128.232 30.287,129.375 25.893,129.375 25.798 C 129.375 25.703,131.766 25.625,134.688 25.625 C 138.740 25.625,140.000 25.718,140.000 26.017 C 140.000 26.233,139.099 29.713,137.998 33.751 C 136.897 37.790,135.835 41.699,135.638 42.438 C 135.121 44.378,134.373 45.000,132.562 45.000 L 131.061 45.000 130.352 47.109 C 129.962 48.270,129.571 49.395,129.483 49.609 C 129.359 49.912,130.422 50.000,134.203 50.000 C 140.466 50.000,141.769 49.531,143.177 46.772 C 143.637 45.871,149.063 26.503,149.063 25.763 C 149.063 25.386,182.813 25.639,182.820 26.016 C 182.824 26.230,181.038 32.910,178.851 40.859 L 174.875 55.313 170.073 55.313 C 162.790 55.312,162.987 56.052,166.935 43.528 L 169.813 34.401 171.832 34.310 L 173.851 34.219 174.579 32.055 C 174.980 30.865,175.274 29.859,175.232 29.820 C 175.190 29.780,170.500 29.699,164.810 29.640 L 154.464 29.531 153.950 31.462 C 153.667 32.523,153.352 33.609,153.251 33.873 C 153.093 34.285,153.559 34.367,156.494 34.443 L 159.923 34.531 157.284 43.906 C 152.717 60.129,152.711 60.117,165.233 60.141 C 169.744 60.149,173.436 60.215,173.436 60.287 C 173.437 60.358,173.006 62.024,172.478 63.988 C 171.323 68.286,171.010 67.926,176.033 68.069 L 180.156 68.187 185.762 48.390 C 188.845 37.502,191.562 27.930,191.799 27.119 L 192.229 25.643 196.170 25.556 L 200.110 25.469 200.510 23.750 C 200.731 22.805,200.917 21.785,200.924 21.484 C 200.937 20.966,198.735 20.938,158.944 20.938 L 116.951 20.938 116.444 22.955 M276.444 22.955 C 276.166 24.064,275.938 25.119,275.938 25.299 C 275.938 25.501,277.003 25.625,278.750 25.625 C 280.387 25.625,281.563 25.754,281.563 25.933 C 281.563 26.102,280.367 30.513,278.906 35.736 C 275.033 49.584,274.649 47.153,283.125 62.449 L 286.094 67.806 291.041 67.809 L 295.988 67.812 295.371 66.797 C 292.630 62.290,285.002 48.534,284.844 47.814 C 284.646 46.912,285.272 44.225,288.667 31.406 L 290.156 25.781 295.144 25.695 C 297.887 25.647,300.293 25.671,300.491 25.746 C 300.959 25.926,296.192 43.576,295.455 44.390 C 295.108 44.774,294.403 45.001,293.369 45.063 L 291.807 45.156 290.926 47.578 L 290.044 50.000 295.002 50.000 C 303.514 50.000,303.219 50.342,307.054 36.038 C 308.508 30.612,309.774 26.050,309.868 25.899 C 310.051 25.603,345.716 25.508,346.011 25.803 C 346.458 26.250,345.085 29.844,344.495 29.768 C 339.032 29.069,337.131 29.392,335.503 31.295 L 334.406 32.576 334.206 31.780 C 333.747 29.952,333.354 29.853,326.098 29.744 C 317.512 29.615,316.130 29.986,314.692 32.804 C 314.238 33.693,306.256 61.604,304.833 67.274 L 304.615 68.143 309.083 68.056 L 313.550 67.969 318.005 51.573 C 323.031 33.074,322.494 34.248,325.779 34.560 C 329.067 34.873,328.987 34.161,326.719 42.927 C 325.773 46.581,325.000 49.666,325.000 49.785 C 325.000 49.903,326.892 50.000,329.204 50.000 L 333.408 50.000 333.693 48.969 C 333.849 48.402,334.661 45.077,335.495 41.580 C 337.012 35.228,337.014 35.222,338.028 34.799 C 340.326 33.839,343.857 34.707,343.322 36.101 C 343.026 36.872,334.375 67.545,334.375 67.823 C 334.375 68.003,336.140 68.125,338.741 68.125 L 343.108 68.125 343.576 66.484 C 343.834 65.582,346.446 56.266,349.379 45.781 C 352.313 35.297,354.787 26.473,354.878 26.172 C 355.020 25.699,355.460 25.625,358.124 25.625 L 361.206 25.625 361.714 23.828 C 361.994 22.840,362.295 21.785,362.383 21.484 C 362.534 20.965,360.357 20.938,319.747 20.938 L 276.951 20.938 276.444 22.955 M72.513 34.922 C 72.540 35.396,69.526 46.248,69.367 46.249 C 69.276 46.249,68.281 43.754,67.154 40.703 L 65.106 35.156 68.569 34.984 C 70.473 34.890,72.137 34.784,72.266 34.750 C 72.395 34.716,72.506 34.793,72.513 34.922 M61.365 48.623 C 62.505 52.248,63.438 55.307,63.438 55.420 C 63.438 55.758,57.196 55.651,56.542 55.302 C 56.138 55.085,55.937 54.645,55.935 53.973 C 55.932 52.691,58.838 41.517,59.098 41.811 C 59.205 41.932,60.225 44.997,61.365 48.623 M188.598 123.865 C 183.525 140.138,179.375 153.589,179.375 153.757 C 179.375 153.949,182.907 154.063,188.906 154.063 C 194.236 154.063,198.438 154.185,198.438 154.339 C 198.438 154.492,195.619 163.597,192.175 174.574 C 188.731 185.550,185.844 194.762,185.759 195.045 C 185.622 195.500,186.162 195.581,190.536 195.761 C 193.249 195.873,195.873 195.993,196.367 196.029 L 197.266 196.094 204.055 174.688 C 209.859 156.388,210.772 153.250,210.344 153.069 C 210.069 152.952,208.736 152.847,207.382 152.834 L 204.920 152.813 205.740 151.797 C 206.190 151.238,215.595 138.236,226.639 122.902 C 244.994 97.417,247.821 93.724,247.811 95.234 C 247.810 95.363,243.833 108.617,238.973 124.688 L 230.136 153.906 240.381 153.989 C 248.280 154.052,250.625 154.160,250.625 154.458 C 250.625 154.672,243.394 176.537,234.557 203.048 L 218.489 251.250 221.257 251.250 C 222.780 251.250,224.108 251.383,224.208 251.545 C 224.372 251.810,180.330 310.747,180.123 310.540 C 180.076 310.493,184.177 296.915,189.237 280.368 C 194.297 263.820,198.438 250.220,198.438 250.146 C 198.438 250.071,194.527 249.972,189.748 249.927 L 181.059 249.844 187.204 229.063 C 190.584 217.633,193.334 208.261,193.315 208.236 C 193.153 208.018,182.049 207.210,181.882 207.403 C 181.761 207.542,178.415 217.219,174.447 228.906 C 170.478 240.594,167.136 250.402,167.020 250.703 C 166.828 251.198,167.066 251.250,169.531 251.250 C 171.647 251.250,172.219 251.341,172.097 251.659 C 171.867 252.260,131.768 308.122,131.651 308.005 C 131.596 307.950,135.562 294.996,140.463 279.218 C 145.365 263.439,149.375 250.413,149.375 250.269 C 149.375 250.126,145.040 249.972,139.741 249.926 L 130.107 249.844 145.190 202.188 C 153.485 175.977,160.353 154.220,160.452 153.840 C 160.625 153.172,160.543 153.146,157.942 153.059 L 155.254 152.969 170.167 132.188 C 178.370 120.758,187.890 107.496,191.324 102.716 C 194.758 97.936,197.624 94.082,197.694 94.152 C 197.763 94.221,193.670 107.592,188.598 123.865 M140.740 154.412 C 143.570 155.160,146.037 159.111,145.491 162.021 C 145.166 163.757,134.064 197.244,133.493 198.214 C 133.013 199.029,130.089 201.244,129.478 201.255 C 128.451 201.274,128.391 201.841,129.260 203.322 C 131.016 206.313,131.046 206.200,123.110 226.875 L 116.094 245.156 114.219 247.059 C 111.148 250.175,114.743 249.917,71.374 250.138 C 29.719 250.351,32.708 250.479,32.708 248.490 C 32.708 247.117,46.529 205.517,53.438 186.094 C 57.399 174.960,62.237 162.179,65.504 154.219 C 65.681 153.786,139.083 153.974,140.740 154.412 M315.989 154.266 L 321.141 154.469 320.880 156.219 C 320.571 158.303,319.260 162.066,318.506 163.035 C 317.979 163.713,317.785 163.730,308.203 163.943 C 302.832 164.063,298.438 164.190,298.438 164.225 C 298.438 164.261,296.048 171.305,293.128 179.879 C 290.208 188.454,287.817 195.627,287.816 195.821 C 287.813 196.069,290.442 196.241,296.678 196.402 C 301.554 196.529,305.724 196.743,305.945 196.879 C 306.783 197.397,304.482 206.675,303.330 207.421 C 303.131 207.550,298.612 207.726,293.288 207.812 L 283.607 207.969 278.090 223.125 C 275.055 231.461,272.595 238.309,272.623 238.342 C 272.651 238.376,276.607 238.698,281.415 239.059 C 292.752 239.910,291.687 239.600,291.425 241.969 C 291.124 244.684,290.670 246.415,289.673 248.646 L 288.813 250.573 261.516 250.424 C 229.449 250.249,231.875 250.460,231.875 247.844 C 231.875 245.209,251.190 189.077,261.071 162.999 C 262.888 158.203,264.375 154.230,264.375 154.171 C 264.375 153.973,310.744 154.059,315.989 154.266 M349.529 154.554 C 359.153 154.826,367.085 155.106,367.154 155.175 C 367.224 155.245,361.189 174.007,353.744 196.869 C 346.298 219.731,340.283 238.513,340.378 238.607 C 340.510 238.739,353.953 239.315,358.092 239.366 C 359.580 239.384,358.411 245.266,356.176 249.007 L 355.156 250.712 339.714 250.512 C 331.221 250.402,318.551 250.313,311.557 250.313 L 298.843 250.313 298.645 247.747 L 298.447 245.182 313.329 202.357 C 321.514 178.803,328.626 158.301,329.133 156.797 C 330.033 154.132,330.081 154.062,331.044 154.061 C 331.587 154.060,339.905 154.282,349.529 154.554 M94.219 164.285 L 93.281 164.408 88.319 178.803 C 82.614 195.348,82.924 194.080,84.463 194.595 C 88.431 195.923,92.652 195.100,94.534 192.632 C 95.632 191.192,103.248 171.337,103.596 169.008 C 104.228 164.771,101.396 163.344,94.219 164.285 M79.262 208.383 C 78.457 208.573,68.438 235.697,68.438 237.687 C 68.438 238.429,69.359 238.753,72.356 239.064 C 78.814 239.733,79.066 239.433,84.863 224.219 C 90.316 209.903,90.184 208.335,83.509 208.227 C 81.665 208.197,79.754 208.268,79.262 208.383 " stroke="none" fill="#2c3c7c" fill-rule="evenodd"></path><path id="path2" d="M261.790 10.538 C 262.345 10.607,263.329 10.608,263.977 10.541 C 264.626 10.473,264.172 10.416,262.969 10.415 C 261.766 10.414,261.235 10.469,261.790 10.538 M162.578 29.599 C 163.051 29.670,163.824 29.670,164.297 29.599 C 164.770 29.527,164.383 29.469,163.438 29.469 C 162.492 29.469,162.105 29.527,162.578 29.599 M234.927 29.914 C 235.489 29.984,236.333 29.982,236.802 29.911 C 237.272 29.839,236.813 29.783,235.781 29.784 C 234.750 29.786,234.366 29.844,234.927 29.914 M62.891 30.215 C 63.191 30.294,63.684 30.294,63.984 30.215 C 64.285 30.137,64.039 30.073,63.438 30.073 C 62.836 30.073,62.590 30.137,62.891 30.215 M170.859 34.601 C 171.418 34.670,172.332 34.670,172.891 34.601 C 173.449 34.532,172.992 34.475,171.875 34.475 C 170.758 34.475,170.301 34.532,170.859 34.601 M242.270 34.599 C 242.745 34.671,243.448 34.669,243.832 34.595 C 244.217 34.521,243.828 34.462,242.969 34.464 C 242.109 34.467,241.795 34.527,242.270 34.599 M234.766 41.795 C 236.270 41.852,238.730 41.852,240.234 41.795 C 241.738 41.738,240.508 41.691,237.500 41.691 C 234.492 41.691,233.262 41.738,234.766 41.795 M228.672 46.783 C 229.059 46.858,229.691 46.858,230.078 46.783 C 230.465 46.709,230.148 46.648,229.375 46.648 C 228.602 46.648,228.285 46.709,228.672 46.783 M58.995 55.543 C 59.903 55.607,61.309 55.606,62.120 55.542 C 62.930 55.478,62.188 55.426,60.469 55.427 C 58.750 55.427,58.087 55.480,58.995 55.543 M126.177 68.039 C 126.739 68.109,127.583 68.107,128.052 68.036 C 128.522 67.964,128.063 67.908,127.031 67.909 C 126.000 67.911,125.616 67.969,126.177 68.039 M286.953 68.036 C 287.426 68.108,288.199 68.108,288.672 68.036 C 289.145 67.965,288.758 67.906,287.813 67.906 C 286.867 67.906,286.480 67.965,286.953 68.036 M103.516 73.984 C 156.582 74.028,243.418 74.028,296.484 73.984 C 349.551 73.941,306.133 73.905,200.000 73.905 C 93.867 73.905,50.449 73.941,103.516 73.984 M156.797 153.041 C 157.527 153.107,158.723 153.107,159.453 153.041 C 160.184 152.976,159.586 152.922,158.125 152.922 C 156.664 152.922,156.066 152.976,156.797 153.041 M179.915 154.288 C 180.470 154.357,181.454 154.358,182.102 154.291 C 182.751 154.223,182.297 154.166,181.094 154.165 C 179.891 154.164,179.360 154.219,179.915 154.288 M235.078 154.296 C 237.957 154.348,242.668 154.348,245.547 154.296 C 248.426 154.245,246.070 154.203,240.313 154.203 C 234.555 154.203,232.199 154.245,235.078 154.296 M281.328 154.296 C 283.348 154.350,286.652 154.350,288.672 154.296 C 290.691 154.241,289.039 154.197,285.000 154.197 C 280.961 154.197,279.309 154.241,281.328 154.296 M284.615 207.726 C 285.177 207.796,286.020 207.795,286.490 207.723 C 286.960 207.652,286.500 207.595,285.469 207.597 C 284.438 207.599,284.053 207.657,284.615 207.726 M235.391 250.230 C 236.207 250.294,237.543 250.294,238.359 250.230 C 239.176 250.165,238.508 250.113,236.875 250.113 C 235.242 250.113,234.574 250.165,235.391 250.230 M286.016 250.536 C 286.488 250.608,287.262 250.608,287.734 250.536 C 288.207 250.465,287.820 250.406,286.875 250.406 C 285.930 250.406,285.543 250.465,286.016 250.536 M347.266 250.543 C 348.254 250.605,349.871 250.605,350.859 250.543 C 351.848 250.481,351.039 250.431,349.063 250.431 C 347.086 250.431,346.277 250.481,347.266 250.543 M168.213 251.480 C 169.034 251.545,170.300 251.544,171.025 251.478 C 171.750 251.413,171.078 251.360,169.531 251.361 C 167.984 251.362,167.391 251.415,168.213 251.480 M219.766 251.465 C 220.066 251.544,220.559 251.544,220.859 251.465 C 221.160 251.387,220.914 251.323,220.313 251.323 C 219.711 251.323,219.465 251.387,219.766 251.465 " stroke="none" fill="#8c9bbc" fill-rule="evenodd"></path><path id="path3" d="M256.027 10.544 C 257.022 10.606,258.568 10.605,259.465 10.542 C 260.361 10.480,259.547 10.429,257.656 10.429 C 255.766 10.430,255.032 10.482,256.027 10.544 M96.484 10.851 C 97.043 10.920,97.957 10.920,98.516 10.851 C 99.074 10.782,98.617 10.725,97.500 10.725 C 96.383 10.725,95.926 10.782,96.484 10.851 M88.520 15.224 C 88.995 15.296,89.698 15.294,90.082 15.220 C 90.467 15.146,90.078 15.087,89.219 15.089 C 88.359 15.092,88.045 15.152,88.520 15.224 M254.263 15.240 C 254.182 15.372,254.701 15.435,255.417 15.380 C 257.520 15.218,257.776 15.075,256.034 15.036 C 255.142 15.016,254.345 15.108,254.263 15.240 M264.145 18.037 C 264.620 18.109,265.323 18.107,265.707 18.032 C 266.092 17.958,265.703 17.900,264.844 17.902 C 263.984 17.904,263.670 17.965,264.145 18.037 M196.094 25.625 L 192.031 25.810 195.997 25.874 C 198.376 25.912,200.040 25.812,200.156 25.625 C 200.262 25.453,200.306 25.341,200.253 25.376 C 200.200 25.411,198.328 25.523,196.094 25.625 M275.624 25.703 C 275.625 25.832,276.996 25.915,278.672 25.887 C 281.807 25.836,281.442 25.707,277.734 25.555 C 276.573 25.508,275.624 25.574,275.624 25.703 M46.953 25.859 C 52.238 25.907,60.887 25.907,66.172 25.859 C 71.457 25.811,67.133 25.772,56.563 25.772 C 45.992 25.772,41.668 25.811,46.953 25.859 M86.016 25.855 C 86.832 25.919,88.168 25.919,88.984 25.855 C 89.801 25.790,89.133 25.738,87.500 25.738 C 85.867 25.738,85.199 25.790,86.016 25.855 M99.266 25.859 C 99.186 25.988,100.619 26.057,102.451 26.012 C 108.374 25.865,109.016 25.742,104.159 25.683 C 101.548 25.651,99.346 25.730,99.266 25.859 M117.109 25.854 C 117.840 25.920,119.035 25.920,119.766 25.854 C 120.496 25.788,119.898 25.734,118.438 25.734 C 116.977 25.734,116.379 25.788,117.109 25.854 M131.953 25.858 C 133.457 25.915,135.918 25.915,137.422 25.858 C 138.926 25.800,137.695 25.754,134.688 25.754 C 131.680 25.754,130.449 25.800,131.953 25.858 M157.422 25.859 C 162.105 25.908,169.770 25.908,174.453 25.859 C 179.137 25.811,175.305 25.771,165.938 25.771 C 156.570 25.771,152.738 25.811,157.422 25.859 M215.882 25.859 C 220.749 25.908,228.624 25.908,233.382 25.859 C 238.139 25.811,234.156 25.771,224.531 25.771 C 214.906 25.771,211.014 25.811,215.882 25.859 M255.547 25.859 C 257.996 25.911,262.004 25.911,264.453 25.859 C 266.902 25.806,264.898 25.763,260.000 25.763 C 255.102 25.763,253.098 25.806,255.547 25.859 M291.875 25.837 C 296.009 26.062,300.868 26.075,300.734 25.859 C 300.654 25.730,298.241 25.652,295.372 25.684 C 292.503 25.717,290.930 25.785,291.875 25.837 M316.250 25.852 C 332.764 26.069,346.177 26.072,346.046 25.859 C 345.966 25.730,337.788 25.657,327.872 25.696 C 317.957 25.736,312.727 25.806,316.250 25.852 M356.484 25.855 C 357.387 25.919,358.863 25.919,359.766 25.855 C 360.668 25.792,359.930 25.741,358.125 25.741 C 356.320 25.741,355.582 25.792,356.484 25.855 M158.047 29.604 C 158.777 29.670,159.973 29.670,160.703 29.604 C 161.434 29.538,160.836 29.484,159.375 29.484 C 157.914 29.484,157.316 29.538,158.047 29.604 M230.088 29.918 C 230.909 29.982,232.175 29.981,232.900 29.916 C 233.625 29.850,232.953 29.797,231.406 29.798 C 229.859 29.799,229.266 29.853,230.088 29.918 M65.078 30.224 C 65.551 30.295,66.324 30.295,66.797 30.224 C 67.270 30.152,66.883 30.094,65.938 30.094 C 64.992 30.094,64.605 30.152,65.078 30.224 M246.563 34.375 L 244.219 34.575 246.466 34.631 C 247.702 34.662,248.800 34.547,248.906 34.375 C 249.012 34.203,249.056 34.088,249.003 34.119 C 248.950 34.150,247.852 34.265,246.563 34.375 M323.828 34.590 C 324.129 34.669,324.621 34.669,324.922 34.590 C 325.223 34.512,324.977 34.448,324.375 34.448 C 323.773 34.448,323.527 34.512,323.828 34.590 M339.615 34.601 C 340.177 34.671,341.020 34.670,341.490 34.598 C 341.960 34.527,341.500 34.470,340.469 34.472 C 339.438 34.474,339.053 34.532,339.615 34.601 M276.023 47.500 C 276.023 48.273,276.084 48.590,276.158 48.203 C 276.233 47.816,276.233 47.184,276.158 46.797 C 276.084 46.410,276.023 46.727,276.023 47.500 M231.484 46.789 C 232.043 46.858,232.957 46.858,233.516 46.789 C 234.074 46.719,233.617 46.663,232.500 46.663 C 231.383 46.663,230.926 46.719,231.484 46.789 M224.453 52.403 C 224.754 52.482,225.246 52.482,225.547 52.403 C 225.848 52.324,225.602 52.260,225.000 52.260 C 224.398 52.260,224.152 52.324,224.453 52.403 M158.047 60.221 C 158.434 60.295,159.066 60.295,159.453 60.221 C 159.840 60.146,159.523 60.085,158.750 60.085 C 157.977 60.085,157.660 60.146,158.047 60.221 M235.082 60.849 C 235.557 60.921,236.261 60.919,236.645 60.845 C 237.029 60.771,236.641 60.712,235.781 60.714 C 234.922 60.717,234.607 60.777,235.082 60.849 M131.875 67.813 L 128.594 68.003 131.953 68.064 C 134.025 68.102,135.313 68.005,135.313 67.813 C 135.313 67.641,135.277 67.528,135.234 67.561 C 135.191 67.595,133.680 67.708,131.875 67.813 M171.517 67.892 C 171.674 68.049,172.136 68.126,172.542 68.062 C 173.168 67.963,173.124 67.919,172.256 67.775 C 171.635 67.672,171.343 67.718,171.517 67.892 M291.027 68.044 C 292.022 68.106,293.568 68.105,294.465 68.042 C 295.361 67.980,294.547 67.929,292.656 67.929 C 290.766 67.930,290.032 67.982,291.027 68.044 M81.484 68.346 C 81.871 68.420,82.504 68.420,82.891 68.346 C 83.277 68.271,82.961 68.210,82.188 68.210 C 81.414 68.210,81.098 68.271,81.484 68.346 M66.963 153.980 C 67.784 154.045,69.050 154.044,69.775 153.978 C 70.500 153.913,69.828 153.860,68.281 153.861 C 66.734 153.862,66.141 153.915,66.963 153.980 M297.755 154.297 C 300.903 154.348,305.965 154.347,309.005 154.296 C 312.044 154.245,309.469 154.203,303.281 154.204 C 297.094 154.204,294.607 154.245,297.755 154.297 M335.234 154.283 C 335.621 154.358,336.254 154.358,336.641 154.283 C 337.027 154.209,336.711 154.148,335.938 154.148 C 335.164 154.148,334.848 154.209,335.234 154.283 M346.797 154.596 C 347.184 154.670,347.816 154.670,348.203 154.596 C 348.590 154.521,348.273 154.460,347.500 154.460 C 346.727 154.460,346.410 154.521,346.797 154.596 M358.359 154.908 C 358.746 154.983,359.379 154.983,359.766 154.908 C 360.152 154.834,359.836 154.773,359.063 154.773 C 358.289 154.773,357.973 154.834,358.359 154.908 M308.207 163.974 C 308.682 164.046,309.386 164.044,309.770 163.970 C 310.154 163.896,309.766 163.837,308.906 163.839 C 308.047 163.842,307.732 163.902,308.207 163.974 M295.391 196.465 C 295.691 196.544,296.184 196.544,296.484 196.465 C 296.785 196.387,296.539 196.323,295.938 196.323 C 295.336 196.323,295.090 196.387,295.391 196.465 M304.141 196.778 C 304.441 196.857,304.934 196.857,305.234 196.778 C 305.535 196.699,305.289 196.635,304.688 196.635 C 304.086 196.635,303.840 196.699,304.141 196.778 M290.547 207.733 C 292.480 207.788,295.645 207.788,297.578 207.733 C 299.512 207.678,297.930 207.634,294.063 207.634 C 290.195 207.634,288.613 207.678,290.547 207.733 M342.113 238.971 C 342.502 239.046,343.064 239.043,343.363 238.965 C 343.662 238.886,343.344 238.825,342.656 238.829 C 341.969 238.832,341.724 238.896,342.113 238.971 M352.738 239.284 C 353.127 239.358,353.689 239.355,353.988 239.277 C 354.287 239.199,353.969 239.138,353.281 239.141 C 352.594 239.145,352.349 239.209,352.738 239.284 M291.329 241.094 C 291.332 241.781,291.396 242.026,291.471 241.637 C 291.546 241.248,291.543 240.686,291.465 240.387 C 291.386 240.088,291.325 240.406,291.329 241.094 M40.412 250.234 C 44.334 250.284,50.662 250.284,54.474 250.234 C 58.287 250.184,55.078 250.144,47.344 250.144 C 39.609 250.144,36.490 250.185,40.412 250.234 M277.266 250.545 C 278.770 250.602,281.230 250.602,282.734 250.545 C 284.238 250.488,283.008 250.441,280.000 250.441 C 276.992 250.441,275.762 250.488,277.266 250.545 M337.250 250.545 C 338.745 250.602,341.276 250.602,342.875 250.546 C 344.473 250.489,343.250 250.442,340.156 250.442 C 337.063 250.441,335.755 250.488,337.250 250.545 M221.957 251.474 C 222.432 251.546,223.136 251.544,223.520 251.470 C 223.904 251.396,223.516 251.337,222.656 251.339 C 221.797 251.342,221.482 251.402,221.957 251.474 " stroke="none" fill="#707ea9" fill-rule="evenodd"></path><path id="path4" d="M111.172 7.109 C 160.027 7.153,239.973 7.153,288.828 7.109 C 337.684 7.066,297.711 7.030,200.000 7.030 C 102.289 7.030,62.316 7.066,111.172 7.109 M85.078 10.540 C 85.723 10.608,86.777 10.608,87.422 10.540 C 88.066 10.473,87.539 10.418,86.250 10.418 C 84.961 10.418,84.434 10.473,85.078 10.540 M7.024 48.281 C 7.024 62.375,7.062 68.095,7.109 60.992 C 7.156 53.890,7.156 42.358,7.109 35.367 C 7.062 28.376,7.024 34.188,7.024 48.281 M392.962 48.281 C 392.962 62.375,393.000 68.095,393.047 60.992 C 393.094 53.890,393.094 42.358,393.047 35.367 C 393.000 28.376,392.962 34.188,392.962 48.281 M166.652 29.606 C 167.647 29.668,169.193 29.668,170.090 29.605 C 170.986 29.542,170.172 29.491,168.281 29.492 C 166.391 29.493,165.657 29.544,166.652 29.606 M238.047 29.908 C 238.434 29.983,239.066 29.983,239.453 29.908 C 239.840 29.834,239.523 29.773,238.750 29.773 C 237.977 29.773,237.660 29.834,238.047 29.908 M60.395 30.224 C 60.870 30.296,61.573 30.294,61.957 30.220 C 62.342 30.146,61.953 30.087,61.094 30.089 C 60.234 30.092,59.920 30.152,60.395 30.224 M236.797 34.605 C 237.699 34.669,239.176 34.669,240.078 34.605 C 240.980 34.542,240.242 34.491,238.438 34.491 C 236.633 34.491,235.895 34.542,236.797 34.605 M225.703 46.786 C 226.176 46.858,226.949 46.858,227.422 46.786 C 227.895 46.715,227.508 46.656,226.563 46.656 C 225.617 46.656,225.230 46.715,225.703 46.786 M134.922 50.229 C 135.652 50.295,136.848 50.295,137.578 50.229 C 138.309 50.163,137.711 50.109,136.250 50.109 C 134.789 50.109,134.191 50.163,134.922 50.229 M295.713 50.230 C 296.534 50.295,297.800 50.294,298.525 50.228 C 299.250 50.163,298.578 50.110,297.031 50.111 C 295.484 50.112,294.891 50.165,295.713 50.230 M165.703 55.215 C 166.004 55.294,166.496 55.294,166.797 55.215 C 167.098 55.137,166.852 55.073,166.250 55.073 C 165.648 55.073,165.402 55.137,165.703 55.215 M229.922 55.221 C 230.309 55.295,230.941 55.295,231.328 55.221 C 231.715 55.146,231.398 55.085,230.625 55.085 C 229.852 55.085,229.535 55.146,229.922 55.221 M170.227 60.538 C 170.782 60.607,171.767 60.608,172.415 60.541 C 173.063 60.473,172.609 60.416,171.406 60.415 C 170.203 60.414,169.673 60.469,170.227 60.538 M231.020 60.849 C 231.495 60.921,232.198 60.919,232.582 60.845 C 232.967 60.771,232.578 60.712,231.719 60.714 C 230.859 60.717,230.545 60.777,231.020 60.849 M71.250 68.125 L 69.844 68.344 71.153 68.391 C 71.874 68.416,72.550 68.297,72.656 68.125 C 72.762 67.953,72.806 67.834,72.753 67.859 C 72.700 67.885,72.023 68.005,71.250 68.125 M341.250 68.125 L 339.219 68.330 341.153 68.384 C 342.218 68.413,343.175 68.297,343.281 68.125 C 343.387 67.953,343.431 67.837,343.378 67.866 C 343.325 67.896,342.367 68.012,341.250 68.125 M177.422 68.346 C 177.809 68.420,178.441 68.420,178.828 68.346 C 179.215 68.271,178.898 68.210,178.125 68.210 C 177.352 68.210,177.035 68.271,177.422 68.346 M221.328 69.605 C 222.145 69.669,223.480 69.669,224.297 69.605 C 225.113 69.540,224.445 69.488,222.813 69.488 C 221.180 69.488,220.512 69.540,221.328 69.605 M131.032 154.296 C 132.717 154.352,135.388 154.352,136.969 154.295 C 138.550 154.239,137.172 154.192,133.906 154.193 C 130.641 154.193,129.347 154.239,131.032 154.296 M186.971 154.296 C 189.173 154.350,192.688 154.350,194.784 154.296 C 196.879 154.242,195.078 154.198,190.781 154.198 C 186.484 154.198,184.770 154.242,186.971 154.296 M267.891 154.296 C 269.738 154.351,272.762 154.351,274.609 154.296 C 276.457 154.240,274.945 154.195,271.250 154.195 C 267.555 154.195,266.043 154.240,267.891 154.296 M331.020 154.287 C 331.495 154.359,332.198 154.357,332.582 154.282 C 332.967 154.208,332.578 154.150,331.719 154.152 C 330.859 154.154,330.545 154.215,331.020 154.287 M342.582 154.599 C 343.057 154.671,343.761 154.669,344.145 154.595 C 344.529 154.521,344.141 154.462,343.281 154.464 C 342.422 154.467,342.107 154.527,342.582 154.599 M354.145 154.912 C 354.620 154.984,355.323 154.982,355.707 154.907 C 356.092 154.833,355.703 154.775,354.844 154.777 C 353.984 154.779,353.670 154.840,354.145 154.912 M365.234 155.221 C 365.621 155.295,366.254 155.295,366.641 155.221 C 367.027 155.146,366.711 155.085,365.938 155.085 C 365.164 155.085,364.848 155.146,365.234 155.221 M315.859 163.658 C 316.246 163.733,316.879 163.733,317.266 163.658 C 317.652 163.584,317.336 163.523,316.563 163.523 C 315.789 163.523,315.473 163.584,315.859 163.658 M98.676 163.971 C 99.064 164.046,99.627 164.043,99.926 163.965 C 100.224 163.886,99.906 163.825,99.219 163.829 C 98.531 163.832,98.287 163.896,98.676 163.971 M303.365 163.976 C 303.927 164.046,304.770 164.045,305.240 163.973 C 305.710 163.902,305.250 163.845,304.219 163.847 C 303.188 163.849,302.803 163.907,303.365 163.976 M292.109 196.471 C 292.496 196.545,293.129 196.545,293.516 196.471 C 293.902 196.396,293.586 196.335,292.813 196.335 C 292.039 196.335,291.723 196.396,292.109 196.471 M300.863 196.784 C 301.252 196.858,301.814 196.855,302.113 196.777 C 302.412 196.699,302.094 196.638,301.406 196.641 C 300.719 196.645,300.474 196.709,300.863 196.784 M83.520 208.037 C 83.995 208.109,84.698 208.107,85.082 208.032 C 85.467 207.958,85.078 207.900,84.219 207.902 C 83.359 207.904,83.045 207.965,83.520 208.037 M88.823 212.188 C 88.823 212.789,88.887 213.035,88.965 212.734 C 89.044 212.434,89.044 211.941,88.965 211.641 C 88.887 211.340,88.823 211.586,88.823 212.188 M348.832 239.287 C 349.307 239.359,350.011 239.357,350.395 239.282 C 350.779 239.208,350.391 239.150,349.531 239.152 C 348.672 239.154,348.357 239.215,348.832 239.287 M298.855 249.375 L 298.906 250.156 306.016 250.165 L 313.125 250.174 306.115 250.081 C 299.150 249.989,299.103 249.984,298.954 249.291 C 298.824 248.687,298.811 248.698,298.855 249.375 M243.221 250.234 C 245.250 250.288,248.484 250.288,250.408 250.233 C 252.332 250.178,250.672 250.134,246.719 250.134 C 242.766 250.134,241.192 250.179,243.221 250.234 M353.047 250.533 C 353.434 250.608,354.066 250.608,354.453 250.533 C 354.840 250.459,354.523 250.398,353.750 250.398 C 352.977 250.398,352.660 250.459,353.047 250.533 " stroke="none" fill="#9ca4c4" fill-rule="evenodd"></path></g></svg>