<?xml version="1.0" encoding="UTF-8"?>
<svg version="1.1" xmlns="http://www.w3.org/2000/svg" width="259" height="194">
<path d="M0 0 C85.47 0 170.94 0 259 0 C259 64.02 259 128.04 259 194 C173.53 194 88.06 194 0 194 C0 129.98 0 65.96 0 0 Z " fill="#FDFDFD" transform="translate(0,0)"/>
<path d="M0 0 C-0.33 1.65 -0.66 3.3 -1 5 C-3.08516236 5 -5.17279055 4.98921931 -7.25390625 4.859375 C-8.01574219 4.82328125 -8.77757813 4.7871875 -9.5625 4.75 C-10.32691406 4.70359375 -11.09132813 4.6571875 -11.87890625 4.609375 C-14.12558564 4.81240695 -14.12558564 4.81240695 -15.60766602 6.64404297 C-17.37426748 9.63329496 -17.38751298 11.62494619 -17.3984375 15.0859375 C-17.40230469 16.26414062 -17.40617187 17.44234375 -17.41015625 18.65625 C-17.39855469 19.8834375 -17.38695313 21.110625 -17.375 22.375 C-17.38660156 23.59445313 -17.39820312 24.81390625 -17.41015625 26.0703125 C-17.40628906 27.25109375 -17.40242188 28.431875 -17.3984375 29.6484375 C-17.39505371 30.72270996 -17.39166992 31.79698242 -17.38818359 32.90380859 C-16.94348135 36.45079841 -15.75221096 38.90796537 -14 42 C-9.71 42 -5.42 42 -1 42 C-0.67 42.66 -0.34 43.32 0 44 C0.66 44 1.32 44 2 44 C4.39860736 35.57935714 6.46911425 27.1480288 8.1875 18.5625 C8.35411133 17.73524414 8.52072266 16.90798828 8.69238281 16.05566406 C9.67328894 11.05042437 10.42396854 6.06791312 11 1 C14.3 1 17.6 1 21 1 C21.34611328 2.51013672 21.34611328 2.51013672 21.69921875 4.05078125 C23.76976316 13.0012583 25.97698551 21.89743456 28.42456055 30.75317383 C28.62992432 31.51138428 28.83528809 32.26959473 29.046875 33.05078125 C29.23088867 33.71762939 29.41490234 34.38447754 29.60449219 35.0715332 C30 37 30 37 30 41 C31.32 41 32.64 41 34 41 C34.33 40.01 34.66 39.02 35 38 C35.495 39.98 35.495 39.98 36 42 C36 28.14 36 14.28 36 0 C55 0 55 0 62 4 C62.66 3.67 63.32 3.34 64 3 C64 2.34 64 1.68 64 1 C65.32 1.33 66.64 1.66 68 2 C68 3.65 68 5.3 68 7 C68.66 7 69.32 7 70 7 C70.33 5.02 70.66 3.04 71 1 C73.64 1 76.28 1 79 1 C79.33 16.51 79.66 32.02 80 48 C78.02 48.33 76.04 48.66 74 49 C73.67 49.99 73.34 50.98 73 52 C75.97 52 78.94 52 82 52 C82.08107646 54.75059381 82.14052813 57.49879021 82.1875 60.25 C82.21263672 61.02730469 82.23777344 61.80460937 82.26367188 62.60546875 C82.30804894 66.06687959 82.29333278 68.40788553 80.73828125 71.546875 C79 73 79 73 75 73 C75.66 74.32 76.32 75.64 77 77 C76 78 76 78 73.4375 78.0625 C72.633125 78.041875 71.82875 78.02125 71 78 C71 79.98 71 81.96 71 84 C70.01 84 69.02 84 68 84 C68 82.02 68 80.04 68 78 C66.515 77.505 66.515 77.505 65 77 C65.66 75.35 66.32 73.7 67 72 C61.88973606 71.20702801 58.11245981 71.11087655 53 72 C49.625 71.5625 49.625 71.5625 47 71 C46.67 69.68 46.34 68.36 46 67 C44.68 67 43.36 67 42 67 C41.505 68.98 41.505 68.98 41 71 C39.02 71 37.04 71 35 71 C34.67 67.04 34.34 63.08 34 59 C33.34 63.29 32.68 67.58 32 72 C31.34 72 30.68 72 30 72 C29.67 72.66 29.34 73.32 29 74 C23.17510746 73.53789997 17.58525743 72.81339432 11.91015625 71.40234375 C9.83608073 70.89694433 9.83608073 70.89694433 7 71 C6.67 69.35 6.34 67.7 6 66 C4.35 66 2.7 66 1 66 C1 67.65 1 69.3 1 71 C0.34 71 -0.32 71 -1 71 C-1 68.36 -1 65.72 -1 63 C-1.33 63 -1.66 63 -2 63 C-2.33 65.64 -2.66 68.28 -3 71 C-3.99 71 -4.98 71 -6 71 C-6 68.36 -6 65.72 -6 63 C-7.65 63 -9.3 63 -11 63 C-11 65.64 -11 68.28 -11 71 C-11.99 71 -12.98 71 -14 71 C-14.144375 70.071875 -14.28875 69.14375 -14.4375 68.1875 C-14.92100111 64.99274889 -14.92100111 64.99274889 -16 62 C-16.99 61.67 -17.98 61.34 -19 61 C-18.67 59.35 -18.34 57.7 -18 56 C-19.65 56 -21.3 56 -23 56 C-22.835 56.61875 -22.67 57.2375 -22.5 57.875 C-21.79924683 62.25470729 -21.92265749 66.57428989 -22 71 C-22.99 71 -23.98 71 -25 71 C-25 65.39 -25 59.78 -25 54 C-23.02 54 -21.04 54 -19 54 C-18.67 52.68 -18.34 51.36 -18 50 C-19.32 50 -20.64 50 -22 50 C-22.103125 49.05125 -22.20625 48.1025 -22.3125 47.125 C-22.71261523 44.14178789 -23.50443903 41.6223506 -24.5625 38.8125 C-26.21084082 33.53456142 -26.33424691 28.42105423 -26.375 22.9375 C-26.39542358 21.67933472 -26.39542358 21.67933472 -26.41625977 20.39575195 C-26.36669634 13.46162557 -25.56308233 6.56308233 -20.5 1.5 C-14.18689393 -2.28786364 -6.99194536 -1.4342452 0 0 Z " fill="#F5F6FA" transform="translate(105,55)"/>
<path d="M0 0 C-0.33 1.65 -0.66 3.3 -1 5 C-3.08516236 5 -5.17279055 4.98921931 -7.25390625 4.859375 C-8.01574219 4.82328125 -8.77757813 4.7871875 -9.5625 4.75 C-10.32691406 4.70359375 -11.09132813 4.6571875 -11.87890625 4.609375 C-14.12558564 4.81240695 -14.12558564 4.81240695 -15.60766602 6.64404297 C-17.37426748 9.63329496 -17.38751298 11.62494619 -17.3984375 15.0859375 C-17.40230469 16.26414062 -17.40617187 17.44234375 -17.41015625 18.65625 C-17.39855469 19.8834375 -17.38695313 21.110625 -17.375 22.375 C-17.38660156 23.59445313 -17.39820312 24.81390625 -17.41015625 26.0703125 C-17.40628906 27.25109375 -17.40242188 28.431875 -17.3984375 29.6484375 C-17.39505371 30.72270996 -17.39166992 31.79698242 -17.38818359 32.90380859 C-16.94348135 36.45079841 -15.75221096 38.90796537 -14 42 C-9.71 42 -5.42 42 -1 42 C-0.67 42.66 -0.34 43.32 0 44 C0.66 44 1.32 44 2 44 C4.39860736 35.57935714 6.46911425 27.1480288 8.1875 18.5625 C8.35411133 17.73524414 8.52072266 16.90798828 8.69238281 16.05566406 C9.67328894 11.05042437 10.42396854 6.06791312 11 1 C14.3 1 17.6 1 21 1 C21.34611328 2.51013672 21.34611328 2.51013672 21.69921875 4.05078125 C23.54477658 12.03027427 25.49758506 19.96570528 27.625 27.875 C29.41298612 34.53784202 30.9717091 41.17030674 32 48 C28.535 48.495 28.535 48.495 25 49 C25 49.66 25 50.32 25 51 C26.32 51.33 27.64 51.66 29 52 C28.505 52.99 28.505 52.99 28 54 C28.3191623 56.22624593 28.3191623 56.22624593 28.9375 58.625 C29.288125 60.06875 29.63875 61.5125 30 63 C30.99 60.03 31.98 57.06 33 54 C34.32 54 35.64 54 37 54 C37 59.61 37 65.22 37 71 C36.34 71 35.68 71 35 71 C34.67 67.04 34.34 63.08 34 59 C33.34 63.29 32.68 67.58 32 72 C31.34 72 30.68 72 30 72 C29.67 72.66 29.34 73.32 29 74 C23.17510746 73.53789997 17.58525743 72.81339432 11.91015625 71.40234375 C9.83608073 70.89694433 9.83608073 70.89694433 7 71 C6.67 69.35 6.34 67.7 6 66 C4.35 66 2.7 66 1 66 C1 67.65 1 69.3 1 71 C0.34 71 -0.32 71 -1 71 C-1 68.36 -1 65.72 -1 63 C-1.33 63 -1.66 63 -2 63 C-2.33 65.64 -2.66 68.28 -3 71 C-3.99 71 -4.98 71 -6 71 C-6 68.36 -6 65.72 -6 63 C-7.65 63 -9.3 63 -11 63 C-11 65.64 -11 68.28 -11 71 C-11.99 71 -12.98 71 -14 71 C-14.144375 70.071875 -14.28875 69.14375 -14.4375 68.1875 C-14.92100111 64.99274889 -14.92100111 64.99274889 -16 62 C-16.99 61.67 -17.98 61.34 -19 61 C-18.67 59.35 -18.34 57.7 -18 56 C-19.65 56 -21.3 56 -23 56 C-22.835 56.61875 -22.67 57.2375 -22.5 57.875 C-21.79924683 62.25470729 -21.92265749 66.57428989 -22 71 C-22.99 71 -23.98 71 -25 71 C-25 65.39 -25 59.78 -25 54 C-23.02 54 -21.04 54 -19 54 C-18.67 52.68 -18.34 51.36 -18 50 C-19.32 50 -20.64 50 -22 50 C-22.103125 49.05125 -22.20625 48.1025 -22.3125 47.125 C-22.71261523 44.14178789 -23.50443903 41.6223506 -24.5625 38.8125 C-26.21084082 33.53456142 -26.33424691 28.42105423 -26.375 22.9375 C-26.39542358 21.67933472 -26.39542358 21.67933472 -26.41625977 20.39575195 C-26.36669634 13.46162557 -25.56308233 6.56308233 -20.5 1.5 C-14.18689393 -2.28786364 -6.99194536 -1.4342452 0 0 Z " fill="#F9F9FC" transform="translate(105,55)"/>
<path d="M0 0 C2.31 0 4.62 0 7 0 C7 14.19 7 28.38 7 43 C10.3 42.34 13.6 41.68 17 41 C18.32 41 19.64 41 21 41 C21.33 41.66 21.66 42.32 22 43 C24.41706769 36.2855743 26.13360524 29.53615141 27.625 22.5625 C27.8415625 21.58990234 28.058125 20.61730469 28.28125 19.61523438 C29.48850393 14.03727407 30.34800866 8.5724052 30.76708984 2.87866211 C31 1 31 1 32 0 C34.67058851 -0.14115161 37.32432238 -0.04247107 40 0 C41.63183452 4.62496376 42.83639299 9.28737484 43.91015625 14.06640625 C44.16870644 15.20117653 44.16870644 15.20117653 44.43247986 16.35887146 C44.97863026 18.75945277 45.52054544 21.16096839 46.0625 23.5625 C46.43007751 25.17909583 46.7979136 26.7956329 47.16601562 28.41210938 C50.05320915 41.1210257 50.05320915 41.1210257 51 46 C51.99 46.33 52.98 46.66 54 47 C52.35 48.65 50.7 50.3 49 52 C49.99 52.495 49.99 52.495 51 53 C51 55.64 51 58.28 51 61 C51.99 61.495 51.99 61.495 53 62 C52.01 62.495 52.01 62.495 51 63 C51.04125 63.94875 51.0825 64.8975 51.125 65.875 C51 69 51 69 49 71 C45.375 71.125 45.375 71.125 42 71 C41.01 69.02 40.02 67.04 39 65 C38.34 66.32 37.68 67.64 37 69 C38.32 69 39.64 69 41 69 C41 69.66 41 70.32 41 71 C38.69 71 36.38 71 34 71 C33.67 67.04 33.34 63.08 33 59 C32.34 59 31.68 59 31 59 C31.495 64.94 31.495 64.94 32 71 C28.36788342 72.45284663 25.72778521 73.34763759 22 74 C21.071875 74.185625 20.14375 74.37125 19.1875 74.5625 C18.1046875 74.7790625 18.1046875 74.7790625 17 75 C17 73.68 17 72.36 17 71 C15.68 71 14.36 71 13 71 C12.95710245 72.93109581 12.95710245 72.93109581 14 75 C17.48797488 76.79271391 17.48797488 76.79271391 21 78 C20.67 79.65 20.34 81.3 20 83 C16.7 83 13.4 83 10 83 C10 79.04 10 75.08 10 71 C8.68 71 7.36 71 6 71 C6 65.72 6 60.44 6 55 C4.35 55 2.7 55 1 55 C1 59.95 1 64.9 1 70 C0.34 70 -0.32 70 -1 70 C-1 65.38 -1 60.76 -1 56 C-2.32 56 -3.64 56 -5 56 C-4.47381052 53.7198456 -3.85283704 51.62289491 -3 49.4375 C0.00819857 39.09681742 -0.7038568 27.51786903 -0.4375 16.8125 C-0.39420212 15.17642374 -0.3505847 13.54035591 -0.30664062 11.90429688 C-0.20074659 7.93628532 -0.09916477 3.96818519 0 0 Z " fill="#F9FAFA" transform="translate(193,55)"/>
<path d="M0 0 C4.01511743 2.7888254 7.42885653 5.28656959 9 10 C8.34 10.99 7.68 11.98 7 13 C8.65 13.33 10.3 13.66 12 14 C13.00731383 32.2435727 13.00731383 32.2435727 7 39 C4.4887926 41.29240913 1.90623161 43.23777208 -1 45 C-1.59167969 45.37511719 -2.18335938 45.75023437 -2.79296875 46.13671875 C-8.809493 48.49008487 -18.4932844 48.16086969 -24.4375 45.5625 C-29.98675847 42.15037389 -34.45684883 36.89340844 -37.5 31.1875 C-39.52380952 18.28571429 -39.52380952 18.28571429 -36 13 C-35.01 13 -34.02 13 -33 13 C-33.268125 12.278125 -33.53625 11.55625 -33.8125 10.8125 C-34 8 -34 8 -32.0625 5.5 C-21.92454983 -2.77587769 -12.39122126 -5.61813665 0 0 Z " fill="#CECFD0" transform="translate(53,58)"/>
<path d="M0 0 C19 0 19 0 26 4 C29.62320381 9.47441267 29.4344787 16.65710748 29.3125 23 C29.31733398 24.25683594 29.31733398 24.25683594 29.32226562 25.5390625 C29.22144991 37.38032699 29.22144991 37.38032699 27 42 C21 47 21 47 1 47 C0.67 31.49 0.34 15.98 0 0 Z " fill="#31358A" transform="translate(141,55)"/>
<path d="M0 0 C4.01511743 2.7888254 7.42885653 5.28656959 9 10 C8.34 10.99 7.68 11.98 7 13 C8.65 13.33 10.3 13.66 12 14 C13.00731383 32.2435727 13.00731383 32.2435727 7 39 C4.4887926 41.29240913 1.90623161 43.23777208 -1 45 C-1.59167969 45.37511719 -2.18335938 45.75023437 -2.79296875 46.13671875 C-8.809493 48.49008487 -18.4932844 48.16086969 -24.4375 45.5625 C-29.98675847 42.15037389 -34.45684883 36.89340844 -37.5 31.1875 C-39.52380952 18.28571429 -39.52380952 18.28571429 -36 13 C-35.01 13 -34.02 13 -33 13 C-33.268125 12.278125 -33.53625 11.55625 -33.8125 10.8125 C-34 8 -34 8 -32.0625 5.5 C-21.92454983 -2.77587769 -12.39122126 -5.61813665 0 0 Z M-35 14 C-37.44796928 19.47193132 -37.36503569 24.26507734 -36 30 C-33.01238243 36.8715204 -28.05915271 41.88142958 -21.125 44.8125 C-13.61889255 47.30504042 -7.08094032 46.139534 0 43 C5.08985459 39.87668014 8.82898706 34.70820765 10.6328125 28.99609375 C11.55485985 23.98368739 11.22988497 18.91953986 10 14 C3.18440326 13.39146458 -0.70239516 14.64393949 -6 19 C-8.71559302 21.74996762 -10.85637447 24.7845617 -13 28 C-13.30292969 27.46890625 -13.60585938 26.9378125 -13.91796875 26.390625 C-17.47038163 20.40071035 -21.04923348 15.98593329 -28 14 C-30.3320802 13.92353835 -32.66845878 13.90856701 -35 14 Z " fill="#D0D0D1" transform="translate(53,58)"/>
<path d="M0 0 C-0.33 1.65 -0.66 3.3 -1 5 C-3.08516236 5 -5.17279055 4.98921931 -7.25390625 4.859375 C-8.01574219 4.82328125 -8.77757813 4.7871875 -9.5625 4.75 C-10.32691406 4.70359375 -11.09132813 4.6571875 -11.87890625 4.609375 C-14.12558564 4.81240695 -14.12558564 4.81240695 -15.60766602 6.64404297 C-17.37426748 9.63329496 -17.38751298 11.62494619 -17.3984375 15.0859375 C-17.40230469 16.26414062 -17.40617187 17.44234375 -17.41015625 18.65625 C-17.39855469 19.8834375 -17.38695313 21.110625 -17.375 22.375 C-17.38660156 23.59445313 -17.39820312 24.81390625 -17.41015625 26.0703125 C-17.40628906 27.25109375 -17.40242188 28.431875 -17.3984375 29.6484375 C-17.39505371 30.72270996 -17.39166992 31.79698242 -17.38818359 32.90380859 C-16.94348135 36.45079841 -15.75221096 38.90796537 -14 42 C-9.71 42 -5.42 42 -1 42 C-1.33 43.65 -1.66 45.3 -2 47 C-2.93972656 47.14695312 -2.93972656 47.14695312 -3.8984375 47.296875 C-4.71570313 47.44640625 -5.53296875 47.5959375 -6.375 47.75 C-7.18710938 47.88921875 -7.99921875 48.0284375 -8.8359375 48.171875 C-11.17709092 48.81749261 -11.17709092 48.81749261 -12.2890625 51.078125 C-12.52367188 51.71234375 -12.75828125 52.3465625 -13 53 C-12.34 53.33 -11.68 53.66 -11 54 C-11 56.31 -11 58.62 -11 61 C-9.68 61 -8.36 61 -7 61 C-7 58.69 -7 56.38 -7 54 C-6.01 54 -5.02 54 -4 54 C-4 59.61 -4 65.22 -4 71 C-4.66 71 -5.32 71 -6 71 C-6 68.36 -6 65.72 -6 63 C-7.65 63 -9.3 63 -11 63 C-11 65.64 -11 68.28 -11 71 C-11.99 71 -12.98 71 -14 71 C-14.144375 70.071875 -14.28875 69.14375 -14.4375 68.1875 C-14.92100111 64.99274889 -14.92100111 64.99274889 -16 62 C-16.99 61.67 -17.98 61.34 -19 61 C-18.67 59.35 -18.34 57.7 -18 56 C-19.65 56 -21.3 56 -23 56 C-22.835 56.61875 -22.67 57.2375 -22.5 57.875 C-21.79924683 62.25470729 -21.92265749 66.57428989 -22 71 C-22.99 71 -23.98 71 -25 71 C-25 65.39 -25 59.78 -25 54 C-23.02 54 -21.04 54 -19 54 C-18.67 52.68 -18.34 51.36 -18 50 C-19.32 50 -20.64 50 -22 50 C-22.103125 49.05125 -22.20625 48.1025 -22.3125 47.125 C-22.71261523 44.14178789 -23.50443903 41.6223506 -24.5625 38.8125 C-26.21084082 33.53456142 -26.33424691 28.42105423 -26.375 22.9375 C-26.39542358 21.67933472 -26.39542358 21.67933472 -26.41625977 20.39575195 C-26.36669634 13.46162557 -25.56308233 6.56308233 -20.5 1.5 C-14.18689393 -2.28786364 -6.99194536 -1.4342452 0 0 Z " fill="#2B2E8A" transform="translate(105,55)"/>
<path d="M0 0 C0.4640625 1.175625 0.4640625 1.175625 0.9375 2.375 C1.92875038 4.92330128 1.92875038 4.92330128 3 7 C3.66 7 4.32 7 5 7 C5.144375 6.195625 5.28875 5.39125 5.4375 4.5625 C6 2 6 2 7 1 C8.99958364 0.95919217 11.00045254 0.95745644 13 1 C13 1.33 13 1.66 13 2 C11.35 2 9.7 2 8 2 C8.11341534 4.40877257 8.11341534 4.40877257 9 7 C10.2684375 7.7115625 10.2684375 7.7115625 11.5625 8.4375 C12.366875 8.953125 13.17125 9.46875 14 10 C14.4375 13.0625 14.4375 13.0625 14 16 C12 18 12 18 8.375 18.125 C7.26125 18.08375 6.1475 18.0425 5 18 C4.01 16.02 3.02 14.04 2 12 C1.34 13.32 0.68 14.64 0 16 C1.32 16 2.64 16 4 16 C4 16.66 4 17.32 4 18 C1.69 18 -0.62 18 -3 18 C-3.33 14.04 -3.66 10.08 -4 6 C-4.66 6 -5.32 6 -6 6 C-5.67 9.96 -5.34 13.92 -5 18 C-8.63211658 19.45284663 -11.27221479 20.34763759 -15 21 C-15.928125 21.185625 -16.85625 21.37125 -17.8125 21.5625 C-18.534375 21.706875 -19.25625 21.85125 -20 22 C-20 20.68 -20 19.36 -20 18 C-21.32 18 -22.64 18 -24 18 C-24.04289755 19.93109581 -24.04289755 19.93109581 -23 22 C-19.51202512 23.79271391 -19.51202512 23.79271391 -16 25 C-16.33 26.65 -16.66 28.3 -17 30 C-20.3 30 -23.6 30 -27 30 C-27 26.04 -27 22.08 -27 18 C-27.99 18 -28.98 18 -30 18 C-30 12.06 -30 6.12 -30 0 C-29.01 0 -28.02 0 -27 0 C-26.67 1.98 -26.34 3.96 -26 6 C-25.835 5.21625 -25.67 4.4325 -25.5 3.625 C-24 1 -24 1 -20.875 -0.375 C-14.08102985 -1.73884531 -6.84060913 -0.61432655 0 0 Z " fill="#F3F4FA" transform="translate(230,108)"/>
<path d="M0 0 C3.0279691 3.40646524 3 4.0180495 3 9 C15.375 8.505 15.375 8.505 28 8 C27.34 9.32 26.68 10.64 26 12 C25.01 12.33 24.02 12.66 23 13 C23.99 13.33 24.98 13.66 26 14 C26 14.99 26 15.98 26 17 C24.35 17.33 22.7 17.66 21 18 C21 21.96 21 25.92 21 30 C22.65 30.33 24.3 30.66 26 31 C25.67 31.66 25.34 32.32 25 33 C20.70894191 34.09771253 17.30788144 33.92311745 13 33 C12.67 31.68 12.34 30.36 12 29 C10.68 29 9.36 29 8 29 C7.67 30.32 7.34 31.64 7 33 C5.68 33 4.36 33 3 33 C3 27.39 3 21.78 3 16 C1.68 16 0.36 16 -1 16 C-1.66 19.3 -2.32 22.6 -3 26 C-3.66 25.67 -4.32 25.34 -5 25 C-5.39310414 22.67711188 -5.50749695 20.38154824 -5.65625 18.03125 C-5.7696875 17.3609375 -5.883125 16.690625 -6 16 C-6.66 15.67 -7.32 15.34 -8 15 C-7.67 14.67 -7.34 14.34 -7 14 C-8.32 13.34 -9.64 12.68 -11 12 C-9 10 -9 10 -5.375 9.875 C-3.704375 9.936875 -3.704375 9.936875 -2 10 C-2.66 7.69 -3.32 5.38 -4 3 C-2.68 3 -1.36 3 0 3 C0 2.01 0 1.02 0 0 Z " fill="#F1F5F8" transform="translate(139,93)"/>
<path d="M0 0 C2.05078125 0.03255208 4.1015625 0.06510417 6.15234375 0.09765625 C7.7788677 4.71162716 8.98688461 9.36252079 10.0625 14.12890625 C10.23486679 14.8830481 10.40723358 15.63718994 10.58482361 16.41418457 C10.94673037 18.00057007 11.30718518 19.58728745 11.66625977 21.17431641 C12.213339 23.59100909 12.76548138 26.00650309 13.31835938 28.421875 C13.67087312 29.96998376 14.02309642 31.51815868 14.375 33.06640625 C14.53855484 33.78219849 14.70210968 34.49799072 14.87062073 35.23547363 C15.75930668 39.17410787 16.53120626 43.10802737 17.15234375 47.09765625 C14.84234375 47.09765625 12.53234375 47.09765625 10.15234375 47.09765625 C9.16234375 43.13765625 8.17234375 39.17765625 7.15234375 35.09765625 C3.52234375 34.76765625 -0.10765625 34.43765625 -3.84765625 34.09765625 C-3.51765625 33.10765625 -3.18765625 32.11765625 -2.84765625 31.09765625 C0.12234375 31.09765625 3.09234375 31.09765625 6.15234375 31.09765625 C5.73662109 29.43476562 5.73662109 29.43476562 5.3125 27.73828125 C3.92578125 22.19140625 2.5390625 16.64453125 1.15234375 11.09765625 C-2.63662741 22.90795996 -4.78483276 34.88985357 -6.84765625 47.09765625 C-8.49765625 47.09765625 -10.14765625 47.09765625 -11.84765625 47.09765625 C-11.61054932 46.05947754 -11.37344238 45.02129883 -11.12915039 43.95166016 C-10.24154638 40.05784472 -9.3619486 36.16225538 -8.48461914 32.26611328 C-8.1055779 30.5878933 -7.72443733 28.91014592 -7.34106445 27.23291016 C-5.34919188 18.51229984 -3.55498518 10.0332799 -2.84765625 1.09765625 C-1.84765625 0.09765625 -1.84765625 0.09765625 0 0 Z " fill="#39357F" transform="translate(226.84765625,54.90234375)"/>
<path d="M0 0 C3.8306638 0.04111625 3.8306638 0.04111625 6.0625 1.625 C9.43913983 6.78927268 8.35119552 13.07864902 8.375 19.0625 C8.395625 20.34705078 8.41625 21.63160156 8.4375 22.95507812 C8.44265625 24.19322266 8.4478125 25.43136719 8.453125 26.70703125 C8.46714355 28.4082312 8.46714355 28.4082312 8.48144531 30.14379883 C8.08414761 33.60600337 7.19401035 35.47295491 5.125 38.25 C2.14287087 39.74106457 -0.59109658 39.36941467 -3.875 39.25 C-5.69065436 37.43434564 -5.00361899 34.93730038 -5.01394653 32.52111816 C-5.0119223 31.72008667 -5.00989807 30.91905518 -5.0078125 30.09375 C-5.00876923 29.27628296 -5.00972595 28.45881592 -5.01071167 27.61657715 C-5.01139345 25.88484622 -5.00953929 24.15311276 -5.00537109 22.42138672 C-5.00002279 19.76133518 -5.00531612 17.1014525 -5.01171875 14.44140625 C-5.01105797 12.76302046 -5.0097768 11.08463477 -5.0078125 9.40625 C-5.00983673 8.60521851 -5.01186096 7.80418701 -5.01394653 6.97888184 C-4.98549136 0.3216446 -4.98549136 0.3216446 0 0 Z " fill="#F2F3F9" transform="translate(153.875,59.75)"/>
<path d="M0 0 C4.01511743 2.7888254 7.42885653 5.28656959 9 10 C8.34 10.99 7.68 11.98 7 13 C8.65 13.33 10.3 13.66 12 14 C13.00731383 32.2435727 13.00731383 32.2435727 7 39 C4.4887926 41.29240913 1.90623161 43.23777208 -1 45 C-1.59167969 45.37511719 -2.18335938 45.75023437 -2.79296875 46.13671875 C-8.809493 48.49008487 -18.4932844 48.16086969 -24.4375 45.5625 C-29.98675847 42.15037389 -34.45684883 36.89340844 -37.5 31.1875 C-39.52380952 18.28571429 -39.52380952 18.28571429 -36 13 C-35.01 13 -34.02 13 -33 13 C-33.268125 12.278125 -33.53625 11.55625 -33.8125 10.8125 C-34 8 -34 8 -32.0625 5.5 C-21.92454983 -2.77587769 -12.39122126 -5.61813665 0 0 Z M-30 6.25 C-30.66 7.1575 -31.32 8.065 -32 9 C-31.35933594 9.268125 -30.71867187 9.53625 -30.05859375 9.8125 C-23.38103453 12.83780254 -19.49522831 16.30047975 -15 22 C-14.01489726 23.01467857 -13.01958733 24.01997874 -12 25 C-11.46375 23.948125 -10.9275 22.89625 -10.375 21.8125 C-6.17832627 14.5743345 -0.78973305 12.1291937 7 10 C4.55329475 4.69696011 0.60126261 1.69790618 -4.8515625 -0.45703125 C-14.4047994 -2.87139476 -23.51766833 -1.36989963 -30 6.25 Z M-35 14 C-37.44796928 19.47193132 -37.36503569 24.26507734 -36 30 C-33.01238243 36.8715204 -28.05915271 41.88142958 -21.125 44.8125 C-13.61889255 47.30504042 -7.08094032 46.139534 0 43 C5.08985459 39.87668014 8.82898706 34.70820765 10.6328125 28.99609375 C11.55485985 23.98368739 11.22988497 18.91953986 10 14 C3.18440326 13.39146458 -0.70239516 14.64393949 -6 19 C-8.71559302 21.74996762 -10.85637447 24.7845617 -13 28 C-13.30292969 27.46890625 -13.60585938 26.9378125 -13.91796875 26.390625 C-17.47038163 20.40071035 -21.04923348 15.98593329 -28 14 C-30.3320802 13.92353835 -32.66845878 13.90856701 -35 14 Z " fill="#191A1A" transform="translate(53,58)"/>
<path d="M0 0 C3.3 0 6.6 0 10 0 C10.19916016 1.30324219 10.19916016 1.30324219 10.40234375 2.6328125 C10.57894531 3.78523438 10.75554687 4.93765625 10.9375 6.125 C11.11152344 7.26195312 11.28554687 8.39890625 11.46484375 9.5703125 C12.25799694 15.27766103 12.25799694 15.27766103 13.5625 20.875 C14.25655536 24.24612603 14.0572704 27.5637757 14 31 C13.01 31 12.02 31 11 31 C10.67 31.66 10.34 32.32 10 33 C6.33333333 33 2.66666667 33 -1 33 C-0.67 32.01 -0.34 31.02 0 30 C3.3 30 6.6 30 10 30 C9.6390625 28.73542969 9.278125 27.47085938 8.90625 26.16796875 C8.43729561 24.50787022 7.96855682 22.84771078 7.5 21.1875 C7.14228516 19.93743164 7.14228516 19.93743164 6.77734375 18.66210938 C6.55175781 17.85966797 6.32617188 17.05722656 6.09375 16.23046875 C5.88427734 15.49207764 5.67480469 14.75368652 5.45898438 13.99291992 C5 12 5 12 5 9 C4.34 9 3.68 9 3 9 C2.90203125 9.680625 2.8040625 10.36125 2.703125 11.0625 C1.75546117 17.20597588 0.50472803 23.17884956 -1.0625 29.1875 C-2.52281111 34.79509465 -3.5867162 40.21402686 -4 46 C-6.475 46.495 -6.475 46.495 -9 47 C-7.32432988 37.30939257 -5.24049938 27.72130533 -3.12304688 18.11914062 C-1.81021153 12.08533628 -0.61994105 6.14583534 0 0 Z " fill="#323297" transform="translate(116,56)"/>
<path d="M0 0 C2.31 0 4.62 0 7 0 C7 14.19 7 28.38 7 43 C10.96 43 14.92 43 19 43 C18.67 44.32 18.34 45.64 18 47 C12.06 47 6.12 47 0 47 C0 31.49 0 15.98 0 0 Z " fill="#333585" transform="translate(193,55)"/>
<path d="M0 0 C2.31 0 4.62 0 7 0 C7.33 15.51 7.66 31.02 8 47 C5.36 47 2.72 47 0 47 C0 31.49 0 15.98 0 0 Z " fill="#2D3192" transform="translate(177,56)"/>
<path d="M0 0 C0.66 0 1.32 0 2 0 C2.83806616 2.93622464 3.67062444 5.87382067 4.5 8.8125 C4.73847656 9.64587891 4.97695312 10.47925781 5.22265625 11.33789062 C5.44824219 12.14033203 5.67382812 12.94277344 5.90625 13.76953125 C6.11572266 14.50792236 6.32519531 15.24631348 6.54101562 16.00708008 C7 18 7 18 7 21 C3.7 21 0.4 21 -3 21 C-3 21.66 -3 22.32 -3 23 C0.55671096 23.08083434 3.57417939 22.91355216 7 22 C8.32 22 9.64 22 11 22 C10.86722656 21.20335938 10.73445312 20.40671875 10.59765625 19.5859375 C9.73177083 14.390625 8.86588542 9.1953125 8 4 C8.66 4 9.32 4 10 4 C10.96539931 7.60231079 11.92097222 11.20716244 12.875 14.8125 C13.14441406 15.81732422 13.41382813 16.82214844 13.69140625 17.85742188 C15.45054179 24.52926521 16.87234922 31.19292179 18 38 C15.36 38 12.72 38 10 38 C9.66127487 36.58461283 9.32925376 35.16762037 9 33.75 C8.814375 32.96109375 8.62875 32.1721875 8.4375 31.359375 C8 29 8 29 8 25 C3.71 25 -0.58 25 -5 25 C-4.37392048 19.20052651 -3.32599062 13.66190169 -1.9375 8 C-1.75123047 7.22527344 -1.56496094 6.45054688 -1.37304688 5.65234375 C-0.91923822 3.76729241 -0.46017508 1.8835073 0 0 Z " fill="#3C3E8C" transform="translate(119,65)"/>
<path d="M0 0 C2.64 0 5.28 0 8 0 C8 0.33 8 0.66 8 1 C6.35 1 4.7 1 3 1 C3 2.65 3 4.3 3 6 C4.65 6 6.3 6 8 6 C8 6.66 8 7.32 8 8 C7.01 8.495 7.01 8.495 6 9 C6.66 10.32 7.32 11.64 8 13 C8.33 13 8.66 13 9 13 C9.33 8.71 9.66 4.42 10 0 C10.99 0 11.98 0 13 0 C13 4.95 13 9.9 13 15 C14.32 15 15.64 15 17 15 C17 10.05 17 5.1 17 0 C17.99 0 18.98 0 20 0 C20.08117951 2.41734542 20.14056926 4.83194949 20.1875 7.25 C20.21263672 7.93191406 20.23777344 8.61382812 20.26367188 9.31640625 C20.30912342 12.43741244 20.16211347 14.68079205 18.73828125 17.484375 C17 19 17 19 13 19 C13.66 20.32 14.32 21.64 15 23 C14 24 14 24 11.4375 24.0625 C10.633125 24.041875 9.82875 24.02125 9 24 C9 25.98 9 27.96 9 30 C8.01 30 7.02 30 6 30 C6 28.02 6 26.04 6 24 C5.01 23.67 4.02 23.34 3 23 C3.66 21.35 4.32 19.7 5 18 C3.35 17.67 1.7 17.34 0 17 C0 11.39 0 5.78 0 0 Z " fill="#F5F5F9" transform="translate(167,109)"/>
<path d="M0 0 C0.66 0 1.32 0 2 0 C3.14384489 4.50122738 4.2830497 9.00359388 5.41796875 13.50708008 C5.80471497 15.03897796 6.19272764 16.57055668 6.58203125 18.10180664 C7.14135594 20.30272078 7.69611752 22.50474211 8.25 24.70703125 C8.42499023 25.39150833 8.59998047 26.07598541 8.78027344 26.78120422 C9.48741106 29.60875429 10 32.07154001 10 35 C7.69 35 5.38 35 3 35 C2.01 31.04 1.02 27.08 0 23 C-3.63 22.67 -7.26 22.34 -11 22 C-10.505 20.515 -10.505 20.515 -10 19 C-7.03 19 -4.06 19 -1 19 C-1.22816406 18.02417969 -1.45632812 17.04835938 -1.69140625 16.04296875 C-1.97886719 14.77066406 -2.26632813 13.49835938 -2.5625 12.1875 C-2.85253906 10.92292969 -3.14257812 9.65835938 -3.44140625 8.35546875 C-4 5 -4 5 -3 2 C-2.34 2.33 -1.68 2.66 -1 3 C-0.67 2.01 -0.34 1.02 0 0 Z " fill="#252972" transform="translate(234,67)"/>
<path d="M0 0 C0.33 0 0.66 0 1 0 C1 3.96 1 7.92 1 12 C6.94 12 12.88 12 19 12 C19.33 10.68 19.66 9.36 20 8 C19.01 8.33 18.02 8.66 17 9 C14.66700175 9.03954234 12.33291811 9.04401732 10 9 C10 8.67 10 8.34 10 8 C11.2375 7.67 12.475 7.34 13.75 7 C14.79414063 6.7215625 14.79414063 6.7215625 15.859375 6.4375 C18 6 18 6 22 6 C23.25 8.125 23.25 8.125 24 11 C22.875 14.25 22.875 14.25 20 17 C15.92290495 17.83272233 12.19315252 17.90884451 8 18 C8 23.94 8 29.88 8 36 C7.67 36 7.34 36 7 36 C7 30.72 7 25.44 7 20 C5.35 20 3.7 20 2 20 C2 24.95 2 29.9 2 35 C1.34 35 0.68 35 0 35 C0 30.38 0 25.76 0 21 C-1.32 21 -2.64 21 -4 21 C-3.47381052 18.7198456 -2.85283704 16.62289491 -2 14.4375 C-0.61545778 9.6781361 -0.33337763 4.93047964 0 0 Z " fill="#F4F4FA" transform="translate(192,90)"/>
<path d="M0 0 C3.63 1.65 7.26 3.3 11 5 C10.34 6.32 9.68 7.64 9 9 C9.66 9.33 10.32 9.66 11 10 C11 12.31 11 14.62 11 17 C12.32 17 13.64 17 15 17 C15 14.69 15 12.38 15 10 C15.99 10 16.98 10 18 10 C18 15.61 18 21.22 18 27 C17.34 27 16.68 27 16 27 C16 24.36 16 21.72 16 19 C14.35 19 12.7 19 11 19 C11 21.64 11 24.28 11 27 C10.01 27 9.02 27 8 27 C7.7834375 25.6078125 7.7834375 25.6078125 7.5625 24.1875 C7.07899889 20.99274889 7.07899889 20.99274889 6 18 C5.01 17.67 4.02 17.34 3 17 C3.33 15.35 3.66 13.7 4 12 C2.35 12 0.7 12 -1 12 C-0.835 12.61875 -0.67 13.2375 -0.5 13.875 C0.20075317 18.25470729 0.07734251 22.57428989 0 27 C-0.99 27 -1.98 27 -3 27 C-3 21.39 -3 15.78 -3 10 C-1.02 10 0.96 10 3 10 C3.33 8.68 3.66 7.36 4 6 C2.68 6 1.36 6 0 6 C0 4.02 0 2.04 0 0 Z " fill="#EFF0F9" transform="translate(83,99)"/>
<path d="M0 0 C0.99 0 1.98 0 3 0 C3.33 1.98 3.66 3.96 4 6 C4.66 4.35 5.32 2.7 6 1 C8.64 1 11.28 1 14 1 C13.34 1.66 12.68 2.32 12 3 C10.68 2.67 9.36 2.34 8 2 C8 6.29 8 10.58 8 15 C9.65 15.33 11.3 15.66 13 16 C12.67 16.66 12.34 17.32 12 18 C10.02 18 8.04 18 6 18 C5.95710245 19.93109581 5.95710245 19.93109581 7 22 C10.48797488 23.79271391 10.48797488 23.79271391 14 25 C13.67 26.65 13.34 28.3 13 30 C9.7 30 6.4 30 3 30 C3 26.04 3 22.08 3 18 C2.01 18 1.02 18 0 18 C0 12.06 0 6.12 0 0 Z " fill="#8180AA" transform="translate(200,108)"/>
<path d="M0 0 C0.33 0.66 0.66 1.32 1 2 C1.515625 1.835 2.03125 1.67 2.5625 1.5 C5.73363876 0.84951 8.77218334 0.9379266 12 1 C12 1.33 12 1.66 12 2 C10.35 2.33 8.7 2.66 7 3 C7 6.96 7 10.92 7 15 C9.475 15.495 9.475 15.495 12 16 C11.67 16.66 11.34 17.32 11 18 C6.70894191 19.09771253 3.30788144 18.92311745 -1 18 C-1.33 16.68 -1.66 15.36 -2 14 C-3.32 14 -4.64 14 -6 14 C-6.33 15.32 -6.66 16.64 -7 18 C-7.66 17.67 -8.32 17.34 -9 17 C-8.38490238 14.35149716 -7.75850592 11.70660095 -7.125 9.0625 C-6.95097656 8.30775391 -6.77695313 7.55300781 -6.59765625 6.77539062 C-6.12755935 4.83406455 -5.5695703 2.91450456 -5 1 C-3 0 -3 0 0 0 Z " fill="#E9EDF8" transform="translate(153,108)"/>
<path d="M0 0 C0.99 0 1.98 0 3 0 C4 2 5 4 6 6 C6.66 6 7.32 6 8 6 C8.144375 5.195625 8.28875 4.39125 8.4375 3.5625 C9 1 9 1 10 0 C11.99958364 -0.04080783 14.00045254 -0.04254356 16 0 C16 0.33 16 0.66 16 1 C14.35 1 12.7 1 11 1 C11.11341534 3.40877257 11.11341534 3.40877257 12 6 C12.845625 6.474375 13.69125 6.94875 14.5625 7.4375 C15.366875 7.953125 16.17125 8.46875 17 9 C17.4375 12.0625 17.4375 12.0625 17 15 C15 17 15 17 11.375 17.125 C10.26125 17.08375 9.1475 17.0425 8 17 C7.01 15.02 6.02 13.04 5 11 C4.34 12.32 3.68 13.64 3 15 C4.32 15 5.64 15 7 15 C7 15.66 7 16.32 7 17 C4.69 17 2.38 17 0 17 C0 11.39 0 5.78 0 0 Z " fill="#FAFBFD" transform="translate(227,109)"/>
<path d="M0 0 C-0.33 1.65 -0.66 3.3 -1 5 C-3.07304916 5 -5.146741 4.99534976 -7.21875 4.9296875 C-7.9715625 4.91164063 -8.724375 4.89359375 -9.5 4.875 C-10.2528125 4.85179687 -11.005625 4.82859375 -11.78125 4.8046875 C-15.40256092 5.12346487 -17.46000619 6.46000619 -20 9 C-20.66 9 -21.32 9 -22 9 C-23.28605661 11.57211322 -23.21043941 13.56906966 -23.31640625 16.4453125 C-23.35830078 17.52167969 -23.40019531 18.59804687 -23.44335938 19.70703125 C-23.50233398 21.39892578 -23.50233398 21.39892578 -23.5625 23.125 C-23.60568359 24.26066406 -23.64886719 25.39632812 -23.69335938 26.56640625 C-23.7996604 29.37747768 -23.90169405 32.18863945 -24 35 C-26.83222541 32.16777459 -26.29015483 30.02802682 -26.32226562 26.15429688 C-26.31904297 25.25775391 -26.31582031 24.36121094 -26.3125 23.4375 C-26.32861328 22.56802734 -26.34472656 21.69855469 -26.36132812 20.80273438 C-26.3657879 14.82217359 -25.61977342 9.4373063 -23 4 C-16.50853292 -2.49146708 -8.47811096 -1.73909968 0 0 Z " fill="#3D4089" transform="translate(105,55)"/>
<path d="M0 0 C0.66 0.33 1.32 0.66 2 1 C2.80756296 3.60836941 3.49859053 6.16069989 4.125 8.8125 C4.30675781 9.53759766 4.48851562 10.26269531 4.67578125 11.00976562 C5.51633726 14.46362921 6 17.42575854 6 21 C3.03 21 0.06 21 -3 21 C-3 21.66 -3 22.32 -3 23 C-2.01 23.66 -1.02 24.32 0 25 C-0.66 25 -1.32 25 -2 25 C-2.66 27.31 -3.32 29.62 -4 32 C-4.66 32 -5.32 32 -6 32 C-6.33 32.66 -6.66 33.32 -7 34 C-6.36624893 26.43509803 -4.76765871 19.2963516 -2.9375 11.9375 C-2.65583984 10.78572266 -2.37417969 9.63394531 -2.08398438 8.44726562 C-1.39433819 5.6302363 -0.69957333 2.81457733 0 0 Z " fill="#EEF0F7" transform="translate(227,65)"/>
<path d="M0 0 C0.99 0 1.98 0 3 0 C3 2.31 3 4.62 3 7 C2.34 7 1.68 7 1 7 C0.90203125 7.680625 0.8040625 8.36125 0.703125 9.0625 C-0.24453883 15.20597588 -1.49527197 21.17884956 -3.0625 27.1875 C-4.52281111 32.79509465 -5.5867162 38.21402686 -6 44 C-8.475 44.495 -8.475 44.495 -11 45 C-9.53307797 36.4911689 -7.79630629 28.04535685 -5.96826172 19.6081543 C-5.65276498 18.14565089 -5.34065819 16.68241258 -5.03173828 15.21850586 C-4.58045714 13.08024772 -4.11952193 10.94428179 -3.65625 8.80859375 C-3.25116211 6.91838501 -3.25116211 6.91838501 -2.83789062 4.98999023 C-2 2 -2 2 0 0 Z " fill="#31337D" transform="translate(118,58)"/>
<path d="M0 0 C0.66 0 1.32 0 2 0 C2.83806616 2.93622464 3.67062444 5.87382067 4.5 8.8125 C4.73847656 9.64587891 4.97695312 10.47925781 5.22265625 11.33789062 C5.44824219 12.14033203 5.67382812 12.94277344 5.90625 13.76953125 C6.11572266 14.50792236 6.32519531 15.24631348 6.54101562 16.00708008 C7 18 7 18 7 21 C3.7 21 0.4 21 -3 21 C-3.33 21.99 -3.66 22.98 -4 24 C-5.12670431 20.61988706 -4.84431821 19.49542694 -4.00390625 16.11328125 C-3.66069336 14.7065918 -3.66069336 14.7065918 -3.31054688 13.27148438 C-3.06369141 12.29501953 -2.81683594 11.31855469 -2.5625 10.3125 C-2.31951172 9.32443359 -2.07652344 8.33636719 -1.82617188 7.31835938 C-1.22468137 4.87701555 -0.61569994 2.43779191 0 0 Z " fill="#EBECF9" transform="translate(119,65)"/>
<path d="M0 0 C0.33 0 0.66 0 1 0 C1.495 6.93 1.495 6.93 2 14 C2.99 14.33 3.98 14.66 5 15 C6.16159627 17.50189966 6.04490036 18.82039858 5.375 21.5 C3.58275153 24.75863358 2.20712553 26.05032982 -1 28 C-4.45226915 28.484529 -7.83522238 28.37778688 -11.3125 28.25 C-12.24384766 28.23195313 -13.17519531 28.21390625 -14.13476562 28.1953125 C-16.42424197 28.14834888 -18.71158184 28.08269475 -21 28 C-20.67 27.34 -20.34 26.68 -20 26 C-18.865625 26.0825 -17.73125 26.165 -16.5625 26.25 C-11.47856027 26.21375088 -7.1245919 25.04558474 -3 22 C-1.61477923 18.88325327 -1.25040028 17.29526763 -1 14 C-0.89429688 12.80117187 -0.78859375 11.60234375 -0.6796875 10.3671875 C-0.40749486 6.91243472 -0.18468379 3.46039096 0 0 Z " fill="#272E84" transform="translate(163,74)"/>
<path d="M0 0 C1.20076172 -0.00386719 2.40152344 -0.00773437 3.63867188 -0.01171875 C5.37407227 -0.00978516 5.37407227 -0.00978516 7.14453125 -0.0078125 C8.18585205 -0.00668457 9.22717285 -0.00555664 10.30004883 -0.00439453 C13.03581531 0.1182026 15.52404866 0.50792983 18.1875 1.125 C18.1875 1.455 18.1875 1.785 18.1875 2.125 C17.07713379 2.15005615 15.96676758 2.1751123 14.82275391 2.20092773 C10.71146681 2.29494915 6.60035077 2.39518257 2.48925781 2.49731445 C0.70837397 2.5406833 -1.07255198 2.58235694 -2.85351562 2.62231445 C-5.41028548 2.6799699 -7.96684298 2.7436777 -10.5234375 2.80859375 C-11.32244476 2.82530624 -12.12145203 2.84201874 -12.94467163 2.85923767 C-17.01056368 2.87892991 -17.01056368 2.87892991 -20.8125 4.125 C-7.6125 4.125 5.5875 4.125 19.1875 4.125 C19.1875 3.465 19.1875 2.805 19.1875 2.125 C20.1775 2.125 21.1675 2.125 22.1875 2.125 C21.8575 3.115 21.5275 4.105 21.1875 5.125 C15.99369839 6.17640244 10.97789262 6.30204594 5.703125 6.328125 C4.80632019 6.33382507 3.90951538 6.33952515 2.98553467 6.34539795 C1.09958056 6.35480574 -0.78638968 6.36136505 -2.67236328 6.36523438 C-5.56701594 6.37501526 -8.46098017 6.40610748 -11.35546875 6.4375 C-13.19009996 6.44402352 -15.02473623 6.44927654 -16.859375 6.453125 C-17.72705505 6.4654718 -18.59473511 6.4778186 -19.4887085 6.49053955 C-21.91699219 6.48144531 -21.91699219 6.48144531 -25.8125 6.125 C-26.4725 5.135 -27.1325 4.145 -27.8125 3.125 C-19.71541197 -1.3857275 -8.97711232 -0.02938498 0 0 Z " fill="#2D2D2D" transform="translate(42.8125,119.875)"/>
<path d="M0 0 C0.33 0.66 0.66 1.32 1 2 C2.134375 2.020625 3.26875 2.04125 4.4375 2.0625 C10.78029876 2.65785295 14.82256359 7.58512493 19 12 C21.00868296 14.44397318 21.98885303 15.9665591 23 19 C22.34 19.66 21.68 20.32 21 21 C20.61328125 20.38511719 20.2265625 19.77023438 19.828125 19.13671875 C19.30734375 18.32847656 18.7865625 17.52023438 18.25 16.6875 C17.73953125 15.88699219 17.2290625 15.08648437 16.703125 14.26171875 C13.84016602 10.45976175 10.53567656 8.37125105 6 7 C3.6679198 6.92353835 1.33154122 6.90856701 -1 7 C-2.37481849 14.86037526 -2.30265633 21.07465708 2 28 C4.15026605 30.30188737 6.41104987 32.21100637 9 34 C7.515 34.495 7.515 34.495 6 35 C-1.77044731 26.86813654 -4.20882412 21.99620532 -4.265625 10.70703125 C-4 8 -4 8 -2 5 C-1.01 5 -0.02 5 1 5 C0.67 3.35 0.34 1.7 0 0 Z " fill="#0F1010" transform="translate(19,66)"/>
<path d="M0 0 C2.29013653 3.4352048 2.17842973 4.985331 2 9 C5.3 8.67 8.6 8.34 12 8 C10.35 9.98 8.7 11.96 7 14 C7.66 14.33 8.32 14.66 9 15 C9 17.64 9 20.28 9 23 C9.66 23.33 10.32 23.66 11 24 C7.625 23.75 7.625 23.75 4 23 C2.3905664 20.83076342 2 19.68076871 2 17 C1.34 17.33 0.68 17.66 0 18 C-0.12375 17.38125 -0.2475 16.7625 -0.375 16.125 C-0.87197356 13.80879168 -0.87197356 13.80879168 -3 12 C-2.01 10.68 -1.02 9.36 0 8 C-0.66 6.68 -1.32 5.36 -2 4 C-1.34 4 -0.68 4 0 4 C0 2.68 0 1.36 0 0 Z " fill="#E5E7F2" transform="translate(235,93)"/>
<path d="M0 0 C1.32 0 2.64 0 4 0 C4.66 2.97 5.32 5.94 6 9 C6.99 6.03 7.98 3.06 9 0 C10.32 0 11.64 0 13 0 C13 5.61 13 11.22 13 17 C12.34 17 11.68 17 11 17 C10.67 13.04 10.34 9.08 10 5 C9.01 8.96 8.02 12.92 7 17 C6.01 17 5.02 17 4 17 C3.34 13.7 2.68 10.4 2 7 C1.67 10.3 1.34 13.6 1 17 C0.67 17 0.34 17 0 17 C0 11.39 0 5.78 0 0 Z " fill="#2C2A71" transform="translate(129,109)"/>
<path d="M0 0 C2.05078125 0.03255208 4.1015625 0.06510417 6.15234375 0.09765625 C7.57117335 4.07037912 8.87061324 7.87169865 9.15234375 12.09765625 C7.96484375 13.97265625 7.96484375 13.97265625 6.15234375 15.09765625 C4.83234375 15.09765625 3.51234375 15.09765625 2.15234375 15.09765625 C0.89569397 12.19165364 0.15234375 10.30161041 0.15234375 7.09765625 C-0.83765625 7.09765625 -1.82765625 7.09765625 -2.84765625 7.09765625 C-2.89019981 5.09810879 -2.88846408 3.09723989 -2.84765625 1.09765625 C-1.84765625 0.09765625 -1.84765625 0.09765625 0 0 Z " fill="#31338D" transform="translate(226.84765625,54.90234375)"/>
<path d="M0 0 C-0.66 0 -1.32 0 -2 0 C-2 0.66 -2 1.32 -2 2 C-6.34636133 3.06507632 -10.59025375 3.1611903 -15.0390625 3.16796875 C-15.80173431 3.17129715 -16.56440613 3.17462555 -17.35018921 3.17805481 C-18.95545857 3.18309921 -20.56073834 3.18546391 -22.16601562 3.18530273 C-24.62387155 3.18749899 -27.08128528 3.20570717 -29.5390625 3.22460938 C-31.10156097 3.22754185 -32.66406156 3.22952762 -34.2265625 3.23046875 C-34.96097565 3.23765427 -35.69538879 3.24483978 -36.45205688 3.25224304 C-40.1884197 3.23544577 -41.80852566 3.12764956 -45 1 C-40.52950211 -0.08466355 -36.09965377 -0.23422057 -31.5234375 -0.3515625 C-30.31284164 -0.38629166 -30.31284164 -0.38629166 -29.07778931 -0.42172241 C-27.37841593 -0.46918244 -25.6789797 -0.51443719 -23.97949219 -0.55761719 C-21.37669817 -0.62495607 -18.77435155 -0.70268467 -16.171875 -0.78125 C-14.51824608 -0.82614825 -12.86460056 -0.87044 -11.2109375 -0.9140625 C-10.43277679 -0.93796051 -9.65461609 -0.96185852 -8.85287476 -0.98648071 C-5.60793067 -1.06204315 -3.10540717 -1.03513572 0 0 Z " fill="#B9B9B9" transform="translate(64,122)"/>
<path d="M0 0 C0.33 0.99 0.66 1.98 1 3 C1.66 3 2.32 3 3 3 C3.33 2.01 3.66 1.02 4 0 C5.72509924 6.67626991 6.25620222 12.68447571 6.125 19.5625 C6.11597656 20.47580078 6.10695312 21.38910156 6.09765625 22.33007812 C6.07437253 24.55367319 6.0416771 26.77668677 6 29 C5.67 29 5.34 29 5 29 C4.67 27.35 4.34 25.7 4 24 C3.34 25.32 2.68 26.64 2 28 C0.03013608 26.03013608 0.58659118 22.32639745 0.4375 19.625 C0.3950415 18.90634766 0.35258301 18.18769531 0.30883789 17.44726562 C-0.01361902 11.62876745 -0.1111105 5.82712825 0 0 Z " fill="#272D87" transform="translate(193,61)"/>
<path d="M0 0 C2.64 0 5.28 0 8 0 C9 1 9 1 9.125 3.875 C9 7 9 7 8 10 C8.59793673 12.35188447 9.25881795 14.68925595 10 17 C8.68 16.67 7.36 16.34 6 16 C5.67 13.69 5.34 11.38 5 9 C4.01 9 3.02 9 2 9 C2 11.64 2 14.28 2 17 C1.34 17 0.68 17 0 17 C0 11.39 0 5.78 0 0 Z " fill="#373474" transform="translate(117,109)"/>
<path d="M0 0 C0.33 0 0.66 0 1 0 C1 3.96 1 7.92 1 12 C6.94 12 12.88 12 19 12 C19.33 11.34 19.66 10.68 20 10 C20.33 10.99 20.66 11.98 21 13 C12.585 13.495 12.585 13.495 4 14 C3.34 15.32 2.68 16.64 2 18 C3.32 18 4.64 18 6 18 C6 18.66 6 19.32 6 20 C4.68 20 3.36 20 2 20 C2 24.95 2 29.9 2 35 C1.34 35 0.68 35 0 35 C0 30.38 0 25.76 0 21 C-1.32 21 -2.64 21 -4 21 C-3.47381052 18.7198456 -2.85283704 16.62289491 -2 14.4375 C-0.61545778 9.6781361 -0.33337763 4.93047964 0 0 Z " fill="#8889B4" transform="translate(192,90)"/>
<path d="M0 0 C0.66 0 1.32 0 2 0 C4.5964646 7.4683256 5.36809386 12.39717234 3 20 C1.68 20.33 0.36 20.66 -1 21 C-1.53010201 18.39740876 -2.04937795 15.793443 -2.5625 13.1875 C-2.78969727 12.08051758 -2.78969727 12.08051758 -3.02148438 10.95117188 C-4.11328125 5.33984375 -4.11328125 5.33984375 -3 2 C-2.34 2.33 -1.68 2.66 -1 3 C-0.67 2.01 -0.34 1.02 0 0 Z " fill="#333587" transform="translate(234,67)"/>
<path d="M0 0 C0.33 0 0.66 0 1 0 C1.12375 0.78375 1.2475 1.5675 1.375 2.375 C1.79117993 5.14057822 1.79117993 5.14057822 4 7 C4.4140625 9.3828125 4.4140625 9.3828125 4.625 12.125 C4.69976562 13.03507812 4.77453125 13.94515625 4.8515625 14.8828125 C4.90054688 15.58148438 4.94953125 16.28015625 5 17 C5.99 17 6.98 17 8 17 C8.33 16.01 8.66 15.02 9 14 C9 15.32 9 16.64 9 18 C8.34 18 7.68 18 7 18 C6.67 18.66 6.34 19.32 6 20 C-4.55808656 19.22095672 -4.55808656 19.22095672 -9 17 C-9 14.36 -9 11.72 -9 9 C-8.01 9 -7.02 9 -6 9 C-5.34 11.31 -4.68 13.62 -4 16 C-2.68 16.33 -1.36 16.66 0 17 C0 11.39 0 5.78 0 0 Z " fill="#DADDF2" transform="translate(128,109)"/>
<path d="M0 0 C0.99 0 1.98 0 3 0 C3 4.95 3 9.9 3 15 C4.32 15 5.64 15 7 15 C7 10.05 7 5.1 7 0 C7.99 0 8.98 0 10 0 C10.05383848 2.45862401 10.09359038 4.9160755 10.125 7.375 C10.14175781 8.07367188 10.15851563 8.77234375 10.17578125 9.4921875 C10.19344267 11.32897486 10.10303261 13.16601963 10 15 C8 17 8 17 5 17.25 C2 17 2 17 0 15 C-0.14497985 12.41935871 -0.18677545 9.95056116 -0.125 7.375 C-0.11597656 6.66859375 -0.10695312 5.9621875 -0.09765625 5.234375 C-0.07407603 3.48943902 -0.03820461 1.74467705 0 0 Z " fill="#42407A" transform="translate(177,109)"/>
<path d="M0 0 C0.99 0 1.98 0 3 0 C3 2.31 3 4.62 3 7 C4.32 7 5.64 7 7 7 C7 4.69 7 2.38 7 0 C7.99 0 8.98 0 10 0 C10 5.61 10 11.22 10 17 C9.34 17 8.68 17 8 17 C8 14.36 8 11.72 8 9 C6.35 9 4.7 9 3 9 C3 11.64 3 14.28 3 17 C2.01 17 1.02 17 0 17 C0 11.39 0 5.78 0 0 Z " fill="#3B3A7A" transform="translate(91,109)"/>
<path d="M0 0 C1.32 0 2.64 0 4 0 C4.50377768 2.26999825 5.00290019 4.54103003 5.5 6.8125 C5.7784375 8.07707031 6.056875 9.34164062 6.34375 10.64453125 C7 14 7 14 7 17 C6.01 16.67 5.02 16.34 4 16 C4 14.68 4 13.36 4 12 C2.35 12 0.7 12 -1 12 C-1 13.65 -1 15.3 -1 17 C-1.66 17 -2.32 17 -3 17 C-2.48517081 11.147205 -1.54642808 5.6702363 0 0 Z " fill="#2D2C65" transform="translate(218,109)"/>
<path d="M0 0 C1.88332031 -0.03867188 1.88332031 -0.03867188 3.8046875 -0.078125 C7.125 0.25 7.125 0.25 9.0703125 1.765625 C9.41835937 2.25546875 9.76640625 2.7453125 10.125 3.25 C9.135 3.58 8.145 3.91 7.125 4.25 C6.795 5.9 6.465 7.55 6.125 9.25 C5.465 8.59 4.805 7.93 4.125 7.25 C3.135 7.745 3.135 7.745 2.125 8.25 C2.125 7.26 2.125 6.27 2.125 5.25 C1.01125 5.5284375 1.01125 5.5284375 -0.125 5.8125 C-2.82490963 6.24203108 -4.32131077 6.10122974 -6.875 5.25 C-7.4375 3.3125 -7.4375 3.3125 -7.875 1.25 C-5.94345515 -0.68154485 -2.5639823 0.03145991 0 0 Z " fill="#F5F5F5" transform="translate(150.875,102.75)"/>
<path d="M0 0 C1.32 0 2.64 0 4 0 C4.50377768 2.26999825 5.00290019 4.54103003 5.5 6.8125 C5.7784375 8.07707031 6.056875 9.34164062 6.34375 10.64453125 C7 14 7 14 7 17 C6.34 17 5.68 17 5 17 C4.67 15.35 4.34 13.7 4 12 C2.35 12 0.7 12 -1 12 C-1 13.65 -1 15.3 -1 17 C-1.66 17 -2.32 17 -3 17 C-2.36934845 11.2190275 -1.34844868 5.6556294 0 0 Z " fill="#6866A3" transform="translate(107,109)"/>
<path d="M0 0 C0.99 0 1.98 0 3 0 C4.32 5.61 5.64 11.22 7 17 C6.01 17 5.02 17 4 17 C3.67 15.68 3.34 14.36 3 13 C1.68 13 0.36 13 -1 13 C-1.33 14.32 -1.66 15.64 -2 17 C-2.66 16.67 -3.32 16.34 -4 16 C-2.68 10.72 -1.36 5.44 0 0 Z " fill="#2D2A6C" transform="translate(148,109)"/>
<path d="M0 0 C1.32 0 2.64 0 4 0 C5.01475694 3.80533852 4.94578391 6.72439082 4.5 10.625 C4.4071875 11.44226563 4.314375 12.25953125 4.21875 13.1015625 C4.1465625 13.72804688 4.074375 14.35453125 4 15 C3.01 15 2.02 15 1 15 C0.67 17.64 0.34 20.28 0 23 C-0.33 23 -0.66 23 -1 23 C-1.22587773 19.73012965 -1.42766605 16.45920719 -1.625 13.1875 C-1.68945312 12.25873047 -1.75390625 11.32996094 -1.8203125 10.37304688 C-1.871875 9.48037109 -1.9234375 8.58769531 -1.9765625 7.66796875 C-2.02893066 6.84578857 -2.08129883 6.0236084 -2.13525391 5.17651367 C-2 3 -2 3 0 0 Z " fill="#FBFBFD" transform="translate(102,103)"/>
<path d="M0 0 C0.35707031 0.49113281 0.71414062 0.98226562 1.08203125 1.48828125 C3.90553095 3.71372806 6.15218954 3.29250922 9.6875 3.1875 C10.86699219 3.16042969 12.04648438 3.13335937 13.26171875 3.10546875 C14.16535156 3.07066406 15.06898437 3.03585938 16 3 C15.67 4.65 15.34 6.3 15 8 C12.07924603 8.83830296 9.47335217 9.13527361 6.4375 9.125 C5.29087891 9.12886719 5.29087891 9.12886719 4.12109375 9.1328125 C2 9 2 9 -1 8 C-0.67 5.36 -0.34 2.72 0 0 Z " fill="#343384" transform="translate(88,94)"/>
<path d="M0 0 C2.64 0 5.28 0 8 0 C8 0.33 8 0.66 8 1 C6.35 1 4.7 1 3 1 C3 2.65 3 4.3 3 6 C4.65 6 6.3 6 8 6 C8 6.66 8 7.32 8 8 C6.35 8 4.7 8 3 8 C3 10.31 3 12.62 3 15 C4.65 15 6.3 15 8 15 C8 15.66 8 16.32 8 17 C5.36 17 2.72 17 0 17 C0 11.39 0 5.78 0 0 Z " fill="#434379" transform="translate(167,109)"/>
<path d="M0 0 C2.31 0 4.62 0 7 0 C7 2.64 7 5.28 7 8 C6.67 8 6.34 8 6 8 C6 5.69 6 3.38 6 1 C5.01 1.33 4.02 1.66 3 2 C3.33 5.3 3.66 8.6 4 12 C3.67 12 3.34 12 3 12 C2.67 19.92 2.34 27.84 2 36 C1.67 36 1.34 36 1 36 C0.31055478 23.98395472 -0.15130716 12.03732485 0 0 Z " fill="#272A79" transform="translate(177,56)"/>
<path d="M0 0 C2.64 0 5.28 0 8 0 C9 1 9 1 9.0625 4.5625 C9.041875 5.696875 9.02125 6.83125 9 8 C8.01 7.67 7.02 7.34 6 7 C6.33 5.35 6.66 3.7 7 2 C5.35 2 3.7 2 2 2 C2.165 2.61875 2.33 3.2375 2.5 3.875 C3.20075317 8.25470729 3.07734251 12.57428989 3 17 C2.01 17 1.02 17 0 17 C0 11.39 0 5.78 0 0 Z " fill="#312E71" transform="translate(80,109)"/>
<path d="M0 0 C3.3 0 6.6 0 10 0 C10 1.65 10 3.3 10 5 C9.01 5.495 9.01 5.495 8 6 C7.00555932 9.34493684 6.89651732 11.68955197 8 15 C7.34 15 6.68 15 6 15 C5.63631108 13.39796533 5.28438048 11.79325797 4.9375 10.1875 C4.74027344 9.29417969 4.54304688 8.40085937 4.33984375 7.48046875 C4 5 4 5 5 2 C4.01 2 3.02 2 2 2 C2 3.98 2 5.96 2 8 C0.23537317 4.91190305 0 3.76687864 0 0 Z " fill="#2A2D7F" transform="translate(116,56)"/>
<path d="M0 0 C-0.66 0.66 -1.32 1.32 -2 2 C-2.70511719 1.67773438 -3.41023438 1.35546875 -4.13671875 1.0234375 C-9.60081126 -0.92962149 -15.87000297 -0.98096837 -21.41796875 0.7578125 C-25.24558892 2.58185663 -28.21731659 4.75353602 -31 8 C-30.67 8.66 -30.34 9.32 -30 10 C-30.99 10 -31.98 10 -33 10 C-32.68407506 6.89867022 -32.45035826 5.41220808 -30.109375 3.26953125 C-29.33078125 2.78871094 -28.5521875 2.30789062 -27.75 1.8125 C-26.98171875 1.32394531 -26.2134375 0.83539063 -25.421875 0.33203125 C-16.39522269 -4.63262752 -9.35998427 -3.22228967 0 0 Z " fill="#343434" transform="translate(53,58)"/>
<path d="M0 0 C0.33 0.99 0.66 1.98 1 3 C3.01508358 3.73323796 3.01508358 3.73323796 5 4 C1.99833199 6.61289776 0.20372689 7.36930244 -3.765625 7.29296875 C-4.65507812 7.28330078 -5.54453125 7.27363281 -6.4609375 7.26367188 C-7.38132813 7.23853516 -8.30171875 7.21339844 -9.25 7.1875 C-10.18585938 7.17396484 -11.12171875 7.16042969 -12.0859375 7.14648438 C-14.39121327 7.11119954 -16.6953106 7.06190281 -19 7 C-18.67 6.34 -18.34 5.68 -18 5 C-16.865625 5.0825 -15.73125 5.165 -14.5625 5.25 C-9.46016095 5.27733396 -5.42310642 3.40996389 -1 1 C-0.67 0.67 -0.34 0.34 0 0 Z " fill="#262873" transform="translate(161,95)"/>
<path d="M0 0 C2.375 -0.1875 2.375 -0.1875 5 0 C5.66 0.99 6.32 1.98 7 3 C7.33 2.34 7.66 1.68 8 1 C9.65 1 11.3 1 13 1 C13 2.98 13 4.96 13 7 C12.34 7 11.68 7 11 7 C10.67 5.68 10.34 4.36 10 3 C9.34 4.32 8.68 5.64 8 7 C7.01 7 6.02 7 5 7 C4.67 6.34 4.34 5.68 4 5 C3.67 5.66 3.34 6.32 3 7 C2.01 7 1.02 7 0 7 C0 4.69 0 2.38 0 0 Z " fill="#252525" transform="translate(138,132)"/>
<path d="M0 0 C0.99 0 1.98 0 3 0 C3 4.95 3 9.9 3 15 C4.32 15 5.64 15 7 15 C7 15.66 7 16.32 7 17 C4.69 17 2.38 17 0 17 C0 11.39 0 5.78 0 0 Z " fill="#6E68A6" transform="translate(227,109)"/>
<path d="M0 0 C3.625 -0.1875 3.625 -0.1875 7 0 C7 0.33 7 0.66 7 1 C5.35 1.33 3.7 1.66 2 2 C2 5.96 2 9.92 2 14 C3.65 14.33 5.3 14.66 7 15 C6.67 15.66 6.34 16.32 6 17 C3.69 16.67 1.38 16.34 -1 16 C-1.82791734 13.0923543 -2.16193659 10.45909481 -2.1875 7.4375 C-2.20167969 6.67308594 -2.21585938 5.90867187 -2.23046875 5.12109375 C-2 3 -2 3 0 0 Z " fill="#383674" transform="translate(158,109)"/>
<path d="M0 0 C-1.45271122 3.75283733 -1.45271122 3.75283733 -3.9375 4.875 C-6 5 -6 5 -9 3 C-11.75417318 2.69933846 -14.42645147 2.49074701 -17.1875 2.375 C-18.31188477 2.31699219 -18.31188477 2.31699219 -19.45898438 2.2578125 C-21.30559199 2.16371784 -23.1527619 2.08077681 -25 2 C-25 1.67 -25 1.34 -25 1 C-21.77093849 0.83125405 -18.54173589 0.66537263 -15.3125 0.5 C-14.40048828 0.45230469 -13.48847656 0.40460938 -12.54882812 0.35546875 C-11.66259766 0.31035156 -10.77636719 0.26523438 -9.86328125 0.21875 C-9.05157471 0.17685547 -8.23986816 0.13496094 -7.40356445 0.09179688 C-4.93328996 -0.00254779 -2.47182511 -0.01538879 0 0 Z M-2 6 C-2 6.66 -2 7.32 -2 8 C-4.31 8 -6.62 8 -9 8 C-9 7.34 -9 6.68 -9 6 C-6.3333581 4.66667905 -4.83319697 5.32897967 -2 6 Z " fill="#D2D3E9" transform="translate(167,101)"/>
<path d="M0 0 C2.97 0 5.94 0 9 0 C9.38218767 1.65614657 9.71395102 3.32457024 10 5 C9 6 9 6 6.93359375 6.09765625 C6.10988281 6.08605469 5.28617188 6.07445312 4.4375 6.0625 C3.61121094 6.05347656 2.78492188 6.04445312 1.93359375 6.03515625 C1.29550781 6.02355469 0.65742188 6.01195312 0 6 C0 4.02 0 2.04 0 0 Z " fill="#181818" transform="translate(204,132)"/>
<path d="M0 0 C1.25 2.125 1.25 2.125 2 5 C0.6875 8.25 0.6875 8.25 -2 11 C-5.00550046 11.79390578 -7.89893125 11.98674757 -11 12 C-11 11.34 -11 10.68 -11 10 C-10.2575 9.71125 -9.515 9.4225 -8.75 9.125 C-6.43260203 8.17697356 -4.22082885 7.15154089 -2 6 C-2 4.68 -2 3.36 -2 2 C-2.99 2.33 -3.98 2.66 -5 3 C-7.33299825 3.03954234 -9.66708189 3.04401732 -12 3 C-12 2.67 -12 2.34 -12 2 C-10.7625 1.67 -9.525 1.34 -8.25 1 C-7.55390625 0.814375 -6.8578125 0.62875 -6.140625 0.4375 C-4 0 -4 0 0 0 Z " fill="#FBFBEF" transform="translate(214,96)"/>
<path d="M0 0 C0.73605469 0.05220703 1.47210938 0.10441406 2.23046875 0.15820312 C4.02910629 0.28667723 5.82712909 0.42370949 7.625 0.5625 C6.635 0.8925 5.645 1.2225 4.625 1.5625 C4.295 3.2125 3.965 4.8625 3.625 6.5625 C2.305 6.5625 0.985 6.5625 -0.375 6.5625 C-0.375 4.9125 -0.375 3.2625 -0.375 1.5625 C-1.695 1.5625 -3.015 1.5625 -4.375 1.5625 C-4.375 3.2125 -4.375 4.8625 -4.375 6.5625 C-8.25 4.8125 -8.25 4.8125 -9.375 2.5625 C-11.90233235 1.90694881 -11.90233235 1.90694881 -14.375 1.5625 C-14.375 1.2325 -14.375 0.9025 -14.375 0.5625 C-9.42149325 -0.49226879 -4.99660651 -0.39304228 0 0 Z " fill="#E5EAF5" transform="translate(222.375,107.4375)"/>
<path d="M0 0 C3.10408807 -0.05807043 6.2080364 -0.09361914 9.3125 -0.125 C10.19357422 -0.14175781 11.07464844 -0.15851562 11.98242188 -0.17578125 C12.82998047 -0.18222656 13.67753906 -0.18867187 14.55078125 -0.1953125 C15.72120972 -0.21102295 15.72120972 -0.21102295 16.9152832 -0.22705078 C19 0 19 0 22 2 C20.35 3.32 18.7 4.64 17 6 C17 5.34 17 4.68 17 4 C15.88625 4.020625 14.7725 4.04125 13.625 4.0625 C10 4 10 4 8 3 C8 2.34 8 1.68 8 1 C5.36 1 2.72 1 0 1 C0 0.67 0 0.34 0 0 Z " fill="#454593" transform="translate(141,55)"/>
<path d="M0 0 C0.94875 0.04125 1.8975 0.0825 2.875 0.125 C2.875 0.455 2.875 0.785 2.875 1.125 C1.225 1.125 -0.425 1.125 -2.125 1.125 C-2.01158466 3.53377257 -2.01158466 3.53377257 -1.125 6.125 C-0.279375 6.599375 0.56625 7.07375 1.4375 7.5625 C2.241875 8.078125 3.04625 8.59375 3.875 9.125 C4.25 12.25 4.25 12.25 3.875 15.125 C2.875 16.125 2.875 16.125 -0.6875 16.1875 C-1.821875 16.166875 -2.95625 16.14625 -4.125 16.125 C-4.125 15.795 -4.125 15.465 -4.125 15.125 C-2.475 14.795 -0.825 14.465 0.875 14.125 C0.875 13.135 0.875 12.145 0.875 11.125 C-0.115 10.50625 -1.105 9.8875 -2.125 9.25 C-5.125 7.125 -5.125 7.125 -5.625 4.5 C-4.82958817 0.7217938 -3.82262774 0.15290511 0 0 Z " fill="#3E3B6C" transform="translate(240.125,108.875)"/>
<path d="M0 0 C0.33 0 0.66 0 1 0 C1.01981934 0.56396484 1.03963867 1.12792969 1.06005859 1.70898438 C1.15631811 4.30639574 1.26558052 6.90311103 1.375 9.5 C1.4059375 10.386875 1.436875 11.27375 1.46875 12.1875 C1.71319978 17.72836176 2.46738245 22.66698933 4 28 C4.99 28 5.98 28 7 28 C7 28.66 7 29.32 7 30 C4.69 30 2.38 30 0 30 C0 20.1 0 10.2 0 0 Z " fill="#383A80" transform="translate(177,72)"/>
<path d="M0 0 C0.66 0.33 1.32 0.66 2 1 C2 5.62 2 10.24 2 15 C0.68 15 -0.64 15 -2 15 C-2 10.71 -2 6.42 -2 2 C-1.34 2 -0.68 2 0 2 C0 1.34 0 0.68 0 0 Z " fill="#F8FBFB" transform="translate(182,109)"/>
<path d="M0 0 C2.64 0 5.28 0 8 0 C8 1.32 8 2.64 8 4 C7.38125 4.391875 6.7625 4.78375 6.125 5.1875 C2.79100341 8.03120297 2.66803756 11.8071853 2 16 C1.67 16 1.34 16 1 16 C0.67 10.72 0.34 5.44 0 0 Z " fill="#2C3090" transform="translate(141,56)"/>
<path d="M0 0 C2.68092691 2.68092691 2.38670257 4.39167363 2.625 8.125 C2.69976562 9.22070312 2.77453125 10.31640625 2.8515625 11.4453125 C2.92503906 12.70988281 2.92503906 12.70988281 3 14 C0.36 14 -2.28 14 -5 14 C-5 13.67 -5 13.34 -5 13 C-2.69 13 -0.38 13 2 13 C2 12.34 2 11.68 2 11 C1.01 11 0.02 11 -1 11 C-2.55136786 8.53606281 -3.03039129 7.31910854 -2.75 4.375 C-2 2 -2 2 0 0 Z " fill="#434395" transform="translate(182,89)"/>
<path d="M0 0 C2.05078125 0.03255208 4.1015625 0.06510417 6.15234375 0.09765625 C5.49234375 0.75765625 4.83234375 1.41765625 4.15234375 2.09765625 C2.83234375 1.76765625 1.51234375 1.43765625 0.15234375 1.09765625 C0.15234375 5.38765625 0.15234375 9.67765625 0.15234375 14.09765625 C1.80234375 14.42765625 3.45234375 14.75765625 5.15234375 15.09765625 C4.82234375 15.75765625 4.49234375 16.41765625 4.15234375 17.09765625 C1.77734375 17.22265625 1.77734375 17.22265625 -0.84765625 17.09765625 C-2.84765625 15.09765625 -2.84765625 15.09765625 -3.078125 11.875 C-3.05685547 9.97427734 -3.05685547 9.97427734 -3.03515625 8.03515625 C-3.02871094 6.76542969 -3.02226562 5.49570313 -3.015625 4.1875 C-2.79601955 0.14778116 -2.79601955 0.14778116 0 0 Z " fill="#363666" transform="translate(207.84765625,108.90234375)"/>
<path d="M0 0 C0.99 0 1.98 0 3 0 C3.08076963 2.45898655 3.14037143 4.91533742 3.1875 7.375 C3.22520508 8.42300781 3.22520508 8.42300781 3.26367188 9.4921875 C3.29296875 11.5234375 3.29296875 11.5234375 3 15 C2.01 15.66 1.02 16.32 0 17 C-0.99 16.34 -1.98 15.68 -3 15 C-2.01 15 -1.02 15 0 15 C0 10.05 0 5.1 0 0 Z " fill="#57528C" transform="translate(184,109)"/>
<path d="M0 0 C0.99 0 1.98 0 3 0 C2.67 0.99 2.34 1.98 2 3 C-2.95342266 3.99550706 -7.65510691 4.13097403 -12.6796875 4.09765625 C-13.49245148 4.0962413 -14.30521545 4.09482635 -15.14260864 4.09336853 C-17.72011101 4.08780335 -20.2975242 4.0752574 -22.875 4.0625 C-24.63020707 4.0574805 -26.38541552 4.05291838 -28.140625 4.04882812 C-32.42711732 4.03784534 -36.71354357 4.02060492 -41 4 C-41 3.67 -41 3.34 -41 3 C-27.47 2.67 -13.94 2.34 0 2 C0 1.34 0 0.68 0 0 Z " fill="#010101" transform="translate(62,122)"/>
<path d="M0 0 C0.99 0 1.98 0 3 0 C4.05838127 6.00860549 4.11662571 11.84627561 4.0625 17.9375 C4.05798828 18.90751953 4.05347656 19.87753906 4.04882812 20.87695312 C4.0371315 23.2513676 4.02074086 25.62565021 4 28 C3.67 28 3.34 28 3 28 C2.96261719 26.85402344 2.92523438 25.70804688 2.88671875 24.52734375 C2.82101416 22.99736554 2.75456841 21.46741903 2.6875 19.9375 C2.66494141 19.18533203 2.64238281 18.43316406 2.61914062 17.65820312 C2.36960342 12.41792187 1.2049971 8.74553724 -1 4 C-0.6875 1.5625 -0.6875 1.5625 0 0 Z " fill="#444497" transform="translate(180,57)"/>
<path d="M0 0 C2.375 0.4375 2.375 0.4375 5 2 C6.07001562 4.94119871 6.57343918 7.90584243 7 11 C5.35 11.33 3.7 11.66 2 12 C0.70756464 7.8803623 -0.26252625 4.33168317 0 0 Z " fill="#312E88" transform="translate(237,89)"/>
<path d="M0 0 C0.66 0.33 1.32 0.66 2 1 C2.625 3.0625 2.625 3.0625 3 5 C3.66 4.67 4.32 4.34 5 4 C5 5.32 5 6.64 5 8 C4.01 8 3.02 8 2 8 C1.67 8.66 1.34 9.32 1 10 C-2.66666667 10 -6.33333333 10 -10 10 C-9.67 9.01 -9.34 8.02 -9 7 C-5.7 7 -2.4 7 1 7 C0.67 4.69 0.34 2.38 0 0 Z " fill="#2B2779" transform="translate(125,79)"/>
<path d="M0 0 C0.33 0 0.66 0 1 0 C0.96519531 1.58941406 0.96519531 1.58941406 0.9296875 3.2109375 C0.91093056 4.5989513 0.89273028 5.9869727 0.875 7.375 C0.85824219 8.07367188 0.84148437 8.77234375 0.82421875 9.4921875 C0.80655733 11.32897486 0.89696739 13.16601963 1 15 C1.66 15.66 2.32 16.32 3 17 C1.68 17 0.36 17 -1 17 C-1.36644578 15.44033408 -1.71760862 13.87707349 -2.0625 12.3125 C-2.25972656 11.44238281 -2.45695313 10.57226562 -2.66015625 9.67578125 C-3.02631769 6.792786 -2.82797908 4.7772784 -2 2 C-1.34 1.34 -0.68 0.68 0 0 Z " fill="#F1F1FA" transform="translate(226,111)"/>
<path d="M0 0 C0.99 0 1.98 0 3 0 C3 2.31 3 4.62 3 7 C2.34 7 1.68 7 1 7 C0.67 8.98 0.34 10.96 0 13 C-0.99 13 -1.98 13 -3 13 C-3.28358209 5.62686567 -3.28358209 5.62686567 -1 2 C-0.67 1.34 -0.34 0.68 0 0 Z " fill="#33327B" transform="translate(118,58)"/>
<path d="M0 0 C3.02990095 1.71967351 5.76327296 3.29238306 8 6 C8 6.66 8 7.32 8 8 C5.03 8.66 2.06 9.32 -1 10 C-0.67 8.68 -0.34 7.36 0 6 C0 6.66 0 7.32 0 8 C0.66 8 1.32 8 2 8 C1.484375 7.4225 0.96875 6.845 0.4375 6.25 C-1 4 -1 4 -0.6875 1.75 C-0.460625 1.1725 -0.23375 0.595 0 0 Z " fill="#C2C2C2" transform="translate(52,60)"/>
<path d="M0 0 C1.23556641 0.01740234 1.23556641 0.01740234 2.49609375 0.03515625 C3.32238281 0.04417969 4.14867187 0.05320312 5 0.0625 C5.63808594 0.07410156 6.27617187 0.08570312 6.93359375 0.09765625 C6.93359375 1.74765625 6.93359375 3.39765625 6.93359375 5.09765625 C3.5554195 5.94219981 1.25894132 6.20610544 -2.06640625 5.09765625 C-2.62890625 3.16015625 -2.62890625 3.16015625 -3.06640625 1.09765625 C-2.06640625 0.09765625 -2.06640625 0.09765625 0 0 Z " fill="#FCFAFB" transform="translate(146.06640625,102.90234375)"/>
<path d="M0 0 C1.14229879 3.42689636 0.90861076 5.61102218 0.5625 9.1875 C0.46066406 10.27417969 0.35882813 11.36085938 0.25390625 12.48046875 C0.12822266 13.72763672 0.12822266 13.72763672 0 15 C-0.99 15 -1.98 15 -3 15 C-3.33 13.68 -3.66 12.36 -4 11 C-3.34 11 -2.68 11 -2 11 C-2.556875 9.63875 -2.556875 9.63875 -3.125 8.25 C-4 5 -4 5 -3.25 2.6875 C-2 1 -2 1 0 0 Z " fill="#333793" transform="translate(126,60)"/>
<path d="M0 0 C2.64 0 5.28 0 8 0 C8 0.33 8 0.66 8 1 C6.35 1 4.7 1 3 1 C3 1.66 3 2.32 3 3 C4.65 3 6.3 3 8 3 C8.33 4.32 8.66 5.64 9 7 C6.03 7 3.06 7 0 7 C0 4.69 0 2.38 0 0 Z " fill="#616161" transform="translate(187,132)"/>
<path d="M0 0 C1.32 0 2.64 0 4 0 C3.67 3.63 3.34 7.26 3 11 C1.35 10.67 -0.3 10.34 -2 10 C-1.34 6.7 -0.68 3.4 0 0 Z " fill="#6C6AA5" transform="translate(218,109)"/>
<path d="M0 0 C0.33 1.32 0.66 2.64 1 4 C1.66 4 2.32 4 3 4 C3 4.66 3 5.32 3 6 C2.34 6 1.68 6 1 6 C1 6.66 1 7.32 1 8 C1.99 8.66 2.98 9.32 4 10 C3.34 10 2.68 10 2 10 C1.34 12.31 0.68 14.62 0 17 C-0.66 17 -1.32 17 -2 17 C-2.33 17.66 -2.66 18.32 -3 19 C-2.37679879 12.56025419 -1.35991738 6.32427599 0 0 Z " fill="#E4EAF9" transform="translate(223,80)"/>
<path d="M0 0 C0.33 0 0.66 0 1 0 C1.33 7.59 1.66 15.18 2 23 C0.66666667 23 -0.66666667 23 -2 23 C-1.86068862 19.9163358 -1.71240719 16.83316583 -1.5625 13.75 C-1.52318359 12.87730469 -1.48386719 12.00460938 -1.44335938 11.10546875 C-1.40146484 10.26113281 -1.35957031 9.41679688 -1.31640625 8.546875 C-1.27974854 7.77182617 -1.24309082 6.99677734 -1.20532227 6.19824219 C-1.00396985 4.0425024 -0.58270703 2.08198525 0 0 Z " fill="#2C2F84" transform="translate(182,68)"/>
<path d="M0 0 C0.33 0 0.66 0 1 0 C1 1.65 1 3.3 1 5 C1.99 5 2.98 5 4 5 C4 3.68 4 2.36 4 1 C4.66 1 5.32 1 6 1 C6.66 4.3 7.32 7.6 8 11 C7.34 11 6.68 11 6 11 C5.67 9.35 5.34 7.7 5 6 C3.35 6 1.7 6 0 6 C0 7.65 0 9.3 0 11 C-0.66 11 -1.32 11 -2 11 C-1.125 3.375 -1.125 3.375 0 0 Z " fill="#252264" transform="translate(106,115)"/>
<path d="M0 0 C2.05078125 0.03255208 4.1015625 0.06510417 6.15234375 0.09765625 C6.48234375 1.74765625 6.81234375 3.39765625 7.15234375 5.09765625 C6.82234375 4.43765625 6.49234375 3.77765625 6.15234375 3.09765625 C3.83077778 2.69036397 1.49546505 2.35326948 -0.84765625 2.09765625 C-0.84765625 3.41765625 -0.84765625 4.73765625 -0.84765625 6.09765625 C-0.18765625 6.09765625 0.47234375 6.09765625 1.15234375 6.09765625 C1.15234375 6.75765625 1.15234375 7.41765625 1.15234375 8.09765625 C1.81234375 8.09765625 2.47234375 8.09765625 3.15234375 8.09765625 C2.82234375 9.08765625 2.49234375 10.07765625 2.15234375 11.09765625 C1.49234375 10.76765625 0.83234375 10.43765625 0.15234375 10.09765625 C0.15234375 9.10765625 0.15234375 8.11765625 0.15234375 7.09765625 C-0.83765625 7.09765625 -1.82765625 7.09765625 -2.84765625 7.09765625 C-2.89019981 5.09810879 -2.88846408 3.09723989 -2.84765625 1.09765625 C-1.84765625 0.09765625 -1.84765625 0.09765625 0 0 Z " fill="#46487F" transform="translate(226.84765625,54.90234375)"/>
<path d="M0 0 C0.33 0 0.66 0 1 0 C1 5.61 1 11.22 1 17 C0.01 17 -0.98 17 -2 17 C-2.66 14.03 -3.32 11.06 -4 8 C-3.01 7.67 -2.02 7.34 -1 7 C-0.67 4.69 -0.34 2.38 0 0 Z " fill="#DDDEF1" transform="translate(116,109)"/>
<path d="M0 0 C0.66 0 1.32 0 2 0 C2 5.28 2 10.56 2 16 C-1.38118637 12.61881363 -1.73248299 11.63696159 -2 7 C-1.0625 3.125 -1.0625 3.125 0 0 Z " fill="#EAEAF6" transform="translate(126,110)"/>
<path d="M0 0 C1.65 0 3.3 0 5 0 C5 2.64 5 5.28 5 8 C3.0625 8.5625 3.0625 8.5625 1 9 C0 8 0 8 -0.09765625 6.15234375 C-0.06510417 4.1015625 -0.03255208 2.05078125 0 0 Z " fill="#E0E5F6" transform="translate(94,118)"/>
<path d="M0 0 C0.33 0 0.66 0 1 0 C1.33 1.65 1.66 3.3 2 5 C2.103125 4.360625 2.20625 3.72125 2.3125 3.0625 C2.539375 2.381875 2.76625 1.70125 3 1 C3.99 0.67 4.98 0.34 6 0 C5.67 2.97 5.34 5.94 5 9 C4.01 9 3.02 9 2 9 C1.67 11.64 1.34 14.28 1 17 C0.67 17 0.34 17 0 17 C0 11.39 0 5.78 0 0 Z " fill="#D4D7F2" transform="translate(101,109)"/>
<path d="M0 0 C0.144375 0.598125 0.28875 1.19625 0.4375 1.8125 C0.8872439 3.56150404 1.42892341 5.28677023 2 7 C0.5625 9.1875 0.5625 9.1875 -1 11 C-1.83905565 9.87926138 -2.67107831 8.75325453 -3.5 7.625 C-3.9640625 6.99851562 -4.428125 6.37203125 -4.90625 5.7265625 C-6 4 -6 4 -6 2 C-4.02 2 -2.04 2 0 2 C0 1.34 0 0.68 0 0 Z " fill="#C7C8CA" transform="translate(41,72)"/>
<path d="M0 0 C2.625 0.9375 2.625 0.9375 5 2 C4.34 5.3 3.68 8.6 3 12 C2.34 11.67 1.68 11.34 1 11 C0.60689586 8.67711188 0.49250305 6.38154824 0.34375 4.03125 C0.17359375 3.02578125 0.17359375 3.02578125 0 2 C-0.66 1.67 -1.32 1.34 -2 1 C-1.34 0.67 -0.68 0.34 0 0 Z " fill="#E5EBF5" transform="translate(133,107)"/>
<path d="M0 0 C0.99 0.33 1.98 0.66 3 1 C3 1.66 3 2.32 3 3 C3.66 3 4.32 3 5 3 C5.33 2.34 5.66 1.68 6 1 C6.33 3.31 6.66 5.62 7 8 C5.68 8 4.36 8 3 8 C1.25 6.25 1.25 6.25 0 4 C0 2.68 0 1.36 0 0 Z " fill="#2D3080" transform="translate(81,92)"/>
<path d="M0 0 C1.67542976 0.28604898 3.34385343 0.61781233 5 1 C4.75 3.375 4.75 3.375 4 6 C0.95238095 8 0.95238095 8 -1 8 C-1.04241723 5.66705225 -1.04092937 3.33297433 -1 1 C-0.67 0.67 -0.34 0.34 0 0 Z " fill="#E6E7F5" transform="translate(147,121)"/>
<path d="M0 0 C-0.33 1.65 -0.66 3.3 -1 5 C-3.64 5.33 -6.28 5.66 -9 6 C-9.33 5.01 -9.66 4.02 -10 3 C-9.34 3 -8.68 3 -8 3 C-8 3.66 -8 4.32 -8 5 C-7.34 5 -6.68 5 -6 5 C-6 4.34 -6 3.68 -6 3 C-7.65 2.67 -9.3 2.34 -11 2 C-11 1.67 -11 1.34 -11 1 C-9.54182203 0.83197949 -8.0834516 0.66562857 -6.625 0.5 C-5.81289062 0.4071875 -5.00078125 0.314375 -4.1640625 0.21875 C-2 0 -2 0 0 0 Z " fill="#4E4C92" transform="translate(104,97)"/>
<path d="M0 0 C2.97 0 5.94 0 9 0 C8.67 1.65 8.34 3.3 8 5 C4 5 4 5 1.75 3.0625 C0 1 0 1 0 0 Z " fill="#2C2B72" transform="translate(96,55)"/>
<path d="M0 0 C3.00617269 3.00617269 2.59585316 5.82381598 3 10 C1.35 10.33 -0.3 10.66 -2 11 C-1.34 7.37 -0.68 3.74 0 0 Z " fill="#494A8C" transform="translate(109,92)"/>
<path d="M0 0 C0.99 0 1.98 0 3 0 C2.88557539 1.60495567 2.75805306 3.20898119 2.625 4.8125 C2.55539063 5.70582031 2.48578125 6.59914063 2.4140625 7.51953125 C2 10 2 10 0 13 C-0.19658808 11.58456585 -0.38187546 10.16755969 -0.5625 8.75 C-0.66691406 7.96109375 -0.77132812 7.1721875 -0.87890625 6.359375 C-1.00027349 3.99467126 -0.69633257 2.2488963 0 0 Z " fill="#292D7A" transform="translate(224,62)"/>
<path d="M0 0 C1.65 0.33 3.3 0.66 5 1 C4.34 5.29 3.68 9.58 3 14 C2.67 14 2.34 14 2 14 C1.51171875 12.01432292 1.0234375 10.02864583 0.53515625 8.04296875 C0.08989295 6.34316798 -0.44433985 4.66698046 -1 3 C-0.67 2.01 -0.34 1.02 0 0 Z " fill="#28297E" transform="translate(160,57)"/>
<path d="M0 0 C0.33 0 0.66 0 1 0 C1 1.65 1 3.3 1 5 C1.66 5.33 2.32 5.66 3 6 C2.34 6 1.68 6 1 6 C0.67 6.66 0.34 7.32 0 8 C-3.3 7.34 -6.6 6.68 -10 6 C-9.01 5.67 -8.02 5.34 -7 5 C-6.26676204 2.98491642 -6.26676204 2.98491642 -6 1 C-5.67 2.32 -5.34 3.64 -5 5 C-1.88667752 4.33131686 -1.88667752 4.33131686 -0.8125 1.9375 C-0.544375 1.298125 -0.27625 0.65875 0 0 Z " fill="#D2D2D2" transform="translate(148,134)"/>
<path d="M0 0 C1.65 0 3.3 0 5 0 C5 2.31 5 4.62 5 7 C3.68 7 2.36 7 1 7 C0.67 4.69 0.34 2.38 0 0 Z " fill="#C6C8E4" transform="translate(82,111)"/>
<path d="M0 0 C0.66 0 1.32 0 2 0 C2.66 2.97 3.32 5.94 4 9 C2.02 9 0.04 9 -2 9 C-1.34 6.03 -0.68 3.06 0 0 Z " fill="#E0E7F8" transform="translate(119,65)"/>
<path d="M0 0 C0.66 0 1.32 0 2 0 C2.33 3.3 2.66 6.6 3 10 C1.68 10 0.36 10 -1 10 C-2.46726798 6.18510326 -1.43336419 3.70988378 0 0 Z " fill="#7B7CAE" transform="translate(148,110)"/>
<path d="M0 0 C0.66 0.66 1.32 1.32 2 2 C2.66 1.34 3.32 0.68 4 0 C5.22602512 3.67807537 4.70295577 5.88243927 4.0625 9.6875 C3.86785156 10.86699219 3.67320313 12.04648438 3.47265625 13.26171875 C3.31667969 14.16535156 3.16070312 15.06898437 3 16 C2.67 16 2.34 16 2 16 C1.34 10.72 0.68 5.44 0 0 Z " fill="#2A2D83" transform="translate(83,61)"/>
<path d="M0 0 C0.66 0.66 1.32 1.32 2 2 C1.76208141 4.45849212 1.136119 5.81202615 -0.3125 7.8125 C-2 9 -2 9 -4.1875 8.6875 C-4.785625 8.460625 -5.38375 8.23375 -6 8 C-5.525625 7.5875 -5.05125 7.175 -4.5625 6.75 C-2.82060046 4.79907252 -2.58221635 3.49521294 -2 1 C-1.34 0.67 -0.68 0.34 0 0 Z " fill="#EAEEF8" transform="translate(170,92)"/>
<path d="M0 0 C0.99 0 1.98 0 3 0 C2.34 5.28 1.68 10.56 1 16 C0.67 16 0.34 16 0 16 C0 10.72 0 5.44 0 0 Z " fill="#201C56" transform="translate(227,109)"/>
<path d="M0 0 C3.3 0 6.6 0 10 0 C8.68 0.33 7.36 0.66 6 1 C6 2.98 6 4.96 6 7 C5.01 7 4.02 7 3 7 C3 5.02 3 3.04 3 1 C2.01 0.67 1.02 0.34 0 0 Z " fill="#232323" transform="translate(170,132)"/>
<path d="M0 0 C0.66 1.65 1.32 3.3 2 5 C1.01 5 0.02 5 -1 5 C-1.33 4.01 -1.66 3.02 -2 2 C-2.99 2.33 -3.98 2.66 -5 3 C-7.33299825 3.03954234 -9.66708189 3.04401732 -12 3 C-12 2.67 -12 2.34 -12 2 C-10.7625 1.67 -9.525 1.34 -8.25 1 C-7.55390625 0.814375 -6.8578125 0.62875 -6.140625 0.4375 C-4 0 -4 0 0 0 Z " fill="#D9DCEE" transform="translate(214,96)"/>
<path d="M0 0 C1.9375 0.3125 1.9375 0.3125 4 1 C4.33 1.99 4.66 2.98 5 4 C5.66 4 6.32 4 7 4 C7 4.66 7 5.32 7 6 C4.69 6 2.38 6 0 6 C0 4.02 0 2.04 0 0 Z " fill="#FAFBFF" transform="translate(170,118)"/>
<path d="M0 0 C0.99 0 1.98 0 3 0 C3 0.66 3 1.32 3 2 C2.34 2 1.68 2 1 2 C1.33 4.31 1.66 6.62 2 9 C0.68 9.33 -0.64 9.66 -2 10 C-2.17942163 6.05272412 -2.09350689 3.4019487 0 0 Z " fill="#313298" transform="translate(163,89)"/>
<path d="M0 0 C-0.33 0.99 -0.66 1.98 -1 3 C-4.63 3 -8.26 3 -12 3 C-12 2.34 -12 1.68 -12 1 C-10.56274129 0.83126522 -9.12518162 0.66509263 -7.6875 0.5 C-6.88699219 0.4071875 -6.08648437 0.314375 -5.26171875 0.21875 C-3 0 -3 0 0 0 Z " fill="#312E7B" transform="translate(212,98)"/>
<path d="M0 0 C2.64 0 5.28 0 8 0 C4.25 2 4.25 2 2 2 C2 6.62 2 11.24 2 16 C1.67 16 1.34 16 1 16 C0.67 10.72 0.34 5.44 0 0 Z " fill="#2E2D75" transform="translate(141,56)"/>
<path d="M0 0 C0 1.98 0 3.96 0 6 C-3.875 4.25 -3.875 4.25 -5 2 C-7.52733235 1.34444881 -7.52733235 1.34444881 -10 1 C-10 0.67 -10 0.34 -10 0 C-6.33694766 -0.74926071 -3.57644848 -1.2380014 0 0 Z " fill="#DCDFEE" transform="translate(218,108)"/>
<path d="M0 0 C0.99 0.33 1.98 0.66 3 1 C3 1.66 3 2.32 3 3 C4.32 3.33 5.64 3.66 7 4 C6.0925 4.144375 5.185 4.28875 4.25 4.4375 C1.78523044 4.86409473 -0.58847107 5.35074221 -3 6 C-2.42655063 3.13275314 -2.1385485 2.1385485 0 0 Z " fill="#E4E3F5" transform="translate(191,105)"/>
<path d="M0 0 C1.32 0.33 2.64 0.66 4 1 C4 2.98 4 4.96 4 7 C3.01 7 2.02 7 1 7 C0.67 4.69 0.34 2.38 0 0 Z " fill="#FBFDF3" transform="translate(119,73)"/>
<path d="M0 0 C2.44959258 3.67438887 2.07735068 5.66836193 2 10 C2.33 10.99 2.66 11.98 3 13 C2.01 13.495 2.01 13.495 1 14 C0.34 13.67 -0.32 13.34 -1 13 C-1.33 13.66 -1.66 14.32 -2 15 C-2 14.01 -2 13.02 -2 12 C-1.34 12 -0.68 12 0 12 C0 8.04 0 4.08 0 0 Z " fill="#282B85" transform="translate(126,63)"/>
<path d="M0 0 C0.66 0 1.32 0 2 0 C1.67 1.98 1.34 3.96 1 6 C0.01 6 -0.98 6 -2 6 C-2.33 6.66 -2.66 7.32 -3 8 C-3.33 6.02 -3.66 4.04 -4 2 C-3.01 2.33 -2.02 2.66 -1 3 C-0.67 2.01 -0.34 1.02 0 0 Z " fill="#262982" transform="translate(234,67)"/>
<path d="M0 0 C2.97 0 5.94 0 9 0 C8.34 0.66 7.68 1.32 7 2 C7.33 2.99 7.66 3.98 8 5 C6.35 5 4.7 5 3 5 C3 4.01 3 3.02 3 2 C2.01 1.34 1.02 0.68 0 0 Z " fill="#50529F" transform="translate(90,54)"/>
<path d="M0 0 C0.66 0.33 1.32 0.66 2 1 C1.67 3.64 1.34 6.28 1 9 C1.66 9.33 2.32 9.66 3 10 C1.68 9.67 0.36 9.34 -1 9 C-1.09765625 2.84765625 -1.09765625 2.84765625 -1 1 C-0.67 0.67 -0.34 0.34 0 0 Z " fill="#EAEEF9" transform="translate(103,117)"/>
<path d="M0 0 C0.33 0.99 0.66 1.98 1 3 C0.34 3.99 -0.32 4.98 -1 6 C-1.33 4.35 -1.66 2.7 -2 1 C-1.34 0.67 -0.68 0.34 0 0 Z M-4 5 C-3.01 5.33 -2.02 5.66 -1 6 C-1 6.99 -1 7.98 -1 9 C-2.32 9.33 -3.64 9.66 -5 10 C-4.67 8.35 -4.34 6.7 -4 5 Z " fill="#383A8F" transform="translate(238,78)"/>
<path d="M0 0 C0.99 0 1.98 0 3 0 C2.67 2.64 2.34 5.28 2 8 C1.01 8 0.02 8 -1 8 C-0.67 5.36 -0.34 2.72 0 0 Z " fill="#2E2C70" transform="translate(219,86)"/>
<path d="M0 0 C2.31 0 4.62 0 7 0 C7 0.33 7 0.66 7 1 C5.35 1 3.7 1 2 1 C2 1.66 2 2.32 2 3 C3.65 3 5.3 3 7 3 C7 3.33 7 3.66 7 4 C5.35 4 3.7 4 2 4 C2 4.66 2 5.32 2 6 C1.34 6 0.68 6 0 6 C0 4.02 0 2.04 0 0 Z " fill="#050505" transform="translate(188,132)"/>
<path d="M0 0 C0.99 0.495 0.99 0.495 2 1 C2.625 3.0625 2.625 3.0625 3 5 C3.66 4.67 4.32 4.34 5 4 C5 5.32 5 6.64 5 8 C4.01 8 3.02 8 2 8 C1.67 8.66 1.34 9.32 1 10 C0.67 6.7 0.34 3.4 0 0 Z " fill="#2A2E85" transform="translate(125,79)"/>
<path d="M0 0 C3 1 3 1 3.9375 2.8125 C4 5 4 5 2.0625 7.25 C1.381875 7.8275 0.70125 8.405 0 9 C0.33 7.35 0.66 5.7 1 4 C0.34 4 -0.32 4 -1 4 C-0.67 2.68 -0.34 1.36 0 0 Z " fill="#2A2B8E" transform="translate(229,59)"/>
<path d="M0 0 C2.31 0 4.62 0 7 0 C6.67 0.99 6.34 1.98 6 3 C4.35 3 2.7 3 1 3 C0.67 3.99 0.34 4.98 0 6 C0 4.02 0 2.04 0 0 Z " fill="#464787" transform="translate(193,55)"/>
<path d="M0 0 C0.99 0 1.98 0 3 0 C3 2.31 3 4.62 3 7 C2.01 7 1.02 7 0 7 C0 4.69 0 2.38 0 0 Z " fill="#232323" transform="translate(127,132)"/>
<path d="M0 0 C0.33 1.32 0.66 2.64 1 4 C1.66 4 2.32 4 3 4 C3 4.66 3 5.32 3 6 C2.34 6 1.68 6 1 6 C1 6.66 1 7.32 1 8 C1.99 8.66 2.98 9.32 4 10 C2.35 10 0.7 10 -1 10 C-0.67 6.7 -0.34 3.4 0 0 Z " fill="#BFC3E4" transform="translate(223,80)"/>
<path d="M0 0 C0.99 0.33 1.98 0.66 3 1 C3 2.32 3 3.64 3 5 C0.69 5 -1.62 5 -4 5 C-4 4.34 -4 3.68 -4 3 C-3.01 3 -2.02 3 -1 3 C-0.67 2.01 -0.34 1.02 0 0 Z " fill="#F3F7FE" transform="translate(230,81)"/>
<path d="M0 0 C0.66 0 1.32 0 2 0 C2 1.65 2 3.3 2 5 C-0.31 5 -2.62 5 -5 5 C-5.33 4.34 -5.66 3.68 -6 3 C-5.195625 2.690625 -4.39125 2.38125 -3.5625 2.0625 C-1.10919595 1.23664655 -1.10919595 1.23664655 0 0 Z " fill="#EEF0FC" transform="translate(105,99)"/>
<path d="M0 0 C2.0625 0.4375 2.0625 0.4375 4 1 C2.35 2.98 0.7 4.96 -1 7 C-1.66 6.67 -2.32 6.34 -3 6 C-1.125 1.125 -1.125 1.125 0 0 Z " fill="#252628" transform="translate(44,76)"/>
<path d="M0 0 C0.99 0 1.98 0 3 0 C3 1.98 3 3.96 3 6 C1.68 5.67 0.36 5.34 -1 5 C-0.67 3.35 -0.34 1.7 0 0 Z " fill="#F2F2F9" transform="translate(225,75)"/>
<path d="M0 0 C0.66 0 1.32 0 2 0 C1.67 1.98 1.34 3.96 1 6 C-0.32 6 -1.64 6 -3 6 C-1.125 1.125 -1.125 1.125 0 0 Z " fill="#36369C" transform="translate(232,64)"/>
<path d="M0 0 C2 2 2 2 2 5 C2.66 5 3.32 5 4 5 C4 5.66 4 6.32 4 7 C4.66 7 5.32 7 6 7 C5.67 7.99 5.34 8.98 5 10 C4.34 9.67 3.68 9.34 3 9 C3 8.01 3 7.02 3 6 C2.01 6 1.02 6 0 6 C0 4.02 0 2.04 0 0 Z " fill="#4A4B9D" transform="translate(224,56)"/>
<path d="M0 0 C1.32 0 2.64 0 4 0 C4 1.32 4 2.64 4 4 C2.02 4 0.04 4 -2 4 C-1.34 2.68 -0.68 1.36 0 0 Z " fill="#FEFCED" transform="translate(102,103)"/>
<path d="M0 0 C1.32 0 2.64 0 4 0 C3.67 1.32 3.34 2.64 3 4 C1.35 4 -0.3 4 -2 4 C-1.34 2.68 -0.68 1.36 0 0 Z " fill="#FBFDEC" transform="translate(169,98)"/>
<path d="M0 0 C0.33 0 0.66 0 1 0 C1.33 4.29 1.66 8.58 2 13 C1.01 13.66 0.02 14.32 -1 15 C-0.67 10.05 -0.34 5.1 0 0 Z " fill="#BABAB8" transform="translate(65,76)"/>
<path d="M0 0 C2.64 0.33 5.28 0.66 8 1 C8 1.66 8 2.32 8 3 C5.03 3 2.06 3 -1 3 C-0.67 2.01 -0.34 1.02 0 0 Z " fill="#333279" transform="translate(224,86)"/>
<path d="M0 0 C0.66 0 1.32 0 2 0 C1.67 2.64 1.34 5.28 1 8 C-0.32 8 -1.64 8 -3 8 C-1.125 2.25 -1.125 2.25 0 0 Z " fill="#2C2B84" transform="translate(236,76)"/>
<path d="M0 0 C1.134375 0.020625 2.26875 0.04125 3.4375 0.0625 C3.1075 0.7225 2.7775 1.3825 2.4375 2.0625 C1.4475 2.3925 0.4575 2.7225 -0.5625 3.0625 C-0.8925 3.7225 -1.2225 4.3825 -1.5625 5.0625 C-1.5625 4.0725 -1.5625 3.0825 -1.5625 2.0625 C-2.5525 1.7325 -3.5425 1.4025 -4.5625 1.0625 C-3.5625 0.0625 -3.5625 0.0625 0 0 Z " fill="#D7D7D7" transform="translate(58.5625,72.9375)"/>
<path d="M0 0 C2.97 0.495 2.97 0.495 6 1 C6.33 1.99 6.66 2.98 7 4 C4.69 4.33 2.38 4.66 0 5 C0 3.33333333 0 1.66666667 0 0 Z " fill="#C9C9C9" transform="translate(43,57)"/>
<path d="M0 0 C2.475 0.495 2.475 0.495 5 1 C4.67 1.99 4.34 2.98 4 4 C2.68 4 1.36 4 0 4 C0 2.68 0 1.36 0 0 Z " fill="#E6E6E6" transform="translate(206,133)"/>
<path d="M0 0 C0.66 0 1.32 0 2 0 C2.33 2.64 2.66 5.28 3 8 C2.01 7.67 1.02 7.34 0 7 C0 4.69 0 2.38 0 0 Z " fill="#413B88" transform="translate(222,118)"/>
<path d="M0 0 C0.5775 0.61875 1.155 1.2375 1.75 1.875 C3.80249821 3.81347053 5.43366582 4.90014249 8 6 C5.69 6 3.38 6 1 6 C0.34 4.35 -0.32 2.7 -1 1 C-0.67 0.67 -0.34 0.34 0 0 Z " fill="#B9BBC6" transform="translate(234,120)"/>
<path d="M0 0 C0.66 0 1.32 0 2 0 C2.042721 1.66611905 2.04063832 3.33382885 2 5 C1 6 1 6 -2.5625 6.0625 C-3.696875 6.041875 -4.83125 6.02125 -6 6 C-6 5.67 -6 5.34 -6 5 C-4.35 4.67 -2.7 4.34 -1 4 C-0.67 2.68 -0.34 1.36 0 0 Z " fill="#292657" transform="translate(242,119)"/>
<path d="M0 0 C1.65 0.99 3.3 1.98 5 3 C4.67 4.32 4.34 5.64 4 7 C3.34 6.67 2.68 6.34 2 6 C2 5.34 2 4.68 2 4 C1.34 3.67 0.68 3.34 0 3 C0 2.01 0 1.02 0 0 Z " fill="#E2E0F9" transform="translate(237,117)"/>
<path d="M0 0 C0.99 0 1.98 0 3 0 C3.33 1.65 3.66 3.3 4 5 C3.34 4.67 2.68 4.34 2 4 C1.34 5.32 0.68 6.64 0 8 C0 5.36 0 2.72 0 0 Z " fill="#C4C8E9" transform="translate(119,118)"/>
<path d="M0 0 C0.99 0 1.98 0 3 0 C3.33 2.31 3.66 4.62 4 7 C3.01 7.495 3.01 7.495 2 8 C1.34 5.36 0.68 2.72 0 0 Z " fill="#E2E6F3" transform="translate(150,108)"/>
<path d="M0 0 C1.32 0.33 2.64 0.66 4 1 C3.67 2.32 3.34 3.64 3 5 C2.01 5 1.02 5 0 5 C0 3.35 0 1.7 0 0 Z " fill="#E9F0F2" transform="translate(120,111)"/>
<path d="M0 0 C1.98 0 3.96 0 6 0 C6.33 0.99 6.66 1.98 7 3 C6.01 3.33 5.02 3.66 4 4 C2.68 2.68 1.36 1.36 0 0 Z " fill="#C4C4C4" transform="translate(24,97)"/>
<path d="M0 0 C0.99 0 1.98 0 3 0 C2.67 0.99 2.34 1.98 2 3 C-1.3 3.33 -4.6 3.66 -8 4 C-4.77208445 1.8480563 -3.71599191 1.79913557 0 2 C0 1.34 0 0.68 0 0 Z " fill="#111111" transform="translate(62,122)"/>
<path d="M0 0 C1.65 0 3.3 0 5 0 C5.33 1.65 5.66 3.3 6 5 C4.0625 4.625 4.0625 4.625 2 4 C1.33333333 2.66666667 0.66666667 1.33333333 0 0 Z " fill="#C2C3DF" transform="translate(106,121)"/>
<path d="M0 0 C0.99 0 1.98 0 3 0 C2.67 3.96 2.34 7.92 2 12 C1.67 12 1.34 12 1 12 C0.67 8.04 0.34 4.08 0 0 Z " fill="#2D2768" transform="translate(184,109)"/>
<path d="M0 0 C1.134375 0.020625 2.26875 0.04125 3.4375 0.0625 C3.4375 0.3925 3.4375 0.7225 3.4375 1.0625 C2.65375 1.145 1.87 1.2275 1.0625 1.3125 C-1.70999104 1.79056339 -1.70999104 1.79056339 -2.875 4.125 C-3.101875 4.764375 -3.32875 5.40375 -3.5625 6.0625 C-3.94468767 4.40635343 -4.27645102 2.73792976 -4.5625 1.0625 C-3.5625 0.0625 -3.5625 0.0625 0 0 Z " fill="#1B1A5F" transform="translate(161.5625,108.9375)"/>
<path d="M0 0 C2.475 0.99 2.475 0.99 5 2 C4.34 3.32 3.68 4.64 3 6 C2.01 5.67 1.02 5.34 0 5 C0 3.35 0 1.7 0 0 Z " fill="#383693" transform="translate(237,89)"/>
<path d="M0 0 C0.99 0 1.98 0 3 0 C3 2.31 3 4.62 3 7 C2.01 6.67 1.02 6.34 0 6 C0 4.02 0 2.04 0 0 Z " fill="#3335A6" transform="translate(118,58)"/>
</svg>
