<svg id="svg" version="1.1" xmlns="http://www.w3.org/2000/svg" xmlns:xlink="http://www.w3.org/1999/xlink" width="400" height="124.16666666666667" viewBox="0, 0, 400,124.16666666666667"><g id="svgg"><path id="path0" d="M318.583 38.763 C 318.308 39.073,317.990 39.328,317.875 39.330 C 317.760 39.332,317.667 39.414,317.667 39.512 C 317.667 39.743,317.243 40.167,317.012 40.167 C 316.914 40.167,316.833 40.247,316.833 40.345 C 316.833 40.576,316.409 41.000,316.179 41.000 C 316.080 41.000,316.000 41.080,316.000 41.179 C 316.000 41.373,315.911 41.468,314.917 42.325 C 314.550 42.641,314.271 42.965,314.296 43.045 C 314.321 43.126,314.276 43.151,314.196 43.101 C 314.007 42.985,313.325 43.765,313.472 43.929 C 313.533 43.997,313.494 44.002,313.385 43.940 C 313.183 43.824,313.090 43.903,312.486 44.708 C 312.297 44.960,312.035 45.167,311.905 45.167 C 311.774 45.167,311.667 45.261,311.667 45.377 C 311.667 45.493,311.498 45.662,311.292 45.752 C 311.085 45.843,310.843 46.085,310.752 46.292 C 310.662 46.498,310.491 46.667,310.373 46.667 C 310.255 46.667,310.085 46.859,309.996 47.093 C 309.907 47.328,309.759 47.474,309.667 47.417 C 309.575 47.360,309.431 47.487,309.348 47.698 C 309.200 48.073,308.092 49.169,307.363 49.662 C 307.163 49.797,307.000 49.965,307.000 50.037 C 307.000 50.108,306.869 50.300,306.708 50.464 C 306.548 50.627,306.229 51.002,306.000 51.296 C 305.771 51.590,305.490 51.831,305.375 51.832 C 305.260 51.833,305.167 51.914,305.167 52.012 C 305.167 52.243,304.743 52.667,304.512 52.667 C 304.414 52.667,304.333 52.747,304.333 52.845 C 304.333 53.076,303.909 53.500,303.679 53.500 C 303.580 53.500,303.500 53.612,303.500 53.750 C 303.500 53.887,303.425 54.000,303.333 54.000 C 303.242 54.000,303.167 54.188,303.167 54.417 L 303.167 54.833 320.755 54.833 C 336.236 54.833,338.355 54.803,338.440 54.583 C 338.492 54.446,338.608 54.333,338.696 54.333 C 338.863 54.333,339.333 53.920,339.333 53.775 C 339.333 53.642,340.347 52.667,340.485 52.667 C 340.554 52.667,340.711 52.479,340.833 52.250 C 340.956 52.021,341.156 51.833,341.278 51.833 C 341.400 51.833,341.500 51.716,341.500 51.573 C 341.500 51.431,341.575 51.360,341.667 51.417 C 341.758 51.473,341.833 51.403,341.833 51.260 C 341.833 51.117,341.950 51.000,342.093 51.000 C 342.236 51.000,342.307 50.925,342.250 50.833 C 342.193 50.742,342.264 50.667,342.407 50.667 C 342.550 50.667,342.667 50.554,342.667 50.417 C 342.667 50.279,342.747 50.167,342.845 50.167 C 343.076 50.167,343.500 49.743,343.500 49.512 C 343.500 49.414,343.580 49.333,343.679 49.333 C 343.909 49.333,344.333 48.909,344.333 48.679 C 344.333 48.580,344.414 48.500,344.512 48.500 C 344.699 48.500,345.167 48.092,345.167 47.929 C 345.167 47.876,346.292 46.725,347.667 45.371 C 349.042 44.017,350.167 42.826,350.167 42.724 C 350.167 42.622,350.316 42.500,350.499 42.452 C 350.682 42.404,350.881 42.227,350.941 42.057 C 351.058 41.730,352.027 40.746,352.635 40.338 C 352.836 40.203,353.000 39.997,353.000 39.880 C 353.000 39.763,353.085 39.667,353.189 39.667 C 353.497 39.667,354.000 38.979,354.000 38.558 L 354.000 38.167 336.542 38.183 L 319.083 38.199 318.583 38.763 M355.667 40.325 C 355.667 40.502,345.151 51.000,344.974 51.000 C 344.897 51.000,344.833 51.112,344.833 51.250 C 344.833 51.387,344.753 51.500,344.655 51.500 C 344.424 51.500,344.000 51.924,344.000 52.155 C 344.000 52.253,343.920 52.333,343.821 52.333 C 343.591 52.333,343.167 52.757,343.167 52.988 C 343.167 53.086,343.086 53.167,342.988 53.167 C 342.757 53.167,342.333 53.591,342.333 53.821 C 342.333 53.920,342.221 54.000,342.083 54.000 C 341.946 54.000,341.833 54.117,341.833 54.260 C 341.833 54.403,341.758 54.473,341.667 54.417 C 341.575 54.360,341.500 54.431,341.500 54.573 C 341.500 54.716,341.383 54.833,341.240 54.833 C 341.097 54.833,341.027 54.908,341.083 55.000 C 341.140 55.092,341.069 55.167,340.927 55.167 C 340.784 55.167,340.667 55.279,340.667 55.417 C 340.667 55.554,340.586 55.667,340.488 55.667 C 340.260 55.667,339.929 56.001,339.788 56.375 C 339.727 56.535,339.600 56.667,339.505 56.667 C 339.289 56.667,339.269 91.307,339.484 91.647 C 339.642 91.896,340.667 91.578,340.667 91.281 C 340.667 91.083,341.111 90.667,341.321 90.667 C 341.420 90.667,341.500 90.586,341.500 90.488 C 341.500 90.257,341.924 89.833,342.155 89.833 C 342.253 89.833,342.333 89.753,342.333 89.655 C 342.333 89.424,342.757 89.000,342.988 89.000 C 343.086 89.000,343.167 88.920,343.167 88.821 C 343.167 88.591,343.591 88.167,343.821 88.167 C 343.920 88.167,344.000 88.086,344.000 87.988 C 344.000 87.757,344.424 87.333,344.655 87.333 C 344.753 87.333,344.833 87.253,344.833 87.155 C 344.833 86.924,345.257 86.500,345.488 86.500 C 345.586 86.500,345.667 86.420,345.667 86.321 C 345.667 86.091,346.091 85.667,346.321 85.667 C 346.420 85.667,346.500 85.586,346.500 85.488 C 346.500 85.257,346.924 84.833,347.155 84.833 C 347.253 84.833,347.333 84.753,347.333 84.655 C 347.333 84.424,347.757 84.000,347.988 84.000 C 348.086 84.000,348.167 83.920,348.167 83.821 C 348.167 83.591,348.591 83.167,348.821 83.167 C 348.920 83.167,349.000 83.086,349.000 82.988 C 349.000 82.757,349.424 82.333,349.655 82.333 C 349.753 82.333,349.833 82.253,349.833 82.155 C 349.833 81.924,350.257 81.500,350.488 81.500 C 350.586 81.500,350.667 81.420,350.667 81.321 C 350.667 81.091,351.091 80.667,351.321 80.667 C 351.420 80.667,351.500 80.586,351.500 80.488 C 351.500 80.257,351.924 79.833,352.155 79.833 C 352.253 79.833,352.333 79.753,352.333 79.655 C 352.333 79.424,352.757 79.000,352.988 79.000 C 353.086 79.000,353.167 78.920,353.167 78.821 C 353.167 78.591,353.591 78.167,353.821 78.167 C 353.920 78.167,354.000 78.086,354.000 77.988 C 354.000 77.757,354.424 77.333,354.655 77.333 C 354.753 77.333,354.833 77.253,354.833 77.155 C 354.833 76.924,355.257 76.500,355.488 76.500 C 355.586 76.500,355.667 76.420,355.667 76.321 C 355.667 76.091,356.091 75.667,356.321 75.667 C 356.420 75.667,356.500 75.554,356.500 75.417 C 356.500 75.279,356.556 75.167,356.625 75.166 C 356.694 75.166,356.727 74.098,356.699 72.791 C 356.671 71.485,356.614 63.707,356.572 55.507 C 356.525 46.106,356.436 40.536,356.333 40.433 C 356.128 40.228,355.667 40.153,355.667 40.325 " stroke="none" fill="#ec3c34" fill-rule="evenodd"></path><path id="path1" d="M6.833 95.834 L 6.833 121.502 34.994 121.499 L 63.154 121.496 63.119 115.706 L 63.083 109.917 43.542 109.874 L 24.000 109.832 24.000 105.416 L 24.000 101.000 43.458 100.980 C 54.160 100.969,62.975 100.970,63.046 100.982 C 63.117 100.993,63.169 98.566,63.162 95.588 C 63.155 92.609,63.097 90.180,63.033 90.189 C 62.969 90.199,54.160 90.197,43.458 90.186 L 24.000 90.167 24.000 85.834 L 24.000 81.501 43.542 81.459 L 63.083 81.417 63.083 75.833 L 63.083 70.250 34.958 70.208 L 6.833 70.166 6.833 95.834 M82.726 70.419 C 82.655 70.605,82.345 70.667,81.482 70.667 C 80.827 70.667,80.333 70.738,80.333 70.833 C 80.333 70.925,80.033 71.000,79.667 71.000 C 79.185 71.000,79.000 71.069,79.000 71.250 C 79.000 71.430,78.816 71.500,78.347 71.500 C 77.988 71.500,77.668 71.578,77.636 71.674 C 77.605 71.770,77.416 71.860,77.217 71.875 C 77.019 71.890,76.870 71.981,76.887 72.076 C 76.903 72.172,76.710 72.274,76.458 72.303 C 76.206 72.332,76.000 72.425,76.000 72.511 C 76.000 72.597,75.861 72.667,75.690 72.667 C 75.520 72.667,75.239 72.854,75.067 73.083 C 74.895 73.313,74.660 73.500,74.544 73.500 C 74.428 73.500,74.333 73.580,74.333 73.679 C 74.333 73.909,73.909 74.333,73.679 74.333 C 73.580 74.333,73.500 74.446,73.500 74.583 C 73.500 74.721,73.425 74.833,73.333 74.833 C 73.242 74.833,73.167 74.946,73.167 75.083 C 73.167 75.221,73.073 75.315,72.958 75.292 C 72.844 75.269,72.769 75.344,72.792 75.458 C 72.815 75.573,72.721 75.667,72.583 75.667 C 72.428 75.667,72.333 75.824,72.333 76.083 C 72.333 76.361,72.241 76.500,72.056 76.500 C 71.903 76.500,71.823 76.545,71.878 76.600 C 71.988 76.711,71.385 77.948,71.149 78.094 C 71.067 78.145,71.000 78.369,71.000 78.593 C 71.000 78.817,70.925 79.000,70.833 79.000 C 70.742 79.000,70.667 79.300,70.667 79.667 C 70.667 80.090,70.595 80.318,70.471 80.292 C 70.351 80.266,70.248 80.541,70.206 81.000 C 70.169 81.412,70.069 81.775,69.986 81.806 C 69.771 81.884,69.786 89.333,70.000 89.333 C 70.092 89.333,70.167 89.708,70.167 90.167 C 70.167 90.796,70.228 91.000,70.417 91.000 C 70.596 91.000,70.667 91.184,70.667 91.653 C 70.667 92.012,70.745 92.332,70.841 92.364 C 70.936 92.395,71.027 92.584,71.042 92.783 C 71.057 92.981,71.146 93.130,71.239 93.113 C 71.332 93.097,71.437 93.271,71.471 93.500 C 71.506 93.729,71.606 93.962,71.695 94.017 C 71.783 94.072,71.879 94.259,71.908 94.433 C 71.937 94.608,72.045 94.731,72.147 94.708 C 72.250 94.685,72.333 94.764,72.333 94.883 C 72.333 95.266,72.743 95.997,72.958 95.999 C 73.073 95.999,73.167 96.080,73.167 96.179 C 73.167 96.409,73.591 96.833,73.821 96.833 C 73.920 96.833,74.000 96.946,74.000 97.083 C 74.000 97.221,74.117 97.333,74.260 97.333 C 74.403 97.333,74.473 97.408,74.417 97.500 C 74.360 97.592,74.431 97.667,74.573 97.667 C 74.716 97.667,74.833 97.779,74.833 97.917 C 74.833 98.054,74.946 98.167,75.083 98.167 C 75.221 98.167,75.333 98.242,75.333 98.333 C 75.333 98.425,75.483 98.500,75.667 98.500 C 75.852 98.500,76.000 98.611,76.000 98.750 C 76.000 98.906,76.157 99.000,76.417 99.000 C 76.646 99.000,76.833 99.075,76.833 99.167 C 76.833 99.258,77.058 99.333,77.333 99.333 C 77.635 99.333,77.817 99.413,77.792 99.534 C 77.748 99.746,77.853 99.779,78.677 99.813 C 78.957 99.824,79.149 99.895,79.102 99.969 C 79.056 100.044,79.361 100.123,79.780 100.145 C 80.199 100.166,80.650 100.293,80.783 100.425 C 80.953 100.595,81.414 100.667,82.345 100.667 C 83.115 100.667,83.667 100.736,83.667 100.833 C 83.667 100.943,87.087 101.000,93.595 101.000 C 101.607 101.000,103.566 101.043,103.744 101.220 C 103.891 101.367,104.511 101.454,105.597 101.480 C 106.495 101.501,107.309 101.569,107.406 101.630 C 107.504 101.691,107.684 101.756,107.806 101.774 C 107.929 101.793,108.160 101.926,108.319 102.071 C 108.479 102.215,108.665 102.333,108.733 102.333 C 108.938 102.333,109.282 102.742,109.406 103.133 C 109.470 103.335,109.592 103.500,109.678 103.500 C 109.763 103.500,109.833 103.688,109.833 103.917 C 109.833 104.146,109.908 104.333,110.000 104.333 C 110.096 104.333,110.167 104.861,110.167 105.583 C 110.167 106.306,110.096 106.833,110.000 106.833 C 109.908 106.833,109.833 106.982,109.833 107.163 C 109.833 107.344,109.420 107.919,108.915 108.440 L 107.997 109.388 106.245 109.382 C 104.931 109.377,104.461 109.433,104.365 109.604 C 104.259 109.794,101.480 109.839,87.660 109.874 L 71.083 109.917 71.039 115.480 C 71.008 119.464,71.050 121.109,71.186 121.273 C 71.484 121.632,114.969 121.607,115.107 121.248 C 115.179 121.060,115.497 121.000,116.421 121.000 C 117.091 121.000,117.664 120.928,117.694 120.841 C 117.725 120.753,118.035 120.662,118.383 120.639 C 118.732 120.616,119.097 120.500,119.195 120.382 C 119.294 120.264,119.552 120.167,119.770 120.167 C 119.988 120.167,120.167 120.092,120.167 120.000 C 120.167 119.908,120.432 119.833,120.755 119.833 C 121.125 119.833,121.380 119.740,121.440 119.583 C 121.492 119.446,121.665 119.333,121.822 119.333 C 121.980 119.333,122.285 119.146,122.500 118.917 C 122.715 118.688,123.028 118.500,123.196 118.500 C 123.363 118.500,123.500 118.425,123.500 118.333 C 123.500 118.242,123.612 118.167,123.750 118.167 C 123.888 118.167,124.000 118.054,124.000 117.917 C 124.000 117.778,124.148 117.667,124.333 117.667 C 124.517 117.667,124.667 117.592,124.667 117.500 C 124.667 117.408,124.779 117.333,124.917 117.333 C 125.054 117.333,125.158 117.277,125.147 117.208 C 125.094 116.874,125.187 116.671,125.375 116.708 C 125.490 116.731,125.565 116.656,125.542 116.542 C 125.519 116.427,125.577 116.333,125.671 116.333 C 125.765 116.333,125.915 116.141,126.004 115.907 C 126.093 115.672,126.243 115.528,126.337 115.586 C 126.431 115.644,126.498 115.630,126.484 115.554 C 126.425 115.214,126.515 114.989,126.671 115.086 C 126.765 115.144,126.831 115.130,126.818 115.054 C 126.747 114.647,126.863 114.333,127.083 114.333 C 127.233 114.333,127.333 114.180,127.333 113.950 C 127.333 113.739,127.408 113.492,127.499 113.401 C 127.590 113.310,127.681 113.038,127.701 112.796 C 127.721 112.555,127.815 112.370,127.910 112.387 C 128.006 112.403,128.108 112.192,128.138 111.917 C 128.168 111.642,128.262 111.345,128.346 111.258 C 128.431 111.171,128.500 110.703,128.500 110.217 C 128.500 109.553,128.561 109.333,128.743 109.333 C 128.949 109.333,128.987 108.762,128.987 105.598 C 128.987 102.527,128.943 101.827,128.743 101.661 C 128.592 101.535,128.500 101.157,128.500 100.660 C 128.500 100.221,128.426 99.836,128.335 99.806 C 128.244 99.775,128.152 99.539,128.131 99.281 C 128.110 99.023,127.996 98.733,127.879 98.636 C 127.762 98.539,127.667 98.287,127.667 98.077 C 127.667 97.867,127.588 97.668,127.491 97.636 C 127.394 97.604,127.291 97.429,127.260 97.247 C 127.230 97.065,127.122 96.935,127.020 96.958 C 126.917 96.981,126.831 96.831,126.828 96.625 C 126.822 96.195,126.470 95.667,126.190 95.667 C 126.085 95.667,126.000 95.522,126.000 95.346 C 126.000 95.022,125.104 94.000,124.821 94.000 C 124.736 94.000,124.685 93.906,124.708 93.792 C 124.731 93.677,124.656 93.602,124.542 93.625 C 124.427 93.648,124.333 93.554,124.333 93.417 C 124.333 93.279,124.255 93.167,124.160 93.167 C 123.996 93.167,123.808 93.036,123.256 92.542 C 123.128 92.427,122.943 92.333,122.845 92.333 C 122.747 92.333,122.667 92.260,122.667 92.170 C 122.667 92.080,122.479 91.959,122.250 91.902 C 122.021 91.844,121.833 91.730,121.833 91.649 C 121.833 91.567,121.652 91.500,121.430 91.500 C 120.925 91.500,120.479 91.335,120.574 91.183 C 120.613 91.119,120.369 91.048,120.031 91.026 C 119.693 91.004,119.392 90.914,119.361 90.826 C 119.331 90.738,118.824 90.667,118.236 90.667 C 117.469 90.667,117.178 90.608,117.208 90.458 C 117.238 90.308,116.855 90.235,115.833 90.195 C 115.054 90.165,114.392 90.072,114.361 89.987 C 114.328 89.895,109.916 89.833,103.413 89.833 C 95.359 89.833,92.489 89.783,92.401 89.641 C 92.322 89.514,92.356 89.494,92.500 89.583 C 92.634 89.666,92.678 89.653,92.613 89.548 C 92.555 89.454,92.132 89.369,91.673 89.358 C 90.800 89.339,90.167 89.066,90.167 88.710 C 90.167 88.594,90.050 88.500,89.907 88.500 C 89.764 88.500,89.693 88.425,89.750 88.333 C 89.807 88.242,89.749 88.167,89.621 88.167 C 89.355 88.167,89.038 87.607,88.961 87.000 C 88.932 86.771,88.817 86.602,88.704 86.625 C 88.558 86.655,88.500 86.333,88.500 85.500 C 88.500 84.574,88.552 84.333,88.750 84.333 C 88.895 84.333,89.000 84.182,89.000 83.974 C 89.000 83.532,90.223 82.333,90.674 82.333 C 90.853 82.333,91.000 82.221,91.000 82.083 C 91.000 81.883,91.250 81.833,92.250 81.833 C 92.972 81.833,93.500 81.763,93.500 81.667 C 93.500 81.557,98.972 81.500,109.583 81.500 L 125.667 81.500 125.667 75.832 L 125.667 70.164 104.244 70.168 C 85.451 70.171,82.809 70.202,82.726 70.419 M143.781 70.410 C 143.642 70.548,143.148 70.664,142.597 70.686 C 142.076 70.707,141.612 70.786,141.566 70.862 C 141.519 70.938,141.220 71.000,140.902 71.000 C 140.541 71.000,140.287 71.094,140.227 71.250 C 140.172 71.394,139.922 71.500,139.637 71.500 C 139.365 71.500,139.034 71.609,138.900 71.743 C 138.766 71.877,138.534 71.939,138.385 71.881 C 138.201 71.811,138.152 71.841,138.233 71.973 C 138.366 72.188,137.690 72.524,137.433 72.371 C 137.350 72.322,137.335 72.368,137.401 72.474 C 137.475 72.595,137.398 72.667,137.194 72.667 C 137.015 72.667,136.826 72.779,136.773 72.917 C 136.720 73.054,136.537 73.167,136.367 73.167 C 136.196 73.167,135.956 73.354,135.833 73.583 C 135.711 73.813,135.542 74.000,135.459 74.000 C 135.278 74.000,134.000 75.344,134.000 75.534 C 134.000 75.607,133.883 75.667,133.740 75.667 C 133.597 75.667,133.527 75.742,133.584 75.835 C 133.641 75.927,133.571 76.047,133.427 76.102 C 133.284 76.157,133.167 76.336,133.167 76.500 C 133.167 76.664,133.054 76.841,132.917 76.894 C 132.779 76.946,132.667 77.137,132.667 77.318 C 132.667 77.499,132.608 77.683,132.536 77.727 C 132.465 77.772,132.387 78.056,132.364 78.359 C 132.341 78.662,132.212 78.971,132.078 79.046 C 131.921 79.134,131.833 79.445,131.833 79.915 C 131.833 80.318,131.758 80.693,131.667 80.750 C 131.575 80.807,131.500 81.366,131.500 81.992 C 131.500 82.827,131.436 83.155,131.261 83.223 C 130.956 83.340,130.899 88.251,131.200 88.438 C 131.320 88.511,131.337 88.474,131.250 88.333 C 131.161 88.189,131.180 88.155,131.308 88.234 C 131.427 88.308,131.500 88.856,131.500 89.677 C 131.500 90.448,131.570 91.000,131.667 91.000 C 131.758 91.000,131.833 91.265,131.833 91.589 C 131.833 91.958,131.926 92.213,132.083 92.273 C 132.221 92.326,132.333 92.548,132.333 92.768 C 132.333 92.987,132.408 93.167,132.500 93.167 C 132.592 93.167,132.667 93.354,132.667 93.583 C 132.667 93.843,132.761 94.000,132.917 94.000 C 133.074 94.000,133.167 94.159,133.167 94.427 C 133.167 94.668,133.239 94.808,133.333 94.750 C 133.427 94.692,133.500 94.821,133.500 95.042 C 133.500 95.289,133.690 95.578,134.005 95.810 C 134.285 96.017,134.459 96.265,134.396 96.368 C 134.333 96.469,134.355 96.506,134.445 96.451 C 134.617 96.344,135.167 96.890,135.167 97.169 C 135.167 97.259,135.247 97.333,135.345 97.333 C 135.576 97.333,136.000 97.757,136.000 97.988 C 136.000 98.086,136.112 98.167,136.250 98.167 C 136.387 98.167,136.500 98.242,136.500 98.333 C 136.500 98.425,136.688 98.500,136.917 98.500 C 137.146 98.500,137.333 98.597,137.333 98.715 C 137.333 98.833,137.495 98.941,137.693 98.956 C 137.891 98.971,138.101 99.060,138.158 99.153 C 138.216 99.246,138.499 99.341,138.787 99.363 C 139.075 99.385,139.297 99.474,139.280 99.561 C 139.264 99.649,139.550 99.751,139.917 99.790 C 140.283 99.828,140.655 99.928,140.742 100.013 C 140.829 100.097,141.214 100.167,141.599 100.167 C 142.066 100.167,142.329 100.249,142.394 100.417 C 142.467 100.609,142.784 100.667,143.755 100.667 C 144.529 100.667,144.981 100.729,144.920 100.828 C 144.856 100.932,148.389 100.993,154.771 100.997 C 162.410 101.003,164.781 101.053,164.976 101.211 C 165.186 101.381,165.208 101.373,165.103 101.167 C 165.009 100.983,165.034 100.988,165.198 101.186 C 165.370 101.393,165.768 101.463,166.919 101.485 C 167.743 101.501,168.442 101.585,168.472 101.673 C 168.503 101.761,168.708 101.833,168.928 101.833 C 169.462 101.833,170.652 102.672,170.660 103.054 C 170.664 103.221,170.776 103.466,170.910 103.600 C 171.043 103.734,171.109 103.956,171.056 104.095 C 170.995 104.254,171.044 104.329,171.188 104.298 C 171.364 104.261,171.428 104.565,171.465 105.627 C 171.500 106.606,171.458 106.992,171.321 106.961 C 171.214 106.936,171.104 107.059,171.075 107.233 C 171.046 107.407,170.938 107.602,170.836 107.665 C 170.734 107.728,170.638 107.939,170.623 108.133 C 170.609 108.327,170.563 108.452,170.522 108.411 C 170.413 108.302,169.991 108.684,170.074 108.818 C 170.112 108.880,169.987 108.943,169.795 108.957 C 169.603 108.971,169.398 109.062,169.339 109.157 C 169.280 109.253,168.722 109.346,168.099 109.363 C 167.339 109.384,166.939 109.466,166.882 109.614 C 166.813 109.793,163.675 109.833,149.576 109.833 L 132.355 109.833 132.391 111.042 C 132.411 111.706,132.488 112.400,132.562 112.583 C 132.669 112.846,132.660 112.864,132.518 112.667 C 132.407 112.512,132.337 112.492,132.336 112.615 C 132.334 112.724,132.408 112.860,132.500 112.917 C 132.604 112.981,132.667 114.613,132.667 117.261 L 132.667 121.502 154.574 121.499 C 173.727 121.496,176.512 121.464,176.729 121.248 C 176.888 121.088,177.304 121.000,177.895 121.000 C 178.400 121.000,178.860 120.925,178.917 120.833 C 178.973 120.742,179.272 120.667,179.581 120.667 C 179.890 120.667,180.255 120.554,180.393 120.417 C 180.530 120.279,180.831 120.167,181.062 120.167 C 181.292 120.167,181.527 120.092,181.583 120.000 C 181.640 119.908,181.865 119.833,182.083 119.833 C 182.302 119.833,182.534 119.747,182.599 119.641 C 182.678 119.514,182.644 119.494,182.500 119.583 C 182.356 119.673,182.322 119.653,182.401 119.526 C 182.466 119.420,182.740 119.333,183.010 119.333 C 183.279 119.333,183.500 119.258,183.500 119.167 C 183.500 119.075,183.604 119.000,183.732 119.000 C 183.860 119.000,184.008 118.888,184.060 118.750 C 184.113 118.612,184.296 118.500,184.467 118.500 C 184.637 118.500,184.877 118.313,185.000 118.083 C 185.123 117.854,185.364 117.667,185.536 117.667 C 185.938 117.667,187.204 116.412,187.512 115.708 C 187.642 115.410,187.826 115.167,187.922 115.167 C 188.018 115.167,188.108 114.999,188.124 114.794 C 188.139 114.589,188.230 114.395,188.326 114.364 C 188.422 114.332,188.500 114.124,188.500 113.903 C 188.500 113.656,188.597 113.500,188.750 113.500 C 188.906 113.500,189.000 113.343,189.000 113.083 C 189.000 112.854,189.075 112.667,189.167 112.667 C 189.258 112.667,189.333 112.413,189.333 112.104 C 189.333 111.794,189.446 111.447,189.583 111.333 C 189.749 111.196,189.833 110.823,189.833 110.230 C 189.833 109.725,189.908 109.333,190.005 109.333 C 190.119 109.333,190.171 108.004,190.161 105.414 C 190.151 103.036,190.083 101.532,189.989 101.590 C 189.900 101.645,189.833 101.291,189.833 100.760 C 189.833 100.047,189.776 99.833,189.583 99.833 C 189.402 99.833,189.333 99.647,189.333 99.157 C 189.333 98.780,189.264 98.523,189.177 98.577 C 189.092 98.630,188.998 98.428,188.969 98.128 C 188.932 97.746,188.842 97.600,188.667 97.639 C 188.529 97.669,188.470 97.641,188.535 97.577 C 188.599 97.512,188.509 97.177,188.333 96.833 C 188.158 96.489,188.067 96.149,188.132 96.077 C 188.197 96.005,188.160 95.998,188.050 96.061 C 187.838 96.183,187.438 95.617,187.613 95.443 C 187.669 95.387,187.592 95.294,187.441 95.236 C 187.291 95.179,187.210 95.065,187.261 94.983 C 187.312 94.900,187.236 94.833,187.093 94.833 C 186.950 94.833,186.833 94.734,186.833 94.611 C 186.833 94.489,186.646 94.289,186.417 94.167 C 186.188 94.044,186.000 93.876,186.000 93.793 C 186.000 93.585,185.562 93.167,185.345 93.167 C 185.247 93.167,185.167 93.068,185.167 92.948 C 185.167 92.827,184.907 92.627,184.590 92.503 C 184.273 92.378,183.976 92.177,183.929 92.055 C 183.882 91.933,183.696 91.833,183.515 91.833 C 183.334 91.833,183.140 91.758,183.083 91.667 C 183.027 91.575,182.722 91.500,182.407 91.500 C 182.008 91.500,181.833 91.424,181.833 91.250 C 181.833 91.069,181.648 91.000,181.167 91.000 C 180.800 91.000,180.500 90.925,180.500 90.833 C 180.500 90.741,180.056 90.667,179.500 90.667 C 178.768 90.667,178.500 90.606,178.500 90.440 C 178.500 90.273,178.184 90.206,177.293 90.183 C 176.629 90.166,176.014 90.081,175.926 89.993 C 175.828 89.895,171.754 89.833,165.318 89.833 C 156.690 89.833,154.854 89.794,154.782 89.608 C 154.723 89.454,154.338 89.373,153.562 89.351 C 152.938 89.334,152.388 89.256,152.339 89.177 C 152.290 89.098,152.063 89.006,151.833 88.971 C 151.601 88.936,151.437 88.813,151.462 88.692 C 151.488 88.573,151.445 88.514,151.367 88.562 C 151.208 88.661,150.786 88.218,150.615 87.774 C 150.553 87.612,150.442 87.516,150.368 87.562 C 150.294 87.608,150.215 87.369,150.192 87.031 C 150.169 86.694,150.079 86.346,149.992 86.259 C 149.781 86.048,149.788 85.167,150.000 85.167 C 150.092 85.167,150.167 84.912,150.167 84.601 C 150.167 84.252,150.262 83.999,150.417 83.940 C 150.554 83.887,150.667 83.691,150.667 83.505 C 150.667 83.319,150.742 83.167,150.833 83.167 C 150.925 83.167,151.000 83.054,151.000 82.917 C 151.000 82.779,151.117 82.667,151.260 82.667 C 151.403 82.667,151.477 82.597,151.424 82.512 C 151.372 82.427,151.498 82.304,151.706 82.240 C 151.913 82.175,152.123 82.060,152.173 81.984 C 152.222 81.908,153.590 81.837,155.213 81.826 C 156.836 81.815,158.207 81.737,158.259 81.653 C 158.315 81.562,164.249 81.500,172.843 81.500 L 187.333 81.500 187.333 75.832 L 187.333 70.164 165.676 70.168 C 147.131 70.171,143.985 70.206,143.781 70.410 M212.667 70.417 C 212.667 70.554,212.592 70.667,212.500 70.667 C 212.408 70.667,212.333 70.854,212.333 71.083 C 212.333 71.343,212.239 71.500,212.083 71.500 C 211.928 71.500,211.833 71.657,211.833 71.917 C 211.833 72.146,211.758 72.333,211.667 72.333 C 211.575 72.333,211.500 72.561,211.500 72.839 C 211.500 73.134,211.396 73.384,211.250 73.440 C 211.106 73.495,211.000 73.744,211.000 74.028 C 211.000 74.313,210.930 74.476,210.833 74.417 C 210.740 74.359,210.667 74.492,210.667 74.722 C 210.667 74.947,210.554 75.174,210.417 75.227 C 210.279 75.280,210.167 75.513,210.167 75.745 C 210.167 75.977,210.092 76.167,210.000 76.167 C 209.908 76.167,209.833 76.429,209.833 76.750 C 209.833 77.157,209.758 77.333,209.583 77.333 C 209.444 77.333,209.333 77.482,209.333 77.669 C 209.333 77.854,209.264 78.135,209.179 78.294 C 209.094 78.453,208.982 78.719,208.930 78.886 C 208.874 79.065,208.756 79.138,208.640 79.067 C 208.510 78.987,208.477 79.033,208.542 79.204 C 208.597 79.346,208.541 79.605,208.418 79.780 C 208.296 79.955,208.170 80.320,208.139 80.591 C 208.109 80.862,208.005 81.070,207.910 81.053 C 207.814 81.037,207.724 81.186,207.709 81.384 C 207.694 81.583,207.603 81.771,207.507 81.803 C 207.412 81.835,207.333 82.034,207.333 82.246 C 207.333 82.458,207.221 82.674,207.083 82.727 C 206.946 82.780,206.833 83.008,206.833 83.235 C 206.833 83.462,206.758 83.693,206.667 83.750 C 206.575 83.807,206.500 84.074,206.500 84.343 C 206.500 84.668,206.416 84.833,206.250 84.833 C 206.096 84.833,206.000 84.990,206.000 85.240 C 206.000 85.464,205.925 85.693,205.833 85.750 C 205.742 85.807,205.667 86.036,205.667 86.260 C 205.667 86.493,205.579 86.649,205.462 86.625 C 205.350 86.602,205.231 86.771,205.198 87.000 C 205.165 87.229,205.070 87.488,204.986 87.575 C 204.902 87.662,204.833 87.906,204.833 88.117 C 204.833 88.346,204.733 88.500,204.583 88.500 C 204.428 88.500,204.333 88.657,204.333 88.917 C 204.333 89.146,204.258 89.333,204.167 89.333 C 204.075 89.333,204.000 89.512,204.000 89.730 C 204.000 89.948,203.887 90.219,203.750 90.333 C 203.612 90.447,203.500 90.715,203.500 90.927 C 203.500 91.140,203.425 91.360,203.333 91.417 C 203.242 91.473,203.167 91.703,203.167 91.927 C 203.167 92.150,203.070 92.333,202.952 92.333 C 202.834 92.333,202.725 92.501,202.710 92.706 C 202.694 92.911,202.603 93.105,202.507 93.136 C 202.412 93.168,202.333 93.344,202.333 93.526 C 202.333 93.708,202.221 93.970,202.083 94.107 C 201.946 94.245,201.833 94.539,201.833 94.762 C 201.833 94.985,201.758 95.167,201.667 95.167 C 201.575 95.167,201.500 95.392,201.500 95.667 C 201.500 95.949,201.419 96.149,201.314 96.125 C 201.211 96.102,201.104 96.226,201.075 96.400 C 201.046 96.574,200.961 96.762,200.886 96.817 C 200.811 96.872,200.724 97.067,200.692 97.250 C 200.661 97.433,200.551 97.685,200.448 97.810 C 200.346 97.935,200.236 98.235,200.204 98.477 C 200.172 98.719,200.076 98.942,199.990 98.972 C 199.904 99.003,199.833 99.209,199.833 99.431 C 199.833 99.652,199.737 99.833,199.619 99.833 C 199.501 99.833,199.392 100.001,199.376 100.206 C 199.361 100.411,199.270 100.605,199.174 100.636 C 199.078 100.668,199.000 100.844,199.000 101.026 C 199.000 101.208,198.887 101.470,198.750 101.607 C 198.612 101.745,198.500 102.039,198.500 102.262 C 198.500 102.485,198.425 102.667,198.333 102.667 C 198.242 102.667,198.167 102.846,198.167 103.066 C 198.167 103.285,198.054 103.508,197.917 103.560 C 197.779 103.613,197.667 103.809,197.667 103.995 C 197.667 104.181,197.608 104.333,197.535 104.333 C 197.463 104.333,197.392 104.497,197.377 104.697 C 197.362 104.897,197.233 105.126,197.091 105.205 C 196.949 105.285,196.833 105.567,196.833 105.832 C 196.833 106.097,196.758 106.360,196.667 106.417 C 196.575 106.473,196.500 106.703,196.500 106.927 C 196.500 107.150,196.403 107.333,196.285 107.333 C 196.167 107.333,196.058 107.501,196.043 107.706 C 196.027 107.911,195.936 108.105,195.841 108.136 C 195.745 108.168,195.667 108.409,195.667 108.671 C 195.667 108.933,195.580 109.201,195.474 109.266 C 195.347 109.345,195.327 109.311,195.417 109.167 C 195.506 109.022,195.486 108.989,195.359 109.067 C 195.253 109.133,195.167 109.354,195.167 109.560 C 195.167 109.765,195.098 110.005,195.014 110.092 C 194.930 110.179,194.835 110.438,194.802 110.667 C 194.769 110.896,194.666 111.070,194.572 111.053 C 194.479 111.037,194.390 111.186,194.375 111.384 C 194.360 111.583,194.270 111.771,194.174 111.803 C 194.078 111.835,194.000 112.034,194.000 112.246 C 194.000 112.458,193.887 112.674,193.750 112.727 C 193.612 112.780,193.500 113.008,193.500 113.235 C 193.500 113.462,193.425 113.693,193.333 113.750 C 193.242 113.807,193.167 114.074,193.167 114.343 C 193.167 114.668,193.082 114.833,192.917 114.833 C 192.763 114.833,192.667 114.990,192.667 115.240 C 192.667 115.464,192.592 115.693,192.500 115.750 C 192.408 115.807,192.333 115.991,192.333 116.159 C 192.333 116.327,192.210 116.512,192.059 116.569 C 191.909 116.627,191.831 116.720,191.887 116.776 C 191.943 116.832,191.901 117.036,191.794 117.230 C 191.687 117.424,191.576 117.733,191.548 117.917 C 191.464 118.456,191.345 118.693,191.202 118.605 C 191.129 118.560,191.057 118.686,191.042 118.884 C 191.027 119.083,190.936 119.271,190.841 119.303 C 190.745 119.335,190.667 119.534,190.667 119.746 C 190.667 119.958,190.567 120.169,190.444 120.216 C 190.322 120.263,190.212 120.571,190.199 120.901 L 190.177 121.500 199.327 121.500 L 208.478 121.500 208.531 121.042 C 208.560 120.790,208.662 120.597,208.757 120.613 C 208.853 120.630,208.943 120.487,208.957 120.295 C 208.971 120.103,209.043 119.902,209.117 119.848 C 209.190 119.794,209.276 119.563,209.308 119.333 C 209.339 119.104,209.431 118.892,209.511 118.863 C 209.591 118.833,209.704 118.552,209.763 118.238 C 209.822 117.924,209.937 117.667,210.019 117.667 C 210.100 117.667,210.167 117.487,210.167 117.268 C 210.167 117.048,210.279 116.826,210.417 116.773 C 210.554 116.720,210.667 116.540,210.667 116.372 C 210.667 116.204,210.736 115.995,210.821 115.908 C 210.905 115.821,210.999 115.525,211.029 115.250 C 211.060 114.960,211.171 114.767,211.292 114.792 C 211.406 114.815,211.491 114.777,211.480 114.708 C 211.415 114.295,211.525 113.829,211.667 113.917 C 211.760 113.975,211.833 113.841,211.833 113.611 C 211.833 113.386,211.946 113.159,212.083 113.106 C 212.221 113.054,212.333 112.858,212.333 112.672 C 212.333 112.486,212.408 112.333,212.500 112.333 C 212.592 112.333,212.667 112.221,212.667 112.083 C 212.667 111.863,214.176 111.833,225.250 111.833 C 235.228 111.833,237.825 111.876,237.792 112.042 C 237.769 112.156,237.844 112.231,237.958 112.208 C 238.088 112.182,238.167 112.356,238.167 112.667 C 238.167 112.942,238.237 113.167,238.323 113.167 C 238.409 113.167,238.502 113.410,238.531 113.708 C 238.562 114.033,238.667 114.233,238.792 114.208 C 238.913 114.184,239.000 114.337,239.000 114.573 C 239.000 114.797,239.075 115.027,239.167 115.083 C 239.258 115.140,239.333 115.369,239.333 115.593 C 239.333 115.844,239.429 116.000,239.583 116.000 C 239.748 116.000,239.833 116.165,239.833 116.481 C 239.833 116.745,239.942 117.171,240.075 117.427 C 240.208 117.683,240.271 117.966,240.216 118.055 C 240.160 118.145,240.197 118.168,240.296 118.106 C 240.531 117.961,240.649 118.165,240.697 118.799 C 240.718 119.080,240.795 119.274,240.868 119.229 C 240.941 119.184,241.000 119.376,241.000 119.657 C 241.000 119.989,241.083 120.167,241.240 120.167 C 241.397 120.167,241.498 120.383,241.532 120.792 L 241.583 121.417 251.292 121.462 L 261.000 121.507 261.000 121.120 C 261.000 120.907,260.906 120.632,260.792 120.509 C 260.622 120.327,260.630 120.309,260.833 120.417 C 261.036 120.524,261.044 120.507,260.875 120.324 C 260.760 120.201,260.667 119.963,260.667 119.795 C 260.667 119.627,260.554 119.446,260.417 119.394 C 260.279 119.341,260.167 119.114,260.167 118.889 C 260.167 118.659,260.094 118.525,260.000 118.583 C 259.903 118.643,259.833 118.480,259.833 118.194 C 259.833 117.911,259.727 117.662,259.583 117.606 C 259.437 117.550,259.333 117.301,259.333 117.005 C 259.333 116.727,259.258 116.500,259.167 116.500 C 259.075 116.500,259.000 116.313,259.000 116.083 C 259.000 115.824,258.906 115.667,258.750 115.667 C 258.594 115.667,258.500 115.509,258.500 115.250 C 258.500 115.021,258.425 114.833,258.333 114.833 C 258.242 114.833,258.167 114.654,258.167 114.434 C 258.167 114.215,258.054 113.992,257.917 113.940 C 257.779 113.887,257.667 113.706,257.667 113.539 C 257.667 113.371,257.573 113.132,257.458 113.009 C 257.289 112.827,257.297 112.809,257.500 112.917 C 257.703 113.024,257.711 113.007,257.542 112.824 C 257.427 112.701,257.333 112.463,257.333 112.295 C 257.333 112.127,257.221 111.946,257.083 111.894 C 256.946 111.841,256.833 111.614,256.833 111.389 C 256.833 111.159,256.760 111.025,256.667 111.083 C 256.570 111.143,256.500 110.981,256.500 110.697 C 256.500 110.428,256.387 110.114,256.250 110.000 C 256.112 109.886,256.000 109.614,256.000 109.396 C 256.000 109.178,255.925 109.000,255.833 109.000 C 255.742 109.000,255.667 108.813,255.667 108.583 C 255.667 108.324,255.572 108.167,255.417 108.167 C 255.261 108.167,255.167 108.009,255.167 107.750 C 255.167 107.521,255.100 107.333,255.019 107.333 C 254.937 107.333,254.822 107.076,254.763 106.762 C 254.704 106.448,254.586 106.167,254.500 106.137 C 254.413 106.108,254.318 105.933,254.288 105.750 C 254.258 105.567,254.131 105.229,254.005 105.000 C 253.880 104.771,253.771 104.546,253.764 104.500 C 253.756 104.454,253.694 104.435,253.625 104.458 C 253.556 104.481,253.500 104.275,253.500 104.000 C 253.500 103.725,253.430 103.500,253.344 103.500 C 253.259 103.500,253.165 103.294,253.136 103.042 C 253.107 102.790,253.005 102.597,252.910 102.613 C 252.756 102.640,252.691 102.431,252.629 101.716 C 252.619 101.605,252.549 101.553,252.472 101.601 C 252.396 101.648,252.333 101.457,252.333 101.177 C 252.333 100.834,252.251 100.667,252.083 100.667 C 251.928 100.667,251.833 100.509,251.833 100.250 C 251.833 100.021,251.767 99.833,251.685 99.833 C 251.604 99.833,251.488 99.571,251.428 99.250 C 251.367 98.929,251.247 98.667,251.159 98.667 C 251.072 98.667,251.000 98.494,251.000 98.283 C 251.000 98.072,250.920 97.820,250.822 97.722 C 250.724 97.624,250.620 97.403,250.591 97.230 C 250.563 97.058,250.455 96.935,250.353 96.958 C 250.248 96.982,250.167 96.782,250.167 96.500 C 250.167 96.225,250.092 96.000,250.000 96.000 C 249.908 96.000,249.833 95.818,249.833 95.595 C 249.833 95.373,249.721 95.078,249.583 94.940 C 249.446 94.803,249.333 94.535,249.333 94.345 C 249.333 94.155,249.258 94.000,249.167 94.000 C 249.075 94.000,249.000 93.813,249.000 93.583 C 249.000 93.324,248.906 93.167,248.750 93.167 C 248.597 93.167,248.500 93.011,248.500 92.764 C 248.500 92.542,248.430 92.336,248.344 92.306 C 248.258 92.275,248.161 92.052,248.129 91.810 C 248.097 91.568,247.976 91.255,247.860 91.115 C 247.743 90.975,247.636 90.704,247.622 90.513 C 247.607 90.323,247.537 90.167,247.465 90.167 C 247.392 90.167,247.333 90.014,247.333 89.828 C 247.333 89.642,247.221 89.446,247.083 89.394 C 246.946 89.341,246.833 89.118,246.833 88.899 C 246.833 88.679,246.758 88.500,246.667 88.500 C 246.575 88.500,246.500 88.279,246.500 88.010 C 246.500 87.740,246.413 87.466,246.308 87.401 C 246.180 87.322,246.161 87.356,246.250 87.500 C 246.339 87.644,246.320 87.678,246.192 87.599 C 246.087 87.534,246.000 87.266,246.000 87.004 C 246.000 86.742,245.922 86.502,245.826 86.470 C 245.730 86.438,245.639 86.244,245.624 86.039 C 245.608 85.834,245.499 85.667,245.381 85.667 C 245.263 85.667,245.167 85.484,245.167 85.260 C 245.167 85.036,245.092 84.807,245.000 84.750 C 244.908 84.693,244.833 84.489,244.833 84.295 C 244.833 84.101,244.717 83.814,244.574 83.657 C 244.432 83.499,244.303 83.212,244.289 83.019 C 244.274 82.825,244.203 82.667,244.131 82.667 C 244.059 82.667,244.000 82.514,244.000 82.328 C 244.000 82.142,243.887 81.946,243.750 81.894 C 243.612 81.841,243.500 81.618,243.500 81.399 C 243.500 81.179,243.425 81.000,243.333 81.000 C 243.242 81.000,243.167 80.779,243.167 80.510 C 243.167 80.240,243.080 79.966,242.974 79.901 C 242.847 79.822,242.827 79.856,242.917 80.000 C 243.006 80.144,242.986 80.178,242.859 80.099 C 242.753 80.034,242.667 79.766,242.667 79.504 C 242.667 79.242,242.588 79.002,242.493 78.970 C 242.397 78.938,242.306 78.744,242.290 78.539 C 242.275 78.334,242.166 78.167,242.048 78.167 C 241.922 78.167,241.833 77.965,241.833 77.677 C 241.833 77.407,241.758 77.140,241.667 77.083 C 241.575 77.027,241.500 76.795,241.500 76.568 C 241.500 76.342,241.387 76.113,241.250 76.060 C 241.112 76.008,241.000 75.791,241.000 75.579 C 241.000 75.368,240.922 75.168,240.826 75.136 C 240.730 75.105,240.640 74.916,240.625 74.717 C 240.610 74.519,240.524 74.370,240.434 74.387 C 240.344 74.403,240.243 74.267,240.210 74.083 C 240.177 73.900,240.082 73.600,240.000 73.417 C 239.918 73.233,239.823 72.933,239.790 72.750 C 239.757 72.567,239.641 72.435,239.532 72.458 C 239.360 72.494,239.244 72.037,239.318 71.613 C 239.331 71.537,239.265 71.523,239.171 71.581 C 239.077 71.639,239.000 71.550,239.000 71.383 C 239.000 71.216,238.809 70.874,238.577 70.623 L 238.153 70.167 225.410 70.167 C 214.194 70.167,212.667 70.197,212.667 70.417 M265.167 95.832 L 265.167 121.500 273.750 121.500 L 282.333 121.500 282.333 112.917 L 282.333 104.333 286.550 104.333 C 289.693 104.333,290.824 104.280,290.991 104.125 C 291.171 103.958,291.192 103.958,291.098 104.125 C 291.033 104.240,291.060 104.333,291.157 104.333 C 291.254 104.333,291.333 104.258,291.333 104.167 C 291.333 103.955,295.610 103.940,295.741 104.152 C 295.793 104.235,297.005 104.313,298.435 104.325 C 300.311 104.340,301.096 104.405,301.251 104.560 C 301.369 104.678,301.904 104.792,302.441 104.814 C 302.978 104.835,303.488 104.923,303.575 105.010 C 303.662 105.096,303.906 105.167,304.117 105.167 C 304.334 105.167,304.482 105.257,304.458 105.375 C 304.435 105.490,304.510 105.565,304.625 105.542 C 304.740 105.519,304.833 105.585,304.833 105.689 C 304.833 105.793,305.002 106.039,305.208 106.235 C 305.756 106.756,306.141 107.265,305.858 107.095 C 305.693 106.996,305.702 107.066,305.891 107.354 C 306.034 107.572,306.173 107.825,306.200 107.917 C 306.228 108.008,306.306 108.065,306.375 108.042 C 306.444 108.019,306.500 108.371,306.500 108.823 C 306.500 109.276,306.575 109.693,306.667 109.750 C 306.874 109.878,306.896 117.333,306.689 117.333 C 306.448 117.333,306.459 119.833,306.702 120.132 C 306.865 120.333,306.866 120.367,306.708 120.272 C 306.594 120.203,306.500 120.226,306.500 120.323 C 306.500 120.421,306.575 120.500,306.667 120.500 C 306.758 120.500,306.833 120.725,306.833 121.000 L 306.833 121.500 315.583 121.500 L 324.333 121.500 324.333 114.950 C 324.333 109.941,324.284 108.347,324.125 108.176 C 323.956 107.993,323.963 107.977,324.167 108.091 C 324.370 108.205,324.380 108.185,324.218 107.985 C 324.109 107.850,324.002 107.340,323.979 106.851 C 323.957 106.362,323.840 105.864,323.719 105.743 C 323.599 105.623,323.500 105.262,323.500 104.942 C 323.500 104.623,323.422 104.335,323.326 104.303 C 323.230 104.271,323.140 104.083,323.125 103.884 C 323.110 103.686,323.019 103.537,322.924 103.553 C 322.828 103.570,322.726 103.376,322.697 103.122 C 322.668 102.869,322.574 102.704,322.489 102.757 C 322.403 102.810,322.333 102.713,322.333 102.541 C 322.333 102.369,322.111 102.016,321.839 101.756 C 321.568 101.495,321.392 101.207,321.448 101.115 C 321.505 101.024,321.478 100.994,321.389 101.049 C 321.211 101.159,320.563 100.501,320.632 100.279 C 320.656 100.204,320.608 100.183,320.526 100.234 C 320.444 100.284,320.206 100.102,319.997 99.830 C 319.788 99.557,319.478 99.333,319.308 99.333 C 319.139 99.333,318.994 99.277,318.987 99.208 C 318.980 99.140,318.949 98.952,318.919 98.792 C 318.888 98.631,318.962 98.500,319.084 98.500 C 319.206 98.500,319.332 98.421,319.364 98.324 C 319.396 98.228,319.550 98.130,319.707 98.107 C 319.863 98.084,320.049 98.001,320.120 97.923 C 320.192 97.844,320.145 97.841,320.016 97.916 C 319.858 98.007,319.821 97.989,319.901 97.859 C 319.966 97.753,320.118 97.667,320.239 97.667 C 320.508 97.667,321.500 96.531,321.500 96.223 C 321.500 96.100,321.575 96.000,321.667 96.000 C 321.758 96.000,321.833 95.888,321.833 95.750 C 321.833 95.613,321.917 95.519,322.020 95.542 C 322.122 95.565,322.230 95.435,322.260 95.253 C 322.291 95.071,322.394 94.896,322.491 94.864 C 322.588 94.832,322.667 94.731,322.667 94.641 C 322.667 94.550,322.779 94.364,322.917 94.226 C 323.054 94.089,323.167 93.794,323.167 93.571 C 323.167 93.349,323.242 93.167,323.333 93.167 C 323.425 93.167,323.500 92.988,323.500 92.770 C 323.500 92.552,323.597 92.294,323.715 92.195 C 323.834 92.097,323.950 91.734,323.973 91.388 C 323.996 91.043,324.075 90.720,324.148 90.672 C 324.221 90.623,324.298 90.059,324.320 89.418 C 324.342 88.777,324.442 88.153,324.544 88.031 C 324.797 87.726,324.780 84.621,324.525 84.536 C 324.396 84.493,324.333 83.853,324.333 82.569 C 324.333 81.412,324.268 80.667,324.167 80.667 C 324.075 80.667,324.000 80.301,324.000 79.854 C 324.000 79.334,323.910 78.966,323.750 78.833 C 323.612 78.719,323.500 78.406,323.500 78.136 C 323.500 77.853,323.430 77.690,323.333 77.750 C 323.192 77.838,323.082 77.371,323.147 76.958 C 323.158 76.890,323.077 76.852,322.968 76.875 C 322.858 76.898,322.717 76.692,322.654 76.417 C 322.591 76.142,322.531 75.973,322.520 76.042 C 322.484 76.268,321.833 75.506,321.833 75.237 C 321.833 74.984,320.972 74.000,320.751 74.000 C 320.691 74.000,320.538 73.906,320.411 73.792 C 319.868 73.305,319.672 73.167,319.525 73.167 C 319.439 73.167,319.324 73.049,319.269 72.906 C 319.214 72.763,319.105 72.685,319.026 72.734 C 318.947 72.783,318.740 72.715,318.566 72.583 C 318.392 72.452,318.119 72.342,317.958 72.339 C 317.798 72.336,317.667 72.221,317.667 72.083 C 317.667 71.928,317.509 71.833,317.250 71.833 C 317.021 71.833,316.833 71.763,316.833 71.677 C 316.833 71.591,316.552 71.497,316.208 71.468 C 315.865 71.440,315.597 71.338,315.614 71.242 C 315.631 71.145,315.368 71.048,315.031 71.026 C 314.693 71.004,314.392 70.914,314.361 70.826 C 314.331 70.738,313.784 70.667,313.148 70.667 C 312.277 70.667,311.966 70.605,311.894 70.419 C 311.811 70.201,308.958 70.171,288.483 70.168 L 265.167 70.164 265.167 95.832 M299.000 81.667 C 299.000 81.769,299.782 81.833,301.012 81.833 C 302.578 81.833,303.079 81.889,303.274 82.083 C 303.411 82.221,303.706 82.333,303.929 82.333 C 304.151 82.333,304.333 82.408,304.333 82.500 C 304.333 82.592,304.446 82.667,304.583 82.667 C 304.721 82.667,304.833 82.747,304.833 82.845 C 304.833 83.076,305.257 83.500,305.488 83.500 C 305.586 83.500,305.667 83.606,305.667 83.736 C 305.667 83.866,305.745 83.998,305.841 84.030 C 305.936 84.062,306.027 84.251,306.042 84.449 C 306.057 84.648,306.147 84.797,306.243 84.780 C 306.340 84.763,306.437 85.120,306.462 85.583 C 306.487 86.042,306.599 86.598,306.712 86.819 C 306.875 87.139,306.874 87.236,306.708 87.291 C 306.576 87.336,306.500 87.690,306.500 88.264 C 306.500 88.888,306.437 89.154,306.296 89.125 C 306.183 89.102,306.066 89.252,306.034 89.458 C 306.003 89.665,305.907 89.833,305.822 89.833 C 305.736 89.833,305.667 90.021,305.667 90.250 C 305.667 90.509,305.572 90.667,305.417 90.667 C 305.279 90.667,305.167 90.742,305.167 90.833 C 305.167 90.925,305.063 91.000,304.937 91.000 C 304.811 91.000,304.614 91.112,304.500 91.250 C 304.386 91.388,304.158 91.500,303.993 91.500 C 303.829 91.500,303.669 91.573,303.639 91.663 C 303.608 91.752,303.183 91.839,302.693 91.856 C 302.204 91.873,301.703 91.988,301.580 92.110 C 301.416 92.275,300.760 92.333,299.084 92.333 C 297.750 92.333,296.670 92.409,296.469 92.517 C 296.194 92.664,296.152 92.655,296.254 92.475 C 296.357 92.294,296.339 92.290,296.158 92.458 C 295.889 92.708,292.407 92.753,292.256 92.510 C 292.112 92.277,282.854 92.275,282.573 92.508 C 282.255 92.772,282.219 82.346,282.536 81.838 C 282.774 81.456,299.000 81.288,299.000 81.667 M225.167 82.083 C 225.167 82.221,225.279 82.333,225.417 82.333 C 225.591 82.333,225.667 82.509,225.667 82.917 C 225.667 83.237,225.742 83.500,225.833 83.500 C 225.925 83.500,226.000 83.688,226.000 83.917 C 226.000 84.176,226.094 84.333,226.250 84.333 C 226.404 84.333,226.500 84.490,226.500 84.740 C 226.500 84.964,226.575 85.193,226.667 85.250 C 226.758 85.307,226.833 85.576,226.833 85.848 C 226.833 86.135,226.939 86.384,227.083 86.440 C 227.221 86.492,227.333 86.720,227.333 86.944 C 227.333 87.174,227.406 87.308,227.500 87.250 C 227.597 87.190,227.667 87.355,227.667 87.645 C 227.667 87.919,227.779 88.255,227.917 88.393 C 228.054 88.530,228.167 88.798,228.167 88.988 C 228.167 89.178,228.242 89.333,228.333 89.333 C 228.425 89.333,228.500 89.521,228.500 89.750 C 228.500 90.009,228.594 90.167,228.750 90.167 C 228.900 90.167,229.000 90.320,229.000 90.550 C 229.000 90.761,229.094 91.034,229.208 91.158 C 229.376 91.339,229.373 91.357,229.191 91.254 C 229.037 91.166,229.055 91.262,229.246 91.554 C 229.401 91.790,229.528 92.043,229.530 92.116 C 229.532 92.190,229.601 92.231,229.683 92.208 C 229.766 92.185,229.833 92.346,229.833 92.564 C 229.833 92.783,229.940 93.167,230.070 93.418 C 230.200 93.669,230.266 93.981,230.216 94.111 C 230.162 94.252,230.216 94.328,230.351 94.298 C 230.481 94.270,230.602 94.425,230.638 94.667 C 230.672 94.896,230.767 95.125,230.849 95.176 C 230.931 95.227,231.015 95.475,231.036 95.728 C 231.057 95.981,231.170 96.267,231.287 96.364 C 231.404 96.461,231.500 96.719,231.500 96.937 C 231.500 97.155,231.575 97.333,231.667 97.333 C 231.758 97.333,231.833 97.513,231.833 97.732 C 231.833 97.952,231.946 98.174,232.083 98.227 C 232.221 98.280,232.333 98.471,232.333 98.652 C 232.333 98.832,232.408 99.027,232.500 99.083 C 232.592 99.140,232.667 99.332,232.667 99.510 C 232.667 99.825,232.479 99.833,225.093 99.833 C 218.130 99.833,216.932 99.768,217.497 99.418 C 217.590 99.361,217.667 99.131,217.667 98.907 C 217.667 98.656,217.763 98.500,217.917 98.500 C 218.071 98.500,218.167 98.344,218.167 98.093 C 218.167 97.869,218.242 97.640,218.333 97.583 C 218.425 97.527,218.500 97.302,218.500 97.083 C 218.500 96.865,218.587 96.633,218.692 96.567 C 218.820 96.489,218.839 96.522,218.750 96.667 C 218.661 96.811,218.680 96.845,218.808 96.766 C 218.913 96.701,219.000 96.426,219.000 96.157 C 219.000 95.887,219.075 95.667,219.167 95.667 C 219.258 95.667,219.333 95.442,219.333 95.167 C 219.333 94.886,219.415 94.685,219.519 94.708 C 219.621 94.731,219.736 94.563,219.774 94.333 C 219.812 94.104,219.916 93.892,220.005 93.861 C 220.094 93.831,220.167 93.549,220.167 93.236 C 220.167 92.841,220.243 92.667,220.417 92.667 C 220.572 92.667,220.667 92.509,220.667 92.250 C 220.667 92.021,220.742 91.833,220.833 91.833 C 220.925 91.833,221.000 91.655,221.000 91.437 C 221.000 91.219,221.112 90.947,221.250 90.833 C 221.387 90.719,221.500 90.406,221.500 90.136 C 221.500 89.853,221.570 89.690,221.667 89.750 C 221.760 89.808,221.833 89.674,221.833 89.444 C 221.833 89.220,221.946 88.992,222.083 88.940 C 222.228 88.884,222.333 88.635,222.333 88.348 C 222.333 88.076,222.408 87.807,222.500 87.750 C 222.592 87.693,222.667 87.464,222.667 87.240 C 222.667 86.990,222.763 86.833,222.917 86.833 C 223.072 86.833,223.167 86.676,223.167 86.417 C 223.167 86.188,223.237 86.000,223.323 86.000 C 223.409 86.000,223.503 85.719,223.532 85.375 C 223.560 85.031,223.662 84.764,223.757 84.780 C 223.853 84.797,223.943 84.653,223.957 84.462 C 223.971 84.270,224.043 84.069,224.117 84.015 C 224.190 83.961,224.276 83.729,224.308 83.500 C 224.339 83.271,224.431 83.059,224.511 83.030 C 224.591 83.000,224.704 82.719,224.763 82.405 C 224.869 81.839,225.167 81.602,225.167 82.083 " stroke="none" fill="#343434" fill-rule="evenodd"></path><path id="path2" d="M354.057 2.904 C 352.990 3.965,352.053 4.833,351.975 4.833 C 351.897 4.833,351.852 4.927,351.875 5.042 C 351.898 5.156,351.823 5.231,351.708 5.208 C 351.594 5.185,351.500 5.279,351.500 5.417 C 351.500 5.554,351.387 5.667,351.250 5.667 C 351.113 5.667,351.019 5.760,351.042 5.875 C 351.065 5.990,350.990 6.065,350.875 6.042 C 350.760 6.019,350.667 6.112,350.667 6.250 C 350.667 6.387,350.554 6.500,350.417 6.500 C 350.279 6.500,350.185 6.594,350.208 6.708 C 350.231 6.823,350.156 6.898,350.042 6.875 C 349.927 6.852,349.833 6.946,349.833 7.083 C 349.833 7.221,349.716 7.333,349.573 7.333 C 349.431 7.333,349.360 7.408,349.417 7.500 C 349.473 7.592,349.403 7.667,349.260 7.667 C 349.117 7.667,349.000 7.779,349.000 7.917 C 349.000 8.054,348.920 8.167,348.821 8.167 C 348.604 8.167,348.167 8.585,348.167 8.793 C 348.167 8.876,347.979 9.044,347.750 9.167 C 347.521 9.289,347.333 9.489,347.333 9.611 C 347.333 9.734,347.221 9.833,347.083 9.833 C 346.946 9.833,346.833 9.950,346.833 10.093 C 346.833 10.236,346.758 10.307,346.667 10.250 C 346.575 10.193,346.500 10.264,346.500 10.407 C 346.500 10.550,346.388 10.667,346.250 10.667 C 346.113 10.667,346.019 10.760,346.042 10.875 C 346.065 10.990,345.990 11.065,345.875 11.042 C 345.760 11.019,345.667 11.065,345.667 11.143 C 345.667 11.222,345.029 11.935,344.249 12.727 C 343.470 13.519,342.880 14.167,342.939 14.167 C 342.998 14.167,342.774 14.424,342.440 14.739 C 342.106 15.053,341.833 15.359,341.833 15.417 C 341.833 15.590,341.372 16.000,341.179 16.000 C 341.080 16.000,341.000 16.079,341.000 16.176 C 341.000 16.273,340.624 16.712,340.165 17.153 L 339.330 17.953 339.373 26.518 L 339.417 35.083 346.131 35.167 C 351.358 35.232,352.875 35.298,352.978 35.465 C 353.075 35.622,353.552 35.667,354.764 35.631 L 356.417 35.583 356.459 18.531 C 356.497 3.500,356.472 1.448,356.250 1.226 C 356.025 1.001,355.789 1.182,354.057 2.904 M359.606 37.917 C 359.389 38.135,359.333 38.538,359.333 39.895 C 359.333 40.833,359.257 41.676,359.165 41.769 C 359.055 41.878,359.011 44.185,359.040 48.344 L 359.083 54.750 367.880 54.793 C 375.594 54.831,376.688 54.805,376.772 54.585 C 376.826 54.446,377.018 54.333,377.199 54.333 C 377.456 54.333,391.761 40.200,392.929 38.792 C 393.449 38.166,393.456 38.167,377.436 38.167 C 365.238 38.167,361.852 38.122,361.676 37.958 C 361.493 37.789,361.474 37.797,361.571 38.000 C 361.673 38.211,361.657 38.210,361.471 37.993 C 361.154 37.625,359.948 37.576,359.606 37.917 M356.714 73.250 C 356.716 73.708,356.748 73.876,356.786 73.623 C 356.825 73.369,356.824 72.994,356.784 72.789 C 356.744 72.584,356.713 72.792,356.714 73.250 " stroke="none" fill="#f48334" fill-rule="evenodd"></path><path id="path3" d="M63.052 71.917 C 63.053 72.467,63.084 72.672,63.121 72.372 C 63.158 72.072,63.157 71.622,63.119 71.372 C 63.081 71.122,63.051 71.367,63.052 71.917 M63.048 79.417 C 63.049 79.875,63.081 80.043,63.120 79.789 C 63.158 79.536,63.157 79.161,63.117 78.956 C 63.078 78.751,63.046 78.958,63.048 79.417 M324.720 86.333 C 324.720 86.929,324.750 87.173,324.787 86.875 C 324.824 86.577,324.824 86.090,324.787 85.792 C 324.750 85.494,324.720 85.737,324.720 86.333 M106.042 109.448 C 106.202 109.490,106.465 109.490,106.625 109.448 C 106.785 109.406,106.654 109.372,106.333 109.372 C 106.013 109.372,105.881 109.406,106.042 109.448 " stroke="none" fill="#685c34" fill-rule="evenodd"></path><path id="path4" d="" stroke="none" fill="#346034" fill-rule="evenodd"></path></g></svg>