<?xml version="1.0" standalone="no"?>
<!DOCTYPE svg PUBLIC "-//W3C//DTD SVG 20010904//EN"
 "http://www.w3.org/TR/2001/REC-SVG-20010904/DTD/svg10.dtd">
<svg version="1.0" xmlns="http://www.w3.org/2000/svg"
 width="225.000000pt" height="225.000000pt" viewBox="0 0 225.000000 225.000000"
 preserveAspectRatio="xMidYMid meet">

<g transform="translate(0.000000,225.000000) scale(0.100000,-0.100000)"
fill="#000000" stroke="none">
<path d="M975 1989 c-19 -9 -18 -9 3 -5 27 5 28 -7 1 -50 l-21 -34 36 0 c19 0
38 5 42 11 5 9 -1 10 -20 5 -31 -8 -32 -1 -6 39 11 17 20 33 20 38 0 10 -30 8
-55 -4z"/>
<path d="M1060 1955 c0 -25 3 -45 8 -46 4 0 14 -2 23 -4 9 -1 23 1 30 6 10 6
4 9 -18 9 -42 0 -47 30 -5 31 25 1 26 1 4 7 -33 10 -31 26 4 33 28 6 27 7 -8
8 l-38 1 0 -45z"/>
<path d="M1159 1983 c-1 -10 -3 -30 -5 -45 -1 -16 1 -28 7 -28 5 0 9 7 9 15 0
22 28 18 35 -5 3 -11 11 -20 16 -20 12 0 11 7 -1 31 -8 13 -7 19 0 19 6 0 10
10 8 23 -4 29 -67 39 -69 10z m59 -10 c2 -8 -6 -13 -22 -13 -17 0 -26 5 -26
16 0 19 41 16 48 -3z"/>
<path d="M910 1964 c0 -20 25 -84 32 -84 9 0 5 18 -13 68 -8 21 -19 30 -19 16z"/>
<path d="M1280 1950 c0 -11 9 -25 20 -32 25 -16 26 -28 0 -28 -10 0 -24 8 -29
18 -10 16 -10 16 -11 0 0 -21 33 -40 54 -32 22 9 20 41 -4 54 -11 6 -20 15
-20 20 0 16 30 11 36 -5 4 -8 10 -12 16 -9 15 9 -12 34 -38 34 -17 0 -24 -6
-24 -20z"/>
<path d="M820 1922 c0 -20 33 -72 45 -72 6 0 20 7 31 15 18 15 18 15 -7 9 -22
-4 -30 0 -47 28 -12 18 -22 27 -22 20z"/>
<path d="M796 1855 c14 -19 31 -35 36 -35 11 0 2 17 -25 48 -32 35 -41 26 -11
-13z"/>
<path d="M722 1837 c-22 -24 -32 -51 -10 -29 9 9 19 6 45 -14 44 -33 54 -25
12 10 -19 16 -29 32 -25 41 7 21 3 19 -22 -8z"/>
<path d="M1463 1836 c-4 -8 -17 -14 -28 -13 -28 3 -30 -32 -4 -62 17 -21 22
-22 29 -10 5 7 7 22 4 32 -4 12 0 17 16 17 16 0 21 5 18 22 -4 26 -23 34 -35
14z m27 -16 c0 -5 -4 -10 -10 -10 -5 0 -10 5 -10 10 0 6 5 10 10 10 6 0 10 -4
10 -10z m-40 -25 c0 -8 -7 -15 -15 -15 -8 0 -15 7 -15 15 0 8 7 15 15 15 8 0
15 -7 15 -15z"/>
<path d="M656 1732 c-15 -28 -15 -29 30 -50 24 -12 44 -18 44 -13 0 5 -7 11
-15 15 -25 9 -17 25 18 35 31 9 31 9 5 10 -18 1 -28 7 -28 16 0 26 -39 17 -54
-13z m44 -7 c0 -17 -17 -28 -30 -20 -7 4 -7 13 0 26 12 21 30 17 30 -6z"/>
<path d="M1514 1652 c-26 -17 -20 -72 8 -72 9 0 9 3 0 12 -18 18 -15 36 7 48
30 15 54 2 47 -26 -4 -14 -2 -24 4 -24 17 0 12 57 -6 64 -21 8 -47 7 -60 -2z"/>
<path d="M620 1616 c0 -32 2 -34 42 -40 46 -7 58 2 57 44 l-1 25 -10 -27 c-13
-36 -42 -38 -36 -3 3 14 1 25 -3 25 -5 0 -9 -9 -9 -20 0 -12 -7 -20 -16 -20
-12 0 -15 6 -10 25 4 14 2 25 -4 25 -5 0 -10 -15 -10 -34z"/>
<path d="M1510 1540 c0 -5 9 -10 20 -10 13 0 20 -7 20 -20 0 -13 -7 -20 -20
-20 -11 0 -20 -4 -20 -10 0 -5 20 -10 45 -10 25 0 45 5 45 10 0 6 -9 10 -20
10 -13 0 -20 7 -20 20 0 13 7 20 20 20 11 0 20 5 20 10 0 6 -20 10 -45 10 -25
0 -45 -4 -45 -10z"/>
<path d="M613 1515 c2 -28 4 -30 50 -33 28 -2 47 1 47 7 0 6 -9 11 -20 11 -13
0 -20 7 -20 20 0 11 -4 20 -10 20 -5 0 -10 -9 -10 -20 0 -27 -27 -25 -33 3 -4
15 -5 12 -4 -8z"/>
<path d="M1512 1405 c1 -37 2 -37 5 -7 5 39 30 43 36 5 l4 -28 2 28 c0 16 7
27 15 27 8 0 17 -12 19 -27 3 -23 4 -21 6 9 l1 37 -45 -2 -45 -2 2 -40z"/>
<path d="M698 1353 c-2 -17 -9 -28 -18 -28 -10 0 -14 8 -12 23 2 12 -2 22 -7
22 -6 0 -11 -11 -11 -24 0 -20 -4 -23 -22 -18 -14 3 -19 2 -14 -6 4 -7 27 -12
52 -12 44 0 44 0 44 35 0 42 -7 46 -12 8z"/>
<path d="M616 1361 c-4 -7 -5 -15 -2 -18 9 -9 19 4 14 18 -4 11 -6 11 -12 0z"/>
<path d="M1540 1340 l35 -7 -33 -8 c-36 -8 -38 -28 -4 -33 12 -2 22 -8 22 -14
0 -6 -11 -8 -25 -6 -14 3 -25 1 -25 -3 0 -5 20 -9 45 -9 54 0 62 22 13 37 -33
10 -31 12 15 27 34 11 16 26 -30 25 -47 -2 -47 -2 -13 -9z"/>
<path d="M610 1258 c0 -21 5 -38 10 -38 6 0 10 7 10 15 0 11 12 15 43 17 l42
1 -39 4 c-22 3 -46 12 -53 21 -11 15 -12 12 -13 -20z"/>
<path d="M1510 1230 c0 -5 20 -10 45 -10 25 0 45 5 45 10 0 6 -20 10 -45 10
-25 0 -45 -4 -45 -10z"/>
<path d="M660 1200 c-24 -9 -46 -22 -48 -28 -1 -5 18 -17 44 -26 57 -19 62
-20 46 -4 -16 16 -15 55 1 61 6 2 10 7 7 10 -3 2 -25 -3 -50 -13z m10 -30 c0
-5 -7 -10 -15 -10 -8 0 -15 5 -15 10 0 6 7 10 15 10 8 0 15 -4 15 -10z"/>
<path d="M1524 1192 c-28 -19 -22 -72 9 -72 7 0 7 4 -1 12 -7 7 -12 20 -12 31
0 15 6 18 33 15 28 -3 32 -6 30 -31 -1 -15 2 -25 8 -22 13 9 11 49 -3 63 -13
13 -47 16 -64 4z"/>
<path d="M610 1090 c0 -26 3 -31 12 -22 7 7 29 12 50 12 21 0 38 5 38 10 0 6
-17 10 -38 10 -21 0 -43 5 -50 12 -9 9 -12 4 -12 -22z"/>
<path d="M1518 1088 c15 -15 16 -58 2 -58 -5 0 -10 -4 -10 -10 0 -11 83 25 88
38 1 5 -15 17 -38 26 -48 19 -58 20 -42 4z m52 -28 c0 -5 -7 -10 -15 -10 -8 0
-15 5 -15 10 0 6 7 10 15 10 8 0 15 -4 15 -10z"/>
<path d="M654 1009 c-11 -22 -19 -28 -26 -21 -8 8 -7 16 3 28 12 15 12 17 -1
12 -20 -6 -24 -42 -7 -57 12 -9 18 -8 31 4 9 9 16 23 16 31 0 8 4 14 9 14 16
0 24 -21 12 -33 -16 -16 -14 -27 4 -21 20 8 19 60 -1 68 -23 9 -22 9 -40 -25z"/>
<path d="M1500 973 c0 -10 5 -25 10 -33 8 -12 10 -9 10 12 0 24 4 27 43 31 40
3 40 4 -10 5 -45 2 -53 -1 -53 -15z"/>
<path d="M1510 895 c-6 -8 -9 -23 -5 -35 9 -29 47 -23 55 8 7 31 26 27 23 -5
-2 -18 1 -23 8 -16 16 16 6 57 -14 61 -12 3 -21 -6 -28 -27 -14 -40 -33 -41
-25 -1 6 34 4 36 -14 15z"/>
<path d="M612 835 c-1 -19 3 -35 8 -35 6 0 10 6 10 14 0 10 14 16 43 19 l42 4
-42 1 c-31 1 -43 6 -43 17 0 32 -17 13 -18 -20z"/>
<path d="M648 773 c-21 -8 -38 -19 -38 -23 0 -10 93 -50 100 -43 3 3 -1 8 -7
10 -7 3 -13 17 -13 33 0 16 6 31 13 33 8 4 7 6 -3 6 -8 0 -32 -7 -52 -16z m22
-28 c0 -9 -6 -12 -15 -9 -8 4 -15 10 -15 15 0 5 7 9 15 9 8 0 15 -7 15 -15z"/>
<path d="M1507 718 c-10 -34 -8 -50 3 -43 6 3 10 15 10 27 0 18 4 20 40 14 25
-4 40 -2 40 4 0 5 -10 10 -22 10 -13 0 -33 3 -44 6 -16 4 -23 0 -27 -18z"/>
<path d="M691 677 c-7 -6 -24 -12 -39 -12 -24 0 -27 -3 -25 -33 0 -18 3 -36 6
-38 3 -3 25 0 48 7 34 10 39 14 22 17 -27 4 -28 10 -7 40 18 26 15 39 -5 19z
m-27 -58 c-8 -14 -21 -10 -28 7 -10 25 5 40 20 19 7 -10 11 -22 8 -26z"/>
<path d="M1500 641 c0 -9 81 -23 89 -15 7 7 -3 11 -46 18 -24 3 -43 2 -43 -3z"/>
<path d="M1490 603 c0 -6 15 -15 33 -21 l32 -11 -37 2 c-48 2 -56 -7 -24 -29
32 -20 28 -28 -8 -15 -14 6 -26 7 -26 2 0 -11 78 -36 87 -28 3 4 -4 19 -18 33
l-24 27 32 -6 c41 -8 54 17 15 31 -15 6 -35 13 -44 17 -10 4 -18 3 -18 -2z"/>
<path d="M690 554 c-17 -20 -28 -40 -23 -45 4 -4 31 -4 58 0 28 5 42 9 33 10
-25 2 -43 38 -27 57 26 32 -11 12 -41 -22z m30 -24 c0 -5 -7 -10 -15 -10 -8 0
-15 5 -15 10 0 6 7 10 15 10 8 0 15 -4 15 -10z"/>
<path d="M1460 475 c19 -14 39 -25 44 -25 16 1 -47 50 -63 50 -8 0 0 -11 19
-25z"/>
<path d="M740 461 c-19 -16 -32 -32 -29 -36 4 -3 20 6 38 20 28 24 59 27 46 4
-4 -5 -1 -9 4 -9 15 0 14 23 -1 38 -16 16 -18 16 -58 -17z"/>
<path d="M1418 422 c25 -22 30 -30 20 -40 -7 -7 -8 -12 -2 -12 6 0 21 12 35
26 22 25 23 26 3 20 -14 -4 -27 0 -39 14 -10 11 -25 20 -34 20 -11 0 -5 -9 17
-28z"/>
<path d="M806 397 c-27 -35 -31 -47 -18 -47 4 0 16 14 25 30 18 30 40 39 52
20 4 -6 -3 -26 -15 -45 -24 -39 -11 -49 14 -10 21 33 20 62 -3 75 -27 14 -27
14 -55 -23z"/>
<path d="M1310 390 c-29 -23 -15 -27 17 -5 18 13 22 13 27 0 3 -8 -4 -22 -17
-31 -20 -15 -20 -16 -2 -9 32 11 37 11 42 -2 2 -6 -5 -14 -16 -18 -12 -3 -21
-11 -21 -16 0 -5 14 -3 30 6 l30 16 -20 39 c-23 45 -34 48 -70 20z"/>
<path d="M906 354 c-8 -21 -8 -21 14 -27 11 -3 20 -1 20 4 0 5 -5 9 -12 9 -9
0 -9 3 -1 11 18 18 43 2 43 -26 0 -30 -25 -43 -51 -26 -11 6 -19 7 -19 1 0
-18 39 -31 60 -20 25 13 36 55 20 75 -17 20 -66 19 -74 -1z"/>
<path d="M1220 352 c-20 -16 -21 -23 -13 -48 7 -21 17 -30 37 -32 41 -5 49 8
36 57 -12 45 -26 50 -60 23z m44 -18 c12 -32 6 -54 -14 -54 -21 0 -38 40 -25
59 9 16 32 13 39 -5z"/>
<path d="M1048 335 c-10 -22 -9 -29 9 -46 26 -26 60 -18 69 17 13 52 -56 77
-78 29z"/>
</g>
</svg>
