<?xml version="1.0" encoding="UTF-8"?>
<svg width="312px" height="229px" viewBox="0 0 312 229" version="1.1" xmlns="http://www.w3.org/2000/svg" xmlns:xlink="http://www.w3.org/1999/xlink">
    <!-- Generator: Sketch 59 (86127) - https://sketch.com -->
    <title>Logo</title>
    <desc>Created with Sketch.</desc>
    <g id="Design" stroke="none" stroke-width="1" fill="none" fill-rule="evenodd">
        <g id="1" transform="translate(-235.000000, -222.000000)">
            <g id="Logo" transform="translate(235.000000, 222.000000)">
                <path d="M152.288604,0.403687341 C171.610771,12.7044279 182.187866,41.4728679 171.200311,62.4936719 C169.0141,66.6757408 166.487537,69.6745941 163.904645,72.2220564 C167.695994,64.3738025 165.660595,54.5097749 161.020824,47.2616969 C158.157325,42.7876741 154.393243,40.0272238 150.124508,37.0017976 C149.26202,44.37834 147.814233,47.7989433 143.119812,54.0395686 C139.067539,58.9667194 136.714308,65.1405363 138.124116,71.6214173 C138.31331,72.49149 138.566244,73.3468 138.878345,74.1886789 C128.042411,62.0495753 126.562552,46.7265348 135.711081,32.9150784 C140.031862,26.3918198 154.037954,13.0557801 152.288604,0.403687341" id="Fill-1" fill="#00AFCB"></path>
                <path d="M130.254616,157.164866 C96.9044719,146.745298 72.582324,115.522546 72.582324,78.8509117 C72.582324,43.2780271 95.9392232,11.5855314 129.73439,0.724008876 C134.534639,-0.793480382 131.127293,31.1654964 120.082019,43.5773335 C109.326151,54.6928902 105.196764,66.9660738 105.388274,78.8509117 C105.63953,94.437365 112.611053,108.569374 124.078483,117.398913 C127.242099,119.834758 129.955251,117.666552 129.952646,114.56905 L129.944946,95.386751 C130.161524,85.1366935 151.815792,84.5439279 152.089047,95.386751 L151.938583,160.809342 C144.415919,160.581244 137.142252,159.316631 130.254616,157.164866" id="Fill-2" fill="#6CB644"></path>
                <path d="M179.015855,157.164866 C212.365941,146.745298 236.688089,115.522546 236.688089,78.8509117 C236.688089,43.2780271 213.331247,11.5855314 179.536081,0.724008876 C174.735831,-0.793480382 178.143177,31.1654964 189.188452,43.5773335 C199.94432,54.6928902 204.073706,66.9660738 203.882196,78.8509117 C203.630941,94.437365 196.659417,108.569374 185.191988,117.398913 C182.028371,119.834758 179.315219,117.666552 179.317824,114.56905 L179.325524,95.386751 C179.108947,85.1366935 157.454678,84.5439279 157.181424,95.386751 L157.331888,160.809342 C164.854494,160.581244 172.12816,159.316631 179.015855,157.164866" id="Fill-3" fill="#6CB644"></path>
                <path d="M152.228858,45.5172095 C160.925649,51.0536833 164.580313,63.7564902 159.63481,73.2178146 C156.998424,78.2609828 154.369796,79.7297262 151.98895,83.4526463 C150.137476,82.492608 149.196369,81.6119988 148.478207,81.0722631 C142.222993,74.9356713 139.983579,68.1403738 144.820475,60.1684606 C146.647286,57.1576235 153.016086,51.2119047 152.228858,45.5172095" id="Fill-4" fill="#E7792B"></path>
                <path d="M30.5397318,211.701562 L30.5397318,225.587874 C26.2908545,227.729448 22.1112751,228.800236 18.000704,228.800236 C12.7847833,228.800236 8.53590602,227.142298 5.25447734,223.826192 C1.97281709,220.510085 0.332073798,216.209394 0.332073798,210.924349 C0.332073798,205.535792 2.05913543,201.16615 5.51343238,197.815423 C8.96767143,194.464871 13.4755038,192.789507 19.0368715,192.789507 C22.8021113,192.789507 26.4981112,193.618592 30.1252185,195.276529 L28.5707936,200.198875 C25.3582575,198.78264 22.2840275,198.074552 19.3478722,198.074552 C15.5826324,198.074552 12.5515906,199.249026 10.2544574,201.597857 C7.95743995,203.946747 6.80884439,207.038345 6.80884439,210.872651 C6.80884439,214.603271 7.94875601,217.651564 10.2285214,220.017764 C12.5084025,222.384021 15.444442,223.567063 19.0368715,223.567063 C21.0404297,223.567063 22.9056817,223.169744 24.6329171,222.375337 L24.6329171,216.623907 L18.000704,216.623907 L18.000704,211.701562 L30.5397318,211.701562 Z" id="Fill-5" fill="#005093"></path>
                <path d="M64.4175695,193.514848 L64.4175695,212.997032 C64.4175695,216.14027 64.2621849,218.454655 63.9511841,219.940014 C63.5368445,221.736315 62.7594583,223.29074 61.6196046,224.603404 C59.1325826,227.435873 55.5573473,228.852108 50.8941304,228.852108 C46.5072364,228.852108 43.0355716,227.50494 40.4794833,224.810661 C39.3395717,223.60151 38.545165,222.150829 38.0959738,220.458271 C37.6814605,218.903846 37.4742039,216.347584 37.4742039,212.789717 L37.4742039,193.514848 L43.6920194,193.514848 L43.6920194,215.173226 C43.6920194,217.625802 44.1065327,219.508248 44.9354436,220.820912 C46.1444215,222.686165 48.182426,223.618935 51.049515,223.618935 C53.9166041,223.618935 55.9891128,222.547974 57.2671569,220.406399 C57.7507944,219.577315 58.0617951,218.670654 58.1999276,217.686184 C58.338118,216.701715 58.4071843,214.741461 58.4071843,211.805248 L58.4071843,193.514848 L64.4175695,193.514848 Z" id="Fill-6" fill="#005093"></path>
                <path d="M82.9239681,193.514848 L82.9239681,216.623907 C82.9239681,220.976355 82.1640078,224.050701 80.6440291,225.846829 C79.0205379,227.746701 76.5335159,228.696723 73.1827894,228.696723 C70.6957674,228.696723 68.3469358,228.057643 66.1361209,226.779599 L68.2606174,222.375337 C69.676852,223.100678 71.0584665,223.463377 72.4056348,223.463377 C74.409193,223.463377 75.6872372,222.755231 76.2399409,221.338996 C76.550768,220.510085 76.7061526,218.938293 76.7061526,216.623907 L76.7061526,193.514848 L82.9239681,193.514848 Z" id="Fill-7" fill="#005093"></path>
                <path d="M118.304069,228.074896 L111.516472,228.074896 L108.614936,219.836443 L96.3348634,219.836443 L93.4852001,228.074896 L87.0602437,228.074896 L99.9100987,193.514848 L105.350528,193.514848 L118.304069,228.074896 Z M106.904953,214.96597 L102.448993,202.064301 L98.0448466,214.96597 L106.904953,214.96597 Z" id="Fill-8" fill="#005093"></path>
                <path d="M122.760203,228.074896 L122.760203,193.514848 L131.827682,193.514848 C132.760337,193.514848 133.762,193.5321 134.832788,193.56672 C137.458174,193.670232 139.496063,194.084803 140.946917,194.810144 C144.228519,196.502875 145.869263,199.266278 145.869263,203.100468 C145.869263,205.552986 145.143922,207.651431 143.693068,209.39586 C142.242213,211.14029 140.376961,212.167947 138.097196,212.478774 C139.306174,212.789717 140.333831,213.420055 141.18011,214.370078 C142.026389,215.319927 142.967727,216.883036 144.003895,219.059231 L148.304586,228.074896 L141.36143,228.074896 L137.371682,219.577315 C137.199045,219.197421 136.87085,218.541147 136.387213,217.608376 C135.558302,215.950439 134.711849,214.879651 133.848319,214.396014 C133.192102,214.015947 131.914,213.826058 130.014186,213.826058 L128.977845,213.826058 L128.977845,228.074896 L122.760203,228.074896 Z M128.977845,209.162668 L129.755058,209.162668 C132.829403,209.162668 134.953784,208.955411 136.128258,208.541071 C137.199045,208.160946 138.07126,207.478794 138.744786,206.494325 C139.418428,205.509856 139.755191,204.430326 139.755191,203.255853 C139.755191,201.114278 138.822536,199.698043 136.957169,199.007149 C135.990067,198.661702 134.29751,198.489065 131.87938,198.489065 L128.977845,198.489065 L128.977845,209.162668 Z" id="Fill-9" fill="#005093"></path>
                <path d="M180.895522,228.074896 L174.107983,228.074896 L171.206389,219.836443 L158.926374,219.836443 L156.076653,228.074896 L149.651755,228.074896 L162.501552,193.514848 L167.941981,193.514848 L180.895522,228.074896 Z M169.496406,214.96597 L165.040446,202.064301 L160.636358,214.96597 L169.496406,214.96597 Z" id="Fill-10" fill="#005093"></path>
                <polygon id="Fill-11" fill="#005093" points="187.78698 228.074896 187.78698 198.696322 177.942289 198.696322 177.942289 193.514848 203.901243 193.514848 203.901243 198.696322 194.004622 198.696322 194.004622 228.074896"></polygon>
                <path d="M248.366365,211.701562 L248.366365,225.587874 C244.117487,227.729448 239.937908,228.800236 235.827395,228.800236 C230.611416,228.800236 226.362539,227.142298 223.08111,223.826192 C219.79945,220.510085 218.158764,216.209394 218.158764,210.924349 C218.158764,205.535792 219.885768,201.16615 223.340065,197.815423 C226.794304,194.464871 231.302136,192.789507 236.863562,192.789507 C240.628802,192.789507 244.324802,193.618592 247.951851,195.276529 L246.397426,200.198875 C243.18489,198.78264 240.110718,198.074552 237.174505,198.074552 C233.409265,198.074552 230.378223,199.249026 228.08109,201.597857 C225.784073,203.946747 224.635535,207.038345 224.635535,210.872651 C224.635535,214.603271 225.775389,217.651564 228.055154,220.017764 C230.335093,222.384021 233.271075,223.567063 236.863562,223.567063 C238.86712,223.567063 240.732314,223.169744 242.45955,222.375337 L242.45955,216.623907 L235.827395,216.623907 L235.827395,211.701562 L248.366365,211.701562 Z" id="Fill-12" fill="#005093"></path>
                <path d="M283.746639,228.074896 L276.959042,228.074896 L274.057506,219.836443 L261.777433,219.836443 L258.92777,228.074896 L252.502814,228.074896 L265.352669,193.514848 L270.793098,193.514848 L283.746639,228.074896 Z M272.347523,214.96597 L267.891563,202.064301 L263.487417,214.96597 L272.347523,214.96597 Z" id="Fill-13" fill="#005093"></path>
                <path d="M310.430934,195.431914 L308.617554,199.991618 L308.358425,199.888048 C304.731492,198.437193 302.002593,197.711853 300.171845,197.711853 C298.410164,197.711853 296.985245,198.117682 295.897206,198.929515 C294.808992,199.741173 294.264973,200.803451 294.264973,202.115941 C294.264973,203.152282 294.67086,204.024497 295.482634,204.732643 C296.294351,205.440732 297.788336,206.226686 299.964589,207.090159 C303.176951,208.368261 305.525956,209.490862 307.011257,210.458137 C309.77466,212.288885 311.156448,214.827779 311.156448,218.074762 C311.156448,221.321802 310.007853,223.929762 307.710662,225.898701 C305.413702,227.867639 302.399739,228.852108 298.669119,228.852108 C294.455035,228.852108 290.517159,227.850387 286.855605,225.846829 L288.876242,221.13174 C292.261414,222.928041 295.473951,223.826192 298.513676,223.826192 C300.275358,223.826192 301.743464,223.351123 302.917996,222.401273 C304.092296,221.451251 304.679678,220.250957 304.679678,218.800102 C304.679678,217.625802 304.27379,216.649843 303.461958,215.872631 C302.650125,215.095418 301.156314,214.275076 298.980062,213.411545 L295.87127,212.167947 C293.695075,211.304416 291.985091,210.319947 290.741667,209.21454 C288.807175,207.521924 287.840074,205.362981 287.840074,202.737769 C287.840074,199.76711 288.962734,197.374974 291.207879,195.561594 C293.45314,193.74804 296.406605,192.841379 300.068101,192.841379 C303.522398,192.841379 306.976637,193.70491 310.430934,195.431914" id="Fill-14" fill="#005093"></path>
            </g>
        </g>
    </g>
</svg>