<svg id="svg" version="1.1" xmlns="http://www.w3.org/2000/svg" xmlns:xlink="http://www.w3.org/1999/xlink" width="400" height="224" viewBox="0, 0, 400,224"><g id="svgg"><path id="path0" d="M35.742 77.673 C 35.373 77.729,34.213 77.963,33.165 78.194 C 32.118 78.424,30.605 78.681,29.804 78.763 C 29.003 78.846,28.045 79.100,27.675 79.328 C 27.305 79.556,26.367 79.889,25.589 80.068 C 24.812 80.247,23.955 80.595,23.685 80.842 C 23.414 81.088,22.818 81.356,22.359 81.438 C 21.901 81.520,21.397 81.770,21.239 81.994 C 21.081 82.217,20.542 82.609,20.041 82.865 C 19.540 83.120,18.998 83.487,18.837 83.681 C 18.676 83.875,18.448 84.034,18.330 84.034 C 17.993 84.034,13.646 87.904,12.773 88.980 C 12.342 89.512,11.760 90.168,11.480 90.438 C 10.821 91.073,10.004 92.206,9.391 93.333 C 9.123 93.826,8.822 94.282,8.724 94.346 C 8.625 94.410,8.328 94.965,8.065 95.579 C 7.802 96.192,7.452 96.846,7.288 97.031 C 7.123 97.216,6.869 97.821,6.723 98.375 C 6.578 98.930,6.260 99.598,6.017 99.860 C 5.737 100.163,5.498 100.890,5.362 101.853 C 5.243 102.687,4.924 103.834,4.651 104.402 C 3.819 106.133,3.760 117.234,4.572 119.165 C 4.883 119.902,5.245 121.199,5.377 122.045 C 5.509 122.892,5.808 123.848,6.041 124.169 C 6.273 124.490,6.573 125.158,6.706 125.652 C 6.839 126.147,7.135 126.792,7.363 127.086 C 7.591 127.379,7.899 127.989,8.046 128.441 C 8.194 128.894,8.476 129.398,8.674 129.562 C 8.873 129.726,9.195 130.217,9.391 130.654 C 10.123 132.284,16.781 139.309,18.421 140.183 C 20.898 141.502,21.513 141.877,21.513 142.068 C 21.513 142.184,21.941 142.392,22.465 142.530 C 22.989 142.667,23.770 143.014,24.202 143.301 C 24.633 143.588,25.526 143.935,26.187 144.071 C 26.847 144.208,27.633 144.512,27.932 144.748 C 28.285 145.025,29.008 145.225,29.981 145.314 C 30.808 145.390,32.737 145.664,34.268 145.923 C 37.146 146.409,40.162 146.398,41.881 145.894 C 42.300 145.771,43.712 145.553,45.019 145.409 C 46.710 145.223,47.653 145.002,48.291 144.640 C 48.784 144.361,49.613 144.064,50.133 143.981 C 50.654 143.897,51.328 143.633,51.631 143.394 C 51.935 143.155,52.590 142.816,53.086 142.641 C 53.583 142.466,54.270 142.128,54.613 141.890 C 55.341 141.386,56.454 140.715,57.663 140.052 C 58.185 139.766,58.610 139.324,58.750 138.923 C 58.876 138.560,59.058 138.263,59.154 138.263 C 59.249 138.263,59.387 137.968,59.459 137.607 C 59.561 137.095,59.728 136.934,60.215 136.878 C 60.709 136.822,60.855 136.677,60.911 136.190 C 60.966 135.717,61.102 135.574,61.499 135.574 C 61.895 135.574,62.048 135.416,62.151 134.902 C 62.257 134.374,62.404 134.230,62.837 134.230 C 63.271 134.230,63.403 134.099,63.459 133.613 C 63.514 133.129,63.662 132.982,64.146 132.926 C 64.899 132.840,65.099 131.541,64.359 131.541 C 63.842 131.541,63.417 131.966,63.417 132.482 C 63.417 132.721,63.253 132.885,63.014 132.885 C 62.498 132.885,62.073 133.310,62.073 133.826 C 62.073 134.086,61.906 134.230,61.605 134.230 C 61.291 134.230,61.054 134.451,60.884 134.902 C 60.727 135.318,60.471 135.574,60.212 135.574 C 59.951 135.574,59.696 135.832,59.535 136.257 C 59.198 137.152,58.025 137.150,57.816 136.255 C 57.735 135.909,57.481 135.654,57.135 135.574 C 56.746 135.483,56.562 135.268,56.513 134.851 C 56.460 134.395,56.304 134.241,55.841 134.187 C 55.371 134.133,55.222 133.982,55.167 133.501 C 55.111 133.017,54.979 132.885,54.551 132.885 C 54.092 132.885,54.006 132.777,54.006 132.198 C 54.006 131.279,53.638 130.644,53.106 130.644 C 52.812 130.644,52.625 130.443,52.535 130.028 C 52.299 128.954,52.236 128.852,51.808 128.852 C 51.471 128.852,51.349 128.599,51.185 127.563 C 51.015 126.491,50.899 126.263,50.497 126.206 C 50.084 126.147,49.990 125.940,49.858 124.805 C 49.718 123.591,49.656 123.473,49.166 123.473 C 48.596 123.473,48.466 122.578,48.618 119.712 C 48.674 118.660,48.355 118.095,47.704 118.095 C 47.302 118.095,47.283 117.814,47.283 112.045 C 47.283 106.275,47.302 105.994,47.704 105.994 C 48.355 105.994,48.674 105.430,48.618 104.378 C 48.466 101.504,48.596 100.616,49.170 100.616 C 49.672 100.616,49.724 100.508,49.868 99.160 C 50.010 97.839,50.072 97.703,50.534 97.703 C 51.129 97.703,51.317 97.326,51.317 96.132 C 51.317 95.408,51.398 95.258,51.821 95.198 C 52.239 95.138,52.359 94.926,52.525 93.950 C 52.671 93.083,52.822 92.773,53.096 92.773 C 53.619 92.773,54.006 92.326,54.006 91.720 C 54.006 91.323,54.131 91.204,54.551 91.204 C 54.977 91.204,55.112 91.072,55.167 90.597 C 55.218 90.162,55.397 89.953,55.798 89.860 C 56.195 89.768,56.379 89.557,56.428 89.136 C 56.482 88.680,56.637 88.526,57.100 88.473 C 57.570 88.419,57.719 88.267,57.774 87.787 C 57.883 86.844,59.177 86.885,59.539 87.843 C 59.696 88.260,59.952 88.515,60.212 88.515 C 60.471 88.515,60.727 88.771,60.884 89.188 C 61.054 89.639,61.291 89.860,61.605 89.860 C 61.906 89.860,62.073 90.004,62.073 90.263 C 62.073 90.780,62.498 91.204,63.014 91.204 C 63.253 91.204,63.417 91.369,63.417 91.608 C 63.417 92.124,63.842 92.549,64.359 92.549 C 65.099 92.549,64.899 91.250,64.146 91.163 C 63.662 91.108,63.514 90.960,63.459 90.476 C 63.403 89.990,63.271 89.860,62.837 89.860 C 62.406 89.860,62.257 89.716,62.154 89.200 C 62.065 88.756,61.868 88.518,61.552 88.472 C 61.265 88.430,61.032 88.186,60.953 87.843 C 60.860 87.442,60.650 87.263,60.215 87.212 C 59.759 87.159,59.608 87.018,59.608 86.646 C 59.608 86.373,59.406 85.977,59.160 85.766 C 58.913 85.555,58.711 85.175,58.711 84.921 C 58.711 84.609,58.469 84.357,57.965 84.147 C 57.555 83.976,57.098 83.689,56.950 83.510 C 56.801 83.332,56.355 83.058,55.959 82.902 C 55.562 82.745,54.986 82.390,54.678 82.113 C 54.370 81.835,53.705 81.498,53.201 81.365 C 52.697 81.231,52.112 80.932,51.902 80.700 C 51.692 80.468,51.096 80.211,50.578 80.130 C 50.060 80.049,49.178 79.744,48.618 79.453 C 47.975 79.119,46.862 78.833,45.593 78.676 C 44.489 78.540,43.088 78.278,42.481 78.093 C 41.373 77.755,37.000 77.483,35.742 77.673 M65.031 93.490 C 64.429 94.092,64.870 95.238,65.703 95.238 C 65.942 95.238,66.106 95.402,66.106 95.641 C 66.106 96.158,66.531 96.583,67.048 96.583 C 67.788 96.583,67.588 95.284,66.835 95.197 C 66.283 95.134,66.211 95.026,66.150 94.174 C 66.078 93.179,65.621 92.900,65.031 93.490 M67.843 97.859 C 67.373 97.980,67.278 99.905,67.720 100.347 C 68.448 101.075,68.820 100.673,68.750 99.233 C 68.683 97.845,68.569 97.672,67.843 97.859 M68.945 101.438 C 68.555 101.828,68.794 104.185,69.248 104.428 C 69.967 104.813,70.140 104.506,70.140 102.844 C 70.140 101.310,69.650 100.733,68.945 101.438 M70.247 106.936 C 70.183 107.102,70.158 109.504,70.192 112.274 L 70.252 117.311 70.812 117.311 L 71.373 117.311 71.373 112.045 L 71.373 106.779 70.867 106.707 C 70.589 106.668,70.310 106.771,70.247 106.936 M69.166 119.723 C 68.437 120.256,68.730 122.669,69.534 122.761 L 70.160 122.833 70.094 121.210 C 70.026 119.529,69.839 119.231,69.166 119.723 M67.720 125.087 C 67.572 125.235,67.451 125.537,67.451 125.759 C 67.451 125.998,67.287 126.162,67.048 126.162 C 66.384 126.162,66.106 126.639,66.106 127.776 C 66.106 128.662,66.035 128.852,65.703 128.852 C 64.870 128.852,64.429 129.997,65.031 130.599 C 65.621 131.190,66.078 130.911,66.150 129.916 C 66.210 129.074,66.287 128.956,66.810 128.895 C 67.346 128.833,67.417 128.712,67.553 127.620 C 67.680 126.607,67.782 126.403,68.194 126.344 C 68.861 126.249,69.060 124.818,68.406 124.818 C 68.177 124.818,67.868 124.939,67.720 125.087 " stroke="none" fill="#e62512" fill-rule="evenodd"></path><path id="path1" d="M0.000 112.045 L 0.000 224.090 200.000 224.090 L 400.000 224.090 400.000 112.045 L 400.000 0.000 200.000 0.000 L 0.000 0.000 0.000 112.045 M44.040 77.721 C 44.776 77.967,45.882 78.236,46.499 78.318 C 47.909 78.506,49.089 78.855,49.524 79.212 C 49.709 79.364,50.335 79.604,50.916 79.745 C 51.497 79.887,52.343 80.254,52.796 80.561 C 53.249 80.869,53.812 81.120,54.048 81.120 C 54.283 81.120,54.697 81.359,54.969 81.650 C 55.240 81.941,55.680 82.247,55.947 82.331 C 56.213 82.414,56.807 82.781,57.266 83.146 C 57.725 83.511,58.205 83.810,58.332 83.810 C 58.460 83.810,58.739 83.968,58.954 84.162 C 59.401 84.567,60.334 84.219,61.401 83.249 C 61.709 82.969,62.213 82.664,62.521 82.572 C 62.829 82.479,63.363 82.168,63.708 81.880 C 64.052 81.592,64.717 81.253,65.185 81.127 C 65.653 81.001,66.212 80.703,66.427 80.465 C 66.642 80.227,67.238 79.965,67.751 79.883 C 68.264 79.801,69.031 79.533,69.455 79.288 C 69.880 79.044,70.989 78.707,71.920 78.540 C 72.852 78.374,74.269 78.055,75.070 77.832 C 77.359 77.195,84.239 77.243,86.387 77.911 C 87.249 78.179,88.558 78.467,89.296 78.550 C 90.033 78.633,91.092 78.930,91.649 79.211 C 92.206 79.491,93.014 79.793,93.445 79.881 C 93.877 79.970,94.583 80.273,95.014 80.555 C 95.445 80.838,96.068 81.131,96.397 81.207 C 96.727 81.282,97.281 81.583,97.630 81.874 C 97.978 82.165,98.481 82.472,98.748 82.555 C 99.922 82.922,104.923 87.324,107.049 89.860 C 107.721 90.661,108.439 91.517,108.645 91.762 C 109.149 92.361,110.129 94.003,110.721 95.238 C 110.986 95.793,111.330 96.398,111.484 96.583 C 111.638 96.768,111.891 97.322,112.047 97.815 C 112.202 98.308,112.558 99.115,112.838 99.608 C 113.117 100.101,113.415 100.958,113.498 101.513 C 113.581 102.067,113.915 103.277,114.240 104.202 C 115.158 106.816,115.163 117.032,114.248 119.776 C 113.919 120.762,113.535 122.141,113.395 122.840 C 113.255 123.539,112.996 124.232,112.818 124.379 C 112.641 124.526,112.387 125.063,112.254 125.572 C 112.120 126.082,111.781 126.853,111.500 127.286 C 111.218 127.719,110.910 128.324,110.814 128.630 C 110.718 128.937,110.408 129.464,110.125 129.803 C 109.842 130.141,109.540 130.645,109.453 130.923 C 109.097 132.062,104.968 136.600,102.250 138.838 C 99.856 140.809,99.374 141.157,98.553 141.500 C 98.142 141.671,97.625 142.012,97.404 142.256 C 97.183 142.501,96.665 142.764,96.255 142.841 C 95.844 142.918,95.241 143.191,94.915 143.447 C 94.589 143.703,93.758 144.060,93.069 144.240 C 92.379 144.421,91.584 144.719,91.302 144.904 C 91.020 145.089,89.860 145.390,88.724 145.572 C 87.587 145.755,86.097 146.051,85.411 146.230 C 83.662 146.685,77.636 146.673,75.859 146.210 C 75.132 146.021,73.775 145.762,72.843 145.635 C 71.911 145.507,70.644 145.170,70.028 144.884 C 69.412 144.598,68.555 144.293,68.123 144.206 C 67.692 144.119,66.986 143.811,66.555 143.522 C 66.123 143.234,65.468 142.928,65.098 142.842 C 64.728 142.757,64.174 142.460,63.866 142.181 C 63.557 141.903,63.053 141.600,62.745 141.508 C 62.437 141.415,61.854 141.051,61.449 140.698 C 61.044 140.345,60.598 140.056,60.458 140.056 C 60.318 140.056,60.027 139.897,59.812 139.702 C 59.453 139.377,59.381 139.386,58.954 139.814 C 58.697 140.070,58.352 140.280,58.186 140.280 C 58.020 140.280,57.692 140.495,57.458 140.757 C 57.223 141.020,56.626 141.409,56.131 141.623 C 55.637 141.837,55.095 142.176,54.929 142.377 C 54.762 142.578,54.212 142.853,53.705 142.990 C 53.199 143.126,52.498 143.480,52.146 143.776 C 51.794 144.072,51.226 144.314,50.885 144.314 C 50.543 144.314,49.769 144.578,49.165 144.900 C 48.495 145.258,47.440 145.566,46.459 145.689 C 45.574 145.800,44.414 146.058,43.882 146.262 C 42.380 146.838,34.855 146.957,32.913 146.435 C 32.128 146.224,30.678 145.924,29.692 145.768 C 28.666 145.606,27.430 145.234,26.801 144.899 C 26.198 144.577,25.424 144.314,25.082 144.314 C 24.740 144.314,24.172 144.072,23.821 143.776 C 23.469 143.480,22.759 143.124,22.243 142.985 C 21.727 142.846,21.175 142.549,21.017 142.325 C 20.858 142.101,20.366 141.799,19.923 141.653 C 19.481 141.508,18.902 141.140,18.636 140.835 C 18.371 140.530,18.010 140.280,17.833 140.280 C 17.656 140.280,17.313 140.028,17.071 139.720 C 16.828 139.412,16.531 139.160,16.409 139.160 C 16.158 139.160,12.083 135.158,11.147 133.991 C 10.807 133.568,10.177 132.783,9.746 132.248 C 9.316 131.712,8.964 131.145,8.964 130.987 C 8.964 130.829,8.796 130.561,8.591 130.392 C 8.386 130.222,7.988 129.564,7.707 128.928 C 7.425 128.292,7.091 127.708,6.965 127.630 C 6.838 127.552,6.585 126.984,6.402 126.368 C 6.219 125.753,5.873 124.999,5.632 124.693 C 5.392 124.387,5.125 123.610,5.040 122.965 C 4.955 122.320,4.686 121.339,4.442 120.784 C 3.247 118.071,3.257 105.491,4.456 103.127 C 4.687 102.671,4.948 101.769,5.036 101.125 C 5.123 100.480,5.392 99.702,5.632 99.397 C 5.873 99.091,6.215 98.349,6.394 97.749 C 6.572 97.148,6.915 96.430,7.155 96.153 C 7.395 95.876,7.651 95.377,7.724 95.044 C 7.798 94.711,8.095 94.162,8.386 93.824 C 8.677 93.486,9.039 92.909,9.190 92.543 C 9.342 92.176,9.556 91.877,9.666 91.877 C 9.776 91.877,10.055 91.568,10.284 91.190 C 11.011 89.995,13.832 86.870,15.026 85.938 C 15.658 85.445,16.443 84.784,16.771 84.470 C 17.099 84.155,17.644 83.779,17.983 83.634 C 18.322 83.489,18.599 83.262,18.599 83.129 C 18.599 82.997,19.040 82.693,19.578 82.455 C 20.117 82.217,20.679 81.875,20.829 81.695 C 20.978 81.515,21.470 81.251,21.923 81.108 C 22.375 80.965,23.098 80.618,23.529 80.336 C 23.961 80.055,24.695 79.758,25.161 79.677 C 25.626 79.596,26.352 79.326,26.773 79.077 C 27.195 78.828,28.226 78.530,29.064 78.413 C 29.902 78.297,30.992 78.042,31.485 77.846 C 33.690 76.971,41.564 76.892,44.040 77.721 M387.981 91.311 C 389.030 92.106,389.020 91.946,389.020 107.395 C 389.020 125.201,389.228 123.989,386.125 124.202 C 384.306 124.326,383.417 123.866,383.417 122.799 C 383.417 122.357,383.387 122.349,382.919 122.676 C 382.645 122.868,382.250 123.025,382.040 123.025 C 381.831 123.025,381.344 123.290,380.959 123.615 C 379.590 124.766,372.918 124.865,371.695 123.752 C 371.425 123.506,370.826 123.183,370.362 123.035 C 369.899 122.887,369.417 122.573,369.291 122.337 C 369.165 122.102,368.763 121.755,368.397 121.565 C 368.031 121.376,367.731 121.075,367.731 120.896 C 367.731 120.717,367.480 120.406,367.172 120.205 C 366.846 119.991,366.504 119.452,366.350 118.911 C 366.205 118.401,365.889 117.762,365.648 117.491 C 364.496 116.195,364.498 108.096,365.652 106.830 C 365.902 106.555,366.222 105.978,366.362 105.546 C 366.818 104.147,369.935 101.256,371.315 100.953 C 371.737 100.860,372.373 100.570,372.727 100.308 C 373.713 99.579,379.086 99.587,379.870 100.320 C 380.157 100.588,380.670 100.876,381.011 100.961 C 381.351 101.045,381.684 101.204,381.752 101.313 C 381.820 101.423,382.163 101.513,382.516 101.513 C 382.868 101.513,383.190 101.614,383.231 101.737 C 383.272 101.861,383.305 99.752,383.305 97.050 C 383.305 92.159,383.308 92.135,383.849 91.559 C 384.491 90.875,387.192 90.713,387.981 91.311 M240.000 93.669 C 240.397 94.066,240.449 94.419,240.452 96.751 C 240.456 100.252,240.227 100.041,244.131 100.128 L 247.383 100.201 247.949 100.874 C 248.448 101.467,248.515 101.753,248.515 103.288 C 248.515 105.766,248.554 105.744,244.135 105.820 L 240.560 105.882 240.561 111.148 L 240.562 116.415 241.230 117.386 C 242.294 118.935,243.815 119.344,245.887 118.638 C 247.281 118.163,247.881 118.283,248.299 119.119 C 248.488 119.497,248.866 120.090,249.139 120.437 C 250.267 121.871,249.857 122.746,247.409 124.136 C 246.142 124.855,238.880 124.449,238.880 123.659 C 238.880 123.544,238.522 123.301,238.085 123.119 C 237.649 122.936,237.230 122.614,237.155 122.402 C 237.080 122.190,236.740 121.753,236.399 121.430 C 235.962 121.016,235.732 120.520,235.619 119.749 C 235.532 119.148,235.297 118.353,235.097 117.983 C 234.790 117.415,234.734 116.447,234.734 111.709 C 234.734 105.344,234.890 105.778,232.594 105.774 C 230.434 105.769,230.364 105.692,230.364 103.291 C 230.364 100.627,230.708 100.168,232.706 100.168 C 234.581 100.168,234.695 100.008,234.639 97.464 C 234.561 93.932,235.094 93.246,237.927 93.230 C 239.261 93.223,239.632 93.302,240.000 93.669 M152.882 100.334 C 153.161 100.594,153.692 100.878,154.062 100.965 C 154.435 101.053,155.196 101.609,155.773 102.213 C 156.662 103.145,156.851 103.253,157.088 102.967 C 157.241 102.783,157.502 102.633,157.668 102.633 C 157.834 102.633,158.195 102.328,158.470 101.956 C 158.773 101.547,159.329 101.175,159.878 101.015 C 160.376 100.869,161.070 100.544,161.419 100.291 C 162.387 99.591,167.495 99.603,168.449 100.308 C 168.803 100.570,169.416 100.855,169.810 100.941 C 170.204 101.028,170.706 101.327,170.926 101.606 C 171.145 101.885,171.550 102.234,171.825 102.381 C 172.100 102.528,172.325 102.782,172.325 102.944 C 172.325 103.106,172.616 103.544,172.973 103.917 C 173.378 104.341,173.683 104.960,173.786 105.570 C 173.876 106.106,174.114 106.795,174.314 107.100 C 174.632 107.585,174.678 108.634,174.678 115.444 C 174.678 124.662,174.900 123.959,171.926 124.173 C 168.890 124.391,169.098 124.958,168.964 116.129 L 168.852 108.796 167.897 107.403 C 166.110 104.795,162.432 104.736,160.112 107.278 L 158.992 108.506 158.918 115.822 C 158.829 124.775,159.050 124.146,155.989 124.146 C 152.933 124.146,153.187 124.872,153.053 115.745 L 152.941 108.085 152.239 107.286 C 151.852 106.846,151.498 106.370,151.451 106.228 C 151.259 105.653,148.206 105.355,146.519 105.747 C 145.650 105.949,144.090 107.318,144.090 107.879 C 144.090 108.061,143.863 108.369,143.585 108.563 C 143.083 108.914,143.081 108.943,143.021 115.914 C 142.943 125.070,143.186 124.414,139.966 124.152 C 137.125 123.920,137.367 125.010,137.367 112.435 C 137.367 100.842,137.349 101.012,138.610 100.485 C 140.769 99.583,142.646 100.153,143.061 101.837 L 143.224 102.498 143.772 101.798 C 144.073 101.414,144.619 101.033,144.986 100.952 C 145.353 100.872,145.717 100.703,145.795 100.577 C 146.409 99.582,151.876 99.395,152.882 100.334 M193.315 100.301 C 193.664 100.559,194.338 100.898,194.813 101.054 C 195.288 101.211,195.883 101.576,196.135 101.866 C 196.644 102.451,196.975 102.391,196.975 101.716 C 196.975 100.277,199.259 99.618,201.296 100.469 C 202.679 101.048,202.619 100.496,202.588 112.428 C 202.555 125.125,202.816 123.967,199.937 124.169 C 197.586 124.334,197.276 124.202,196.947 122.897 C 196.705 121.935,196.678 121.909,196.371 122.347 C 196.194 122.601,195.727 122.958,195.335 123.142 C 194.943 123.326,194.281 123.694,193.865 123.960 C 192.350 124.929,185.098 124.542,185.098 123.493 C 185.098 123.386,184.767 123.237,184.362 123.161 C 183.702 123.037,182.404 122.136,181.585 121.232 C 180.556 120.096,179.903 119.165,179.677 118.509 C 179.535 118.097,179.218 117.486,178.974 117.152 C 177.920 115.714,177.933 108.592,178.993 107.246 C 179.252 106.916,179.531 106.344,179.612 105.976 C 179.693 105.608,180.002 105.148,180.300 104.953 C 180.597 104.758,180.840 104.488,180.840 104.352 C 180.840 104.019,182.660 102.185,182.990 102.185 C 183.135 102.185,183.419 101.933,183.621 101.625 C 183.823 101.317,184.172 101.064,184.398 101.064 C 184.623 101.064,185.263 100.822,185.819 100.526 C 187.667 99.544,192.111 99.410,193.315 100.301 M222.073 100.331 C 222.627 100.601,223.535 100.893,224.090 100.980 C 225.916 101.268,227.087 102.980,226.189 104.051 C 225.897 104.399,225.658 104.814,225.658 104.973 C 225.658 106.030,223.712 107.003,222.959 106.322 C 222.748 106.130,221.354 105.721,219.862 105.413 L 217.149 104.853 215.465 105.365 C 213.922 105.834,213.771 105.934,213.655 106.554 C 213.331 108.279,213.979 108.789,216.919 109.124 C 218.213 109.272,219.725 109.579,220.280 109.806 C 220.835 110.033,221.756 110.281,222.327 110.357 C 222.951 110.441,223.531 110.679,223.779 110.953 C 224.007 111.204,224.522 111.547,224.925 111.716 C 225.328 111.884,225.658 112.124,225.658 112.248 C 225.658 112.373,225.917 112.715,226.234 113.009 C 227.497 114.180,227.601 119.569,226.380 120.542 C 226.135 120.737,225.819 121.123,225.677 121.401 C 225.535 121.678,225.282 121.905,225.116 121.905 C 224.950 121.905,224.656 122.145,224.464 122.438 C 224.258 122.752,223.797 123.030,223.340 123.116 C 222.913 123.196,222.509 123.405,222.442 123.580 C 221.994 124.747,212.301 124.877,210.700 123.737 C 210.353 123.490,209.677 123.214,209.197 123.124 C 207.574 122.820,206.035 120.660,207.054 120.115 C 207.297 119.984,207.578 119.552,207.677 119.154 C 207.817 118.590,208.091 118.314,208.925 117.898 L 209.993 117.365 210.487 117.818 C 210.758 118.067,211.333 118.342,211.765 118.429 C 212.196 118.516,212.902 118.797,213.333 119.053 C 214.337 119.649,219.031 119.786,219.375 119.229 C 219.485 119.052,219.910 118.749,220.320 118.556 C 221.367 118.063,221.481 116.863,220.573 115.885 C 219.970 115.236,219.830 115.198,217.182 114.968 C 215.238 114.799,214.176 114.598,213.596 114.290 C 213.144 114.049,212.389 113.793,211.920 113.720 C 211.451 113.648,210.848 113.367,210.580 113.097 C 210.312 112.826,209.891 112.502,209.644 112.377 C 209.398 112.251,209.094 111.946,208.968 111.700 C 208.842 111.454,208.522 111.036,208.255 110.772 C 207.352 109.876,207.268 105.447,208.131 104.229 C 208.343 103.931,208.673 103.424,208.865 103.104 C 209.057 102.783,209.436 102.421,209.707 102.299 C 209.978 102.177,210.256 101.902,210.324 101.688 C 210.395 101.464,210.846 101.193,211.386 101.051 C 211.902 100.915,212.575 100.643,212.880 100.447 C 214.289 99.543,220.293 99.467,222.073 100.331 M267.273 100.308 C 267.627 100.570,268.247 100.856,268.650 100.945 C 269.053 101.034,269.676 101.374,270.034 101.701 C 270.392 102.029,271.000 102.539,271.385 102.835 C 271.770 103.131,272.199 103.635,272.338 103.955 C 272.478 104.276,272.815 104.754,273.088 105.018 C 273.361 105.282,273.657 105.887,273.746 106.362 C 273.835 106.838,274.109 107.499,274.354 107.831 C 275.006 108.714,275.194 112.692,274.634 113.732 C 274.124 114.680,273.665 114.729,265.406 114.732 C 258.112 114.734,258.088 114.739,258.743 116.101 C 259.188 117.027,260.594 118.543,261.007 118.543 C 261.172 118.543,261.614 118.770,261.989 119.048 C 263.473 120.144,265.863 119.765,269.714 117.821 C 270.982 117.181,271.655 117.388,272.242 118.599 C 272.497 119.123,272.909 119.679,273.159 119.834 C 273.701 120.170,273.758 121.095,273.263 121.504 C 273.071 121.663,272.659 122.060,272.349 122.387 C 272.039 122.714,271.450 123.045,271.041 123.122 C 270.632 123.198,270.031 123.471,269.704 123.728 C 268.259 124.865,260.552 124.783,258.863 123.613 C 258.397 123.290,257.846 123.025,257.640 123.025 C 257.434 123.025,257.100 122.773,256.898 122.465 C 256.696 122.157,256.430 121.905,256.307 121.905 C 255.972 121.905,254.409 120.229,254.237 119.686 C 254.155 119.427,253.900 119.115,253.670 118.992 C 253.407 118.851,253.161 118.326,253.003 117.563 C 252.865 116.900,252.556 115.971,252.315 115.498 C 251.691 114.276,251.682 110.281,252.300 109.069 C 252.532 108.613,252.788 107.861,252.869 107.397 C 253.063 106.279,253.450 105.322,253.708 105.322 C 253.823 105.322,254.068 104.958,254.254 104.513 C 254.440 104.069,254.785 103.654,255.020 103.593 C 255.255 103.531,255.508 103.289,255.583 103.055 C 255.657 102.820,256.001 102.482,256.347 102.303 C 256.693 102.124,257.034 101.828,257.104 101.645 C 257.174 101.463,257.665 101.190,258.195 101.038 C 258.726 100.887,259.332 100.617,259.543 100.439 C 260.575 99.566,266.142 99.471,267.273 100.308 M293.706 99.958 C 294.757 100.357,295.033 101.579,294.307 102.615 C 294.103 102.906,293.850 103.605,293.745 104.168 C 293.478 105.595,293.464 105.601,290.380 105.631 L 287.618 105.659 286.705 106.572 C 285.388 107.890,285.228 108.876,285.066 116.715 C 284.908 124.328,284.967 124.143,282.720 124.149 C 282.087 124.150,281.351 124.210,281.085 124.281 C 280.765 124.367,280.443 124.253,280.133 123.942 C 279.400 123.210,279.396 101.690,280.128 100.759 C 280.856 99.834,283.221 99.882,284.180 100.840 C 285.098 101.759,286.033 101.647,287.539 100.438 C 288.393 99.752,292.353 99.444,293.706 99.958 M312.092 100.309 C 312.447 100.571,313.148 100.855,313.651 100.940 C 314.339 101.056,314.793 101.341,315.490 102.094 C 316.594 103.288,316.600 103.339,315.742 104.237 C 315.373 104.624,315.070 105.114,315.070 105.325 C 315.070 106.700,313.357 107.306,312.207 106.339 C 310.955 105.285,305.435 105.270,304.452 106.318 C 304.191 106.595,303.751 106.942,303.473 107.089 C 303.196 107.235,302.969 107.497,302.969 107.671 C 302.969 107.846,302.722 108.255,302.419 108.581 C 301.369 109.715,301.305 114.521,302.324 115.847 C 303.755 117.711,304.329 118.127,306.260 118.699 L 308.146 119.259 309.983 118.777 C 310.994 118.512,312.293 118.131,312.871 117.932 C 314.103 117.506,314.474 117.688,315.018 118.988 C 315.197 119.417,315.534 119.902,315.767 120.065 C 316.816 120.800,316.068 122.638,314.558 123.039 C 314.038 123.177,313.391 123.496,313.119 123.748 C 312.008 124.777,304.580 124.758,303.179 123.723 C 302.820 123.457,302.215 123.177,301.836 123.101 C 301.456 123.025,300.990 122.725,300.799 122.434 C 300.609 122.143,300.326 121.905,300.171 121.905 C 300.016 121.905,299.470 121.426,298.958 120.840 C 298.446 120.255,297.778 119.494,297.473 119.151 C 297.168 118.807,296.919 118.371,296.919 118.182 C 296.919 117.993,296.641 117.367,296.303 116.791 C 295.368 115.201,295.351 109.032,296.277 107.656 C 296.601 107.173,296.927 106.519,296.999 106.201 C 297.072 105.884,297.437 105.305,297.810 104.915 C 298.182 104.525,298.487 104.111,298.487 103.995 C 298.487 103.879,298.695 103.718,298.948 103.637 C 299.202 103.557,299.502 103.248,299.615 102.950 C 299.728 102.652,299.971 102.409,300.155 102.409 C 300.338 102.409,300.785 102.120,301.147 101.766 C 301.516 101.405,302.183 101.052,302.667 100.962 C 303.141 100.874,303.702 100.648,303.912 100.459 C 304.909 99.565,310.937 99.454,312.092 100.309 M334.249 100.426 C 334.731 100.752,335.348 101.085,335.619 101.166 C 335.890 101.246,336.174 101.508,336.250 101.748 C 336.410 102.253,337.031 102.343,337.031 101.861 C 337.031 100.842,338.018 100.312,340.102 100.213 L 342.116 100.117 342.607 100.910 C 343.097 101.702,343.097 101.728,343.033 112.555 C 342.958 125.282,343.229 124.146,340.271 124.146 C 337.725 124.146,337.538 124.079,337.115 123.021 L 336.778 122.178 336.242 122.714 C 335.948 123.008,335.563 123.249,335.388 123.249 C 335.212 123.249,334.929 123.460,334.758 123.718 C 334.066 124.760,326.895 124.789,325.759 123.754 C 325.488 123.507,324.893 123.185,324.436 123.039 C 323.969 122.889,323.547 122.584,323.469 122.339 C 323.393 122.100,323.214 121.905,323.070 121.905 C 322.755 121.905,320.896 119.947,320.896 119.615 C 320.896 119.485,320.656 119.156,320.362 118.884 C 320.042 118.587,319.728 117.925,319.579 117.227 C 319.442 116.588,319.153 115.796,318.937 115.466 C 318.317 114.521,318.373 110.023,319.019 108.796 C 319.279 108.303,319.558 107.532,319.639 107.082 C 319.721 106.633,320.087 105.888,320.454 105.427 C 320.821 104.966,321.120 104.449,321.120 104.278 C 321.120 104.108,321.373 103.853,321.681 103.713 C 321.989 103.572,322.241 103.325,322.241 103.162 C 322.241 103.000,322.518 102.692,322.857 102.478 C 323.196 102.263,323.682 101.872,323.937 101.609 C 324.191 101.345,324.797 101.056,325.281 100.966 C 325.766 100.876,326.328 100.654,326.531 100.472 C 327.635 99.482,332.809 99.451,334.249 100.426 M363.166 100.149 C 363.935 100.618,363.973 101.141,363.341 102.555 C 363.167 102.943,363.025 103.551,363.025 103.906 C 363.025 105.303,362.657 105.482,359.578 105.584 L 356.791 105.677 355.910 106.564 C 355.425 107.052,354.955 107.754,354.864 108.123 C 354.773 108.493,354.560 109.098,354.390 109.468 C 354.155 109.978,354.063 111.707,354.008 116.639 C 353.919 124.598,354.023 124.321,351.162 124.242 C 348.746 124.176,348.908 125.036,348.908 112.274 C 348.908 99.390,348.755 100.168,351.287 100.168 C 352.871 100.168,353.838 100.759,353.838 101.727 C 353.838 102.309,354.098 102.313,354.458 101.737 C 354.612 101.490,354.868 101.289,355.028 101.289 C 355.188 101.289,355.780 100.996,356.345 100.638 C 358.007 99.583,361.793 99.312,363.166 100.149 M262.008 105.458 C 259.729 105.923,257.876 108.409,258.935 109.579 C 259.466 110.166,268.683 110.290,268.683 109.710 C 268.683 109.535,268.738 109.252,268.804 109.079 C 268.870 108.907,268.693 108.509,268.411 108.194 C 268.130 107.879,267.731 107.313,267.527 106.936 C 266.802 105.603,264.422 104.966,262.008 105.458 M188.063 105.709 C 187.611 105.765,187.199 106.000,186.988 106.322 C 186.800 106.609,186.450 106.895,186.211 106.958 C 185.971 107.020,185.678 107.329,185.558 107.644 C 185.438 107.960,185.149 108.409,184.915 108.642 C 183.889 109.668,184.041 114.759,185.137 116.078 C 186.765 118.038,187.043 118.237,188.874 118.758 L 190.666 119.268 192.071 118.794 C 192.844 118.533,193.611 118.319,193.776 118.319 C 194.201 118.319,195.548 116.921,195.741 116.280 C 195.829 115.984,196.118 115.572,196.382 115.363 C 197.127 114.775,197.112 109.882,196.363 109.085 C 196.088 108.792,195.751 108.229,195.613 107.833 C 195.475 107.438,195.228 107.115,195.064 107.115 C 194.900 107.115,194.571 106.866,194.332 106.562 C 193.647 105.692,191.052 105.339,188.063 105.709 M328.640 105.753 C 328.136 105.859,327.559 106.178,327.296 106.498 C 327.042 106.805,326.626 107.165,326.370 107.297 C 326.114 107.429,325.787 107.929,325.644 108.410 C 325.500 108.890,325.179 109.516,324.932 109.802 C 324.221 110.621,324.280 113.744,325.026 114.843 C 325.325 115.284,325.635 115.940,325.714 116.300 C 325.796 116.673,326.049 117.015,326.303 117.096 C 326.548 117.174,326.841 117.481,326.954 117.778 C 327.068 118.078,327.342 118.319,327.570 118.319 C 327.796 118.319,328.614 118.533,329.389 118.795 C 330.773 119.262,330.825 119.264,332.290 118.875 C 336.295 117.812,337.615 115.550,337.147 110.557 C 336.976 108.734,336.837 108.510,334.428 106.188 C 333.891 105.671,330.316 105.402,328.640 105.753 M374.601 105.709 C 373.128 105.929,371.187 108.388,370.892 110.407 C 370.640 112.127,370.850 114.994,371.284 115.780 C 372.045 117.157,373.581 118.262,375.418 118.756 L 377.318 119.266 378.583 118.793 C 379.279 118.532,380.049 118.319,380.293 118.319 C 380.545 118.319,380.844 118.086,380.982 117.784 C 381.116 117.489,381.467 117.139,381.761 117.004 C 382.056 116.870,382.297 116.571,382.297 116.339 C 382.297 116.107,382.564 115.525,382.891 115.045 C 383.700 113.857,383.807 110.707,383.070 109.769 C 382.817 109.448,382.474 108.771,382.307 108.266 C 382.136 107.747,381.821 107.289,381.584 107.214 C 381.353 107.141,381.009 106.843,380.819 106.553 C 380.270 105.716,377.271 105.309,374.601 105.709 M395.762 121.593 C 396.036 121.922,396.412 122.519,396.756 123.169 C 396.831 123.309,396.658 123.678,396.373 123.988 C 396.088 124.298,395.724 124.712,395.565 124.909 C 394.569 126.141,392.536 124.275,393.070 122.618 C 393.527 121.199,394.977 120.647,395.762 121.593 M114.562 129.776 L 115.033 130.028 114.504 130.311 C 113.754 130.713,112.679 130.270,113.301 129.815 C 113.788 129.459,113.960 129.454,114.562 129.776 " stroke="none" fill="#fbfbfb" fill-rule="evenodd"></path><path id="path2" d="M384.359 92.370 C 384.166 92.563,384.090 94.038,384.090 97.593 C 384.090 103.885,383.865 104.280,381.499 102.153 C 381.244 101.924,380.488 101.576,379.818 101.378 C 379.148 101.180,378.463 100.907,378.296 100.770 C 377.866 100.419,374.831 100.435,374.402 100.791 C 374.212 100.948,373.381 101.218,372.556 101.391 C 370.942 101.729,370.889 101.765,368.477 104.214 C 367.379 105.329,366.828 106.074,366.735 106.569 C 366.660 106.967,366.375 107.578,366.101 107.926 C 365.211 109.056,365.273 116.527,366.172 116.527 C 366.270 116.527,366.519 117.034,366.725 117.654 C 366.931 118.274,367.327 119.056,367.606 119.391 C 367.885 119.726,368.232 120.227,368.378 120.504 C 368.524 120.782,368.773 121.008,368.932 121.008 C 369.091 121.008,369.460 121.262,369.751 121.572 C 370.042 121.882,370.867 122.349,371.583 122.610 C 372.299 122.872,372.885 123.165,372.885 123.262 C 372.885 124.087,378.447 124.143,379.548 123.329 C 379.894 123.073,380.393 122.796,380.657 122.712 C 380.921 122.628,381.518 122.256,381.984 121.886 C 383.088 121.009,383.644 121.103,384.165 122.254 L 384.576 123.163 385.957 123.072 C 386.869 123.012,387.434 122.860,387.619 122.624 C 388.018 122.116,388.029 92.768,387.630 92.370 C 387.279 92.019,384.710 92.019,384.359 92.370 M236.286 94.808 C 236.054 95.065,235.966 95.776,235.966 97.407 C 235.966 101.063,235.794 101.280,232.893 101.285 C 230.943 101.289,230.758 101.499,230.858 103.590 L 230.924 104.986 233.075 105.098 C 236.164 105.259,235.914 104.622,236.005 112.560 C 236.074 118.564,236.128 119.404,236.482 120.000 C 237.394 121.534,238.039 122.226,238.932 122.625 C 239.451 122.858,239.942 123.155,240.023 123.286 C 240.524 124.098,245.641 124.157,246.809 123.364 C 247.261 123.058,247.876 122.745,248.176 122.670 C 249.133 122.430,249.265 122.031,248.633 121.280 C 248.321 120.909,248.001 120.284,247.922 119.891 C 247.733 118.943,247.290 118.817,246.426 119.466 C 244.750 120.724,242.225 120.154,240.560 118.141 L 239.888 117.328 239.816 111.598 C 239.726 104.483,239.296 105.132,244.157 105.048 L 247.731 104.986 247.798 103.453 C 247.894 101.253,247.958 101.289,243.922 101.289 C 239.714 101.289,239.966 101.507,239.794 97.709 C 239.723 96.123,239.596 94.759,239.514 94.677 C 239.180 94.344,236.612 94.448,236.286 94.808 M148.053 100.607 C 147.706 100.718,147.303 100.899,147.157 101.010 C 147.010 101.120,146.437 101.337,145.882 101.491 C 145.228 101.674,144.638 102.046,144.202 102.554 C 143.385 103.504,142.941 103.407,142.456 102.172 L 142.109 101.289 140.796 101.289 C 139.971 101.289,139.299 101.418,138.985 101.637 L 138.487 101.986 138.487 112.033 C 138.487 123.692,138.337 122.928,140.665 123.076 C 142.497 123.193,142.383 123.672,142.518 115.294 L 142.633 108.123 143.641 106.830 C 144.468 105.770,144.847 105.478,145.743 105.209 C 146.344 105.029,146.949 104.792,147.088 104.684 C 148.138 103.862,150.929 104.696,152.481 106.295 C 153.674 107.525,153.759 108.112,153.877 115.992 L 153.974 122.516 154.533 122.771 C 155.332 123.135,156.902 123.085,157.485 122.676 C 157.977 122.332,157.983 122.255,157.983 116.879 C 157.983 108.041,158.573 106.119,161.569 105.199 C 162.246 104.990,162.902 104.746,163.025 104.655 C 164.134 103.840,167.279 104.974,168.504 106.630 C 169.525 108.012,169.599 108.646,169.623 116.190 C 169.646 123.416,169.568 123.124,171.455 123.047 C 173.577 122.961,173.462 123.488,173.384 114.174 C 173.314 105.813,173.265 105.366,172.334 104.435 C 172.082 104.183,171.877 103.848,171.877 103.689 C 171.877 103.191,169.974 101.784,168.942 101.520 C 168.399 101.381,167.456 101.059,166.846 100.804 C 165.603 100.285,163.932 100.345,162.773 100.950 C 162.419 101.135,162.028 101.287,161.905 101.288 C 161.022 101.299,159.775 101.923,158.789 102.849 C 157.052 104.480,156.848 104.483,155.338 102.904 C 154.260 101.777,153.905 101.546,153.053 101.418 C 152.499 101.334,151.809 101.111,151.521 100.923 C 150.886 100.507,148.921 100.328,148.053 100.607 M188.571 100.588 C 188.202 100.684,187.697 100.869,187.451 100.999 C 187.204 101.129,186.456 101.350,185.789 101.492 C 185.121 101.633,184.365 101.946,184.108 102.188 C 183.264 102.984,181.265 104.975,180.736 105.546 C 180.451 105.854,180.150 106.490,180.068 106.958 C 179.987 107.426,179.665 108.283,179.354 108.863 C 178.587 110.289,178.643 114.277,179.450 115.738 C 179.721 116.229,180.010 116.985,180.091 117.419 C 180.380 118.966,183.520 122.214,185.143 122.647 C 185.518 122.746,186.124 123.049,186.489 123.319 C 187.502 124.067,192.414 124.061,193.213 123.310 C 193.505 123.035,194.093 122.689,194.519 122.542 C 194.946 122.394,195.562 121.988,195.889 121.640 C 196.640 120.840,197.069 120.990,197.538 122.218 L 197.899 123.164 199.286 123.076 C 201.606 122.928,201.457 123.685,201.457 112.055 C 201.457 100.464,201.626 101.289,199.249 101.289 C 197.944 101.289,197.847 101.325,197.618 101.905 C 196.976 103.532,196.730 103.602,195.464 102.519 C 194.950 102.079,193.995 101.561,193.343 101.368 C 192.691 101.176,192.049 100.931,191.918 100.824 C 191.570 100.541,189.355 100.385,188.571 100.588 M216.022 100.621 C 211.881 101.637,211.449 101.791,210.500 102.584 C 209.963 103.033,209.463 103.591,209.389 103.824 C 209.315 104.057,209.013 104.605,208.717 105.040 C 207.917 106.220,207.939 108.715,208.761 109.926 C 209.081 110.397,209.431 111.016,209.539 111.302 C 209.648 111.587,209.865 111.823,210.022 111.825 C 210.180 111.827,210.736 112.119,211.260 112.474 C 211.985 112.966,212.677 113.184,214.173 113.394 C 215.252 113.545,216.487 113.807,216.919 113.975 C 217.350 114.143,218.402 114.377,219.256 114.496 C 220.817 114.713,222.479 115.956,222.511 116.930 C 222.540 117.815,220.780 119.778,219.772 119.984 C 217.232 120.503,212.868 120.220,211.855 119.471 C 209.706 117.882,206.931 119.380,208.228 121.428 C 208.627 122.058,210.231 122.801,211.192 122.801 C 211.326 122.801,211.837 123.028,212.328 123.305 C 213.668 124.062,219.528 124.069,220.739 123.315 C 221.176 123.043,221.951 122.754,222.462 122.673 C 223.033 122.581,223.608 122.297,223.955 121.934 C 224.265 121.610,224.621 121.244,224.746 121.120 C 226.103 119.780,226.373 119.217,226.490 117.481 C 226.605 115.770,226.290 113.838,225.896 113.838 C 225.790 113.838,225.502 113.498,225.258 113.084 C 224.992 112.634,224.561 112.267,224.186 112.173 C 223.842 112.087,223.283 111.783,222.944 111.498 C 222.464 111.094,221.942 110.948,220.576 110.834 C 219.612 110.754,218.017 110.443,217.031 110.142 C 216.045 109.842,214.867 109.539,214.413 109.469 C 213.426 109.316,212.267 107.631,212.668 106.932 C 212.788 106.724,212.984 106.276,213.105 105.934 C 213.228 105.587,213.590 105.213,213.927 105.085 C 214.258 104.959,214.656 104.684,214.810 104.473 C 215.301 103.802,219.674 103.922,220.825 104.637 C 221.535 105.078,222.015 105.188,223.286 105.198 L 224.866 105.210 225.159 104.325 C 225.741 102.568,224.886 101.729,222.185 101.406 C 221.445 101.317,220.528 101.115,220.147 100.957 C 219.208 100.566,216.983 100.385,216.022 100.621 M262.297 100.625 C 259.480 101.406,257.941 101.940,257.573 102.263 C 255.784 103.833,254.790 104.870,254.790 105.165 C 254.790 105.356,254.528 105.823,254.209 106.203 C 252.795 107.882,252.746 118.095,254.151 118.095 C 254.268 118.095,254.512 118.447,254.692 118.878 C 255.115 119.892,257.886 122.577,258.509 122.577 C 258.769 122.577,259.475 122.854,260.079 123.193 C 261.607 124.051,266.926 124.136,268.235 123.322 C 268.667 123.054,269.495 122.715,270.077 122.569 C 270.658 122.423,271.425 122.025,271.780 121.686 C 272.136 121.346,272.568 121.015,272.740 120.950 C 272.975 120.862,272.904 120.689,272.454 120.255 C 272.125 119.938,271.787 119.461,271.703 119.197 C 271.476 118.483,269.494 118.679,268.255 119.538 C 267.389 120.138,267.248 120.162,264.551 120.168 L 261.748 120.174 260.479 119.303 C 259.173 118.405,259.055 118.276,257.891 116.463 C 257.351 115.622,257.232 115.239,257.342 114.691 C 257.612 113.341,257.299 113.389,265.700 113.389 C 274.963 113.389,274.799 113.442,274.065 110.700 C 273.950 110.269,273.642 109.065,273.380 108.025 C 272.850 105.915,272.583 105.484,270.427 103.254 C 269.084 101.866,268.780 101.665,267.626 101.403 C 266.913 101.241,265.927 100.952,265.434 100.760 C 264.458 100.381,263.349 100.333,262.297 100.625 M290.084 100.615 C 287.705 101.314,286.492 101.969,285.026 103.346 C 284.551 103.792,284.271 103.561,284.021 102.520 C 283.761 101.439,283.523 101.289,282.070 101.289 C 280.002 101.289,280.127 100.601,280.119 111.955 C 280.111 123.678,280.031 123.202,281.968 123.071 C 283.909 122.939,283.796 123.356,283.922 115.862 C 284.028 109.497,284.057 109.137,284.506 108.529 C 284.766 108.178,285.055 107.651,285.148 107.358 C 285.666 105.725,289.185 103.927,290.912 104.412 C 292.902 104.971,292.851 104.974,293.033 104.282 C 293.225 103.548,293.279 100.937,293.105 100.762 C 292.871 100.527,290.737 100.423,290.084 100.615 M306.148 100.837 C 305.493 101.073,304.507 101.333,303.958 101.415 C 303.408 101.498,302.532 101.854,302.011 102.207 C 301.491 102.560,300.964 102.852,300.840 102.857 C 300.604 102.865,299.367 104.194,298.288 105.598 C 297.935 106.058,297.525 106.916,297.378 107.503 C 297.230 108.091,296.940 108.758,296.734 108.987 C 296.175 109.606,296.182 114.716,296.743 115.336 C 296.954 115.569,297.245 116.310,297.389 116.981 C 297.541 117.690,297.878 118.438,298.192 118.765 C 301.376 122.077,301.950 122.577,302.568 122.577 C 302.875 122.577,303.621 122.854,304.224 123.193 C 305.872 124.118,310.352 124.115,312.022 123.187 C 312.626 122.851,313.313 122.577,313.550 122.577 C 314.616 122.577,315.369 121.299,314.842 120.383 C 314.721 120.172,314.524 119.723,314.403 119.384 C 314.059 118.414,312.753 118.552,310.588 119.786 C 309.828 120.219,306.852 120.214,306.106 119.778 C 305.798 119.598,305.027 119.202,304.393 118.898 C 303.098 118.277,301.176 116.141,301.176 115.321 C 301.176 115.050,301.029 114.260,300.848 113.567 C 300.559 112.458,300.559 112.152,300.848 111.044 C 301.029 110.350,301.176 109.549,301.176 109.264 C 301.176 108.804,302.078 107.392,302.763 106.779 C 302.901 106.655,303.283 106.291,303.613 105.969 C 303.942 105.647,304.785 105.217,305.484 105.014 C 306.184 104.810,306.817 104.544,306.893 104.423 C 307.097 104.092,309.044 104.159,309.736 104.520 C 311.848 105.621,314.082 105.817,314.418 104.930 C 314.547 104.591,314.852 104.100,315.097 103.839 L 315.542 103.363 314.802 102.607 C 314.068 101.856,313.916 101.799,309.468 100.612 C 308.308 100.303,307.477 100.359,306.148 100.837 M329.076 100.622 C 328.706 100.723,328.000 100.961,327.507 101.149 C 327.014 101.338,326.409 101.498,326.162 101.504 C 325.916 101.509,325.369 101.741,324.948 102.018 C 324.527 102.294,324.004 102.628,323.787 102.758 C 323.126 103.155,321.569 104.855,321.569 105.180 C 321.569 105.347,321.266 105.865,320.896 106.331 C 320.527 106.796,320.224 107.264,320.224 107.371 C 320.224 107.478,320.070 108.594,319.881 109.849 C 319.445 112.751,319.878 116.533,320.800 117.883 C 321.100 118.321,321.345 118.813,321.345 118.977 C 321.345 119.544,324.534 122.350,325.462 122.600 C 325.945 122.730,326.627 123.049,326.979 123.308 C 328.165 124.185,332.369 124.164,333.669 123.275 C 334.224 122.896,334.838 122.583,335.033 122.581 C 335.228 122.579,335.662 122.269,335.997 121.893 C 336.730 121.071,337.222 121.152,338.276 122.269 C 339.107 123.151,341.978 123.439,342.273 122.671 C 342.551 121.945,342.425 101.842,342.140 101.557 C 341.430 100.848,338.261 101.419,337.919 102.318 C 337.581 103.207,336.606 103.279,335.924 102.467 C 335.572 102.048,334.917 101.649,334.230 101.435 C 333.613 101.243,332.706 100.935,332.213 100.749 C 331.234 100.381,330.122 100.336,329.076 100.622 M358.692 100.712 C 358.342 100.902,357.648 101.181,357.148 101.330 C 356.643 101.481,355.710 102.087,355.044 102.696 L 353.847 103.789 353.479 102.931 C 353.277 102.459,353.037 101.922,352.947 101.737 C 352.738 101.309,350.357 101.147,349.897 101.528 C 349.533 101.830,349.419 122.201,349.779 122.768 C 349.988 123.099,352.576 123.241,352.880 122.938 C 352.975 122.843,353.104 119.616,353.165 115.767 L 353.277 108.769 353.894 108.037 C 354.232 107.634,354.510 107.181,354.510 107.030 C 354.510 106.628,355.874 105.398,356.527 105.211 C 356.835 105.123,357.331 104.897,357.629 104.708 C 358.221 104.334,359.416 104.274,361.048 104.536 L 362.097 104.705 362.360 103.727 C 362.607 102.809,362.559 100.971,362.280 100.692 C 361.952 100.365,359.303 100.379,358.692 100.712 M266.083 104.732 C 266.562 105.056,267.088 105.322,267.253 105.322 C 267.418 105.322,267.725 105.599,267.935 105.938 C 268.145 106.277,268.572 106.835,268.884 107.177 C 269.503 107.856,269.708 109.989,269.203 110.495 C 268.754 110.944,257.882 110.776,257.535 110.315 C 257.090 109.723,257.208 108.774,257.815 108.052 C 258.123 107.686,258.375 107.283,258.375 107.156 C 258.375 106.749,259.565 105.496,260.270 105.160 C 260.645 104.981,261.305 104.636,261.737 104.392 C 262.853 103.762,264.889 103.921,266.083 104.732 M191.945 104.516 C 192.192 104.689,192.808 104.941,193.313 105.078 C 194.227 105.324,195.427 106.360,196.845 108.128 C 197.843 109.374,197.896 114.999,196.919 116.020 C 196.580 116.374,196.303 116.789,196.303 116.944 C 196.303 117.353,194.969 118.537,194.069 118.926 C 193.642 119.111,193.177 119.420,193.036 119.614 C 192.661 120.127,189.232 120.262,188.459 119.794 C 188.151 119.608,187.488 119.261,186.985 119.024 C 184.942 118.059,183.979 116.404,183.159 112.450 C 183.090 112.118,183.190 111.412,183.380 110.881 C 183.569 110.350,183.784 109.550,183.856 109.103 C 183.998 108.225,184.650 107.342,186.270 105.837 C 187.506 104.689,191.023 103.870,191.945 104.516 M332.625 104.633 C 333.146 104.871,333.851 105.135,334.190 105.220 C 334.934 105.407,337.479 107.891,337.479 108.430 C 337.479 108.641,337.697 109.212,337.964 109.701 C 338.660 110.975,338.667 113.420,337.977 114.510 C 337.704 114.941,337.480 115.513,337.480 115.780 C 337.475 118.517,330.134 121.469,328.281 119.480 C 328.030 119.211,327.680 118.992,327.502 118.992 C 327.117 118.992,325.154 117.160,325.154 116.801 C 325.154 116.663,324.907 116.283,324.604 115.957 C 322.146 113.304,324.635 105.975,328.293 105.098 C 328.896 104.953,329.508 104.692,329.652 104.518 C 330.025 104.069,331.512 104.126,332.625 104.633 M378.461 104.567 C 378.748 104.768,379.392 105.024,379.892 105.137 C 380.550 105.284,381.087 105.647,381.830 106.444 C 384.036 108.813,383.969 108.644,384.050 112.040 L 384.122 115.080 383.433 115.946 C 383.055 116.423,382.745 116.893,382.745 116.991 C 382.745 117.280,381.105 118.754,380.616 118.905 C 380.370 118.981,379.933 119.258,379.646 119.522 C 378.964 120.147,375.793 120.327,374.902 119.792 C 374.594 119.607,373.921 119.257,373.406 119.014 C 372.124 118.411,370.936 117.074,370.545 115.797 C 370.366 115.210,370.063 114.507,369.872 114.234 C 369.368 113.515,369.410 111.132,369.945 110.075 C 370.176 109.618,370.432 108.934,370.514 108.556 C 370.703 107.678,372.984 105.407,373.894 105.190 C 374.263 105.102,374.917 104.843,375.347 104.615 C 376.312 104.104,377.767 104.081,378.461 104.567 " stroke="none" fill="#111111" fill-rule="evenodd"></path><path id="path3" d="M77.759 77.668 C 77.451 77.724,76.644 77.914,75.966 78.091 C 75.289 78.268,73.916 78.513,72.916 78.636 C 71.747 78.780,70.716 79.063,70.026 79.430 C 69.436 79.743,68.660 80.000,68.303 80.000 C 67.576 80.000,66.560 80.462,66.119 80.994 C 65.959 81.187,65.591 81.345,65.302 81.345 C 65.014 81.345,64.441 81.640,64.029 82.002 C 63.618 82.363,63.019 82.724,62.698 82.805 C 62.378 82.885,61.887 83.195,61.607 83.492 C 61.327 83.790,60.978 84.034,60.832 84.034 C 60.685 84.034,60.300 84.299,59.976 84.623 C 59.489 85.110,59.329 85.163,59.049 84.931 C 58.772 84.701,58.711 84.716,58.711 85.017 C 58.711 85.218,58.913 85.555,59.160 85.766 C 59.406 85.977,59.608 86.373,59.608 86.646 C 59.608 87.018,59.759 87.159,60.215 87.212 C 60.650 87.263,60.860 87.442,60.953 87.843 C 61.032 88.186,61.265 88.430,61.552 88.472 C 61.868 88.518,62.065 88.756,62.154 89.200 C 62.257 89.716,62.406 89.860,62.837 89.860 C 63.271 89.860,63.403 89.990,63.459 90.476 C 63.514 90.960,63.662 91.108,64.146 91.163 C 64.662 91.223,64.762 91.341,64.762 91.892 C 64.762 92.599,64.206 92.800,63.686 92.280 C 63.538 92.132,63.417 91.830,63.417 91.608 C 63.417 91.369,63.253 91.204,63.014 91.204 C 62.792 91.204,62.490 91.083,62.342 90.936 C 62.194 90.788,62.073 90.485,62.073 90.263 C 62.073 90.004,61.906 89.860,61.605 89.860 C 61.291 89.860,61.054 89.639,60.884 89.188 C 60.727 88.771,60.471 88.515,60.212 88.515 C 59.952 88.515,59.696 88.260,59.539 87.843 C 59.177 86.885,57.883 86.844,57.774 87.787 C 57.719 88.267,57.570 88.419,57.100 88.473 C 56.637 88.526,56.482 88.680,56.428 89.136 C 56.379 89.557,56.195 89.768,55.798 89.860 C 55.397 89.953,55.218 90.162,55.167 90.597 C 55.112 91.072,54.977 91.204,54.551 91.204 C 54.131 91.204,54.006 91.323,54.006 91.720 C 54.006 92.326,53.619 92.773,53.096 92.773 C 52.822 92.773,52.671 93.083,52.525 93.950 C 52.359 94.926,52.239 95.138,51.821 95.198 C 51.398 95.258,51.317 95.408,51.317 96.132 C 51.317 97.326,51.129 97.703,50.534 97.703 C 50.072 97.703,50.010 97.839,49.868 99.160 C 49.724 100.508,49.672 100.616,49.170 100.616 C 48.596 100.616,48.466 101.504,48.618 104.378 C 48.674 105.430,48.355 105.994,47.704 105.994 C 47.302 105.994,47.283 106.275,47.283 112.045 C 47.283 117.814,47.302 118.095,47.704 118.095 C 48.355 118.095,48.674 118.660,48.618 119.712 C 48.466 122.578,48.596 123.473,49.166 123.473 C 49.656 123.473,49.718 123.591,49.858 124.805 C 49.990 125.940,50.084 126.147,50.497 126.206 C 50.899 126.263,51.015 126.491,51.185 127.563 C 51.349 128.599,51.471 128.852,51.808 128.852 C 52.236 128.852,52.299 128.954,52.535 130.028 C 52.625 130.443,52.812 130.644,53.106 130.644 C 53.638 130.644,54.006 131.279,54.006 132.198 C 54.006 132.777,54.092 132.885,54.551 132.885 C 54.979 132.885,55.111 133.017,55.167 133.501 C 55.222 133.982,55.371 134.133,55.841 134.187 C 56.304 134.241,56.460 134.395,56.513 134.851 C 56.562 135.268,56.746 135.483,57.135 135.574 C 57.481 135.654,57.735 135.909,57.816 136.255 C 58.025 137.150,59.198 137.152,59.535 136.257 C 59.696 135.832,59.951 135.574,60.212 135.574 C 60.471 135.574,60.727 135.318,60.884 134.902 C 61.054 134.451,61.291 134.230,61.605 134.230 C 61.906 134.230,62.073 134.086,62.073 133.826 C 62.073 133.310,62.498 132.885,63.014 132.885 C 63.253 132.885,63.417 132.721,63.417 132.482 C 63.417 131.966,63.842 131.541,64.359 131.541 C 65.099 131.541,64.899 132.840,64.146 132.926 C 63.662 132.982,63.514 133.129,63.459 133.613 C 63.403 134.099,63.271 134.230,62.837 134.230 C 62.404 134.230,62.257 134.374,62.151 134.902 C 62.048 135.416,61.895 135.574,61.499 135.574 C 61.102 135.574,60.966 135.717,60.911 136.190 C 60.856 136.674,60.708 136.822,60.225 136.878 C 59.772 136.930,59.569 137.108,59.459 137.548 C 59.376 137.877,59.174 138.281,59.010 138.445 C 58.846 138.609,58.711 138.857,58.711 138.996 C 58.711 139.180,58.783 139.178,58.972 138.989 C 59.169 138.791,59.404 138.875,59.947 139.336 C 60.714 139.988,61.593 140.543,63.127 141.342 C 63.656 141.618,64.090 141.942,64.090 142.062 C 64.090 142.182,64.613 142.435,65.252 142.625 C 65.891 142.815,66.623 143.157,66.877 143.386 C 67.131 143.614,67.918 143.913,68.626 144.050 C 69.334 144.186,70.191 144.498,70.531 144.743 C 70.965 145.056,71.794 145.258,73.320 145.423 C 74.514 145.552,76.128 145.807,76.905 145.991 C 78.872 146.454,82.222 146.416,84.857 145.899 C 86.068 145.662,87.793 145.396,88.691 145.309 C 89.759 145.205,90.509 145.004,90.861 144.728 C 91.157 144.495,91.985 144.192,92.702 144.053 C 93.419 143.915,94.214 143.614,94.468 143.386 C 94.722 143.157,95.453 142.815,96.092 142.625 C 96.732 142.435,97.255 142.184,97.255 142.068 C 97.255 141.952,97.734 141.597,98.319 141.281 C 100.084 140.327,100.893 139.764,102.177 138.594 C 103.863 137.059,106.417 134.467,107.227 133.469 C 107.597 133.013,108.138 132.376,108.430 132.053 C 108.722 131.731,109.103 131.128,109.276 130.714 C 109.449 130.300,109.784 129.768,110.021 129.530 C 110.259 129.293,110.558 128.707,110.688 128.227 C 110.817 127.747,111.123 127.173,111.367 126.952 C 111.612 126.730,111.878 126.185,111.959 125.740 C 112.039 125.294,112.338 124.527,112.623 124.034 C 112.907 123.541,113.251 122.442,113.386 121.591 C 113.522 120.741,113.853 119.581,114.123 119.014 C 114.930 117.317,114.854 106.768,114.020 104.650 C 113.704 103.849,113.372 102.589,113.283 101.851 C 113.193 101.113,112.924 100.234,112.684 99.898 C 112.445 99.562,112.102 98.791,111.922 98.186 C 111.742 97.580,111.449 96.964,111.271 96.816 C 111.093 96.668,110.827 96.177,110.679 95.724 C 110.532 95.272,110.181 94.625,109.899 94.287 C 109.617 93.949,109.315 93.444,109.228 93.166 C 109.004 92.455,105.933 88.937,103.836 86.991 C 102.866 86.090,101.765 85.057,101.389 84.694 C 101.013 84.331,100.602 84.034,100.476 84.034 C 100.350 84.034,100.017 83.790,99.738 83.492 C 99.458 83.195,98.967 82.885,98.646 82.805 C 98.326 82.724,97.727 82.363,97.315 82.002 C 96.904 81.640,96.326 81.345,96.032 81.345 C 95.737 81.345,95.212 81.105,94.863 80.813 C 94.515 80.520,93.799 80.208,93.272 80.120 C 92.745 80.031,91.842 79.708,91.264 79.401 C 90.567 79.030,89.609 78.778,88.413 78.650 C 87.421 78.544,86.106 78.294,85.490 78.094 C 84.390 77.737,79.015 77.441,77.759 77.668 M66.150 94.174 C 66.211 95.026,66.283 95.134,66.835 95.197 C 67.588 95.284,67.788 96.583,67.048 96.583 C 66.531 96.583,66.106 96.158,66.106 95.641 C 66.106 95.402,65.942 95.238,65.703 95.238 C 65.164 95.238,64.762 94.807,64.762 94.230 C 64.762 92.903,66.054 92.851,66.150 94.174 M68.750 99.233 C 68.820 100.673,68.448 101.075,67.720 100.347 C 67.278 99.905,67.373 97.980,67.843 97.859 C 68.569 97.672,68.683 97.845,68.750 99.233 M70.140 102.844 C 70.140 104.506,69.967 104.813,69.248 104.428 C 68.794 104.185,68.555 101.828,68.945 101.438 C 69.650 100.733,70.140 101.310,70.140 102.844 M71.373 112.045 L 71.373 117.311 70.812 117.311 L 70.252 117.311 70.192 112.274 C 70.125 106.729,70.140 106.604,70.867 106.707 L 71.373 106.779 71.373 112.045 M70.094 121.210 L 70.160 122.833 69.534 122.761 C 68.730 122.669,68.437 120.256,69.166 119.723 C 69.839 119.231,70.026 119.529,70.094 121.210 M68.754 125.546 C 68.701 126.097,68.564 126.291,68.194 126.344 C 67.782 126.403,67.680 126.607,67.553 127.620 C 67.417 128.712,67.346 128.833,66.810 128.895 C 66.287 128.956,66.210 129.074,66.150 129.916 C 66.078 130.911,65.621 131.190,65.031 130.599 C 64.429 129.997,64.870 128.852,65.703 128.852 C 66.035 128.852,66.106 128.662,66.106 127.776 C 66.106 126.639,66.384 126.162,67.048 126.162 C 67.287 126.162,67.451 125.998,67.451 125.759 C 67.451 125.238,67.877 124.818,68.406 124.818 C 68.742 124.818,68.810 124.960,68.754 125.546 " stroke="none" fill="#f49c05" fill-rule="evenodd"></path><path id="path4" d="M33.838 77.302 C 33.036 77.405,31.978 77.650,31.485 77.846 C 30.992 78.042,29.902 78.297,29.064 78.413 C 28.226 78.530,27.195 78.828,26.773 79.077 C 26.352 79.326,25.626 79.596,25.161 79.677 C 24.695 79.758,23.961 80.055,23.529 80.336 C 23.098 80.618,22.375 80.965,21.923 81.108 C 21.470 81.251,20.978 81.515,20.829 81.695 C 20.679 81.875,20.117 82.217,19.578 82.455 C 19.040 82.693,18.599 82.997,18.599 83.129 C 18.599 83.262,18.322 83.489,17.983 83.634 C 17.644 83.779,17.099 84.155,16.771 84.470 C 16.443 84.784,15.658 85.445,15.026 85.938 C 13.832 86.870,11.011 89.995,10.284 91.190 C 10.055 91.568,9.776 91.877,9.666 91.877 C 9.556 91.877,9.342 92.176,9.190 92.543 C 9.039 92.909,8.677 93.486,8.386 93.824 C 8.095 94.162,7.798 94.711,7.724 95.044 C 7.651 95.377,7.395 95.876,7.155 96.153 C 6.915 96.430,6.572 97.148,6.394 97.749 C 6.215 98.349,5.873 99.091,5.632 99.397 C 5.392 99.702,5.123 100.480,5.036 101.125 C 4.948 101.769,4.687 102.671,4.456 103.127 C 3.257 105.491,3.247 118.071,4.442 120.784 C 4.686 121.339,4.955 122.320,5.040 122.965 C 5.125 123.610,5.392 124.387,5.632 124.693 C 5.873 124.999,6.219 125.753,6.402 126.368 C 6.585 126.984,6.838 127.552,6.965 127.630 C 7.091 127.708,7.425 128.292,7.707 128.928 C 7.988 129.564,8.386 130.222,8.591 130.392 C 8.796 130.561,8.964 130.829,8.964 130.987 C 8.964 131.145,9.316 131.712,9.746 132.248 C 10.177 132.783,10.807 133.568,11.147 133.991 C 12.083 135.158,16.158 139.160,16.409 139.160 C 16.531 139.160,16.828 139.412,17.071 139.720 C 17.313 140.028,17.656 140.280,17.833 140.280 C 18.010 140.280,18.371 140.530,18.636 140.835 C 18.902 141.140,19.481 141.508,19.923 141.653 C 20.366 141.799,20.858 142.101,21.017 142.325 C 21.175 142.549,21.727 142.846,22.243 142.985 C 22.759 143.124,23.469 143.480,23.821 143.776 C 24.172 144.072,24.740 144.314,25.082 144.314 C 25.424 144.314,26.198 144.577,26.801 144.899 C 27.430 145.234,28.666 145.606,29.692 145.768 C 30.678 145.924,32.128 146.224,32.913 146.435 C 34.855 146.957,42.380 146.838,43.882 146.262 C 44.414 146.058,45.574 145.800,46.459 145.689 C 47.440 145.566,48.495 145.258,49.165 144.900 C 49.769 144.578,50.543 144.314,50.885 144.314 C 51.226 144.314,51.794 144.072,52.146 143.776 C 52.498 143.480,53.199 143.126,53.705 142.990 C 54.212 142.853,54.762 142.578,54.929 142.377 C 55.095 142.176,55.637 141.837,56.131 141.623 C 56.626 141.409,57.223 141.020,57.458 140.757 C 57.692 140.495,58.020 140.280,58.186 140.280 C 58.352 140.280,58.697 140.070,58.954 139.814 C 59.381 139.386,59.453 139.377,59.812 139.702 C 60.027 139.897,60.318 140.056,60.458 140.056 C 60.598 140.056,61.044 140.345,61.449 140.698 C 61.854 141.051,62.437 141.415,62.745 141.508 C 63.053 141.600,63.557 141.903,63.866 142.181 C 64.174 142.460,64.728 142.757,65.098 142.842 C 65.468 142.928,66.123 143.234,66.555 143.522 C 66.986 143.811,67.692 144.119,68.123 144.206 C 68.555 144.293,69.412 144.598,70.028 144.884 C 70.644 145.170,71.911 145.507,72.843 145.635 C 73.775 145.762,75.132 146.021,75.859 146.210 C 77.636 146.673,83.662 146.685,85.411 146.230 C 86.097 146.051,87.587 145.755,88.724 145.572 C 89.860 145.390,91.020 145.089,91.302 144.904 C 91.584 144.719,92.379 144.421,93.069 144.240 C 93.758 144.060,94.589 143.703,94.915 143.447 C 95.241 143.191,95.844 142.918,96.255 142.841 C 96.665 142.764,97.183 142.501,97.404 142.256 C 97.625 142.012,98.142 141.671,98.553 141.500 C 101.046 140.458,108.836 132.899,109.453 130.923 C 109.540 130.645,109.842 130.141,110.125 129.803 C 110.408 129.464,110.718 128.937,110.814 128.630 C 110.910 128.324,111.218 127.719,111.500 127.286 C 111.781 126.853,112.120 126.082,112.254 125.572 C 112.387 125.063,112.641 124.526,112.818 124.379 C 112.996 124.232,113.255 123.539,113.395 122.840 C 113.535 122.141,113.919 120.762,114.248 119.776 C 115.163 117.032,115.158 106.816,114.240 104.202 C 113.915 103.277,113.581 102.067,113.498 101.513 C 113.415 100.958,113.117 100.101,112.838 99.608 C 112.558 99.115,112.202 98.308,112.047 97.815 C 111.891 97.322,111.638 96.768,111.484 96.583 C 111.330 96.398,110.986 95.793,110.721 95.238 C 110.129 94.003,109.149 92.361,108.645 91.762 C 108.439 91.517,107.721 90.661,107.049 89.860 C 104.923 87.324,99.922 82.922,98.748 82.555 C 98.481 82.472,97.978 82.165,97.630 81.874 C 97.281 81.583,96.727 81.282,96.397 81.207 C 96.068 81.131,95.445 80.838,95.014 80.555 C 94.583 80.273,93.877 79.970,93.445 79.881 C 93.014 79.793,92.185 79.481,91.604 79.188 C 91.023 78.895,90.317 78.667,90.035 78.681 C 89.611 78.703,89.596 78.726,89.946 78.816 C 90.178 78.875,90.806 79.157,91.341 79.441 C 91.876 79.726,92.745 80.031,93.272 80.120 C 93.799 80.208,94.515 80.520,94.863 80.813 C 95.212 81.105,95.737 81.345,96.032 81.345 C 96.326 81.345,96.904 81.640,97.315 82.002 C 97.727 82.363,98.326 82.724,98.646 82.805 C 98.967 82.885,99.458 83.195,99.738 83.492 C 100.017 83.790,100.350 84.034,100.476 84.034 C 100.602 84.034,101.013 84.331,101.389 84.694 C 101.765 85.057,102.866 86.090,103.836 86.991 C 105.933 88.937,109.004 92.455,109.228 93.166 C 109.315 93.444,109.617 93.949,109.899 94.287 C 110.181 94.625,110.532 95.272,110.679 95.724 C 110.827 96.177,111.093 96.668,111.271 96.816 C 111.449 96.964,111.742 97.580,111.922 98.186 C 112.102 98.791,112.445 99.562,112.684 99.898 C 112.924 100.234,113.193 101.113,113.283 101.851 C 113.372 102.589,113.704 103.849,114.020 104.650 C 114.854 106.768,114.930 117.317,114.123 119.014 C 113.853 119.581,113.522 120.741,113.386 121.591 C 113.251 122.442,112.907 123.541,112.623 124.034 C 112.338 124.527,112.039 125.294,111.959 125.740 C 111.878 126.185,111.612 126.730,111.367 126.952 C 111.123 127.173,110.817 127.747,110.688 128.227 C 110.558 128.707,110.259 129.293,110.021 129.530 C 109.784 129.768,109.449 130.300,109.276 130.714 C 109.103 131.128,108.722 131.731,108.430 132.053 C 108.138 132.376,107.597 133.013,107.227 133.469 C 106.417 134.467,103.863 137.059,102.177 138.594 C 100.893 139.764,100.084 140.327,98.319 141.281 C 97.734 141.597,97.255 141.952,97.255 142.068 C 97.255 142.184,96.732 142.435,96.092 142.625 C 95.453 142.815,94.722 143.157,94.468 143.386 C 94.214 143.614,93.419 143.915,92.702 144.053 C 91.985 144.192,91.157 144.495,90.861 144.728 C 90.509 145.004,89.759 145.205,88.691 145.309 C 87.793 145.396,86.068 145.662,84.857 145.899 C 82.222 146.416,78.872 146.454,76.905 145.991 C 76.128 145.807,74.514 145.552,73.320 145.423 C 71.794 145.258,70.965 145.056,70.531 144.743 C 70.191 144.498,69.334 144.186,68.626 144.050 C 67.918 143.913,67.131 143.614,66.877 143.386 C 66.623 143.157,65.891 142.815,65.252 142.625 C 64.613 142.435,64.090 142.182,64.090 142.062 C 64.090 141.942,63.656 141.618,63.127 141.342 C 61.601 140.547,60.715 139.989,59.963 139.350 L 59.263 138.756 58.568 139.350 C 58.186 139.677,57.348 140.246,56.705 140.616 C 56.063 140.986,55.170 141.528,54.721 141.821 C 54.271 142.113,53.516 142.489,53.043 142.656 C 52.571 142.823,51.935 143.155,51.631 143.394 C 51.328 143.633,50.654 143.897,50.133 143.981 C 49.613 144.064,48.784 144.361,48.291 144.640 C 47.653 145.002,46.710 145.223,45.019 145.409 C 43.712 145.553,42.300 145.771,41.881 145.894 C 40.162 146.398,37.146 146.409,34.268 145.923 C 32.737 145.664,30.808 145.390,29.981 145.314 C 29.008 145.225,28.285 145.025,27.932 144.748 C 27.633 144.512,26.847 144.208,26.187 144.071 C 25.526 143.935,24.633 143.588,24.202 143.301 C 23.770 143.014,22.989 142.667,22.465 142.530 C 21.941 142.392,21.513 142.184,21.513 142.068 C 21.513 141.877,20.898 141.502,18.421 140.183 C 16.781 139.309,10.123 132.284,9.391 130.654 C 9.195 130.217,8.873 129.726,8.674 129.562 C 8.476 129.398,8.194 128.894,8.046 128.441 C 7.899 127.989,7.591 127.379,7.363 127.086 C 7.135 126.792,6.839 126.147,6.706 125.652 C 6.573 125.158,6.273 124.490,6.041 124.169 C 5.808 123.848,5.509 122.892,5.377 122.045 C 5.245 121.199,4.883 119.902,4.572 119.165 C 3.760 117.234,3.819 106.133,4.651 104.402 C 4.924 103.834,5.243 102.687,5.362 101.853 C 5.498 100.890,5.737 100.163,6.017 99.860 C 6.260 99.598,6.578 98.930,6.723 98.375 C 6.869 97.821,7.123 97.216,7.288 97.031 C 7.452 96.846,7.802 96.192,8.065 95.579 C 8.328 94.965,8.625 94.410,8.724 94.346 C 8.822 94.282,9.123 93.826,9.391 93.333 C 10.004 92.206,10.821 91.073,11.480 90.438 C 11.760 90.168,12.342 89.512,12.773 88.980 C 13.646 87.904,17.993 84.034,18.330 84.034 C 18.448 84.034,18.676 83.875,18.837 83.681 C 18.998 83.487,19.540 83.120,20.041 82.865 C 20.542 82.609,21.081 82.217,21.239 81.994 C 21.397 81.770,21.901 81.520,22.359 81.438 C 22.818 81.356,23.414 81.088,23.685 80.842 C 23.955 80.595,24.812 80.247,25.589 80.068 C 26.367 79.889,27.305 79.556,27.675 79.328 C 28.045 79.100,29.003 78.846,29.804 78.763 C 30.605 78.681,32.168 78.398,33.277 78.134 C 36.026 77.482,40.339 77.492,42.913 78.157 C 43.899 78.411,45.351 78.685,46.139 78.764 C 46.962 78.848,48.011 79.137,48.604 79.446 C 49.171 79.741,50.060 80.049,50.578 80.130 C 51.096 80.211,51.692 80.468,51.902 80.700 C 52.112 80.932,52.697 81.231,53.201 81.365 C 53.705 81.498,54.370 81.835,54.678 82.113 C 54.986 82.390,55.559 82.744,55.950 82.898 C 56.342 83.052,56.836 83.371,57.049 83.606 C 57.262 83.841,57.564 84.034,57.721 84.034 C 57.877 84.034,58.318 84.297,58.700 84.619 L 59.395 85.204 59.980 84.619 C 60.302 84.297,60.685 84.034,60.832 84.034 C 60.978 84.034,61.327 83.790,61.607 83.492 C 61.887 83.195,62.378 82.885,62.698 82.805 C 63.019 82.724,63.618 82.363,64.029 82.002 C 64.441 81.640,65.020 81.345,65.317 81.345 C 65.613 81.345,65.923 81.236,66.006 81.102 C 66.088 80.969,66.472 80.667,66.859 80.431 C 67.267 80.182,67.413 80.001,67.206 80.001 C 67.009 80.000,66.665 80.202,66.442 80.449 C 66.218 80.696,65.653 81.001,65.185 81.127 C 64.717 81.253,64.052 81.592,63.708 81.880 C 63.363 82.168,62.829 82.479,62.521 82.572 C 62.213 82.664,61.709 82.969,61.401 83.249 C 60.334 84.219,59.401 84.567,58.954 84.162 C 58.739 83.968,58.460 83.810,58.332 83.810 C 58.205 83.810,57.725 83.511,57.266 83.146 C 56.807 82.781,56.213 82.414,55.947 82.331 C 55.680 82.247,55.240 81.941,54.969 81.650 C 54.697 81.359,54.283 81.120,54.048 81.120 C 53.812 81.120,53.249 80.869,52.796 80.561 C 52.343 80.254,51.497 79.887,50.916 79.745 C 50.335 79.604,49.709 79.364,49.524 79.212 C 49.089 78.855,47.909 78.506,46.499 78.318 C 45.882 78.236,44.776 77.967,44.040 77.721 C 42.516 77.211,36.464 76.962,33.838 77.302 M76.078 77.653 C 75.216 77.833,73.905 78.133,73.165 78.318 L 71.821 78.655 73.303 78.540 C 74.119 78.477,75.329 78.252,75.992 78.042 C 77.899 77.436,83.596 77.505,85.822 78.161 C 86.744 78.433,87.954 78.643,88.511 78.628 L 89.524 78.600 88.403 78.433 C 87.787 78.342,86.779 78.088,86.162 77.870 C 84.606 77.320,78.313 77.184,76.078 77.653 M69.801 79.139 C 69.309 79.405,68.605 79.698,68.235 79.789 L 67.563 79.954 68.258 79.977 C 68.640 79.990,69.408 79.758,69.965 79.462 C 70.521 79.166,71.167 78.875,71.399 78.816 C 71.720 78.733,71.686 78.701,71.257 78.681 C 70.947 78.667,70.292 78.873,69.801 79.139 M383.849 91.559 C 383.308 92.135,383.305 92.159,383.305 97.050 C 383.305 99.752,383.272 101.861,383.231 101.737 C 383.190 101.614,382.868 101.513,382.516 101.513 C 382.163 101.513,381.820 101.423,381.752 101.313 C 381.684 101.204,381.351 101.045,381.011 100.961 C 380.670 100.876,380.157 100.588,379.870 100.320 C 379.086 99.587,373.713 99.579,372.727 100.308 C 372.373 100.570,371.737 100.860,371.315 100.953 C 369.935 101.256,366.818 104.147,366.362 105.546 C 366.222 105.978,365.902 106.555,365.652 106.830 C 364.498 108.096,364.496 116.195,365.648 117.491 C 365.889 117.762,366.205 118.401,366.350 118.911 C 366.504 119.452,366.846 119.991,367.172 120.205 C 367.480 120.406,367.731 120.717,367.731 120.896 C 367.731 121.075,368.031 121.376,368.397 121.565 C 368.763 121.755,369.165 122.102,369.291 122.337 C 369.417 122.573,369.899 122.887,370.362 123.035 C 370.826 123.183,371.425 123.506,371.695 123.752 C 372.918 124.865,379.590 124.766,380.959 123.615 C 381.344 123.290,381.831 123.025,382.040 123.025 C 382.250 123.025,382.645 122.868,382.919 122.676 C 383.387 122.349,383.417 122.357,383.417 122.799 C 383.417 124.807,388.156 124.848,388.756 122.844 C 389.171 121.458,389.128 93.033,388.709 92.226 C 387.972 90.805,384.946 90.390,383.849 91.559 M387.630 92.370 C 388.029 92.768,388.018 122.116,387.619 122.624 C 387.434 122.860,386.869 123.012,385.957 123.072 L 384.576 123.163 384.165 122.254 C 383.644 121.103,383.088 121.009,381.984 121.886 C 381.518 122.256,380.921 122.628,380.657 122.712 C 380.393 122.796,379.894 123.073,379.548 123.329 C 378.447 124.143,372.885 124.087,372.885 123.262 C 372.885 123.165,372.299 122.872,371.583 122.610 C 370.867 122.349,370.042 121.882,369.751 121.572 C 369.460 121.262,369.091 121.008,368.932 121.008 C 368.773 121.008,368.524 120.782,368.378 120.504 C 368.232 120.227,367.885 119.726,367.606 119.391 C 367.327 119.056,366.931 118.274,366.725 117.654 C 366.519 117.034,366.270 116.527,366.172 116.527 C 365.273 116.527,365.211 109.056,366.101 107.926 C 366.375 107.578,366.660 106.967,366.735 106.569 C 366.828 106.074,367.379 105.329,368.477 104.214 C 370.889 101.765,370.942 101.729,372.556 101.391 C 373.381 101.218,374.212 100.948,374.402 100.791 C 374.831 100.435,377.866 100.419,378.296 100.770 C 378.463 100.907,379.148 101.180,379.818 101.378 C 380.488 101.576,381.244 101.924,381.499 102.153 C 383.865 104.280,384.090 103.885,384.090 97.593 C 384.090 94.038,384.166 92.563,384.359 92.370 C 384.710 92.019,387.279 92.019,387.630 92.370 M235.704 93.564 C 234.878 94.013,234.586 95.081,234.639 97.464 C 234.695 100.008,234.581 100.168,232.706 100.168 C 230.708 100.168,230.364 100.627,230.364 103.291 C 230.364 105.692,230.434 105.769,232.594 105.774 C 234.890 105.778,234.734 105.344,234.734 111.709 C 234.734 116.447,234.790 117.415,235.097 117.983 C 235.297 118.353,235.532 119.148,235.619 119.749 C 235.732 120.520,235.962 121.016,236.399 121.430 C 236.740 121.753,237.080 122.190,237.155 122.402 C 237.230 122.614,237.649 122.936,238.085 123.119 C 238.522 123.301,238.880 123.544,238.880 123.659 C 238.880 124.449,246.142 124.855,247.409 124.136 C 249.857 122.746,250.267 121.871,249.139 120.437 C 248.866 120.090,248.488 119.497,248.299 119.119 C 247.881 118.283,247.281 118.163,245.887 118.638 C 243.815 119.344,242.294 118.935,241.230 117.386 L 240.562 116.415 240.561 111.148 L 240.560 105.882 244.135 105.820 C 248.554 105.744,248.515 105.766,248.515 103.288 C 248.515 101.753,248.448 101.467,247.949 100.874 L 247.383 100.201 244.131 100.128 C 240.227 100.041,240.456 100.252,240.452 96.751 C 240.447 93.396,240.319 93.217,237.927 93.230 C 236.949 93.236,236.065 93.368,235.704 93.564 M239.514 94.677 C 239.596 94.759,239.723 96.123,239.794 97.709 C 239.966 101.507,239.714 101.289,243.922 101.289 C 247.958 101.289,247.894 101.253,247.798 103.453 L 247.731 104.986 244.157 105.048 C 239.296 105.132,239.726 104.483,239.816 111.598 L 239.888 117.328 240.560 118.141 C 242.225 120.154,244.750 120.724,246.426 119.466 C 247.290 118.817,247.733 118.943,247.922 119.891 C 248.001 120.284,248.321 120.909,248.633 121.280 C 249.265 122.031,249.133 122.430,248.176 122.670 C 247.876 122.745,247.261 123.058,246.809 123.364 C 245.641 124.157,240.524 124.098,240.023 123.286 C 239.942 123.155,239.451 122.858,238.932 122.625 C 238.039 122.226,237.394 121.534,236.482 120.000 C 236.128 119.404,236.074 118.564,236.005 112.560 C 235.914 104.622,236.164 105.259,233.075 105.098 L 230.924 104.986 230.858 103.590 C 230.758 101.499,230.943 101.289,232.893 101.285 C 235.794 101.280,235.966 101.063,235.966 97.407 C 235.966 94.607,236.082 94.440,237.985 94.490 C 238.743 94.511,239.431 94.594,239.514 94.677 M146.638 100.029 C 146.252 100.204,145.872 100.451,145.795 100.577 C 145.717 100.703,145.353 100.872,144.986 100.952 C 144.619 101.033,144.073 101.414,143.772 101.798 L 143.224 102.498 143.061 101.837 C 142.646 100.153,140.769 99.583,138.610 100.485 C 137.349 101.012,137.367 100.842,137.367 112.435 C 137.367 125.010,137.125 123.920,139.966 124.152 C 143.186 124.414,142.943 125.070,143.021 115.914 C 143.081 108.943,143.083 108.914,143.585 108.563 C 143.863 108.369,144.090 108.061,144.090 107.879 C 144.090 107.318,145.650 105.949,146.519 105.747 C 148.206 105.355,151.259 105.653,151.451 106.228 C 151.498 106.370,151.852 106.846,152.239 107.286 L 152.941 108.085 153.053 115.745 C 153.187 124.872,152.933 124.146,155.989 124.146 C 159.050 124.146,158.829 124.775,158.918 115.822 L 158.992 108.506 160.112 107.278 C 162.432 104.736,166.110 104.795,167.897 107.403 L 168.852 108.796 168.964 116.129 C 169.098 124.958,168.890 124.391,171.926 124.173 C 174.900 123.959,174.678 124.662,174.678 115.444 C 174.678 108.634,174.632 107.585,174.314 107.100 C 174.114 106.795,173.876 106.106,173.786 105.570 C 173.683 104.960,173.378 104.341,172.973 103.917 C 172.616 103.544,172.325 103.106,172.325 102.944 C 172.325 102.782,172.100 102.528,171.825 102.381 C 171.550 102.234,171.145 101.885,170.926 101.606 C 170.706 101.327,170.204 101.028,169.810 100.941 C 169.416 100.855,168.803 100.570,168.449 100.308 C 167.495 99.603,162.387 99.591,161.419 100.291 C 161.070 100.544,160.376 100.869,159.878 101.015 C 159.329 101.175,158.773 101.547,158.470 101.956 C 158.195 102.328,157.834 102.633,157.668 102.633 C 157.502 102.633,157.241 102.783,157.088 102.967 C 156.851 103.253,156.662 103.145,155.773 102.213 C 155.196 101.609,154.435 101.053,154.062 100.965 C 153.692 100.878,153.161 100.594,152.882 100.334 C 152.222 99.717,147.797 99.501,146.638 100.029 M187.253 99.871 C 187.021 99.936,186.376 100.230,185.819 100.526 C 185.263 100.822,184.623 101.064,184.398 101.064 C 184.172 101.064,183.823 101.317,183.621 101.625 C 183.419 101.933,183.135 102.185,182.990 102.185 C 182.660 102.185,180.840 104.019,180.840 104.352 C 180.840 104.488,180.597 104.758,180.300 104.953 C 180.002 105.148,179.693 105.608,179.612 105.976 C 179.531 106.344,179.252 106.916,178.993 107.246 C 177.933 108.592,177.920 115.714,178.974 117.152 C 179.218 117.486,179.535 118.097,179.677 118.509 C 179.903 119.165,180.556 120.096,181.585 121.232 C 182.404 122.136,183.702 123.037,184.362 123.161 C 184.767 123.237,185.098 123.386,185.098 123.493 C 185.098 124.542,192.350 124.929,193.865 123.960 C 194.281 123.694,194.943 123.326,195.335 123.142 C 195.727 122.958,196.194 122.601,196.371 122.347 C 196.678 121.909,196.705 121.935,196.947 122.897 C 197.276 124.202,197.586 124.334,199.937 124.169 C 202.816 123.967,202.555 125.125,202.588 112.428 C 202.619 100.496,202.679 101.048,201.296 100.469 C 199.259 99.618,196.975 100.277,196.975 101.716 C 196.975 102.391,196.644 102.451,196.135 101.866 C 195.883 101.576,195.288 101.211,194.813 101.054 C 194.338 100.898,193.664 100.559,193.315 100.301 C 192.684 99.834,188.463 99.535,187.253 99.871 M214.113 99.916 C 213.741 100.012,213.186 100.251,212.880 100.447 C 212.575 100.643,211.902 100.915,211.386 101.051 C 210.846 101.193,210.395 101.464,210.324 101.688 C 210.256 101.902,209.978 102.177,209.707 102.299 C 209.436 102.421,209.057 102.783,208.865 103.104 C 208.673 103.424,208.343 103.931,208.131 104.229 C 207.268 105.447,207.352 109.876,208.255 110.772 C 208.522 111.036,208.842 111.454,208.968 111.700 C 209.094 111.946,209.398 112.251,209.644 112.377 C 209.891 112.502,210.312 112.826,210.580 113.097 C 210.848 113.367,211.451 113.648,211.920 113.720 C 212.389 113.793,213.144 114.049,213.596 114.290 C 214.176 114.598,215.238 114.799,217.182 114.968 C 219.830 115.198,219.970 115.236,220.573 115.885 C 221.481 116.863,221.367 118.063,220.320 118.556 C 219.910 118.749,219.485 119.052,219.375 119.229 C 219.031 119.786,214.337 119.649,213.333 119.053 C 212.902 118.797,212.196 118.516,211.765 118.429 C 211.333 118.342,210.758 118.067,210.487 117.818 L 209.993 117.365 208.925 117.898 C 208.091 118.314,207.817 118.590,207.677 119.154 C 207.578 119.552,207.297 119.984,207.054 120.115 C 206.035 120.660,207.574 122.820,209.197 123.124 C 209.677 123.214,210.353 123.490,210.700 123.737 C 212.301 124.877,221.994 124.747,222.442 123.580 C 222.509 123.405,222.913 123.196,223.340 123.116 C 223.797 123.030,224.258 122.752,224.464 122.438 C 224.656 122.145,224.950 121.905,225.116 121.905 C 225.282 121.905,225.535 121.678,225.677 121.401 C 225.819 121.123,226.135 120.737,226.380 120.542 C 227.601 119.569,227.497 114.180,226.234 113.009 C 225.917 112.715,225.658 112.373,225.658 112.248 C 225.658 112.124,225.328 111.884,224.925 111.716 C 224.522 111.547,224.007 111.204,223.779 110.953 C 223.531 110.679,222.951 110.441,222.327 110.357 C 221.756 110.281,220.835 110.033,220.280 109.806 C 219.725 109.579,218.213 109.272,216.919 109.124 C 213.979 108.789,213.331 108.279,213.655 106.554 C 213.771 105.934,213.922 105.834,215.465 105.365 L 217.149 104.853 219.862 105.413 C 221.354 105.721,222.748 106.130,222.959 106.322 C 223.712 107.003,225.658 106.030,225.658 104.973 C 225.658 104.814,225.897 104.399,226.189 104.051 C 227.087 102.980,225.916 101.268,224.090 100.980 C 223.535 100.893,222.627 100.601,222.073 100.331 C 220.992 99.807,215.626 99.527,214.113 99.916 M260.663 99.929 C 260.257 100.032,259.753 100.261,259.543 100.439 C 259.332 100.617,258.726 100.887,258.195 101.038 C 257.665 101.190,257.174 101.463,257.104 101.645 C 257.034 101.828,256.693 102.124,256.347 102.303 C 256.001 102.482,255.657 102.820,255.583 103.055 C 255.508 103.289,255.255 103.531,255.020 103.593 C 254.785 103.654,254.440 104.069,254.254 104.513 C 254.068 104.958,253.823 105.322,253.708 105.322 C 253.450 105.322,253.063 106.279,252.869 107.397 C 252.788 107.861,252.532 108.613,252.300 109.069 C 251.682 110.281,251.691 114.276,252.315 115.498 C 252.556 115.971,252.865 116.900,253.003 117.563 C 253.161 118.326,253.407 118.851,253.670 118.992 C 253.900 119.115,254.155 119.427,254.237 119.686 C 254.409 120.229,255.972 121.905,256.307 121.905 C 256.430 121.905,256.696 122.157,256.898 122.465 C 257.100 122.773,257.434 123.025,257.640 123.025 C 257.846 123.025,258.397 123.290,258.863 123.613 C 260.552 124.783,268.259 124.865,269.704 123.728 C 270.031 123.471,270.632 123.198,271.041 123.122 C 271.450 123.045,272.039 122.714,272.349 122.387 C 272.659 122.060,273.071 121.663,273.263 121.504 C 273.758 121.095,273.701 120.170,273.159 119.834 C 272.909 119.679,272.497 119.123,272.242 118.599 C 271.655 117.388,270.982 117.181,269.714 117.821 C 265.863 119.765,263.473 120.144,261.989 119.048 C 261.614 118.770,261.172 118.543,261.007 118.543 C 260.594 118.543,259.188 117.027,258.743 116.101 C 258.088 114.739,258.112 114.734,265.406 114.732 C 273.665 114.729,274.124 114.680,274.634 113.732 C 275.194 112.692,275.006 108.714,274.354 107.831 C 274.109 107.499,273.835 106.838,273.746 106.362 C 273.657 105.887,273.361 105.282,273.088 105.018 C 272.815 104.754,272.478 104.276,272.338 103.955 C 272.199 103.635,271.770 103.131,271.385 102.835 C 271.000 102.539,270.392 102.029,270.034 101.701 C 269.676 101.374,269.053 101.034,268.650 100.945 C 268.247 100.856,267.627 100.570,267.273 100.308 C 266.567 99.786,262.220 99.537,260.663 99.929 M288.547 99.950 C 288.195 100.056,287.741 100.275,287.539 100.438 C 286.033 101.647,285.098 101.759,284.180 100.840 C 283.221 99.882,280.856 99.834,280.128 100.759 C 279.396 101.690,279.400 123.210,280.133 123.942 C 280.443 124.253,280.765 124.367,281.085 124.281 C 281.351 124.210,282.087 124.150,282.720 124.149 C 284.967 124.143,284.908 124.328,285.066 116.715 C 285.228 108.876,285.388 107.890,286.705 106.572 L 287.618 105.659 290.380 105.631 C 293.464 105.601,293.478 105.595,293.745 104.168 C 293.850 103.605,294.103 102.906,294.307 102.615 C 294.692 102.065,294.796 100.924,294.502 100.462 C 294.062 99.771,290.243 99.442,288.547 99.950 M305.033 99.930 C 304.627 100.032,304.123 100.270,303.912 100.459 C 303.702 100.648,303.141 100.874,302.667 100.962 C 302.183 101.052,301.516 101.405,301.147 101.766 C 300.785 102.120,300.338 102.409,300.155 102.409 C 299.971 102.409,299.728 102.652,299.615 102.950 C 299.502 103.248,299.202 103.557,298.948 103.637 C 298.695 103.718,298.487 103.879,298.487 103.995 C 298.487 104.111,298.182 104.525,297.810 104.915 C 297.437 105.305,297.072 105.884,296.999 106.201 C 296.927 106.519,296.601 107.173,296.277 107.656 C 295.351 109.032,295.368 115.201,296.303 116.791 C 296.641 117.367,296.919 117.993,296.919 118.182 C 296.919 118.371,297.168 118.807,297.473 119.151 C 297.778 119.494,298.446 120.255,298.958 120.840 C 299.470 121.426,300.016 121.905,300.171 121.905 C 300.326 121.905,300.609 122.143,300.799 122.434 C 300.990 122.725,301.456 123.025,301.836 123.101 C 302.215 123.177,302.820 123.457,303.179 123.723 C 304.580 124.758,312.008 124.777,313.119 123.748 C 313.391 123.496,314.038 123.177,314.558 123.039 C 316.068 122.638,316.816 120.800,315.767 120.065 C 315.534 119.902,315.197 119.417,315.018 118.988 C 314.474 117.688,314.103 117.506,312.871 117.932 C 312.293 118.131,310.994 118.512,309.983 118.777 L 308.146 119.259 306.260 118.699 C 304.329 118.127,303.755 117.711,302.324 115.847 C 301.305 114.521,301.369 109.715,302.419 108.581 C 302.722 108.255,302.969 107.846,302.969 107.671 C 302.969 107.497,303.196 107.235,303.473 107.089 C 303.751 106.942,304.191 106.595,304.452 106.318 C 305.435 105.270,310.955 105.285,312.207 106.339 C 313.357 107.306,315.070 106.700,315.070 105.325 C 315.070 105.114,315.373 104.624,315.742 104.237 C 316.600 103.339,316.594 103.288,315.490 102.094 C 314.793 101.341,314.339 101.056,313.651 100.940 C 313.148 100.855,312.447 100.571,312.092 100.309 C 311.387 99.787,306.618 99.531,305.033 99.930 M327.539 99.939 C 327.187 100.051,326.733 100.291,326.531 100.472 C 326.328 100.654,325.766 100.876,325.281 100.966 C 324.797 101.056,324.191 101.345,323.937 101.609 C 323.682 101.872,323.196 102.263,322.857 102.478 C 322.518 102.692,322.241 103.000,322.241 103.162 C 322.241 103.325,321.989 103.572,321.681 103.713 C 321.373 103.853,321.120 104.108,321.120 104.278 C 321.120 104.449,320.821 104.966,320.454 105.427 C 320.087 105.888,319.721 106.633,319.639 107.082 C 319.558 107.532,319.279 108.303,319.019 108.796 C 318.373 110.023,318.317 114.521,318.937 115.466 C 319.153 115.796,319.442 116.588,319.579 117.227 C 319.728 117.925,320.042 118.587,320.362 118.884 C 320.656 119.156,320.896 119.485,320.896 119.615 C 320.896 119.947,322.755 121.905,323.070 121.905 C 323.214 121.905,323.393 122.100,323.469 122.339 C 323.547 122.584,323.969 122.889,324.436 123.039 C 324.893 123.185,325.488 123.507,325.759 123.754 C 326.895 124.789,334.066 124.760,334.758 123.718 C 334.929 123.460,335.212 123.249,335.388 123.249 C 335.563 123.249,335.948 123.008,336.242 122.714 L 336.778 122.178 337.115 123.021 C 337.538 124.079,337.725 124.146,340.271 124.146 C 343.229 124.146,342.958 125.282,343.033 112.555 C 343.097 101.728,343.097 101.702,342.607 100.910 L 342.116 100.117 340.102 100.213 C 338.018 100.312,337.031 100.842,337.031 101.861 C 337.031 102.343,336.410 102.253,336.250 101.748 C 336.174 101.508,335.890 101.246,335.619 101.166 C 335.348 101.085,334.731 100.752,334.249 100.426 C 333.298 99.782,329.014 99.471,327.539 99.939 M357.789 99.879 C 357.559 99.938,356.909 100.280,356.345 100.638 C 355.780 100.996,355.188 101.289,355.028 101.289 C 354.868 101.289,354.612 101.490,354.458 101.737 C 354.098 102.313,353.838 102.309,353.838 101.727 C 353.838 100.759,352.871 100.168,351.287 100.168 C 348.755 100.168,348.908 99.390,348.908 112.274 C 348.908 125.036,348.746 124.176,351.162 124.242 C 354.023 124.321,353.919 124.598,354.008 116.639 C 354.063 111.707,354.155 109.978,354.390 109.468 C 354.560 109.098,354.773 108.493,354.864 108.123 C 354.955 107.754,355.425 107.052,355.910 106.564 L 356.791 105.677 359.578 105.584 C 362.657 105.482,363.025 105.303,363.025 103.906 C 363.025 103.551,363.167 102.943,363.341 102.555 C 364.336 100.329,363.671 99.707,360.336 99.747 C 359.165 99.761,358.019 99.820,357.789 99.879 M151.521 100.923 C 151.809 101.111,152.499 101.334,153.053 101.418 C 153.905 101.546,154.260 101.777,155.338 102.904 C 156.848 104.483,157.052 104.480,158.789 102.849 C 159.775 101.923,161.022 101.299,161.905 101.288 C 162.028 101.287,162.419 101.135,162.773 100.950 C 163.932 100.345,165.603 100.285,166.846 100.804 C 167.456 101.059,168.399 101.381,168.942 101.520 C 169.974 101.784,171.877 103.191,171.877 103.689 C 171.877 103.848,172.082 104.183,172.334 104.435 C 173.265 105.366,173.314 105.813,173.384 114.174 C 173.462 123.488,173.577 122.961,171.455 123.047 C 169.568 123.124,169.646 123.416,169.623 116.190 C 169.599 108.646,169.525 108.012,168.504 106.630 C 167.279 104.974,164.134 103.840,163.025 104.655 C 162.902 104.746,162.246 104.990,161.569 105.199 C 158.573 106.119,157.983 108.041,157.983 116.879 C 157.983 122.255,157.977 122.332,157.485 122.676 C 156.902 123.085,155.332 123.135,154.533 122.771 L 153.974 122.516 153.877 115.992 C 153.759 108.112,153.674 107.525,152.481 106.295 C 150.929 104.696,148.138 103.862,147.088 104.684 C 146.949 104.792,146.344 105.029,145.743 105.209 C 144.847 105.478,144.468 105.770,143.641 106.830 L 142.633 108.123 142.518 115.294 C 142.383 123.672,142.497 123.193,140.665 123.076 C 138.337 122.928,138.487 123.692,138.487 112.033 L 138.487 101.986 138.985 101.637 C 139.299 101.418,139.971 101.289,140.796 101.289 L 142.109 101.289 142.456 102.172 C 142.941 103.407,143.385 103.504,144.202 102.554 C 144.638 102.046,145.228 101.674,145.882 101.491 C 146.437 101.337,147.010 101.120,147.157 101.010 C 148.043 100.341,150.555 100.291,151.521 100.923 M191.918 100.824 C 192.049 100.931,192.691 101.176,193.343 101.368 C 193.995 101.561,194.950 102.079,195.464 102.519 C 196.730 103.602,196.976 103.532,197.618 101.905 C 197.847 101.325,197.944 101.289,199.249 101.289 C 201.626 101.289,201.457 100.464,201.457 112.055 C 201.457 123.685,201.606 122.928,199.286 123.076 L 197.899 123.164 197.538 122.218 C 197.069 120.990,196.640 120.840,195.889 121.640 C 195.562 121.988,194.946 122.394,194.519 122.542 C 194.093 122.689,193.505 123.035,193.213 123.310 C 192.414 124.061,187.502 124.067,186.489 123.319 C 186.124 123.049,185.518 122.746,185.143 122.647 C 183.520 122.214,180.380 118.966,180.091 117.419 C 180.010 116.985,179.721 116.229,179.450 115.738 C 178.643 114.277,178.587 110.289,179.354 108.863 C 179.665 108.283,179.987 107.426,180.068 106.958 C 180.150 106.490,180.451 105.854,180.736 105.546 C 181.265 104.975,183.264 102.984,184.108 102.188 C 184.365 101.946,185.121 101.633,185.789 101.492 C 186.456 101.350,187.204 101.129,187.451 100.999 C 188.568 100.410,191.279 100.304,191.918 100.824 M220.147 100.957 C 220.528 101.115,221.445 101.317,222.185 101.406 C 224.886 101.729,225.741 102.568,225.159 104.325 L 224.866 105.210 223.286 105.198 C 222.015 105.188,221.535 105.078,220.825 104.637 C 219.674 103.922,215.301 103.802,214.810 104.473 C 214.656 104.684,214.258 104.959,213.927 105.085 C 213.590 105.213,213.228 105.587,213.105 105.934 C 212.984 106.276,212.788 106.724,212.668 106.932 C 212.267 107.631,213.426 109.316,214.413 109.469 C 214.867 109.539,216.045 109.842,217.031 110.142 C 218.017 110.443,219.612 110.754,220.576 110.834 C 221.942 110.948,222.464 111.094,222.944 111.498 C 223.283 111.783,223.842 112.087,224.186 112.173 C 224.561 112.267,224.992 112.634,225.258 113.084 C 225.502 113.498,225.790 113.838,225.896 113.838 C 226.290 113.838,226.605 115.770,226.490 117.481 C 226.373 119.217,226.103 119.780,224.746 121.120 C 224.621 121.244,224.265 121.610,223.955 121.934 C 223.608 122.297,223.033 122.581,222.462 122.673 C 221.951 122.754,221.176 123.043,220.739 123.315 C 219.528 124.069,213.668 124.062,212.328 123.305 C 211.837 123.028,211.326 122.801,211.192 122.801 C 210.231 122.801,208.627 122.058,208.228 121.428 C 206.931 119.380,209.706 117.882,211.855 119.471 C 212.868 120.220,217.232 120.503,219.772 119.984 C 220.780 119.778,222.540 117.815,222.511 116.930 C 222.479 115.956,220.817 114.713,219.256 114.496 C 218.402 114.377,217.350 114.143,216.919 113.975 C 216.487 113.807,215.252 113.545,214.173 113.394 C 212.677 113.184,211.985 112.966,211.260 112.474 C 210.736 112.119,210.180 111.827,210.022 111.825 C 209.865 111.823,209.648 111.587,209.539 111.302 C 209.431 111.016,209.081 110.397,208.761 109.926 C 207.939 108.715,207.917 106.220,208.717 105.040 C 209.013 104.605,209.315 104.057,209.389 103.824 C 209.463 103.591,209.963 103.033,210.500 102.584 C 211.449 101.791,211.881 101.637,216.022 100.621 C 216.983 100.385,219.208 100.566,220.147 100.957 M265.434 100.760 C 265.927 100.952,266.913 101.241,267.626 101.403 C 268.780 101.665,269.084 101.866,270.427 103.254 C 272.583 105.484,272.850 105.915,273.380 108.025 C 273.642 109.065,273.950 110.269,274.065 110.700 C 274.799 113.442,274.963 113.389,265.700 113.389 C 257.299 113.389,257.612 113.341,257.342 114.691 C 257.232 115.239,257.351 115.622,257.891 116.463 C 259.055 118.276,259.173 118.405,260.479 119.303 L 261.748 120.174 264.551 120.168 C 267.248 120.162,267.389 120.138,268.255 119.538 C 269.494 118.679,271.476 118.483,271.703 119.197 C 271.787 119.461,272.125 119.938,272.454 120.255 C 272.904 120.689,272.975 120.862,272.740 120.950 C 272.568 121.015,272.136 121.346,271.780 121.686 C 271.425 122.025,270.658 122.423,270.077 122.569 C 269.495 122.715,268.667 123.054,268.235 123.322 C 266.926 124.136,261.607 124.051,260.079 123.193 C 259.475 122.854,258.769 122.577,258.509 122.577 C 257.886 122.577,255.115 119.892,254.692 118.878 C 254.512 118.447,254.268 118.095,254.151 118.095 C 252.746 118.095,252.795 107.882,254.209 106.203 C 254.528 105.823,254.790 105.356,254.790 105.165 C 254.790 104.870,255.784 103.833,257.573 102.263 C 257.941 101.940,259.480 101.406,262.297 100.625 C 263.349 100.333,264.458 100.381,265.434 100.760 M293.105 100.762 C 293.279 100.937,293.225 103.548,293.033 104.282 C 292.851 104.974,292.902 104.971,290.912 104.412 C 289.185 103.927,285.666 105.725,285.148 107.358 C 285.055 107.651,284.766 108.178,284.506 108.529 C 284.057 109.137,284.028 109.497,283.922 115.862 C 283.796 123.356,283.909 122.939,281.968 123.071 C 280.031 123.202,280.111 123.678,280.119 111.955 C 280.127 100.601,280.002 101.289,282.070 101.289 C 283.523 101.289,283.761 101.439,284.021 102.520 C 284.271 103.561,284.551 103.792,285.026 103.346 C 286.492 101.969,287.705 101.314,290.084 100.615 C 290.737 100.423,292.871 100.527,293.105 100.762 M309.468 100.612 C 313.916 101.799,314.068 101.856,314.802 102.607 L 315.542 103.363 315.097 103.839 C 314.852 104.100,314.547 104.591,314.418 104.930 C 314.082 105.817,311.848 105.621,309.736 104.520 C 309.044 104.159,307.097 104.092,306.893 104.423 C 306.817 104.544,306.184 104.810,305.484 105.014 C 304.785 105.217,303.942 105.647,303.613 105.969 C 303.283 106.291,302.901 106.655,302.763 106.779 C 302.078 107.392,301.176 108.804,301.176 109.264 C 301.176 109.549,301.029 110.350,300.848 111.044 C 300.559 112.152,300.559 112.458,300.848 113.567 C 301.029 114.260,301.176 115.050,301.176 115.321 C 301.176 116.141,303.098 118.277,304.393 118.898 C 305.027 119.202,305.798 119.598,306.106 119.778 C 306.852 120.214,309.828 120.219,310.588 119.786 C 312.753 118.552,314.059 118.414,314.403 119.384 C 314.524 119.723,314.721 120.172,314.842 120.383 C 315.369 121.299,314.616 122.577,313.550 122.577 C 313.313 122.577,312.626 122.851,312.022 123.187 C 310.352 124.115,305.872 124.118,304.224 123.193 C 303.621 122.854,302.875 122.577,302.568 122.577 C 301.950 122.577,301.376 122.077,298.192 118.765 C 297.878 118.438,297.541 117.690,297.389 116.981 C 297.245 116.310,296.954 115.569,296.743 115.336 C 296.182 114.716,296.175 109.606,296.734 108.987 C 296.940 108.758,297.230 108.091,297.378 107.503 C 297.525 106.916,297.935 106.058,298.288 105.598 C 299.367 104.194,300.604 102.865,300.840 102.857 C 300.964 102.852,301.491 102.560,302.011 102.207 C 302.532 101.854,303.408 101.498,303.958 101.415 C 304.507 101.333,305.493 101.073,306.148 100.837 C 307.477 100.359,308.308 100.303,309.468 100.612 M332.213 100.749 C 332.706 100.935,333.613 101.243,334.230 101.435 C 334.917 101.649,335.572 102.048,335.924 102.467 C 336.606 103.279,337.581 103.207,337.919 102.318 C 338.261 101.419,341.430 100.848,342.140 101.557 C 342.425 101.842,342.551 121.945,342.273 122.671 C 341.978 123.439,339.107 123.151,338.276 122.269 C 337.222 121.152,336.730 121.071,335.997 121.893 C 335.662 122.269,335.228 122.579,335.033 122.581 C 334.838 122.583,334.224 122.896,333.669 123.275 C 332.369 124.164,328.165 124.185,326.979 123.308 C 326.627 123.049,325.945 122.730,325.462 122.600 C 324.534 122.350,321.345 119.544,321.345 118.977 C 321.345 118.813,321.100 118.321,320.800 117.883 C 319.878 116.533,319.445 112.751,319.881 109.849 C 320.070 108.594,320.224 107.478,320.224 107.371 C 320.224 107.264,320.527 106.796,320.896 106.331 C 321.266 105.865,321.569 105.347,321.569 105.180 C 321.569 104.855,323.126 103.155,323.787 102.758 C 324.004 102.628,324.527 102.294,324.948 102.018 C 325.369 101.741,325.916 101.509,326.162 101.504 C 326.409 101.498,327.014 101.338,327.507 101.149 C 329.649 100.329,330.829 100.229,332.213 100.749 M362.280 100.692 C 362.559 100.971,362.607 102.809,362.360 103.727 L 362.097 104.705 361.048 104.536 C 359.416 104.274,358.221 104.334,357.629 104.708 C 357.331 104.897,356.835 105.123,356.527 105.211 C 355.874 105.398,354.510 106.628,354.510 107.030 C 354.510 107.181,354.232 107.634,353.894 108.037 L 353.277 108.769 353.165 115.767 C 353.104 119.616,352.975 122.843,352.880 122.938 C 352.576 123.241,349.988 123.099,349.779 122.768 C 349.419 122.201,349.533 101.830,349.897 101.528 C 350.357 101.147,352.738 101.309,352.947 101.737 C 353.037 101.922,353.277 102.459,353.479 102.931 L 353.847 103.789 355.044 102.696 C 355.710 102.087,356.643 101.481,357.148 101.330 C 357.648 101.181,358.342 100.902,358.692 100.712 C 359.303 100.379,361.952 100.365,362.280 100.692 M261.737 104.392 C 261.305 104.636,260.645 104.981,260.270 105.160 C 259.565 105.496,258.375 106.749,258.375 107.156 C 258.375 107.283,258.123 107.686,257.815 108.052 C 257.208 108.774,257.090 109.723,257.535 110.315 C 257.882 110.776,268.754 110.944,269.203 110.495 C 269.708 109.989,269.503 107.856,268.884 107.177 C 268.572 106.835,268.145 106.277,267.935 105.938 C 267.725 105.599,267.418 105.322,267.253 105.322 C 267.088 105.322,266.562 105.056,266.083 104.732 C 264.889 103.921,262.853 103.762,261.737 104.392 M188.175 104.853 C 187.341 105.196,186.484 105.639,186.270 105.837 C 184.650 107.342,183.998 108.225,183.856 109.103 C 183.784 109.550,183.569 110.350,183.380 110.881 C 183.190 111.412,183.090 112.118,183.159 112.450 C 183.979 116.404,184.942 118.059,186.985 119.024 C 187.488 119.261,188.151 119.608,188.459 119.794 C 189.232 120.262,192.661 120.127,193.036 119.614 C 193.177 119.420,193.642 119.111,194.069 118.926 C 194.969 118.537,196.303 117.353,196.303 116.944 C 196.303 116.789,196.580 116.374,196.919 116.020 C 197.896 114.999,197.843 109.374,196.845 108.128 C 195.427 106.360,194.227 105.324,193.313 105.078 C 192.808 104.941,192.192 104.689,191.945 104.516 C 191.261 104.037,189.854 104.163,188.175 104.853 M329.652 104.518 C 329.508 104.692,328.896 104.953,328.293 105.098 C 324.635 105.975,322.146 113.304,324.604 115.957 C 324.907 116.283,325.154 116.663,325.154 116.801 C 325.154 117.160,327.117 118.992,327.502 118.992 C 327.680 118.992,328.030 119.211,328.281 119.480 C 330.134 121.469,337.475 118.517,337.480 115.780 C 337.480 115.513,337.704 114.941,337.977 114.510 C 338.667 113.420,338.660 110.975,337.964 109.701 C 337.697 109.212,337.479 108.641,337.479 108.430 C 337.479 107.891,334.934 105.407,334.190 105.220 C 333.851 105.135,333.146 104.871,332.625 104.633 C 331.512 104.126,330.025 104.069,329.652 104.518 M375.347 104.615 C 374.917 104.843,374.263 105.102,373.894 105.190 C 372.984 105.407,370.703 107.678,370.514 108.556 C 370.432 108.934,370.176 109.618,369.945 110.075 C 369.410 111.132,369.368 113.515,369.872 114.234 C 370.063 114.507,370.366 115.210,370.545 115.797 C 370.936 117.074,372.124 118.411,373.406 119.014 C 373.921 119.257,374.594 119.607,374.902 119.792 C 375.793 120.327,378.964 120.147,379.646 119.522 C 379.933 119.258,380.370 118.981,380.616 118.905 C 381.105 118.754,382.745 117.280,382.745 116.991 C 382.745 116.893,383.055 116.423,383.433 115.946 L 384.122 115.080 384.050 112.040 C 383.969 108.644,384.036 108.813,381.830 106.444 C 381.087 105.647,380.550 105.284,379.892 105.137 C 379.392 105.024,378.748 104.768,378.461 104.567 C 377.767 104.081,376.312 104.104,375.347 104.615 M266.487 105.905 C 266.854 106.095,267.322 106.559,267.527 106.936 C 267.731 107.313,268.130 107.879,268.411 108.194 C 268.693 108.509,268.870 108.907,268.804 109.079 C 268.738 109.252,268.683 109.535,268.683 109.710 C 268.683 110.290,259.466 110.166,258.935 109.579 C 258.378 108.964,258.795 107.577,259.856 106.515 C 261.196 105.176,264.490 104.873,266.487 105.905 M192.915 105.784 C 193.500 105.918,194.073 106.234,194.332 106.562 C 194.571 106.866,194.900 107.115,195.064 107.115 C 195.228 107.115,195.475 107.438,195.613 107.833 C 195.751 108.229,196.088 108.792,196.363 109.085 C 197.112 109.882,197.127 114.775,196.382 115.363 C 196.118 115.572,195.829 115.984,195.741 116.280 C 195.548 116.921,194.201 118.319,193.776 118.319 C 193.611 118.319,192.844 118.533,192.071 118.794 L 190.666 119.268 188.874 118.758 C 187.043 118.237,186.765 118.038,185.137 116.078 C 184.041 114.759,183.889 109.668,184.915 108.642 C 185.149 108.409,185.438 107.960,185.558 107.644 C 185.678 107.329,185.971 107.020,186.211 106.958 C 186.450 106.895,186.800 106.609,186.988 106.322 C 187.199 106.000,187.611 105.765,188.063 105.709 C 189.540 105.526,191.959 105.563,192.915 105.784 M334.428 106.188 C 336.837 108.510,336.976 108.734,337.147 110.557 C 337.615 115.550,336.295 117.812,332.290 118.875 C 330.825 119.264,330.773 119.262,329.389 118.795 C 328.614 118.533,327.796 118.319,327.570 118.319 C 327.342 118.319,327.068 118.078,326.954 117.778 C 326.841 117.481,326.548 117.174,326.303 117.096 C 326.049 117.015,325.796 116.673,325.714 116.300 C 325.635 115.940,325.325 115.284,325.026 114.843 C 324.280 113.744,324.221 110.621,324.932 109.802 C 325.179 109.516,325.500 108.890,325.644 108.410 C 325.787 107.929,326.114 107.429,326.370 107.297 C 326.626 107.165,327.042 106.805,327.296 106.498 C 328.164 105.443,333.418 105.215,334.428 106.188 M379.357 105.785 C 380.111 105.947,380.585 106.196,380.819 106.553 C 381.009 106.843,381.353 107.141,381.584 107.214 C 381.821 107.289,382.136 107.747,382.307 108.266 C 382.474 108.771,382.817 109.448,383.070 109.769 C 383.807 110.707,383.700 113.857,382.891 115.045 C 382.564 115.525,382.297 116.107,382.297 116.339 C 382.297 116.571,382.056 116.870,381.761 117.004 C 381.467 117.139,381.116 117.489,380.982 117.784 C 380.844 118.086,380.545 118.319,380.293 118.319 C 380.049 118.319,379.279 118.532,378.583 118.793 L 377.318 119.266 375.418 118.756 C 371.667 117.748,370.211 115.062,370.892 110.407 C 371.187 108.388,373.128 105.929,374.601 105.709 C 375.896 105.515,378.274 105.553,379.357 105.785 M393.558 121.513 C 393.436 121.667,393.216 122.164,393.070 122.618 C 392.536 124.275,394.569 126.141,395.565 124.909 C 395.724 124.712,396.088 124.298,396.373 123.988 C 396.658 123.678,396.831 123.309,396.756 123.169 C 396.412 122.519,396.036 121.922,395.762 121.593 C 395.404 121.162,393.881 121.106,393.558 121.513 M113.301 129.815 C 112.679 130.270,113.754 130.713,114.504 130.311 L 115.033 130.028 114.562 129.776 C 113.960 129.454,113.788 129.459,113.301 129.815 " stroke="none" fill="#9e9e9e" fill-rule="evenodd"></path></g></svg>