<?xml version="1.0" encoding="UTF-8"?>
<svg version="1.1" xmlns="http://www.w3.org/2000/svg" width="1003" height="280">
<path d="M0 0 C4.60222649 1.64184113 8.26145756 2.21296466 13.15039062 1.93066406 C13.15039062 2.59066406 13.15039062 3.25066406 13.15039062 3.93066406 C3.97167096 6.15481621 -5.23025422 7.95935857 -14.53710938 9.55566406 C-17.02067291 9.9825067 -19.50377446 10.41204911 -21.98632812 10.84472656 C-23.06615967 11.02986816 -24.14599121 11.21500977 -25.25854492 11.40576172 C-27.82076856 11.80760915 -27.82076856 11.80760915 -29.84960938 12.93066406 C-29.37252988 15.15703504 -28.87476018 16.88734879 -27.72460938 18.86816406 C-26.58387808 21.55703068 -27.08254896 23.16924658 -27.84960938 25.93066406 C-30.51627604 25.2639974 -33.18294271 24.59733073 -35.84960938 23.93066406 C-38.80710728 27.3980754 -40.9280909 30.79939933 -42.84960938 34.93066406 C-40.86960938 35.42566406 -40.86960938 35.42566406 -38.84960938 35.93066406 C-39.3684205 40.10307467 -40.56112211 42.18483227 -43.41210938 45.24316406 C-44.05277344 45.94054687 -44.6934375 46.63792969 -45.35351562 47.35644531 C-45.84722656 47.8759375 -46.3409375 48.39542969 -46.84960938 48.93066406 C-47.34460938 46.95066406 -47.34460938 46.95066406 -47.84960938 44.93066406 C-49.06648438 45.11628906 -50.28335938 45.30191406 -51.53710938 45.49316406 C-54.87938876 45.92059588 -57.56929354 45.85325289 -60.84960938 44.93066406 C-60.35460937 48.39566406 -60.35460937 48.39566406 -59.84960938 51.93066406 C-61.16960937 51.93066406 -62.48960938 51.93066406 -63.84960938 51.93066406 C-65.26367188 50.21582031 -65.26367188 50.21582031 -66.47460938 47.99316406 C-68.07153692 44.86323001 -68.07153692 44.86323001 -70.84960938 42.93066406 C-70.84960938 42.27066406 -70.84960938 41.61066406 -70.84960938 40.93066406 C-71.50960937 40.93066406 -72.16960937 40.93066406 -72.84960938 40.93066406 C-72.44742188 39.84785156 -72.44742188 39.84785156 -72.03710938 38.74316406 C-71.50388552 35.69716854 -71.50388552 35.69716854 -74.16210938 33.24316406 C-75.04898438 32.48003906 -75.93585938 31.71691406 -76.84960938 30.93066406 C-77.50960937 30.27066406 -78.16960937 29.61066406 -78.84960938 28.93066406 C-79.90148437 29.70410156 -79.90148437 29.70410156 -80.97460938 30.49316406 C-84.57017977 32.29094926 -86.04600723 32.11928973 -89.84960938 30.93066406 C-92.53710938 28.93066406 -92.53710938 28.93066406 -94.84960938 26.93066406 C-95.83960938 26.60066406 -96.82960937 26.27066406 -97.84960938 25.93066406 C-97.84960938 25.27066406 -97.84960938 24.61066406 -97.84960938 23.93066406 C-96.45388886 23.90329699 -95.05800716 23.88410417 -93.66210938 23.86816406 C-92.49615234 23.85076172 -92.49615234 23.85076172 -91.30664062 23.83300781 C-88.84960938 23.93066406 -88.84960938 23.93066406 -86.43945312 24.58691406 C-82.89657993 25.05715967 -80.84141841 23.93788331 -77.59960938 22.49316406 C-71.94173311 20.16307167 -67.91565058 19.41659277 -61.84960938 19.93066406 C-61.51960938 19.27066406 -61.18960938 18.61066406 -60.84960938 17.93066406 C-71.24460938 19.91066406 -71.24460938 19.91066406 -81.84960938 21.93066406 C-81.35460937 20.44566406 -81.35460937 20.44566406 -80.84960938 18.93066406 C-78.40820312 18.05175781 -78.40820312 18.05175781 -75.28710938 17.36816406 C-74.206875 17.119375 -73.12664062 16.87058594 -72.01367188 16.61425781 C-70.11407817 16.20385176 -68.21336222 15.79852042 -66.31054688 15.40332031 C-64.46924021 14.99823285 -62.65449739 14.47553592 -60.84960938 13.93066406 C-60.35460937 12.44566406 -60.35460937 12.44566406 -59.84960938 10.93066406 C-57.74023438 9.72753906 -57.74023438 9.72753906 -55.09960938 8.68066406 C-54.23851562 8.32488281 -53.37742187 7.96910156 -52.49023438 7.60253906 C-49.54391852 6.85288473 -47.74816576 7.11740004 -44.84960938 7.93066406 C-45.17960937 9.25066406 -45.50960937 10.57066406 -45.84960938 11.93066406 C-35.61960937 9.95066406 -25.38960937 7.97066406 -14.84960938 5.93066406 C-23.94345537 -3.16318194 -37.74678227 -4.24851005 -50.09960938 -4.38183594 C-66.81207025 -4.28504246 -82.21832189 -0.5636299 -94.84960938 10.93066406 C-99.36789245 16.40514192 -100.66554635 21.91878342 -100.32617188 28.93847656 C-99.08075939 36.75803366 -95.21147233 42.51430993 -89.08007812 47.40332031 C-75.9574335 56.38922933 -62.15958916 58.10966298 -46.66210938 58.11816406 C-45.50646484 58.13041016 -44.35082031 58.14265625 -43.16015625 58.15527344 C-30.17663816 58.641926 -30.17663816 58.641926 -18.53735352 54.13745117 C-16.5980292 51.6017138 -16.37400302 50.52809927 -16.45898438 47.38378906 C-16.47832031 46.11728516 -16.47832031 46.11728516 -16.49804688 44.82519531 C-16.5315625 43.9525 -16.56507813 43.07980469 -16.59960938 42.18066406 C-16.61765625 41.2925 -16.63570313 40.40433594 -16.65429688 39.48925781 C-16.70132185 37.30259631 -16.7730629 35.11649126 -16.84960938 32.93066406 C-19.48960937 32.60066406 -22.12960938 32.27066406 -24.84960938 31.93066406 C-24.84960938 30.61066406 -24.84960938 29.29066406 -24.84960938 27.93066406 C-8.67960937 27.93066406 7.49039063 27.93066406 24.15039062 27.93066406 C24.15039062 29.25066406 24.15039062 30.57066406 24.15039062 31.93066406 C21.18039063 32.42566406 21.18039063 32.42566406 18.15039062 32.93066406 C17.82039062 43.16066406 17.49039063 53.39066406 17.15039062 63.93066406 C13.52039063 63.27066406 9.89039063 62.61066406 6.15039062 61.93066406 C-4.11698807 61.17700519 -14.04780534 62.11294735 -24.22460938 63.43066406 C-57.44048951 67.66045668 -97.98860057 67.18941994 -126.84960938 47.93066406 C-127.75710937 47.35316406 -128.66460937 46.77566406 -129.59960938 46.18066406 C-134.73017128 41.05010216 -138.88649822 34.09057963 -139.22460938 26.74316406 C-139.14965215 20.15763633 -135.73482608 16.13008355 -131.59960938 11.30566406 C-97.73588475 -17.94027993 -39.409121 -14.51459724 0 0 Z M-38.84960938 12.93066406 C-38.84960938 13.26066406 -38.84960938 13.59066406 -38.84960938 13.93066406 C-36.86960937 13.93066406 -34.88960938 13.93066406 -32.84960938 13.93066406 C-32.84960938 13.60066406 -32.84960938 13.27066406 -32.84960938 12.93066406 C-34.82960938 12.93066406 -36.80960937 12.93066406 -38.84960938 12.93066406 Z M-48.84960938 14.93066406 C-48.84960938 15.26066406 -48.84960938 15.59066406 -48.84960938 15.93066406 C-47.19960937 15.93066406 -45.54960937 15.93066406 -43.84960938 15.93066406 C-43.84960938 15.60066406 -43.84960938 15.27066406 -43.84960938 14.93066406 C-45.49960938 14.93066406 -47.14960938 14.93066406 -48.84960938 14.93066406 Z M-64.84960938 33.93066406 C-65.50960937 34.59066406 -66.16960937 35.25066406 -66.84960938 35.93066406 C-66.90042075 37.90648075 -66.90042075 37.90648075 -65.84960938 39.93066406 C-63.3729944 42.17916889 -63.3729944 42.17916889 -60.84960938 43.93066406 C-60.84960938 43.27066406 -60.84960938 42.61066406 -60.84960938 41.93066406 C-57.54960937 42.26066406 -54.24960938 42.59066406 -50.84960938 42.93066406 C-51.56484868 39.90145234 -51.56484868 39.90145234 -53.84960938 36.93066406 C-57.43025593 35.4888993 -61.06600231 34.66297511 -64.84960938 33.93066406 Z M-47.84960938 37.93066406 C-47.51960938 39.91066406 -47.18960938 41.89066406 -46.84960938 43.93066406 C-46.18960938 43.93066406 -45.52960938 43.93066406 -44.84960938 43.93066406 C-43.20494198 41.46739694 -43.20494198 41.46739694 -41.84960938 38.93066406 C-42.91606052 37.63432786 -42.91606052 37.63432786 -45.41210938 37.86816406 C-46.21648437 37.88878906 -47.02085937 37.90941406 -47.84960938 37.93066406 Z " fill="#2469B2" transform="translate(189.849609375,128.0693359375)"/>
<path d="M0 0 C0 0.66 0 1.32 0 2 C-2.22771342 2.50643553 -4.45724076 3.0048962 -6.6875 3.5 C-7.92886719 3.7784375 -9.17023438 4.056875 -10.44921875 4.34375 C-17.8699295 5.71523449 -17.8699295 5.71523449 -20.8515625 3.828125 C-21.43679688 3.30734375 -22.02203125 2.7865625 -22.625 2.25 C-34.2563713 -7.00272314 -50.68390431 -8.06348139 -65 -7 C-79.38414271 -5.1734422 -92.27526155 -1.24766918 -102 10 C-105.43599215 15.24300356 -107.17372811 20.76007813 -106 27 C-103.6409737 34.64695604 -99.49073208 40.62630219 -92.875 45.125 C-91.59723673 45.77795392 -90.30314275 46.39929479 -89 47 C-88.10023438 47.4228125 -87.20046875 47.845625 -86.2734375 48.28125 C-75.49191938 53.07303583 -65.35935209 54.354618 -53.625 54.25 C-51.98398315 54.23984863 -51.98398315 54.23984863 -50.30981445 54.22949219 C-37.47379085 54.54650286 -37.47379085 54.54650286 -25.69140625 50.5 C-23.12574375 46.70779677 -23.56868088 43.21323981 -23.75 38.75 C-23.76804687 37.90953125 -23.78609375 37.0690625 -23.8046875 36.203125 C-23.85169202 34.13492605 -23.92343276 32.06731559 -24 30 C-26.31 29.67 -28.62 29.34 -31 29 C-31.33 27.35 -31.66 25.7 -32 24 C-16.16 24 -0.32 24 16 24 C16.33 25.32 16.66 26.64 17 28 C16.67 28.33 16.34 28.66 16 29 C13.69 29 11.38 29 9 29 C9 39.23 9 49.46 9 60 C5.7 59.34 2.4 58.68 -1 58 C-4.10497907 57.82091724 -7.09038406 57.71309069 -10.1875 57.75 C-11.41460693 57.75688843 -11.41460693 57.75688843 -12.66650391 57.76391602 C-19.06066234 57.85785627 -25.21370427 58.53745448 -31.5390625 59.48828125 C-62.13395527 64.01190535 -103.42252583 63.44427324 -130.13671875 45.9453125 C-136.08591661 41.3422835 -141.34748832 36.57401186 -143 29 C-143.56755306 22.82571061 -144.04191989 16.79567453 -140.3828125 11.51171875 C-137.60760137 8.4778015 -134.4252592 6.24558077 -131 4 C-130.30390625 3.50628906 -129.6078125 3.01257813 -128.890625 2.50390625 C-117.27901865 -5.20379797 -102.56561071 -8.65072845 -89 -11 C-88.06792725 -11.16701416 -87.13585449 -11.33402832 -86.17553711 -11.50610352 C-56.38892002 -16.52869763 -27.68053069 -11.34095529 0 0 Z " fill="#2469B3" transform="translate(856,97)"/>
<path d="M0 0 C1.34400833 0.98560611 2.67607028 1.98758315 4 3 C5.91968714 3.60817675 7.83557749 4.05412072 9.8046875 4.47265625 C12 5 12 5 14.796875 6.01953125 C18.38546167 7.11798888 21.63246094 7.41315817 25.375 7.625 C26.62023437 7.69976562 27.86546875 7.77453125 29.1484375 7.8515625 C30.08945312 7.90054688 31.03046875 7.94953125 32 8 C32 8.66 32 9.32 32 10 C31.01 10.33 30.02 10.66 29 11 C30.98 11 32.96 11 35 11 C35 11.99 35 12.98 35 14 C34.34 14 33.68 14 33 14 C33 14.66 33 15.32 33 16 C32.34 16.33 31.68 16.66 31 17 C31 17.66 31 18.32 31 19 C29.515 19.495 29.515 19.495 28 20 C26.3258231 22.08697558 26.3258231 22.08697558 24.8125 24.5625 C24.28269531 25.38878906 23.75289062 26.21507813 23.20703125 27.06640625 C22.80871094 27.70449219 22.41039062 28.34257813 22 29 C21.319375 28.25363281 21.319375 28.25363281 20.625 27.4921875 C20.08875 26.99976562 19.5525 26.50734375 19 26 C16.34305562 26.16605902 15.23616321 26.78913999 13.25 28.5625 C12.8375 29.036875 12.425 29.51125 12 30 C12.66 30.99 13.32 31.98 14 33 C16.97 32.505 16.97 32.505 20 32 C20.84013607 35.52857151 21.16513948 37.53372381 19.9375 41 C18.77470174 44.72095444 19.49327568 46.48430992 21 50 C20.071875 49.4740625 20.071875 49.4740625 19.125 48.9375 C18.42375 48.628125 17.7225 48.31875 17 48 C16.01 48.495 16.01 48.495 15 49 C12 48 12 48 9.625 45.5 C6.70627138 42.72025846 5.96323651 42.05392159 2 42 C-1.03668112 43.33411319 -3.77352245 45.08909678 -6.5625 46.875 C-8.06104446 47.81430968 -9.56226215 48.74937106 -11.06640625 49.6796875 C-12.0555603 50.30979736 -12.0555603 50.30979736 -13.06469727 50.95263672 C-15.73156402 52.39591392 -17.90131039 53.26731005 -20.89453125 52.5390625 C-27.85293799 49.22283607 -32.02229352 43.95541296 -35.4375 37.125 C-36.52269058 31.09616347 -37.00614198 25.4238875 -34.625 19.6875 C-31.51957311 16.50813438 -28.25411528 14.54321179 -24.39453125 12.37890625 C-21.70098203 10.82780858 -19.4166284 8.94672843 -17 7 C-15 6 -13 5 -11 4 C-10.175 3.278125 -9.35 2.55625 -8.5 1.8125 C-5.37206929 -0.45524976 -3.78716012 -0.56404512 0 0 Z M-3 3 C-3.96070434 5.88211302 -4.10581883 7.69850044 -4.0625 10.6875 C-4.05347656 11.49574219 -4.04445313 12.30398437 -4.03515625 13.13671875 C-4.02355469 13.75160156 -4.01195312 14.36648437 -4 15 C-2.68 15 -1.36 15 0 15 C0.433125 13.329375 0.433125 13.329375 0.875 11.625 C2 8 2 8 4 6 C0.74602492 3.74114676 0.74602492 3.74114676 -3 3 Z M4 7 C4 11.95 4 16.9 4 22 C4.33 22 4.66 22 5 22 C5.04898438 21.14535156 5.09796875 20.29070312 5.1484375 19.41015625 C5.22320313 18.30542969 5.29796875 17.20070313 5.375 16.0625 C5.44460938 14.96035156 5.51421875 13.85820313 5.5859375 12.72265625 C5.72257813 11.82417969 5.85921875 10.92570312 6 10 C6.66 9.67 7.32 9.34 8 9 C7.67 8.34 7.34 7.68 7 7 C6.01 7 5.02 7 4 7 Z M-14 10 C-13 12 -13 12 -13 12 Z M14 10 C12.515 11.98 12.515 11.98 11 14 C11.66 14.66 12.32 15.32 13 16 C14.6777567 15.72793135 16.34450469 15.38499891 18 15 C19.6662553 14.9629721 21.33401319 14.95240038 23 15 C23.33 14.01 23.66 13.02 24 12 C20.7 11.34 17.4 10.68 14 10 Z M-21 13 C-25.26294324 19.82070919 -27.40725278 25.85494437 -27 34 C-24.95423206 31.17201547 -24.95423206 31.17201547 -24 28.375 C-23 26 -23 26 -21 25 C-20.67 25.66 -20.34 26.32 -20 27 C-18.12456646 23.13236554 -18.12456646 23.13236554 -19 19 C-19 19.66 -19 20.32 -19 21 C-19.99 21 -20.98 21 -22 21 C-21.505 20.05125 -21.01 19.1025 -20.5 18.125 C-18.85575631 15.27721834 -18.85575631 15.27721834 -19 13 C-19.66 13 -20.32 13 -21 13 Z M8 15 C9 17 9 17 9 17 Z M-14 18 C-17.50368542 25.68131041 -17.50368542 25.68131041 -18 34 C-17.34 33.01 -16.68 32.02 -16 31 C-14.80146408 29.42997218 -13.59234154 27.86799197 -12.375 26.3125 C-11.74335937 25.50425781 -11.11171875 24.69601563 -10.4609375 23.86328125 C-9.97882812 23.24839844 -9.49671875 22.63351563 -9 22 C-9.33 21.34 -9.66 20.68 -10 20 C-10.66 20 -11.32 20 -12 20 C-12.66 19.34 -13.32 18.68 -14 18 Z M0 21 C1 23 1 23 1 23 Z M-5 23 C-5 26 -5 26 -5 26 Z M1 24 C1 26.97 1 29.94 1 33 C1.33 33 1.66 33 2 33 C2 30.03 2 27.06 2 24 C1.67 24 1.34 24 1 24 Z M-4 26 C-6.20866328 29.36100934 -7.404401 32.02934001 -8 36 C-8.33333333 37.66666667 -8.66666667 39.33333333 -9 41 C-7.34385343 41.38218767 -5.67542976 41.71395102 -4 42 C-2.05909174 40.05909174 -2.60080565 36.52706098 -2.4375 33.9375 C-2.35371094 32.64714844 -2.26992188 31.35679688 -2.18359375 30.02734375 C-2.12300781 29.02832031 -2.06242188 28.02929688 -2 27 C-2.66 26.67 -3.32 26.34 -4 26 Z M-22 27 C-21 30 -21 30 -21 30 Z M6 29 C7 31 7 31 7 31 Z M5 31 C4.938125 32.27875 4.87625 33.5575 4.8125 34.875 C4.77769531 35.59429687 4.74289062 36.31359375 4.70703125 37.0546875 C4.80371094 37.69664062 4.90039062 38.33859375 5 39 C6.485 39.99 6.485 39.99 8 41 C8.99 40.67 9.98 40.34 11 40 C8.525 39.01 8.525 39.01 6 38 C6 35.69 6 33.38 6 31 C5.67 31 5.34 31 5 31 Z M-20 41 C-19 45 -19 45 -19 45 Z " fill="#2469B3" transform="translate(792,93)"/>
<path d="M0 0 C0.717323 -0.0038269 1.434646 -0.00765381 2.17370605 -0.01159668 C3.68661914 -0.01431227 5.19957945 -0.00697555 6.71240234 0.00976562 C9.02417976 0.03118449 11.33285013 0.00995649 13.64453125 -0.015625 C15.11719434 -0.01298166 16.5898555 -0.00785653 18.0625 0 C18.75114136 -0.00809692 19.43978271 -0.01619385 20.14929199 -0.02453613 C23.51357418 0.04097873 25.27209137 0.33445464 27.98242188 2.39257812 C29.85423949 4.97724432 29.87823033 6.40842699 29.53125 9.53125 C25.07625 10.02625 25.07625 10.02625 20.53125 10.53125 C20.53125 9.54125 20.53125 8.55125 20.53125 7.53125 C12.94125 7.53125 5.35125 7.53125 -2.46875 7.53125 C-2.46875 14.13125 -2.46875 20.73125 -2.46875 27.53125 C5.12125 27.53125 12.71125 27.53125 20.53125 27.53125 C20.53125 25.22125 20.53125 22.91125 20.53125 20.53125 C16.24125 20.53125 11.95125 20.53125 7.53125 20.53125 C7.53125 18.22125 7.53125 15.91125 7.53125 13.53125 C14.79125 13.53125 22.05125 13.53125 29.53125 13.53125 C29.61375 16.068125 29.69625 18.605 29.78125 21.21875 C29.81766602 22.00854248 29.85408203 22.79833496 29.89160156 23.61206055 C29.9015918 24.24926025 29.91158203 24.88645996 29.921875 25.54296875 C29.94282227 26.18709717 29.96376953 26.83122559 29.98535156 27.49487305 C29.26478896 30.72617017 27.93426988 32.27811861 25.53125 34.53125 C22.82814155 35.03007462 20.75948662 35.21208054 18.0625 35.16015625 C16.9865155 35.16377419 16.9865155 35.16377419 15.88879395 35.16746521 C14.37583881 35.16648798 12.86284738 35.15312341 11.35009766 35.12817383 C9.03814893 35.09385242 6.73002242 35.1075179 4.41796875 35.12695312 C2.94529628 35.12005435 1.47263365 35.11038167 0 35.09765625 C-0.68864136 35.10261612 -1.37728271 35.10757599 -2.08679199 35.11268616 C-5.30663122 35.03393301 -7.2227993 34.69945284 -9.90234375 32.86694336 C-11.87770203 29.92145511 -11.98471763 28.12616037 -12 24.59375 C-12.00515625 23.45164063 -12.0103125 22.30953125 -12.015625 21.1328125 C-12.00015625 19.94429687 -11.9846875 18.75578125 -11.96875 17.53125 C-11.98421875 16.34273437 -11.9996875 15.15421875 -12.015625 13.9296875 C-12.01046875 12.78757813 -12.0053125 11.64546875 -12 10.46875 C-11.99548828 9.42589844 -11.99097656 8.38304687 -11.98632812 7.30859375 C-11.46875 4.53125 -11.46875 4.53125 -9.90234375 2.19335938 C-6.64505582 -0.03132123 -3.81249627 -0.04482666 0 0 Z " fill="#2469B3" transform="translate(366.46875,159.46875)"/>
<path d="M0 0 C0.71969467 -0.00145523 1.43938934 -0.00291046 2.18089294 -0.00440979 C3.69802918 -0.00275385 5.21518274 0.00877349 6.73217773 0.02954102 C9.05459816 0.05854385 11.37474128 0.05013655 13.69726562 0.03710938 C15.17318817 0.04334585 16.64910353 0.05173609 18.125 0.0625 C19.16570396 0.05809654 19.16570396 0.05809654 20.22743225 0.05360413 C23.07339078 0.10935082 25.03692658 0.17815483 27.41381836 1.82397461 C28.98784622 4.25585298 29.1803192 6.65412279 29.49609375 9.49609375 C22.74609375 11.49609375 22.74609375 11.49609375 20.49609375 11.49609375 C20.49609375 10.17609375 20.49609375 8.85609375 20.49609375 7.49609375 C12.90609375 7.49609375 5.31609375 7.49609375 -2.50390625 7.49609375 C-2.50390625 14.09609375 -2.50390625 20.69609375 -2.50390625 27.49609375 C5.08609375 27.49609375 12.67609375 27.49609375 20.49609375 27.49609375 C20.49609375 25.51609375 20.49609375 23.53609375 20.49609375 21.49609375 C16.20609375 21.49609375 11.91609375 21.49609375 7.49609375 21.49609375 C7.49609375 19.18609375 7.49609375 16.87609375 7.49609375 14.49609375 C14.75609375 14.49609375 22.01609375 14.49609375 29.49609375 14.49609375 C29.77109375 29.20859375 29.77109375 29.20859375 27.49609375 33.49609375 C24.46119479 35.01354323 21.29933389 34.67966755 17.96875 34.69921875 C16.85166908 34.70776886 16.85166908 34.70776886 15.71202087 34.7164917 C14.13590924 34.72594166 12.55977784 34.73247567 10.98364258 34.73632812 C8.57142772 34.74604207 6.16006198 34.77706736 3.74804688 34.80859375 C2.21745298 34.81512307 0.68685299 34.82037382 -0.84375 34.82421875 C-1.9266758 34.84273895 -1.9266758 34.84273895 -3.03147888 34.8616333 C-5.8457615 34.84910267 -7.99423474 34.7942841 -10.45556641 33.35424805 C-12.95210285 28.92920407 -11.96951293 22.99259353 -11.94140625 18.05859375 C-11.96138672 16.81787109 -11.98136719 15.57714844 -12.00195312 14.29882812 C-12.00130859 13.10708984 -12.00066406 11.91535156 -12 10.6875 C-12.00185303 9.59638916 -12.00370605 8.50527832 -12.00561523 7.38110352 C-11.50390625 4.49609375 -11.50390625 4.49609375 -9.94189453 2.14013672 C-6.66726456 -0.06809062 -3.81732537 -0.06199059 0 0 Z " fill="#2469B3" transform="translate(241.50390625,117.50390625)"/>
<path d="M0 0 C0.98178223 -0.00430527 0.98178223 -0.00430527 1.98339844 -0.00869751 C3.36524319 -0.01073618 4.74711693 -0.00521996 6.12890625 0.00732422 C8.2428445 0.02338314 10.35487113 0.00747149 12.46875 -0.01171875 C13.81250422 -0.00973628 15.15625724 -0.00589252 16.5 0 C17.72203125 0.00338379 18.9440625 0.00676758 20.203125 0.01025391 C23.25 0.3984375 23.25 0.3984375 25.16015625 1.72412109 C26.79892635 4.24174774 26.44483369 6.47593218 26.25 9.3984375 C23.61 10.0584375 20.97 10.7184375 18.25 11.3984375 C18.25 10.0784375 18.25 8.7584375 18.25 7.3984375 C11.65 7.3984375 5.05 7.3984375 -1.75 7.3984375 C-1.75 9.0484375 -1.75 10.6984375 -1.75 12.3984375 C-1.14526855 12.38796387 -0.54053711 12.37749023 0.08251953 12.36669922 C2.8466367 12.32489082 5.61068708 12.29903299 8.375 12.2734375 C9.32632813 12.25667969 10.27765625 12.23992187 11.2578125 12.22265625 C16.26726666 12.18786837 20.63998578 12.17443703 25.25 14.3984375 C27.52149101 17.80567402 27.57490564 19.25586964 27.625 23.2734375 C27.65335937 24.30210937 27.68171875 25.33078125 27.7109375 26.390625 C27.12294915 30.22749811 26.01362593 31.68998275 23.25 34.3984375 C20.10546875 35.01367188 20.10546875 35.01367188 16.4375 34.9921875 C15.78676514 34.99222778 15.13603027 34.99226807 14.46557617 34.99230957 C13.09381417 34.98696333 11.72205203 34.96941793 10.35058594 34.94042969 C8.25620497 34.89856154 6.16504156 34.89936268 4.0703125 34.90625 C-5.96426301 34.82743183 -5.96426301 34.82743183 -9.12890625 33.09960938 C-11.59191735 30.51493146 -11.48909605 27.85541489 -11.75 24.3984375 C-8.78 23.7384375 -5.81 23.0784375 -2.75 22.3984375 C-3.08 24.0484375 -3.41 25.6984375 -3.75 27.3984375 C3.84 27.3984375 11.43 27.3984375 19.25 27.3984375 C19.25 25.0884375 19.25 22.7784375 19.25 20.3984375 C18.51362305 20.41938477 17.77724609 20.44033203 17.01855469 20.46191406 C13.67917558 20.54510894 10.34001451 20.59710907 7 20.6484375 C5.84113281 20.68195313 4.68226563 20.71546875 3.48828125 20.75 C2.37324219 20.76289063 1.25820312 20.77578125 0.109375 20.7890625 C-0.91704102 20.81000977 -1.94345703 20.83095703 -3.00097656 20.85253906 C-6.47950201 20.27793362 -7.62919492 19.16428581 -9.75 16.3984375 C-10.24609375 13.26953125 -10.24609375 13.26953125 -10.1875 9.8359375 C-10.18556641 8.13244141 -10.18556641 8.13244141 -10.18359375 6.39453125 C-9.75 3.3984375 -9.75 3.3984375 -8.64477539 1.73608398 C-5.80445611 -0.26908408 -3.44482978 0.00953869 0 0 Z " fill="#246AB3" transform="translate(240.75,159.6015625)"/>
<path d="M0 0 C4.07551947 -0.06890359 8.14955368 -0.12862357 12.2253418 -0.16479492 C13.61147919 -0.17987397 14.99756894 -0.2003405 16.38354492 -0.22631836 C18.37658146 -0.26273716 20.36996723 -0.27813018 22.36328125 -0.29296875 C23.56251221 -0.3086792 24.76174316 -0.32438965 25.99731445 -0.34057617 C29 0 29 0 30.88989258 1.3425293 C32.57843931 3.86365174 32.39703158 6.00370504 32.375 9 C32.38660156 10.5778125 32.38660156 10.5778125 32.3984375 12.1875 C32 15 32 15 30.7265625 16.8125 C28.8220648 18.12238077 27.26603654 18.60930404 25 19 C25.721875 19.55429688 26.44375 20.10859375 27.1875 20.6796875 C28.115625 21.40414062 29.04375 22.12859375 30 22.875 C31.3921875 23.95394531 31.3921875 23.95394531 32.8125 25.0546875 C33.534375 25.69664062 34.25625 26.33859375 35 27 C35 27.66 35 28.32 35 29 C29.76555796 29.24878527 25.56970083 29.16332025 21.25390625 25.96484375 C19.58777024 24.36464311 17.96171634 22.72123043 16.38671875 21.03125 C13.56803551 18.63237065 11.63944031 18.29409619 8 18 C8 21.3 8 24.6 8 28 C5.36 28 2.72 28 0 28 C0 18.76 0 9.52 0 0 Z M8 6 C8 7.98 8 9.96 8 12 C13.61 12 19.22 12 25 12 C25 10.02 25 8.04 25 6 C19.39 6 13.78 6 8 6 Z " fill="#256AB3" transform="translate(354,124)"/>
<path d="M0 0 C4.07551947 -0.06890359 8.14955368 -0.12862357 12.2253418 -0.16479492 C13.61147919 -0.17987397 14.99756894 -0.2003405 16.38354492 -0.22631836 C18.37658146 -0.26273716 20.36996723 -0.27813018 22.36328125 -0.29296875 C23.56251221 -0.3086792 24.76174316 -0.32438965 25.99731445 -0.34057617 C29 0 29 0 30.88549805 1.3425293 C32.5775925 3.85898697 32.470609 6.00211842 32.5 9 C32.5309375 10.051875 32.561875 11.10375 32.59375 12.1875 C32 15 32 15 29.59375 16.8125 C28.7378125 17.204375 27.881875 17.59625 27 18 C26.34 18.33 25.68 18.66 25 19 C25.721875 19.48210937 26.44375 19.96421875 27.1875 20.4609375 C28.115625 21.09257812 29.04375 21.72421875 30 22.375 C30.928125 23.00148437 31.85625 23.62796875 32.8125 24.2734375 C33.534375 24.84320313 34.25625 25.41296875 35 26 C35 26.66 35 27.32 35 28 C29.8011457 28.80058403 25.66819724 29.1959764 21.25390625 26.03125 C19.58368424 24.42458286 17.95744553 22.77047146 16.38671875 21.06640625 C13.56814278 18.6261007 11.66485559 18.29086155 8 18 C8 21.3 8 24.6 8 28 C5.36 28 2.72 28 0 28 C0 18.76 0 9.52 0 0 Z M8 5 C8 7.31 8 9.62 8 12 C10.64590014 12.02684679 13.29153096 12.04676357 15.9375 12.0625 C16.69224609 12.07087891 17.44699219 12.07925781 18.22460938 12.08789062 C20.14994313 12.09652441 22.07535581 12.05224333 24 12 C25.28322547 10.9404123 25.28322547 10.9404123 25.125 8.5 C25.28322547 6.0595877 25.28322547 6.0595877 24 5 C21.30345146 4.92680379 18.63308542 4.90757463 15.9375 4.9375 C14.79958008 4.94426758 14.79958008 4.94426758 13.63867188 4.95117188 C11.75908129 4.9629932 9.87953101 4.98092922 8 5 Z " fill="#2469B3" transform="translate(480,166)"/>
<path d="M0 0 C6.001875 -0.0928125 6.001875 -0.0928125 12.125 -0.1875 C13.37555176 -0.21481201 14.62610352 -0.24212402 15.91455078 -0.27026367 C26.23703233 -0.34759497 26.23703233 -0.34759497 31 3 C34.42790374 6.70584188 35.87353376 9.29270575 36.25 14.375 C35.89299462 19.55157805 34.30728187 21.82344632 30.5 25.25 C26.65947198 27.93836961 23.81039271 28.12086494 19.23828125 28.09765625 C17.72681519 28.09390991 17.72681519 28.09390991 16.18481445 28.09008789 C14.2680188 28.07643188 14.2680188 28.07643188 12.3125 28.0625 C6.2178125 28.0315625 6.2178125 28.0315625 0 28 C0 18.76 0 9.52 0 0 Z M7 6 C7 11.28 7 16.56 7 22 C9.371875 22.061875 11.74375 22.12375 14.1875 22.1875 C14.92508545 22.21481201 15.6626709 22.24212402 16.42260742 22.27026367 C20.827366 22.32558339 23.5179177 21.70828623 27 19 C28.44430855 16.11138291 28.37688506 14.20352299 28 11 C26.01457297 8.34502351 24.45303205 6.30423091 21.08886719 5.59985352 C18.92858995 5.50819154 16.84698628 5.56303711 14.6875 5.6875 C10.8821875 5.8421875 10.8821875 5.8421875 7 6 Z " fill="#2569B3" transform="translate(392,124)"/>
<path d="M0 0 C4.16625 -0.0825 8.3325 -0.165 12.625 -0.25 C13.92775879 -0.28641602 15.23051758 -0.32283203 16.57275391 -0.36035156 C23.00760244 -0.42211973 27.16808464 -0.45066646 32 4 C35.29487979 7.29487979 35.84373757 10.3902584 36 15 C34.51425647 19.61362465 32.86669753 23.01711904 29 26 C23.20733286 28.65536617 17.35461834 28.22396624 11.125 28.125 C7.45375 28.08375 3.7825 28.0425 0 28 C0 18.76 0 9.52 0 0 Z M7 6 C7 11.28 7 16.56 7 22 C16.23871134 22.44681824 16.23871134 22.44681824 25 20 C27.41486943 17.58513057 27.2961925 16.87292211 27.3125 13.5625 C27.32925781 12.78003906 27.34601562 11.99757812 27.36328125 11.19140625 C26.90844841 8.44773718 26.14972805 7.71844607 24 6 C22.07435138 5.59011951 22.07435138 5.59011951 19.98828125 5.70703125 C19.23095703 5.71669922 18.47363281 5.72636719 17.69335938 5.73632812 C16.90767578 5.76146484 16.12199219 5.78660156 15.3125 5.8125 C14.51521484 5.82603516 13.71792969 5.83957031 12.89648438 5.85351562 C10.93070033 5.88882911 8.96526418 5.94263553 7 6 Z " fill="#2469B3" transform="translate(519,166)"/>
<path d="M0 0 C3.63 0.33 7.26 0.66 11 1 C13.37247413 6.31761443 15.72004216 11.64209908 18 17 C22.03200346 9.22592086 22.03200346 9.22592086 25 1 C28.96 1 32.92 1 37 1 C37 1.66 37 2.32 37 3 C36.01 3.33 35.02 3.66 34 4 C33.67 11.59 33.34 19.18 33 27 C34.32 27.33 35.64 27.66 37 28 C37 28.66 37 29.32 37 30 C32.71 30 28.42 30 24 30 C23.67 29.01 23.34 28.02 23 27 C23.99 27 24.98 27 26 27 C25.505 20.565 25.505 20.565 25 14 C24.21625 15.711875 23.4325 17.42375 22.625 19.1875 C22.18414063 20.15042969 21.74328125 21.11335938 21.2890625 22.10546875 C20.12678149 24.71531792 19.04075219 27.33975959 18 30 C17.01 30 16.02 30 15 30 C12.69 24.06 10.38 18.12 8 12 C7.67 16.95 7.34 21.9 7 27 C7.99 27 8.98 27 10 27 C10 27.99 10 28.98 10 30 C7.03 30 4.06 30 1 30 C0.67 29.01 0.34 28.02 0 27 C1.32 27 2.64 27 4 27 C3.67 19.41 3.34 11.82 3 4 C2.01 3.67 1.02 3.34 0 3 C0 2.01 0 1.02 0 0 Z " fill="#2469B3" transform="translate(660,166)"/>
<path d="M0 0 C6.72789116 0 6.72789116 0 10.125 2.9375 C13.86335729 6.05599292 17.65640818 9.03489076 21.5625 11.9375 C23.356875 13.278125 25.15125 14.61875 27 16 C27.33 10.72 27.66 5.44 28 0 C30.31 0 32.62 0 35 0 C35 9.24 35 18.48 35 28 C28.25162028 28 28.25162028 28 25.6328125 25.8046875 C25.06062988 25.33844971 24.48844727 24.87221191 23.89892578 24.3918457 C23.31353027 23.89128662 22.72813477 23.39072754 22.125 22.875 C20.89632879 21.86528222 19.6671646 20.85616402 18.4375 19.84765625 C17.8496875 19.35797363 17.261875 18.86829102 16.65625 18.36376953 C13.52817077 15.78808401 10.2562546 13.4096284 7 11 C7 16.61 7 22.22 7 28 C4.69 28 2.38 28 0 28 C0 18.76 0 9.52 0 0 Z " fill="#246AB2" transform="translate(484,124)"/>
<path d="M0 0 C6.2462452 0 7.94786263 0.89625598 12.375 4.625 C13.5114341 5.54201953 14.64815258 6.45868677 15.78515625 7.375 C16.33187988 7.82359375 16.87860352 8.2721875 17.44189453 8.734375 C19.52199638 10.42400959 21.66010504 12.02892816 23.8125 13.625 C24.864375 14.40875 25.91625 15.1925 27 16 C27.33 10.72 27.66 5.44 28 0 C30.31 0 32.62 0 35 0 C35 9.24 35 18.48 35 28 C28.63061637 28 28.14802961 27.89765498 23.75 24 C22.81027344 23.18660156 21.87054688 22.37320313 20.90234375 21.53515625 C19.94457031 20.69855469 18.98679687 19.86195313 18 19 C16.11222877 17.46917087 14.2169383 15.94754398 12.3125 14.4375 C10.889375 13.303125 9.46625 12.16875 8 11 C7.67 16.61 7.34 22.22 7 28 C4.69 28 2.38 28 0 28 C0 18.76 0 9.52 0 0 Z " fill="#246AB3" transform="translate(314,166)"/>
<path d="M0 0 C2.64 0 5.28 0 8 0 C8 7.26 8 14.52 8 22 C13.94 22 19.88 22 26 22 C26 14.74 26 7.48 26 0 C28.64 0 31.28 0 34 0 C34.11618764 3.91641711 34.18724654 7.83239101 34.25 11.75 C34.28351563 12.86117187 34.31703125 13.97234375 34.3515625 15.1171875 C34.36445313 16.18710938 34.37734375 17.25703125 34.390625 18.359375 C34.41157227 19.34389648 34.43251953 20.32841797 34.45410156 21.34277344 C33.85693547 24.83715823 32.87441196 25.95520803 30 28 C27.11499023 28.51757812 27.11499023 28.51757812 23.80859375 28.53125 C22.61685547 28.53640625 21.42511719 28.5415625 20.19726562 28.546875 C18.95654297 28.53140625 17.71582031 28.5159375 16.4375 28.5 C14.57061523 28.52320313 14.57061523 28.52320313 12.66601562 28.546875 C10.8803418 28.53914063 10.8803418 28.53914063 9.05859375 28.53125 C7.42361938 28.52448242 7.42361938 28.52448242 5.75561523 28.51757812 C3 28 3 28 1.13964844 26.31933594 C-0.25886238 23.47318067 -0.34348232 21.52489203 -0.29296875 18.359375 C-0.28330078 17.28945312 -0.27363281 16.21953125 -0.26367188 15.1171875 C-0.23853516 14.00601563 -0.21339844 12.89484375 -0.1875 11.75 C-0.17396484 10.62335938 -0.16042969 9.49671875 -0.14648438 8.3359375 C-0.11115645 5.55680736 -0.0618252 2.77864637 0 0 Z " fill="#246AB2" transform="translate(274,166)"/>
<path d="M0 0 C2.64 0 5.28 0 8 0 C8 7.26 8 14.52 8 22 C13.94 22 19.88 22 26 22 C26 14.74 26 7.48 26 0 C28.64 0 31.28 0 34 0 C34.11618764 3.91641711 34.18724654 7.83239101 34.25 11.75 C34.28351563 12.86117187 34.31703125 13.97234375 34.3515625 15.1171875 C34.36445313 16.18710938 34.37734375 17.25703125 34.390625 18.359375 C34.41157227 19.34389648 34.43251953 20.32841797 34.45410156 21.34277344 C33.85827097 24.82934344 32.85972299 25.95190043 30 28 C27.22265625 28.51757812 27.22265625 28.51757812 24.0625 28.53125 C22.34933594 28.53898437 22.34933594 28.53898437 20.6015625 28.546875 C19.41304688 28.53140625 18.22453125 28.5159375 17 28.5 C15.81148438 28.51546875 14.62296875 28.5309375 13.3984375 28.546875 C12.25632812 28.54171875 11.11421875 28.5365625 9.9375 28.53125 C8.89464844 28.52673828 7.85179687 28.52222656 6.77734375 28.51757812 C3.24859201 27.85996968 2.07358621 26.90889973 0 24 C-0.45410156 21.34277344 -0.45410156 21.34277344 -0.390625 18.359375 C-0.37773437 17.28945312 -0.36484375 16.21953125 -0.3515625 15.1171875 C-0.31804687 14.00601563 -0.28453125 12.89484375 -0.25 11.75 C-0.23195313 10.62335938 -0.21390625 9.49671875 -0.1953125 8.3359375 C-0.14820222 5.55643104 -0.08243361 2.7786466 0 0 Z " fill="#2469B3" transform="translate(402,166)"/>
<path d="M0 0 C2.64 0 5.28 0 8 0 C8 7.26 8 14.52 8 22 C13.94 22 19.88 22 26 22 C26 14.74 26 7.48 26 0 C28.31 0 30.62 0 33 0 C33.05783842 4.29161047 33.0935412 8.58312145 33.125 12.875 C33.14175781 14.09832031 33.15851563 15.32164062 33.17578125 16.58203125 C33.18544922 18.33193359 33.18544922 18.33193359 33.1953125 20.1171875 C33.21102295 21.73536377 33.21102295 21.73536377 33.22705078 23.38623047 C33 26 33 26 31 28 C28.25024414 28.25878906 28.25024414 28.25878906 24.78515625 28.265625 C22.92020508 28.26949219 22.92020508 28.26949219 21.01757812 28.2734375 C19.05981445 28.26183594 19.05981445 28.26183594 17.0625 28.25 C15.11053711 28.26160156 15.11053711 28.26160156 13.11914062 28.2734375 C11.25225586 28.26957031 11.25225586 28.26957031 9.34765625 28.265625 C8.20304932 28.26336914 7.05844238 28.26111328 5.87915039 28.25878906 C3 28 3 28 0 26 C-0.34057617 23.38623047 -0.34057617 23.38623047 -0.29296875 20.1171875 C-0.2784668 18.36728516 -0.2784668 18.36728516 -0.26367188 16.58203125 C-0.23853516 15.35871094 -0.21339844 14.13539063 -0.1875 12.875 C-0.17396484 11.64394531 -0.16042969 10.41289062 -0.14648438 9.14453125 C-0.11103543 6.09592157 -0.06162079 3.048175 0 0 Z " fill="#256AB3" transform="translate(276,124)"/>
<path d="M0 0 C3.63439735 0.39548789 4.03458777 0.97530524 6.6875 3.875 C7.49154495 5.20971462 8.26096127 6.56572263 9 7.9375 C9.39703125 8.63617188 9.7940625 9.33484375 10.203125 10.0546875 C11.036574 11.53696071 11.85661939 13.02683912 12.6640625 14.5234375 C14.61276825 18.04478297 16.73972469 21.45307702 18.86328125 24.87109375 C20 26.9375 20 26.9375 20 28.9375 C14.67988107 29.28636026 14.67988107 29.28636026 12 28.9375 C10 27.0625 10 27.0625 9 24.9375 C9 24.2775 9 23.6175 9 22.9375 C6.05943386 22.97047271 3.12652037 23.03756919 0.1875 23.125 C-1.06256836 23.13370117 -1.06256836 23.13370117 -2.33789062 23.14257812 C-4.66348962 23.22663592 -6.7481329 23.3446621 -9 23.9375 C-10.85339866 26.37238351 -10.85339866 26.37238351 -12 28.9375 C-14.79965679 29.60663403 -17.08800141 29.17618841 -20 28.9375 C-17.35312713 23.44559265 -14.25738481 18.18104329 -11.234375 12.890625 C-9.95375378 10.64900868 -8.73856677 8.41750644 -7.578125 6.109375 C-5.63108664 2.40200058 -4.19388105 0.44516056 0 0 Z M-1 6.9375 C-1.67154933 8.22663487 -2.33708859 9.51890204 -3 10.8125 C-3.37125 11.53179687 -3.7425 12.25109375 -4.125 12.9921875 C-5.13673746 14.88598977 -5.13673746 14.88598977 -5 16.9375 C-1.7 16.9375 1.6 16.9375 5 16.9375 C3.66654496 13.34742874 2.1056769 10.14179093 0 6.9375 C-0.33 6.9375 -0.66 6.9375 -1 6.9375 Z " fill="#2469B3" transform="translate(457,165.0625)"/>
<path d="M0 0 C2.16064453 0.08398438 2.16064453 0.08398438 4.37109375 0.953125 C7.66228269 4.64479569 9.94319024 8.88707366 12.30859375 13.203125 C12.98370277 14.37521401 13.66141373 15.54580842 14.34179688 16.71484375 C19.61989029 25.94750462 19.61989029 25.94750462 20.37109375 29.953125 C18.93261814 29.91995261 17.49495305 29.85038623 16.05859375 29.765625 C15.25808594 29.73082031 14.45757812 29.69601563 13.6328125 29.66015625 C12.88644531 29.42683594 12.14007813 29.19351563 11.37109375 28.953125 C10.95472656 28.12425781 10.53835938 27.29539063 10.109375 26.44140625 C9.53574219 25.62027344 8.96210938 24.79914063 8.37109375 23.953125 C5.31002571 23.43274343 2.92008973 23.25177285 -0.12890625 23.328125 C-0.90105469 23.30878906 -1.67320312 23.28945312 -2.46875 23.26953125 C-5.01266199 23.23182505 -5.01266199 23.23182505 -8.62890625 23.953125 C-10.44471561 26.36429922 -10.44471561 26.36429922 -11.62890625 28.953125 C-14.3516936 29.89542808 -16.71130512 29.80963642 -19.62890625 29.953125 C-18.96525475 26.47211364 -17.56873266 23.88696628 -15.7578125 20.85546875 C-15.18353516 19.88931641 -14.60925781 18.92316406 -14.01757812 17.92773438 C-13.41494141 16.92548828 -12.81230469 15.92324219 -12.19140625 14.890625 C-11.59263672 13.88451172 -10.99386719 12.87839844 -10.37695312 11.84179688 C-3.92851462 1.03181654 -3.92851462 1.03181654 0 0 Z M-0.62890625 7.953125 C-3.10390625 12.408125 -3.10390625 12.408125 -5.62890625 16.953125 C-1.99890625 16.953125 1.63109375 16.953125 5.37109375 16.953125 C3.72109375 13.983125 2.07109375 11.013125 0.37109375 7.953125 C0.04109375 7.953125 -0.28890625 7.953125 -0.62890625 7.953125 Z " fill="#2469B3" transform="translate(461.62890625,123.046875)"/>
<path d="M0 0 C5.335652 1.94023709 6.69698675 5.44528041 9.4375 10.25 C10.37221359 11.76505773 11.31283423 13.27647952 12.2578125 14.78515625 C16.48268023 21.559326 16.48268023 21.559326 18.2421875 24.43359375 C18.66483887 25.11993896 19.08749023 25.80628418 19.52294922 26.51342773 C20.4375 28.25 20.4375 28.25 20.4375 30.25 C18.99902439 30.21682761 17.5613593 30.14726123 16.125 30.0625 C15.32449219 30.02769531 14.52398437 29.99289063 13.69921875 29.95703125 C12.95285156 29.72371094 12.20648438 29.49039063 11.4375 29.25 C11.0353125 28.425 10.633125 27.6 10.21875 26.75 C8.74068991 24.11091508 8.74068991 24.11091508 6.52075195 23.74682617 C4.08799295 23.53248052 1.69206346 23.45449812 -0.75 23.4375 C-1.59498047 23.41236328 -2.43996094 23.38722656 -3.31054688 23.36132812 C-5.3940305 23.30247266 -7.47831627 23.27337005 -9.5625 23.25 C-10.2225 25.23 -10.8825 27.21 -11.5625 29.25 C-15.5225 29.745 -15.5225 29.745 -19.5625 30.25 C-18.90714046 25.17564471 -16.57088521 21.6766364 -13.85180664 17.42895508 C-13.48692139 16.85814209 -13.12203613 16.2873291 -12.74609375 15.69921875 C-12.19477783 14.84142822 -12.19477783 14.84142822 -11.63232422 13.96630859 C-10.61086388 12.32758971 -9.66450733 10.64276472 -8.72265625 8.95703125 C-4.5167862 1.58483726 -4.5167862 1.58483726 0 0 Z M-0.5625 8.25 C-3.0375 12.705 -3.0375 12.705 -5.5625 17.25 C-1.9325 17.25 1.6975 17.25 5.4375 17.25 C3.7875 14.28 2.1375 11.31 0.4375 8.25 C0.1075 8.25 -0.2225 8.25 -0.5625 8.25 Z " fill="#2469B2" transform="translate(331.5625,122.75)"/>
<path d="M0 0 C3.24969769 -0.11638036 6.4988583 -0.18730581 9.75 -0.25 C10.67039062 -0.28351563 11.59078125 -0.31703125 12.5390625 -0.3515625 C19.35944029 -0.45040855 19.35944029 -0.45040855 22.60546875 1.83203125 C24.54456219 4.84658827 24.64644626 6.48045923 24 10 C21.5 12.875 21.5 12.875 19 15 C19.90351441 16.63234937 20.8233569 18.25566824 21.75 19.875 C22.26046875 20.77992188 22.7709375 21.68484375 23.296875 22.6171875 C25.05697297 25.07970989 26.21006094 25.94467523 29 27 C29 27.66 29 28.32 29 29 C25.92409506 29.36187117 23.06558234 29.4997672 20 29 C16.54175723 25.76729481 14.33665125 22.08913969 12 18 C11.67 17.67 11.34 17.34 11 17 C11.020625 18.11375 11.04125 19.2275 11.0625 20.375 C11 24 11 24 10 26 C10.99 26 11.98 26 13 26 C13 26.99 13 27.98 13 29 C8.71 29 4.42 29 0 29 C0 28.01 0 27.02 0 26 C0.99 26 1.98 26 3 26 C3 18.41 3 10.82 3 3 C2.01 2.67 1.02 2.34 0 2 C0 1.34 0 0.68 0 0 Z M10 3 C10 6.3 10 9.6 10 13 C11.98 12.67 13.96 12.34 16 12 C16.020625 10.700625 16.04125 9.40125 16.0625 8.0625 C16.07410156 7.33160156 16.08570313 6.60070312 16.09765625 5.84765625 C16.20561184 3.98267859 16.20561184 3.98267859 15 3 C13.35 3 11.7 3 10 3 Z " fill="#236AB1" transform="translate(863,167)"/>
<path d="M0 0 C3.37483413 -0.08767555 6.74937215 -0.14061628 10.125 -0.1875 C11.55199219 -0.22520508 11.55199219 -0.22520508 13.0078125 -0.26367188 C18.4147376 -0.31999401 22.38711941 -0.17366185 27 3 C30.11256289 7.91985747 30.45191928 11.89906504 29.6328125 17.6328125 C28.57400818 21.59352496 27.08256582 23.25249568 24 26 C18.50208022 28.90378241 14.21796482 29.39320962 8.0625 29.1875 C7.28326172 29.17396484 6.50402344 29.16042969 5.70117188 29.14648438 C3.80047596 29.11150224 1.90014166 29.05770959 0 29 C0 28.01 0 27.02 0 26 C0.99 26 1.98 26 3 26 C3 18.41 3 10.82 3 3 C2.01 2.67 1.02 2.34 0 2 C0 1.34 0 0.68 0 0 Z M10 3 C10 10.26 10 17.52 10 25 C14.6922239 26.42338387 14.6922239 26.42338387 17.6875 24.875 C20.45251216 22.63309825 21.15698362 21.44870339 22 18 C22.45234045 13.25523742 22.27371966 9.2948038 20 5 C19.34 4.34 18.68 3.68 18 3 C15.36 3 12.72 3 10 3 Z " fill="#2569B3" transform="translate(895,167)"/>
<path d="M0 0 C3.37470504 -0.11689626 6.7488843 -0.18747934 10.125 -0.25 C11.07632813 -0.28351563 12.02765625 -0.31703125 13.0078125 -0.3515625 C18.83884135 -0.43254901 22.49362667 -0.11764464 27 4 C29.94400785 8.2251179 29.49294183 13.05493279 29 18 C27.25894517 23.2231645 24.78084962 25.36565429 20 28 C15.94735332 29.24677288 11.9511583 29.11074652 7.75 29.0625 C7.00492188 29.05798828 6.25984375 29.05347656 5.4921875 29.04882812 C3.6614236 29.03709246 1.83070127 29.0191585 0 29 C0 28.01 0 27.02 0 26 C0.99 26 1.98 26 3 26 C3 18.08 3 10.16 3 2 C2.01 2 1.02 2 0 2 C0 1.34 0 0.68 0 0 Z M10 3 C10 10.26 10 17.52 10 25 C14.73103555 26.46564915 14.73103555 26.46564915 17.75 24.6875 C20.08851102 23.19565595 20.08851102 23.19565595 21 21 C21.17484831 18.7126402 21.26720049 16.41858557 21.3125 14.125 C21.36857422 12.27261719 21.36857422 12.27261719 21.42578125 10.3828125 C21.24805301 6.99549784 21.24805301 6.99549784 19.41796875 4.5546875 C16.49778535 2.36903602 16.49778535 2.36903602 10 3 Z " fill="#2469B3" transform="translate(730,167)"/>
<path d="M0 0 C4.4997844 3.03473831 6.35439604 5.3373253 7.5625 10.6875 C7.87016968 14.77181497 7.27126867 17.99705729 5.6875 21.8125 C2.63026825 25.34007509 -0.22532428 28.55348541 -5.01953125 29.1484375 C-15.60188098 29.28154882 -15.60188098 29.28154882 -20.3125 24.8125 C-23.91353966 20.85135638 -23.81282479 16.59780078 -23.66796875 11.47265625 C-23.03565391 6.74071771 -20.73567756 4.06317119 -17.25 1 C-11.92876979 -2.26139916 -5.72081438 -2.05085798 0 0 Z M-14.3125 3.8125 C-15.45794249 7.24882747 -15.5522802 10.06681955 -15.625 13.6875 C-15.66238281 14.90179688 -15.69976563 16.11609375 -15.73828125 17.3671875 C-15.23760462 21.41853421 -14.25432687 23.02715328 -11.3125 25.8125 C-7.79145874 26.30668123 -5.49961929 26.56434222 -2.4375 24.625 C0.8127365 19.38850786 0.10637526 12.7779916 -1.125 7 C-2.05058299 3.56385402 -2.05058299 3.56385402 -5.3125 1.8125 C-9.38740752 1.47292437 -10.84251271 1.49917514 -14.3125 3.8125 Z " fill="#2469B2" transform="translate(721.3125,167.1875)"/>
<path d="M0 0 C1.14662109 -0.00386719 1.14662109 -0.00386719 2.31640625 -0.0078125 C4.4375 0.125 4.4375 0.125 7.4375 1.125 C7.1075 3.765 6.7775 6.405 6.4375 9.125 C5.4475 9.125 4.4575 9.125 3.4375 9.125 C2.7775 7.475 2.1175 5.825 1.4375 4.125 C-3.52190586 4.3363054 -3.52190586 4.3363054 -7.5 7 C-9.69103566 13.44422252 -9.37158637 19.9472483 -6.5625 26.125 C-4.2525 26.125 -1.9425 26.125 0.4375 26.125 C0.6877157 23.20865871 0.6877157 23.20865871 0.4375 20.125 C-0.5525 19.465 -1.5425 18.805 -2.5625 18.125 C-2.5625 17.465 -2.5625 16.805 -2.5625 16.125 C1.7275 16.125 6.0175 16.125 10.4375 16.125 C10.1075 17.115 9.7775 18.105 9.4375 19.125 C8.7775 19.125 8.1175 19.125 7.4375 19.125 C7.44910156 19.83527344 7.46070313 20.54554688 7.47265625 21.27734375 C7.48167969 22.19644531 7.49070312 23.11554688 7.5 24.0625 C7.51160156 24.97902344 7.52320313 25.89554688 7.53515625 26.83984375 C7.4375 29.125 7.4375 29.125 6.4375 30.125 C0.31044294 30.62003375 -5.51697804 31.04195812 -11.1875 28.5 C-15.17060602 24.51689398 -17.76920366 21.43610835 -18.0625 15.6875 C-17.82549097 10.84107398 -16.44185492 8.01602017 -13.5625 4.125 C-9.25261223 0.89258418 -5.31142433 -0.01797436 0 0 Z " fill="#2469B2" transform="translate(794.5625,165.875)"/>
<path d="M0 0 C4.62 0 9.24 0 14 0 C14 0.66 14 1.32 14 2 C13.01 2.33 12.02 2.66 11 3 C10.94579299 5.56278699 10.90622993 8.12441483 10.875 10.6875 C10.85824219 11.40873047 10.84148438 12.12996094 10.82421875 12.87304688 C10.7864693 17.00661188 10.91268172 20.3731978 13 24 C15.90351124 25.16448881 15.90351124 25.16448881 19 25 C21.17475852 23.41652495 21.90477162 22.47936816 22.43237305 19.82348633 C22.45855713 19.00130615 22.48474121 18.17912598 22.51171875 17.33203125 C22.54716797 16.43935547 22.58261719 15.54667969 22.61914062 14.62695312 C22.64169922 13.69818359 22.66425781 12.76941406 22.6875 11.8125 C22.72166016 10.87212891 22.75582031 9.93175781 22.79101562 8.96289062 C22.87348218 6.64204607 22.94263403 4.32157852 23 2 C22.01 2 21.02 2 20 2 C20 1.34 20 0.68 20 0 C23.63 0 27.26 0 31 0 C31 0.66 31 1.32 31 2 C30.01 2.33 29.02 2.66 28 3 C27.9906543 3.57967529 27.98130859 4.15935059 27.97167969 4.7565918 C27.9177593 7.40106946 27.83415871 10.04381893 27.75 12.6875 C27.72873047 14.05551758 27.72873047 14.05551758 27.70703125 15.45117188 C27.54991336 19.77191384 27.40527046 22.35008457 25.078125 26.08203125 C21.2046192 29.65701499 17.80137908 29.33463486 12.703125 29.28125 C9.02241279 28.89828572 7.36432462 27.82193584 5 25 C2.48299557 20.33691812 2.76930341 15.8381762 2.875 10.6875 C2.88402344 9.85154297 2.89304687 9.01558594 2.90234375 8.15429688 C2.92579011 6.10274031 2.96165734 4.05133223 3 2 C2.01 2 1.02 2 0 2 C0 1.34 0 0.68 0 0 Z " fill="#246AB3" transform="translate(803,167)"/>
<path d="M0 0 C0.99 0 1.98 0 3 0 C4.50514646 4.12314058 6.00324372 8.24880702 7.5 12.375 C7.92925781 13.550625 8.35851562 14.72625 8.80078125 15.9375 C9.20683594 17.05898437 9.61289062 18.18046875 10.03125 19.3359375 C10.40830078 20.37282715 10.78535156 21.4097168 11.17382812 22.47802734 C12 25 12 25 12 27 C13.32 27.33 14.64 27.66 16 28 C16 28.66 16 29.32 16 30 C11.38 30 6.76 30 2 30 C2 29.01 2 28.02 2 27 C2.66 26.67 3.32 26.34 4 26 C3.505 23.525 3.505 23.525 3 21 C0.36 21 -2.28 21 -5 21 C-5.66 22.98 -6.32 24.96 -7 27 C-6.01 27 -5.02 27 -4 27 C-4 27.99 -4 28.98 -4 30 C-7.3 30 -10.6 30 -14 30 C-14 29.01 -14 28.02 -14 27 C-13.01 26.67 -12.02 26.34 -11 26 C-9.88970435 24.10100837 -9.88970435 24.10100837 -9.0625 21.73828125 C-8.55589844 20.43020508 -8.55589844 20.43020508 -8.0390625 19.09570312 C-7.69617188 18.17724609 -7.35328125 17.25878906 -7 16.3125 C-6.31488862 14.51601433 -5.62744093 12.72041767 -4.9375 10.92578125 C-4.61136719 10.07709473 -4.28523437 9.2284082 -3.94921875 8.35400391 C-2.78654804 5.4706523 -1.45664848 2.74487198 0 0 Z M-1 11 C-1.66 12.98 -2.32 14.96 -3 17 C-1.68 17 -0.36 17 1 17 C0.67 15.02 0.34 13.04 0 11 C-0.33 11 -0.66 11 -1 11 Z " fill="#246AB2" transform="translate(845,166)"/>
<path d="M0 0 C4.62 0 9.24 0 14 0 C14 0.66 14 1.32 14 2 C13.01 2.33 12.02 2.66 11 3 C10.67 10.59 10.34 18.18 10 26 C11.32 26 12.64 26 14 26 C14 26.99 14 27.98 14 29 C9.38 29 4.76 29 0 29 C0 28.01 0 27.02 0 26 C0.99 26 1.98 26 3 26 C3 18.08 3 10.16 3 2 C2.01 2 1.02 2 0 2 C0 1.34 0 0.68 0 0 Z " fill="#246AB2" transform="translate(760,167)"/>
<path d="M0 0 C2.31 0 4.62 0 7 0 C7 9.24 7 18.48 7 28 C4.69 28 2.38 28 0 28 C0 18.76 0 9.52 0 0 Z " fill="#2569B2" transform="translate(433,124)"/>
<path d="M0 0 C1 1 1 1 1.1875 4.4375 C1 8 1 8 -1 10 C-3.84602594 10.36487512 -5.3864306 10.40199375 -7.8125 8.8125 C-9.44052002 6.32762734 -9.50975499 4.91288568 -9 2 C-6.06423382 -1.26196243 -4.07104718 -1.32033963 0 0 Z M-7 3 C-6 7 -6 7 -6 7 Z M-1 3 C-1.33 3.99 -1.66 4.98 -2 6 C-1.34 6 -0.68 6 0 6 C-0.33 5.01 -0.66 4.02 -1 3 Z M-4 6 C-4.33 6.66 -4.66 7.32 -5 8 C-4.34 8 -3.68 8 -3 8 C-3.33 7.34 -3.66 6.68 -4 6 Z " fill="#2569B3" transform="translate(933,158)"/>
<path d="M0 0 C1.9375 0.75 1.9375 0.75 3.9375 2.75 C3.38194444 7.30555556 3.38194444 7.30555556 1.9375 8.75 C-0.5 8.9375 -0.5 8.9375 -3.0625 8.75 C-5.0625 6.75 -5.0625 6.75 -5.375 4.25 C-5.271875 3.425 -5.16875 2.6 -5.0625 1.75 C-2.0625 -0.25 -2.0625 -0.25 0 0 Z " fill="#246AB2" transform="translate(527.0625,122.25)"/>
<path d="M0 0 C4.55555556 0.55555556 4.55555556 0.55555556 6 2 C6.1875 4.4375 6.1875 4.4375 6 7 C4 9 4 9 1.5 9.3125 C0.2625 9.1578125 0.2625 9.1578125 -1 9 C-3 6 -3 6 -2.75 3.9375 C-2 2 -2 2 0 0 Z " fill="#256AB3" transform="translate(557,165)"/>
</svg>
