<?xml version="1.0" encoding="UTF-8"?>
<svg version="1.1" xmlns="http://www.w3.org/2000/svg" width="400" height="107">
<path d="M0 0 C0 19.14 0 38.28 0 58 C-5.61 58 -11.22 58 -17 58 C-15 53 -15 53 -12.921875 50.2734375 C-10.40017299 45.97834342 -10.33582199 42.51685364 -10.25 37.625 C-10.22035156 36.79355469 -10.19070312 35.96210937 -10.16015625 35.10546875 C-10.08999601 33.07082173 -10.04267105 31.03540909 -10 29 C-11.32 29 -12.64 29 -14 29 C-14 26.36 -14 23.72 -14 21 C-12.68 21 -11.36 21 -10 21 C-10.13921875 19.60587891 -10.13921875 19.60587891 -10.28125 18.18359375 C-10.8611717 8.25243464 -10.8611717 8.25243464 -8.2890625 4.51171875 C-3.11413043 0 -3.11413043 0 0 0 Z " fill="#DD6402" transform="translate(17,20)"/>
<path d="M0 0 C-1.10710238 3.54272762 -2.61387498 5.68562288 -5.0625 8.375 C-9.53480061 14.01162218 -8.98210326 21.12765255 -9 28 C-7.68 28 -6.36 28 -5 28 C-5 30.64 -5 33.28 -5 36 C-6.32 36 -7.64 36 -9 36 C-8.9071875 36.845625 -8.814375 37.69125 -8.71875 38.5625 C-8.13921276 47.66951379 -8.13921276 47.66951379 -10.7109375 51.64453125 C-12.71913315 53.6563518 -14.63270971 55.42656007 -17 57 C-17.66 57 -18.32 57 -19 57 C-19 38.52 -19 20.04 -19 1 C-2 0 -2 0 0 0 Z " fill="#DD6504" transform="translate(76,15)"/>
<path d="M0 0 C0.66 0 1.32 0 2 0 C2.02513672 1.21623047 2.02513672 1.21623047 2.05078125 2.45703125 C2.78510621 11.87173479 5.87401085 16.05175994 12.6640625 22.05078125 C13.43492188 22.69402344 14.20578125 23.33726563 15 24 C16.65 23.34 18.3 22.68 20 22 C21.70884005 23.62339805 23.37446717 25.29319053 25 27 C25 27.66 25 28.32 25 29 C24.34 29.66 23.68 30.32 23 31 C23.5775 31.42667969 24.155 31.85335938 24.75 32.29296875 C28.4651915 35.4212116 30.76645951 37.49400725 31.53125 42.42578125 C31.50305635 45.65043004 31.35173484 48.79530475 31 52 C30.34 52 29.68 52 29 52 C29 51.34 29 50.68 29 50 C28.34 50 27.68 50 27 50 C27 49.34 27 48.68 27 48 C26.34 48 25.68 48 25 48 C25 47.34 25 46.68 25 46 C24.11208771 45.60006332 24.11208771 45.60006332 23.20623779 45.19204712 C20.95541205 43.97590879 19.49513234 42.73689572 17.70019531 40.92724609 C17.07985413 40.30675385 16.45951294 39.6862616 15.82037354 39.04696655 C15.16293152 38.37920197 14.5054895 37.71143738 13.828125 37.0234375 C12.8044986 35.99556625 12.8044986 35.99556625 11.76019287 34.94692993 C9.58538402 32.76094155 7.41763928 30.56809571 5.25 28.375 C3.7752001 26.89016745 2.29994494 25.40578694 0.82421875 23.921875 C-2.78915448 20.2864709 -6.39620853 16.64490176 -10 13 C-8.47926666 9.8227758 -6.79847974 7.43964447 -4.4375 4.8125 C-3.81746094 4.11769531 -3.19742187 3.42289062 -2.55859375 2.70703125 C-1.72141231 1.79011824 -0.8779528 0.8779528 0 0 Z " fill="#DD6809" transform="translate(20,0)"/>
<path d="M0 0 C3.07553416 1.37005694 5.16714739 2.92593068 7.52758789 5.31640625 C8.19830826 5.99050537 8.86902863 6.66460449 9.56007385 7.35913086 C10.27372604 8.08624268 10.98737823 8.81335449 11.72265625 9.5625 C12.46454697 10.30959229 13.20643768 11.05668457 13.97080994 11.82641602 C16.33950269 14.21291404 18.70140407 16.6059876 21.0625 19 C23.42801863 21.39313916 25.79497702 23.78480789 28.16490173 26.17358398 C29.63899908 27.65993333 31.11041498 29.14894778 32.57887268 30.64086914 C33.24644089 31.31496826 33.91400909 31.98906738 34.60180664 32.68359375 C35.18708633 33.27712646 35.77236603 33.87065918 36.37538147 34.48217773 C38.13078612 36.20469416 38.13078612 36.20469416 41 38 C40.46960703 42.057041 38.42356448 43.94844566 35.5625 46.75 C34.75941406 47.54921875 33.95632812 48.3484375 33.12890625 49.171875 C31 51 31 51 29 51 C28.97164062 50.17757812 28.94328125 49.35515625 28.9140625 48.5078125 C28.17872719 39.90240198 25.7880987 35.60031311 19.60546875 29.6328125 C17.12999976 27.69087307 17.12999976 27.69087307 14.35546875 28.37890625 C13.57816406 28.58386719 12.80085938 28.78882812 12 29 C9.125 26.8125 9.125 26.8125 7 24 C7.3671875 21.82421875 7.3671875 21.82421875 8 20 C7.4225 19.64550781 6.845 19.29101562 6.25 18.92578125 C3.70142315 17.09841625 1.86552385 15.53645786 0 13 C-0.69788895 8.5868787 -0.4796301 4.42991685 0 0 Z " fill="#DD6606" transform="translate(24,41)"/>
<path d="M0 0 C4.00095432 1.00023858 4.76474424 1.39129132 7.4375 4.1875 C8.3346875 5.12335937 8.3346875 5.12335937 9.25 6.078125 C11.59323963 8.65150424 13.8177669 11.28874069 16 14 C16.33 9.38 16.66 4.76 17 0 C18.65 0 20.3 0 22 0 C22 7.92 22 15.84 22 24 C16.33218034 22.86643607 15.46932825 21.84058718 11.8125 17.625 C10.52279297 16.15933594 10.52279297 16.15933594 9.20703125 14.6640625 C7 12 7 12 5 9 C4.67 13.95 4.34 18.9 4 24 C2.68 24 1.36 24 0 24 C0 16.08 0 8.16 0 0 Z " fill="#282828" transform="translate(97,24)"/>
<path d="M0 0 C4.00095432 1.00023858 4.76474424 1.39129132 7.4375 4.1875 C8.3346875 5.12335937 8.3346875 5.12335937 9.25 6.078125 C11.59323963 8.65150424 13.8177669 11.28874069 16 14 C16.33 9.71 16.66 5.42 17 1 C18.65 0.67 20.3 0.34 22 0 C22 7.92 22 15.84 22 24 C16.33218034 22.86643607 15.46932825 21.84058718 11.8125 17.625 C10.52279297 16.15933594 10.52279297 16.15933594 9.20703125 14.6640625 C7 12 7 12 5 9 C4.67 13.95 4.34 18.9 4 24 C2.68 24 1.36 24 0 24 C0 16.08 0 8.16 0 0 Z " fill="#252525" transform="translate(186,24)"/>
<path d="M0 0 C3.8026029 2.0050088 5.61790841 3.42686262 8 7 C8.54613601 10.39179204 8.53660917 13.60689554 8 17 C5.54053439 20.27928748 2.9328501 22.72760732 -1 24 C-6.01597611 24.45599783 -9.00671602 24.12987123 -13 21 C-16.19291989 17.97967037 -16.93973063 16.47462133 -17.5 12.0625 C-17.27570136 7.82485783 -15.7741536 5.23651253 -13 2 C-8.80092088 -0.56512783 -4.79710654 -0.69005172 0 0 Z M-9.9375 5.4375 C-12.09123507 8.11335266 -12.36136447 8.7955237 -12.5 12.0625 C-12.28513381 15.79835548 -12.28513381 15.79835548 -10.875 17.9375 C-8.17323836 19.46849826 -6.10564495 19.8757742 -3 20 C0.52906067 18.39588152 1.82772908 17.25840638 4 14 C3.81086908 10.97390524 3.48390994 8.77963268 1.875 6.1875 C-2.15586887 3.63461638 -5.68897599 3.35843506 -9.9375 5.4375 Z " fill="#232323" transform="translate(308,24)"/>
<path d="M0 0 C5.625 1.125 5.625 1.125 8.11328125 4.16015625 C8.9012207 5.1027832 8.9012207 5.1027832 9.70507812 6.06445312 C10.23552734 6.72380859 10.76597656 7.38316406 11.3125 8.0625 C11.86228516 8.72572266 12.41207031 9.38894531 12.97851562 10.07226562 C14.33000724 11.70580766 15.66650184 13.35173672 17 15 C17.33 10.05 17.66 5.1 18 0 C19.32 0 20.64 0 22 0 C22 7.92 22 15.84 22 24 C17.81100183 22.95275046 16.92863687 22.29214724 14.0625 19.3125 C13.37285156 18.59707031 12.68320312 17.88164063 11.97265625 17.14453125 C9.54265265 14.50280457 7.24210174 11.80262718 5 9 C4.67 13.95 4.34 18.9 4 24 C2.68 24 1.36 24 0 24 C0 16.08 0 8.16 0 0 Z " fill="#202020" transform="translate(357,24)"/>
<path d="M0 0 C10.68965517 0 10.68965517 0 14 3 C15 5.375 15 5.375 15 8 C13.5625 10.8125 13.5625 10.8125 12 13 C12.598125 13.7425 13.19625 14.485 13.8125 15.25 C14.534375 16.1575 15.25625 17.065 16 18 C16.5775 18.721875 17.155 19.44375 17.75 20.1875 C19 22 19 22 19 24 C16.73046875 24.27734375 16.73046875 24.27734375 14 24 C12.05078125 22.06640625 12.05078125 22.06640625 10.3125 19.5625 C8.13194901 16.23429217 8.13194901 16.23429217 5 14 C5 17.3 5 20.6 5 24 C3.35 24 1.7 24 0 24 C0 16.08 0 8.16 0 0 Z M5 4 C5 5.98 5 7.96 5 10 C6.65 9.67 8.3 9.34 10 9 C10 7.68 10 6.36 10 5 C8.35 4.67 6.7 4.34 5 4 Z " fill="#272727" transform="translate(322,24)"/>
<path d="M0 0 C1.83886719 0.21118164 1.83886719 0.21118164 4 1 C5.37207031 3.00952148 5.37207031 3.00952148 6.578125 5.62109375 C7.23554688 7.02391602 7.23554688 7.02391602 7.90625 8.45507812 C8.3496875 9.43927734 8.793125 10.42347656 9.25 11.4375 C9.70890625 12.41783203 10.1678125 13.39816406 10.640625 14.40820312 C14 21.67185175 14 21.67185175 14 24 C11.625 23.6875 11.625 23.6875 9 23 C7 20 7 20 7 17 C3.7 17 0.4 17 -3 17 C-3.66 18.98 -4.32 20.96 -5 23 C-6.65 23.33 -8.3 23.66 -10 24 C-7.49415892 15.59806226 -3.78974143 7.88058561 0 0 Z M1 7 C0.34 8.98 -0.32 10.96 -1 13 C0.65 13 2.3 13 4 13 C3.34 11.02 2.68 9.04 2 7 C1.67 7 1.34 7 1 7 Z " fill="#222222" transform="translate(133,24)"/>
<path d="M0 0 C4.62 0 9.24 0 14 0 C14 1.32 14 2.64 14 4 C10.7 4 7.4 4 4 4 C4 5.98 4 7.96 4 10 C7.3 10 10.6 10 14 10 C14 11.32 14 12.64 14 14 C10.7 14 7.4 14 4 14 C4 15.65 4 17.3 4 19 C6.97 19 9.94 19 13 19 C13.33 20.65 13.66 22.3 14 24 C9.38 24 4.76 24 0 24 C0 16.08 0 8.16 0 0 Z " fill="#282828" transform="translate(386,24)"/>
<path d="M0 0 C1.32 0 2.64 0 4 0 C4.03738281 1.12019531 4.07476562 2.24039062 4.11328125 3.39453125 C4.17894257 4.8672209 4.24538986 6.33987566 4.3125 7.8125 C4.33505859 8.55048828 4.35761719 9.28847656 4.38085938 10.04882812 C4.580033 14.27216719 4.580033 14.27216719 6.34765625 18.02734375 C8.1317326 19.2905397 8.1317326 19.2905397 11.125 18.75 C13.87790841 18.29066476 13.87790841 18.29066476 15 17 C15.23701239 14.14122091 15.42219182 11.30116703 15.5625 8.4375 C15.60568359 7.63119141 15.64886719 6.82488281 15.69335938 5.99414062 C15.79975262 3.99631195 15.90040888 1.9981793 16 0 C17.32 0 18.64 0 20 0 C20.11644156 3.08301416 20.18732432 6.16546123 20.25 9.25 C20.30027344 10.55904297 20.30027344 10.55904297 20.3515625 11.89453125 C20.4499623 18.33971824 20.4499623 18.33971824 18.26171875 21.55078125 C14.63195411 23.87658899 11.26013444 24.21300672 7 24 C3.97663142 22.64913319 2.32414606 21.32414606 0 19 C-0.22705078 17.02880859 -0.22705078 17.02880859 -0.1953125 14.6484375 C-0.18886719 13.79765625 -0.18242187 12.946875 -0.17578125 12.0703125 C-0.15902344 11.18085937 -0.14226562 10.29140625 -0.125 9.375 C-0.11597656 8.4778125 -0.10695313 7.580625 -0.09765625 6.65625 C-0.0740497 4.43723414 -0.0411231 2.21874923 0 0 Z " fill="#202020" transform="translate(265,24)"/>
<path d="M0 0 C1.32 0 2.64 0 4 0 C5.98 4.29 7.96 8.58 10 13 C11.98 8.71 13.96 4.42 16 0 C17.65 0 19.3 0 21 0 C19.36368504 5.3223297 17.16119959 10.30981576 14.875 15.375 C14.50246094 16.20644531 14.12992188 17.03789063 13.74609375 17.89453125 C12.83326454 19.93084255 11.91784402 21.96594539 11 24 C10.34 24 9.68 24 9 24 C7.49115787 20.56631406 5.99446599 17.12746451 4.5 13.6875 C4.07074219 12.71103516 3.64148438 11.73457031 3.19921875 10.72851562 C2.79316406 9.79072266 2.38710937 8.85292969 1.96875 7.88671875 C1.40317383 6.59060669 1.40317383 6.59060669 0.82617188 5.26831055 C0 3 0 3 0 0 Z " fill="#262626" transform="translate(149,24)"/>
<path d="M0 0 C4.29 0 8.58 0 13 0 C13 1.32 13 2.64 13 4 C10.03 4 7.06 4 4 4 C4.33 5.32 4.66 6.64 5 8 C7.64 8.33 10.28 8.66 13 9 C13 10.32 13 11.64 13 13 C10.03 13 7.06 13 4 13 C4.185625 14.0725 4.37125 15.145 4.5625 16.25 C4.9304568 19.40391546 5.04465343 21.09818492 4 24 C2.68 24 1.36 24 0 24 C0 16.08 0 8.16 0 0 Z " fill="#2C2C2C" transform="translate(227,24)"/>
<path d="M0 0 C1.32 0 2.64 0 4 0 C4 6.27 4 12.54 4 19 C7.3 19 10.6 19 14 19 C14 20.65 14 22.3 14 24 C9.38 24 4.76 24 0 24 C0 16.08 0 8.16 0 0 Z " fill="#1D1D1D" transform="translate(246,24)"/>
<path d="M0 0 C3.75843663 1.87921831 5.14975355 3.02470615 7.75 6.125 C8.36359375 6.84945312 8.9771875 7.57390625 9.609375 8.3203125 C10.29773438 9.15175781 10.29773438 9.15175781 11 10 C11.33 6.7 11.66 3.4 12 0 C12.99 0 13.98 0 15 0 C15 5.28 15 10.56 15 16 C14.01 16 13.02 16 12 16 C9.95703125 13.8125 9.95703125 13.8125 7.8125 11 C7.09707031 10.071875 6.38164062 9.14375 5.64453125 8.1875 C5.10183594 7.465625 4.55914062 6.74375 4 6 C3.67 9.3 3.34 12.6 3 16 C2.01 16 1.02 16 0 16 C0 10.72 0 5.44 0 0 Z " fill="#2D2D2D" transform="translate(248,57)"/>
<path d="M0 0 C3.48763093 1.74381547 6.03368051 3.52806709 9 6 C9.37125 5.071875 9.37125 5.071875 9.75 4.125 C11 2 11 2 15 0 C15 5.28 15 10.56 15 16 C14.01 15.67 13.02 15.34 12 15 C11.67 12.36 11.34 9.72 11 7 C9.68 7.99 8.36 8.98 7 10 C6.01 8.68 5.02 7.36 4 6 C3.67 9.3 3.34 12.6 3 16 C2.01 16 1.02 16 0 16 C0 10.72 0 5.44 0 0 Z M12 4 C13 6 13 6 13 6 Z " fill="#292929" transform="translate(328,57)"/>
<path d="M0 0 C1.65 0 3.3 0 5 0 C5 7.92 5 15.84 5 24 C3.35 24 1.7 24 0 24 C0 16.08 0 8.16 0 0 Z " fill="#292929" transform="translate(174,24)"/>
<path d="M0 0 C1.65 0 3.3 0 5 0 C5 7.92 5 15.84 5 24 C3.35 23.67 1.7 23.34 0 23 C0 15.41 0 7.82 0 0 Z " fill="#232323" transform="translate(345,24)"/>
<path d="M0 0 C7.48291572 6.15034169 7.48291572 6.15034169 10 10 C10.33 7.03 10.66 4.06 11 1 C11.99 0.67 12.98 0.34 14 0 C14 5.28 14 10.56 14 16 C10.24156337 14.12078169 8.85024645 12.97529385 6.25 9.875 C5.63640625 9.15054688 5.0228125 8.42609375 4.390625 7.6796875 C3.93171875 7.12539062 3.4728125 6.57109375 3 6 C2.67 9.3 2.34 12.6 2 16 C1.34 16 0.68 16 0 16 C-1.29758261 13.40483479 -1.13269102 11.45816973 -1.125 8.5625 C-1.12757813 7.59441406 -1.13015625 6.62632813 -1.1328125 5.62890625 C-1 3 -1 3 0 0 Z " fill="#222222" transform="translate(168,57)"/>
<path d="M0 0 C9.19230769 0 9.19230769 0 13 3 C14.44430855 5.88861709 14.37688506 7.79647701 14 11 C12.0625 13.875 12.0625 13.875 9 16 C5.87327402 16.41306246 3.17628148 16.23703593 0 16 C0 10.72 0 5.44 0 0 Z M2 3 C2 6.63 2 10.26 2 14 C3.918125 13.8453125 3.918125 13.8453125 5.875 13.6875 C6.59429687 13.62949219 7.31359375 13.57148437 8.0546875 13.51171875 C10.39519216 13.12606964 10.39519216 13.12606964 12 10 C11.6758631 6.67759676 11.39223697 5.39223697 9 3 C5.41656024 2.83322718 5.41656024 2.83322718 2 3 Z " fill="#202020" transform="translate(385,57)"/>
<path d="M0 0 C3.76991795 0.70685962 5.40418092 1.74418215 8 4.5625 C9.0625 7.5 9.0625 7.5 9 10.5625 C7.22960551 13.30966387 5.93708156 15.09395922 3 16.5625 C-1.05263598 17.10285146 -2.53730231 16.90449395 -5.875 14.4375 C-8 11.5625 -8 11.5625 -8.625 8.5625 C-7.58351809 3.56338683 -5.03644185 0.94433285 0 0 Z M-5 5.5625 C-5.33302312 8.6929173 -5.47671956 10.74148298 -3.875 13.5 C-1.9136096 14.83656292 -1.9136096 14.83656292 1.0625 14.375 C4.09515868 13.79601637 4.09515868 13.79601637 6 11.5625 C6.33333333 8.5625 6.33333333 8.5625 6 5.5625 C4.05667668 3.18255632 4.05667668 3.18255632 0.5 3.3125 C-3.05667668 3.18255632 -3.05667668 3.18255632 -5 5.5625 Z " fill="#2C2C2C" transform="translate(235,56.4375)"/>
<path d="M0 0 C7 0 7 0 9 1.125 C10 3 10 3 9.5 5.875 C8.88172346 9.73922836 9.82670712 10.87045826 12 14 C12 14.66 12 15.32 12 16 C8.21874975 14.73958325 7.98677673 13.31129455 6 10 C5.01 9.67 4.02 9.34 3 9 C3 11.31 3 13.62 3 16 C2.01 16 1.02 16 0 16 C0 10.72 0 5.44 0 0 Z M3 3 C3 4.32 3 5.64 3 7 C4.32 6.67 5.64 6.34 7 6 C7 5.01 7 4.02 7 3 C5.68 3 4.36 3 3 3 Z " fill="#222222" transform="translate(152,57)"/>
<path d="M0 0 C3.78080393 1.26026798 4.77295425 2.93546534 7.1875 6.0625 C7.90292969 6.98160156 8.61835937 7.90070313 9.35546875 8.84765625 C10.16951172 9.91306641 10.16951172 9.91306641 11 11 C11.33 7.37 11.66 3.74 12 0 C12.66 0 13.32 0 14 0 C14 5.28 14 10.56 14 16 C10.24156337 14.12078169 8.85024645 12.97529385 6.25 9.875 C5.63640625 9.15054688 5.0228125 8.42609375 4.390625 7.6796875 C3.93171875 7.12539062 3.4728125 6.57109375 3 6 C2.67 9.3 2.34 12.6 2 16 C1.34 16 0.68 16 0 16 C0 10.72 0 5.44 0 0 Z " fill="#292929" transform="translate(104,57)"/>
<path d="M0 0 C0.66 0 1.32 0 2 0 C2 0.66 2 1.32 2 2 C4.31 2 6.62 2 9 2 C9 3.98 9 5.96 9 8 C6.36 8 3.72 8 1 8 C0.67 6.35 0.34 4.7 0 3 C-0.33 4.65 -0.66 6.3 -1 8 C-3.97 8 -6.94 8 -10 8 C-10.33 6.35 -10.66 4.7 -11 3 C-7.26562152 2.12132271 -3.83225427 1.91087781 0 2 C0 1.34 0 0.68 0 0 Z M2 3 C2 4.32 2 5.64 2 7 C2.66 6.67 3.32 6.34 4 6 C4 5.01 4 4.02 4 3 C3.34 3 2.68 3 2 3 Z " fill="#212121" transform="translate(46,96)"/>
<path d="M0 0 C2.97 0 5.94 0 9 0 C9 0.99 9 1.98 9 3 C7.02 3 5.04 3 3 3 C3 4.32 3 5.64 3 7 C4.98 7 6.96 7 9 7 C9 7.66 9 8.32 9 9 C7.02 9 5.04 9 3 9 C3 10.65 3 12.3 3 14 C5.31 14 7.62 14 10 14 C10 14.66 10 15.32 10 16 C6.7 16 3.4 16 0 16 C0 10.72 0 5.44 0 0 Z " fill="#1B1B1B" transform="translate(371,57)"/>
<path d="M0 0 C0.598125 0.20625 1.19625 0.4125 1.8125 0.625 C1.8125 1.285 1.8125 1.945 1.8125 2.625 C5.1125 2.625 8.4125 2.625 11.8125 2.625 C11.8125 5.265 11.8125 7.905 11.8125 10.625 C10.1625 10.955 8.5125 11.285 6.8125 11.625 C6.4825 9.975 6.1525 8.325 5.8125 6.625 C5.4825 7.285 5.1525 7.945 4.8125 8.625 C3.33343108 8.65189216 1.85422517 8.67134621 0.375 8.6875 C-0.86056641 8.70490234 -0.86056641 8.70490234 -2.12109375 8.72265625 C-4.1875 8.625 -4.1875 8.625 -5.1875 7.625 C-5.4375 4.6875 -5.4375 4.6875 -5.1875 1.625 C-2.1875 -0.375 -2.1875 -0.375 0 0 Z M-2.1875 1.625 C-2.5175 3.275 -2.8475 4.925 -3.1875 6.625 C-1.8675 6.625 -0.5475 6.625 0.8125 6.625 C0.4825 4.975 0.1525 3.325 -0.1875 1.625 C-0.8475 1.625 -1.5075 1.625 -2.1875 1.625 Z M8.8125 3.625 C8.8125 4.945 8.8125 6.265 8.8125 7.625 C9.4725 7.295 10.1325 6.965 10.8125 6.625 C10.4825 5.635 10.1525 4.645 9.8125 3.625 C9.4825 3.625 9.1525 3.625 8.8125 3.625 Z " fill="#212121" transform="translate(67.1875,95.375)"/>
<path d="M0 0 C0.66 0 1.32 0 2 0 C3.17154293 2.28929053 4.33738074 4.58118362 5.5 6.875 C5.83386719 7.52597656 6.16773438 8.17695312 6.51171875 8.84765625 C9 13.7734375 9 13.7734375 9 16 C8.01 16 7.02 16 6 16 C5.67 14.35 5.34 12.7 5 11 C1.56206661 11.18129815 1.56206661 11.18129815 -2 12 C-3.51294288 13.93597032 -3.51294288 13.93597032 -4 16 C-4.99 16 -5.98 16 -7 16 C-5.56835889 12.34061828 -4.01065704 8.76011932 -2.375 5.1875 C-1.92898438 4.21167969 -1.48296875 3.23585937 -1.0234375 2.23046875 C-0.51683594 1.12638672 -0.51683594 1.12638672 0 0 Z M0 5 C-0.33 6.32 -0.66 7.64 -1 9 C0.32 9 1.64 9 3 9 C2.67 7.68 2.34 6.36 2 5 C1.34 5 0.68 5 0 5 Z " fill="#272727" transform="translate(273,57)"/>
<path d="M0 0 C3 1 3 1 4.60546875 3.87109375 C5.12753906 5.04800781 5.64960938 6.22492187 6.1875 7.4375 C6.71730469 8.61183594 7.24710938 9.78617188 7.79296875 10.99609375 C9 14 9 14 9 16 C8.01 16 7.02 16 6 16 C5.67 14.35 5.34 12.7 5 11 C1.56206661 11.18129815 1.56206661 11.18129815 -2 12 C-3.51294288 13.93597032 -3.51294288 13.93597032 -4 16 C-4.66 16 -5.32 16 -6 16 C-5.37183502 12.05050296 -4.1354471 8.80107972 -2.4375 5.1875 C-1.98246094 4.21167969 -1.52742187 3.23585937 -1.05859375 2.23046875 C-0.70925781 1.49441406 -0.35992187 0.75835937 0 0 Z M1 4 C0.34 5.65 -0.32 7.3 -1 9 C0.32 9 1.64 9 3 9 C2.67 7.35 2.34 5.7 2 4 C1.67 4 1.34 4 1 4 Z " fill="#262626" transform="translate(192,57)"/>
<path d="M0 0 C2.97 0 5.94 0 9 0 C9 0.99 9 1.98 9 3 C6.69 3 4.38 3 2 3 C2 4.32 2 5.64 2 7 C4.31 7 6.62 7 9 7 C9 7.66 9 8.32 9 9 C6.69 9 4.38 9 2 9 C2 10.65 2 12.3 2 14 C4.31 14 6.62 14 9 14 C9 14.66 9 15.32 9 16 C6.03 16 3.06 16 0 16 C0 10.72 0 5.44 0 0 Z " fill="#222222" transform="translate(139,57)"/>
<path d="M0 0 C4.29 0 8.58 0 13 0 C13 0.99 13 1.98 13 3 C11.35 3 9.7 3 8 3 C8 7.29 8 11.58 8 16 C7.01 16 6.02 16 5 16 C5 12.04 5 8.08 5 4 C3.35 3.67 1.7 3.34 0 3 C0 2.01 0 1.02 0 0 Z " fill="#2C2C2C" transform="translate(203,57)"/>
<path d="M0 0 C4.29 0 8.58 0 13 0 C13 0.99 13 1.98 13 3 C11.35 3.33 9.7 3.66 8 4 C8 7.63 8 11.26 8 15 C7.01 15.33 6.02 15.66 5 16 C5 11.71 5 7.42 5 3 C3.35 3 1.7 3 0 3 C0 2.01 0 1.02 0 0 Z " fill="#3E3E3E" transform="translate(122,57)"/>
<path d="M0 0 C4.62 0 9.24 0 14 0 C14 0.99 14 1.98 14 3 C12.02 3 10.04 3 8 3 C8 7.29 8 11.58 8 16 C7.34 16 6.68 16 6 16 C6 11.71 6 7.42 6 3 C4.35 3 2.7 3 1 3 C0.67 2.01 0.34 1.02 0 0 Z " fill="#2A2A2A" transform="translate(354,57)"/>
<path d="M0 0 C0.66 0 1.32 0 2 0 C2 2.97 2 5.94 2 9 C-1.63 9 -5.26 9 -9 9 C-9.33 7.35 -9.66 5.7 -10 4 C-6.59437148 3.22157062 -3.49234244 2.90021879 0 3 C0 2.01 0 1.02 0 0 Z M-2 4 C-2 5.32 -2 6.64 -2 8 C-1.34 8 -0.68 8 0 8 C0 6.68 0 5.36 0 4 C-0.66 4 -1.32 4 -2 4 Z " fill="#212121" transform="translate(397,95)"/>
<path d="M0 0 C4.62 0 9.24 0 14 0 C14 1.98 14 3.96 14 6 C13.34 6 12.68 6 12 6 C11.67 5.01 11.34 4.02 11 3 C10.67 3.99 10.34 4.98 10 6 C9.01 6 8.02 6 7 6 C6.67 5.01 6.34 4.02 6 3 C5.67 3.99 5.34 4.98 5 6 C3.35 6 1.7 6 0 6 C0 4.02 0 2.04 0 0 Z " fill="#212121" transform="translate(227,98)"/>
<path d="M0 0 C0.66 0 1.32 0 2 0 C2 4.62 2 9.24 2 14 C4.31 14 6.62 14 9 14 C9 14.66 9 15.32 9 16 C5.7 16 2.4 16 -1 16 C-1.02685095 13.52076199 -1.04676547 11.0418116 -1.0625 8.5625 C-1.07506836 7.50192383 -1.07506836 7.50192383 -1.08789062 6.41992188 C-1.09653588 4.61306441 -1.05220011 2.80612397 -1 1 C-0.67 0.67 -0.34 0.34 0 0 Z " fill="#232323" transform="translate(286,57)"/>
<path d="M0 0 C4.19161906 0 7.88857686 0.13443723 12 1 C12 2.65 12 4.3 12 6 C8.7 6 5.4 6 2 6 C2 6.99 2 7.98 2 9 C1.34 9 0.68 9 0 9 C0 6.03 0 3.06 0 0 Z M3 1 C2.67 2.32 2.34 3.64 2 5 C2.66 5 3.32 5 4 5 C3.67 3.68 3.34 2.36 3 1 Z " fill="#212121" transform="translate(178,98)"/>
<path d="M0 0 C4 0 8 0 12 0 C12 1.98 12 3.96 12 6 C9.36 6 6.72 6 4 6 C3.67 4.68 3.34 3.36 3 2 C2.67 3.32 2.34 4.64 2 6 C1.34 6 0.68 6 0 6 C0 4.02 0 2.04 0 0 Z " fill="#212121" transform="translate(280,98)"/>
<path d="M0 0 C0.66 0 1.32 0 2 0 C2.66 1.32 3.32 2.64 4 4 C4.66 2.68 5.32 1.36 6 0 C6.66 0 7.32 0 8 0 C8 2.97 8 5.94 8 9 C5 9 2 9 -1 9 C-0.67 6.03 -0.34 3.06 0 0 Z " fill="#212121" transform="translate(2,95)"/>
<path d="M0 0 C2.8125 1.375 2.8125 1.375 4.1875 3.5 C4.39375 4.11875 4.6 4.7375 4.8125 5.375 C3.8225 5.705 2.8325 6.035 1.8125 6.375 C1.1525 5.385 0.4925 4.395 -0.1875 3.375 C-3.27115871 3.1247843 -3.27115871 3.1247843 -6.1875 3.375 C-6.1875 6.345 -6.1875 9.315 -6.1875 12.375 C-7.1775 12.87 -7.1775 12.87 -8.1875 13.375 C-8.1875 9.415 -8.1875 5.455 -8.1875 1.375 C-3.1875 -0.625 -3.1875 -0.625 0 0 Z " fill="#616161" transform="translate(394.1875,57.625)"/>
<path d="M0 0 C3.26460973 1.80412643 4.88929795 2.83394693 7 6 C6.916064 9.94499213 6.46631678 11.52108007 3.6875 14.375 C1 16 1 16 -3 16 C-3 15.34 -3 14.68 -3 14 C-1.02 13.01 0.96 12.02 3 11 C3 9.02 3 7.04 3 5 C1.68 4.34 0.36 3.68 -1 3 C-0.67 2.01 -0.34 1.02 0 0 Z " fill="#262626" transform="translate(237,57)"/>
<path d="M0 0 C3.96 0 7.92 0 12 0 C10.68 2.97 9.36 5.94 8 9 C7.34 9 6.68 9 6 9 C6 7.02 6 5.04 6 3 C5.67 3.99 5.34 4.98 5 6 C4.34 6 3.68 6 3 6 C2.67 4.68 2.34 3.36 2 2 C1.34 3.32 0.68 4.64 0 6 C0 4.02 0 2.04 0 0 Z " fill="#212121" transform="translate(191,98)"/>
<path d="M0 0 C1.98 0.99 1.98 0.99 4 2 C4.33 1.34 4.66 0.68 5 0 C5.66 0 6.32 0 7 0 C7 2.97 7 5.94 7 9 C6.01 8.67 5.02 8.34 4 8 C3.67 7.34 3.34 6.68 3 6 C2.67 6.99 2.34 7.98 2 9 C1.34 9 0.68 9 0 9 C0 6.03 0 3.06 0 0 Z " fill="#212121" transform="translate(219,95)"/>
<path d="M0 0 C0.99 0.33 1.98 0.66 3 1 C3 5.95 3 10.9 3 16 C2.01 16 1.02 16 0 16 C0 10.72 0 5.44 0 0 Z " fill="#333333" transform="translate(348,57)"/>
<path d="M0 0 C0.66 0 1.32 0 2 0 C2 4.62 2 9.24 2 14 C4.31 14 6.62 14 9 14 C9 14.66 9 15.32 9 16 C6.03 16 3.06 16 0 16 C0 10.72 0 5.44 0 0 Z " fill="#252525" transform="translate(308,57)"/>
<path d="M0 0 C2.97 0 5.94 0 9 0 C9 0.99 9 1.98 9 3 C9.99 3.66 10.98 4.32 12 5 C11.67 5.99 11.34 6.98 11 8 C10.34 8 9.68 8 9 8 C9 7.34 9 6.68 9 6 C6.03 6 3.06 6 0 6 C0 4.02 0 2.04 0 0 Z M2 1 C1.67 1.66 1.34 2.32 1 3 C1.33 3.66 1.66 4.32 2 5 C3.32 4.67 4.64 4.34 6 4 C5.67 3.01 5.34 2.02 5 1 C4.01 1 3.02 1 2 1 Z " fill="#212121" transform="translate(96,98)"/>
<path d="M0 0 C0.66 0 1.32 0 2 0 C2 0.99 2 1.98 2 3 C2.99 3 3.98 3 5 3 C5 4.98 5 6.96 5 9 C4.34 7.68 3.68 6.36 3 5 C2.67 6.32 2.34 7.64 2 9 C-0.31 9 -2.62 9 -5 9 C-5 7.02 -5 5.04 -5 3 C-3.35 3 -1.7 3 0 3 C0 2.01 0 1.02 0 0 Z M-3 4 C-3.33 4.66 -3.66 5.32 -4 6 C-3.67 6.66 -3.34 7.32 -3 8 C-2.01 8 -1.02 8 0 8 C0 6.68 0 5.36 0 4 C-0.99 4 -1.98 4 -3 4 Z " fill="#212121" transform="translate(29,95)"/>
<path d="M0 0 C2.64 0 5.28 0 8 0 C8 1.98 8 3.96 8 6 C5.36 6 2.72 6 0 6 C0 4.02 0 2.04 0 0 Z M5 1 C5 2.32 5 3.64 5 5 C5.66 4.67 6.32 4.34 7 4 C6.67 3.01 6.34 2.02 6 1 C5.67 1 5.34 1 5 1 Z " fill="#212121" transform="translate(335,98)"/>
<path d="M0 0 C0.99 0.33 1.98 0.66 3 1 C1.68 1.33 0.36 1.66 -1 2 C-0.65555119 4.47266765 -0.65555119 4.47266765 0 7 C0.66 7.33 1.32 7.66 2 8 C2 7.34 2 6.68 2 6 C1.34 6 0.68 6 0 6 C0 5.34 0 4.68 0 4 C1.32 4 2.64 4 4 4 C4 5.65 4 7.3 4 9 C2.02 9 0.04 9 -2 9 C-2.66 7.35 -3.32 5.7 -4 4 C-2.68 2.68 -1.36 1.36 0 0 Z " fill="#212121" transform="translate(123,95)"/>
<path d="M0 0 C0.66 0 1.32 0 2 0 C2 4.29 2 8.58 2 13 C1.01 13 0.02 13 -1 13 C-1.02686553 11.02090602 -1.04633375 9.04171029 -1.0625 7.0625 C-1.07410156 5.96035156 -1.08570313 4.85820313 -1.09765625 3.72265625 C-1 1 -1 1 0 0 Z " fill="#4F4F4F" transform="translate(209,60)"/>
<path d="M0 0 C6.41868512 -0.3633218 6.41868512 -0.3633218 9 1.25 C10 3 10 3 9.6875 5.1875 C9.3471875 6.0846875 9.3471875 6.0846875 9 7 C9 6.01 9 5.02 9 4 C6.03 3.505 6.03 3.505 3 3 C3 4.32 3 5.64 3 7 C2.34 7 1.68 7 1 7 C0.67 4.69 0.34 2.38 0 0 Z " fill="#282828" transform="translate(152,57)"/>
<path d="M0 0 C2.97 0 5.94 0 9 0 C9 1.98 9 3.96 9 6 C8.34 4.68 7.68 3.36 7 2 C6.67 3.32 6.34 4.64 6 6 C5.34 6 4.68 6 4 6 C4 4.68 4 3.36 4 2 C3.34 2 2.68 2 2 2 C2 3.32 2 4.64 2 6 C1.34 6 0.68 6 0 6 C0 4.02 0 2.04 0 0 Z " fill="#212121" transform="translate(168,98)"/>
<path d="M0 0 C2.97 0 5.94 0 9 0 C9 1.98 9 3.96 9 6 C8.34 6 7.68 6 7 6 C6.67 4.68 6.34 3.36 6 2 C5.34 3.32 4.68 4.64 4 6 C3.67 4.68 3.34 3.36 3 2 C2.67 3.32 2.34 4.64 2 6 C1.34 6 0.68 6 0 6 C0 4.02 0 2.04 0 0 Z " fill="#212121" transform="translate(371,98)"/>
<path d="M0 0 C1.32 0.33 2.64 0.66 4 1 C3.67 4.96 3.34 8.92 3 13 C2.34 13 1.68 13 1 13 C-0.32229189 10.35541621 -0.09677194 8.32238699 -0.0625 5.375 C-0.05347656 4.37210937 -0.04445312 3.36921875 -0.03515625 2.3359375 C-0.02355469 1.56507812 -0.01195312 0.79421875 0 0 Z " fill="#191919" transform="translate(167,60)"/>
<path d="M0 0 C6.15234375 -0.09765625 6.15234375 -0.09765625 8 0 C9 1 9 1 9.0625 3.5625 C9.041875 4.366875 9.02125 5.17125 9 6 C8.34 6 7.68 6 7 6 C6.67 4.68 6.34 3.36 6 2 C5.67 3.32 5.34 4.64 5 6 C4.34 6 3.68 6 3 6 C2.67 4.68 2.34 3.36 2 2 C1.34 3.32 0.68 4.64 0 6 C0 4.02 0 2.04 0 0 Z " fill="#212121" transform="translate(315,98)"/>
<path d="M0 0 C0.99 0.33 1.98 0.66 3 1 C3.73046875 2.84765625 3.73046875 2.84765625 4.1875 5.0625 C4.34605469 5.79597656 4.50460938 6.52945313 4.66796875 7.28515625 C4.83232422 8.13400391 4.83232422 8.13400391 5 9 C4.34 9 3.68 9 3 9 C3 8.34 3 7.68 3 7 C2.01 7 1.02 7 0 7 C0 7.66 0 8.32 0 9 C-0.66 9 -1.32 9 -2 9 C-1.34 6.03 -0.68 3.06 0 0 Z " fill="#212121" transform="translate(112,95)"/>
<path d="M0 0 C2.475 0.495 2.475 0.495 5 1 C5.33 1.66 5.66 2.32 6 3 C4.68 3 3.36 3 2 3 C1.67 9.93 1.34 16.86 1 24 C0.67 24 0.34 24 0 24 C0 16.08 0 8.16 0 0 Z " fill="#2F2F2F" transform="translate(357,24)"/>
<path d="M0 0 C1.65 0 3.3 0 5 0 C5.33 1.65 5.66 3.3 6 5 C4.68 5.33 3.36 5.66 2 6 C2 6.99 2 7.98 2 9 C1.34 9 0.68 9 0 9 C0 6.03 0 3.06 0 0 Z M3 1 C2.67 2.32 2.34 3.64 2 5 C2.66 5 3.32 5 4 5 C3.67 3.68 3.34 2.36 3 1 Z " fill="#212121" transform="translate(145,98)"/>
<path d="M0 0 C2.97 0 5.94 0 9 0 C9 0.99 9 1.98 9 3 C7.02 3 5.04 3 3 3 C2.67 4.32 2.34 5.64 2 7 C1.34 4.69 0.68 2.38 0 0 Z " fill="#2C2C2C" transform="translate(371,57)"/>
<path d="M0 0 C3.44428265 1.44781793 5.36130962 3.27694609 7.75 6.125 C8.36359375 6.84945312 8.9771875 7.57390625 9.609375 8.3203125 C10.29773438 9.15175781 10.29773438 9.15175781 11 10 C10.34 10.66 9.68 11.32 9 12 C7.82739389 10.71372289 6.6620717 9.42080217 5.5 8.125 C4.8503125 7.40570313 4.200625 6.68640625 3.53125 5.9453125 C2 4 2 4 2 2 C1.34 2 0.68 2 0 2 C0 1.34 0 0.68 0 0 Z " fill="#262626" transform="translate(249,58)"/>
<path d="M0 0 C0.66 0 1.32 0 2 0 C2 5.28 2 10.56 2 16 C1.34 16 0.68 16 0 16 C0 10.72 0 5.44 0 0 Z " fill="#272727" transform="translate(220,57)"/>
<path d="M0 0 C0.66 0 1.32 0 2 0 C2 5.28 2 10.56 2 16 C1.34 16 0.68 16 0 16 C0 10.72 0 5.44 0 0 Z " fill="#242424" transform="translate(321,57)"/>
<path d="M0 0 C0.66 0 1.32 0 2 0 C2 5.28 2 10.56 2 16 C1.34 16 0.68 16 0 16 C0 10.72 0 5.44 0 0 Z " fill="#262626" transform="translate(96,57)"/>
<path d="M0 0 C0.66 0 1.32 0 2 0 C2.33 2.31 2.66 4.62 3 7 C0.92446352 7.5534764 -0.84365964 8 -3 8 C-3 6.02 -3 4.04 -3 2 C-2.01 2 -1.02 2 0 2 C0 1.34 0 0.68 0 0 Z " fill="#212121" transform="translate(384,96)"/>
<path d="M0 0 C1.65 0 3.3 0 5 0 C5 0.66 5 1.32 5 2 C4.01 2 3.02 2 2 2 C2 2.66 2 3.32 2 4 C2.99 4 3.98 4 5 4 C5 4.66 5 5.32 5 6 C4.01 6 3.02 6 2 6 C2 6.99 2 7.98 2 9 C1.34 9 0.68 9 0 9 C0 6.03 0 3.06 0 0 Z " fill="#212121" transform="translate(251,95)"/>
<path d="M0 0 C2.97 0 5.94 0 9 0 C9 0.99 9 1.98 9 3 C6.69 3 4.38 3 2 3 C1.67 4.32 1.34 5.64 1 7 C0.67 4.69 0.34 2.38 0 0 Z " fill="#2D2D2D" transform="translate(139,57)"/>
<path d="M0 0 C0.33 0 0.66 0 1 0 C1 1.65 1 3.3 1 5 C3.31 5 5.62 5 8 5 C8 5.66 8 6.32 8 7 C4.7 7 1.4 7 -2 7 C-1.34 4.69 -0.68 2.38 0 0 Z " fill="#232323" transform="translate(373,66)"/>
<path d="M0 0 C1.65 0 3.3 0 5 0 C5 1.98 5 3.96 5 6 C3.35 6 1.7 6 0 6 C-1.125 2.25 -1.125 2.25 0 0 Z " fill="#212121" transform="translate(309,98)"/>
<path d="M0 0 C1.98 0 3.96 0 6 0 C6 1.98 6 3.96 6 6 C5.34 6 4.68 6 4 6 C3.67 4.68 3.34 3.36 3 2 C2.67 3.32 2.34 4.64 2 6 C1.34 6 0.68 6 0 6 C0 4.02 0 2.04 0 0 Z " fill="#212121" transform="translate(273,98)"/>
<path d="M0 0 C0.598125 0.226875 1.19625 0.45375 1.8125 0.6875 C-0.1675 1.6775 -0.1675 1.6775 -2.1875 2.6875 C-2.1875 4.0075 -2.1875 5.3275 -2.1875 6.6875 C-0.8675 7.3475 0.4525 8.0075 1.8125 8.6875 C-0.1675 8.6875 -2.1475 8.6875 -4.1875 8.6875 C-4.875 5.875 -4.875 5.875 -5.1875 2.6875 C-3.62441875 0.13720955 -3.00012909 -0.42858987 0 0 Z " fill="#212121" transform="translate(159.1875,95.3125)"/>
<path d="M0 0 C1.65 0.33 3.3 0.66 5 1 C5 2.65 5 4.3 5 6 C3.35 6 1.7 6 0 6 C-1.24546405 3.50907189 -0.7767578 2.58919267 0 0 Z " fill="#212121" transform="translate(81,98)"/>
<path d="M0 0 C0.66 0 1.32 0 2 0 C1.51020408 6.48979592 1.51020408 6.48979592 -0.9375 8.9375 C-3 10 -3 10 -5 10 C-5 9.01 -5 8.02 -5 7 C-4.01 6.67 -3.02 6.34 -2 6 C-0.77479736 2.99152582 -0.77479736 2.99152582 0 0 Z " fill="#2A2A2A" transform="translate(397,63)"/>
<path d="M0 0 C2.475 0.495 2.475 0.495 5 1 C5 2.65 5 4.3 5 6 C3.35 6 1.7 6 0 6 C0 4.02 0 2.04 0 0 Z " fill="#212121" transform="translate(351,98)"/>
<path d="M0 0 C1.66611905 -0.042721 3.33382885 -0.04063832 5 0 C6 1 6 1 6.0625 3.5625 C6.041875 4.366875 6.02125 5.17125 6 6 C5.34 6 4.68 6 4 6 C3.67 4.68 3.34 3.36 3 2 C2.67 3.32 2.34 4.64 2 6 C1.34 6 0.68 6 0 6 C0 4.02 0 2.04 0 0 Z " fill="#212121" transform="translate(344,98)"/>
<path d="M0 0 C2.475 0.495 2.475 0.495 5 1 C5 2.65 5 4.3 5 6 C3.35 6 1.7 6 0 6 C0 4.02 0 2.04 0 0 Z " fill="#212121" transform="translate(325,98)"/>
<path d="M0 0 C1.66611905 -0.042721 3.33382885 -0.04063832 5 0 C6 1 6 1 6.0625 3.5625 C6.041875 4.366875 6.02125 5.17125 6 6 C5.34 6 4.68 6 4 6 C3.67 4.68 3.34 3.36 3 2 C2.67 3.32 2.34 4.64 2 6 C1.34 6 0.68 6 0 6 C0 4.02 0 2.04 0 0 Z " fill="#212121" transform="translate(298,98)"/>
<path d="M0 0 C1.2065625 0.0309375 1.2065625 0.0309375 2.4375 0.0625 C2.4375 2.0425 2.4375 4.0225 2.4375 6.0625 C0.7875 6.0625 -0.8625 6.0625 -2.5625 6.0625 C-2.94468767 4.40635343 -3.27645102 2.73792976 -3.5625 1.0625 C-2.5625 0.0625 -2.5625 0.0625 0 0 Z M-0.5625 1.0625 C-0.5625 2.3825 -0.5625 3.7025 -0.5625 5.0625 C0.0975 4.7325 0.7575 4.4025 1.4375 4.0625 C1.1075 3.0725 0.7775 2.0825 0.4375 1.0625 C0.1075 1.0625 -0.2225 1.0625 -0.5625 1.0625 Z " fill="#212121" transform="translate(269.5625,97.9375)"/>
<path d="M0 0 C1.65 0 3.3 0 5 0 C5.38218767 1.65614657 5.71395102 3.32457024 6 5 C5 6 5 6 2.4375 6.0625 C1.2309375 6.0315625 1.2309375 6.0315625 0 6 C0 4.02 0 2.04 0 0 Z M2 1 C2 2.32 2 3.64 2 5 C2.66 4.67 3.32 4.34 4 4 C3.67 3.01 3.34 2.02 3 1 C2.67 1 2.34 1 2 1 Z " fill="#212121" transform="translate(206,98)"/>
<path d="M0 0 C1.2065625 0.0309375 1.2065625 0.0309375 2.4375 0.0625 C2.4375 2.0425 2.4375 4.0225 2.4375 6.0625 C0.7875 6.0625 -0.8625 6.0625 -2.5625 6.0625 C-2.94468767 4.40635343 -3.27645102 2.73792976 -3.5625 1.0625 C-2.5625 0.0625 -2.5625 0.0625 0 0 Z M-0.5625 1.0625 C-0.5625 2.3825 -0.5625 3.7025 -0.5625 5.0625 C0.0975 4.7325 0.7575 4.4025 1.4375 4.0625 C1.1075 3.0725 0.7775 2.0825 0.4375 1.0625 C0.1075 1.0625 -0.2225 1.0625 -0.5625 1.0625 Z " fill="#212121" transform="translate(164.5625,97.9375)"/>
<path d="M0 0 C1.2065625 0.0309375 1.2065625 0.0309375 2.4375 0.0625 C2.4375 2.0425 2.4375 4.0225 2.4375 6.0625 C0.7875 6.0625 -0.8625 6.0625 -2.5625 6.0625 C-2.94468767 4.40635343 -3.27645102 2.73792976 -3.5625 1.0625 C-2.5625 0.0625 -2.5625 0.0625 0 0 Z M-0.5625 1.0625 C-0.5625 2.3825 -0.5625 3.7025 -0.5625 5.0625 C0.0975 4.7325 0.7575 4.4025 1.4375 4.0625 C1.1075 3.0725 0.7775 2.0825 0.4375 1.0625 C0.1075 1.0625 -0.2225 1.0625 -0.5625 1.0625 Z " fill="#212121" transform="translate(134.5625,97.9375)"/>
<path d="M0 0 C1.66611905 -0.042721 3.33382885 -0.04063832 5 0 C6 1 6 1 6.0625 3.5625 C6.041875 4.366875 6.02125 5.17125 6 6 C5.34 6 4.68 6 4 6 C3.67 4.68 3.34 3.36 3 2 C2.67 3.32 2.34 4.64 2 6 C1.34 6 0.68 6 0 6 C0 4.02 0 2.04 0 0 Z " fill="#212121" transform="translate(17,98)"/>
<path d="M0 0 C1.65 0 3.3 0 5 0 C5 1.98 5 3.96 5 6 C3.35 6 1.7 6 0 6 C0 4.02 0 2.04 0 0 Z " fill="#212121" transform="translate(11,98)"/>
<path d="M0 0 C0.33 0 0.66 0 1 0 C1 2.64 1 5.28 1 8 C2.32 8 3.64 8 5 8 C5 6.35 5 4.7 5 3 C5.66 3 6.32 3 7 3 C7 4.98 7 6.96 7 9 C4.69 9 2.38 9 0 9 C0 6.03 0 3.06 0 0 Z " fill="#212121" transform="translate(363,95)"/>
<path d="M0 0 C0.66 0 1.32 0 2 0 C2 1.65 2 3.3 2 5 C2.66 5 3.32 5 4 5 C4 3.35 4 1.7 4 0 C4.66 0 5.32 0 6 0 C6 1.98 6 3.96 6 6 C4.33388095 6.042721 2.66617115 6.04063832 1 6 C0 5 0 5 -0.0625 2.4375 C-0.041875 1.633125 -0.02125 0.82875 0 0 Z " fill="#212121" transform="translate(138,98)"/>
<path d="M0 0 C0.33 0.99 0.66 1.98 1 3 C0.34 3 -0.32 3 -1 3 C-0.67 3.99 -0.34 4.98 0 6 C-1.3125 8.6875 -1.3125 8.6875 -3 11 C-3.66 11 -4.32 11 -5 11 C-4.46884894 6.48521602 -2.63379708 3.65333143 0 0 Z " fill="#232323" transform="translate(191,62)"/>
<path d="M0 0 C1.98 0.495 1.98 0.495 4 1 C3.67 1.99 3.34 2.98 3 4 C2.65179959 5.66362417 2.31595508 7.32995171 2 9 C1.34 9 0.68 9 0 9 C-1.125 3.375 -1.125 3.375 0 0 Z " fill="#212121" transform="translate(213,95)"/>
<path d="M0 0 C-0.33 0.99 -0.66 1.98 -1 3 C-4.5625 4.1875 -4.5625 4.1875 -8 5 C-8 4.01 -8 3.02 -8 2 C-4.77208445 -0.1519437 -3.71599191 -0.20086443 0 0 Z " fill="#343434" transform="translate(237,57)"/>
<path d="M0 0 C1.65 0 3.3 0 5 0 C5 1.98 5 3.96 5 6 C4.34 6 3.68 6 3 6 C2.67 4.68 2.34 3.36 2 2 C1.34 3.32 0.68 4.64 0 6 C0 4.02 0 2.04 0 0 Z " fill="#212121" transform="translate(242,98)"/>
<path d="M0 0 C1.65 0 3.3 0 5 0 C5 1.98 5 3.96 5 6 C4.34 6 3.68 6 3 6 C2.67 4.68 2.34 3.36 2 2 C1.34 3.32 0.68 4.64 0 6 C0 4.02 0 2.04 0 0 Z " fill="#212121" transform="translate(87,98)"/>
<path d="M0 0 C0.66 0 1.32 0 2 0 C2.33 2.31 2.66 4.62 3 7 C2.01 7.33 1.02 7.66 0 8 C-1.125 2.25 -1.125 2.25 0 0 Z " fill="#212121" transform="translate(331,96)"/>
<path d="M0 0 C0.66 0 1.32 0 2 0 C2.33 2.31 2.66 4.62 3 7 C2.01 7.33 1.02 7.66 0 8 C-1.125 2.25 -1.125 2.25 0 0 Z " fill="#212121" transform="translate(305,96)"/>
<path d="M0 0 C2.475 0.495 2.475 0.495 5 1 C5 1.66 5 2.32 5 3 C4.34 3 3.68 3 3 3 C3 4.32 3 5.64 3 7 C2.34 7 1.68 7 1 7 C0.67 4.69 0.34 2.38 0 0 Z " fill="#545454" transform="translate(152,57)"/>
<path d="M0 0 C0.66 0 1.32 0 2 0 C2 2.97 2 5.94 2 9 C1.34 9 0.68 9 0 9 C0 6.03 0 3.06 0 0 Z " fill="#212121" transform="translate(357,95)"/>
<path d="M0 0 C0.66 0 1.32 0 2 0 C2 2.97 2 5.94 2 9 C1.34 9 0.68 9 0 9 C0 6.03 0 3.06 0 0 Z " fill="#212121" transform="translate(295,95)"/>
<path d="M0 0 C0.66 0 1.32 0 2 0 C2 2.97 2 5.94 2 9 C1.34 9 0.68 9 0 9 C0 6.03 0 3.06 0 0 Z " fill="#212121" transform="translate(257,95)"/>
<path d="M0 0 C0.99 1.32 1.98 2.64 3 4 C3.66 2.68 4.32 1.36 5 0 C5 1.98 5 3.96 5 6 C3.35 6 1.7 6 0 6 C0 4.02 0 2.04 0 0 Z " fill="#212121" transform="translate(260,98)"/>
<path d="M0 0 C0.99 0.33 1.98 0.66 3 1 C2.34 2.65 1.68 4.3 1 6 C0.01 6 -0.98 6 -2 6 C-1.34 4.02 -0.68 2.04 0 0 Z " fill="#303030" transform="translate(192,57)"/>
<path d="M0 0 C0.99 0.33 1.98 0.66 3 1 C2.67 2.65 2.34 4.3 2 6 C1.34 6 0.68 6 0 6 C0 4.02 0 2.04 0 0 Z " fill="#212121" transform="translate(56,98)"/>
<path d="M0 0 C0.66 0 1.32 0 2 0 C2 1.98 2 3.96 2 6 C1.34 6 0.68 6 0 6 C0 4.02 0 2.04 0 0 Z " fill="#212121" transform="translate(93,98)"/>
<path d="M0 0 C0.99 0.33 1.98 0.66 3 1 C2.34 2.65 1.68 4.3 1 6 C0.67 6 0.34 6 0 6 C0 4.02 0 2.04 0 0 Z " fill="#212121" transform="translate(128,98)"/>
<path d="M0 0 C0.66 0.66 1.32 1.32 2 2 C1.01 1.67 0.02 1.34 -1 1 C-0.67 0.67 -0.34 0.34 0 0 Z " fill="#212121" transform="translate(106,98)"/>
<path d="M0 0 C0.66 0.66 1.32 1.32 2 2 C1.34 2 0.68 2 0 2 C0 1.34 0 0.68 0 0 Z " fill="#212121" transform="translate(381,95)"/>
<path d="M0 0 C0.66 0.66 1.32 1.32 2 2 C1.34 2 0.68 2 0 2 C0 1.34 0 0.68 0 0 Z " fill="#212121" transform="translate(335,95)"/>
<path d="M0 0 C0.66 0.66 1.32 1.32 2 2 C1.34 2 0.68 2 0 2 C0 1.34 0 0.68 0 0 Z " fill="#212121" transform="translate(277,95)"/>
<path d="M0 0 C0.66 0.66 1.32 1.32 2 2 C1.34 2 0.68 2 0 2 C0 1.34 0 0.68 0 0 Z " fill="#212121" transform="translate(239,95)"/>
<path d="M0 0 C0.33 0.66 0.66 1.32 1 2 C0.34 1.67 -0.32 1.34 -1 1 C-0.67 0.67 -0.34 0.34 0 0 Z " fill="#212121" transform="translate(369,95)"/>
<path d="M0 0 C0.33 0.66 0.66 1.32 1 2 C0.34 1.67 -0.32 1.34 -1 1 C-0.67 0.67 -0.34 0.34 0 0 Z " fill="#212121" transform="translate(94,95)"/>
</svg>
