<?xml version="1.0" encoding="UTF-8"?>
<svg version="1.1" xmlns="http://www.w3.org/2000/svg" width="225" height="225">
<path d="M0 0 C74.25 0 148.5 0 225 0 C225 74.25 225 148.5 225 225 C150.75 225 76.5 225 0 225 C0 150.75 0 76.5 0 0 Z " fill="#FEFEFE" transform="translate(0,0)"/>
<path d="M0 0 C6.20722892 -0.09959145 12.41398288 -0.17180805 18.62182617 -0.21972656 C20.72933057 -0.23972278 22.83678034 -0.26692893 24.9440918 -0.30175781 C41.10498594 -0.56198533 53.29775367 0.00253574 65.6015625 11.49609375 C66.76014966 12.63849952 67.88485136 13.81515457 69 15 C69.45375 13.824375 69.9075 12.64875 70.375 11.4375 C70.75785156 10.44556641 70.75785156 10.44556641 71.1484375 9.43359375 C72.23343413 6.33289238 73.09752681 3.15865617 74 0 C87.2 0 100.4 0 114 0 C112.79154806 6.0422597 111.67559864 11.49306283 109.87109375 17.28515625 C109.67653091 17.9123204 109.48196808 18.53948456 109.2815094 19.18565369 C108.87637048 20.4877239 108.46881168 21.78904362 108.05883789 23.08959961 C107.4293427 25.08840144 106.80889743 27.08985996 106.18945312 29.09179688 C103.14140678 38.85859322 103.14140678 38.85859322 102 40 C100.14630389 40.08737645 98.28932459 40.10698153 96.43359375 40.09765625 C95.30888672 40.09443359 94.18417969 40.09121094 93.02539062 40.08789062 C91.84138672 40.07951172 90.65738281 40.07113281 89.4375 40.0625 C88.24962891 40.05798828 87.06175781 40.05347656 85.83789062 40.04882812 C82.89187774 40.03699675 79.94596319 40.02051287 77 40 C76.67 42.31 76.34 44.62 76 47 C83.92 47 91.84 47 100 47 C96.04510009 60.40271637 91.90069158 73.73924116 87.6875 87.0625 C87.27933044 88.35344574 87.27933044 88.35344574 86.86291504 89.67047119 C86.07974691 92.14637857 85.29596101 94.62208891 84.51171875 97.09765625 C84.27339828 97.8500206 84.03507782 98.60238495 83.78953552 99.37754822 C82.87593536 102.25749021 81.95545949 105.13362154 81 108 C67.8 108 54.6 108 41 108 C42.83155135 100.67379462 44.60643124 93.77305622 47.1875 86.75 C47.46013672 85.99332031 47.73277344 85.23664063 48.01367188 84.45703125 C48.67057745 82.6361351 49.33448981 80.81776894 50 79 C49.41476563 79.20496094 48.82953125 79.40992187 48.2265625 79.62109375 C39.24079753 82.44095092 30.33920847 82.70204945 21 83 C20.82871582 83.54414551 20.65743164 84.08829102 20.48095703 84.64892578 C19.69615378 87.14111327 18.91058284 89.63305815 18.125 92.125 C17.85558594 92.9809375 17.58617187 93.836875 17.30859375 94.71875 C17.04433594 95.55664062 16.78007813 96.39453125 16.5078125 97.2578125 C16.26691895 98.0223877 16.02602539 98.78696289 15.77783203 99.57470703 C14.87473802 102.39056891 13.9351287 105.19461389 13 108 C-2.18 108 -17.36 108 -33 108 C-29.28904977 94.53870995 -25.59356101 81.18550403 -21 68 C-17.78582547 58.67993405 -14.90643928 49.32726495 -12.23291016 39.84057617 C-10.36645997 33.23128067 -8.38458137 26.67084721 -6.30664062 20.12524414 C-4.97470079 15.92715807 -3.65973642 11.72385981 -2.34765625 7.51953125 C-2.120177 6.79109009 -1.89269775 6.06264893 -1.6583252 5.31213379 C-1.10540116 3.54146904 -0.55267901 1.77074125 0 0 Z " fill="#0360A6" transform="translate(81,47)"/>
<path d="M0 0 C0.79849365 -0.00570007 1.5969873 -0.01140015 2.41967773 -0.01727295 C4.117825 -0.02674386 5.81599083 -0.03326519 7.51416016 -0.03710938 C10.0866025 -0.04673138 12.65821704 -0.07769824 15.23046875 -0.109375 C16.88280777 -0.11591344 18.5351525 -0.1211606 20.1875 -0.125 C20.94724121 -0.1373468 21.70698242 -0.1496936 22.48974609 -0.16241455 C32.84090056 -0.12025618 40.50258393 3.7842353 47.8515625 10.8671875 C54.36055448 17.88920348 55.6451593 24.87519391 55.53808594 34.20556641 C55.13040463 44.74388265 51.16844465 50.75617119 44.34375 58.5625 C35.70947004 66.38712949 26.15199025 68.09908595 14.875 68.078125 C8.56375 68.14 8.56375 68.14 2.125 68.203125 C-0.515 76.783125 -3.155 85.363125 -5.875 94.203125 C-16.105 94.203125 -26.335 94.203125 -36.875 94.203125 C-36.21163457 90.2229324 -35.57152729 86.88621167 -34.38452148 83.11572266 C-34.08428574 82.15517975 -33.78404999 81.19463684 -33.47471619 80.20498657 C-33.15177078 79.18601288 -32.82882538 78.16703918 -32.49609375 77.1171875 C-32.16456802 76.06026703 -31.8330423 75.00334656 -31.49147034 73.91439819 C-30.43556111 70.55111564 -29.37411068 67.18961174 -28.3125 63.828125 C-27.59403442 61.54308399 -26.87593131 59.25792898 -26.15820312 56.97265625 C-24.40200842 51.38125715 -22.63832706 45.79229886 -20.875 40.203125 C-8.005 40.203125 4.865 40.203125 18.125 40.203125 C18.455 37.893125 18.785 35.583125 19.125 33.203125 C6.915 33.203125 -5.295 33.203125 -17.875 33.203125 C-17.15239238 28.8674793 -16.34034728 25.11752923 -15.0625 20.96484375 C-14.70929688 19.81564453 -14.35609375 18.66644531 -13.9921875 17.48242188 C-13.62351562 16.29712891 -13.25484375 15.11183594 -12.875 13.890625 C-12.32199219 12.08368164 -12.32199219 12.08368164 -11.7578125 10.24023438 C-8.60732522 0.04714323 -8.60732522 0.04714323 0 0 Z " fill="#F9DF28" transform="translate(94.875,53.796875)"/>
<path d="M0 0 C12.21 0 24.42 0 37 0 C36.67 1.98 36.34 3.96 36 6 C23.46 6 10.92 6 -2 6 C-2 5.34 -2 4.68 -2 4 C-0.68 4 0.64 4 2 4 C2 3.34 2 2.68 2 2 C1.34 2 0.68 2 0 2 C0 1.34 0 0.68 0 0 Z " fill="#005EA9" transform="translate(77,87)"/>
<path d="M0 0 C0.33 0.66 0.66 1.32 1 2 C7.6 2 14.2 2 21 2 C21 2.33 21 2.66 21 3 C15.06 3.33 9.12 3.66 3 4 C1.68 8.62 0.36 13.24 -1 18 C-1.99 18 -2.98 18 -4 18 C-7.25601751 10.12253829 -7.25601751 10.12253829 -6.1875 5.4375 C-5.795625 4.633125 -5.40375 3.82875 -5 3 C-4.01 3 -3.02 3 -2 3 C-1.34 2.01 -0.68 1.02 0 0 Z " fill="#1B6EA8" transform="translate(99,126)"/>
<path d="M0 0 C4.55555556 0.55555556 4.55555556 0.55555556 6 2 C6.33 1.34 6.66 0.68 7 0 C7.99 0 8.98 0 10 0 C10 3.3 10 6.6 10 10 C9.01 10 8.02 10 7 10 C6.67 9.34 6.34 8.68 6 8 C5.34 8.66 4.68 9.32 4 10 C-0.55555556 9.44444444 -0.55555556 9.44444444 -2 8 C-2.1875 5.0625 -2.1875 5.0625 -2 2 C-1.34 1.34 -0.68 0.68 0 0 Z " fill="#B5B5B7" transform="translate(132,165)"/>
<path d="M0 0 C0.99 0 1.98 0 3 0 C3 0.99 3 1.98 3 3 C3.639375 3.144375 4.27875 3.28875 4.9375 3.4375 C7 4 7 4 8 5 C8.1875 7.9375 8.1875 7.9375 8 11 C7.34 11.66 6.68 12.32 6 13 C4.02 13 2.04 13 0 13 C0 8.71 0 4.42 0 0 Z " fill="#858689" transform="translate(97,162)"/>
<path d="M0 0 C1.98 0 3.96 0 6 0 C8 2 8 2 8.125 5.125 C8.08375 6.07375 8.0425 7.0225 8 8 C7.360625 8.268125 6.72125 8.53625 6.0625 8.8125 C3.66868314 9.88667752 3.66868314 9.88667752 3 13 C2.01 13 1.02 13 0 13 C0 8.71 0 4.42 0 0 Z " fill="#97989A" transform="translate(52,165)"/>
<path d="M0 0 C13.2 0 26.4 0 40 0 C40 0.99 40 1.98 40 3 C20.2 2.505 20.2 2.505 0 2 C0 1.34 0 0.68 0 0 Z " fill="#03579F" transform="translate(155,47)"/>
<path d="M0 0 C0.66 0 1.32 0 2 0 C2 4.29 2 8.58 2 13 C0.02 13 -1.96 13 -4 13 C-6.14915785 9.77626323 -6.38286803 8.73296326 -6 5 C-5.34 4.34 -4.68 3.68 -4 3 C-3.01 3 -2.02 3 -1 3 C-0.67 2.01 -0.34 1.02 0 0 Z " fill="#97989A" transform="translate(89,162)"/>
<path d="M0 0 C2.625 0.375 2.625 0.375 5 1 C5.80967438 3.91482778 6.21845993 5.46113217 5.0625 8.3125 C4.5365625 9.1478125 4.5365625 9.1478125 4 10 C-0.875 9.125 -0.875 9.125 -2 8 C-2.1875 5.0625 -2.1875 5.0625 -2 2 C-1.34 1.34 -0.68 0.68 0 0 Z " fill="#6D6D71" transform="translate(175,165)"/>
<path d="M0 0 C1.2065625 0.0309375 1.2065625 0.0309375 2.4375 0.0625 C3.0975 1.3825 3.7575 2.7025 4.4375 4.0625 C2.4575 3.4025 0.4775 2.7425 -1.5625 2.0625 C-1.5625 3.0525 -1.5625 4.0425 -1.5625 5.0625 C0.0875 5.3925 1.7375 5.7225 3.4375 6.0625 C4.0625 8.4375 4.0625 8.4375 4.4375 11.0625 C3.7775 11.7225 3.1175 12.3825 2.4375 13.0625 C-0.6875 12.6875 -0.6875 12.6875 -3.5625 12.0625 C-3.5625 11.0725 -3.5625 10.0825 -3.5625 9.0625 C-1.0875 9.5575 -1.0875 9.5575 1.4375 10.0625 C1.7675 9.4025 2.0975 8.7425 2.4375 8.0625 C0.4575 7.4025 -1.5225 6.7425 -3.5625 6.0625 C-3.605221 4.39638095 -3.60313832 2.72867115 -3.5625 1.0625 C-2.5625 0.0625 -2.5625 0.0625 0 0 Z " fill="#6B6C70" transform="translate(123.5625,161.9375)"/>
<path d="M0 0 C1.65 0.33 3.3 0.66 5 1 C5.80967438 3.91482778 6.21845993 5.46113217 5.0625 8.3125 C4.5365625 9.1478125 4.5365625 9.1478125 4 10 C2.35 9.67 0.7 9.34 -1 9 C-1.625 6.1875 -1.625 6.1875 -2 3 C-1.34 2.01 -0.68 1.02 0 0 Z " fill="#757679" transform="translate(146,165)"/>
<path d="M0 0 C2.93453261 0.36681658 3.86437246 0.86437246 6 3 C6 3.99 6 4.98 6 6 C5.01 6.33 4.02 6.66 3 7 C3.66 7 4.32 7 5 7 C4.67 7.99 4.34 8.98 4 10 C-0.875 9.125 -0.875 9.125 -2 8 C-2.1875 5.0625 -2.1875 5.0625 -2 2 C-1.34 1.34 -0.68 0.68 0 0 Z " fill="#79797D" transform="translate(76,165)"/>
<path d="M0 0 C2.875 -0.125 2.875 -0.125 6 0 C8 2 8 2 8.1953125 3.9453125 C8.13020833 5.96354167 8.06510417 7.98177083 8 10 C7.01 10 6.02 10 5 10 C5 7.36 5 4.72 5 2 C4.01 2.495 4.01 2.495 3 3 C2.34227572 6.02934491 2.34227572 6.02934491 2 9 C1.34 9 0.68 9 0 9 C0 6.03 0 3.06 0 0 Z " fill="#747478" transform="translate(154,165)"/>
<path d="M0 0 C0.99 0 1.98 0 3 0 C3.33 0.99 3.66 1.98 4 3 C4.66 2.01 5.32 1.02 6 0 C6.66 0 7.32 0 8 0 C7.01 3.96 6.02 7.92 5 12 C3.68 12.33 2.36 12.66 1 13 C1 12.34 1 11.68 1 11 C1.66 11 2.32 11 3 11 C2.01 7.37 1.02 3.74 0 0 Z " fill="#6C6E71" transform="translate(106,165)"/>
<path d="M0 0 C0.91644287 0.00523682 1.83288574 0.01047363 2.77709961 0.01586914 C3.76645508 0.0190918 4.75581055 0.02231445 5.77514648 0.02563477 C6.81606445 0.03401367 7.85698242 0.04239258 8.92944336 0.05102539 C10.49662109 0.05779297 10.49662109 0.05779297 12.09545898 0.06469727 C14.68600996 0.07652627 17.27644895 0.0930085 19.86694336 0.11352539 C19.86694336 0.77352539 19.86694336 1.43352539 19.86694336 2.11352539 C19.27155762 2.13858154 18.67617187 2.1636377 18.06274414 2.18945312 C15.372252 2.30530033 12.68211996 2.42807735 9.99194336 2.55102539 C9.05479492 2.5903418 8.11764648 2.6296582 7.15209961 2.67016602 C5.80825195 2.73300781 5.80825195 2.73300781 4.43725586 2.79711914 C3.60983887 2.83377686 2.78242187 2.87043457 1.92993164 2.90820312 C-0.19485093 2.99590866 -0.19485093 2.99590866 -2.13305664 4.11352539 C-2.46305664 3.12352539 -2.79305664 2.13352539 -3.13305664 1.11352539 C-2.13305664 0.11352539 -2.13305664 0.11352539 0 0 Z " fill="#30718A" transform="translate(99.133056640625,120.886474609375)"/>
<path d="M0 0 C2.625 0.375 2.625 0.375 5 1 C5 1.99 5 2.98 5 4 C3.68 3.67 2.36 3.34 1 3 C1.33 4.32 1.66 5.64 2 7 C2.99 6.67 3.98 6.34 5 6 C5 6.99 5 7.98 5 9 C2.6875 9.6875 2.6875 9.6875 0 10 C-1.875 8.875 -1.875 8.875 -3 7 C-2.75546876 3.65807308 -2.39456443 2.39456443 0 0 Z " fill="#7A7A7D" transform="translate(166,165)"/>
<path d="M0 0 C2.625 0.375 2.625 0.375 5 1 C5.33 1.99 5.66 2.98 6 4 C5.01 4 4.02 4 3 4 C3 3.34 3 2.68 3 2 C2.01 2.495 2.01 2.495 1 3 C1 4.32 1 5.64 1 7 C1.66 7.33 2.32 7.66 3 8 C3 7.34 3 6.68 3 6 C3.99 6 4.98 6 6 6 C5.34 7.32 4.68 8.64 4 10 C-0.875 9.125 -0.875 9.125 -2 8 C-2.1875 5.0625 -2.1875 5.0625 -2 2 C-1.34 1.34 -0.68 0.68 0 0 Z " fill="#6D6D72" transform="translate(132,165)"/>
<path d="M0 0 C1.67542976 0.28604898 3.34385343 0.61781233 5 1 C5 1.66 5 2.32 5 3 C3.68 2.67 2.36 2.34 1 2 C1 2.66 1 3.32 1 4 C2.32 4.33 3.64 4.66 5 5 C4.67 6.65 4.34 8.3 4 10 C1.5625 9.625 1.5625 9.625 -1 9 C-1.33 8.34 -1.66 7.68 -2 7 C0.475 7.495 0.475 7.495 3 8 C3 7.34 3 6.68 3 6 C1.68 5.67 0.36 5.34 -1 5 C-1 1 -1 1 0 0 Z " fill="#6D6E72" transform="translate(45,165)"/>
<path d="M0 0 C1.99954746 -0.04254356 4.00041636 -0.04080783 6 0 C7 1 7 1 7.09765625 3.06640625 C7.08605469 3.89011719 7.07445312 4.71382812 7.0625 5.5625 C7.05347656 6.38878906 7.04445313 7.21507812 7.03515625 8.06640625 C7.01775391 9.02353516 7.01775391 9.02353516 7 10 C6.34 10 5.68 10 5 10 C4.67 7.69 4.34 5.38 4 3 C3.67 3 3.34 3 3 3 C2.67 4.98 2.34 6.96 2 9 C1.34 9 0.68 9 0 9 C0 6.03 0 3.06 0 0 Z " fill="#636468" transform="translate(34,165)"/>
<path d="M0 0 C0.99 0 1.98 0 3 0 C3 3.3 3 6.6 3 10 C2.01 10 1.02 10 0 10 C0 6.7 0 3.4 0 0 Z " fill="#86868A" transform="translate(62,165)"/>
<path d="M0 0 C1.65 0 3.3 0 5 0 C5 0.99 5 1.98 5 3 C4.01 3.495 4.01 3.495 3 4 C2.34444881 6.52733235 2.34444881 6.52733235 2 9 C1.34 9 0.68 9 0 9 C0 6.03 0 3.06 0 0 Z " fill="#6A6A6E" transform="translate(67,165)"/>
<path d="M0 0 C2.475 0.495 2.475 0.495 5 1 C5.33 2.65 5.66 4.3 6 6 C4.02 6.33 2.04 6.66 0 7 C0.185625 6.21625 0.37125 5.4325 0.5625 4.625 C1.25962266 2.02910225 1.25962266 2.02910225 0 0 Z " fill="#919194" transform="translate(175,165)"/>
<path d="M0 0 C1.32 0.66 2.64 1.32 4 2 C4.33 1.34 4.66 0.68 5 0 C5.625 1.875 5.625 1.875 6 4 C5.34 4.66 4.68 5.32 4 6 C4 5.34 4 4.68 4 4 C2.02 4.99 2.02 4.99 0 6 C-0.38218767 4.34385343 -0.71395102 2.67542976 -1 1 C-0.67 0.67 -0.34 0.34 0 0 Z " fill="#F4F3F4" transform="translate(167,167)"/>
<path d="M0 0 C0.66 0 1.32 0 2 0 C2 3.96 2 7.92 2 12 C-0.19191368 9.80808632 -0.27869352 8.88522592 -1 6 C-1.66 5.34 -2.32 4.68 -3 4 C-2.01 4 -1.02 4 0 4 C0 2.68 0 1.36 0 0 Z " fill="#56575C" transform="translate(89,162)"/>
<path d="M0 0 C0.99 0.33 1.98 0.66 3 1 C2.67 2.32 2.34 3.64 2 5 C1.34 5 0.68 5 0 5 C0 6.65 0 8.3 0 10 C-0.99 10 -1.98 10 -3 10 C-2.01 6.7 -1.02 3.4 0 0 Z " fill="#1668A6" transform="translate(74,71)"/>
<path d="M0 0 C1.67542976 0.28604898 3.34385343 0.61781233 5 1 C5 1.99 5 2.98 5 4 C3.68 3.67 2.36 3.34 1 3 C0.67 3.99 0.34 4.98 0 6 C-0.66 6 -1.32 6 -2 6 C-1.125 1.125 -1.125 1.125 0 0 Z " fill="#6A6B6E" transform="translate(166,165)"/>
<path d="M0 0 C0.598125 0.350625 1.19625 0.70125 1.8125 1.0625 C1.8125 2.7125 1.8125 4.3625 1.8125 6.0625 C1.1525 6.0625 0.4925 6.0625 -0.1875 6.0625 C-0.290625 5.423125 -0.39375 4.78375 -0.5 4.125 C-0.8403125 3.1040625 -0.8403125 3.1040625 -1.1875 2.0625 C-2.1775 1.7325 -3.1675 1.4025 -4.1875 1.0625 C-4.5175 2.3825 -4.8475 3.7025 -5.1875 5.0625 C-5.1875 3.4125 -5.1875 1.7625 -5.1875 0.0625 C-2.1875 -0.9375 -2.1875 -0.9375 0 0 Z " fill="#5C5E62" transform="translate(58.1875,165.9375)"/>
<path d="M0 0 C1.65 0 3.3 0 5 0 C5.66 1.32 6.32 2.64 7 4 C5.02 3.34 3.04 2.68 1 2 C1 2.99 1 3.98 1 5 C0.34 5 -0.32 5 -1 5 C-0.67 3.35 -0.34 1.7 0 0 Z " fill="#5C5C61" transform="translate(121,162)"/>
<path d="M0 0 C1.32 0 2.64 0 4 0 C3.67 1.65 3.34 3.3 3 5 C0.5625 4.625 0.5625 4.625 -2 4 C-2.33 3.34 -2.66 2.68 -3 2 C-0.525 2.495 -0.525 2.495 2 3 C2 2.34 2 1.68 2 1 C1.34 0.67 0.68 0.34 0 0 Z " fill="#67696C" transform="translate(46,170)"/>
<path d="M0 0 C1.65 0.33 3.3 0.66 5 1 C5 1.99 5 2.98 5 4 C3.35 4 1.7 4 0 4 C0 2.68 0 1.36 0 0 Z " fill="#86878A" transform="translate(146,165)"/>
<path d="M0 0 C2 4 2 4 2 7 C-0.5 9.1875 -0.5 9.1875 -3 11 C-2.01 7.37 -1.02 3.74 0 0 Z " fill="#CCCE47" transform="translate(83,65)"/>
<path d="M0 0 C0.99 0 1.98 0 3 0 C2.34 1.32 1.68 2.64 1 4 C-1.4375 3.625 -1.4375 3.625 -4 3 C-4.33 2.34 -4.66 1.68 -5 1 C-2.525 1.495 -2.525 1.495 0 2 C0 1.34 0 0.68 0 0 Z " fill="#7B7C7F" transform="translate(135,171)"/>
<path d="M0 0 C-0.33 0.99 -0.66 1.98 -1 3 C-3.475 2.01 -3.475 2.01 -6 1 C-6.33 1.66 -6.66 2.32 -7 3 C-7 2.01 -7 1.02 -7 0 C-3.86650268 -1.04449911 -3.01031744 -0.93423645 0 0 Z " fill="#D3D3D4" transform="translate(126,170)"/>
</svg>
