<?xml version="1.0" standalone="no"?>
<!DOCTYPE svg PUBLIC "-//W3C//DTD SVG 20010904//EN"
 "http://www.w3.org/TR/2001/REC-SVG-20010904/DTD/svg10.dtd">
<svg version="1.0" xmlns="http://www.w3.org/2000/svg"
 width="1280.000000pt" height="666.000000pt" viewBox="0 0 1280.000000 666.000000"
 preserveAspectRatio="xMidYMid meet">

<g transform="translate(0.000000,666.000000) scale(0.100000,-0.100000)"
fill="#000000" stroke="none">
<path d="M6280 5803 c-442 -47 -805 -273 -982 -610 -89 -170 -125 -336 -115
-532 13 -256 105 -454 295 -633 140 -132 317 -238 612 -368 442 -195 539 -245
630 -327 28 -25 63 -66 78 -92 23 -40 27 -57 27 -126 0 -62 -5 -91 -23 -130
-61 -133 -201 -205 -397 -205 -118 0 -198 14 -322 55 -174 58 -362 168 -488
285 -35 33 -69 60 -74 60 -5 0 -36 -37 -68 -82 -33 -46 -130 -181 -216 -300
l-157 -218 73 -72 c202 -200 530 -369 847 -436 219 -47 486 -54 685 -17 522
95 880 464 936 965 45 397 -122 735 -476 966 -131 85 -254 146 -555 274 -297
127 -381 168 -466 231 -103 76 -152 166 -141 260 17 144 127 249 307 295 85
22 262 14 373 -16 170 -45 365 -149 494 -263 36 -32 67 -57 69 -55 1 2 81 151
177 331 l175 327 -66 61 c-251 235 -679 383 -1089 377 -59 0 -124 -3 -143 -5z"/>
<path d="M7975 5748 c-3 -7 -4 -834 -3 -1838 l3 -1825 665 -3 c701 -3 880 3
1055 39 541 110 868 448 917 951 37 382 -125 746 -409 922 l-59 36 68 69 c152
155 240 355 257 577 31 427 -151 760 -514 942 -97 48 -246 96 -375 118 -82 15
-197 18 -848 21 -617 4 -753 2 -757 -9z m1497 -706 c80 -32 148 -97 184 -174
26 -57 29 -73 29 -173 0 -124 -11 -171 -55 -237 -65 -97 -148 -129 -357 -136
l-153 -4 0 -334 0 -334 133 0 c257 -1 346 -27 453 -134 55 -55 76 -85 93 -130
44 -118 37 -267 -18 -383 -49 -102 -110 -158 -226 -204 -59 -23 -68 -24 -432
-27 l-373 -3 0 1151 0 1151 333 -3 c318 -3 334 -5 389 -26z"/>
<path d="M10985 5748 c-3 -7 -4 -834 -3 -1838 l3 -1825 408 -3 407 -2 0 1840
0 1840 -405 0 c-315 0 -407 -3 -410 -12z"/>
<path d="M10724 1559 c8 -21 29 -43 52 -56 21 -12 46 -37 56 -57 19 -38 38
-55 37 -34 0 7 -10 40 -22 72 -24 64 -53 92 -105 102 l-32 7 14 -34z"/>
<path d="M2740 1455 c0 -25 1 -25 90 -25 l90 0 0 -261 0 -260 33 3 32 3 3 258
2 257 90 0 c89 0 90 0 90 25 l0 25 -215 0 -215 0 0 -25z"/>
<path d="M3230 1195 l0 -285 30 0 30 0 0 140 c0 159 11 199 59 224 60 32 131
10 150 -45 6 -18 11 -96 11 -175 l0 -144 30 0 30 0 0 160 c0 169 -8 207 -48
243 -53 48 -159 40 -204 -15 l-28 -32 0 107 0 107 -30 0 -30 0 0 -285z"/>
<path d="M4270 1195 l0 -285 30 0 c28 0 30 3 30 37 l0 36 35 -36 c75 -77 205
-43 256 68 29 62 26 168 -6 232 -29 58 -55 78 -116 92 -59 13 -96 4 -135 -36
l-34 -34 0 106 0 105 -30 0 -30 0 0 -285z m241 79 c90 -46 90 -252 0 -298
-101 -53 -189 33 -179 174 8 114 90 171 179 124z"/>
<path d="M5540 1195 l0 -285 30 0 30 0 0 83 c0 69 3 87 18 100 10 10 23 17 28
17 5 0 45 -45 88 -100 75 -97 79 -100 118 -100 l40 0 -53 68 c-29 37 -69 87
-89 112 -20 25 -40 51 -45 59 -5 9 20 40 81 102 l89 89 -42 0 c-40 0 -46 -4
-130 -95 -48 -52 -91 -95 -95 -95 -5 0 -8 74 -8 165 l0 165 -30 0 -30 0 0
-285z"/>
<path d="M6798 1393 c-3 -46 -4 -48 -35 -51 -27 -3 -33 -8 -33 -27 0 -19 6
-24 33 -27 l32 -3 2 -145 c2 -80 5 -155 8 -168 7 -31 62 -62 108 -62 35 0 37
2 37 30 0 27 -3 30 -33 30 -54 0 -57 9 -57 172 l0 148 45 0 c41 0 45 2 45 25
0 23 -4 25 -45 25 l-45 0 0 50 c0 49 -1 50 -29 50 -28 0 -30 -2 -33 -47z"/>
<path d="M3805 1345 c-5 -2 -22 -6 -37 -9 -76 -17 -128 -103 -128 -211 0 -140
68 -216 192 -217 65 0 113 18 143 54 30 35 28 50 -5 58 -18 4 -31 -1 -50 -23
-32 -36 -90 -46 -142 -24 -42 18 -67 50 -75 101 l-6 36 157 0 156 0 0 39 c0
77 -38 149 -92 174 -35 15 -96 28 -113 22z m90 -77 c25 -20 55 -73 55 -98 0
-6 -46 -10 -125 -10 -138 0 -140 1 -110 61 34 65 127 89 180 47z"/>
<path d="M4855 1345 c-5 -2 -27 -6 -47 -9 -39 -7 -98 -54 -98 -79 0 -22 51
-32 62 -13 25 45 128 61 166 26 29 -27 39 -68 21 -86 -8 -7 -50 -19 -94 -25
-127 -17 -175 -53 -175 -130 0 -116 161 -169 252 -83 l28 28 0 -32 c0 -29 3
-32 30 -32 l30 0 0 163 c0 181 -9 217 -65 248 -30 17 -92 30 -110 24z m105
-308 c-22 -73 -133 -105 -185 -52 -57 56 -16 106 100 124 43 6 81 14 84 17 12
12 12 -52 1 -89z"/>
<path d="M5255 1335 c-22 -8 -46 -23 -54 -35 -19 -29 -31 -25 -31 10 0 27 -3
30 -30 30 l-30 0 2 -212 3 -213 33 -3 32 -3 0 156 0 157 34 34 c36 36 71 43
120 24 47 -17 56 -54 56 -220 l0 -150 30 0 30 0 0 163 c0 134 -3 168 -18 196
-33 66 -104 92 -177 66z"/>
<path d="M6036 1338 c-84 -18 -135 -87 -144 -194 -11 -145 65 -236 198 -236
66 0 106 18 144 63 21 25 24 34 14 40 -21 14 -58 10 -65 -6 -8 -22 -56 -45
-93 -45 -54 0 -97 27 -121 76 -34 72 -31 74 141 74 l150 0 0 45 c0 131 -98
211 -224 183z m103 -63 c28 -14 61 -68 61 -99 0 -14 -17 -16 -125 -16 -69 0
-125 2 -125 5 0 2 7 23 16 44 28 70 107 101 173 66z"/>
<path d="M6473 1343 c-13 -2 -36 -18 -53 -34 l-30 -31 0 31 c0 28 -3 31 -30
31 l-30 0 0 -215 0 -215 30 0 30 0 0 148 c0 127 3 151 19 178 21 34 78 60 112
51 16 -4 19 0 19 29 0 36 -7 39 -67 27z"/>
<path d="M7132 1338 c-120 -26 -180 -192 -118 -324 35 -76 86 -106 176 -106
112 1 180 83 180 217 0 156 -99 244 -238 213z m108 -63 c94 -49 92 -252 -2
-301 -76 -39 -169 16 -183 109 -11 75 3 127 45 169 42 43 88 50 140 23z"/>
<path d="M7775 1345 c-5 -2 -22 -6 -37 -9 -14 -3 -41 -18 -58 -32 -115 -97
-97 -313 32 -380 40 -21 138 -20 183 2 21 10 46 31 56 48 l19 31 -27 12 c-25
10 -30 9 -48 -12 -27 -31 -57 -45 -97 -45 -65 0 -128 62 -128 125 l0 25 155 0
155 0 0 28 c0 16 -7 51 -15 79 -17 55 -66 109 -110 118 -51 10 -70 13 -80 10z
m75 -70 c37 -19 60 -52 60 -87 l0 -28 -120 0 -120 0 0 24 c0 28 43 84 74 96
33 13 74 11 106 -5z"/>
<path d="M8565 1345 c-5 -2 -22 -6 -37 -9 -131 -29 -177 -261 -74 -374 34 -38
73 -53 136 -53 66 -1 120 20 150 59 26 32 25 39 -7 49 -23 8 -30 5 -53 -20
-33 -37 -101 -47 -149 -23 -38 20 -71 70 -71 109 l0 27 156 0 157 0 -6 55 c-7
70 -39 127 -86 153 -35 19 -96 34 -116 27z m74 -68 c29 -15 57 -53 65 -89 l6
-28 -125 0 c-138 0 -140 1 -110 61 31 58 108 85 164 56z"/>
<path d="M8963 1336 c-18 -8 -38 -24 -45 -35 -18 -29 -28 -26 -28 9 0 27 -3
30 -30 30 l-30 0 2 -212 3 -213 33 -3 32 -3 0 155 0 156 29 32 c22 25 37 32
72 34 41 2 44 4 44 30 0 24 -5 29 -25 31 -14 2 -39 -4 -57 -11z"/>
<path d="M10720 1325 l0 -25 110 0 110 0 0 -55 c0 -30 -5 -64 -12 -75 -19 -29
-7 -31 50 -10 64 24 158 26 190 4 28 -19 32 -71 5 -58 -10 4 -44 10 -77 12
-95 6 -184 -38 -212 -105 -44 -105 120 -184 255 -122 25 11 47 16 50 11 8 -12
47 -32 62 -32 16 0 7 275 -11 312 -20 42 -71 61 -149 55 -36 -2 -74 -8 -83
-12 -15 -6 -18 -1 -18 34 l0 41 365 0 365 0 0 25 0 25 -500 0 -500 0 0 -25z
m441 -281 c38 -19 37 -37 -4 -68 -50 -39 -105 -58 -168 -59 -88 -2 -110 26
-63 82 57 68 155 87 235 45z"/>
<path d="M8000 1337 c0 -7 149 -407 155 -417 3 -6 19 -10 34 -10 28 0 31 5 96
183 37 100 74 197 81 215 l13 33 -35 -3 -36 -3 -55 -160 c-31 -88 -59 -164
-63 -168 -4 -4 -34 69 -66 162 l-59 171 -32 0 c-18 0 -33 -2 -33 -3z"/>
<path d="M9075 1323 c4 -10 40 -107 80 -216 70 -191 73 -200 59 -232 -19 -46
-41 -65 -74 -65 -29 0 -49 -28 -35 -50 17 -28 111 2 138 43 10 15 59 140 111
279 l94 253 -31 3 c-16 2 -33 -1 -36 -7 -4 -5 -31 -82 -61 -170 -30 -89 -57
-161 -60 -161 -3 0 -32 77 -64 170 l-59 170 -34 0 c-29 0 -34 -3 -28 -17z"/>
<path d="M10780 1067 l0 -173 35 -17 35 -17 0 190 0 190 -35 0 -35 0 0 -173z"/>
<path d="M11428 1220 c-20 -11 -40 -24 -43 -30 -11 -17 -23 -11 -27 13 -2 18
-9 22 -38 22 l-35 0 -3 -167 -2 -167 29 -16 c17 -8 32 -15 34 -15 3 0 6 42 9
94 3 80 8 103 34 152 37 73 80 104 143 104 71 -1 101 -34 101 -114 0 -59 -13
-91 -62 -149 -22 -27 -39 -49 -37 -51 2 -1 20 -12 40 -24 34 -21 37 -21 52 -4
41 46 62 107 62 179 0 63 -3 76 -30 114 -55 77 -147 101 -227 59z"/>
</g>
</svg>
