<?xml version="1.0" encoding="UTF-8"?>
<svg version="1.1" xmlns="http://www.w3.org/2000/svg" width="225" height="225">
<path d="M0 0 C74.25 0 148.5 0 225 0 C225 74.25 225 148.5 225 225 C150.75 225 76.5 225 0 225 C0 150.75 0 76.5 0 0 Z " fill="#FDFDFD" transform="translate(0,0)"/>
<path d="M0 0 C0.91265625 -0.28037109 0.91265625 -0.28037109 1.84375 -0.56640625 C4.78717701 -1.15829103 6.44209083 -0.33513781 9.1875 0.8125 C10.06792969 1.16957031 10.94835937 1.52664062 11.85546875 1.89453125 C14 3 14 3 15 5 C15.039992 6.99960012 15.04346799 9.00047242 15 11 C16.32 11.66 17.64 12.32 19 13 C19 17.29 19 21.58 19 26 C17.68 26.33 16.36 26.66 15 27 C15.04125 28.03125 15.0825 29.0625 15.125 30.125 C14.72526344 32.9637089 14.13956142 33.87263326 11.98828125 35.8359375 C7.90297136 38.50108607 4.59457695 40.53313545 -0.375 39.8125 C-1.57125 39.544375 -2.7675 39.27625 -4 39 C-4.721875 39.20625 -5.44375 39.4125 -6.1875 39.625 C-8 40 -8 40 -10.5625 38.75 C-15.70253521 35.05971831 -15.70253521 35.05971831 -17 30.4375 C-17.67139937 26.75396564 -17.67139937 26.75396564 -21 25 C-21.43359375 22.28515625 -21.43359375 22.28515625 -21.4375 19.0625 C-21.45683594 18.00160156 -21.47617187 16.94070312 -21.49609375 15.84765625 C-21 13 -21 13 -19.015625 11.30078125 C-18.35046875 10.87152344 -17.6853125 10.44226563 -17 10 C-16.773125 9.05125 -16.54625 8.1025 -16.3125 7.125 C-14.5577693 2.94706977 -12.27150727 1.83180143 -8.31640625 -0.16796875 C-5.22653447 -1.27782151 -3.12352175 -0.87168049 0 0 Z " fill="#FAFCFE" transform="translate(30,100)"/>
<path d="M0 0 C3.34125 -0.103125 6.6825 -0.20625 10.125 -0.3125 C11.68758545 -0.38078003 11.68758545 -0.38078003 13.28173828 -0.45043945 C17.73823369 -0.51687115 21.04188111 -0.51982014 24.64453125 2.3046875 C27 5 27 5 27.5625 8.4375 C26.97445828 12.16176425 25.89633625 14.76042557 24 18 C24.66 18.99 25.32 19.98 26 21 C26.4140625 24.13671875 26.4140625 24.13671875 26.625 27.6875 C26.69976562 28.86699219 26.77453125 30.04648438 26.8515625 31.26171875 C26.90054688 32.16535156 26.94953125 33.06898438 27 34 C24.125 34.125 24.125 34.125 21 34 C18.50494038 31.50494038 18.64051624 30.32671112 18.375 26.875 C18.30023438 25.96492188 18.22546875 25.05484375 18.1484375 24.1171875 C18.09945312 23.41851562 18.05046875 22.71984375 18 22 C16.88625 21.9175 15.7725 21.835 14.625 21.75 C11 21 11 21 9.5625 19.125 C9 17 9 17 9 14 C12.3 13.67 15.6 13.34 19 13 C19.33 11.02 19.66 9.04 20 7 C15.77845689 5.46557489 15.77845689 5.46557489 6 5 C6 14.57 6 24.14 6 34 C4.02 34 2.04 34 0 34 C0 22.78 0 11.56 0 0 Z " fill="#3973B1" transform="translate(106,105)"/>
<path d="M0 0 C2.92415232 1.33565604 3.88489594 2.42757615 6 5 C6.875 7.8125 6.875 7.8125 7 10 C4.1875 10.1875 4.1875 10.1875 1 10 C-0.02104551 9.02149805 -1.0206121 8.02019573 -2 7 C-5.6556535 6.06664166 -8.41167292 5.75788678 -12 7 C-11.46701595 9.48923693 -11.46701595 9.48923693 -10 12 C-7.06468507 13.36809728 -7.06468507 13.36809728 -3.625 14.125 C4.12147527 16.10096322 4.12147527 16.10096322 7 19 C8.42402542 23.15535286 8.46285336 26.91229461 6.75 30.9375 C4.18151801 33.96463948 2.57632102 34.94303034 -1.3984375 35.3359375 C-2.71070312 35.34882813 -4.02296875 35.36171875 -5.375 35.375 C-6.68210937 35.40335938 -7.98921875 35.43171875 -9.3359375 35.4609375 C-13.5187511 34.93474133 -15.13899985 34.04957832 -18 31 C-18.8125 27.25 -18.8125 27.25 -19 24 C-16.3125 23.6875 -16.3125 23.6875 -13 24 C-11.33333333 25.66666667 -9.66666667 27.33333333 -8 29 C-4.79647701 29.37688506 -2.88861709 29.44430855 0 28 C-0.495 25.525 -0.495 25.525 -1 23 C-2.04800781 22.68546875 -3.09601563 22.3709375 -4.17578125 22.046875 C-5.5549149 21.61530937 -6.93380891 21.18297737 -8.3125 20.75 C-9.00279297 20.54503906 -9.69308594 20.34007813 -10.40429688 20.12890625 C-13.44388208 19.15976314 -15.68096947 18.31775949 -17.9609375 16.046875 C-19.83591037 12.35331942 -19.50061525 8.6383772 -18.3125 4.75 C-13.8217171 -1.23771053 -6.77627 -0.97981201 0 0 Z " fill="#3C74B2" transform="translate(90,104)"/>
<path d="M0 0 C0.33 0.66 0.66 1.32 1 2 C0.67 2.66 0.34 3.32 0 4 C0.99 4.33 1.98 4.66 3 5 C5 8 5 8 5 12 C3.02 12 1.04 12 -1 12 C-1.66 10.68 -2.32 9.36 -3 8 C-4.43739513 7.97287934 -5.87493863 7.95354933 -7.3125 7.9375 C-8.11300781 7.92589844 -8.91351563 7.91429688 -9.73828125 7.90234375 C-12.16861334 7.90342145 -12.16861334 7.90342145 -15 9 C-16.18681726 12.56045177 -16.09689832 15.43808337 -16.0625 19.1875 C-16.05347656 20.45980469 -16.04445312 21.73210937 -16.03515625 23.04296875 C-16.02355469 24.01878906 -16.01195312 24.99460938 -16 26 C-15.34 26 -14.68 26 -14 26 C-14 26.66 -14 27.32 -14 28 C-9.97188149 28.34394765 -9.97188149 28.34394765 -6 28 C-4.29319053 26.37446717 -2.62339805 24.70884005 -1 23 C2.3125 22.6875 2.3125 22.6875 5 23 C3.98 30.48 3.98 30.48 2 33 C-4.1331634 35.45326536 -10.12986312 36.19137757 -16.3125 33.625 C-21.86666667 30.26666667 -21.86666667 30.26666667 -23.1875 27.625 C-24.62568795 21.20846914 -25.01697292 14.71192779 -22.6875 8.5 C-22.130625 7.675 -21.57375 6.85 -21 6 C-20.505 5.236875 -20.01 4.47375 -19.5 3.6875 C-18 2 -18 2 -15 1 C-12.62542065 0.95530204 -10.24967962 0.96099089 -7.875 1 C-5.58363995 1.03748646 -3.29118714 1.04687851 -1 1 C-0.67 0.67 -0.34 0.34 0 0 Z " fill="#B9CDE2" transform="translate(183,104)"/>
<path d="M0 0 C1.5631897 0.00785522 1.5631897 0.00785522 3.15795898 0.01586914 C4.28266602 0.0190918 5.40737305 0.02231445 6.56616211 0.02563477 C7.75016602 0.03401367 8.93416992 0.04239258 10.15405273 0.05102539 C11.34192383 0.05553711 12.52979492 0.06004883 13.75366211 0.06469727 C16.69967499 0.07652864 19.64558954 0.09301252 22.59155273 0.11352539 C22.59155273 1.76352539 22.59155273 3.41352539 22.59155273 5.11352539 C19.29155273 5.11352539 15.99155273 5.11352539 12.59155273 5.11352539 C12.59155273 14.35352539 12.59155273 23.59352539 12.59155273 33.11352539 C10.61155273 33.11352539 8.63155273 33.11352539 6.59155273 33.11352539 C6.59155273 24.20352539 6.59155273 15.29352539 6.59155273 6.11352539 C2.96155273 6.11352539 -0.66844727 6.11352539 -4.40844727 6.11352539 C-3.21606086 0.15159334 -3.21606086 0.15159334 0 0 Z " fill="#3671B0" transform="translate(198.408447265625,104.886474609375)"/>
<path d="M0 0 C0.78375 0.04125 1.5675 0.0825 2.375 0.125 C2.424377 4.64565428 2.46070823 9.16615217 2.48486328 13.68701172 C2.49493118 15.22545098 2.50858646 16.76387107 2.52587891 18.30224609 C2.55009317 20.51144133 2.56147491 22.72038395 2.5703125 24.9296875 C2.58063507 25.61932587 2.59095764 26.30896423 2.60159302 27.01950073 C2.60199478 28.72300906 2.49691026 30.42585943 2.375 32.125 C0.375 34.125 0.375 34.125 -2.25 34.25 C-3.03375 34.20875 -3.8175 34.1675 -4.625 34.125 C-4.674377 29.60434572 -4.71070823 25.08384783 -4.73486328 20.56298828 C-4.74493118 19.02454902 -4.75858646 17.48612893 -4.77587891 15.94775391 C-4.80009317 13.73855867 -4.81147491 11.52961605 -4.8203125 9.3203125 C-4.83063507 8.63067413 -4.84095764 7.94103577 -4.85159302 7.23049927 C-4.85199478 5.52699094 -4.74691026 3.82414057 -4.625 2.125 C-2.625 0.125 -2.625 0.125 0 0 Z " fill="#3A73B2" transform="translate(146.625,104.875)"/>
<path d="M0 0 C3 0.25 3 0.25 5 2.25 C5.3125 5.1875 5.3125 5.1875 5 8.25 C4.51273438 8.67023438 4.02546875 9.09046875 3.5234375 9.5234375 C1.22440149 12.12901164 1.48125086 14.52873264 1.3125 17.9375 C1.24675781 19.11699219 1.18101563 20.29648438 1.11328125 21.51171875 C1.07589844 22.41535156 1.03851563 23.31898437 1 24.25 C1.99 24.58 2.98 24.91 4 25.25 C5.17755913 28.19389782 5.03348696 29.14953913 4 32.25 C3.113125 32.394375 2.22625 32.53875 1.3125 32.6875 C-3.65049811 33.53027326 -8.23621399 34.58821418 -13 36.25 C-10.64722731 33.52573689 -8.37503669 32.4358237 -5 31.25 C-4.67 28.94 -4.34 26.63 -4 24.25 C-3.01 23.92 -2.02 23.59 -1 23.25 C-0.67 18.96 -0.34 14.67 0 10.25 C-1.32 9.92 -2.64 9.59 -4 9.25 C-5 8.25 -5 8.25 -5.1875 5.3125 C-4.93154618 1.13192099 -4.17353375 0.34779448 0 0 Z " fill="#74C4EE" transform="translate(49,102.75)"/>
<path d="M0 0 C0.66 0.33 1.32 0.66 2 1 C1.21625 1.37125 0.4325 1.7425 -0.375 2.125 C-3.63719148 4.45513677 -3.88084837 6.24284809 -5 10 C-5.99 10.66 -6.98 11.32 -8 12 C-8.51774776 14.78702342 -8.51774776 14.78702342 -8.4375 17.9375 C-8.45683594 18.99839844 -8.47617188 20.05929688 -8.49609375 21.15234375 C-8.29483689 24.12154487 -8.29483689 24.12154487 -5.98828125 25.6796875 C-5.33214844 26.11539063 -4.67601562 26.55109375 -4 27 C-3.75 30.1875 -3.75 30.1875 -4 33 C-3.01 33.33 -2.02 33.66 -1 34 C-1.99 34.495 -1.99 34.495 -3 35 C-3.99 34.67 -4.98 34.34 -6 34 C-7.485 34.495 -7.485 34.495 -9 35 C-11.1875 33.9375 -11.1875 33.9375 -13 32 C-13.25 28.8125 -13.25 28.8125 -13 26 C-12.01 25.67 -11.02 25.34 -10 25 C-10.11371497 22.70774565 -10.24130964 20.41617612 -10.375 18.125 C-10.44460938 16.84882812 -10.51421875 15.57265625 -10.5859375 14.2578125 C-10.67241106 10.91938301 -10.67241106 10.91938301 -13 9 C-12.625 5.375 -12.625 5.375 -12 2 C-10.14375 2.061875 -10.14375 2.061875 -8.25 2.125 C-4.91529778 2.1426751 -2.91808231 1.68350903 0 0 Z " fill="#73C3ED" transform="translate(18,101)"/>
<path d="M0 0 C3.4375 0.75 3.4375 0.75 5.4375 2.75 C5.86861339 6.63002054 5.96923772 8.89921964 3.875 12.25 C1.4375 13.75 1.4375 13.75 -2.125 13.8125 C-5.5625 12.75 -5.5625 12.75 -7.625 10.5625 C-8.85556864 6.87079408 -8.25063585 5.20300514 -6.5625 1.75 C-3.5625 -0.25 -3.5625 -0.25 0 0 Z " fill="#3A73B1" transform="translate(193.5625,85.25)"/>
<path d="M0 0 C1.7325 0.1546875 1.7325 0.1546875 3.5 0.3125 C5.5 3.3125 5.5 3.3125 5.4375 6.8125 C5.1501334 10.25948703 5.1501334 10.25948703 7 12.25 C7.495 12.600625 7.99 12.95125 8.5 13.3125 C8.17 13.9725 7.84 14.6325 7.5 15.3125 C6.79875 14.6525 6.0975 13.9925 5.375 13.3125 C2.65615045 11.01507058 2.65615045 11.01507058 -0.625 11.3125 C-3.5 11.3125 -3.5 11.3125 -5.4375 9.625 C-6.78233625 6.69800346 -6.53115662 5.32665011 -5.5 2.3125 C-3.5 0.3125 -3.5 0.3125 0 0 Z " fill="#78C5EE" transform="translate(153.5,88.6875)"/>
<path d="M0 0 C3 0.25 3 0.25 5 2.25 C5.25 5.25 5.25 5.25 5 8.25 C3 10.25 3 10.25 0 10.5 C-3 10.25 -3 10.25 -5 8.25 C-5.25 5.25 -5.25 5.25 -5 2.25 C-3 0.25 -3 0.25 0 0 Z " fill="#518AC8" transform="translate(49,102.75)"/>
<path d="M0 0 C0.680625 0.61875 1.36125 1.2375 2.0625 1.875 C5.45881234 4.3319068 7.96018821 5.04945605 12 6 C12.625 8.3125 12.625 8.3125 13 11 C12.01 12.485 12.01 12.485 11 14 C4.125 13.125 4.125 13.125 3 12 C3.04125 10.88625 3.0825 9.7725 3.125 8.625 C3.37191292 5.07384091 3.37191292 5.07384091 1.5 3.1875 C1.005 2.795625 0.51 2.40375 0 2 C0 1.34 0 0.68 0 0 Z " fill="#89BF3C" transform="translate(186,137)"/>
<path d="M0 0 C2.64120209 0.18426991 5.10872909 0.59806665 7.6875 1.1875 C4.59748767 8.7657984 4.59748767 8.7657984 1.125 10.375 C-1.3125 10.1875 -1.3125 10.1875 -3.125 9.0625 C-4.68759409 6.59524618 -4.68046448 5.05762296 -4.3125 2.1875 C-2.3125 0.1875 -2.3125 0.1875 0 0 Z " fill="#5C92CC" transform="translate(28.3125,137.8125)"/>
<path d="M0 0 C0.66 0.33 1.32 0.66 2 1 C1.21625 1.37125 0.4325 1.7425 -0.375 2.125 C-3.6207222 4.443373 -4.01344426 6.218203 -5 10 C-6 11 -6 11 -8.4375 11.1875 C-11 11 -11 11 -13 9 C-12.625 5.375 -12.625 5.375 -12 2 C-10.14375 2.061875 -10.14375 2.061875 -8.25 2.125 C-4.91529778 2.1426751 -2.91808231 1.68350903 0 0 Z " fill="#5892CD" transform="translate(18,101)"/>
<path d="M0 0 C2.33294775 -0.04241723 4.66702567 -0.04092937 7 0 C8 1 8 1 8.1875 3.9375 C8 7 8 7 6 9 C3.5625 9.375 3.5625 9.375 1 9 C-0.9375 7.3125 -0.9375 7.3125 -2 5 C-1.1875 2.25 -1.1875 2.25 0 0 Z " fill="#568DCA" transform="translate(56,93)"/>
<path d="M0 0 C0.061875 0.78375 0.12375 1.5675 0.1875 2.375 C0.455625 3.24125 0.72375 4.1075 1 5 C3.47636012 6.37466625 3.47636012 6.37466625 6 7 C4 8 4 8 2.125 7.5 C0.01851673 6.83306008 0.01851673 6.83306008 -2 7.5 C-4.37609195 8.09402299 -5.65609195 7.58597701 -8 7 C-10.18703385 7.37907282 -10.18703385 7.37907282 -12 8 C-10.625 6.5 -10.625 6.5 -9 5 C-8.34 5 -7.68 5 -7 5 C-6.814375 3.7934375 -6.814375 3.7934375 -6.625 2.5625 C-6.41875 1.716875 -6.2125 0.87125 -6 0 C-3.50907189 -1.24546405 -2.58919267 -0.7767578 0 0 Z " fill="#78C5EE" transform="translate(32,93)"/>
<path d="M0 0 C1.65 0.33 3.3 0.66 5 1 C5.625 3.8125 5.625 3.8125 6 7 C5.01 8.485 5.01 8.485 4 10 C1.0625 9.25 1.0625 9.25 -2 8 C-3.0625 6.125 -3.0625 6.125 -3 4 C-1.5625 1.75 -1.5625 1.75 0 0 Z " fill="#89BD3A" transform="translate(46,68)"/>
<path d="M0 0 C4.29 0 8.58 0 13 0 C12.34 2.64 11.68 5.28 11 8 C9 7 9 7 8 4 C8 5.32 8 6.64 8 8 C7.01 7.67 6.02 7.34 5 7 C4.67 6.34 4.34 5.68 4 5 C2.68 5.33 1.36 5.66 0 6 C0 4.02 0 2.04 0 0 Z " fill="#626262" transform="translate(203,162)"/>
<path d="M0 0 C1.98 0 3.96 0 6 0 C6 0.99 6 1.98 6 3 C6.66 3 7.32 3 8 3 C8 4.98 8 6.96 8 9 C5.36 9 2.72 9 0 9 C-0.33 8.34 -0.66 7.68 -1 7 C-0.34 6.67 0.32 6.34 1 6 C0.34 5.34 -0.32 4.68 -1 4 C-0.625 1.875 -0.625 1.875 0 0 Z " fill="#8A8A8A" transform="translate(18,159)"/>
<path d="M0 0 C0.33 2.31 0.66 4.62 1 7 C-1.92824652 7.97608217 -3.95613276 8.08226668 -7 8 C-7 5.36 -7 2.72 -7 0 C-3.86650268 -1.04449911 -3.01031744 -0.93423645 0 0 Z " fill="#AEAEAE" transform="translate(109,160)"/>
<path d="M0 0 C0.66 0 1.32 0 2 0 C2 0.99 2 1.98 2 3 C2.66 3 3.32 3 4 3 C4 4.98 4 6.96 4 9 C1.69 9 -0.62 9 -3 9 C-3.33 7.35 -3.66 5.7 -4 4 C-2.68 3.67 -1.36 3.34 0 3 C0 2.01 0 1.02 0 0 Z " fill="#8A8A8A" transform="translate(186,159)"/>
<path d="M0 0 C0.66 0 1.32 0 2 0 C2 2.97 2 5.94 2 9 C0.02 9 -1.96 9 -4 9 C-4 7.02 -4 5.04 -4 3 C-2.68 3 -1.36 3 0 3 C0 2.01 0 1.02 0 0 Z " fill="#969696" transform="translate(200,159)"/>
<path d="M0 0 C0.66 0.33 1.32 0.66 2 1 C1.67 3.64 1.34 6.28 1 9 C-0.98 9 -2.96 9 -5 9 C-5 7.02 -5 5.04 -5 3 C-3.68 3 -2.36 3 -1 3 C-0.67 2.01 -0.34 1.02 0 0 Z " fill="#8A8A8A" transform="translate(131,159)"/>
<path d="M0 0 C2.97 0 5.94 0 9 0 C9 1.98 9 3.96 9 6 C7.02 6 5.04 6 3 6 C3 4.35 3 2.7 3 1 C2.34 1 1.68 1 1 1 C1 2.65 1 4.3 1 6 C0.67 6 0.34 6 0 6 C0 4.02 0 2.04 0 0 Z " fill="#656565" transform="translate(150,162)"/>
<path d="M0 0 C0.99 0 1.98 0 3 0 C3 2.97 3 5.94 3 9 C1.02 9 -0.96 9 -3 9 C-3.33 7.35 -3.66 5.7 -4 4 C-2.68 3.67 -1.36 3.34 0 3 C0 2.01 0 1.02 0 0 Z " fill="#979797" transform="translate(168,159)"/>
<path d="M0 0 C0.625 1.875 0.625 1.875 1 4 C0.34 4.66 -0.32 5.32 -1 6 C-3.0625 5.8125 -3.0625 5.8125 -5 5 C-5.33 4.01 -5.66 3.02 -6 2 C-6.99 1.67 -7.98 1.34 -9 1 C-5.92677456 0.08941469 -3.19902639 -0.08886184 0 0 Z " fill="#F9BC25" transform="translate(70,84)"/>
<path d="M0 0 C1.32 0 2.64 0 4 0 C4 2.97 4 5.94 4 9 C2.68 9 1.36 9 0 9 C-0.87890625 2.84765625 -0.87890625 2.84765625 -1 1 C-0.67 0.67 -0.34 0.34 0 0 Z " fill="#808080" transform="translate(36,159)"/>
<path d="M0 0 C2.1519437 3.22791555 2.20086443 4.28400809 2 8 C-2 8 -2 8 -5 7 C-4.67 5.35 -4.34 3.7 -4 2 C-2.68 2 -1.36 2 0 2 C0 1.34 0 0.68 0 0 Z " fill="#707070" transform="translate(73,160)"/>
<path d="M0 0 C1.65 0 3.3 0 5 0 C5 1.65 5 3.3 5 5 C1.25 6.125 1.25 6.125 -1 5 C-0.67 3.35 -0.34 1.7 0 0 Z " fill="#EF8424" transform="translate(52,81)"/>
<path d="M0 0 C2.31 0.33 4.62 0.66 7 1 C7 1.66 7 2.32 7 3 C6.01 3 5.02 3 4 3 C3.67 3.99 3.34 4.98 3 6 C2.01 6 1.02 6 0 6 C0 4.02 0 2.04 0 0 Z " fill="#939393" transform="translate(203,162)"/>
<path d="M0 0 C1.32 0.33 2.64 0.66 4 1 C4 3.64 4 6.28 4 9 C3.34 8.34 2.68 7.68 2 7 C1.34 7.66 0.68 8.32 0 9 C0 6.03 0 3.06 0 0 Z " fill="#6B6B6B" transform="translate(63,159)"/>
<path d="M0 0 C1.32 0.33 2.64 0.66 4 1 C4 3.64 4 6.28 4 9 C3.34 8.34 2.68 7.68 2 7 C1.34 7.66 0.68 8.32 0 9 C0 6.03 0 3.06 0 0 Z " fill="#6B6B6B" transform="translate(53,159)"/>
<path d="M0 0 C1.67542976 0.28604898 3.34385343 0.61781233 5 1 C5.33 2.32 5.66 3.64 6 5 C4.02 5 2.04 5 0 5 C-0.5625 3.0625 -0.5625 3.0625 -1 1 C-0.67 0.67 -0.34 0.34 0 0 Z " fill="#7EC6ED" transform="translate(41,89)"/>
<path d="M0 0 C2.1519437 3.22791555 2.20086443 4.28400809 2 8 C0.35 8 -1.3 8 -3 8 C-3 6.02 -3 4.04 -3 2 C-2.01 2 -1.02 2 0 2 C0 1.34 0 0.68 0 0 Z " fill="#676767" transform="translate(108,160)"/>
<path d="M0 0 C1.32 0.33 2.64 0.66 4 1 C4 2.65 4 4.3 4 6 C2.68 6 1.36 6 0 6 C0 3 0 3 1 2 C0.67 1.34 0.34 0.68 0 0 Z " fill="#7E7E7E" transform="translate(76,162)"/>
<path d="M0 0 C0.99 0 1.98 0 3 0 C3 1.98 3 3.96 3 6 C2.01 6 1.02 6 0 6 C0 4.02 0 2.04 0 0 Z " fill="#A4A4A4" transform="translate(156,162)"/>
</svg>
