<?xml version="1.0" encoding="UTF-8"?>
<svg version="1.1" xmlns="http://www.w3.org/2000/svg" width="300" height="168">
<path d="M0 0 C99 0 198 0 300 0 C300 55.44 300 110.88 300 168 C201 168 102 168 0 168 C0 112.56 0 57.12 0 0 Z " fill="#FEFEFE" transform="translate(0,0)"/>
<path d="M0 0 C5.61 0 11.22 0 17 0 C18.67082601 4.1233599 20.33683449 8.24855152 22 12.375 C22.47695312 13.550625 22.95390625 14.72625 23.4453125 15.9375 C23.89648438 17.05898437 24.34765625 18.18046875 24.8125 19.3359375 C25.23144531 20.37282715 25.65039062 21.4097168 26.08203125 22.47802734 C27 25 27 25 27 27 C27.66 27 28.32 27 29 27 C29.13535156 26.46375 29.27070313 25.9275 29.41015625 25.375 C31.02179856 19.50746393 33.1841151 13.99891553 35.625 8.4375 C35.93832275 7.72271484 36.25164551 7.00792969 36.57446289 6.27148438 C38.86000411 1.13999589 38.86000411 1.13999589 40 0 C45.28 0 50.56 0 56 0 C56 15.18 56 30.36 56 46 C51.71 46 47.42 46 43 46 C42.67 37.09 42.34 28.18 42 19 C38.04 27.91 34.08 36.82 30 46 C27.03 46 24.06 46 21 46 C17.37 37.09 13.74 28.18 10 19 C9.67 27.91 9.34 36.82 9 46 C6.03 46 3.06 46 0 46 C0 30.82 0 15.64 0 0 Z " fill="#049A9A" transform="translate(108,61)"/>
<path d="M0 0 C4.95 0 9.9 0 15 0 C16.97578105 3.66602986 18.95138108 7.33215606 20.92651367 10.99853516 C21.5986066 12.24598897 22.27080651 13.49338514 22.94311523 14.74072266 C23.90897244 16.53272635 24.87444577 18.32493638 25.83984375 20.1171875 C26.42113037 21.19597168 27.00241699 22.27475586 27.60131836 23.38623047 C28.41913848 24.914522 29.22482199 26.44964397 30 28 C30.33 18.76 30.66 9.52 31 0 C33.97 0 36.94 0 40 0 C40 15.18 40 30.36 40 46 C35.05 46 30.1 46 25 46 C20 37 15 28 10 19 C9.67 27.91 9.34 36.82 9 46 C6.03 46 3.06 46 0 46 C0 30.82 0 15.64 0 0 Z " fill="#059A9A" transform="translate(216,61)"/>
<path d="M0 0 C11.22 0 22.44 0 34 0 C34 2.64 34 5.28 34 8 C27.07 8 20.14 8 13 8 C13 11.63 13 15.26 13 19 C18.94 19 24.88 19 31 19 C31 21.31 31 23.62 31 26 C25.06 26 19.12 26 13 26 C13 29.63 13 33.26 13 37 C19.93 37 26.86 37 34 37 C34 39.97 34 42.94 34 46 C22.78 46 11.56 46 0 46 C0 30.82 0 15.64 0 0 Z " fill="#059A9A" transform="translate(66,61)"/>
<path d="M0 0 C10.89 0 21.78 0 33 0 C33 2.64 33 5.28 33 8 C26.4 8 19.8 8 13 8 C13 11.63 13 15.26 13 19 C18.94 19 24.88 19 31 19 C31 21.31 31 23.62 31 26 C25.06 26 19.12 26 13 26 C13 29.63 13 33.26 13 37 C19.93 37 26.86 37 34 37 C34 39.97 34 42.94 34 46 C22.78 46 11.56 46 0 46 C0 30.82 0 15.64 0 0 Z " fill="#039999" transform="translate(174,61)"/>
<path d="M0 0 C0 2.97 0 5.94 0 9 C-0.969375 8.835 -1.93875 8.67 -2.9375 8.5 C-7.29487763 7.86603727 -11.60630704 7.9103328 -16 8 C-16.66 9.32 -17.32 10.64 -18 12 C-13.8472959 14.65908846 -9.6948351 17.17280334 -5.3125 19.4375 C-1.07941307 21.78840122 1.43202547 23.85810559 4 28 C4.74380146 33.20661025 3.83486175 36.6010766 1 41 C-4.45950183 46.31194772 -10.05820454 47.2802512 -17.5 47.25 C-18.7684375 47.25515625 -20.036875 47.2603125 -21.34375 47.265625 C-24.90390317 47.00698139 -27.68745385 46.28821239 -31 45 C-31 42.03 -31 39.06 -31 36 C-30.16210938 36.16371094 -29.32421875 36.32742187 -28.4609375 36.49609375 C-24.79482693 37.02987283 -21.32760615 37.09743025 -17.625 37.0625 C-16.37976563 37.05347656 -15.13453125 37.04445312 -13.8515625 37.03515625 C-12.91054688 37.02355469 -11.96953125 37.01195312 -11 37 C-10.67 35.35 -10.34 33.7 -10 32 C-11.09699219 31.49210937 -12.19398438 30.98421875 -13.32421875 30.4609375 C-14.77901184 29.76639112 -16.23341874 29.07103542 -17.6875 28.375 C-18.40873047 28.04371094 -19.12996094 27.71242188 -19.87304688 27.37109375 C-24.85705041 24.95874501 -27.91448609 22.64319114 -31 18 C-32.04146722 13.98116178 -31.90913888 9.91840319 -30.11328125 6.12890625 C-22.91827722 -3.45646457 -10.50965637 -1.95969532 0 0 Z " fill="#069B9B" transform="translate(296,61)"/>
<path d="M0 0 C1.09183594 -0.00515625 2.18367188 -0.0103125 3.30859375 -0.015625 C6.67951578 0.25955231 9.41125625 1.05224219 12.5625 2.25 C12.5625 4.89 12.5625 7.53 12.5625 10.25 C11.77875 10.085 10.995 9.92 10.1875 9.75 C2.20184693 8.53977185 2.20184693 8.53977185 -5.4375 10.25 C-5.4375 11.9 -5.4375 13.55 -5.4375 15.25 C-4.674375 15.45625 -3.91125 15.6625 -3.125 15.875 C3.60179849 18.38329774 12.14634177 21.57296345 15.5625 28.25 C16.89365661 33.02441503 17.12283949 36.12932103 14.875 40.625 C10.97442575 45.05267887 7.45785411 47.34066462 1.5625 48.25 C-5.41174 48.68094295 -11.84695513 48.70229576 -18.4375 46.25 C-18.4375 43.28 -18.4375 40.31 -18.4375 37.25 C-17.550625 37.415 -16.66375 37.58 -15.75 37.75 C-10.01959173 38.59061774 -4.21325419 38.3281681 1.5625 38.25 C1.8925 36.6 2.2225 34.95 2.5625 33.25 C1.45390625 32.71890625 0.3453125 32.1878125 -0.796875 31.640625 C-2.26062706 30.92751502 -3.72415714 30.21394929 -5.1875 29.5 C-5.91710938 29.15195313 -6.64671875 28.80390625 -7.3984375 28.4453125 C-12.03311695 26.17010623 -16.03648084 24.05203831 -18.4375 19.25 C-19.08335227 14.75839103 -19.74763467 10.12847478 -17.05078125 6.26171875 C-11.84472901 1.7106579 -6.92094991 -0.03260754 0 0 Z " fill="#059A9A" transform="translate(19.4375,59.75)"/>
<path d="M0 0 C4.62 0 9.24 0 14 0 C14 15.18 14 30.36 14 46 C9.38 46 4.76 46 0 46 C0 30.82 0 15.64 0 0 Z " fill="#069B9B" transform="translate(42,61)"/>
</svg>
