<?xml version="1.0" encoding="UTF-8"?>
<svg version="1.1" xmlns="http://www.w3.org/2000/svg" width="225" height="225">
<path d="M0 0 C74.25 0 148.5 0 225 0 C225 74.25 225 148.5 225 225 C150.75 225 76.5 225 0 225 C0 150.75 0 76.5 0 0 Z " fill="#FEC411" transform="translate(0,0)"/>
<path d="M0 0 C2.58899944 2.3377142 4.11172678 4.74303866 5.75 7.8125 C6.265625 8.77542969 6.78125 9.73835938 7.3125 10.73046875 C8.5242291 13.07819388 9.71172863 15.42935922 10.875 17.80078125 C11.18727539 18.43588623 11.49955078 19.07099121 11.82128906 19.7253418 C12.71608504 21.55562767 13.60044114 23.39100614 14.484375 25.2265625 C15.70756883 28.09145797 15.70756883 28.09145797 18 29 C19.14962824 31.13036779 20.21762039 33.2511494 21.25 35.4375 C23.70404918 40.56511193 26.40434081 45.39657519 29.35791016 50.25268555 C32.38920682 55.32422604 35.2098409 60.51408425 38.0625 65.6875 C39.38149003 68.0736499 40.70209539 70.45890186 42.0234375 72.84375 C42.35447983 73.44136642 42.68552216 74.03898285 43.02659607 74.65470886 C46.89512965 81.62864976 50.83252708 88.56369194 54.78735352 95.48901367 C63 109.93139264 63 109.93139264 63 113 C21.42 113 -20.16 113 -63 113 C-61.41822807 108.25468421 -59.69515301 104.41759316 -57.1875 100.1875 C-56.46062095 98.93768405 -55.7340574 97.68768455 -55.0078125 96.4375 C-54.34523438 95.303125 -53.68265625 94.16875 -53 93 C-49.79035813 87.37837874 -46.76460153 81.66511511 -43.75 75.9375 C-39.3265638 67.53315874 -34.69857119 59.25304584 -30 51 C-29.34 51 -28.68 51 -28 51 C-27.92265625 50.33613281 -27.8453125 49.67226562 -27.765625 48.98828125 C-26.73711359 44.97393825 -24.82334396 41.75215281 -22.75 38.1875 C-22.34104492 37.47190918 -21.93208984 36.75631836 -21.51074219 36.01904297 C-19.1399836 31.89234127 -16.67649857 27.84238044 -14.1015625 23.83984375 C-12.80756665 21.67859537 -11.72165174 19.45509279 -10.625 17.1875 C-4.38068182 4.38068182 -4.38068182 4.38068182 0 0 Z " fill="#D6292C" transform="translate(111,23)"/>
<path d="M0 0 C0.33 0 0.66 0 1 0 C1 2.64 1 5.28 1 8 C1.66 8 2.32 8 3 8 C3 5.36 3 2.72 3 0 C3.99 0.99 4.98 1.98 6 3 C6.33 2.01 6.66 1.02 7 0 C11 0 11 0 13.46875 2.0078125 C16.37203671 5.43978414 18.40696286 8.91681084 20.5 12.875 C21.37387593 14.48758882 22.24893548 16.09953662 23.125 17.7109375 C23.58777344 18.56655273 24.05054688 19.42216797 24.52734375 20.30371094 C27.12908585 25.06724539 29.81944937 29.78051572 32.5 34.5 C36.56324254 41.67552614 40.61369644 48.85778986 44.625 56.0625 C45.02654297 56.78179687 45.42808594 57.50109375 45.84179688 58.2421875 C52 69.32907299 52 69.32907299 52 72 C18.34 72 -15.32 72 -50 72 C-50 71.34 -50 70.68 -50 70 C-55.61 70 -61.22 70 -67 70 C-66.67 68.02 -66.34 66.04 -66 64 C-65.05125 64.020625 -64.1025 64.04125 -63.125 64.0625 C-60.09333717 64.22551826 -60.09333717 64.22551826 -58 63 C-56.0631614 62.84577909 -54.12151657 62.75013481 -52.1796875 62.68359375 C-51.0040625 62.64169922 -49.8284375 62.59980469 -48.6171875 62.55664062 C-47.38226563 62.51732422 -46.14734375 62.47800781 -44.875 62.4375 C-43.66328125 62.39431641 -42.4515625 62.35113281 -41.203125 62.30664062 C-35.13204436 62.09831923 -29.07455989 61.94698015 -23 62 C-22.34 58.04 -21.68 54.08 -21 50 C-20.01 50.495 -20.01 50.495 -19 51 C-19.33 53.64 -19.66 56.28 -20 59 C-19.34 59 -18.68 59 -18 59 C-18 59.66 -18 60.32 -18 61 C-16.02 61 -14.04 61 -12 61 C-11.67 58.36 -11.34 55.72 -11 53 C-9.02 52.505 -9.02 52.505 -7 52 C-6.55269531 52.56589844 -6.10539062 53.13179687 -5.64453125 53.71484375 C-5.03996094 54.44832031 -4.43539062 55.18179688 -3.8125 55.9375 C-3.22082031 56.66839844 -2.62914063 57.39929688 -2.01953125 58.15234375 C0.36881332 60.33742495 1.80774128 60.72175241 5 61 C7.00401011 60.69169075 9.00511766 60.36270588 11 60 C11.33 60.33 11.66 60.66 12 61 C14.86688248 60.90903444 17.70300515 60.76232012 20.5625 60.5625 C21.36880859 60.51029297 22.17511719 60.45808594 23.00585938 60.40429688 C25.00421738 60.27422624 27.00215386 60.13770944 29 60 C29.33 58.68 29.66 57.36 30 56 C29.01 56 28.02 56 27 56 C27.33 50.72 27.66 45.44 28 40 C24.43913342 38.81304447 21.02668976 38.64904582 17.3125 38.4375 C16.61060547 38.39431641 15.90871094 38.35113281 15.18554688 38.30664062 C13.45724794 38.2008264 11.7286489 38.09993419 10 38 C10 39.65 10 41.3 10 43 C14.29 43 18.58 43 23 43 C23 44.32 23 45.64 23 47 C22.16855469 47.04898438 21.33710938 47.09796875 20.48046875 47.1484375 C19.39378906 47.22320312 18.30710937 47.29796875 17.1875 47.375 C16.10855469 47.44460937 15.02960938 47.51421875 13.91796875 47.5859375 C10.81373814 47.81195733 10.81373814 47.81195733 8 50 C6.79549696 52.55183404 6.79549696 52.55183404 6 55 C3 55 3 55 0.75 53.25 C-1 51 -1 51 -1.0625 49.0625 C0.42483507 46.17532017 2.71353524 44.28646476 5 42 C5.86119134 39.82653432 5.86119134 39.82653432 6 38 C4.02 38 2.04 38 0 38 C-0.37125 39.1446875 -0.37125 39.1446875 -0.75 40.3125 C-2.1292637 43.27791695 -3.19257315 44.38360273 -6 46 C-6.99 46 -7.98 46 -9 46 C-8.43738054 36.8428833 -6.76038438 27.98155294 -5 19 C-4.59999149 16.83410026 -4.20355014 14.66753507 -3.8125 12.5 C-3.57466797 11.18515625 -3.57466797 11.18515625 -3.33203125 9.84375 C-3.22246094 9.2353125 -3.11289063 8.626875 -3 8 C-2.34 8 -1.68 8 -1 8 C-0.67 5.36 -0.34 2.72 0 0 Z " fill="#D6282D" transform="translate(122,64)"/>
<path d="M0 0 C0.66 1.32 1.32 2.64 2 4 C2.99 3.34 3.98 2.68 5 2 C7.17651367 1.77294922 7.17651367 1.77294922 9.66796875 1.8046875 C10.56064453 1.81113281 11.45332031 1.81757813 12.37304688 1.82421875 C13.76620117 1.84935547 13.76620117 1.84935547 15.1875 1.875 C16.12787109 1.88402344 17.06824219 1.89304688 18.03710938 1.90234375 C20.35832968 1.92590944 22.67903644 1.95880884 25 2 C25 1.34 25 0.68 25 0 C30.28 0.66 35.56 1.32 41 2 C41 5.96 41 9.92 41 14 C41.99 13.67 42.98 13.34 44 13 C44.33 9.37 44.66 5.74 45 2 C46.65 2 48.3 2 50 2 C50 1.34 50 0.68 50 0 C55.94 0.66 61.88 1.32 68 2 C68 2.99 68 3.98 68 5 C66.68 5 65.36 5 64 5 C64 8.63 64 12.26 64 16 C63.01 16 62.02 16 61 16 C61 12.7 61 9.4 61 6 C60.01 6 59.02 6 58 6 C58.020625 7.093125 58.04125 8.18625 58.0625 9.3125 C58 13 58 13 57 16 C54.69 16 52.38 16 50 16 C50 15.34 50 14.68 50 14 C51.65 14 53.3 14 55 14 C55 12.68 55 11.36 55 10 C53.35 10 51.7 10 50 10 C49.505 8.515 49.505 8.515 49 7 C48.896875 8.093125 48.79375 9.18625 48.6875 10.3125 C47.82967638 14.91355397 47.82967638 14.91355397 45 17 C42.71923828 17.43237305 42.71923828 17.43237305 40.0703125 17.51171875 C38.62978516 17.56489258 38.62978516 17.56489258 37.16015625 17.61914062 C35.65775391 17.65297852 35.65775391 17.65297852 34.125 17.6875 C32.63419922 17.73874023 32.63419922 17.73874023 31.11328125 17.79101562 C26.73825262 17.93450719 22.37817538 18 18 18 C17.505 12.06 17.505 12.06 17 6 C15.68 5.67 14.36 5.34 13 5 C13.33 5.99 13.66 6.98 14 8 C13.34 8 12.68 8 12 8 C12.33 10.97 12.66 13.94 13 17 C6.66666667 17 0.33333333 17 -6 17 C-6.66 17.33 -7.32 17.66 -8 18 C-10.3329866 18.04022391 -12.66706666 18.04320247 -15 18 C-15.02684679 15.35409986 -15.04676357 12.70846904 -15.0625 10.0625 C-15.07087891 9.30775391 -15.07925781 8.55300781 -15.08789062 7.77539062 C-15.09652441 5.85005687 -15.05224333 3.92464419 -15 2 C-13.37396748 0.37396748 -11.42581254 0.64396221 -9.1875 0.4375 C-8.31480469 0.35371094 -7.44210938 0.26992187 -6.54296875 0.18359375 C-4.36678488 0.02648063 -2.18184801 0 0 0 Z " fill="#F9B027" transform="translate(107,160)"/>
<path d="M0 0 C1.98 0 3.96 0 6 0 C6.97674877 3.10623708 6.97360853 5.24317307 6.328125 8.421875 C6.15966064 9.27515381 5.99119629 10.12843262 5.81762695 11.00756836 C5.63031006 11.9125708 5.44299316 12.81757324 5.25 13.75 C4.87345698 15.64187914 4.49715747 17.53380677 4.12109375 19.42578125 C3.93144043 20.36502441 3.74178711 21.30426758 3.54638672 22.27197266 C2.76878392 26.15442738 2.03735229 30.04491279 1.3125 33.9375 C1.08175781 35.16339844 0.85101563 36.38929687 0.61328125 37.65234375 C0.04330215 40.76363096 -0.49005441 43.87837046 -1 47 C4.80850591 44.26382397 4.80850591 44.26382397 8 39 C9.98 39 11.96 39 14 39 C13.4739075 42.78786597 12.61896089 45.17152224 10 48 C9.34 48 8.68 48 8 48 C8.35049575 51.24208567 8.56221181 52.61527704 11.0625 54.8125 C11.701875 55.204375 12.34125 55.59625 13 56 C13.433125 55.05125 13.86625 54.1025 14.3125 53.125 C16 50 16 50 19 48 C21.91796875 47.8046875 21.91796875 47.8046875 25.1875 47.875 C26.27417969 47.89304688 27.36085937 47.91109375 28.48046875 47.9296875 C29.31191406 47.95289063 30.14335937 47.97609375 31 48 C31 46.68 31 45.36 31 44 C26.71 44 22.42 44 18 44 C18 42.35 18 40.7 18 39 C20.4377963 38.94602665 22.87439685 38.90634384 25.3125 38.875 C26.00279297 38.85824219 26.69308594 38.84148437 27.40429688 38.82421875 C31.17135396 38.78782206 32.78431704 38.85621136 36 41 C36.328125 43.6796875 36.328125 43.6796875 36.25 46.875 C36.23453125 47.92429688 36.2190625 48.97359375 36.203125 50.0546875 C36.03275976 52.52498345 35.70723334 54.63875322 35 57 C35.99 57 36.98 57 38 57 C37.67 58.65 37.34 60.3 37 62 C36.05125 61.979375 35.1025 61.95875 34.125 61.9375 C31.00045715 61.92479861 27.97758036 62.20022265 24.875 62.5625 C21.2906891 62.95834674 18.52674763 62.80611374 15 62 C13.7625 62.3403125 13.7625 62.3403125 12.5 62.6875 C10 63 10 63 7.4375 61.375 C5 59 5 59 2.875 56.25 C2.25625 55.5075 1.6375 54.765 1 54 C0.01 54 -0.98 54 -2 54 C-2.66 56.64 -3.32 59.28 -4 62 C-5.98 62 -7.96 62 -10 62 C-9.50770308 51.08107526 -7.61355041 40.58708167 -5.5625 29.875 C-5.24610063 28.1967359 -4.93034202 26.51835086 -4.61523438 24.83984375 C-4.01499751 21.64621074 -3.41155275 18.45321478 -2.80517578 15.26074219 C-1.84179707 10.17895129 -0.91225203 5.09120794 0 0 Z " fill="#F6A82F" transform="translate(114,63)"/>
<path d="M0 0 C1.8253125 0.0309375 1.8253125 0.0309375 3.6875 0.0625 C4.94987731 2.58725462 4.78606404 4.37450466 4.75 7.1875 C4.74097656 8.09757813 4.73195313 9.00765625 4.72265625 9.9453125 C4.71105469 10.64398438 4.69945313 11.34265625 4.6875 12.0625 C6.3375 12.0625 7.9875 12.0625 9.6875 12.0625 C9.6875 8.7625 9.6875 5.4625 9.6875 2.0625 C13.0625 1.9375 13.0625 1.9375 16.6875 2.0625 C18.6875 4.0625 18.6875 4.0625 18.91796875 7.06640625 C18.90378906 8.24074219 18.88960937 9.41507813 18.875 10.625 C18.86855469 11.80191406 18.86210938 12.97882813 18.85546875 14.19140625 C18.6875 17.0625 18.6875 17.0625 17.6875 18.0625 C16.30589885 18.1552833 14.91961962 18.17997043 13.53491211 18.17602539 C12.65407455 18.17594986 11.773237 18.17587433 10.8657074 18.17579651 C9.90842239 18.17063522 8.95113739 18.16547394 7.96484375 18.16015625 C6.98963272 18.1587413 6.01442169 18.15732635 5.00965881 18.15586853 C1.88140857 18.15025133 -1.24677123 18.13769593 -4.375 18.125 C-6.49023334 18.11998722 -8.60546781 18.11542393 -10.72070312 18.11132812 C-15.91799607 18.10027631 -21.11523608 18.08300016 -26.3125 18.0625 C-26.3125 12.7825 -26.3125 7.5025 -26.3125 2.0625 C-23.6725 2.0625 -21.0325 2.0625 -18.3125 2.0625 C-17.9825 2.7225 -17.6525 3.3825 -17.3125 4.0625 C-16.9825 3.4025 -16.6525 2.7425 -16.3125 2.0625 C-15.3225 2.0625 -14.3325 2.0625 -13.3125 2.0625 C-13.3125 6.0225 -13.3125 9.9825 -13.3125 14.0625 C-11.9925 14.0625 -10.6725 14.0625 -9.3125 14.0625 C-9.3125 9.7725 -9.3125 5.4825 -9.3125 1.0625 C-5.83919872 0.36783974 -3.39947137 -0.05761816 0 0 Z " fill="#FBB728" transform="translate(71.3125,159.9375)"/>
<path d="M0 0 C0 1.98 0 3.96 0 6 C-2.75078884 6.91692961 -4.35948913 7.10886083 -7.1875 7.0625 C-9.0746875 7.0315625 -9.0746875 7.0315625 -11 7 C-11.11102051 7.81339844 -11.22204102 8.62679687 -11.33642578 9.46484375 C-12.56492221 18.28125812 -13.94544633 27.06020623 -15.49462891 35.82568359 C-15.75053661 37.28852958 -16.00043402 38.75243841 -16.24462891 40.21728516 C-16.60508064 42.37665361 -16.98409441 44.53204752 -17.3671875 46.6875 C-17.69372314 48.58048828 -17.69372314 48.58048828 -18.02685547 50.51171875 C-19.25220604 54.90404412 -21.10858944 58.53541217 -24.765625 61.3671875 C-28.08130233 62.30624297 -31.33786909 62.20885199 -34.75 62.125 C-35.44738281 62.11597656 -36.14476563 62.10695312 -36.86328125 62.09765625 C-38.57566958 62.07419888 -40.28788004 62.03833104 -42 62 C-42.125 56.25 -42.125 56.25 -41 54 C-40.15695313 54.0721875 -39.31390625 54.144375 -38.4453125 54.21875 C-37.34960938 54.3115625 -36.25390625 54.404375 -35.125 54.5 C-33.48917969 54.63921875 -33.48917969 54.63921875 -31.8203125 54.78125 C-30.21670436 54.90562958 -28.60842449 55 -27 55 C-26.86948242 54.26700684 -26.73896484 53.53401367 -26.60449219 52.77880859 C-26.42047852 51.74578613 -26.23646484 50.71276367 -26.046875 49.6484375 C-25.84175293 48.49666016 -25.63663086 47.34488281 -25.42529297 46.15820312 C-24.97272453 43.62277274 -24.51860681 41.08761843 -24.06298828 38.55273438 C-22.97566847 32.50036895 -21.90005966 26.44738438 -20.8828125 20.3828125 C-20.71168945 19.38459473 -20.54056641 18.38637695 -20.36425781 17.35791016 C-20.0448075 15.49189951 -19.7338706 13.62440577 -19.43261719 11.75537109 C-18.02901321 3.67142138 -18.02901321 3.67142138 -15 1 C-12.6953125 0.13671875 -12.6953125 0.13671875 -10.125 -0.3125 C-9.28195313 -0.47363281 -8.43890625 -0.63476562 -7.5703125 -0.80078125 C-4.83601948 -1.01270974 -2.6505466 -0.66026161 0 0 Z " fill="#F7A930" transform="translate(107,64)"/>
<path d="M0 0 C1.32 0 2.64 0 4 0 C2.83004407 11.12146346 1.22785794 22.04134741 -1 33 C-1.18691406 33.96679688 -1.37382813 34.93359375 -1.56640625 35.9296875 C-2.74649299 41.74649299 -2.74649299 41.74649299 -5 44 C-13.20588235 44.52941176 -13.20588235 44.52941176 -17 42 C-17.61875 42.66 -18.2375 43.32 -18.875 44 C-21 46 -21 46 -23 46 C-23.33 44.02 -23.66 42.04 -24 40 C-23.34 40 -22.68 40 -22 40 C-21.34 38.02 -20.68 36.04 -20 34 C-19.34 34 -18.68 34 -18 34 C-17.7525 33.175 -17.505 32.35 -17.25 31.5 C-15.81295189 27.47626529 -13.97645485 23.78020976 -12 20 C-11.34 20 -10.68 20 -10 20 C-9.01 16.7 -8.02 13.4 -7 10 C-6.34 10 -5.68 10 -5 10 C-5 8.68 -5 7.36 -5 6 C-4.34 6 -3.68 6 -3 6 C-2.690625 5.195625 -2.38125 4.39125 -2.0625 3.5625 C-1 1 -1 1 0 0 Z " fill="#D6282D" transform="translate(84,74)"/>
<path d="M0 0 C2 2 2 2 2 7 C-37.6 7 -77.2 7 -118 7 C-118 6.34 -118 5.68 -118 5 C-121.3 4.67 -124.6 4.34 -128 4 C-128 3.34 -128 2.68 -128 2 C-85.76 2 -43.52 2 0 2 C0 1.34 0 0.68 0 0 Z " fill="#FBB51F" transform="translate(174,134)"/>
<path d="M0 0 C0.33 1.32 0.66 2.64 1 4 C0.34 4 -0.32 4 -1 4 C-1.12375 4.721875 -1.2475 5.44375 -1.375 6.1875 C-1.9904931 8.95721894 -2.88444374 11.3970354 -4 14 C-4.66 14 -5.32 14 -6 14 C-6.2475 14.825 -6.495 15.65 -6.75 16.5 C-10.60869565 27.30434783 -10.60869565 27.30434783 -14 29 C-14.72159424 30.64363134 -15.39351421 32.31050386 -16 34 C-16.66 34 -17.32 34 -18 34 C-17.34 35.65 -16.68 37.3 -16 39 C-14.35 37.68 -12.7 36.36 -11 35 C-10.505 35.309375 -10.01 35.61875 -9.5 35.9375 C-6.02013219 37.41644382 -2.75971491 37.62402851 1 38 C1.33 37.01 1.66 36.02 2 35 C2.33 35.66 2.66 36.32 3 37 C1.78125 38.515625 1.78125 38.515625 0 40 C-2.15625 40.109375 -2.15625 40.109375 -4.5 39.75 C-5.2734375 39.64171875 -6.046875 39.5334375 -6.84375 39.421875 C-9 39 -9 39 -12 38 C-12.33 40.64 -12.66 43.28 -13 46 C-10.60250616 45.91254425 -8.20851779 45.80562925 -5.8125 45.6875 C-5.13896484 45.66494141 -4.46542969 45.64238281 -3.77148438 45.61914062 C0.59920931 45.3846156 3.53645918 44.7144941 7 42 C10.75385639 34.63666631 11.61745693 26.07954247 13 18 C13.33 18 13.66 18 14 18 C14.37159688 27.66151897 13.54355749 36.86944901 8 45 C8.66 45 9.32 45 10 45 C10 44.34 10 43.68 10 43 C10.99 43 11.98 43 13 43 C12.95875 41.88625 12.9175 40.7725 12.875 39.625 C13 36 13 36 15 34 C14.67 37.63 14.34 41.26 14 45 C16.97 44.505 16.97 44.505 20 44 C21.32 37.4 22.64 30.8 24 24 C24.33 24 24.66 24 25 24 C25.495 26.97 25.495 26.97 26 30 C26.33 30 26.66 30 27 30 C27.07654536 34.51617599 27.10228696 38.59085217 26 43 C25.34 43 24.68 43 24 43 C24 40.36 24 37.72 24 35 C23.80083984 36.17369141 23.80083984 36.17369141 23.59765625 37.37109375 C23.42105469 38.38300781 23.24445313 39.39492187 23.0625 40.4375 C22.88847656 41.44683594 22.71445313 42.45617187 22.53515625 43.49609375 C22 46 22 46 21 47 C18.51329638 47.04881872 16.04812744 47.04131313 13.5625 47 C7.12997577 46.94555133 0.73555704 47.07973646 -5.6875 47.4375 C-6.42863037 47.47681641 -7.16976074 47.51613281 -7.93334961 47.55664062 C-11.13530727 47.74651609 -14.23363213 48.04113431 -17.39453125 48.59765625 C-20 49 -20 49 -22 48 C-22 49.65 -22 51.3 -22 53 C-16.72 53.33 -11.44 53.66 -6 54 C-6 54.66 -6 55.32 -6 56 C-13.92 56 -21.84 56 -30 56 C-28.41822807 51.25468421 -26.69515301 47.41759316 -24.1875 43.1875 C-23.46062095 41.93768405 -22.7340574 40.68768455 -22.0078125 39.4375 C-21.01394531 37.7359375 -21.01394531 37.7359375 -20 36 C-17.14283623 30.99573683 -14.42894441 25.92227743 -11.74951172 20.82128906 C-8.03322913 13.74949833 -4.24442337 6.7744326 0 0 Z " fill="#CF3120" transform="translate(78,80)"/>
<path d="M0 0 C0.33 0 0.66 0 1 0 C1.33 2.64 1.66 5.28 2 8 C2.66 8 3.32 8 4 8 C3.67 10.31 3.34 12.62 3 15 C5.31 15 7.62 15 10 15 C10 12.69 10 10.38 10 8 C10.66 8 11.32 8 12 8 C12 9.32 12 10.64 12 12 C12.66 12 13.32 12 14 12 C13.67 10.02 13.34 8.04 13 6 C13.99 5.34 14.98 4.68 16 4 C15.47703913 13.52149445 13.8815863 22.67490566 12 32 C11.01 32 10.02 32 9 32 C8.505 29.525 8.505 29.525 8 27 C7.79503906 28.21558594 7.59007813 29.43117188 7.37890625 30.68359375 C7.10698039 32.26826514 6.83483357 33.85289863 6.5625 35.4375 C6.42779297 36.23994141 6.29308594 37.04238281 6.15429688 37.86914062 C5.11328125 43.88671875 5.11328125 43.88671875 4 45 C2.00041636 45.04080783 -0.00045254 45.04254356 -2 45 C-2 42.03 -2 39.06 -2 36 C-2.33 38.31 -2.66 40.62 -3 43 C-3.99 43 -4.98 43 -6 43 C-6 43.66 -6 44.32 -6 45 C-6.66 45 -7.32 45 -8 45 C-6.125 39.125 -6.125 39.125 -5 38 C-3.74945096 32.45924624 -2.84938725 26.93623569 -3.0625 21.25 C-3.2630983 14.05206088 -1.46114041 7.00999507 0 0 Z " fill="#D03224" transform="translate(94,80)"/>
<path d="M0 0 C2.4377963 -0.05397335 4.87439685 -0.09365616 7.3125 -0.125 C8.00279297 -0.14175781 8.69308594 -0.15851563 9.40429688 -0.17578125 C13.17135396 -0.21217794 14.78431704 -0.14378864 18 2 C18.328125 4.6796875 18.328125 4.6796875 18.25 7.875 C18.23453125 8.92429687 18.2190625 9.97359375 18.203125 11.0546875 C18.03275976 13.52498345 17.70723334 15.63875322 17 18 C17.99 18 18.98 18 20 18 C19.67 19.65 19.34 21.3 19 23 C18.05125 22.979375 17.1025 22.95875 16.125 22.9375 C13.00045715 22.92479861 9.97758036 23.20022265 6.875 23.5625 C3.2906891 23.95834674 0.52674763 23.80611374 -3 23 C-4.67099977 23.31088368 -6.33871537 23.64080332 -8 24 C-8.66 23.67 -9.32 23.34 -10 23 C-9.8125 20.625 -9.8125 20.625 -9 18 C-7.33927151 17.31867549 -5.672233 16.65257873 -4 16 C-2.84478498 13.52869082 -2.84478498 13.52869082 -2 11 C1.52679099 8.64880601 3.02879485 8.78556548 7.1875 8.875 C8.81751953 8.90207031 8.81751953 8.90207031 10.48046875 8.9296875 C11.72763672 8.96449219 11.72763672 8.96449219 13 9 C13 7.68 13 6.36 13 5 C8.71 5 4.42 5 0 5 C0 3.35 0 1.7 0 0 Z " fill="#F89F36" transform="translate(132,102)"/>
<path d="M0 0 C0.99 0.33 1.98 0.66 3 1 C3.99250545 6.70690634 4.10477512 12.21408489 4 18 C3.01 18.33 2.02 18.66 1 19 C1 20.98 1 22.96 1 25 C0.34 25 -0.32 25 -1 25 C-1 23.68 -1 22.36 -1 21 C-1.66 21 -2.32 21 -3 21 C-3 23.31 -3 25.62 -3 28 C-5.31 28 -7.62 28 -10 28 C-9.67 25.69 -9.34 23.38 -9 21 C-9.66 21 -10.32 21 -11 21 C-11.33 21.99 -11.66 22.98 -12 24 C-12.02696009 21.2291017 -12.04681952 18.4584655 -12.0625 15.6875 C-12.07087891 14.90181641 -12.07925781 14.11613281 -12.08789062 13.30664062 C-12.09111328 12.54931641 -12.09433594 11.79199219 -12.09765625 11.01171875 C-12.10289307 10.31522217 -12.10812988 9.61872559 -12.11352539 8.90112305 C-12 7 -12 7 -11 4 C-7.78548731 2.39274365 -4.56387464 2.94251815 -1 3 C-0.67 2.01 -0.34 1.02 0 0 Z " fill="#D5282D" transform="translate(107,67)"/>
<path d="M0 0 C0.33 0 0.66 0 1 0 C0.5259334 11.85166497 -0.98136349 23.31983906 -3 35 C-2.34 34.01 -1.68 33.02 -1 32 C-0.34 32.33 0.32 32.66 1 33 C1 31.68 1 30.36 1 29 C5.09341499 28.97530425 9.18680121 28.95714207 13.28027344 28.94506836 C14.67318477 28.9400357 16.0660908 28.93320902 17.45898438 28.92456055 C19.45961246 28.91244848 21.46027888 28.90729588 23.4609375 28.90234375 C24.66540527 28.89710693 25.86987305 28.89187012 27.11083984 28.88647461 C30 29 30 29 32 30 C32 35.94 32 41.88 32 48 C31.34 48 30.68 48 30 48 C30.33 42.72 30.66 37.44 31 32 C27.43913342 30.81304447 24.02668976 30.64904582 20.3125 30.4375 C19.2596582 30.37272461 19.2596582 30.37272461 18.18554688 30.30664062 C16.45724794 30.2008264 14.7286489 30.09993419 13 30 C13 31.65 13 33.3 13 35 C17.29 35 21.58 35 26 35 C26 36.32 26 37.64 26 39 C25.16855469 39.04898438 24.33710938 39.09796875 23.48046875 39.1484375 C22.39378906 39.22320312 21.30710938 39.29796875 20.1875 39.375 C19.10855469 39.44460937 18.02960938 39.51421875 16.91796875 39.5859375 C13.81373814 39.81195733 13.81373814 39.81195733 11 42 C9.79549696 44.55183404 9.79549696 44.55183404 9 47 C6 47 6 47 3.75 45.25 C2 43 2 43 1.9375 41.0625 C3.42483507 38.17532017 5.71353524 36.28646476 8 34 C8.86119134 31.82653432 8.86119134 31.82653432 9 30 C7.02 30 5.04 30 3 30 C2.7525 30.763125 2.505 31.52625 2.25 32.3125 C0.8707363 35.27791695 -0.19257315 36.38360273 -3 38 C-3.99 38 -4.98 38 -6 38 C-5.43738054 28.8428833 -3.76038438 19.98155294 -2 11 C-1.59999149 8.83410026 -1.20355014 6.66753507 -0.8125 4.5 C-0.65394531 3.6234375 -0.49539062 2.746875 -0.33203125 1.84375 C-0.22246094 1.2353125 -0.11289063 0.626875 0 0 Z " fill="#D03D1D" transform="translate(119,72)"/>
<path d="M0 0 C2.64 0 5.28 0 8 0 C8.33 0.66 8.66 1.32 9 2 C9.33 1.34 9.66 0.68 10 0 C10.99 0 11.98 0 13 0 C13 3.96 13 7.92 13 12 C14.32 12 15.64 12 17 12 C17 8.04 17 4.08 17 0 C19.64 0 22.28 0 25 0 C25 4.62 25 9.24 25 14 C24.01 14 23.02 14 22 14 C22 13.34 22 12.68 22 12 C21.34 12 20.68 12 20 12 C20 12.99 20 13.98 20 15 C18.54207116 15.05399736 17.08357288 15.09279177 15.625 15.125 C14.81289063 15.14820313 14.00078125 15.17140625 13.1640625 15.1953125 C11 15 11 15 9 13 C8.67 13.33 8.34 13.66 8 14 C5.32941149 14.14115161 2.67567762 14.04247107 0 14 C0 9.38 0 4.76 0 0 Z " fill="#F6A330" transform="translate(45,162)"/>
<path d="M0 0 C5.94 0.66 11.88 1.32 18 2 C18 2.99 18 3.98 18 5 C16.68 5 15.36 5 14 5 C14 8.63 14 12.26 14 16 C13.01 16 12.02 16 11 16 C11 12.7 11 9.4 11 6 C10.01 6 9.02 6 8 6 C8.020625 7.093125 8.04125 8.18625 8.0625 9.3125 C8 13 8 13 7 16 C4.69 16 2.38 16 0 16 C0 15.34 0 14.68 0 14 C1.65 14 3.3 14 5 14 C5 12.68 5 11.36 5 10 C3.35 10 1.7 10 0 10 C-0.33 9.01 -0.66 8.02 -1 7 C-1.12375 8.11375 -1.2475 9.2275 -1.375 10.375 C-2 14 -2 14 -4 16 C-7.5625 16.1875 -7.5625 16.1875 -11 16 C-12 15 -12 15 -12.09765625 12.05859375 C-12.08605469 10.86363281 -12.07445312 9.66867188 -12.0625 8.4375 C-12.05347656 7.23996094 -12.04445312 6.04242188 -12.03515625 4.80859375 C-12.02355469 3.88175781 -12.01195312 2.95492187 -12 2 C-11.01 2 -10.02 2 -9 2 C-9 5.96 -9 9.92 -9 14 C-8.01 13.67 -7.02 13.34 -6 13 C-5.67 9.37 -5.34 5.74 -5 2 C-3.35 2 -1.7 2 0 2 C0 1.34 0 0.68 0 0 Z " fill="#F49F2D" transform="translate(157,160)"/>
<path d="M0 0 C1.03274898 2.68514734 1.07566569 3.7921588 0.07421875 6.54296875 C-0.38339844 7.41566406 -0.84101562 8.28835937 -1.3125 9.1875 C-1.76238281 10.06792969 -2.21226563 10.94835938 -2.67578125 11.85546875 C-4 14 -4 14 -6 15 C-8.16888759 18.99531924 -8.01661577 21.62855218 -7 26 C-6.34773438 25.98839844 -5.69546875 25.97679688 -5.0234375 25.96484375 C-0.2238086 25.91529006 4.27784685 26.00586249 9 27 C9 26.34 9 25.68 9 25 C11.64 25 14.28 25 17 25 C17 25.33 17 25.66 17 26 C15.02 26 13.04 26 11 26 C10.95101562 26.83402344 10.90203125 27.66804688 10.8515625 28.52734375 C10.40682732 35.22137501 9.6531796 41.49749359 8 48 C7.67 48 7.34 48 7 48 C7.01160156 47.25234375 7.02320312 46.5046875 7.03515625 45.734375 C7.04417969 44.74953125 7.05320312 43.7646875 7.0625 42.75 C7.07410156 41.77546875 7.08570312 40.8009375 7.09765625 39.796875 C7.0111252 37.31862574 6.84745178 35.32383005 6 33 C5.34 32.67 4.68 32.34 4 32 C3.67 31.01 3.34 30.02 3 29 C-1.62 29.33 -6.24 29.66 -11 30 C-11.99 32.97 -12.98 35.94 -14 39 C-14.763125 39.061875 -15.52625 39.12375 -16.3125 39.1875 C-19.84268623 40.2547656 -20.30250226 41.8475042 -22 45 C-22.66 45 -23.32 45 -24 45 C-23.01 42.03 -23.01 42.03 -22 39 C-21.34 39 -20.68 39 -20 39 C-19.92265625 38.33613281 -19.8453125 37.67226562 -19.765625 36.98828125 C-18.73711359 32.97393825 -16.82334396 29.75215281 -14.75 26.1875 C-14.13656738 25.11411377 -14.13656738 25.11411377 -13.51074219 24.01904297 C-11.14847505 19.90712205 -8.69511729 15.87072234 -6.12890625 11.8828125 C-3.83503117 8.0570416 -1.93413079 4.01640777 0 0 Z " fill="#D13223" transform="translate(103,35)"/>
<path d="M0 0 C1.98 0 3.96 0 6 0 C4.25603865 20.74396135 4.25603865 20.74396135 2 23 C0.00041636 23.04080783 -2.00045254 23.04254356 -4 23 C-3.54593375 15.04601192 -2.12888539 7.67202093 0 0 Z " fill="#F8A831" transform="translate(96,102)"/>
<path d="M0 0 C0 0.66 0 1.32 0 2 C-0.66 2 -1.32 2 -2 2 C-2 4.97 -2 7.94 -2 11 C-4 10 -4 10 -4.6328125 8.15234375 C-4.79523438 7.42144531 -4.95765625 6.69054687 -5.125 5.9375 C-5.29257813 5.20402344 -5.46015625 4.47054687 -5.6328125 3.71484375 C-5.75398438 3.14894531 -5.87515625 2.58304688 -6 2 C-7.32 2 -8.64 2 -10 2 C-10 6.62 -10 11.24 -10 16 C-9.01 16 -8.02 16 -7 16 C-7 13.36 -7 10.72 -7 8 C-4.84622436 10.62198774 -3.59927826 12.64404172 -3 16 C-7.14202082 18.00825252 -10.43961691 18.08594362 -15 18 C-15.02684679 15.35409986 -15.04676357 12.70846904 -15.0625 10.0625 C-15.07087891 9.30775391 -15.07925781 8.55300781 -15.08789062 7.77539062 C-15.09652441 5.85005687 -15.05224333 3.92464419 -15 2 C-13.37396748 0.37396748 -11.42581254 0.64396221 -9.1875 0.4375 C-8.31480469 0.35371094 -7.44210938 0.26992187 -6.54296875 0.18359375 C-4.36678488 0.02648063 -2.18184801 0 0 0 Z " fill="#F7AF2D" transform="translate(107,160)"/>
<path d="M0 0 C2.4377963 -0.05397335 4.87439685 -0.09365616 7.3125 -0.125 C8.00279297 -0.14175781 8.69308594 -0.15851563 9.40429688 -0.17578125 C13.17135396 -0.21217794 14.78431704 -0.14378864 18 2 C18.29296875 4.8203125 18.29296875 4.8203125 18.1875 8.125 C18.16042969 9.22070312 18.13335937 10.31640625 18.10546875 11.4453125 C18.07066406 12.28835937 18.03585938 13.13140625 18 14 C17.01 14.33 16.02 14.66 15 15 C15 14.01 15 13.02 15 12 C11.99221479 10.99740493 9.46179353 10.69685358 6.3125 10.4375 C5.31863281 10.35371094 4.32476562 10.26992187 3.30078125 10.18359375 C2.54152344 10.12300781 1.78226563 10.06242187 1 10 C1 9.67 1 9.34 1 9 C4.96 9 8.92 9 13 9 C13 7.68 13 6.36 13 5 C8.71 5 4.42 5 0 5 C0 3.35 0 1.7 0 0 Z " fill="#F99C39" transform="translate(132,102)"/>
<path d="M0 0 C0.66 0 1.32 0 2 0 C2 0.99 2 1.98 2 3 C6.62 3 11.24 3 16 3 C16 4.32 16 5.64 16 7 C14.75283203 7.07347656 14.75283203 7.07347656 13.48046875 7.1484375 C12.39378906 7.22320312 11.30710938 7.29796875 10.1875 7.375 C9.10855469 7.44460937 8.02960938 7.51421875 6.91796875 7.5859375 C3.81373814 7.81195733 3.81373814 7.81195733 1 10 C-0.20450304 12.55183404 -0.20450304 12.55183404 -1 15 C-4 15 -4 15 -6.25 13.25 C-8 11 -8 11 -8.125 9 C-6.45634459 6.0335015 -3.82145892 4.82219222 -1 3 C-0.67 2.01 -0.34 1.02 0 0 Z " fill="#CC351F" transform="translate(129,104)"/>
<path d="M0 0 C2 2.125 2 2.125 3 5 C2.875 8.1875 2.875 8.1875 2 11 C-1.47042703 13.31361802 -2.91834173 13.51020728 -7 13 C-9.59814888 10.74827097 -9.95716454 9.34982295 -10.375 5.9375 C-10 3 -10 3 -8.9375 1.125 C-5.82393204 -0.68287817 -3.50689795 -0.50098542 0 0 Z " fill="#C1680A" transform="translate(172,89)"/>
<path d="M0 0 C2.31 0 4.62 0 7 0 C9 2 9 2 9.23046875 4.3125 C9.20919922 5.6428125 9.20919922 5.6428125 9.1875 7 C9.17783203 8.3303125 9.17783203 8.3303125 9.16796875 9.6875 C9 12 9 12 8 14 C5.36 14 2.72 14 0 14 C0 9.38 0 4.76 0 0 Z " fill="#CC4115" transform="translate(81,162)"/>
<path d="M0 0 C0.97710937 -0.01417969 1.95421875 -0.02835937 2.9609375 -0.04296875 C5.625 0.1875 5.625 0.1875 8.625 2.1875 C8.625 3.1775 8.625 4.1675 8.625 5.1875 C9.285 5.1875 9.945 5.1875 10.625 5.1875 C10.955 7.1675 11.285 9.1475 11.625 11.1875 C10.635 11.1875 9.645 11.1875 8.625 11.1875 C8.295 9.2075 7.965 7.2275 7.625 5.1875 C6.965 5.1875 6.305 5.1875 5.625 5.1875 C5.295 6.1775 4.965 7.1675 4.625 8.1875 C-2.125 9.3125 -2.125 9.3125 -4.375 8.1875 C-4.705 7.1975 -5.035 6.2075 -5.375 5.1875 C-6.035 5.1875 -6.695 5.1875 -7.375 5.1875 C-6.20163567 -0.00882775 -5.31288072 0.03486142 0 0 Z " fill="#F4B028" transform="translate(138.375,111.8125)"/>
<path d="M0 0 C2 2 2 2 2 5 C3.65 5 5.3 5 7 5 C7 6.32 7 7.64 7 9 C5.35 9 3.7 9 2 9 C2 9.66 2 10.32 2 11 C4.31 11 6.62 11 9 11 C9.33 7.7 9.66 4.4 10 1 C10.99 1 11.98 1 13 1 C13.19466332 2.79090253 13.38051213 4.58276505 13.5625 6.375 C13.66691406 7.37273437 13.77132812 8.37046875 13.87890625 9.3984375 C14 12 14 12 13 14 C1.615 13.505 1.615 13.505 -10 13 C-10 12.67 -10 12.34 -10 12 C-8.329375 11.814375 -8.329375 11.814375 -6.625 11.625 C-2.96896323 11.3534187 -2.96896323 11.3534187 -1 9 C-0.53993654 6.79749008 -0.53993654 6.79749008 -0.375 4.375 C-0.30023438 3.55773437 -0.22546875 2.74046875 -0.1484375 1.8984375 C-0.09945312 1.27195313 -0.05046875 0.64546875 0 0 Z " fill="#FCC31A" transform="translate(155,165)"/>
<path d="M0 0 C7 0 7 0 9 1 C9.07427838 4.34252724 9.06546953 6.8035914 8 10 C8.87483915 12.16715557 8.87483915 12.16715557 10 14 C8.68 14 7.36 14 6 14 C4.25 12 4.25 12 3 10 C2.67 11.32 2.34 12.64 2 14 C1.34 14 0.68 14 0 14 C0 9.38 0 4.76 0 0 Z " fill="#D44F1A" transform="translate(134,162)"/>
<path d="M0 0 C0 1.98 0 3.96 0 6 C-2.75078884 6.91692961 -4.35948913 7.10886083 -7.1875 7.0625 C-9.0746875 7.0315625 -9.0746875 7.0315625 -11 7 C-11.33 6.01 -11.66 5.02 -12 4 C-12.99 4 -13.98 4 -15 4 C-15 5.32 -15 6.64 -15 8 C-15.99 8 -16.98 8 -18 8 C-17.38722388 5.03824877 -16.74627478 3.61941217 -15 1 C-12.79296875 0.234375 -12.79296875 0.234375 -10.1875 -0.25 C-8.90939453 -0.50523438 -8.90939453 -0.50523438 -7.60546875 -0.765625 C-4.84238833 -1.01417796 -2.67863623 -0.67326584 0 0 Z " fill="#F6A034" transform="translate(107,64)"/>
<path d="M0 0 C1.32 0 2.64 0 4 0 C4.99 2.64 5.98 5.28 7 8 C7.33 5.36 7.66 2.72 8 0 C8.66 0 9.32 0 10 0 C10 4.62 10 9.24 10 14 C8.68 13.67 7.36 13.34 6 13 C4.75 10.4375 4.75 10.4375 4 8 C3.67 9.98 3.34 11.96 3 14 C2.01 14 1.02 14 0 14 C0 9.38 0 4.76 0 0 Z " fill="#CC3610" transform="translate(97,162)"/>
<path d="M0 0 C0.66 0 1.32 0 2 0 C5 6.625 5 6.625 5 10 C3.5 11.6875 3.5 11.6875 2 13 C2.78130071 15.49552484 2.78130071 15.49552484 4 18 C4.99 18.33 5.98 18.66 7 19 C6.01 20.32 5.02 21.64 4 23 C1.03 17.72 -1.94 12.44 -5 7 C-4.01 6.34 -3.02 5.68 -2 5 C-0.79549696 2.44816596 -0.79549696 2.44816596 0 0 Z " fill="#F8BC19" transform="translate(160,94)"/>
<path d="M0 0 C0.66 0 1.32 0 2 0 C2.061875 0.61875 2.12375 1.2375 2.1875 1.875 C2.828919 4.27761141 2.828919 4.27761141 5.5625 5.25 C6.366875 5.4975 7.17125 5.745 8 6 C8.33 5.34 8.66 4.68 9 4 C9.99 4 10.98 4 12 4 C12.02715383 5.74991334 12.04646551 7.49994945 12.0625 9.25 C12.07410156 10.22453125 12.08570312 11.1990625 12.09765625 12.203125 C12.01195577 14.65758678 11.70706066 16.66168914 11 19 C11.66 19.33 12.32 19.66 13 20 C12.67 21.32 12.34 22.64 12 24 C11.74307373 23.51120361 11.48614746 23.02240723 11.22143555 22.51879883 C10.04493943 20.28258238 8.86623884 18.04753503 7.6875 15.8125 C7.28337891 15.04357422 6.87925781 14.27464844 6.46289062 13.48242188 C4.77899522 10.29260374 3.09249875 7.15094022 1.20703125 4.07421875 C0 2 0 2 0 0 Z " fill="#FABB1B" transform="translate(115,28)"/>
<path d="M0 0 C0.33 1.32 0.66 2.64 1 4 C0.34 4 -0.32 4 -1 4 C-1.12375 4.721875 -1.2475 5.44375 -1.375 6.1875 C-1.9904931 8.95721894 -2.88444374 11.3970354 -4 14 C-4.66 14 -5.32 14 -6 14 C-6.2475 14.825 -6.495 15.65 -6.75 16.5 C-10.60869565 27.30434783 -10.60869565 27.30434783 -14 29 C-14.72159424 30.64363134 -15.39351421 32.31050386 -16 34 C-16.66 34 -17.32 34 -18 34 C-18.12375 34.804375 -18.2475 35.60875 -18.375 36.4375 C-18.684375 37.7059375 -18.684375 37.7059375 -19 39 C-19.99 39.495 -19.99 39.495 -21 40 C-20.09715233 35.97822401 -19.198027 33.01312569 -16.6640625 29.7421875 C-13.97167689 26.08569921 -12.00694659 22.27877435 -10.0625 18.1875 C-7.01314335 11.9200246 -3.73834685 5.89072837 0 0 Z " fill="#CB3F18" transform="translate(78,80)"/>
<path d="M0 0 C1.98 0 3.96 0 6 0 C7.31052767 4.30422506 6.45785552 7.9370534 5.5625 12.25 C5.41490234 12.99507812 5.26730469 13.74015625 5.11523438 14.5078125 C4.7511306 16.34007665 4.37658591 18.17026053 4 20 C3.67 20 3.34 20 3 20 C2.67 16.37 2.34 12.74 2 9 C1.34 9 0.68 9 0 9 C-0.33 10.32 -0.66 11.64 -1 13 C-2.40742022 10.18515955 -1.66652164 8.43063887 -1.0625 5.375 C-0.86785156 4.37210937 -0.67320313 3.36921875 -0.47265625 2.3359375 C-0.31667969 1.56507812 -0.16070312 0.79421875 0 0 Z " fill="#F5A72F" transform="translate(114,63)"/>
<path d="M0 0 C0.66 0.33 1.32 0.66 2 1 C2.05411124 3.41696872 2.09372278 5.83271787 2.125 8.25 C2.15013672 9.27287109 2.15013672 9.27287109 2.17578125 10.31640625 C2.2126471 14.1135888 1.97174185 16.73963947 0 20 C0 20.66 0 21.32 0 22 C-3.63423209 24.32590854 -6.77088331 24.16265833 -11 24 C-8 22 -8 22 -5.875 21.0625 C-3.65504271 20.08091355 -3.65504271 20.08091355 -3 17 C-2.34 17 -1.68 17 -1 17 C-1.33 16.34 -1.66 15.68 -2 15 C-2.07033769 13.12620395 -2.0843022 11.24998898 -2.0625 9.375 C-2.05347656 8.37210938 -2.04445313 7.36921875 -2.03515625 6.3359375 C-2.02355469 5.56507812 -2.01195313 4.79421875 -2 4 C-1.34 4 -0.68 4 0 4 C0 2.68 0 1.36 0 0 Z " fill="#F6B225" transform="translate(85,100)"/>
<path d="M0 0 C0.99 0 1.98 0 3 0 C3 3.96 3 7.92 3 12 C3.99 11.67 4.98 11.34 6 11 C6.33 7.37 6.66 3.74 7 0 C7.66 0 8.32 0 9 0 C9.02685938 2.14576637 9.04633088 4.29162645 9.0625 6.4375 C9.07410156 7.63246094 9.08570313 8.82742187 9.09765625 10.05859375 C9 13 9 13 8 14 C4.5 14.125 4.5 14.125 1 14 C0 13 0 13 -0.09765625 10.05859375 C-0.08605469 8.86363281 -0.07445312 7.66867188 -0.0625 6.4375 C-0.05347656 5.23996094 -0.04445312 4.04242188 -0.03515625 2.80859375 C-0.02355469 1.88175781 -0.01195312 0.95492187 0 0 Z " fill="#CC3E11" transform="translate(145,162)"/>
<path d="M0 0 C0.66 0 1.32 0 2 0 C2 3.96 2 7.92 2 12 C3.32 12 4.64 12 6 12 C6 8.04 6 4.08 6 0 C6.99 0 7.98 0 9 0 C9.05410687 1.77049689 9.09284119 3.54146849 9.125 5.3125 C9.14820312 6.29863281 9.17140625 7.28476563 9.1953125 8.30078125 C9 11 9 11 7 14 C3.9375 14.25 3.9375 14.25 1 14 C0 13 0 13 -0.09765625 10.05859375 C-0.08605469 8.86363281 -0.07445312 7.66867188 -0.0625 6.4375 C-0.05347656 5.23996094 -0.04445312 4.04242188 -0.03515625 2.80859375 C-0.02355469 1.88175781 -0.01195312 0.95492187 0 0 Z " fill="#C63B0D" transform="translate(56,162)"/>
<path d="M0 0 C3.56933544 0.55267129 4.81511101 1.63095339 6.9375 4.5 C9.25669229 7.34512393 9.25669229 7.34512393 12.5 9 C15.43081536 9 18.13430477 8.59979668 21 8 C21.33 8.66 21.66 9.32 22 10 C20.08591243 10.24979445 18.16848389 10.47408014 16.25 10.6875 C15.18265625 10.81511719 14.1153125 10.94273438 13.015625 11.07421875 C9.59442134 10.99001814 8.44579177 10.30925485 6 8 C5.34 8.66 4.68 9.32 4 10 C3.67 8.68 3.34 7.36 3 6 C3.66 6 4.32 6 5 6 C5 5.34 5 4.68 5 4 C3.68 4 2.36 4 1 4 C0.34 5.65 -0.32 7.3 -1 9 C-2.60031344 5.79937313 -1.03173691 3.27728194 0 0 Z " fill="#CD351F" transform="translate(112,116)"/>
<path d="M0 0 C0.66 0 1.32 0 2 0 C0.07289294 19.00455581 0.07289294 19.00455581 -2 27 C-2.99 27 -3.98 27 -5 27 C-5 27.66 -5 28.32 -5 29 C-5.66 29 -6.32 29 -7 29 C-5.125 23.125 -5.125 23.125 -4 22 C-3.71671501 20.62547455 -3.48649816 19.23988659 -3.28125 17.8515625 C-3.15363281 17.01109375 -3.02601562 16.170625 -2.89453125 15.3046875 C-2.76433594 14.42039062 -2.63414063 13.53609375 -2.5 12.625 C-2.24195494 10.88766693 -1.98163101 9.15067041 -1.71875 7.4140625 C-1.60466797 6.6401416 -1.49058594 5.8662207 -1.37304688 5.06884766 C-1 3 -1 3 0 0 Z " fill="#D8282E" transform="translate(93,96)"/>
<path d="M0 0 C1.4540625 0.0309375 1.4540625 0.0309375 2.9375 0.0625 C2.9375 1.0525 2.9375 2.0425 2.9375 3.0625 C1.6175 3.0625 0.2975 3.0625 -1.0625 3.0625 C-1.0625 4.0525 -1.0625 5.0425 -1.0625 6.0625 C0.2575 6.3925 1.5775 6.7225 2.9375 7.0625 C3.87173645 10.07281744 3.98199911 10.92900268 2.9375 14.0625 C0.6275 14.0625 -1.6825 14.0625 -4.0625 14.0625 C-4.0625 13.4025 -4.0625 12.7425 -4.0625 12.0625 C-2.4125 12.0625 -0.7625 12.0625 0.9375 12.0625 C0.9375 10.7425 0.9375 9.4225 0.9375 8.0625 C-0.7125 8.0625 -2.3625 8.0625 -4.0625 8.0625 C-4.10491723 5.72955225 -4.10342937 3.39547433 -4.0625 1.0625 C-3.0625 0.0625 -3.0625 0.0625 0 0 Z " fill="#C93E13" transform="translate(161.0625,161.9375)"/>
<path d="M0 0 C2.64 0 5.28 0 8 0 C7.67 1.32 7.34 2.64 7 4 C4.525 3.01 4.525 3.01 2 2 C2.33 5.3 2.66 8.6 3 12 C4.32 12 5.64 12 7 12 C7 11.01 7 10.02 7 9 C7.66 9 8.32 9 9 9 C8.67 10.65 8.34 12.3 8 14 C5.36 14 2.72 14 0 14 C0 9.38 0 4.76 0 0 Z " fill="#C93F11" transform="translate(45,162)"/>
<path d="M0 0 C0 0.99 0 1.98 0 3 C-1.98 3 -3.96 3 -6 3 C-6 5.97 -6 8.94 -6 12 C-4.68 12 -3.36 12 -2 12 C-2 10.35 -2 8.7 -2 7 C-1.34 7 -0.68 7 0 7 C0 9.31 0 11.62 0 14 C-2.33294775 14.04241723 -4.66702567 14.04092937 -7 14 C-8 13 -8 13 -8.09765625 10.27734375 C-8.08605469 9.17519531 -8.07445313 8.07304687 -8.0625 6.9375 C-8.05347656 5.83277344 -8.04445313 4.72804687 -8.03515625 3.58984375 C-8.02355469 2.73519531 -8.01195313 1.88054687 -8 1 C-5.29120665 -0.35439668 -2.99066732 -0.06501451 0 0 Z " fill="#CA3511" transform="translate(118,162)"/>
<path d="M0 0 C1.32 1.65 2.64 3.3 4 5 C3.67 5.66 3.34 6.32 3 7 C2.34 6.67 1.68 6.34 1 6 C0.67 9.3 0.34 12.6 0 16 C-0.33 16 -0.66 16 -1 16 C-1 12.7 -1 9.4 -1 6 C-7.27 5.67 -13.54 5.34 -20 5 C-20 4.67 -20 4.34 -20 4 C-12.08 3.505 -12.08 3.505 -4 3 C-4 2.34 -4 1.68 -4 1 C-2.68 0.67 -1.36 0.34 0 0 Z " fill="#CF2C25" transform="translate(152,96)"/>
<path d="M0 0 C0.99 0.66 1.98 1.32 3 2 C3.51171875 4.6015625 3.51171875 4.6015625 3.6875 7.625 C3.75324219 8.62789062 3.81898437 9.63078125 3.88671875 10.6640625 C3.92410156 11.43492187 3.96148437 12.20578125 4 13 C6.31 13.33 8.62 13.66 11 14 C11 11.69 11 9.38 11 7 C10.34 6.67 9.68 6.34 9 6 C9.99 6 10.98 6 12 6 C12.33 8.97 12.66 11.94 13 15 C7.72 15 2.44 15 -3 15 C-2.01 14.67 -1.02 14.34 0 14 C0 9.38 0 4.76 0 0 Z " fill="#F19E28" transform="translate(107,162)"/>
<path d="M0 0 C0.66 0.99 1.32 1.98 2 3 C0.86929801 6.86648094 -1.17816023 10.2997239 -3.125 13.8125 C-3.93324219 15.27623047 -3.93324219 15.27623047 -4.7578125 16.76953125 C-5.16773437 17.50558594 -5.57765625 18.24164063 -6 19 C-7.58493084 15.83013832 -7.2940042 12.45967739 -7 9 C-6 6.5 -6 6.5 -5 5 C-4.01 5.33 -3.02 5.66 -2 6 C-1.855625 5.38125 -1.71125 4.7625 -1.5625 4.125 C-1 2 -1 2 0 0 Z " fill="#FAB91E" transform="translate(103,29)"/>
<path d="M0 0 C2.97 0 5.94 0 9 0 C9 0.99 9 1.98 9 3 C8.01 3 7.02 3 6 3 C6 6.63 6 10.26 6 14 C5.01 14 4.02 14 3 14 C3 10.37 3 6.74 3 3 C2.01 3 1.02 3 0 3 C0 2.01 0 1.02 0 0 Z " fill="#CA4317" transform="translate(123,162)"/>
<path d="M0 0 C0.66 0 1.32 0 2 0 C2.33 1.98 2.66 3.96 3 6 C2.01 6 1.02 6 0 6 C-0.33 6.99 -0.66 7.98 -1 9 C-1.33 9.33 -1.66 9.66 -2 10 C-2 11.32 -2 12.64 -2 14 C-3.875 13.75 -3.875 13.75 -6 13 C-7.25 10.9375 -7.25 10.9375 -8 9 C-5.74259377 6.66475218 -3.7194239 4.81294927 -1 3 C-0.67 2.01 -0.34 1.02 0 0 Z " fill="#D42D2A" transform="translate(129,104)"/>
<path d="M0 0 C-0.33 5.28 -0.66 10.56 -1 16 C-1.99 16 -2.98 16 -4 16 C-3.98839844 15.14535156 -3.97679688 14.29070312 -3.96484375 13.41015625 C-3.95582031 12.30542969 -3.94679688 11.20070312 -3.9375 10.0625 C-3.92589844 8.96035156 -3.91429688 7.85820312 -3.90234375 6.72265625 C-3.68737429 4.08552366 -3.68737429 4.08552366 -5 3 C-7.32817964 2.63239269 -9.6618385 2.29758419 -12 2 C-12 4.64 -12 7.28 -12 10 C-12.33 10 -12.66 10 -13 10 C-13 7.03 -13 4.06 -13 1 C-8.54459632 0.39587747 -4.52021205 0 0 0 Z " fill="#FCB824" transform="translate(93,160)"/>
<path d="M0 0 C2 2 2 2 2 5 C3.65 5 5.3 5 7 5 C7 6.32 7 7.64 7 9 C5.35 9 3.7 9 2 9 C2 9.66 2 10.32 2 11 C4.31 11 6.62 11 9 11 C9.33 10.01 9.66 9.02 10 8 C10 9.32 10 10.64 10 12 C6.04 12 2.08 12 -2 12 C-1.34 8.04 -0.68 4.08 0 0 Z " fill="#F3AF21" transform="translate(155,165)"/>
<path d="M0 0 C0.99 0 1.98 0 3 0 C3 3.63 3 7.26 3 11 C4.65 11 6.3 11 8 11 C8 11.99 8 12.98 8 14 C5.36 14 2.72 14 0 14 C0 9.38 0 4.76 0 0 Z " fill="#CF4212" transform="translate(72,162)"/>
<path d="M0 0 C0.33 0 0.66 0 1 0 C2.25352113 7.52112676 2.25352113 7.52112676 1.05078125 9.79296875 C-0.72059918 13.51352615 -0.39662237 17.53224448 -0.47851562 21.59960938 C-0.68181136 26.59275092 -0.68181136 26.59275092 -2.53515625 28.96484375 C-3.26025391 29.47724609 -3.26025391 29.47724609 -4 30 C-4.25645895 23.26795268 -3.28162548 17.0986393 -2 10.5 C-1.80921875 9.48679687 -1.6184375 8.47359375 -1.421875 7.4296875 C-0.95435389 4.95182561 -0.48026672 2.47541732 0 0 Z " fill="#F6A232" transform="translate(88,74)"/>
<path d="M0 0 C2.475 0.495 2.475 0.495 5 1 C5.66 2.98 6.32 4.96 7 7 C6.34 7 5.68 7 5 7 C5 7.99 5 8.98 5 10 C3.68 10 2.36 10 1 10 C0.67 6.7 0.34 3.4 0 0 Z " fill="#E06229" transform="translate(47,164)"/>
<path d="M0 0 C0.99 0.33 1.98 0.66 3 1 C3 1.66 3 2.32 3 3 C4.134375 3.12375 5.26875 3.2475 6.4375 3.375 C7.613125 3.58125 8.78875 3.7875 10 4 C10.33 4.66 10.66 5.32 11 6 C10.39671875 5.98839844 9.7934375 5.97679688 9.171875 5.96484375 C8.37265625 5.95582031 7.5734375 5.94679688 6.75 5.9375 C5.96109375 5.92589844 5.1721875 5.91429688 4.359375 5.90234375 C2.0144109 5.91444055 2.0144109 5.91444055 -0.125 6.5625 C-2.84608737 7.19742039 -4.53863326 6.16231207 -7 5 C-6.67 4.34 -6.34 3.68 -6 3 C-4.02 3 -2.04 3 0 3 C0 2.01 0 1.02 0 0 Z " fill="#F3AF26" transform="translate(130,118)"/>
<path d="M0 0 C0.33 1.32 0.66 2.64 1 4 C-1.75924185 5.80411967 -2.88972103 6.0127245 -6.25 5.625 C-7.1575 5.41875 -8.065 5.2125 -9 5 C-9 3.68 -9 2.36 -9 1 C-6.04335481 -0.4783226 -3.25770263 -0.06032783 0 0 Z " fill="#CF3122" transform="translate(143,115)"/>
<path d="M0 0 C2.97 0 5.94 0 9 0 C9 0.99 9 1.98 9 3 C7.68 3 6.36 3 5 3 C5 6.63 5 10.26 5 14 C4.34 14 3.68 14 3 14 C3 10.37 3 6.74 3 3 C2.01 3 1.02 3 0 3 C0 2.01 0 1.02 0 0 Z " fill="#C83814" transform="translate(166,162)"/>
<path d="M0 0 C2.37381759 0.96436339 3.55391129 1.6814219 5 3.8125 C4.57894737 8.23355263 4.57894737 8.23355263 3 9.8125 C1.33382885 9.85313832 -0.33388095 9.855221 -2 9.8125 C-2 8.8225 -2 7.8325 -2 6.8125 C-1.34 6.8125 -0.68 6.8125 0 6.8125 C0 7.4725 0 8.1325 0 8.8125 C0.66 8.8125 1.32 8.8125 2 8.8125 C1.67 6.8325 1.34 4.8525 1 2.8125 C-0.32 2.8125 -1.64 2.8125 -3 2.8125 C-3.33 4.7925 -3.66 6.7725 -4 8.8125 C-4.66 8.1525 -5.32 7.4925 -6 6.8125 C-5.8125 4.3125 -5.8125 4.3125 -5 1.8125 C-2 -0.1875 -2 -0.1875 0 0 Z " fill="#F9AC36" transform="translate(169,90.1875)"/>
<path d="M0 0 C0.99 0 1.98 0 3 0 C3.33 0.99 3.66 1.98 4 3 C4.99 3 5.98 3 7 3 C8 6 8 6 8.4375 9.5625 C8.66562518 13.05471588 8.66562518 13.05471588 11 15 C10.625 17.125 10.625 17.125 10 19 C8.32626249 16.21251481 6.66223733 13.41935573 5 10.625 C4.28457031 9.43390625 4.28457031 9.43390625 3.5546875 8.21875 C3.10351562 7.45820312 2.65234375 6.69765625 2.1875 5.9140625 C1.76855469 5.2123291 1.34960938 4.5105957 0.91796875 3.78759766 C0 2 0 2 0 0 Z " fill="#F8B41D" transform="translate(144,80)"/>
<path d="M0 0 C0.33 0 0.66 0 1 0 C1 2.64 1 5.28 1 8 C2.98 8.66 4.96 9.32 7 10 C7 10.33 7 10.66 7 11 C4.69 11.33 2.38 11.66 0 12 C-0.33 13.32 -0.66 14.64 -1 16 C-1.99 16 -2.98 16 -4 16 C-2.68 10.72 -1.36 5.44 0 0 Z " fill="#F2B61E" transform="translate(110,104)"/>
<path d="M0 0 C1.98 0 3.96 0 6 0 C6 2.31 6 4.62 6 7 C3.69 7 1.38 7 -1 7 C-0.67 4.69 -0.34 2.38 0 0 Z " fill="#F49735" transform="translate(98,88)"/>
<path d="M0 0 C0.99 0 1.98 0 3 0 C2.979375 0.763125 2.95875 1.52625 2.9375 2.3125 C2.87057159 5.10185786 2.87057159 5.10185786 4 8 C3.00390625 10.48046875 3.00390625 10.48046875 1.5625 13.1875 C1.08941406 14.08855469 0.61632812 14.98960938 0.12890625 15.91796875 C-0.24363281 16.60503906 -0.61617188 17.29210937 -1 18 C-1.97853352 14.51671276 -1.78846627 12.5480982 -1 9 C-0.62179786 6.00463905 -0.30753441 3.00336796 0 0 Z " fill="#FBBA1E" transform="translate(84,56)"/>
<path d="M0 0 C2.79453906 2.48403472 4.40709412 5.22932846 6.1875 8.5 C6.71730469 9.4590625 7.24710938 10.418125 7.79296875 11.40625 C9 14 9 14 9 17 C7 16 7 16 6 13 C5.34 12.67 4.68 12.34 4 12 C2.94647157 9.69034152 1.94280904 7.3570226 1 5 C0.01 5 -0.98 5 -2 5 C-2.33 5.99 -2.66 6.98 -3 8 C-3.33 7.34 -3.66 6.68 -4 6 C-2.68 4.02 -1.36 2.04 0 0 Z " fill="#C83817" transform="translate(111,23)"/>
<path d="M0 0 C1.32 0.33 2.64 0.66 4 1 C4 4.63 4 8.26 4 12 C2.68 12 1.36 12 0 12 C0 8.04 0 4.08 0 0 Z " fill="#F6A42B" transform="translate(58,162)"/>
<path d="M0 0 C2.475 0.495 2.475 0.495 5 1 C5 5.62 5 10.24 5 15 C3.68 15 2.36 15 1 15 C0.67 12.03 0.34 9.06 0 6 C0.99 6 1.98 6 3 6 C2.67 5.01 2.34 4.02 2 3 C1.34 2.67 0.68 2.34 0 2 C0 1.34 0 0.68 0 0 Z " fill="#FEBF20" transform="translate(40,161)"/>
<path d="M0 0 C0.33 1.98 0.66 3.96 1 6 C0.34 6 -0.32 6 -1 6 C-1.33 5.01 -1.66 4.02 -2 3 C-6.29 2.67 -10.58 2.34 -15 2 C-15 1.34 -15 0.68 -15 0 C-10.1129572 -1.5638537 -4.8870428 -1.5638537 0 0 Z " fill="#F4B327" transform="translate(148,104)"/>
<path d="M0 0 C0.33 0 0.66 0 1 0 C1.45755719 7.62595318 -0.25463701 14.6029854 -2 22 C-1.01 22.33 -0.02 22.66 1 23 C-0.65 23.33 -2.3 23.66 -4 24 C-3.71739283 20.93641806 -3.4242726 17.87446075 -3.125 14.8125 C-3.04636719 13.94818359 -2.96773438 13.08386719 -2.88671875 12.19335938 C-2.45001567 7.80953229 -1.97547146 4.00904503 0 0 Z " fill="#FAA93A" transform="translate(115,88)"/>
<path d="M0 0 C1.03274898 2.68514734 1.07566569 3.7921588 0.07421875 6.54296875 C-0.38339844 7.41566406 -0.84101562 8.28835937 -1.3125 9.1875 C-1.76238281 10.06792969 -2.21226563 10.94835938 -2.67578125 11.85546875 C-4 14 -4 14 -6 15 C-7.05021103 16.84971696 -7.05021103 16.84971696 -8 19 C-9.77777778 22.88888889 -9.77777778 22.88888889 -12 24 C-10.76422577 19.50627553 -8.88465598 16.08848954 -6.375 12.234375 C-3.95926894 8.30881202 -1.99823803 4.14953259 0 0 Z " fill="#CA4218" transform="translate(103,35)"/>
<path d="M0 0 C0.99 0 1.98 0 3 0 C3 4.62 3 9.24 3 14 C2.01 14 1.02 14 0 14 C0 9.38 0 4.76 0 0 Z " fill="#CC4710" transform="translate(67,162)"/>
<path d="M0 0 C0.99 0 1.98 0 3 0 C3 4.62 3 9.24 3 14 C2.01 14 1.02 14 0 14 C0 9.38 0 4.76 0 0 Z " fill="#C93F10" transform="translate(92,162)"/>
<path d="M0 0 C0.33 0.66 0.66 1.32 1 2 C-0.24282012 4.45038293 -1.52882339 6.773325 -2.9375 9.125 C-3.32357422 9.78371094 -3.70964844 10.44242188 -4.10742188 11.12109375 C-5.06446578 12.751613 -6.03132815 14.37636184 -7 16 C-7.33 16 -7.66 16 -8 16 C-8 13.69 -8 11.38 -8 9 C-7.01 9.33 -6.02 9.66 -5 10 C-5.66 8.68 -6.32 7.36 -7 6 C-5.68 6 -4.36 6 -3 6 C-3 4.35 -3 2.7 -3 1 C-2.01 0.67 -1.02 0.34 0 0 Z " fill="#FBBB26" transform="translate(80,74)"/>
<path d="M0 0 C1.67542976 0.28604898 3.34385343 0.61781233 5 1 C5 2.98 5 4.96 5 7 C4.34 7 3.68 7 3 7 C3 6.34 3 5.68 3 5 C2.34 5 1.68 5 1 5 C1 5.99 1 6.98 1 8 C1.99 8.33 2.98 8.66 4 9 C2.35 8.67 0.7 8.34 -1 8 C-1.04241723 5.66705225 -1.04092937 3.33297433 -1 1 C-0.67 0.67 -0.34 0.34 0 0 Z " fill="#D67A1E" transform="translate(166,92)"/>
<path d="M0 0 C1.32 0.99 2.64 1.98 4 3 C4.171875 5.69921875 4.171875 5.69921875 3.75 8.6875 C3.62109375 9.68136719 3.4921875 10.67523438 3.359375 11.69921875 C3.24078125 12.45847656 3.1221875 13.21773437 3 14 C2.01 14 1.02 14 0 14 C0 9.38 0 4.76 0 0 Z " fill="#D3481B" transform="translate(97,162)"/>
<path d="M0 0 C0.89868727 2.51632435 1.1616905 3.60732308 0.125 6.125 C-0.24625 6.74375 -0.6175 7.3625 -1 8 C-1.33 8.66 -1.66 9.32 -2 10 C-4.64 10 -7.28 10 -10 10 C-9.34 9.34 -8.68 8.68 -8 8 C-8 7.01 -8 6.02 -8 5 C-6.35 5.33 -4.7 5.66 -3 6 C-2.01 4.02 -1.02 2.04 0 0 Z " fill="#D02825" transform="translate(81,108)"/>
<path d="M0 0 C1.98 0 3.96 0 6 0 C6.33 1.32 6.66 2.64 7 4 C4.03 3.505 4.03 3.505 1 3 C0.95101562 3.63808594 0.90203125 4.27617188 0.8515625 4.93359375 C0.77679688 5.75988281 0.70203125 6.58617188 0.625 7.4375 C0.52058594 8.67306641 0.52058594 8.67306641 0.4140625 9.93359375 C0.27742188 10.61550781 0.14078125 11.29742187 0 12 C-0.99 12.495 -0.99 12.495 -2 13 C-1.34 8.71 -0.68 4.42 0 0 Z " fill="#F79839" transform="translate(114,63)"/>
<path d="M0 0 C0.33 0 0.66 0 1 0 C1 3.63 1 7.26 1 11 C-0.32 11.33 -1.64 11.66 -3 12 C-3 9.03 -3 6.06 -3 3 C-2.01 3.495 -2.01 3.495 -1 4 C-0.67 2.68 -0.34 1.36 0 0 Z " fill="#F5A32F" transform="translate(151,162)"/>
<path d="M0 0 C0.495 0.309375 0.99 0.61875 1.5 0.9375 C4.97986781 2.41644382 8.24028509 2.62402851 12 3 C12.33 2.01 12.66 1.02 13 0 C13.33 0.66 13.66 1.32 14 2 C12.78125 3.515625 12.78125 3.515625 11 5 C8.84375 5.109375 8.84375 5.109375 6.5 4.75 C5.7265625 4.64171875 4.953125 4.5334375 4.15625 4.421875 C2 4 2 4 -1 3 C-1.33 3.66 -1.66 4.32 -2 5 C-1.125 1.125 -1.125 1.125 0 0 Z " fill="#D34321" transform="translate(67,115)"/>
<path d="M0 0 C0.33 0 0.66 0 1 0 C0.51172287 7.47834967 -0.33405548 14.68925318 -2 22 C-2.33 22 -2.66 22 -3 22 C-2.89040282 18.70762945 -2.75971069 15.41643113 -2.625 12.125 C-2.5940625 11.18785156 -2.563125 10.25070313 -2.53125 9.28515625 C-2.49257812 8.38925781 -2.45390625 7.49335937 -2.4140625 6.5703125 C-2.3826416 5.74289551 -2.3512207 4.91547852 -2.31884766 4.06298828 C-2 2 -2 2 0 0 Z " fill="#CB391A" transform="translate(109,84)"/>
<path d="M0 0 C2.97 0 5.94 0 9 0 C9 3.63 9 7.26 9 11 C8.67 11 8.34 11 8 11 C8 7.7 8 4.4 8 1 C7.01 1 6.02 1 5 1 C4.67 2.32 4.34 3.64 4 5 C2.68 4.34 1.36 3.68 0 3 C0 2.01 0 1.02 0 0 Z " fill="#F6AE26" transform="translate(160,165)"/>
<path d="M0 0 C0.66 0 1.32 0 2 0 C2 0.99 2 1.98 2 3 C2.66 3.33 3.32 3.66 4 4 C3.67 4.66 3.34 5.32 3 6 C3.99 6 4.98 6 6 6 C6 5.01 6 4.02 6 3 C6.66 3 7.32 3 8 3 C7.67 4.65 7.34 6.3 7 8 C4.03 7.505 4.03 7.505 1 7 C0.67 4.69 0.34 2.38 0 0 Z " fill="#F9A834" transform="translate(144,117)"/>
<path d="M0 0 C0.99 0 1.98 0 3 0 C3 3.3 3 6.6 3 10 C2.01 10 1.02 10 0 10 C0 6.7 0 3.4 0 0 Z " fill="#FAC21A" transform="translate(130,166)"/>
<path d="M0 0 C2.475 0.495 2.475 0.495 5 1 C4.01 1.33 3.02 1.66 2 2 C2.66 2.66 3.32 3.32 4 4 C4.125 6.625 4.125 6.625 4 9 C2.68 9 1.36 9 0 9 C0 6.03 0 3.06 0 0 Z " fill="#F49F2A" transform="translate(112,165)"/>
<path d="M0 0 C1.33333333 0.66666667 2.66666667 1.33333333 4 2 C4 5.3 4 8.6 4 12 C1.51275097 8.68366796 -0.23109915 5.70626844 -2 2 C-1.34 2 -0.68 2 0 2 C0 1.34 0 0.68 0 0 Z " fill="#FAB921" transform="translate(138,64)"/>
<path d="M0 0 C0.99 0.33 1.98 0.66 3 1 C2.67 1.66 2.34 2.32 2 3 C2.99 2.67 3.98 2.34 5 2 C5 2.99 5 3.98 5 5 C4.01 5 3.02 5 2 5 C2 6.65 2 8.3 2 10 C1.01 10.495 1.01 10.495 0 11 C0 7.37 0 3.74 0 0 Z " fill="#F29F23" transform="translate(171,165)"/>
<path d="M0 0 C0.33 1.32 0.66 2.64 1 4 C-1.31 4.66 -3.62 5.32 -6 6 C-6 4.68 -6 3.36 -6 2 C-6.66 1.67 -7.32 1.34 -8 1 C-5.36 0.67 -2.72 0.34 0 0 Z " fill="#DA2733" transform="translate(104,95)"/>
<path d="M0 0 C3.0916909 2.52956528 3.90931332 5.22454612 5 9 C4.34 9 3.68 9 3 9 C3 9.66 3 10.32 3 11 C2.34 11 1.68 11 1 11 C0.83197949 9.54182203 0.66562857 8.0834516 0.5 6.625 C0.4071875 5.81289062 0.314375 5.00078125 0.21875 4.1640625 C0 2 0 2 0 0 Z " fill="#D1381F" transform="translate(137,69)"/>
<path d="M0 0 C0.33 0 0.66 0 1 0 C1 4.29 1 8.58 1 13 C0.01 13 -0.98 13 -2 13 C-1.34 8.71 -0.68 4.42 0 0 Z " fill="#F9B236" transform="translate(91,163)"/>
<path d="M0 0 C-0.33 1.65 -0.66 3.3 -1 5 C-2.65 5 -4.3 5 -6 5 C-6 3.68 -6 2.36 -6 1 C-3.92446352 0.4465236 -2.15634036 0 0 0 Z " fill="#F6AE2A" transform="translate(107,64)"/>
<path d="M0 0 C1.32 0 2.64 0 4 0 C4.5345256 1.24420647 5.05208611 2.49570936 5.5625 3.75 C5.85253906 4.44609375 6.14257812 5.1421875 6.44140625 5.859375 C7 8 7 8 6 12 C4.02 8.04 2.04 4.08 0 0 Z " fill="#F8AA27" transform="translate(129,54)"/>
<path d="M0 0 C0.99 0 1.98 0 3 0 C3 2.64 3 5.28 3 8 C2.01 8 1.02 8 0 8 C0 5.36 0 2.72 0 0 Z " fill="#FBAE2F" transform="translate(84,165)"/>
<path d="M0 0 C2.15377564 2.62198774 3.40072174 4.64404172 4 8 C2.02 8 0.04 8 -2 8 C-2 7.34 -2 6.68 -2 6 C-1.34 6 -0.68 6 0 6 C0 4.02 0 2.04 0 0 Z " fill="#CA2E1E" transform="translate(170,128)"/>
<path d="M0 0 C0.66 0.66 1.32 1.32 2 2 C1.67 2.99 1.34 3.98 1 5 C1 4.34 1 3.68 1 3 C-2.7016431 2.05306805 -4.39112465 1.69556233 -7.875 3.4375 C-8.57625 3.953125 -9.2775 4.46875 -10 5 C-9.625 3.0625 -9.625 3.0625 -9 1 C-5.98675805 -0.50662097 -3.31713623 -0.17770373 0 0 Z " fill="#C87512" transform="translate(172,89)"/>
<path d="M0 0 C0 0.66 0 1.32 0 2 C-0.66 2 -1.32 2 -2 2 C-2.33 3.65 -2.66 5.3 -3 7 C-3.66 6.34 -4.32 5.68 -5 5 C-5 4.01 -5 3.02 -5 2 C-5.99 1.67 -6.98 1.34 -8 1 C-5.07175348 0.02391783 -3.04386724 -0.08226668 0 0 Z " fill="#FBC021" transform="translate(153,160)"/>
<path d="M0 0 C1.32 0 2.64 0 4 0 C4 0.66 4 1.32 4 2 C3.34 2 2.68 2 2 2 C2.185625 2.61875 2.37125 3.2375 2.5625 3.875 C3 6 3 6 2 8 C0.02 8 -1.96 8 -4 8 C-3.01 7.4121875 -3.01 7.4121875 -2 6.8125 C0.29166667 5.14583333 0.29166667 5.14583333 0.25 2.3125 C0.1675 1.549375 0.085 0.78625 0 0 Z " fill="#DB262A" transform="translate(113,120)"/>
<path d="M0 0 C2.72426311 2.35277269 3.8141763 4.62496331 5 8 C3.02 8.99 3.02 8.99 1 10 C-0.04005702 6.61981469 -0.08004482 3.5219721 0 0 Z " fill="#CC381D" transform="translate(161,112)"/>
<path d="M0 0 C0.33 0 0.66 0 1 0 C1.2493357 1.60115576 1.47378648 3.20620159 1.6875 4.8125 C1.81511719 5.70582031 1.94273438 6.59914063 2.07421875 7.51953125 C2 10 2 10 0.51953125 11.82421875 C0.01808594 12.21222656 -0.48335938 12.60023437 -1 13 C-1.99 12.67 -2.98 12.34 -4 12 C-3.34 12 -2.68 12 -2 12 C-1.34 8.04 -0.68 4.08 0 0 Z " fill="#F59234" transform="translate(82,107)"/>
<path d="M0 0 C0.33 0 0.66 0 1 0 C2.2019586 6.22833095 1.93161919 9.37129115 -1 15 C-2.20220203 11.46905698 -1.79532349 8.87101018 -1.0625 5.25 C-0.86785156 4.26515625 -0.67320313 3.2803125 -0.47265625 2.265625 C-0.31667969 1.51796875 -0.16070312 0.7703125 0 0 Z " fill="#F38C34" transform="translate(88,74)"/>
<path d="M0 0 C-0.33 1.98 -0.66 3.96 -1 6 C-0.34 6.33 0.32 6.66 1 7 C0.67 8.32 0.34 9.64 0 11 C-0.67154933 9.71086513 -1.33708859 8.41859796 -2 7.125 C-2.37125 6.40570313 -2.7425 5.68640625 -3.125 4.9453125 C-4 3 -4 3 -4 1 C-2 0 -2 0 0 0 Z " fill="#F5A524" transform="translate(127,41)"/>
<path d="M0 0 C2.31 0 4.62 0 7 0 C7 1.65 7 3.3 7 5 C6.34 5 5.68 5 5 5 C5 4.01 5 3.02 5 2 C3.35 2.33 1.7 2.66 0 3 C0 2.01 0 1.02 0 0 Z " fill="#C9351A" transform="translate(135,163)"/>
<path d="M0 0 C0.99 0.66 1.98 1.32 3 2 C1.35 5.3 -0.3 8.6 -2 12 C-3.15957207 8.52128379 -2.77456651 7.65780355 -1.5625 4.3125 C-1.13130859 3.10013672 -1.13130859 3.10013672 -0.69140625 1.86328125 C-0.46324219 1.24839844 -0.23507813 0.63351563 0 0 Z " fill="#F9AA25" transform="translate(59,108)"/>
<path d="M0 0 C1.65 0 3.3 0 5 0 C5.33 0.66 5.66 1.32 6 2 C5.34 2 4.68 2 4 2 C4.83333333 4.16666667 4.83333333 4.16666667 7 5 C6.01 5.99 5.02 6.98 4 8 C2.68 5.36 1.36 2.72 0 0 Z " fill="#FAB822" transform="translate(155,100)"/>
<path d="M0 0 C1.65 0 3.3 0 5 0 C5 1.32 5 2.64 5 4 C3.35 4 1.7 4 0 4 C0 2.68 0 1.36 0 0 Z " fill="#F59F2F" transform="translate(157,170)"/>
<path d="M0 0 C0.33 0.99 0.66 1.98 1 3 C0.67 3.66 0.34 4.32 0 5 C0.66 5 1.32 5 2 5 C2 5.66 2 6.32 2 7 C-0.64 6.67 -3.28 6.34 -6 6 C-5.195625 5.38125 -4.39125 4.7625 -3.5625 4.125 C-0.96125481 2.25835959 -0.96125481 2.25835959 0 0 Z " fill="#D53E2A" transform="translate(86,120)"/>
<path d="M0 0 C0.66 0 1.32 0 2 0 C3.625 2 3.625 2 5 4 C4 5 4 5 1.4375 5.0625 C0.2309375 5.0315625 0.2309375 5.0315625 -1 5 C-0.67 3.35 -0.34 1.7 0 0 Z " fill="#F1B223" transform="translate(67,119)"/>
<path d="M0 0 C0.33 0 0.66 0 1 0 C1.25 7.625 1.25 7.625 -1 11 C-2.25 3.375 -2.25 3.375 0 0 Z " fill="#F69D39" transform="translate(115,88)"/>
<path d="M0 0 C0.99 0 1.98 0 3 0 C4.35015859 4.05047576 3.62084998 6.7920168 3 11 C2.67 11 2.34 11 2 11 C2 8.69 2 6.38 2 4 C1.34 4 0.68 4 0 4 C0 2.68 0 1.36 0 0 Z " fill="#F2B626" transform="translate(87,88)"/>
<path d="M0 0 C0.33 0 0.66 0 1 0 C1 3.3 1 6.6 1 10 C-2 6 -2 6 -2 2 C-1.34 2 -0.68 2 0 2 C0 1.34 0 0.68 0 0 Z " fill="#F4B61F" transform="translate(116,70)"/>
<path d="M0 0 C0.66 0.33 1.32 0.66 2 1 C2 1.66 2 2.32 2 3 C1.505 3.474375 1.01 3.94875 0.5 4.4375 C-1.34626591 5.99969942 -1.34626591 5.99969942 -1 9 C-1.99 9 -2.98 9 -4 9 C-2.94124926 5.59687262 -1.99097846 2.98646769 0 0 Z " fill="#C73218" transform="translate(52,127)"/>
<path d="M0 0 C3.0916909 2.52956528 3.90931332 5.22454612 5 9 C4.34 9 3.68 9 3 9 C0.56839395 5.63316085 0 4.26649636 0 0 Z " fill="#CC3E15" transform="translate(156,103)"/>
<path d="M0 0 C0.33 0 0.66 0 1 0 C0.25 6.625 0.25 6.625 -2 10 C-2.1953125 3.9453125 -2.1953125 3.9453125 -2 2 C-1.34 1.34 -0.68 0.68 0 0 Z " fill="#F5B117" transform="translate(84,64)"/>
<path d="M0 0 C0.33 0 0.66 0 1 0 C1 2.31 1 4.62 1 7 C0.01 6.34 -0.98 5.68 -2 5 C-2.33 5.66 -2.66 6.32 -3 7 C-3.66 6.67 -4.32 6.34 -5 6 C-3.35830472 3.97945196 -1.69088222 1.97956942 0 0 Z " fill="#D12C20" transform="translate(109,28)"/>
<path d="M0 0 C1.98 0 3.96 0 6 0 C6 0.99 6 1.98 6 3 C4.35 3 2.7 3 1 3 C0.67 2.01 0.34 1.02 0 0 Z " fill="#C4480E" transform="translate(112,162)"/>
<path d="M0 0 C3 3.75 3 3.75 3 6 C2.34 6 1.68 6 1 6 C1 6.66 1 7.32 1 8 C0.01 7.67 -0.98 7.34 -2 7 C-1.34 4.69 -0.68 2.38 0 0 Z " fill="#D23B1A" transform="translate(166,120)"/>
<path d="M0 0 C2.31 0 4.62 0 7 0 C7.33 1.32 7.66 2.64 8 4 C7.01 4.33 6.02 4.66 5 5 C5 4.01 5 3.02 5 2 C3.35 1.67 1.7 1.34 0 1 C0 0.67 0 0.34 0 0 Z " fill="#D14B1B" transform="translate(136,115)"/>
</svg>
