<?xml version="1.0" encoding="UTF-8"?>
<svg version="1.1" xmlns="http://www.w3.org/2000/svg" width="1280" height="1176">
<path d="M0 0 C88.02213942 -1.54289464 179.07841643 13.03198369 288.77246094 63.06640625 C289.62549805 63.49163574 290.47853516 63.91686523 291.35742188 64.35498047 C319.37261538 78.41052792 345.12156134 96.58693134 368.77246094 117.06640625 C369.94615234 118.06994141 369.94615234 118.06994141 371.14355469 119.09375 C383.96409244 130.31449794 396.46132515 142.48287407 406.77246094 156.06640625 C407.55234375 157.0409375 408.33222656 158.01546875 409.13574219 159.01953125 C435.77246094 192.46022282 435.77246094 192.46022282 435.77246094 202.06640625 C429.35569471 201.45939306 423.23460984 200.4018476 416.95996094 198.94921875 C415.00798844 198.50788234 413.05591649 198.06698565 411.10375977 197.62646484 C409.56191513 197.27633331 409.56191513 197.27633331 407.98892212 196.91912842 C302.75108632 173.10913921 195.22704067 157.20305587 45.38574219 156.390625 C37.63123814 161.85174523 35.30330861 167.85026281 33.38574219 176.9453125 C31.35555474 189.26498287 31.62761212 201.78998989 31.66894531 214.23120117 C31.67248345 216.28685844 31.67594725 218.34251583 31.67934418 220.39817333 C31.74121974 247.11465957 32.05758264 273.82991324 32.35309002 300.54462307 C32.43954823 308.37672799 32.52239072 316.20887021 32.60497051 324.04101684 C32.75306182 338.08392163 32.90281993 352.12680801 33.05419922 366.16967773 C33.06317106 367.0020368 33.07214291 367.83439587 33.08138663 368.69197794 C33.18115499 377.94480237 33.2812876 387.19762281 33.3817749 396.45043945 C33.41809755 399.79565422 33.45441392 403.14086906 33.49072266 406.48608398 C33.49968364 407.31160907 33.50864463 408.13713417 33.51787716 408.98767517 C33.66959878 422.97222845 33.81848447 436.95681051 33.96536207 450.94141549 C34.04711238 458.71509595 34.13015588 466.48875764 34.21687317 474.26238441 C34.68410759 516.19873622 34.86315438 558.12740682 34.77246094 600.06640625 C32.88249424 600.23225502 30.99231457 600.3956778 29.10205078 600.55810547 C27.52319595 600.69501297 27.52319595 600.69501297 25.91244507 600.83468628 C21.40282507 601.16748064 16.91723859 601.21226676 12.39746094 601.19140625 C11.56730469 601.19527344 10.73714844 601.19914063 9.88183594 601.203125 C4.70848992 601.19526277 -0.41404558 600.93939282 -5.57373047 600.55810547 C-6.82312408 600.46649139 -8.0725177 600.37487732 -9.35977173 600.28048706 C-10.30613495 600.20984039 -11.25249817 600.13919373 -12.22753906 600.06640625 C-12.47854868 549.68243829 -12.09381623 499.306516 -11.57128906 448.92578125 C-11.56307931 448.13269884 -11.55486957 447.33961644 -11.54641104 446.52250123 C-11.3338725 425.99663986 -11.11415303 405.47085779 -10.89139271 384.94510508 C-10.7628072 373.09492664 -10.63548274 361.24473528 -10.50927734 349.39453125 C-10.50031636 348.55320372 -10.49135537 347.71187619 -10.48212284 346.84505388 C-10.38394401 337.62355585 -10.28617533 328.40205354 -10.18891144 319.18054581 C-10.18033203 318.36720078 -10.17175262 317.55385575 -10.16291323 316.7158639 C-10.12860372 313.4626668 -10.09429977 310.20946963 -10.06004864 306.95627192 C-9.96104975 297.55407293 -9.86084989 288.1518888 -9.75825274 278.74972835 C-9.69426825 272.88298531 -9.63128189 267.0162321 -9.56902969 261.14947042 C-9.5333516 257.79159428 -9.49703047 254.43372852 -9.4596653 251.07587051 C-9.31139017 237.73132561 -9.19599087 224.38694324 -9.16345215 211.04156494 C-9.15820227 209.92199331 -9.15295239 208.80242168 -9.14754343 207.64892364 C-8.352117 183.22111421 -8.352117 183.22111421 -16.72753906 161.1640625 C-26.74772194 151.67736158 -39.44489744 151.77900657 -52.39837646 152.12426758 C-164.88400979 155.5157641 -278.19295169 171.72448927 -399.61987305 200.08691406 C-400.70212158 200.35084961 -401.78437012 200.61478516 -402.89941406 200.88671875 C-404.27758301 201.23114014 -404.27758301 201.23114014 -405.68359375 201.58251953 C-408.26085147 202.07274264 -410.6108225 202.15543829 -413.22753906 202.06640625 C-406.61494047 180.15600495 -388.29184289 159.33082086 -372.85644531 142.8828125 C-370.36604116 140.21478666 -367.94994562 137.49450325 -365.54003906 134.75390625 C-362.3588768 131.2130366 -359.07259298 128.0249132 -355.43457031 124.9609375 C-353.26981067 123.1026925 -351.1855315 121.17274913 -349.10522461 119.22094727 C-342.14655691 112.71676932 -334.8351298 106.79267329 -327.22753906 101.06640625 C-326.55480957 100.55851562 -325.88208008 100.050625 -325.18896484 99.52734375 C-303.68346929 83.39201237 -280.45825068 69.79665656 -256.28466797 58.06835938 C-254.18005984 57.04328084 -252.0848904 56.00031774 -249.98925781 54.95703125 C-173.14211137 17.14281866 -85.05941689 1.75008785 0 0 Z " fill="#4769AE" transform="translate(629.2275390625,62.93359375)"/>
<path d="M0 0 C7.13808869 6.9758594 9.59304034 16.26920766 10.0234375 26.06640625 C9.53534874 107.98396996 -17.00136629 196.12144984 -50.0625 342.9375 C-50.26686676 343.79666016 -50.47123352 344.65582031 -50.68179321 345.54101562 C-53.80028239 358.60056478 -53.80028239 358.60056478 -55 361 C-134.91392782 346.70298221 -214.73149616 308.70374661 -274.66015625 254.1171875 C-276.21550368 252.70984475 -277.78591137 251.31896313 -279.37109375 249.9453125 C-283.61272874 246.26875198 -287.45974262 242.52107354 -291.078125 238.23046875 C-293.34817319 235.59592096 -295.73769856 233.0912456 -298.125 230.5625 C-334.37342865 191.37246139 -358.61152718 137.66749285 -360 84 C-360.03996094 82.78183594 -360.07992187 81.56367188 -360.12109375 80.30859375 C-360.43161426 62.20707489 -358.18384992 44.58841763 -354 27 C-267.55214573 5.91484973 -179.18089118 -4.61013826 -90.49796677 -10.17882538 C-88.41059372 -10.31025881 -86.32334965 -10.44360615 -84.2361145 -10.57720947 C-16.11097957 -14.90922818 -16.11097957 -14.90922818 0 0 Z " fill="#4769AE" transform="translate(551,287)"/>
<path d="M0 0 C1.32960251 0.0024472 1.32960251 0.0024472 2.68606567 0.00494385 C15.33154463 0.11196912 27.94976605 0.97411758 40.56562424 1.78609467 C42.71204672 1.92395334 44.85858459 2.05987822 47.00515747 2.19537354 C131.62645129 7.54979111 215.22209727 18.21610906 298.08203125 36.421875 C299.19856834 36.66655769 299.19856834 36.66655769 300.33766174 36.91618347 C303.21704507 37.55611974 306.00392111 38.2382862 308.8046875 39.171875 C309.45645173 42.48323586 310.09998578 45.79614745 310.7421875 49.109375 C310.92458984 50.03556641 311.10699219 50.96175781 311.29492188 51.91601562 C311.47216797 52.83447266 311.64941406 53.75292969 311.83203125 54.69921875 C312.07554321 55.94819946 312.07554321 55.94819946 312.32397461 57.22241211 C313.43534183 64.04131889 313.97097258 70.79847276 314.04296875 77.703125 C314.05280792 78.48831512 314.06264709 79.27350525 314.07278442 80.08248901 C314.25198113 98.10985485 313.94589768 115.52594802 309.8046875 133.171875 C309.56331055 134.2040918 309.32193359 135.23630859 309.07324219 136.29980469 C305.45253981 151.26082018 300.36025675 165.26155933 293.8046875 179.171875 C293.46824219 179.89697266 293.13179687 180.62207031 292.78515625 181.36914062 C275.43309287 218.52744368 246.23526422 253.29102258 213.8046875 278.171875 C212.69364296 279.07970864 211.58579076 279.9914576 210.48046875 280.90625 C153.02568595 328.23704753 81.63745502 356.40211976 9.8046875 373.171875 C7.20413648 365.82655335 5.33184334 358.42315996 3.57421875 350.8359375 C3.26409531 349.50898296 2.95375055 348.18208013 2.64320374 346.85522461 C1.80331353 343.25855103 0.97028682 339.66032397 0.1397934 336.06147003 C-0.38735629 333.7771855 -0.91565779 331.49316933 -1.44403076 329.20916748 C-18.0817699 257.21443297 -33.02867622 184.81378099 -45.8828125 112.046875 C-46.00928665 111.33223713 -46.1357608 110.61759926 -46.2660675 109.88130569 C-60.03976622 32.01646606 -60.03976622 32.01646606 -49.1953125 16.171875 C-41.67221399 6.43182476 -31.03101042 2.89277379 -19.1953125 1.171875 C-12.79013766 0.3892588 -6.45127593 -0.01446529 0 0 Z " fill="#4769AE" transform="translate(775.1953125,274.828125)"/>
<path d="M0 0 C41.91 0 83.82 0 127 0 C146.58447266 50.50732422 146.58447266 50.50732422 153.61132812 68.64257812 C160.05442567 85.26948135 166.51110855 101.89091249 173 118.5 C181.2305899 139.56717134 189.40536556 160.65586574 197.57666016 181.74609375 C199.97070272 187.92485808 202.36599835 194.10313605 204.76171875 200.28125 C205.15353333 201.29166855 205.5453479 202.3020871 205.94903564 203.34312439 C207.52316966 207.40244221 209.09735711 211.46173931 210.67156982 215.52102661 C214.76476979 226.07588682 218.85739067 236.63096978 222.94699097 247.18722534 C224.69046198 251.68742265 226.43432725 256.18746713 228.17822266 260.6875 C229.00768401 262.82821143 229.83695318 264.96899733 230.66601562 267.10986328 C231.81721812 270.08254697 232.96908915 273.05497083 234.12109375 276.02734375 C234.455681 276.89185654 234.79026825 277.75636932 235.13499451 278.64707947 C235.45452591 279.47115799 235.77405731 280.29523651 236.10327148 281.14428711 C236.41086395 281.9389035 236.71845642 282.7335199 237.03536987 283.55221558 C237.71867187 285.28611952 238.4185512 287.0135326 239.12991333 288.7361145 C239.49704437 289.62700775 239.86417542 290.517901 240.24243164 291.43579102 C240.74680504 292.64079002 240.74680504 292.64079002 241.2613678 293.87013245 C242 296 242 296 242 299 C203.06 299 164.12 299 124 299 C119.05 284.48 114.1 269.96 109 255 C104.04353548 240.78501538 104.04353548 240.78501538 99.07669067 226.57373047 C92.79397936 208.60855355 86.62910012 190.60250388 80.45237827 172.6006813 C79.32391739 169.3118451 78.19523146 166.02308617 77.06640625 162.734375 C76.84972479 162.10304405 76.63304333 161.4717131 76.40979576 160.82125092 C72.30680214 148.8691092 68.16529015 136.93056265 64 125 C61.22430111 131.75269036 58.71032735 138.5536526 56.3828125 145.47265625 C55.88258575 146.9483886 55.88258575 146.9483886 55.37225342 148.45393372 C54.28739378 151.65596836 53.20623759 154.85924069 52.125 158.0625 C51.36246113 160.31472398 50.59959881 162.56683848 49.83642578 164.81884766 C48.67413722 168.24868708 47.51203087 171.67858682 46.35092163 175.10882568 C42.87728541 185.37050489 39.37993716 195.62397782 35.875 205.875 C34.74200346 209.19004129 33.60924155 212.50516272 32.4765625 215.8203125 C32.05532608 217.05309181 32.05532608 217.05309181 31.62557983 218.31077576 C29.46307589 224.64090351 27.30505609 230.97255251 25.1484375 237.3046875 C24.6595253 238.73994278 24.6595253 238.73994278 24.16073608 240.20419312 C22.26115599 245.78058017 22.26115599 245.78058017 20.36273193 251.35736084 C14.95321241 267.25392033 9.47405547 283.12523914 4 299 C-34.61 299 -73.22 299 -113 299 C-111.14642566 292.82141887 -109.29930096 286.85883686 -106.98046875 280.875 C-106.68977509 280.11563644 -106.39908142 279.35627289 -106.09957886 278.57389832 C-105.46622832 276.92052476 -104.83126591 275.26776794 -104.19485474 273.61557007 C-102.78619146 269.95801293 -101.385878 266.29727434 -99.98490906 262.63676453 C-99.21911699 260.63605479 -98.45292213 258.63549919 -97.68635559 256.63508606 C-92.78115492 243.83084478 -87.92311712 231.00871522 -83.0625 218.1875 C-82.58805445 216.93643394 -82.11358744 215.68537601 -81.63909912 214.43432617 C-75.17430808 197.38903421 -68.72401125 180.33832294 -62.28689575 163.28256226 C-56.31248213 147.4541463 -50.30691845 131.63768471 -44.29217529 115.82455444 C-39.00223143 101.91630876 -33.73092653 88.00123129 -28.48046875 74.07803345 C-22.02967481 56.97312364 -15.53447393 39.88562547 -9 22.8125 C-8.60215302 21.77211578 -8.20430603 20.73173157 -7.79440308 19.65982056 C-6.67661486 16.73760403 -5.55734941 13.81595842 -4.4375 10.89453125 C-3.93567955 9.58240662 -3.93567955 9.58240662 -3.42372131 8.24377441 C-3.11760422 7.44636841 -2.81148712 6.6489624 -2.49609375 5.82739258 C-2.22982178 5.13261307 -1.9635498 4.43783356 -1.68920898 3.72200012 C-1 2 -1 2 0 0 Z " fill="#4769AE" transform="translate(412,813)"/>
<path d="M0 0 C41.91 0 83.82 0 127 0 C132.28 13.86 137.56 27.72 143 42 C146.88982615 52.01726434 146.88982615 52.01726434 150.81173706 62.02163696 C152.66871148 66.73635759 154.5174396 71.45431556 156.3671875 76.171875 C156.74779831 77.14220169 157.12840912 78.11252838 157.52055359 79.11225891 C161.85459936 90.16798598 166.14780294 101.23950552 170.4375 112.3125 C170.83087555 113.32780792 171.2242511 114.34311584 171.62954712 115.38919067 C173.62308647 120.53484885 175.61611912 125.68070306 177.60888672 130.82666016 C181.17410897 140.03243758 184.74398193 149.23641163 188.31350708 158.44052124 C190.29252881 163.54360686 192.27124914 168.64680934 194.25 173.75 C195.04166522 175.79166723 195.83333189 177.83333389 196.625 179.875 C201.37499992 192.12499978 201.37499992 192.12499978 202.56228638 195.18695068 C203.35466368 197.23044896 204.14704242 199.27394669 204.93942261 201.31744385 C206.90772838 206.39358224 208.87600977 211.46973009 210.84423828 216.54589844 C214.53612185 226.06739006 218.22825294 235.58878548 221.92120361 245.10986328 C223.65532444 249.58077499 225.38931265 254.05173812 227.12329102 258.52270508 C227.94565328 260.64301067 228.76807969 262.76329139 229.59057617 264.88354492 C231.4326365 269.63207711 233.27385844 274.38092669 235.11230469 279.13085938 C236.28335228 282.15566103 237.4603355 285.17797202 238.64550781 288.19726562 C239.10538086 289.37482422 239.56525391 290.55238281 240.0390625 291.765625 C240.42529785 292.74821289 240.8115332 293.73080078 241.20947266 294.74316406 C242 297 242 297 242 299 C203.06 299 164.12 299 124 299 C106.92269784 250.04506714 106.92269784 250.04506714 99.54977417 228.54016113 C98.18862786 224.57012886 96.82508889 220.6009204 95.46118164 216.63183594 C94.98713683 215.2522583 94.51309203 213.87268067 94.03904724 212.49310303 C93.80359129 211.80788322 93.56813534 211.12266342 93.32554436 210.41667938 C90.29481662 201.59622452 87.26559637 192.77525429 84.23974609 183.953125 C82.05364047 177.57951745 79.86333583 171.20736639 77.67053223 164.83605957 C76.85864069 162.47481439 76.04813886 160.11309085 75.23913574 157.75085449 C74.1200639 154.48369139 72.99613162 151.21823769 71.87109375 147.953125 C71.55117966 147.01529175 71.23126556 146.0774585 70.9016571 145.11120605 C68.54205182 138.28702773 65.83820062 131.63846175 63 125 C62.70535858 125.87361679 62.41071716 126.74723358 62.10714722 127.64732361 C35.74839456 205.79722047 35.74839456 205.79722047 25.41719055 235.92684937 C23.61300669 241.1943218 21.82421085 246.46689356 20.04090881 251.74147034 C18.67381235 255.78468765 17.3037556 259.8268997 15.9336853 263.86911011 C15.28198875 265.79465252 14.63172293 267.72067991 13.98306274 269.64724731 C13.08495687 272.31431101 12.18164399 274.97956253 11.27734375 277.64453125 C11.0195816 278.4146051 10.76181946 279.18467896 10.49624634 279.97808838 C8.27936957 286.48455218 5.66386326 292.60672817 3 299 C-35.28 299 -73.56 299 -113 299 C-109.62495118 287.74983727 -109.62495118 287.74983727 -107.8972168 283.18554688 C-107.31203278 281.63210823 -107.31203278 281.63210823 -106.71502686 280.04728699 C-106.29731018 278.94886978 -105.87959351 277.85045258 -105.44921875 276.71875 C-105.00306213 275.53738968 -104.55690552 274.35602936 -104.097229 273.13887024 C-102.88450874 269.92807705 -101.66757658 266.71889565 -100.44981003 263.51001358 C-99.15689747 260.10093893 -97.86789532 256.69038597 -96.57836914 253.2800293 C-93.9075518 246.2188047 -91.23193659 239.15940563 -88.55493164 232.1005249 C-87.0755706 228.19963006 -85.59723451 224.29834782 -84.11914062 220.39697266 C-79.11726902 207.19523862 -74.1101221 193.99551408 -69.0990448 180.79727173 C-64.52148844 168.74070858 -59.94789291 156.68264437 -55.37463379 144.62445068 C-53.08970448 138.59985443 -50.8046424 132.57530853 -48.51953125 126.55078125 C-48.06681854 125.35723022 -47.61410583 124.1636792 -47.14767456 122.93395996 C-44.34802817 115.55311353 -41.54773628 108.17251227 -38.74694824 100.792099 C-36.85924445 95.81776068 -34.97183334 90.84331132 -33.08441162 85.86886597 C-32.15846261 83.42865634 -31.23239788 80.98849062 -30.30621338 78.54837036 C-25.51618234 65.92841103 -20.73395525 53.30565035 -15.98046875 40.671875 C-15.19247289 38.57917967 -14.40446854 36.48648753 -13.61645508 34.39379883 C-12.16665062 30.54320191 -10.72032472 26.69132428 -9.27612305 22.83862305 C-8.62951527 21.12023451 -7.98279366 19.4018888 -7.3359375 17.68359375 C-7.054655 16.93007629 -6.7733725 16.17655884 -6.48356628 15.40020752 C-4.50413153 10.15415713 -2.28706326 5.14589235 0 0 Z " fill="#4769AE" transform="translate(997,813)"/>
<path d="M0 0 C95.37 0 190.74 0 289 0 C289 29.04 289 58.08 289 88 C261.61 88 234.22 88 206 88 C206 157.63 206 227.26 206 299 C166.07 299 126.14 299 85 299 C85 229.37 85 159.74 85 88 C56.95 88 28.9 88 0 88 C0 58.96 0 29.92 0 0 Z " fill="#476AAD" transform="translate(626,813)"/>
<path d="M0 0 C95.37 0 190.74 0 289 0 C289 29.04 289 58.08 289 88 C261.61 88 234.22 88 206 88 C206 157.63 206 227.26 206 299 C166.07 299 126.14 299 85 299 C85 229.37 85 159.74 85 88 C56.95 88 28.9 88 0 88 C0 58.96 0 29.92 0 0 Z " fill="#486AAD" transform="translate(41,813)"/>
</svg>
