<?xml version="1.0" encoding="UTF-8"?>
<svg version="1.1" xmlns="http://www.w3.org/2000/svg" width="225" height="225">
<path d="M0 0 C74.25 0 148.5 0 225 0 C225 74.25 225 148.5 225 225 C150.75 225 76.5 225 0 225 C0 150.75 0 76.5 0 0 Z " fill="#FEFEFE" transform="translate(0,0)"/>
<path d="M0 0 C9.19179188 1.53196531 15.72574579 4.67528474 21.59765625 12.01171875 C27.77376788 20.76837841 27.57298584 29.70671873 27 40 C25.16220379 49.05384899 19.20340509 55.63142451 12 61 C6.66733496 63.90872638 1.96181178 64.54139909 -4 65 C-4 61.37 -4 57.74 -4 54 C-2.68 53.649375 -1.36 53.29875 0 52.9375 C6.52514034 50.75559187 10.93317253 46.77729941 15 41.3125 C17.01749146 34.62955952 17.19441986 27.65635228 14.0625 21.3125 C12.33528716 18.25978266 12.33528716 18.25978266 11 17 C10.99589111 17.7206665 10.99178223 18.44133301 10.98754883 19.18383789 C10.95447161 22.47753522 10.8838105 25.76941755 10.8125 29.0625 C10.80669922 30.19623047 10.80089844 31.32996094 10.79492188 32.49804688 C10.60742412 39.64379468 10.00280654 43.75723327 5 49 C0.85157532 51.91466165 -4.0985468 52.57797012 -9.0390625 51.71875 C-13.21755891 50.18718956 -17.00637869 46.98724263 -19 43 C-19.08527628 40.96767366 -19.10716135 38.93252994 -19.09765625 36.8984375 C-19.09443359 35.68671875 -19.09121094 34.475 -19.08789062 33.2265625 C-19.07951172 31.95554687 -19.07113281 30.68453125 -19.0625 29.375 C-19.05798828 28.09625 -19.05347656 26.8175 -19.04882812 25.5 C-19.03701203 22.33328708 -19.02053815 19.16666644 -19 16 C-19.66 16 -20.32 16 -21 16 C-21.28875 16.721875 -21.5775 17.44375 -21.875 18.1875 C-22.56834693 19.92086732 -23.28606675 21.64498945 -24.04296875 23.3515625 C-26.32174687 29.65773216 -25.73848002 36.19898844 -23.125 42.3125 C-20.08397416 47.7846038 -15.63286108 50.51787748 -10 53 C-8.68 53.33 -7.36 53.66 -6 54 C-6 57.63 -6 61.26 -6 65 C-15.40887995 64.69648774 -22.22665346 61.18049255 -28.8125 54.4375 C-34.37972753 47.53783176 -37.9638103 38.39101204 -37.4140625 29.46484375 C-35.58288177 18.56413584 -30.33236626 9.85828507 -21.375 3.375 C-18.77848828 1.60337287 -17.57566908 0.97739064 -14.4140625 1.1015625 C-11.3266498 2.25059959 -10.62018402 3.12966515 -9 6 C-8.6754513 8.75252485 -8.51191197 11.29200645 -8.48828125 14.046875 C-8.46135445 15.20367767 -8.46135445 15.20367767 -8.43388367 16.3838501 C-8.37984231 18.83917832 -8.3459058 21.29431286 -8.3125 23.75 C-8.27932136 25.41799566 -8.24483118 27.08596579 -8.20898438 28.75390625 C-8.12411978 32.8357976 -8.05727974 36.91763214 -8 41 C-5.69 40.34 -3.38 39.68 -1 39 C-0.67 26.13 -0.34 13.26 0 0 Z " fill="#E61F2C" transform="translate(50,79)"/>
<path d="M0 0 C3.96 0 7.92 0 12 0 C11.09540051 12.62589928 11.09540051 12.62589928 10.4375 17.25 C9.94192976 21.49774495 9.68212836 25.7274312 10 30 C11.16475062 31.37771762 11.16475062 31.37771762 14.375 31.3125 C17.95284956 31.3939063 17.95284956 31.3939063 19.63989258 29.37402344 C21.29782203 26.4801613 21.81340708 23.98804594 22.38671875 20.703125 C22.60263672 19.49785156 22.81855469 18.29257813 23.04101562 17.05078125 C23.25435547 15.79652344 23.46769531 14.54226562 23.6875 13.25 C23.91244141 11.98027344 24.13738281 10.71054688 24.36914062 9.40234375 C24.92260812 6.26995322 25.46260005 3.13518707 26 0 C30.29 0 34.58 0 39 0 C36.92676435 29.85459332 36.92676435 29.85459332 28.125 37.875 C21.41513369 42.43770909 14.93695813 42.69155801 7 42 C3.34203881 41.12080582 0.73786967 39.78706098 -1.875 37 C-6.31505029 29.10657726 -3.71192574 19.37455567 -2 11 C-1.62048778 8.9383255 -1.2453433 6.87584124 -0.875 4.8125 C-0.58625 3.224375 -0.2975 1.63625 0 0 Z " fill="#262122" transform="translate(92,91)"/>
<path d="M0 0 C3.85402129 -0.08770383 7.70778291 -0.14062735 11.5625 -0.1875 C12.64853516 -0.21263672 13.73457031 -0.23777344 14.85351562 -0.26367188 C21.01072598 -0.31981665 25.6358537 -0.15667868 31 3 C33.84861826 7.27292739 33.49183224 10.98799529 33 16 C31.72475701 19.89657581 30.86314296 21.45143625 27.40625 23.6484375 C23.26798842 25.29045414 20.01504231 25.34230258 15.625 25.1875 C14.88894531 25.17396484 14.15289062 25.16042969 13.39453125 25.14648438 C11.59603257 25.11144869 9.79791578 25.05765288 8 25 C7.93941406 25.81984375 7.87882813 26.6396875 7.81640625 27.484375 C7.73261719 28.56203125 7.64882812 29.6396875 7.5625 30.75 C7.48128906 31.81734375 7.40007812 32.8846875 7.31640625 33.984375 C7 37 7 37 6 41 C1.71 41 -2.58 41 -7 41 C-5.22693905 27.20533434 -3.41107228 13.50291629 0 0 Z " fill="#262122" transform="translate(140,91)"/>
<path d="M0 0 C3.96 0 7.92 0 12 0 C11.38736033 10.53740231 9.82521512 20.60420955 8 31 C14.27 31 20.54 31 27 31 C26.34 34.3 25.68 37.6 25 41 C14.77 41 4.54 41 -6 41 C-4.87411321 26.3634717 -4.87411321 26.3634717 -4.0625 21.3671875 C-3.88976562 20.2946875 -3.71703125 19.2221875 -3.5390625 18.1171875 C-3.27222656 16.51230469 -3.27222656 16.51230469 -3 14.875 C-2.82210937 13.76640625 -2.64421875 12.6578125 -2.4609375 11.515625 C-1.14237351 3.42712054 -1.14237351 3.42712054 0 0 Z " fill="#292425" transform="translate(182,91)"/>
<path d="M0 0 C3.875 1.75 3.875 1.75 5 4 C5.039992 5.99960012 5.04346799 8.00047242 5 10 C4.443125 10.17015625 3.88625 10.3403125 3.3125 10.515625 C-1.45316151 12.02904453 -5.85592789 13.7877148 -10.2734375 16.1328125 C-12 17 -12 17 -15 18 C-15 18.66 -15 19.32 -15 20 C-14.21625 19.505 -13.4325 19.01 -12.625 18.5 C-10 17 -10 17 -8 17 C-8.33 18.0725 -8.66 19.145 -9 20.25 C-10.58862316 26.73112204 -11.56778922 34.57421505 -8.6875 40.8125 C-4.32456516 47.19270579 3.84647965 50.83706243 11 53 C11 56.63 11 60.26 11 64 C1.59112005 63.69648774 -5.22665346 60.18049255 -11.8125 53.4375 C-17.37972753 46.53783176 -20.9638103 37.39101204 -20.4140625 28.46484375 C-18.77963435 18.73537054 -14.43732327 10.19054851 -6.546875 4.109375 C-4.39966395 2.6643965 -2.24004612 1.29526476 0 0 Z " fill="#E71C2A" transform="translate(33,80)"/>
<path d="M0 0 C28.75635534 -0.12042025 57.49815905 0.00642525 86.25 0.5 C86.94687172 0.51195782 87.64374344 0.52391563 88.36173248 0.53623581 C96.90795638 0.68354493 105.45404 0.83809244 114 1 C114 1.33 114 1.66 114 2 C100.0733962 3.06885602 86.14906572 3.32823224 72.1875 3.5625 C70.99454315 3.58367889 69.8015863 3.60485779 68.57247925 3.62667847 C45.71396002 4.02955827 22.86132535 4.11800096 0 4 C0 2.68 0 1.36 0 0 Z " fill="#AD4548" transform="translate(88,79)"/>
<path d="M0 0 C3.16115776 1.36983503 3.9927092 1.9890638 6 5 C6.1712914 7.54229597 6.23242934 9.97189481 6.1953125 12.51171875 C6.1924826 13.23994339 6.18965271 13.96816803 6.18673706 14.71846008 C6.17555257 17.04164137 6.15045166 19.36443547 6.125 21.6875 C6.11496794 23.2636663 6.10584248 24.83983865 6.09765625 26.41601562 C6.07561896 30.27749267 6.04110141 34.13868071 6 38 C4.515 37.505 4.515 37.505 3 37 C2.67 29.74 2.34 22.48 2 15 C0.68 14.67 -0.64 14.34 -2 14 C-2.33 22.25 -2.66 30.5 -3 39 C-3.33 39 -3.66 39 -4 39 C-4 31.08 -4 23.16 -4 15 C-4.66 15 -5.32 15 -6 15 C-6.28875 15.721875 -6.5775 16.44375 -6.875 17.1875 C-7.56827626 18.92069066 -8.2881721 20.64383433 -9.05078125 22.34765625 C-11.77020758 29.94638251 -9.99949229 37.76908109 -7 45 C-12.80820458 39.48965206 -12.80820458 39.48965206 -13.203125 34.36328125 C-13.30399081 27.79859808 -12.75705284 22.97361448 -10 17 C-10.78375 17.495 -11.5675 17.99 -12.375 18.5 C-15 20 -15 20 -17 20 C-17 19.34 -17 18.68 -17 18 C-11.53820713 13.49067237 -4.13959083 10 3 10 C2.5359375 8.081875 2.5359375 8.081875 2.0625 6.125 C1.88847656 5.40570313 1.71445312 4.68640625 1.53515625 3.9453125 C1.05153008 1.9414343 1.05153008 1.9414343 0 0 Z " fill="#9A131A" transform="translate(35,80)"/>
<path d="M0 0 C0 1.32 0 2.64 0 4 C-9.73822108 3.89109349 -19.4763866 3.77821874 -29.2145071 3.66066074 C-33.73925862 3.60615474 -38.26401674 3.55287471 -42.78881836 3.50268555 C-62.87412627 3.2790152 -82.93518954 3.0069952 -103 2 C-103 1.67 -103 1.34 -103 1 C-68.66273723 0.29703687 -34.34468841 -0.16425611 0 0 Z " fill="#DB3037" transform="translate(209,140)"/>
<path d="M0 0 C3.875 1.75 3.875 1.75 5 4 C5.039992 5.99960012 5.04346799 8.00047242 5 10 C4.443125 10.17015625 3.88625 10.3403125 3.3125 10.515625 C-1.45316151 12.02904453 -5.85592789 13.7877148 -10.2734375 16.1328125 C-12 17 -12 17 -15 18 C-15.83211276 23.03854106 -16.1078534 27.8125662 -16.0625 32.9375 C-16.05798828 33.62134766 -16.05347656 34.30519531 -16.04882812 35.00976562 C-16.0371956 36.67321604 -16.01926694 38.3366205 -16 40 C-19.84146341 36.65396341 -19.84146341 36.65396341 -20.53125 33.80859375 C-20.38846355 22.97467217 -16.70599083 13.70599083 -9 6 C-6.11647342 3.77766422 -3.15034141 1.82162599 0 0 Z " fill="#F2837C" transform="translate(33,80)"/>
<path d="M0 0 C0.66 0 1.32 0 2 0 C2.00410889 0.78648926 2.00821777 1.57297852 2.01245117 2.38330078 C2.0454502 5.96461878 2.11610468 9.54425013 2.1875 13.125 C2.19330078 14.3625 2.19910156 15.6 2.20507812 16.875 C2.18165824 24.27881461 2.18165824 24.27881461 5.28125 30.75 C7.68565683 32.73985393 9.36017134 33.97428956 12.3125 34.875 C13.529375 35.24625 14.74625 35.6175 16 36 C16 40.29 16 44.58 16 49 C15.67 49 15.34 49 15 49 C15 45.37 15 41.74 15 38 C14.195625 37.95875 13.39125 37.9175 12.5625 37.875 C6.67747202 36.42955453 1.9986965 33.64642221 -1.6875 28.765625 C-5.12204036 22.63809276 -5.99868448 16.93766981 -5 10 C-3.9227254 6.25681166 -2.16283743 3.24425615 0 0 Z " fill="#F5EEEF" transform="translate(29,95)"/>
<path d="M0 0 C4.36861978 4.02372875 6.59597319 6.91663753 7.37109375 12.83203125 C7.55787296 21.21512147 5.96245959 25.59508214 0.42578125 31.75 C-3.88660497 35.93170785 -8.11598313 37.22613837 -14 38 C-13.67 37.01 -13.34 36.02 -13 35 C-11.07048679 34.16549658 -9.13609063 33.67390015 -7.10546875 33.13671875 C-3.8790994 31.39483845 -2.26164073 29.36891123 -1 26 C-0.37957327 21.54474875 -0.3035528 17.11856715 -0.25 12.625 C-0.20552734 10.80548828 -0.20552734 10.80548828 -0.16015625 8.94921875 C-0.0896884 5.96607979 -0.0368752 2.98371205 0 0 Z " fill="#FAF6F6" transform="translate(60,95)"/>
<path d="M0 0 C3.15375806 0.72655258 5.49363804 1.71732596 8.25 3.4375 C8.95640625 3.86933594 9.6628125 4.30117187 10.390625 4.74609375 C10.92171875 5.15988281 11.4528125 5.57367188 12 6 C12 6.66 12 7.32 12 8 C8.52674819 9.1577506 5.63932552 9.06866652 2 9 C2.02356567 10.38505737 2.02356567 10.38505737 2.04760742 11.7980957 C2.09874832 15.22539889 2.13635535 18.65229642 2.16479492 22.07983398 C2.17987768 23.56297199 2.20034689 25.04606544 2.22631836 26.52905273 C2.26272616 28.66140745 2.27973073 30.79317235 2.29296875 32.92578125 C2.31653442 34.85031128 2.31653442 34.85031128 2.34057617 36.8137207 C2 40 2 40 0.6496582 41.96166992 C-1 43 -1 43 -3.6875 42.6875 C-4.450625 42.460625 -5.21375 42.23375 -6 42 C-5.360625 41.690625 -4.72125 41.38125 -4.0625 41.0625 C-2.06389179 40.1654837 -2.06389179 40.1654837 -1 39 C-0.83976438 36.11747355 -0.74045971 33.25621473 -0.68359375 30.37109375 C-0.66281265 29.50686295 -0.64203156 28.64263214 -0.62062073 27.75221252 C-0.55502886 24.98072555 -0.49619582 22.20914079 -0.4375 19.4375 C-0.39432392 17.56314077 -0.35070994 15.68879157 -0.30664062 13.81445312 C-0.19933773 9.20973664 -0.09809785 4.60492142 0 0 Z " fill="#E23232" transform="translate(50,79)"/>
<path d="M0 0 C5.40990087 4.69807181 6.7552644 8.824794 7.30078125 15.90234375 C7.31985816 17.24726622 7.3234534 18.59248684 7.3125 19.9375 C7.30621582 20.99300049 7.30621582 20.99300049 7.29980469 22.06982422 C7.11064094 30.74922056 4.37983289 37.54366347 -1.7890625 43.8203125 C-8.26720041 49.7982081 -14.28971749 52.23594013 -23 53 C-23 52.34 -23 51.68 -23 51 C-21.02 51 -19.04 51 -17 51 C-17 50.34 -17 49.68 -17 49 C-15.80375 48.5875 -14.6075 48.175 -13.375 47.75 C-5.87441673 44.8794064 -1.53048687 41.18888993 2 34 C3.98184313 29.14240549 4.38420085 24.85895475 4.375 19.6875 C4.37628906 18.93782959 4.37757812 18.18815918 4.37890625 17.41577148 C4.27960991 12.21230477 3.46456628 8.16108809 0.875 3.56640625 C0 2 0 2 0 0 Z " fill="#5C0E12" transform="translate(70,91)"/>
<path d="M0 0 C0.66 0 1.32 0 2 0 C2 1.32 2 2.64 2 4 C-23.74 3.67 -49.48 3.34 -76 3 C-76 2.67 -76 2.34 -76 2 C-50.92 2 -25.84 2 0 2 C0 1.34 0 0.68 0 0 Z " fill="#601718" transform="translate(207,140)"/>
<path d="M0 0 C1.22976562 0.74056641 1.22976562 0.74056641 2.484375 1.49609375 C3.56203125 2.13675781 4.6396875 2.77742188 5.75 3.4375 C6.81734375 4.07558594 7.8846875 4.71367187 8.984375 5.37109375 C12.05043401 7.18804166 12.05043401 7.18804166 16 8 C16 11.63 16 15.26 16 19 C8.92907262 18.66855028 4.68719966 17.19953981 -1 13 C2.2002215 13 4.61483471 13.63242392 7.6875 14.5 C8.68136719 14.7784375 9.67523438 15.056875 10.69921875 15.34375 C11.83810547 15.66859375 11.83810547 15.66859375 13 16 C13 13.69 13 11.38 13 9 C12.39671875 8.81824219 11.7934375 8.63648438 11.171875 8.44921875 C2.65512266 5.77056277 2.65512266 5.77056277 0 3 C0 2.01 0 1.02 0 0 Z " fill="#86171D" transform="translate(28,125)"/>
<path d="M0 0 C6.625 -0.25 6.625 -0.25 10 2 C9.125 7.875 9.125 7.875 8 9 C4.99668982 9.14193337 2.00782866 9.04236378 -1 9 C-0.67 6.03 -0.34 3.06 0 0 Z " fill="#F2F2F2" transform="translate(151,99)"/>
<path d="M0 0 C0.33 0 0.66 0 1 0 C1.11651725 4.37477474 1.18736 8.74914827 1.25 13.125 C1.28351562 14.3625 1.31703125 15.6 1.3515625 16.875 C1.46211039 27.15595407 1.46211039 27.15595407 -0.78125 30.74609375 C-4.39343954 34.41551869 -7.95088427 35.8115715 -13.0859375 36.12890625 C-18.46214831 35.78903085 -21.20100361 33.70402148 -25 30 C-22 30 -22 30 -20.12109375 31.47265625 C-16.43934311 34.12378792 -12.3531172 33.64908717 -8 33 C-4.60511578 30.94892412 -3.19676919 29.29515379 -1 26 C-0.63155492 23.1913957 -0.63155492 23.1913957 -0.5859375 20.01953125 C-0.54726563 18.85615234 -0.50859375 17.69277344 -0.46875 16.49414062 C-0.42234375 14.67172852 -0.42234375 14.67172852 -0.375 12.8125 C-0.33632813 11.58595703 -0.29765625 10.35941406 -0.2578125 9.09570312 C-0.16343897 6.06395344 -0.07785451 3.03221159 0 0 Z " fill="#4D080C" transform="translate(58,95)"/>
<path d="M0 0 C0.33 0 0.66 0 1 0 C1.33 2.64 1.66 5.28 2 8 C2.66 8 3.32 8 4 8 C5.40234375 10.08203125 5.40234375 10.08203125 6.9375 12.8125 C8.72745463 15.98497713 10.3957481 18.4710155 13 21 C13.6875 23.1875 13.6875 23.1875 14 25 C11 25 11 25 9.31640625 23.63671875 C3.70919258 17.40509376 0.32323131 10.76766182 -0.25 2.3125 C-0.1675 1.549375 -0.085 0.78625 0 0 Z " fill="#C7262D" transform="translate(14,112)"/>
<path d="M0 0 C2.0625 0.4375 2.0625 0.4375 4 1 C3.34 1 2.68 1 2 1 C1.566875 2.0828125 1.566875 2.0828125 1.125 3.1875 C0.43172374 4.92069066 -0.2881721 6.64383433 -1.05078125 8.34765625 C-3.77020758 15.94638251 -1.99949229 23.76908109 1 31 C-4.76504323 25.53060002 -4.76504323 25.53060002 -5.23828125 20.43359375 C-5.41925323 13.12804051 -4.39587534 7.50535155 -1 1 C-0.67 0.67 -0.34 0.34 0 0 Z " fill="#561013" transform="translate(27,94)"/>
<path d="M0 0 C0.33 0 0.66 0 1 0 C1 1.98 1 3.96 1 6 C0.443125 6.17015625 -0.11375 6.3403125 -0.6875 6.515625 C-6.07961048 8.22798441 -11.01049513 10.34371683 -16 13 C-16.99 13.495 -16.99 13.495 -18 14 C-17.06233099 10.62439157 -16.16556379 9.1372968 -13.4375 6.875 C-9.95166719 4.97363665 -6.65740743 3.79356661 -2.85546875 2.7109375 C-0.80009572 2.16286386 -0.80009572 2.16286386 0 0 Z " fill="#F0524B" transform="translate(37,84)"/>
<path d="M0 0 C2.125 0.9375 2.125 0.9375 4 2 C4 2.99 4 3.98 4 5 C3.34 4.34 2.68 3.68 2 3 C1.67 11.25 1.34 19.5 1 28 C0.01 28 -0.98 28 -2 28 C-2 19.09 -2 10.18 -2 1 C-1.34 0.67 -0.68 0.34 0 0 Z " fill="#963137" transform="translate(59,93)"/>
<path d="M0 0 C1.65 0 3.3 0 5 0 C5 1.66666667 5 3.33333333 5 5 C6.0209375 6.6396875 6.0209375 6.6396875 7.0625 8.3125 C10.06657104 14.01496468 8.86512131 19.83130892 8 26 C7.67 26 7.34 26 7 26 C6.89042969 25.14277344 6.78085938 24.28554687 6.66796875 23.40234375 C5.79382957 17.09859212 4.84829035 11.69658069 2 6 C1.67 5.01 1.34 4.02 1 3 C0.34 3 -0.32 3 -1 3 C-0.67 2.01 -0.34 1.02 0 0 Z " fill="#D92028" transform="translate(60,89)"/>
<path d="M0 0 C0.66 0 1.32 0 2 0 C1.66282576 5.39478788 -1.27790886 9.30024141 -5 13 C-8.17371957 15.09445779 -11.36552421 16.85523396 -15 18 C-15.99 17.67 -16.98 17.34 -18 17 C-17 15 -17 15 -13.875 13.75 C-8.18711885 11.42101163 -4.11928181 7.9497167 -1.0625 2.625 C-0.5365625 1.325625 -0.5365625 1.325625 0 0 Z " fill="#F17A71" transform="translate(66,117)"/>
<path d="M0 0 C-0.9777968 2.45478461 -1.64262401 3.76644515 -3.8828125 5.23046875 C-9.00066288 7.41491708 -13.44304417 8.59585776 -19 9 C-19 8.34 -19 7.68 -19 7 C-17.02 7 -15.04 7 -13 7 C-13 6.34 -13 5.68 -13 5 C-12.45730469 4.80664062 -11.91460937 4.61328125 -11.35546875 4.4140625 C-10.64003906 4.15367187 -9.92460938 3.89328125 -9.1875 3.625 C-8.47980469 3.36976563 -7.77210937 3.11453125 -7.04296875 2.8515625 C-0.20183486 0 -0.20183486 0 0 0 Z " fill="#4C1416" transform="translate(66,135)"/>
<path d="M0 0 C2.44989101 3.74235319 2.23086143 7.44225419 2.125 11.75 C2.11597656 12.44738281 2.10695313 13.14476563 2.09765625 13.86328125 C2.07419888 15.57566958 2.03833104 17.28788004 2 19 C-1.86752584 15.69043738 -1.86752584 15.69043738 -2.4609375 12.59765625 C-2.1719457 4.07239819 -2.1719457 4.07239819 0 0 Z " fill="#E55756" transform="translate(15,101)"/>
<path d="M0 0 C0.33 0 0.66 0 1 0 C1.08690253 4.43737712 1.14035926 8.87453634 1.1875 13.3125 C1.21263672 14.57513672 1.23777344 15.83777344 1.26367188 17.13867188 C1.27817383 18.95141602 1.27817383 18.95141602 1.29296875 20.80078125 C1.31653442 22.47394409 1.31653442 22.47394409 1.34057617 24.1809082 C1 27 1 27 -0.3503418 28.90698242 C-2 30 -2 30 -4.6875 29.6875 C-5.450625 29.460625 -6.21375 29.23375 -7 29 C-6.38125 28.71125 -5.7625 28.4225 -5.125 28.125 C-2.86674235 27.06279958 -2.86674235 27.06279958 -1 25 C-0.62826984 22.3817233 -0.62826984 22.3817233 -0.5859375 19.3359375 C-0.52792969 17.65371094 -0.52792969 17.65371094 -0.46875 15.9375 C-0.42234375 14.1740625 -0.42234375 14.1740625 -0.375 12.375 C-0.31699219 10.59996094 -0.31699219 10.59996094 -0.2578125 8.7890625 C-0.16331155 5.85953309 -0.07775442 2.93001403 0 0 Z " fill="#F05F59" transform="translate(51,92)"/>
<path d="M0 0 C0.66 0 1.32 0 2 0 C2 1.32 2 2.64 2 4 C-0.39591038 4.02712351 -2.79150957 4.0468982 -5.1875 4.0625 C-5.86103516 4.07087891 -6.53457031 4.07925781 -7.22851562 4.08789062 C-10.95434131 4.10606538 -14.3788042 3.89299392 -18 3 C-18 2.67 -18 2.34 -18 2 C-12.06 2 -6.12 2 0 2 C0 1.34 0 0.68 0 0 Z " fill="#7B171D" transform="translate(207,140)"/>
<path d="M0 0 C0.66 0.33 1.32 0.66 2 1 C1.67 2.65 1.34 4.3 1 6 C-2.96 7.32 -6.92 8.64 -11 10 C-11 9.34 -11 8.68 -11 8 C-10.34 8 -9.68 8 -9 8 C-9 7.34 -9 6.68 -9 6 C-5.535 5.505 -5.535 5.505 -2 5 C-1.34 3.35 -0.68 1.7 0 0 Z " fill="#F4716A" transform="translate(35,81)"/>
<path d="M0 0 C6.55237724 0.27882456 10.9763224 2.84280943 16 7 C17.765625 9.19921875 17.765625 9.19921875 19 11 C18.01 11.495 18.01 11.495 17 12 C16.360625 11.278125 15.72125 10.55625 15.0625 9.8125 C12.12129539 6.84601283 8.76371508 5.04003503 5.0859375 3.11328125 C3 2 3 2 0 0 Z " fill="#B0242A" transform="translate(52,80)"/>
<path d="M0 0 C1.65 1.32 3.3 2.64 5 4 C4.67 4.66 4.34 5.32 4 6 C3.67 5.67 3.34 5.34 3 5 C0.81360547 4.92741054 -1.37500389 4.91626217 -3.5625 4.9375 C-4.76003906 4.94652344 -5.95757812 4.95554687 -7.19140625 4.96484375 C-8.58166016 4.98224609 -8.58166016 4.98224609 -10 5 C-10 4.34 -10 3.68 -10 3 C-6.7 2.67 -3.4 2.34 0 2 C0 1.34 0 0.68 0 0 Z " fill="#ED3839" transform="translate(62,85)"/>
<path d="M0 0 C3.46177365 1.15392455 6.00667498 2.93793165 9 5 C6.10765685 5.82638376 4.11257569 6 1 6 C0.67 6.66 0.34 7.32 0 8 C0 5.36 0 2.72 0 0 Z " fill="#EF675F" transform="translate(51,79)"/>
<path d="M0 0 C0.33 0 0.66 0 1 0 C1.33 2.64 1.66 5.28 2 8 C2.66 8 3.32 8 4 8 C4.12375 8.886875 4.2475 9.77375 4.375 10.6875 C4.94412736 13.70387502 5.76614436 16.20326054 7 19 C2.60311136 15.51281246 1.23582395 11.3003116 0 6 C-0.1875 2.4375 -0.1875 2.4375 0 0 Z " fill="#B9282E" transform="translate(14,112)"/>
<path d="M0 0 C0.33 0 0.66 0 1 0 C1.12117188 0.72445312 1.24234375 1.44890625 1.3671875 2.1953125 C2.24939579 7.28497573 3.16442347 12.14883346 5 17 C1.77034225 14.26721267 0.16516261 12.66065045 -0.875 8.5 C-0.98545475 5.40726707 -0.80986267 2.96949647 0 0 Z " fill="#73262A" transform="translate(23,108)"/>
<path d="M0 0 C0.56847656 0.39832031 1.13695313 0.79664062 1.72265625 1.20703125 C6.35725893 4.38703409 10.7499834 6.98935534 16 9 C13 10 13 10 10.625 9.109375 C9.75875 8.66078125 8.8925 8.2121875 8 7.75 C6.700625 7.09257812 6.700625 7.09257812 5.375 6.421875 C3.1873076 5.1121381 1.60820656 3.96793698 0 2 C0 1.34 0 0.68 0 0 Z " fill="#EB3034" transform="translate(25,125)"/>
<path d="M0 0 C0.99 0.33 1.98 0.66 3 1 C3 3.31 3 5.62 3 8 C2.34 8 1.68 8 1 8 C0.67 8.99 0.34 9.98 0 11 C0 7.37 0 3.74 0 0 Z " fill="#DC4549" transform="translate(46,133)"/>
<path d="M0 0 C1.65 0.33 3.3 0.66 5 1 C5 5.29 5 9.58 5 14 C4.67 14 4.34 14 4 14 C4 10.37 4 6.74 4 3 C1.03 2.505 1.03 2.505 -2 2 C-1.34 1.34 -0.68 0.68 0 0 Z " fill="#D6CACB" transform="translate(40,130)"/>
<path d="M0 0 C-1.11666174 3.34998521 -1.74694925 3.79340222 -4.5625 5.6875 C-5.20316406 6.12449219 -5.84382813 6.56148438 -6.50390625 7.01171875 C-6.99761719 7.33785156 -7.49132812 7.66398437 -8 8 C-8 6.35 -8 4.7 -8 3 C-2.25 0 -2.25 0 0 0 Z " fill="#E82730" transform="translate(25,97)"/>
<path d="M0 0 C0 0.66 0 1.32 0 2 C-2.97 2.66 -5.94 3.32 -9 4 C-8.67 3.01 -8.34 2.02 -8 1 C-2.59770115 -1.29885057 -2.59770115 -1.29885057 0 0 Z " fill="#E2D4D5" transform="translate(55,129)"/>
<path d="M0 0 C0.66 0.33 1.32 0.66 2 1 C-1.19990508 3.74277578 -4.00499382 5.6302836 -8 7 C-8 6.34 -8 5.68 -8 5 C-6.3203125 3.67578125 -6.3203125 3.67578125 -4.125 2.3125 C-3.40570312 1.85488281 -2.68640625 1.39726563 -1.9453125 0.92578125 C-1.30335937 0.62027344 -0.66140625 0.31476563 0 0 Z " fill="#EC3637" transform="translate(26,93)"/>
</svg>
