<?xml version="1.0" encoding="UTF-8"?>
<svg version="1.1" xmlns="http://www.w3.org/2000/svg" width="2278" height="370">
<path d="M0 0 C7.63083641 -0.2294645 15.26077397 -0.38632937 22.89428711 -0.49438477 C25.4870732 -0.53945843 28.07963291 -0.60073764 30.67163086 -0.67895508 C55.01281261 -1.39473459 55.01281261 -1.39473459 61.9375 4.24609375 C63.34009922 5.78802507 64.69730366 7.37278797 66 9 C67.70771004 10.56540087 69.43495737 12.10995948 71.1875 13.625 C72.00734375 14.37265625 72.8271875 15.1203125 73.671875 15.890625 C75.73153033 17.75675567 77.82388895 19.57069788 79.9375 21.375 C87.87240688 28.29796532 95.26859549 35.90644487 102 44 C102.45068848 44.53689453 102.90137695 45.07378906 103.36572266 45.62695312 C116.37068875 61.16147027 127.81714728 77.48621168 138 95 C138.45810059 95.78310547 138.91620117 96.56621094 139.38818359 97.37304688 C146.56494458 109.75589064 152.72813676 122.56259782 158.6875 135.5625 C159.04564789 136.34092255 159.40379578 137.11934509 159.77279663 137.9213562 C160.79694856 140.15409763 161.81237745 142.39056276 162.82421875 144.62890625 C163.13093506 145.29886627 163.43765137 145.96882629 163.75366211 146.65908813 C165.2858127 150.08295223 166.45037394 153.28256964 167 157 C167.66 157 168.32 157 169 157 C169.41904602 155.67824516 169.41904602 155.67824516 169.84655762 154.32978821 C170.88597901 151.32915884 172.06590409 148.57447291 173.45507812 145.72338867 C173.9431897 144.71761276 174.43130127 143.71183685 174.9342041 142.67558289 C175.46122925 141.60057022 175.98825439 140.52555756 176.53125 139.41796875 C177.08180054 138.29038651 177.63235107 137.16280426 178.19958496 136.00105286 C179.36774543 133.61209547 180.53755694 131.22402771 181.70996094 128.8371582 C183.47476871 125.2429443 185.22523532 121.64181748 186.9765625 118.04101562 C202.65649192 85.95708915 202.65649192 85.95708915 212.91796875 73.078125 C214.20030651 71.02584296 214.20030651 71.02584296 213.93359375 68.53515625 C212.77290924 65.38333931 211.18981389 63.61609288 208.875 61.1875 C208.05515625 60.31222656 207.2353125 59.43695313 206.390625 58.53515625 C205.20726562 57.28025391 205.20726562 57.28025391 204 56 C202.86761977 54.71479854 201.74197183 53.42361531 200.625 52.125 C199.41844938 50.74843542 198.20994347 49.37358336 197 48 C195.87078125 46.71222656 195.87078125 46.71222656 194.71875 45.3984375 C183.50919027 32.87209213 171.20133966 21.40105549 158 11 C155.9542494 9.35924571 153.91254467 7.71343363 151.875 6.0625 C150.96492187 5.33160156 150.05484375 4.60070313 149.1171875 3.84765625 C147 2 147 2 146 0 C153.45163939 -0.2554967 160.90213359 -0.4294681 168.35717773 -0.54931641 C170.88788045 -0.59932073 173.41829846 -0.6673504 175.94799805 -0.75439453 C200.35610533 -1.57265094 200.35610533 -1.57265094 207.8359375 4.6796875 C209.61049392 6.39988814 211.34162782 8.16753105 213 10 C214.19443002 11.05095539 215.3991303 12.0905641 216.62109375 13.109375 C217.55050781 13.98078125 218.47992188 14.8521875 219.4375 15.75 C220.21130005 16.47364746 220.21130005 16.47364746 221.00073242 17.21191406 C227.48319751 23.32104346 233.744531 29.66012437 240 36 C243.92958302 34.43366271 246.35801618 31.70622602 249.1875 28.6875 C256.45137605 21.22184962 264.48024059 14.96827399 273 9 C273.6707959 8.52272461 274.3415918 8.04544922 275.03271484 7.55371094 C285.64809275 0.18344856 294.20879888 -1.1991751 307 0 C303.84016773 3.39991757 300.31216372 5.96023161 296.5 8.5625 C286.38295983 15.65569136 277.82987865 23.55041331 270.1640625 33.29296875 C267.27452253 36.9075016 264.1714342 40.30324654 261.04296875 43.7109375 C258.93468885 46.07317846 256.95661814 48.5113576 255 51 C256.29974031 54.68688712 257.82808852 57.23759619 260.375 60.1875 C283.56739539 88.47296225 298.8189101 122.60271496 313 156 C315.56235953 152.81676845 317.36750336 149.5092417 319.1875 145.85546875 C319.48634598 145.25754517 319.78519196 144.65962158 320.09309387 144.0435791 C321.06609195 142.09353055 322.03306293 140.14055998 323 138.1875 C323.6764636 136.82972793 324.35314207 135.47206288 325.0300293 134.11450195 C328.59058942 126.95719424 332.07637683 119.77040917 335.47485352 112.53442383 C340.4325514 101.98291534 345.77515652 91.86015207 352 82 C352.39509766 81.37222656 352.79019531 80.74445313 353.19726562 80.09765625 C362.13347486 66.02788001 372.13938547 52.6891955 383.5859375 40.56640625 C385.63575461 38.38723175 387.57811464 36.16577805 389.5 33.875 C398.33453299 23.77245168 409.08621245 15.70353293 420 8 C420.59184082 7.5678418 421.18368164 7.13568359 421.79345703 6.69042969 C431.67563368 -0.41300189 440.22535933 -0.96119516 452 0 C448.83985287 3.29017107 445.69785889 6.05003328 441.9375 8.625 C425.8395212 20.16979713 412.84719162 35.25851038 401 51 C400.59072266 51.53641113 400.18144531 52.07282227 399.75976562 52.62548828 C385.15160231 71.86192235 374.15750645 93.6541646 363 115 C362.14873535 116.61648437 362.14873535 116.61648437 361.28027344 118.265625 C342.06142548 154.92024519 328.52540849 194.03721909 318 234 C317.48974107 235.91670867 316.97932612 237.8333758 316.46875 239.75 C315.29779567 244.16292786 314.14324185 248.57981609 313 253 C310.03 253 307.06 253 304 253 C303.60321045 251.8440332 303.2064209 250.68806641 302.79760742 249.49707031 C283.95301463 194.67806293 263.48710037 139.43683958 231 91 C228.53846944 94.09003584 226.69989483 97.28054642 224.8828125 100.78515625 C224.28235107 101.94168701 223.68188965 103.09821777 223.06323242 104.28979492 C222.41654845 105.54705151 221.77048698 106.80462845 221.125 108.0625 C220.79496979 108.70426178 220.46493958 109.34602356 220.12490845 110.00723267 C217.73314904 114.66302116 215.36073546 119.328411 213 124 C212.69523743 124.602677 212.39047485 125.205354 212.07647705 125.82629395 C193.14674844 163.33724753 180.00978886 203.07401168 169.86279297 243.76904297 C169.02775333 246.89607031 168.05726371 249.94175608 167 253 C164.03 253 161.06 253 158 253 C157.58339111 251.74380859 157.16678223 250.48761719 156.73754883 249.19335938 C148.28885173 223.77876924 139.63058928 198.59276583 129 174 C128.5870166 173.04254883 128.1740332 172.08509766 127.74853516 171.09863281 C125.61100487 166.17936051 123.40843032 161.29471614 121.13769531 156.43554688 C120.34021139 154.7283152 119.54836943 153.018442 118.76074219 151.30664062 C111.90720526 136.42555743 104.28918549 122.12876211 96 108 C95.53094238 107.19191895 95.06188477 106.38383789 94.57861328 105.55126953 C85.14512921 89.35095065 74.11120213 74.2997176 62 60 C61.18273438 58.99839844 60.36546875 57.99679688 59.5234375 56.96484375 C53.21875198 49.31948708 46.42293791 42.21365134 39.4375 35.1875 C38.57543945 34.31625488 37.71337891 33.44500977 36.82519531 32.54736328 C30.85727403 26.6076885 24.56782286 21.26016788 18 16 C15.50214239 13.91734671 13.02949985 11.80655305 10.5625 9.6875 C9.97791016 9.18927734 9.39332031 8.69105469 8.79101562 8.17773438 C8.22189453 7.68982422 7.65277344 7.20191406 7.06640625 6.69921875 C6.57084229 6.27471436 6.07527832 5.85020996 5.56469727 5.4128418 C3.64043029 3.6753269 1.82844321 1.83756614 0 0 Z " fill="#2C2A7D" transform="translate(0,44)"/>
<path d="M0 0 C9.24 0 18.48 0 28 0 C31.44078057 12.23613509 34.70326426 24.49740768 37.80078125 36.82421875 C38.24508436 38.58516165 38.68960365 40.34605002 39.13432312 42.10688782 C40.29531489 46.70568702 41.45391713 51.3050844 42.61181641 55.90466309 C44.67199873 64.08688895 46.7362714 72.26808393 48.80078125 80.44921875 C49.02213871 81.32675686 49.24349617 82.20429497 49.47156143 83.10842514 C53.5873959 99.42130766 57.77020145 115.7163098 62 132 C65.54723238 118.44618785 69.09435806 104.89234777 72.64136696 91.33847713 C74.28902173 85.04245224 75.93670848 78.74643572 77.58447266 72.45043945 C79.17960762 66.35553077 80.77465293 60.26059862 82.36964035 54.16565132 C82.9731068 51.85967769 83.57660362 49.553712 84.18013382 47.24775505 C84.75614708 45.04691891 85.33209686 42.84606616 85.90797997 40.64519596 C86.46154717 38.5299597 87.01537482 36.41479158 87.5694828 34.29969692 C88.96012518 28.98862894 90.34372967 23.67585781 91.7164917 18.36013794 C91.9922724 17.29485398 92.26805309 16.22957003 92.55219078 15.13200474 C93.07683808 13.10427862 93.59969281 11.07608759 94.12049294 9.04736996 C94.35323606 8.14889623 94.58597919 7.2504225 94.82577515 6.32472229 C95.0291921 5.53489236 95.23260906 4.74506243 95.44219017 3.93129826 C96 2 96 2 97 0 C106.24 0 115.48 0 125 0 C128.37499329 8.99998212 128.37499329 8.99998212 129.30744934 12.60365295 C129.52167038 13.422827 129.73589142 14.24200104 129.956604 15.08599854 C130.17951111 15.95617615 130.40241821 16.82635376 130.63208008 17.72290039 C130.87647324 18.66248093 131.12086639 19.60206146 131.37266541 20.57011414 C132.17570817 23.66158448 132.97263764 26.75459567 133.76953125 29.84765625 C134.33341392 32.0232467 134.8976857 34.19873632 135.46232605 36.37413025 C136.94831692 42.10339966 138.4291576 47.83398784 139.90887451 53.56488037 C141.39524828 59.31811567 142.88622729 65.07015676 144.37695312 70.82226562 C146.06378599 77.33206526 147.75018977 83.84197307 149.43305969 90.35279846 C152.93652825 103.90680749 156.4602883 117.45541004 160 131 C161.63148336 127.99949488 162.58756154 125.14224521 163.41065979 121.83164978 C163.67280273 120.7871315 163.93494568 119.74261322 164.20503235 118.66644287 C164.6266993 116.95584686 164.6266993 116.95584686 165.05688477 115.21069336 C165.35793121 114.00548538 165.65897766 112.8002774 165.96914673 111.55854797 C166.79268737 108.25785467 167.61205269 104.95617651 168.42965817 101.65401149 C169.28650325 98.19787351 170.14887854 94.74311629 171.01072693 91.28822327 C172.64227815 84.74442871 174.26922756 78.19949972 175.89435667 71.65410763 C178.28054546 62.04416536 180.67269341 52.43570625 183.06598568 42.82753086 C183.24145021 42.12310335 183.41691473 41.41867583 183.59769636 40.69290203 C183.94752556 39.28848768 184.29737014 37.88407716 184.64723057 36.47967058 C185.67216179 32.36468231 186.69542209 28.24928306 187.71725285 24.13352382 C188.50152288 20.97545048 189.28717653 17.8177212 190.07250977 14.65991211 C190.49721306 12.94627975 190.49721306 12.94627975 190.93049622 11.19802856 C191.18981934 10.15633011 191.44914246 9.11463165 191.71632385 8.04136658 C191.94140908 7.13490859 192.16649431 6.2284506 192.39840031 5.29452419 C192.86602476 3.51098669 193.41693237 1.7492029 194 0 C203.57 0 213.14 0 223 0 C220.18075134 11.4530194 217.17317456 22.83605474 214.02734375 34.203125 C213.54625308 35.94686483 213.0653103 37.69064547 212.58450317 39.4344635 C211.30276527 44.08088609 210.01845978 48.72659498 208.73341751 53.37210464 C207.93430577 56.26154976 207.13585407 59.15117646 206.33761597 62.04086304 C199.14820541 88.06602851 191.93626018 114.08495236 184.6816597 140.09202576 C184.06264441 142.3119821 183.44431403 144.53212823 182.82614136 146.75231934 C181.69009036 150.83170545 180.5504303 154.91007353 179.41015625 158.98828125 C179.0758963 160.18920914 178.74163635 161.39013702 178.39724731 162.62745667 C177.94162918 164.25299721 177.94162918 164.25299721 177.47680664 165.91137695 C177.21388321 166.8525386 176.95095978 167.79370026 176.68006897 168.76338196 C176 171 176 171 175 173 C166.09 173 157.18 173 148 173 C145.97207986 167.59221296 144.14233937 162.33392723 142.59912109 156.796875 C142.37905396 156.01805466 142.15898682 155.23923431 141.93225098 154.43681335 C141.20937727 151.8754507 140.49138623 149.31274706 139.7734375 146.75 C139.26149894 144.93228881 138.74925528 143.11466353 138.23672485 141.29711914 C136.88580459 136.50331591 135.53902064 131.70836021 134.19311523 126.91314697 C132.85647682 122.15364124 131.51596755 117.39522643 130.17578125 112.63671875 C122.60560754 85.7490893 122.60560754 85.7490893 118.91804314 72.55586243 C118.07246576 69.53104831 117.22553983 66.50661258 116.37849808 63.48220825 C115.80350382 61.42662712 115.23073885 59.37043352 114.65805054 57.31420898 C114.31923859 56.10450439 113.98042664 54.8947998 113.63134766 53.6484375 C113.19177231 52.07328369 113.19177231 52.07328369 112.74331665 50.46630859 C112.0844527 48.02716653 112.0844527 48.02716653 111 46 C108.21505139 55.92380605 105.43044171 65.84770715 102.64622307 75.77171803 C101.31674951 80.51044642 99.98718621 85.24914959 98.65740967 89.98779297 C91.22571858 116.46264691 91.22571858 116.46264691 83.8359375 142.94921875 C83.54783203 143.98484451 83.25972656 145.02047028 82.96289062 146.08747864 C81.70186743 150.62173491 80.44320468 155.15662473 79.18847656 159.69262695 C78.76372886 161.22218379 78.33892851 162.75172602 77.9140625 164.28125 C77.3873999 166.18487305 77.3873999 166.18487305 76.85009766 168.12695312 C76 171 76 171 75 173 C65.76 173 56.52 173 47 173 C45.53621497 167.74280913 44.07245159 162.48561224 42.60873222 157.22840309 C42.06524026 155.27637279 41.52173864 153.32434517 40.97822762 151.37232018 C37.67193435 139.49767829 34.36658581 127.62277453 31.06323242 115.74731445 C29.82215289 111.28595613 28.58101409 106.82461431 27.33984375 102.36328125 C27.02973547 101.24856256 26.71962719 100.13384388 26.40012169 98.98534584 C22.43892159 84.74756366 18.46810957 70.51252115 14.48490524 56.28087997 C13.08043686 51.26069356 11.67864717 46.23975862 10.27712822 41.21874809 C8.97830573 36.56677652 7.67505165 31.91607593 6.36858463 27.26624584 C5.56913201 24.41682085 4.77392192 21.56622545 3.9799633 18.71526527 C3.44342488 16.79365922 2.90167847 14.87350967 2.35975647 12.95341492 C2.04550217 11.82176407 1.73124786 10.69011322 1.4074707 9.52416992 C1.13361038 8.54655197 0.85975006 7.56893402 0.57759094 6.56169128 C0 4 0 4 0 0 Z " fill="#939598" transform="translate(1432,122)"/>
<path d="M0 0 C0.92353271 0.00563965 1.84706543 0.0112793 2.79858398 0.01708984 C20.91342772 0.33849506 35.71779598 7.90506066 48.3125 20.8125 C65.97420169 42.26480276 66.96201416 71.91234567 65.6875 98.3125 C65.05437974 104.52428476 63.62761541 110.38950217 61.6875 116.3125 C61.46787598 117.00327637 61.24825195 117.69405273 61.02197266 118.40576172 C54.39627571 138.77989704 42.1072281 156.95618392 22.6328125 166.9375 C-0.60778298 177.78722097 -28.51492022 181.57835993 -53.3125 173.3125 C-53.30805878 174.1828035 -53.30361755 175.05310699 -53.29904175 175.94978333 C-53.25899189 184.1457292 -53.22852928 192.34164228 -53.20887566 200.53766346 C-53.19843192 204.75146975 -53.18426201 208.96519527 -53.16162109 213.17895508 C-53.13991367 217.24435407 -53.12793581 221.30967532 -53.12274551 225.37512779 C-53.11904597 226.92729606 -53.11182181 228.47946 -53.10103989 230.03159523 C-53.08655274 232.20320506 -53.08452087 234.37449231 -53.08544922 236.54614258 C-53.081008 237.78302322 -53.07656677 239.01990387 -53.07199097 240.29426575 C-53.3125 243.3125 -53.3125 243.3125 -55.3125 246.3125 C-57.50805664 246.83666992 -57.50805664 246.83666992 -60.22265625 247.04296875 C-61.21330078 247.12353516 -62.20394531 247.20410156 -63.22460938 247.28710938 C-64.78405273 247.39249023 -64.78405273 247.39249023 -66.375 247.5 C-67.38755859 247.58185547 -68.40011719 247.66371094 -69.44335938 247.74804688 C-73.97413332 248.09566912 -78.46197109 248.32996842 -83.0063324 248.32099915 C-83.81366035 248.31977208 -84.62098829 248.31854502 -85.45278072 248.31728077 C-86.37334177 248.31491429 -86.37334177 248.31491429 -87.3125 248.3125 C-87.31581015 247.37183843 -87.31912029 246.43117685 -87.32253075 245.46201038 C-87.40447739 222.29378276 -87.4970564 199.12561483 -87.60002708 175.95747089 C-87.64959598 164.75234059 -87.69598504 153.54721563 -87.734375 142.34204102 C-87.77918678 129.390738 -87.83235412 116.43949417 -87.8984375 103.48828125 C-87.90378604 102.44005896 -87.90913458 101.39183667 -87.9146452 100.31185007 C-88.085248 67.9450992 -88.60554904 35.64033961 -90.3125 3.3125 C-87.24490003 3.19109726 -84.18212173 3.10224101 -81.11328125 3.03198242 C-80.2473938 2.99437553 -79.38150635 2.95676865 -78.48937988 2.91802216 C-74.15762405 2.84358468 -72.00905875 2.81403919 -68.39916992 5.39729309 C-66.32232025 8.02564326 -64.81248824 10.63088285 -63.3125 13.625 C-62.20942269 15.55921542 -61.10529983 17.49283503 -60 19.42578125 C-59.55011719 20.28985596 -59.10023438 21.15393066 -58.63671875 22.04418945 C-57.38830248 24.18265472 -56.14616184 25.66805216 -54.3125 27.3125 C-53.68085937 26.55066406 -53.04921875 25.78882813 -52.3984375 25.00390625 C-38.74515273 9.05043846 -21.22480512 -0.13616867 0 0 Z M-52.3125 40.3125 C-53.47132868 42.63015735 -53.4542527 44.00010001 -53.48417664 46.58149719 C-53.49685577 47.47733521 -53.50953491 48.37317322 -53.52259827 49.29615784 C-53.53149582 50.28164108 -53.54039337 51.26712433 -53.54956055 52.2824707 C-53.56267273 53.31836334 -53.57578491 54.35425598 -53.58929443 55.42153931 C-53.63121703 58.86041512 -53.66565182 62.29931434 -53.69921875 65.73828125 C-53.72486522 68.12241256 -53.75064926 70.50654239 -53.77656555 72.89067078 C-53.82960107 77.89510263 -53.87851564 82.89955642 -53.92504883 87.90405273 C-53.98538368 94.32026836 -54.05960893 100.73624035 -54.13742352 107.1522646 C-54.1950042 112.07895432 -54.24331183 117.00570315 -54.289011 121.9325161 C-54.31243358 124.29805178 -54.33919234 126.66355683 -54.36932945 129.02901649 C-54.41046177 132.3374509 -54.43866052 135.6457552 -54.46362305 138.9543457 C-54.47859329 139.93375626 -54.49356354 140.91316681 -54.50898743 141.92225647 C-54.56221358 148.3517616 -54.56221358 148.3517616 -52.3125 154.3125 C-43.562134 162.22643395 -31.08084142 164.63385224 -19.73046875 164.53125 C-5.34064568 163.61030132 4.77376862 156.74663549 14.41015625 146.4765625 C27.7465166 130.18842106 33.28414508 104.8478121 31.6875 84.3125 C29.77329103 65.82022356 27.07431638 46.55395818 12.6875 33.3125 C-8.53613642 17.75553931 -34.33696217 21.7517121 -52.3125 40.3125 Z " fill="#2C2A7D" transform="translate(876.3125,121.6875)"/>
<path d="M0 0 C1.04696045 0.00829834 2.0939209 0.01659668 3.17260742 0.02514648 C17.32426799 0.33167671 29.61690495 3.54297772 40.3046875 13.31640625 C49.91032889 23.5198236 54.38396636 38.13147316 54.37025452 51.98043823 C54.37231651 53.59570656 54.37231651 53.59570656 54.37442017 55.24360657 C54.37082489 56.4095787 54.36722961 57.57555084 54.36352539 58.77685547 C54.36367142 60.01643509 54.36381744 61.25601471 54.3639679 62.53315735 C54.36339199 65.91908182 54.35838825 69.30494477 54.35139394 72.69085836 C54.34512847 76.2342622 54.34455408 79.77766692 54.34336853 83.32107544 C54.34026462 90.02512609 54.33206392 96.72916037 54.32201904 103.43320382 C54.31082868 111.06802009 54.30534009 118.70283716 54.30032361 126.3376596 C54.28988051 142.03761748 54.27154674 157.73755283 54.25 173.4375 C43.03 173.4375 31.81 173.4375 20.25 173.4375 C20.23541748 169.92577148 20.22083496 166.41404297 20.20581055 162.79589844 C20.15536825 151.16497304 20.08890398 139.53416919 20.01428509 127.90337753 C19.96945234 120.85487114 19.9300094 113.80641385 19.90356445 106.7578125 C19.87800583 99.9495873 19.83701766 93.14159118 19.78681374 86.33350372 C19.770189 83.74215692 19.75864748 81.15077214 19.75238609 78.55937958 C19.74269741 74.91663315 19.71458007 71.27444367 19.68237305 67.63183594 C19.68380814 66.5715921 19.68524323 65.51134827 19.6867218 64.41897583 C19.54837036 53.28118508 17.49982009 42.23749761 10.25 33.4375 C2.4254029 26.78590246 -5.57133784 24.39021237 -15.75 24.4375 C-29.41842732 25.7835116 -45.70588933 32.82297452 -55.75 42.4375 C-59.626128 48.16831304 -59.19070541 53.9320189 -59.18237305 60.59326172 C-59.1925647 61.8133342 -59.20275635 63.03340668 -59.21325684 64.29045105 C-59.23821537 67.62276246 -59.25010187 70.95463356 -59.25611091 74.28700018 C-59.26551242 77.77441979 -59.29171718 81.26171283 -59.31611633 84.74905396 C-59.35973632 91.34682366 -59.38831083 97.94456874 -59.41143972 104.54243863 C-59.4385156 112.05641349 -59.48242558 119.57026073 -59.52772844 127.08414435 C-59.62051027 142.53521155 -59.68999842 157.98626546 -59.75 173.4375 C-70.97 173.4375 -82.19 173.4375 -93.75 173.4375 C-93.74476318 170.30314453 -93.73952637 167.16878906 -93.73413086 163.93945312 C-93.71737206 153.44630024 -93.70644105 142.95314667 -93.69818783 132.45998383 C-93.69302501 126.11377744 -93.68605147 119.76758505 -93.67456055 113.42138672 C-93.44948703 64.64328653 -93.44948703 64.64328653 -95.8125 15.9375 C-95.90337891 14.69871094 -95.99425781 13.45992187 -96.08789062 12.18359375 C-96.30262529 9.26772304 -96.52305483 6.35244058 -96.75 3.4375 C-92.39007129 3.38804614 -88.03029138 3.35175512 -83.67016602 3.32763672 C-82.18706417 3.31758179 -80.70398212 3.30393596 -79.22094727 3.28662109 C-77.08865469 3.26234994 -74.95662431 3.25101201 -72.82421875 3.2421875 C-70.89968872 3.22647705 -70.89968872 3.22647705 -68.9362793 3.21044922 C-65.75 3.4375 -65.75 3.4375 -62.75 5.4375 C-61.84795976 8.14362071 -61.483784 10.2905608 -61.21484375 13.10546875 C-61.08432617 14.44448242 -61.08432617 14.44448242 -60.95117188 15.81054688 C-60.8206543 17.20370117 -60.8206543 17.20370117 -60.6875 18.625 C-60.59662109 19.56537109 -60.50574219 20.50574219 -60.41210938 21.47460938 C-60.18828717 23.7952922 -59.96770754 26.11623689 -59.75 28.4375 C-57.65255263 28.66575594 -57.65255263 28.66575594 -56.26171875 27.0390625 C-55.65972656 26.38679688 -55.05773438 25.73453125 -54.4375 25.0625 C-39.57437526 9.93157121 -21.62716994 -0.22274354 0 0 Z " fill="#2C2A7D" transform="translate(1252.75,121.5625)"/>
<path d="M0 0 C11.22 0 22.44 0 34 0 C34.029729 4.93380615 34.029729 4.93380615 34.06005859 9.96728516 C34.12718245 20.87573623 34.20481802 31.78409465 34.28752708 42.69243813 C34.33731891 49.30144812 34.38364967 55.91044344 34.421875 62.51953125 C34.45894493 68.90627233 34.505362 75.2928853 34.55806351 81.67951584 C34.57649272 84.10733145 34.59164224 86.53517441 34.60334396 88.96303177 C33.75316859 116.72811636 33.75316859 116.72811636 45.25 141 C52.0732222 147.09481721 60.58761116 149.4085202 69.625 149.203125 C84.91038475 147.89582236 98.92953558 140.48003965 110 130 C111.26120581 127.47758839 111.13887345 125.724477 111.15821838 122.90011597 C111.1680072 121.82035492 111.17779602 120.74059387 111.18788147 119.62811279 C111.19363693 118.43840881 111.1993924 117.24870483 111.20532227 116.02294922 C111.21522186 114.77420013 111.22512146 113.52545105 111.23532104 112.23886108 C111.26154483 108.80934188 111.28339197 105.37984641 111.30332303 101.9502883 C111.32516594 98.36812915 111.35256291 94.78601268 111.37937927 91.20388794 C111.42932912 84.41827854 111.47425943 77.63264548 111.51740164 70.84698975 C111.56675445 63.12275751 111.62167982 55.39856806 111.67708123 47.6743772 C111.79093646 31.78295614 111.89703206 15.8914959 112 0 C123.22 0 134.44 0 146 0 C146.01981934 3.77574463 146.03963867 7.55148926 146.06005859 11.44165039 C146.12754544 24.0423255 146.2050782 36.64292296 146.28752708 49.24350834 C146.33718424 56.8687811 146.38362262 64.49404555 146.421875 72.11938477 C146.45530991 78.78263379 146.49540282 85.44580761 146.54279006 92.10897249 C146.56755729 95.6216095 146.58946983 99.13419995 146.60334396 102.64689827 C146.67428847 119.98111975 147.31366644 137.16489821 148.57705688 154.44602966 C148.94634385 159.65026803 149.08774479 164.78424287 149 170 C133.13603473 171.51085384 133.13603473 171.51085384 128.59765625 168.30078125 C126.79297342 165.63126263 125.4287112 162.88901553 124 160 C122.25187911 157.28892529 120.40130133 154.65013097 118.5625 152 C114 145.32840442 114 145.32840442 114 143 C112.89441431 143.95669592 111.79067493 144.91552521 110.6875 145.875 C109.58535156 146.83212891 109.58535156 146.83212891 108.4609375 147.80859375 C106.77220625 149.31236872 105.11177456 150.84835155 103.4765625 152.41015625 C88.36843808 166.74293704 71.77713899 174.43340912 50.8203125 174.2109375 C36.44999783 173.41748454 23.01678523 169.46870054 13.03515625 158.671875 C1.02330947 142.90200321 -0.17890958 124.00915078 -0.11352539 104.89746094 C-0.11367142 103.75454086 -0.11381744 102.61162079 -0.1139679 101.43406677 C-0.11327782 97.70081607 -0.10552826 93.96761686 -0.09765625 90.234375 C-0.09578885 87.62835721 -0.09436647 85.02233907 -0.09336853 82.4163208 C-0.09027771 76.28620781 -0.08209508 70.15611295 -0.07201904 64.02600789 C-0.0607875 57.03916617 -0.05532982 50.05232351 -0.05032361 43.06547499 C-0.03991024 28.71030537 -0.0215932 14.35515705 0 0 Z " fill="#2C2A7D" transform="translate(974,125)"/>
<path d="M0 0 C14.12927438 10.85376358 21.52486903 25.34442076 24.84765625 42.5625 C26.47585615 60.47269889 22.38324783 76.77567719 11.16015625 91 C10.69996094 91.62390625 10.23976563 92.2478125 9.765625 92.890625 C0.63976865 104.56751324 -14.34964456 111.9322438 -28.83984375 114 C-48.62562301 115.61778597 -66.13618528 111.52689917 -81.58984375 98.4375 C-94.68537468 85.85814328 -101.60047076 69.27933626 -102.15234375 51.1875 C-101.76467511 32.45825904 -94.36842437 16.41939534 -81.203125 3.390625 C-58.06626542 -16.74013166 -24.70653856 -17.39992812 0 0 Z " fill="#2C2A7D" transform="translate(1407.83984375,12)"/>
<path d="M0 0 C92.30033003 0 92.30033003 0 108.7421875 15.6171875 C120.85239936 28.39786092 122.48173031 43.159969 122.27734375 59.97265625 C121.846472 73.86559064 116.17161989 85.68208459 106.0859375 95.24609375 C101.76351776 98.88048788 97.03377826 101.49615851 92 104 C100.9197922 120.54391048 100.9197922 120.54391048 110 137 C114.06633541 144.28781726 118.07631723 151.6055376 122.0625 158.9375 C122.63548828 159.98744141 123.20847656 161.03738281 123.79882812 162.11914062 C124.33056641 163.09947266 124.86230469 164.07980469 125.41015625 165.08984375 C126.12377319 166.40263306 126.12377319 166.40263306 126.85180664 167.74194336 C128 170 128 170 129 173 C118.77 173 108.54 173 98 173 C89.51134586 157.48986651 81.11132878 141.93608251 72.79052734 126.33544922 C71.53544387 123.99744126 70.27172305 121.66620654 68.99462891 119.34033203 C68.5063134 118.44677757 68.5063134 118.44677757 68.00813293 117.53517151 C67.10123147 115.877378 66.19002355 114.22194248 65.27856445 112.56665039 C64 110 64 110 64 108 C51.79 108 39.58 108 27 108 C27 129.45 27 150.9 27 173 C18.09 173 9.18 173 0 173 C0 115.91 0 58.82 0 0 Z M27 23 C27 43.46 27 63.92 27 85 C35.5078125 85.061875 35.5078125 85.061875 44.1875 85.125 C46.82915161 85.15231201 46.82915161 85.15231201 49.52416992 85.18017578 C70.78320481 85.34340306 70.78320481 85.34340306 88.875 75.3125 C94.76459056 66.13166766 96.15155926 57.90526618 95 47 C93.13627903 39.13623857 90.20029647 33.08181984 83.5 28.375 C71.91813402 21.79626915 59.11959894 22.63489073 46.25 22.8125 C39.8975 22.874375 33.545 22.93625 27 23 Z " fill="#939598" transform="translate(1851,122)"/>
<path d="M0 0 C84.5203992 0 84.5203992 0 98.5625 7.8125 C99.21468506 8.15724365 99.86687012 8.5019873 100.53881836 8.85717773 C105.80007272 11.71343695 110.55352865 14.97876291 115 19 C115.60972656 19.52980469 116.21945313 20.05960938 116.84765625 20.60546875 C133.58669503 36.09367826 139.30156378 59.62146589 140.22265625 81.5703125 C140.91126467 107.42394143 135.10314769 132.69379502 117 152 C85.73887383 182.19979164 39.7599601 173 0 173 C0 115.91 0 58.82 0 0 Z M27 23 C27 64.91 27 106.82 27 150 C65.02449191 151.41007847 65.02449191 151.41007847 97.6875 134.875 C112.60745516 118.79382191 113.65763685 97.59593335 113.13623047 76.85302734 C112.49622572 63.4496304 107.86895147 50.14855143 99 40 C98.52304688 39.40703125 98.04609375 38.8140625 97.5546875 38.203125 C87.12915224 26.36306989 71.82819708 24.23568309 57 23 C47.1 23 37.2 23 27 23 Z " fill="#939598" transform="translate(2138,122)"/>
<path d="M0 0 C17.06125423 15.80146812 25.71862411 38.70148532 26.86230469 61.70117188 C27.74377522 91.62764057 22.20460803 117.88132678 1.11328125 140.26953125 C-13.10288388 154.07829496 -31.6483825 159.90857545 -51.19921875 160.45703125 C-73.08907149 159.84798461 -92.54645773 152.59887226 -107.87744141 136.73242188 C-128.71846716 113.76686122 -130.46456097 84.53646432 -129.3671875 55.13800049 C-128.22009938 34.13659612 -117.71673981 13.27283693 -102.26171875 -0.79296875 C-73.2878374 -25.28531156 -28.49593433 -25.05127621 0 0 Z M-88.26171875 22.20703125 C-102.52695681 40.86378123 -105.15112072 63.52132525 -102.24584961 86.22192383 C-100.02659588 101.59961695 -93.20365607 116.6476292 -80.62109375 126.21484375 C-68.85081441 134.07265594 -56.26764784 136.86565147 -42.203125 134.74609375 C-28.37622837 131.6894326 -17.65351536 124.43501271 -10.01171875 112.45703125 C0.89546641 92.88469343 2.86978584 69.2037515 -2.28515625 47.5 C-6.3188627 33.89834184 -13.05871259 20.72666186 -25.5703125 13.22265625 C-46.59463219 1.9311812 -71.58590859 4.00959223 -88.26171875 22.20703125 Z " fill="#939598" transform="translate(1793.26171875,137.79296875)"/>
<path d="M0 0 C18.54470172 18.83044443 21.53515625 45.31871985 21.53515625 70.57421875 C-15.09484375 70.57421875 -51.72484375 70.57421875 -89.46484375 70.57421875 C-87.06637081 93.35971167 -83.06055851 112.59022656 -65.015625 127.61328125 C-53.27558356 136.27547823 -40.82706839 138.97125853 -26.46484375 138.94921875 C-25.367771 138.94760742 -24.27069824 138.94599609 -23.14038086 138.94433594 C-10.77644306 138.75973202 0.42180203 136.36062029 11.75 131.30859375 C13.53515625 130.57421875 13.53515625 130.57421875 15.53515625 130.57421875 C16.41015625 133.13671875 16.41015625 133.13671875 16.53515625 136.57421875 C9.56935494 147.97280271 -6.97100989 154.13562564 -19.46484375 157.57421875 C-42.53380475 162.90556293 -66.15713441 161.66382658 -86.90234375 149.5703125 C-98.49966314 141.92538144 -107.7060099 132.72592791 -114.46484375 120.57421875 C-114.92503906 119.76339844 -115.38523437 118.95257813 -115.859375 118.1171875 C-128.12360984 95.18195679 -129.69629607 65.41377369 -122.40234375 40.76171875 C-115.81063884 20.10017666 -103.49028462 2.51958374 -84.34375 -8.16796875 C-56.70662096 -21.76665403 -23.86573092 -20.70237926 0 0 Z M-72.02734375 6.38671875 C-81.05615367 15.88906765 -85.6467908 28.99646829 -88.46484375 41.57421875 C-88.76068359 42.88519531 -88.76068359 42.88519531 -89.0625 44.22265625 C-89.45107916 47.45955837 -89.50413591 50.52634168 -89.48999023 53.78369141 C-89.48635971 54.86719879 -89.48272919 55.95070618 -89.47898865 57.06704712 C-89.47432083 57.89441376 -89.46965302 58.7217804 -89.46484375 59.57421875 C-80.75401724 59.07275901 -72.04334545 58.56870944 -63.33285618 58.06142521 C-59.28748651 57.8259098 -55.24207062 57.59126021 -51.1965332 57.35864258 C-47.28660407 57.13378954 -43.37681732 56.90659263 -39.4671154 56.67782402 C-37.98137102 56.59129148 -36.49557861 56.50557934 -35.00973701 56.4207325 C-27.46933259 55.98962351 -19.96228167 55.51094289 -12.46484375 54.57421875 C-11.66705611 38.35253679 -14.38127266 20.21986503 -24.8671875 7.3203125 C-31.12786373 0.47795975 -37.70482318 -3.66989826 -47.14453125 -4.421875 C-56.88395881 -4.43827134 -64.92198626 0.00042832 -72.02734375 6.38671875 Z " fill="#2C2A7D" transform="translate(516.46484375,138.42578125)"/>
<path d="M0 0 C1.17522217 0.00684814 2.35044434 0.01369629 3.5612793 0.02075195 C16.33572744 0.25339486 39.24088279 1.74088279 48.9375 11.4375 C49.16455078 13.86767578 49.16455078 13.86767578 49.1328125 16.8828125 C49.12636719 17.95917969 49.11992188 19.03554687 49.11328125 20.14453125 C49.08814453 21.83642578 49.08814453 21.83642578 49.0625 23.5625 C49.05347656 24.69816406 49.04445313 25.83382812 49.03515625 27.00390625 C49.01153098 29.81531299 48.97859013 32.62630298 48.9375 35.4375 C46.27186278 34.16755879 43.89027628 32.782787 41.50390625 31.046875 C24.73525207 19.0527461 9.09648949 11.86518873 -11.84765625 14.83203125 C-18.62388639 16.68443984 -24.51261085 21.47100577 -28.29296875 27.3515625 C-30.90130572 33.30297925 -31.28592511 40.55674293 -29.3359375 46.7421875 C-22.27057521 61.96430951 -2.81412081 67.28212901 11.49169922 73.54858398 C48.9390294 89.99063527 48.9390294 89.99063527 57.9375 108.4375 C62.66937481 121.17976289 62.08202322 133.85993192 56.71875 146.25390625 C49.67723522 160.31737605 37.44423452 168.56373491 22.9375 173.8125 C-3.07538315 181.59913787 -34.8973444 177.73205285 -59.0625 165.4375 C-61.0625 163.4375 -61.0625 163.4375 -61.28955078 161.19091797 C-61.27907715 160.27971191 -61.26860352 159.36850586 -61.2578125 158.4296875 C-61.24814453 156.95048828 -61.24814453 156.95048828 -61.23828125 155.44140625 C-61.22152344 154.40886719 -61.20476563 153.37632812 -61.1875 152.3125 C-61.17847656 151.27222656 -61.16945313 150.23195313 -61.16015625 149.16015625 C-61.13653747 146.58570908 -61.10360149 144.01171788 -61.0625 141.4375 C-57.63165886 142.10348973 -55.03913567 143.45127484 -52.02734375 145.203125 C-51.05216797 145.76386719 -50.07699219 146.32460938 -49.07226562 146.90234375 C-47.05131794 148.07662613 -45.03048146 149.25109994 -43.00976562 150.42578125 C-25.07837568 160.7360369 -7.87788705 166.89960929 12.859375 161.46484375 C21.25060535 158.66421738 26.71038885 154.8643462 30.875 146.94921875 C33.4396688 140.88641714 33.20378709 136.03433947 31.21484375 129.80859375 C27.91977555 123.69206043 23.18578244 119.37288693 17.1875 115.9375 C16.49503174 115.53297607 15.80256348 115.12845215 15.08911133 114.71166992 C5.51514945 109.351318 -4.68792064 105.15848552 -14.77832031 100.87890625 C-33.14767627 93.04781046 -50.1281524 83.68854333 -58.30078125 64.515625 C-62.4298854 53.25058189 -60.91548134 39.18849997 -56.0625 28.4375 C-50.5389962 18.49519316 -43.27900628 12.3244373 -33.3125 7.1875 C-32.68158447 6.8579834 -32.05066895 6.5284668 -31.40063477 6.18896484 C-21.34039303 1.25784473 -11.10178268 -0.10047953 0 0 Z " fill="#2C2A7D" transform="translate(697.0625,121.5625)"/>
<path d="M0 0 C0 82.83 0 165.66 0 251 C-10.89 251 -21.78 251 -33 251 C-33 169.82 -33 88.64 -33 5 C-26.71772282 3.60393841 -20.58484398 2.3651351 -14.25 1.375 C-13.01443359 1.17390625 -13.01443359 1.17390625 -11.75390625 0.96875 C-10.95339844 0.84242187 -10.15289063 0.71609375 -9.328125 0.5859375 C-8.6155957 0.4729834 -7.90306641 0.3600293 -7.16894531 0.24365234 C-4.79286264 -0.02326914 -2.39102822 0 0 0 Z " fill="#2C2A7D" transform="translate(600,44)"/>
<path d="M0 0 C8.91 0 17.82 0 27 0 C27 49.5 27 99 27 150 C52.74 150 78.48 150 105 150 C105 157.59 105 165.18 105 173 C70.35 173 35.7 173 0 173 C0 115.91 0 58.82 0 0 Z " fill="#939598" transform="translate(2004,122)"/>
<path d="M0 0 C15.92662661 -1.03245839 15.92662661 -1.03245839 20 2.3125 C21.49609375 3.97265625 21.49609375 3.97265625 23 6 C23.65097656 6.82371094 24.30195312 7.64742187 24.97265625 8.49609375 C29.441806 14.38534716 33.32865605 20.5890547 37 27 C38.03572896 25.25877451 39.0531252 23.50663405 40.0625 21.75 C40.63097656 20.77546875 41.19945312 19.8009375 41.78515625 18.796875 C43.12934038 15.70222601 43.13737895 15.04554056 42 12 C40.02016986 9.99176484 38.06464388 8.14792129 35.9375 6.3125 C33.93973356 4.55963569 31.9635127 2.79174236 30 1 C30 0.67 30 0.34 30 0 C32.56428515 -0.13559675 35.12135216 -0.23433188 37.6875 -0.3125 C38.40873047 -0.35439453 39.12996094 -0.39628906 39.87304688 -0.43945312 C44.19577396 -0.53814552 45.54532962 -0.37938214 49.01953125 2.51953125 C49.67308594 3.33808594 50.32664062 4.15664063 51 5 C53.25157667 3.91590753 55.26128523 2.81639417 57.3125 1.375 C60.69496613 -0.35556406 63.25255262 -0.22043808 67 0 C63.66666667 3.33333333 60.33333333 6.66666667 57 10 C58.48518799 14.04301175 60.42877998 17.61146256 62.625 21.3125 C63.25664063 22.38113281 63.88828125 23.44976562 64.5390625 24.55078125 C65.02117187 25.35902344 65.50328125 26.16726562 66 27 C66.70962891 25.76636719 66.70962891 25.76636719 67.43359375 24.5078125 C79.2472124 4.56513462 79.2472124 4.56513462 89 0 C91.76010018 -0.29159528 94.21083692 -0.19235607 97 0 C96.319375 0.515625 95.63875 1.03125 94.9375 1.5625 C79.31303613 14.52748065 72.99858864 31.9171528 68 51 C66.35 51 64.7 51 63 51 C62.63648438 49.97261719 62.27296875 48.94523437 61.8984375 47.88671875 C59.16209459 40.2963734 56.28070682 33.13202508 52.19921875 26.13671875 C51 24 51 24 50 21 C49.34 21 48.68 21 48 21 C45.71653718 27.62911079 43.71422288 34.31490549 41.8125 41.0625 C41.53986328 42.02349609 41.26722656 42.98449219 40.98632812 43.97460938 C40.32238201 46.31589303 39.66030709 48.65768796 39 51 C37.35 51 35.7 51 34 51 C33.79431396 50.48727539 33.58862793 49.97455078 33.37670898 49.44628906 C26.04323631 31.28643935 18.05889489 13.89827993 1.6171875 2.20703125 C1.08351563 1.80871094 0.54984375 1.41039062 0 1 C0 0.67 0 0.34 0 0 Z " fill="#FFFFFF" transform="translate(1321,46)"/>
</svg>
