<?xml version="1.0" encoding="UTF-8"?>
<svg version="1.1" xmlns="http://www.w3.org/2000/svg" width="300" height="47">
<path d="M0 0 C99 0 198 0 300 0 C300 15.51 300 31.02 300 47 C201 47 102 47 0 47 C0 31.49 0 15.98 0 0 Z " fill="#FDFCFC" transform="translate(0,0)"/>
<path d="M0 0 C15.51 0 31.02 0 47 0 C40.25003306 7.87496143 40.25003306 7.87496143 37.36889648 10.74462891 C36.72480331 11.38864655 36.08071014 12.03266418 35.417099 12.69619751 C34.4043264 13.70122818 34.4043264 13.70122818 33.37109375 14.7265625 C32.65897232 15.43726898 31.94685089 16.14797546 31.21315002 16.88021851 C28.95695854 19.13085984 26.69730601 21.37798854 24.4375 23.625 C22.91708511 25.14039167 21.39690071 26.65601462 19.87695312 28.171875 C12.861815 35.16657428 12.861815 35.16657428 9.67501831 38.32403564 C8.61518645 39.3844661 7.56520934 40.45491928 6.52932739 41.53875732 C4.33125166 43.82862218 3.07616994 44.97461002 0 46 C0 30.82 0 15.64 0 0 Z " fill="#FFF4F4" transform="translate(0,0)"/>
<path d="M0 0 C0.99 0.66 1.98 1.32 3 2 C3.77135248 6.9709382 3.46828143 9.93659676 0.625 14.125 C-3.80558328 19.43750033 -9.56165292 23.43736139 -16.4375 24.5625 C-19 24 -19 24 -20.875 22.9375 C-22.74225411 19.72167348 -22.54047585 17.66322518 -22 14 C-18.22186366 6.32519755 -9.03899421 -1.76370619 0 0 Z " fill="#FF1010" transform="translate(70,23)"/>
<path d="M0 0 C1.7492214 -0.08142927 3.49954542 -0.13938541 5.25 -0.1875 C6.22453125 -0.22230469 7.1990625 -0.25710937 8.203125 -0.29296875 C11.44301094 0.04640478 12.77558039 0.6332597 15 3 C15.73637338 6.87723129 14.80306448 10.62675973 12.828125 14.00390625 C9.6657384 17.93988742 5.9138791 21.52315109 1 23 C-3.02507654 23.30806734 -6.97279098 23.23806162 -11 23 C-9.54237887 19.91632949 -8.08377822 16.83312328 -6.625 13.75 C-6.2125 12.87730469 -5.8 12.00460938 -5.375 11.10546875 C-4.97539062 10.26113281 -4.57578125 9.41679688 -4.1640625 8.546875 C-3.79748535 7.77182617 -3.4309082 6.99677734 -3.05322266 6.19824219 C-2.05768996 4.12040807 -1.03691854 2.0574431 0 0 Z " fill="#FF1414" transform="translate(180,23)"/>
<path d="M0 0 C1.62463842 -0.05395478 3.24978541 -0.09277195 4.875 -0.125 C6.23238281 -0.15980469 6.23238281 -0.15980469 7.6171875 -0.1953125 C10 0 10 0 12 2 C11.9375 4.375 11.9375 4.375 11 7 C8.76261763 9.06527603 6.72000458 10.63999771 4 12 C4.03480469 12.69867188 4.06960937 13.39734375 4.10546875 14.1171875 C4.13253906 15.02726562 4.15960938 15.93734375 4.1875 16.875 C4.22230469 17.77992187 4.25710937 18.68484375 4.29296875 19.6171875 C4.19628906 20.40351562 4.09960938 21.18984375 4 22 C0.47320901 24.35119399 -1.02879485 24.21443452 -5.1875 24.125 C-6.27417969 24.10695313 -7.36085937 24.08890625 -8.48046875 24.0703125 C-9.72763672 24.03550781 -9.72763672 24.03550781 -11 24 C-9.39323547 18.54406329 -6.94969106 13.6697853 -4.375 8.625 C-3.95476562 7.79355469 -3.53453125 6.96210938 -3.1015625 6.10546875 C-2.07133925 4.06843641 -1.03741179 2.03337811 0 0 Z " fill="#FF1212" transform="translate(162,23)"/>
<path d="M0 0 C1.32 0 2.64 0 4 0 C3.72362039 3.81377203 3.42635166 7.62562635 3.125 11.4375 C3.00705078 13.07041992 3.00705078 13.07041992 2.88671875 14.73632812 C2.80292969 15.77080078 2.71914062 16.80527344 2.6328125 17.87109375 C2.52283936 19.30859985 2.52283936 19.30859985 2.41064453 20.77514648 C2.20737549 21.87644897 2.20737549 21.87644897 2 23 C-0.296537 24.1482685 -1.58313167 24.11561175 -4.1328125 24.09765625 C-4.93847656 24.09443359 -5.74414062 24.09121094 -6.57421875 24.08789062 C-7.41597656 24.07951172 -8.25773438 24.07113281 -9.125 24.0625 C-9.97449219 24.05798828 -10.82398438 24.05347656 -11.69921875 24.04882812 C-13.79950909 24.03702874 -15.8997633 24.01909306 -18 24 C-16.39914309 20.17772929 -13.93771778 17.57135685 -11.125 14.5625 C-4.72312199 7.87542625 -4.72312199 7.87542625 0 0 Z " fill="#FF1212" transform="translate(147,23)"/>
<path d="M0 0 C1.32 0 2.64 0 4 0 C3.4618629 5.69051363 2.8599867 11.34865884 2 17 C6.45736352 13.71562688 7.42431864 11.17866508 8.3125 5.6875 C8.56144311 3.79416202 8.7970954 1.89882361 9 0 C10.65 0 12.3 0 14 0 C14 1.65 14 3.3 14 5 C14.99 3.68 15.98 2.36 17 1 C17.99 1.33 18.98 1.66 20 2 C19.50628906 2.4125 19.01257813 2.825 18.50390625 3.25 C15.00441537 6.40447065 12.61235559 8.61767206 12.0625 13.4375 C12.041875 14.613125 12.02125 15.78875 12 17 C13.41701589 15.2711195 14.83359686 13.54188254 16.25 11.8125 C17.03890625 10.84957031 17.8278125 9.88664062 18.640625 8.89453125 C20.77584772 6.27499477 22.89356361 3.64270803 25 1 C25.99 1.33 26.98 1.66 28 2 C27.18208984 2.89138672 27.18208984 2.89138672 26.34765625 3.80078125 C21.31198602 9.33571451 16.57321624 14.98750069 12.04296875 20.9453125 C11.36878906 21.62335937 10.69460937 22.30140625 10 23 C8.68 23 7.36 23 6 23 C6.33 20.69 6.66 18.38 7 16 C6.030625 16.78375 5.06125 17.5675 4.0625 18.375 C3.51722656 18.81585938 2.97195312 19.25671875 2.41015625 19.7109375 C0.86733563 20.9666391 0.86733563 20.9666391 0 23 C-1.32 23 -2.64 23 -4 23 C-2.96324187 15.24637268 -1.83622588 7.60722152 0 0 Z " fill="#FF1212" transform="translate(27,23)"/>
<path d="M0 0 C5 0 5 0 6.58203125 1.53125 C6.98808594 2.1809375 7.39414062 2.830625 7.8125 3.5 C8.23144531 4.1496875 8.65039062 4.799375 9.08203125 5.46875 C9.38496094 5.9740625 9.68789063 6.479375 10 7 C10.33 4.69 10.66 2.38 11 0 C12.65 0 14.3 0 16 0 C16 5.61 16 11.22 16 17 C10.72 17 5.44 17 0 17 C0 11.39 0 5.78 0 0 Z " fill="#3BB6E7" transform="translate(267,30)"/>
<path d="M0 0 C1.65 0 3.3 0 5 0 C4.690625 0.7425 4.38125 1.485 4.0625 2.25 C3.18839253 4.5123958 2.55743327 6.64974079 2 9 C2.55429688 8.4946875 3.10859375 7.989375 3.6796875 7.46875 C4.40414062 6.8190625 5.12859375 6.169375 5.875 5.5 C6.59429687 4.8503125 7.31359375 4.200625 8.0546875 3.53125 C10 2 10 2 12 2 C12 1.34 12 0.68 12 0 C13.32 0.33 14.64 0.66 16 1 C14.21326795 2.5058745 12.42046492 4.0045485 10.625 5.5 C9.12839844 6.75296875 9.12839844 6.75296875 7.6015625 8.03125 C5 10 5 10 3 10 C3.22816406 10.60328125 3.45632812 11.2065625 3.69140625 11.828125 C3.97886719 12.62734375 4.26632813 13.4265625 4.5625 14.25 C4.85253906 15.03890625 5.14257812 15.8278125 5.44140625 16.640625 C6.05200662 19.21966433 5.98889737 20.55747753 5 23 C1.99686252 24.50156874 -0.79067522 24.09281204 -4.125 24.0625 C-5.40632813 24.05347656 -6.68765625 24.04445313 -8.0078125 24.03515625 C-9.48894531 24.01775391 -9.48894531 24.01775391 -11 24 C-9.71882993 20.72618005 -8.34728693 17.52930256 -6.8359375 14.35546875 C-6.23652344 13.09379883 -6.23652344 13.09379883 -5.625 11.80664062 C-5.2125 10.94232422 -4.8 10.07800781 -4.375 9.1875 C-3.95476562 8.30384766 -3.53453125 7.42019531 -3.1015625 6.50976562 C-2.06907239 4.33918982 -1.0351788 2.16929448 0 0 Z " fill="#FF1010" transform="translate(100,23)"/>
<path d="M0 0 C1.32 0 2.64 0 4 0 C2.8741386 3.53842155 1.66905241 6.66189518 0 10 C2.97 10 5.94 10 9 10 C9.99 7.03 10.98 4.06 12 1 C13.65 0.67 15.3 0.34 17 0 C15.39323547 5.45593671 12.94969106 10.3302147 10.375 15.375 C9.95476562 16.20644531 9.53453125 17.03789063 9.1015625 17.89453125 C8.07133925 19.93156359 7.03741179 21.96662189 6 24 C4.68 24 3.36 24 2 24 C2.78318689 20.08406554 4.39179858 16.63593365 6 13 C1.85561732 12.89799138 1.85561732 12.89799138 -2 14 C-3.9298831 16.80999463 -5.00318676 19.75379899 -6 23 C-7.65 23 -9.3 23 -11 23 C-9.54237887 19.91632949 -8.08377822 16.83312328 -6.625 13.75 C-6.2125 12.87730469 -5.8 12.00460938 -5.375 11.10546875 C-4.97539063 10.26113281 -4.57578125 9.41679688 -4.1640625 8.546875 C-3.79748535 7.77182617 -3.4309082 6.99677734 -3.05322266 6.19824219 C-2.05768996 4.12040807 -1.03691854 2.0574431 0 0 Z " fill="#FF1111" transform="translate(120,23)"/>
<path d="M0 0 C4.62 0 9.24 0 14 0 C14 0.99 14 1.98 14 3 C11.36 3 8.72 3 6 3 C6 3.99 6 4.98 6 6 C8.64 6 11.28 6 14 6 C14 7.32 14 8.64 14 10 C11.36 10 8.72 10 6 10 C6 10.99 6 11.98 6 13 C8.97 13 11.94 13 15 13 C15 14.32 15 15.64 15 17 C10.05 17 5.1 17 0 17 C0 11.39 0 5.78 0 0 Z " fill="#3FB7E7" transform="translate(271,11)"/>
<path d="M0 0 C1 1 1 1 1.3125 4.1875 C0.88183252 9.44164332 -1.34037135 12.34037135 -5 16 C-8.5 16.25 -8.5 16.25 -12 16 C-14 14 -14 14 -14.5 11.375 C-13.78887198 6.57488585 -11.24520511 3.52264493 -8 0 C-5.11795733 -1.44102133 -3.08226581 -0.65580124 0 0 Z " fill="#FFF7F7" transform="translate(67,27)"/>
<path d="M0 0 C0.66 0.33 1.32 0.66 2 1 C1.30962646 1.68513672 0.61925293 2.37027344 -0.09204102 3.07617188 C-2.68712127 5.65295983 -5.27873292 8.23321362 -7.86938477 10.81445312 C-8.9846729 11.92475584 -10.10086211 13.03415429 -11.21801758 14.14257812 C-19.64024279 22.49135588 -19.64024279 22.49135588 -27.52148438 31.34765625 C-30.0860202 34.21370289 -33.02488214 36.57133236 -36 39 C-34.51391132 35.75386137 -32.65835615 33.08556838 -30.48046875 30.26171875 C-29.78759766 29.35873047 -29.09472656 28.45574219 -28.38085938 27.52539062 C-27.29514648 26.12063477 -27.29514648 26.12063477 -26.1875 24.6875 C-24.76332588 22.83800691 -23.34012767 20.98776186 -21.91796875 19.13671875 C-21.23750488 18.25628906 -20.55704102 17.37585938 -19.85595703 16.46875 C-18.27708376 14.36857025 -16.8209474 12.23705146 -15.37890625 10.04296875 C-12.73579156 6.6620388 -10.63928021 5.35889093 -6.75 3.625 C-3.12786346 2.1919689 -3.12786346 2.1919689 0 0 Z " fill="#FF0D0D" transform="translate(40,3)"/>
<path d="M0 0 C1.19109375 0.00773437 1.19109375 0.00773437 2.40625 0.015625 C3.2003125 0.01046875 3.994375 0.0053125 4.8125 0 C6.90625 0.265625 6.90625 0.265625 8.90625 2.265625 C8.90625 3.255625 8.90625 4.245625 8.90625 5.265625 C5.88205475 4.67758703 2.88866547 4.03884382 -0.09375 3.265625 C-0.09375 3.925625 -0.09375 4.585625 -0.09375 5.265625 C0.999375 5.36875 2.0925 5.471875 3.21875 5.578125 C6.90625 6.265625 6.90625 6.265625 8.84375 7.515625 C10.29725294 9.90962985 10.25881314 11.5156325 9.90625 14.265625 C7.90625 16.265625 7.90625 16.265625 5.375 16.53125 C4.3953125 16.52609375 3.415625 16.5209375 2.40625 16.515625 C1.4265625 16.52078125 0.446875 16.5259375 -0.5625 16.53125 C-3.09375 16.265625 -3.09375 16.265625 -5.09375 14.265625 C-5.09375 13.275625 -5.09375 12.285625 -5.09375 11.265625 C-3.44375 11.265625 -1.79375 11.265625 -0.09375 11.265625 C0.23625 11.925625 0.56625 12.585625 0.90625 13.265625 C1.89625 13.265625 2.88625 13.265625 3.90625 13.265625 C3.90625 12.605625 3.90625 11.945625 3.90625 11.265625 C2.771875 10.79125 1.6375 10.316875 0.46875 9.828125 C-3.09375 8.265625 -3.09375 8.265625 -4.09375 7.265625 C-4.28125 4.828125 -4.28125 4.828125 -4.09375 2.265625 C-2.09375 0.265625 -2.09375 0.265625 0 0 Z " fill="#2AAFE4" transform="translate(290.09375,29.734375)"/>
<path d="M0 0 C2.9375 0.375 2.9375 0.375 6 1 C7.43304064 3.86608129 7.30644155 5.81300783 7 9 C4.71274624 13.32036821 2.52914866 16.05893629 -2 18 C-5.3125 18.1875 -5.3125 18.1875 -8 18 C-6.65150163 13.64029169 -4.95092154 9.68658562 -2.875 5.625 C-2.33617187 4.56539062 -1.79734375 3.50578125 -1.2421875 2.4140625 C-0.83226562 1.61742188 -0.42234375 0.82078125 0 0 Z " fill="#FFF5F5" transform="translate(183,26)"/>
<path d="M0 0 C0 1.32 0 2.64 0 4 C-2.73208042 4.87426573 -4.51163321 4.96279031 -7.4375 4.75 C-11.16110905 4.66442998 -11.16110905 4.66442998 -13.875 7.375 C-16.96038852 11.18636229 -17.20736323 13.12696415 -17 18 C-15.99163938 19.23267348 -15.99163938 19.23267348 -13.93359375 19.09765625 C-13.10988281 19.08605469 -12.28617188 19.07445313 -11.4375 19.0625 C-10.61121094 19.05347656 -9.78492187 19.04445313 -8.93359375 19.03515625 C-8.29550781 19.02355469 -7.65742187 19.01195313 -7 19 C-7 19.66 -7 20.32 -7 21 C-11.51808798 23.64473443 -14.75968945 24.5932427 -20 24 C-21.9375 22.875 -21.9375 22.875 -23 21 C-23.90917445 16.11318731 -22.36015485 12.93165194 -19.6953125 8.96484375 C-14.38416513 2.80929738 -8.03727431 -0.22325762 0 0 Z " fill="#FF1414" transform="translate(95,23)"/>
<path d="M0 0 C4.29 0 8.58 0 13 0 C13 1.32 13 2.64 13 4 C10.36 4 7.72 4 5 4 C5 4.66 5 5.32 5 6 C7.31 6 9.62 6 12 6 C12 7.32 12 8.64 12 10 C9.69 10 7.38 10 5 10 C5 12.31 5 14.62 5 17 C3.35 17 1.7 17 0 17 C0 11.39 0 5.78 0 0 Z " fill="#39B5E6" transform="translate(257,11)"/>
<path d="M0 0 C0.66 0.33 1.32 0.66 2 1 C1.01 2.485 1.01 2.485 0 4 C-0.24107326 6.28648848 -0.24107326 6.28648848 -0.125 8.6875 C-0.09792969 9.89986328 -0.09792969 9.89986328 -0.0703125 11.13671875 C-0.04710938 11.75160156 -0.02390625 12.36648437 0 13 C0.66 13.33 1.32 13.66 2 14 C-7.24 14 -16.48 14 -26 14 C-24.68 13.67 -23.36 13.34 -22 13 C-20.94978897 11.15028304 -20.94978897 11.15028304 -20 9 C-18.70529025 7.62913085 -17.37849103 6.28659163 -16 5 C-15.34 5.33 -14.68 5.66 -14 6 C-14.66 8.31 -15.32 10.62 -16 13 C-13.0782168 12.6869518 -12.14850796 12.18033109 -10.25 9.875 C-9.5075 8.92625 -8.765 7.9775 -8 7 C-5.4010876 4.58601021 -2.71275445 2.28477134 0 0 Z " fill="#FFE7E7" transform="translate(49,33)"/>
<path d="M0 0 C3.2578125 -0.29296875 3.2578125 -0.29296875 7.125 -0.1875 C9.04699219 -0.14689453 9.04699219 -0.14689453 11.0078125 -0.10546875 C11.99523437 -0.07066406 12.98265625 -0.03585938 14 0 C14 0.66 14 1.32 14 2 C12.94683594 2.29519531 11.89367187 2.59039063 10.80859375 2.89453125 C5.57037577 5.13948181 4.16290484 9.6940158 2.0625 14.6875 C1.66482422 15.58017578 1.26714844 16.47285156 0.85742188 17.39257812 C-0.11644534 19.58671269 -1.06763734 21.7879863 -2 24 C-3.65 24 -5.3 24 -7 24 C-5.27502493 19.3970402 -3.0904129 15.06744176 -0.875 10.6875 C-0.50246094 9.94693359 -0.12992188 9.20636719 0.25390625 8.44335938 C1.16744806 6.62798783 2.08347487 4.81386718 3 3 C1.35 3 -0.3 3 -2 3 C-1.34 2.01 -0.68 1.02 0 0 Z " fill="#FF1C1C" transform="translate(200,23)"/>
<path d="M0 0 C1.65 0 3.3 0 5 0 C5.66 1.65 6.32 3.3 7 5 C7.66 3.35 8.32 1.7 9 0 C10.65 0 12.3 0 14 0 C13.45018084 6.04801071 12.09570426 11.30601106 10 17 C8.35 17 6.7 17 5 17 C4.37470103 11.9752761 3.86987908 7.07471573 4 2 C2.68 2.33 1.36 2.66 0 3 C0 2.01 0 1.02 0 0 Z " fill="#34B3E6" transform="translate(245,30)"/>
<path d="M0 0 C1.65 0 3.3 0 5 0 C5 4.29 5 8.58 5 13 C7.64 13 10.28 13 13 13 C13 14.32 13 15.64 13 17 C8.71 17 4.42 17 0 17 C0 11.39 0 5.78 0 0 Z " fill="#28AEE4" transform="translate(236,11)"/>
<path d="M0 0 C1.65 0 3.3 0 5 0 C5.33 1.65 5.66 3.3 6 5 C6.99 4.67 7.98 4.34 9 4 C9.19658808 5.41543415 9.38187546 6.83244031 9.5625 8.25 C9.66691406 9.03890625 9.77132812 9.8278125 9.87890625 10.640625 C10.00027349 13.00532874 9.69633257 14.7511037 9 17 C7.02 17 5.04 17 3 17 C-0.44419134 5.47835991 -0.44419134 5.47835991 0 0 Z " fill="#3AB5E6" transform="translate(236,30)"/>
<path d="M0 0 C2.0105128 0 4.01964479 0.1482547 6.0234375 0.3125 C5.37107975 4.74853269 4.17887859 7.00161782 2.0234375 11.3125 C-4.2465625 11.3125 -10.5165625 11.3125 -16.9765625 11.3125 C-15.6565625 10.3225 -14.3365625 9.3325 -12.9765625 8.3125 C-9.2265625 9.125 -9.2265625 9.125 -5.9765625 10.3125 C-5.8734375 9.590625 -5.7703125 8.86875 -5.6640625 8.125 C-3.82580873 0.60487095 -3.82580873 0.60487095 0 0 Z " fill="#FFEAEA" transform="translate(119.9765625,35.6875)"/>
<path d="M0 0 C1.65 0 3.3 0 5 0 C3.16508812 4.74018901 1.08058541 9.36413251 -1 14 C-1.66 14 -2.32 14 -3 14 C-3.103125 14.721875 -3.20625 15.44375 -3.3125 16.1875 C-4.07996416 19.32712612 -5.02496481 21.4397692 -7 24 C-8.32 24 -9.64 24 -11 24 C-9.71882993 20.72618005 -8.34728693 17.52930256 -6.8359375 14.35546875 C-6.23652344 13.09379883 -6.23652344 13.09379883 -5.625 11.80664062 C-5.2125 10.94232422 -4.8 10.07800781 -4.375 9.1875 C-3.95476562 8.30384766 -3.53453125 7.42019531 -3.1015625 6.50976562 C-2.06907239 4.33918982 -1.0351788 2.16929448 0 0 Z " fill="#FF1616" transform="translate(100,23)"/>
<path d="M0 0 C1.62463842 -0.05395478 3.24978541 -0.09277195 4.875 -0.125 C5.77992188 -0.14820312 6.68484375 -0.17140625 7.6171875 -0.1953125 C10 0 10 0 12 2 C11.90980743 5.42731765 11.24166407 6.74412039 8.875 9.25 C5.52663527 11.28813505 2.87737452 11.69589219 -1 12 C0.33333333 8.66666667 1.66666667 5.33333333 3 2 C2.01 1.34 1.02 0.68 0 0 Z " fill="#FF2020" transform="translate(162,23)"/>
<path d="M0 0 C0.99 0.33 1.98 0.66 3 1 C2.67 1.495 2.34 1.99 2 2.5 C0.56363642 6.09090894 0.87148538 9.14456127 1 13 C1.66 13.33 2.32 13.66 3 14 C-2.94 14 -8.88 14 -15 14 C-11 11 -11 11 -8.96484375 9.5703125 C-5.02894545 6.76437344 -2.11263933 4.48935857 0 0 Z " fill="#FFF4F4" transform="translate(72,33)"/>
<path d="M0 0 C3 3 3 3 3.75 5.5 C5.62761478 9.25522957 8.11276327 9.63226856 12 11 C11.67 11.99 11.34 12.98 11 14 C9.68 13.67 8.36 13.34 7 13 C7 12.34 7 11.68 7 11 C5.35 11 3.7 11 2 11 C2.66 12.32 3.32 13.64 4 15 C5.79158489 15.02696365 7.58328473 15.04637917 9.375 15.0625 C10.87160156 15.07990234 10.87160156 15.07990234 12.3984375 15.09765625 C14.98432453 15.18006602 14.98432453 15.18006602 17 14 C17 14.99 17 15.98 17 17 C11.39 17 5.78 17 0 17 C0 11.39 0 5.78 0 0 Z " fill="#DBF1FA" transform="translate(283,30)"/>
<path d="M0 0 C1.19625 0.165 2.3925 0.33 3.625 0.5 C3.75 6.25 3.75 6.25 2.625 8.5 C-1.665 8.5 -5.955 8.5 -10.375 8.5 C-5.01785714 -0.07142857 -5.01785714 -0.07142857 0 0 Z " fill="#FFF5F5" transform="translate(141.375,38.5)"/>
<path d="M0 0 C1.32 0 2.64 0 4 0 C4 5.61 4 11.22 4 17 C2.35 17 0.7 17 -1 17 C-2.125 12.25 -2.125 12.25 -1 10 C-0.77377919 8.29636178 -0.59111527 6.58671299 -0.4375 4.875 C-0.35371094 3.96492188 -0.26992188 3.05484375 -0.18359375 2.1171875 C-0.12300781 1.41851563 -0.06242187 0.71984375 0 0 Z " fill="#27AEE4" transform="translate(279,30)"/>
<path d="M0 0 C1.98 0 3.96 0 6 0 C6 3.96 6 7.92 6 12 C4.02 12 2.04 12 0 12 C0 8.04 0 4.08 0 0 Z " fill="#46BAE8" transform="translate(250,16)"/>
<path d="M0 0 C-5.87371888 6.46852586 -11.75028727 12.88916977 -18 19 C-18 14.84722968 -16.20981184 13.31696615 -13.6875 10.0625 C-12.88699219 9.02222656 -12.08648437 7.98195313 -11.26171875 6.91015625 C-10.51535156 5.94980469 -9.76898438 4.98945313 -9 4 C-8.47019531 3.23558594 -7.94039062 2.47117187 -7.39453125 1.68359375 C-5.00145974 -1.20552059 -3.44982449 -1.1499415 0 0 Z " fill="#FF1818" transform="translate(25,12)"/>
<path d="M0 0 C1.65 0 3.3 0 5 0 C5.66 1.32 6.32 2.64 7 4 C4.525 3.01 4.525 3.01 2 2 C2.34227572 4.97065509 2.34227572 4.97065509 3 8 C3.66 8.33 4.32 8.66 5 9 C5 11.64 5 14.28 5 17 C3.35 17 1.7 17 0 17 C0 11.39 0 5.78 0 0 Z " fill="#39B5E6" transform="translate(267,30)"/>
<path d="M0 0 C2.475 0.495 2.475 0.495 5 1 C6.03590199 6.05002222 6.10251672 10.87416389 6 16 C4.35 16 2.7 16 1 16 C1.01740234 15.02160156 1.01740234 15.02160156 1.03515625 14.0234375 C1.08470994 9.2238086 0.99413751 4.72215315 0 0 Z " fill="#43B9E8" transform="translate(244,31)"/>
<path d="M0 0 C0.33 0 0.66 0 1 0 C1.04254356 1.99954746 1.04080783 4.00041636 1 6 C0 7 0 7 -3.0625 7.0625 C-4.031875 7.041875 -5.00125 7.02125 -6 7 C-3.03 7.495 -3.03 7.495 0 8 C0 8.33 0 8.66 0 9 C-1.19625 9.020625 -2.3925 9.04125 -3.625 9.0625 C-7.45193256 9.49676185 -8.95706513 10.5939463 -11.375 13.5625 C-11.83648437 14.20316406 -12.29796875 14.84382813 -12.7734375 15.50390625 C-13.38058594 16.24447266 -13.38058594 16.24447266 -14 17 C-14.66 17 -15.32 17 -16 17 C-13.09193808 10.5965336 -8.26450378 5.2217448 -2 2 C-1.34 1.34 -0.68 0.68 0 0 Z " fill="#FF2D2D" transform="translate(145,30)"/>
<path d="M0 0 C1.65 0 3.3 0 5 0 C5 3.96 5 7.92 5 12 C3.35 12 1.7 12 0 12 C0 8.04 0 4.08 0 0 Z " fill="#30B2E6" transform="translate(261,35)"/>
<path d="M0 0 C0 1.32 0 2.64 0 4 C-2.7018435 4.86458992 -4.54716146 4.97015483 -7.4375 4.8125 C-11.71428042 5.03759371 -12.91048796 6.16098894 -16 9 C-17.31138904 9.70885894 -18.63777017 10.39456452 -20 11 C-18.55767936 7.42521604 -16.83879097 5.88918552 -13.625 3.8125 C-12.85414062 3.30332031 -12.08328125 2.79414063 -11.2890625 2.26953125 C-7.47546193 0.15447974 -4.32097208 -0.120027 0 0 Z " fill="#FF3030" transform="translate(95,23)"/>
<path d="M0 0 C0.33 0 0.66 0 1 0 C1.90413673 3.83724172 2.10576898 7.37502274 2.0625 11.3125 C2.05347656 12.38113281 2.04445313 13.44976562 2.03515625 14.55078125 C2.02355469 15.35902344 2.01195312 16.16726562 2 17 C0.02 17 -1.96 17 -4 17 C-2.68 11.39 -1.36 5.78 0 0 Z " fill="#E8F7FC" transform="translate(259,30)"/>
<path d="M0 0 C1.65 0 3.3 0 5 0 C5 4.62 5 9.24 5 14 C6.98 14 8.96 14 11 14 C11 14.33 11 14.66 11 15 C7.7 15 4.4 15 1 15 C1 10.71 1 6.42 1 2 C1.99 1.67 2.98 1.34 4 1 C2.68 0.67 1.36 0.34 0 0 Z " fill="#36B4E6" transform="translate(236,11)"/>
<path d="M0 0 C0.99 0 1.98 0 3 0 C4.28317892 3.84953676 4.06643637 6.94738135 4 11 C2.02 11.99 2.02 11.99 0 13 C-0.98248196 8.94726192 -1.16017882 5.16464926 -1 1 C-0.67 0.67 -0.34 0.34 0 0 Z " fill="#FF0E0E" transform="translate(162,34)"/>
<path d="M0 0 C0.66 0 1.32 0 2 0 C2.66 3.3 3.32 6.6 4 10 C1.36 10 -1.28 10 -4 10 C-2.68 6.7 -1.36 3.4 0 0 Z " fill="#FFF1F1" transform="translate(97,37)"/>
<path d="M0 0 C0.75925781 0.07605469 1.51851562 0.15210938 2.30078125 0.23046875 C-1.64116045 5.110968 -5.8187195 9.28852705 -10.69921875 13.23046875 C-9.61109858 9.7484842 -7.9461091 6.89852599 -5.88671875 3.91796875 C-5.40589844 3.22058594 -4.92507812 2.52320313 -4.4296875 1.8046875 C-2.69921875 0.23046875 -2.69921875 0.23046875 0 0 Z " fill="#FF1C1C" transform="translate(15.69921875,11.76953125)"/>
<path d="M0 0 C0.66 0 1.32 0 2 0 C2.33 3.3 2.66 6.6 3 10 C0.69 10 -1.62 10 -4 10 C-2.68 6.7 -1.36 3.4 0 0 Z " fill="#FFE7E7" transform="translate(159,37)"/>
<path d="M0 0 C0.99 0.33 1.98 0.66 3 1 C-6.41002278 11.55808656 -6.41002278 11.55808656 -11 16 C-11 11.87286433 -8.7725266 10.2510474 -6.0625 7.4375 C-2.64502345 4.00518676 -2.64502345 4.00518676 0 0 Z " fill="#FF1E1E" transform="translate(52,24)"/>
<path d="M0 0 C0 1.65 0 3.3 0 5 C-2.31 5 -4.62 5 -7 5 C-7 3.35 -7 1.7 -7 0 C-3.98968256 -0.93423645 -3.13349732 -1.04449911 0 0 Z " fill="#FBA9AA" transform="translate(257,11)"/>
<path d="M0 0 C1.32 0 2.64 0 4 0 C3.875 2.25 3.875 2.25 3 5 C-0.0625 7.3125 -0.0625 7.3125 -3 9 C-3 5.30581799 -1.71820705 3.22163822 0 0 Z " fill="#FFEFEF" transform="translate(165,26)"/>
<path d="M0 0 C3.08089673 2.77280706 4.68775452 5.06326356 6 9 C4.02 9 2.04 9 0 9 C0 6.03 0 3.06 0 0 Z " fill="#ECF8FC" transform="translate(272,38)"/>
<path d="M0 0 C3.96 0 7.92 0 12 0 C12 0.99 12 1.98 12 3 C10.56260487 3.02712066 9.12506137 3.04645067 7.6875 3.0625 C6.48673828 3.07990234 6.48673828 3.07990234 5.26171875 3.09765625 C3 3 3 3 0 2 C0 1.34 0 0.68 0 0 Z " fill="#25ADE4" transform="translate(273,11)"/>
<path d="M0 0 C1.88391785 3.26545761 2.49287967 6.28111761 3 10 C1.35 10 -0.3 10 -2 10 C-1.54177532 6.53058454 -1.10868317 3.32604951 0 0 Z " fill="#EEF8FC" transform="translate(247,37)"/>
<path d="M0 0 C0.99 0.33 1.98 0.66 3 1 C2.06558465 2.27310312 1.12732889 3.543388 0.1875 4.8125 C-0.33457031 5.52019531 -0.85664063 6.22789063 -1.39453125 6.95703125 C-2.83128877 8.78531393 -4.31815763 10.39896688 -6 12 C-6 8.39468959 -5.19750621 7.6320564 -3 4.875 C-0.93483397 2.67697126 -0.93483397 2.67697126 0 0 Z " fill="#FFDFDF" transform="translate(24,10)"/>
<path d="M0 0 C1.32 0.33 2.64 0.66 4 1 C-1.445 5.455 -1.445 5.455 -7 10 C-7.66 9.34 -8.32 8.68 -9 8 C-7.8803014 6.99406757 -6.7540588 5.9954151 -5.625 5 C-4.68527344 4.1646875 -4.68527344 4.1646875 -3.7265625 3.3125 C-2 2 -2 2 0 2 C0 1.34 0 0.68 0 0 Z " fill="#FF2D2D" transform="translate(112,23)"/>
<path d="M0 0 C0.78375 0.04125 1.5675 0.0825 2.375 0.125 C2.375 1.445 2.375 2.765 2.375 4.125 C0.5625 4.8125 0.5625 4.8125 -1.625 5.125 C-3.375 3.6875 -3.375 3.6875 -4.625 2.125 C-2.625 0.125 -2.625 0.125 0 0 Z " fill="#FF0E0E" transform="translate(92.625,22.875)"/>
<path d="M0 0 C0.99 0.99 1.98 1.98 3 3 C3 4.32 3 5.64 3 7 C2.34 7 1.68 7 1 7 C1 10.3 1 13.6 1 17 C0.67 17 0.34 17 0 17 C0 11.39 0 5.78 0 0 Z " fill="#C2E8F7" transform="translate(283,30)"/>
<path d="M0 0 C3.02419525 0.58803797 6.01758453 1.22678118 9 2 C9.33 1.34 9.66 0.68 10 0 C10 1.98 10 3.96 10 6 C9.01 5.34 8.02 4.68 7 4 C4.67891331 3.29187186 2.34622853 2.61975848 0 2 C0 1.34 0 0.68 0 0 Z " fill="#E0F3FB" transform="translate(290,33)"/>
<path d="M0 0 C1.65 0 3.3 0 5 0 C5 2.31 5 4.62 5 7 C3.0625 6.3125 3.0625 6.3125 1 5 C0.25 2.375 0.25 2.375 0 0 Z " fill="#2AAFE4" transform="translate(236,30)"/>
<path d="M0 0 C1.32 0 2.64 0 4 0 C2.55746343 3.36591866 0.66735273 5.51047079 -2 8 C-1.125 2.25 -1.125 2.25 0 0 Z " fill="#FF1717" transform="translate(7,12)"/>
<path d="M0 0 C0.33 0.66 0.66 1.32 1 2 C3.58605332 2.4683265 3.58605332 2.4683265 6.5625 2.625 C8.08037109 2.73714844 8.08037109 2.73714844 9.62890625 2.8515625 C10.80259766 2.92503906 10.80259766 2.92503906 12 3 C12 3.33 12 3.66 12 4 C7.05 4 2.1 4 -3 4 C-2.01 2.68 -1.02 1.36 0 0 Z " fill="#FFACAC" transform="translate(166,43)"/>
<path d="M0 0 C1.65 0 3.3 0 5 0 C4.01 1.485 4.01 1.485 3 3 C3.99 3.66 4.98 4.32 6 5 C4.02 5 2.04 5 0 5 C0 3.35 0 1.7 0 0 Z " fill="#FA6B6B" transform="translate(260,30)"/>
<path d="M0 0 C0.33 0 0.66 0 1 0 C1 1.98 1 3.96 1 6 C-0.65 6 -2.3 6 -4 6 C-2.84826645 3.53199953 -1.95216435 1.95216435 0 0 Z " fill="#FFE0E0" transform="translate(145,30)"/>
<path d="M0 0 C1.125 3.75 1.125 3.75 0 6 C-1.65 6 -3.3 6 -5 6 C-3.35 4.02 -1.7 2.04 0 0 Z " fill="#FFFFFF" transform="translate(32,41)"/>
<path d="M0 0 C0.66 0.99 1.32 1.98 2 3 C1.67 3.66 1.34 4.32 1 5 C-1.31 5 -3.62 5 -6 5 C-2.25 2 -2.25 2 0 2 C0 1.34 0 0.68 0 0 Z " fill="#FFF2F2" transform="translate(88,42)"/>
<path d="M0 0 C1.65 0 3.3 0 5 0 C5.33 1.32 5.66 2.64 6 4 C3.03 3.505 3.03 3.505 0 3 C0 2.01 0 1.02 0 0 Z " fill="#30B2E5" transform="translate(285,41)"/>
</svg>
