<?xml version="1.0" encoding="UTF-8"?>
<svg version="1.1" xmlns="http://www.w3.org/2000/svg" width="200" height="182">
<path d="M0 0 C6.02971431 0.12561905 8.90431746 2.04524025 13.265625 6.14453125 C15.24242863 8.25935496 16.73615826 10.3933264 18 13 C18 11.35 18 9.7 18 8 C18.99 8 19.98 8 21 8 C22.54656904 13.96533774 23.83445193 19.9490696 25 26 C25.66 24.68 26.32 23.36 27 22 C28.32 22.33 29.64 22.66 31 23 C31.33 24.32 31.66 25.64 32 27 C37.31503711 22.44997265 37.31503711 22.44997265 42.3125 17.5625 C44 16 44 16 47 16 C46.34 17.32 45.68 18.64 45 20 C47.82950738 20.13032321 47.82950738 20.13032321 49.80859375 19.51171875 C52.59492266 18.86107866 55.2029903 18.83021691 58.0625 18.8125 C59.10535156 18.79832031 60.14820313 18.78414062 61.22265625 18.76953125 C64 19 64 19 67 21 C66.32077981 29.15064228 63.76464234 34.66979604 57.6875 40.25 C53.99347493 43.35689526 50.29295732 45.80785158 46 48 C46.14308594 48.92619141 46.14308594 48.92619141 46.2890625 49.87109375 C46.88868963 54.4519661 47.208787 57.86983907 45.625 62.25 C44.03930521 68.05385022 47.35839042 72.83010144 50.10546875 77.765625 C52.33248169 81.56761823 54.55556826 85.33335239 57 89 C57.31884766 91.72729492 57.31884766 91.72729492 57.4140625 94.98046875 C57.45273438 96.14384766 57.49140625 97.30722656 57.53125 98.50585938 C57.57765625 100.32827148 57.57765625 100.32827148 57.625 102.1875 C57.66367188 103.41404297 57.70234375 104.64058594 57.7421875 105.90429688 C57.83656103 108.93604656 57.92214549 111.96778841 58 115 C58.99 115.33 59.98 115.66 61 116 C60.97905273 115.24380371 60.95810547 114.48760742 60.93652344 113.70849609 C60.85309415 110.264134 60.80125376 106.81998493 60.75 103.375 C60.71648437 102.18519531 60.68296875 100.99539062 60.6484375 99.76953125 C60.52348276 88.58608234 60.52348276 88.58608234 65 84 C68.2950534 81.89879343 70.88485381 81.78297271 74.75 81.875 C75.73484375 81.89304687 76.7196875 81.91109375 77.734375 81.9296875 C78.48203125 81.95289062 79.2296875 81.97609375 80 82 C80.12422629 87.55004849 80.21463317 93.09927582 80.2746582 98.65039062 C80.29969777 100.53595083 80.33373999 102.42141498 80.37719727 104.30664062 C80.43831786 107.02758564 80.46631493 109.74724027 80.48828125 112.46875 C80.51408768 113.30241089 80.5398941 114.13607178 80.56648254 114.99499512 C80.56939154 121.15897272 78.92335976 125.23483466 75 130 C70.16143804 134.62481263 65.73104172 135.40010013 59.125 135.375 C52.40251572 135.20125786 52.40251572 135.20125786 50 134 C49.835 134.9075 49.67 135.815 49.5 136.75 C45.02338961 152.24595905 30.41687213 164.98216331 17 173 C-2.10875796 183.17562784 -27.90504555 185.96984629 -48.9375 180.4375 C-50.98540765 179.6958816 -53.00870331 178.88241775 -55 178 C-56.18207031 177.49082031 -57.36414062 176.98164063 -58.58203125 176.45703125 C-66.24068145 172.97998576 -72.78105021 168.64426136 -79 163 C-79.84304687 162.24976563 -80.68609375 161.49953125 -81.5546875 160.7265625 C-89.70998044 153.06703205 -95.44808769 144.65573692 -99 134 C-105.93 134 -112.86 134 -120 134 C-121.36393524 120.4743089 -119.46471162 114.26067581 -111.015625 103.70703125 C-110.50064453 103.0826416 -109.98566406 102.45825195 -109.45507812 101.81494141 C-107.45180063 99.31622247 -105.72698194 96.6952655 -104 94 C-104.99580078 93.88785156 -104.99580078 93.88785156 -106.01171875 93.7734375 C-110.45855267 93.11128121 -113.43248859 92.40860821 -117.125 89.75 C-120.65897025 84.81484154 -119.26710157 77.66255322 -119 72 C-111.74 72 -104.48 72 -97 72 C-96.34 70.02 -95.68 68.04 -95 66 C-92.58354055 62.14477503 -89.78999743 58.59154365 -87 55 C-86.47535156 54.29488281 -85.95070312 53.58976562 -85.41015625 52.86328125 C-74.01120572 38.5638344 -54.86407944 29.41623126 -37 27 C-24.38561192 25.93486154 -12.28029608 27.08190984 0 30 C-0.48082031 28.89269531 -0.96164063 27.78539062 -1.45703125 26.64453125 C-4.21944778 20.11963348 -5.62827065 12.41552871 -3.10546875 5.57421875 C-2.15021234 3.67383231 -1.08433224 1.82981065 0 0 Z " fill="#F4F5F4" transform="translate(120,0)"/>
<path d="M0 0 C3.58806317 3.38872633 6.45684799 6.76141332 9 11 C9 11.66 9 12.32 9 13 C14.26575323 12.93077416 19.53073866 12.84264088 24.79589844 12.73754883 C26.58422271 12.70444965 28.37264768 12.67637174 30.16113281 12.65356445 C32.74327199 12.61974044 35.32450076 12.56741377 37.90625 12.51171875 C38.69616333 12.50532883 39.48607666 12.4989389 40.29992676 12.49235535 C47.32222006 12.30950444 53.72096401 10.76159624 59 5.8125 C59.5775 5.28269531 60.155 4.75289063 60.75 4.20703125 C61.1625 3.80871094 61.575 3.41039063 62 3 C62.556875 3.928125 63.11375 4.85625 63.6875 5.8125 C65.95787855 8.9419407 67.59508103 10.29754051 71 12 C70.51003436 17.05277063 68.77364964 20.59848773 66 24.75 C65.59483154 25.36198242 65.18966309 25.97396484 64.7722168 26.60449219 C53.23249632 43.67156667 37.51695279 54.82019576 17.4375 59.875 C1.23496195 62.71725195 -18.70332283 63.77852753 -34 57 C-35.77310547 56.23623047 -35.77310547 56.23623047 -37.58203125 55.45703125 C-45.24068145 51.97998576 -51.78105021 47.64426136 -58 42 C-58.84304687 41.24976563 -59.68609375 40.49953125 -60.5546875 39.7265625 C-68.63157367 32.14067245 -74.59858348 23.60636931 -78 13 C-77.1529248 12.9906543 -76.30584961 12.98130859 -75.43310547 12.97167969 C-72.26805648 12.92747388 -69.10395188 12.86577473 -65.93945312 12.79248047 C-64.57401836 12.76438377 -63.20842436 12.74311323 -61.84277344 12.72900391 C-59.87145962 12.70742018 -57.90050369 12.6586454 -55.9296875 12.609375 C-54.15440674 12.5779541 -54.15440674 12.5779541 -52.34326172 12.54589844 C-46.72354514 11.62829319 -42.97999169 8.25919136 -39.125 4.25 C-38.52945313 3.63640625 -37.93390625 3.0228125 -37.3203125 2.390625 C-36.88460937 1.93171875 -36.44890625 1.4728125 -36 1 C-35.01 1.33 -34.02 1.66 -33 2 C-32.525625 3.11375 -32.05125 4.2275 -31.5625 5.375 C-29.72901753 9.64606437 -29.72901753 9.64606437 -26 12 C-23.03418779 12.46134016 -20.12156019 12.46412533 -17.125 12.4375 C-16.33480469 12.45748047 -15.54460937 12.47746094 -14.73046875 12.49804688 C-9.39150616 12.49360514 -6.13618159 11.68017399 -2 8 C-0.88783971 5.92789308 -0.88783971 5.92789308 -0.625 3.75 C-0.41875 2.5125 -0.2125 1.275 0 0 Z " fill="#8AD1A6" transform="translate(99,121)"/>
<path d="M0 0 C1.18464844 -0.00773437 2.36929688 -0.01546875 3.58984375 -0.0234375 C9.91252788 -0.0093401 15.4548493 0.36463122 21.5 2.25 C20.4944047 4.34107435 19.45002894 6.32919656 18.2109375 8.29296875 C14.85886486 13.67392746 13.56178894 17.91037384 14.5 24.25 C14.995 25.24 14.995 25.24 15.5 26.25 C25.78014784 24.96709157 32.40068097 22.99471167 39.5 15.25 C39.21125 16.136875 38.9225 17.02375 38.625 17.9375 C36.99102724 23.58637725 36.32133588 29.43948553 35.5 35.25 C38.45140435 33.77429782 38.65474671 31.42421082 39.703125 28.4609375 C40.83257156 25.32727693 42.16514012 22.30110829 43.5 19.25 C45.30159109 22.78883965 46.9061709 26.39532736 48.5 30.03125 C48.995 31.12953125 48.995 31.12953125 49.5 32.25 C49.82742187 32.97703125 50.15484375 33.7040625 50.4921875 34.453125 C51.77384356 36.73824821 53.1097729 37.29390916 55.5 38.25 C55.5 38.91 55.5 39.57 55.5 40.25 C59.43673644 38.93775452 61.72719294 37.33089673 64.5 34.25 C72.5 46.42391304 72.5 46.42391304 72.5 52.25 C65.57 51.755 65.57 51.755 58.5 51.25 C58.5 53.23 58.5 55.21 58.5 57.25 C57.99637939 56.89703857 57.49275879 56.54407715 56.97387695 56.18041992 C48.99029377 51.36041533 41.26068982 51.45045727 32.2121582 51.54321289 C29.67402159 51.56260297 27.14125247 51.52279697 24.60351562 51.47851562 C22.97916343 51.47822552 21.35480622 51.48135887 19.73046875 51.48828125 C18.97831589 51.47299881 18.22616302 51.45771637 17.45121765 51.44197083 C14.55565767 51.50610978 12.21097741 51.67593401 9.90762329 53.53573608 C7.26378317 56.58627558 5.85515234 59.22494019 5.5 63.25 C2.24451247 60.22704729 -0.18977058 57.04537691 -2.5 53.25 C-2.5 52.59 -2.5 51.93 -2.5 51.25 C-7.78 51.25 -13.06 51.25 -18.5 51.25 C-18.5 58.84 -18.5 66.43 -18.5 74.25 C-19.49 74.25 -20.48 74.25 -21.5 74.25 C-22.83871641 70.79372619 -24.17005392 67.33465703 -25.5 63.875 C-26.07234375 62.39773437 -26.07234375 62.39773437 -26.65625 60.890625 C-27.19765625 59.47910156 -27.19765625 59.47910156 -27.75 58.0390625 C-28.08515625 57.16975098 -28.4203125 56.30043945 -28.765625 55.40478516 C-29.5 53.25 -29.5 53.25 -29.5 51.25 C-34.45 51.25 -39.4 51.25 -44.5 51.25 C-45.10134766 53.09078125 -45.10134766 53.09078125 -45.71484375 54.96875 C-47.70773043 60.94155893 -49.87218248 66.84721934 -52.0625 72.75 C-52.66094727 74.39355469 -52.66094727 74.39355469 -53.27148438 76.0703125 C-53.8505957 77.62878906 -53.8505957 77.62878906 -54.44140625 79.21875 C-54.78888916 80.16169922 -55.13637207 81.10464844 -55.49438477 82.07617188 C-56.5 84.25 -56.5 84.25 -58.5 85.25 C-59.49 84.59 -60.48 83.93 -61.5 83.25 C-64.00896686 82.79398739 -64.00896686 82.79398739 -66.6875 82.625 C-67.58855469 82.55023438 -68.48960938 82.47546875 -69.41796875 82.3984375 C-70.44857422 82.32496094 -70.44857422 82.32496094 -71.5 82.25 C-69.38586357 78.35446047 -67.183259 74.73601197 -64.51953125 71.19140625 C-57.10260816 61.16921484 -53.61025344 53.80911488 -54.5 41.25 C-58.46 41.25 -62.42 41.25 -66.5 41.25 C-58.80384425 23.93364957 -43.51476663 11.08804033 -26.1875 3.875 C-24.6437881 3.28190423 -23.07770417 2.74563957 -21.5 2.25 C-20.36175781 1.89164063 -19.22351563 1.53328125 -18.05078125 1.1640625 C-12.11356267 -0.2795074 -6.07350483 -0.03965292 0 0 Z " fill="#3CB36A" transform="translate(99.5,31.75)"/>
<path d="M0 0 C6.02971431 0.12561905 8.90431746 2.04524025 13.265625 6.14453125 C15.24242863 8.25935496 16.73615826 10.3933264 18 13 C18 11.35 18 9.7 18 8 C18.99 8 19.98 8 21 8 C22.54656904 13.96533774 23.83445193 19.9490696 25 26 C25.66 24.68 26.32 23.36 27 22 C28.98 22.495 28.98 22.495 31 23 C31.33 24.32 31.66 25.64 32 27 C37.31503711 22.44997265 37.31503711 22.44997265 42.3125 17.5625 C44 16 44 16 47 16 C46.34 17.32 45.68 18.64 45 20 C47.82950738 20.13032321 47.82950738 20.13032321 49.80859375 19.51171875 C52.59492266 18.86107866 55.2029903 18.83021691 58.0625 18.8125 C59.10535156 18.79832031 60.14820313 18.78414062 61.22265625 18.76953125 C64 19 64 19 67 21 C66.32077981 29.15064228 63.76464234 34.66979604 57.6875 40.25 C53.99347493 43.35689526 50.29295732 45.80785158 46 48 C46.10699219 48.6290625 46.21398437 49.258125 46.32421875 49.90625 C47.31708789 56.99512216 46.71017053 61.78618005 42.82421875 67.828125 C41.5625 69.5 41.5625 69.5 39 72 C35 72 35 72 33.21875 70.56640625 C29.03129226 65.6842112 26.31057944 60.9876306 24 55 C23.67 54.34 23.34 53.68 23 53 C22.566875 54.010625 22.13375 55.02125 21.6875 56.0625 C21.41679687 56.69414063 21.14609375 57.32578125 20.8671875 57.9765625 C20.58101563 58.64429688 20.29484375 59.31203125 20 60 C19.4375 61.3125 18.875 62.625 18.3125 63.9375 C17.879375 64.948125 17.44625 65.95875 17 67 C16.34 67 15.68 67 15 67 C15.14151828 64.9163691 15.28837936 62.83310062 15.4375 60.75 C15.55931641 59.00976562 15.55931641 59.00976562 15.68359375 57.234375 C15.93247787 54.69022624 16.28114942 52.44046752 17 50 C16.34644531 50.61488281 16.34644531 50.61488281 15.6796875 51.2421875 C9.24324996 57.06563099 3.48247301 58.28370228 -5 59 C-7.71854079 54.92218881 -7.75443375 51.79065433 -7 47 C-5.01030247 42.20176788 -2.14639542 38.10599989 1 34 C-23.32778005 30.36275837 -44.37114445 32.43365836 -64.6796875 46.91015625 C-72.5335764 52.91396494 -78.60428206 59.36010665 -83.3125 68.0625 C-84.9921875 70.8671875 -84.9921875 70.8671875 -87 73 C-90.82731462 73.92311924 -94.14661004 73.68984739 -98 73 C-90.00777405 54.28402785 -75.63080606 40.31590772 -56.86328125 32.47265625 C-38.17861417 25.16003484 -19.36563441 25.39826509 0 30 C-0.48082031 28.89269531 -0.96164063 27.78539062 -1.45703125 26.64453125 C-4.21944778 20.11963348 -5.62827065 12.41552871 -3.10546875 5.57421875 C-2.15021234 3.67383231 -1.08433224 1.82981065 0 0 Z " fill="#E14F0F" transform="translate(120,0)"/>
<path d="M0 0 C6.41753653 0.60542797 6.41753653 0.60542797 8.9375 2.3125 C10 4 10 4 10 8 C9.34 8 8.68 8 8 8 C8.515625 8.94875 9.03125 9.8975 9.5625 10.875 C10.036875 11.90625 10.51125 12.9375 11 14 C10.67 14.66 10.34 15.32 10 16 C9.01 15.01 9.01 15.01 8 14 C7.67 15.65 7.34 17.3 7 19 C8.98 20.32 10.96 21.64 13 23 C11.515 23.495 11.515 23.495 10 24 C9.34 23.67 8.68 23.34 8 23 C8 25.31 8 27.62 8 30 C9.98 30.33 11.96 30.66 14 31 C14 31.66 14 32.32 14 33 C12.68 33.33 11.36 33.66 10 34 C9.67 35.32 9.34 36.64 9 38 C10.485 38.495 10.485 38.495 12 39 C11.030625 39.37125 10.06125 39.7425 9.0625 40.125 C5.68859031 41.71052362 5.68859031 41.71052362 5.125 45.1875 C5.08375 46.115625 5.0425 47.04375 5 48 C7.64 45.36 10.28 42.72 13 40 C13 44.24645065 11.18249194 46.38524772 9 50 C10.32 50 11.64 50 13 50 C13 51.32 13 52.64 13 54 C6.91643021 57.09212176 1.81987029 58.56699236 -5 59 C-7.71854079 54.92218881 -7.75443375 51.79065433 -7 47 C-5.01030247 42.20176788 -2.14639542 38.10599989 1 34 C-23.32778005 30.36275837 -44.37114445 32.43365836 -64.6796875 46.91015625 C-72.5335764 52.91396494 -78.60428206 59.36010665 -83.3125 68.0625 C-84.9921875 70.8671875 -84.9921875 70.8671875 -87 73 C-90.82731462 73.92311924 -94.14661004 73.68984739 -98 73 C-90.00777405 54.28402785 -75.63080606 40.31590772 -56.86328125 32.47265625 C-38.17861417 25.16003484 -19.36563441 25.39826509 0 30 C-0.48082031 28.89269531 -0.96164063 27.78539062 -1.45703125 26.64453125 C-4.21944778 20.11963348 -5.62827065 12.41552871 -3.10546875 5.57421875 C-2.15021234 3.67383231 -1.08433224 1.82981065 0 0 Z " fill="#F5DBB2" transform="translate(120,0)"/>
<path d="M0 0 C3.691875 -0.061875 7.38375 -0.12375 11.1875 -0.1875 C12.3427417 -0.21481201 13.4979834 -0.24212402 14.68823242 -0.27026367 C15.60967041 -0.27775635 16.5311084 -0.28524902 17.48046875 -0.29296875 C18.41785889 -0.3086792 19.35524902 -0.32438965 20.32104492 -0.34057617 C24.75745568 0.22342574 27.31968105 2.25444499 30.28125 5.5 C32.68346284 10.39177888 32.58557159 14.623252 32.5 20 C32.51546875 20.97195312 32.5309375 21.94390625 32.546875 22.9453125 C32.51512726 28.77102337 32.09174212 32.52636195 28 37 C22.67331815 41.94971667 17.48170865 41.47825396 10.625 41.25 C7.11875 41.1675 3.6125 41.085 0 41 C0 27.47 0 13.94 0 0 Z " fill="#1A1A18" transform="translate(126,88)"/>
<path d="M0 0 C11.55 0 23.1 0 35 0 C35 10.12423745 35 10.12423745 31.421875 15.13671875 C30.67292969 16.20857422 29.92398438 17.28042969 29.15234375 18.38476562 C28.35212571 19.48608653 27.55134002 20.5869952 26.75 21.6875 C25.96289608 22.79875323 25.17772282 23.91137658 24.39453125 25.02539062 C22.94422986 27.07936448 21.48525687 29.1272644 20.01464844 31.16674805 C17.9469756 34.07456958 15.96512517 37.02231243 14 40 C15.18078125 40.02578125 16.3615625 40.0515625 17.578125 40.078125 C19.13545323 40.13441397 20.69274347 40.19176114 22.25 40.25 C23.02730469 40.26417969 23.80460937 40.27835938 24.60546875 40.29296875 C28.26230979 40.44924401 30.43837093 40.63132325 33.546875 42.671875 C35 45 35 45 35 51 C23.12 51 11.24 51 -1 51 C-1 39.75082121 -1 39.75082121 2.578125 34.765625 C3.70154297 33.16267578 3.70154297 33.16267578 4.84765625 31.52734375 C5.6478132 30.43443849 6.4485993 29.34199358 7.25 28.25 C8.03732305 27.14346562 8.82249734 26.03539906 9.60546875 24.92578125 C11.0546981 22.88199627 12.51354826 20.84497198 13.98535156 18.81738281 C16.05878832 15.91778754 18.03788607 12.97559798 20 10 C18.89140625 10.03480469 17.7828125 10.06960937 16.640625 10.10546875 C15.17709852 10.13361349 13.71355561 10.16091292 12.25 10.1875 C11.15558594 10.22520508 11.15558594 10.22520508 10.0390625 10.26367188 C6.90507274 10.3064081 4.38295315 10.16352813 1.484375 8.92578125 C0 7 0 7 0 0 Z " fill="#1D1D1B" transform="translate(6,78)"/>
<path d="M0 0 C9 0 9 0 11.39868164 2.01953125 C11.97996826 2.94121094 12.56125488 3.86289063 13.16015625 4.8125 C13.80791016 5.80507812 14.45566406 6.79765625 15.12304688 7.8203125 C16.08307617 9.39425781 16.08307617 9.39425781 17.0625 11 C17.73732422 12.04929687 18.41214844 13.09859375 19.10742188 14.1796875 C20.76746594 16.76982718 22.39586871 19.37500019 24 22 C24.01981934 21.43490723 24.03963867 20.86981445 24.06005859 20.28759766 C24.15518236 17.73292003 24.26491058 15.17907459 24.375 12.625 C24.4059375 11.73554687 24.436875 10.84609375 24.46875 9.9296875 C24.50742188 9.07890625 24.54609375 8.228125 24.5859375 7.3515625 C24.6173584 6.56604004 24.6487793 5.78051758 24.68115234 4.97119141 C25 3 25 3 27 1 C29.31 1 31.62 1 34 1 C34 14.53 34 28.06 34 42 C26 42 26 42 23.96875 40.453125 C23.4840625 39.72609375 22.999375 38.9990625 22.5 38.25 C21.94183594 37.44175781 21.38367188 36.63351563 20.80859375 35.80078125 C20.21175781 34.87652344 19.61492187 33.95226562 19 33 C18.26910156 31.92105469 17.53820312 30.84210938 16.78515625 29.73046875 C14.83147956 26.83600574 12.90607293 23.92594571 11 21 C10.96132812 22.77117187 10.96132812 22.77117187 10.921875 24.578125 C10.86558603 26.13545323 10.80823886 27.69274347 10.75 29.25 C10.72873047 30.41595703 10.72873047 30.41595703 10.70703125 31.60546875 C10.55075599 35.26230979 10.36867675 37.43837093 8.328125 40.546875 C6 42 6 42 0 42 C0 28.14 0 14.28 0 0 Z " fill="#1E1E1C" transform="translate(85,87)"/>
<path d="M0 0 C3.625 -0.1875 3.625 -0.1875 7 0 C7.56747137 1.22687945 8.12847042 2.45675109 8.6875 3.6875 C9.05488281 4.49574219 9.42226562 5.30398437 9.80078125 6.13671875 C10.66986418 8.2117604 11.44789049 10.32569592 12.16796875 12.45703125 C12.56628906 13.62621094 12.96460937 14.79539062 13.375 16 C13.91253906 17.670625 13.91253906 17.670625 14.4609375 19.375 C15.78792786 22.33681678 15.78792786 22.33681678 19.1640625 22.875 C20.09992188 22.91625 21.03578125 22.9575 22 23 C22 23.99 22 24.98 22 26 C20.35 26 18.7 26 17 26 C17.39832031 26.85271484 17.39832031 26.85271484 17.8046875 27.72265625 C19.95884206 32.43192114 21.71888799 36.98231131 23 42 C15.51352442 42.36818732 15.51352442 42.36818732 13.34375 40.8125 C11.67415766 38.56049172 11.048696 36.51188532 10.3125 33.8125 C10.06113281 32.91144531 9.80976562 32.01039062 9.55078125 31.08203125 C9.36902344 30.39496094 9.18726562 29.70789063 9 29 C3.67000034 31.22890895 0.39435294 33.4492798 -3.5 37.75 C-7.34730994 41.83818499 -7.34730994 41.83818499 -10.34765625 42.58203125 C-12.5625 42.5625 -12.5625 42.5625 -16 42 C-15.38066865 37.13355557 -13.94225207 32.82847502 -12.12890625 28.30078125 C-11.84651596 27.58391647 -11.56412567 26.8670517 -11.2731781 26.12846375 C-10.67834795 24.62220444 -10.08064622 23.1170763 -9.48022461 21.61303711 C-8.56225298 19.31188078 -7.65448731 17.0068914 -6.74804688 14.70117188 C-6.16726415 13.23413832 -5.58590384 11.76733327 -5.00390625 10.30078125 C-4.73300674 9.61325272 -4.46210724 8.92572418 -4.18299866 8.21736145 C-2.98842876 5.23621681 -1.78975027 2.68462541 0 0 Z " fill="#1F1F1D" transform="translate(59,87)"/>
<path d="M0 0 C0.12452065 4.41071299 0.21476527 8.82046857 0.2746582 13.23242188 C0.29965007 14.72999923 0.33365627 16.22745651 0.37719727 17.72460938 C0.81042237 33.01490709 0.81042237 33.01490709 -3.5925293 38.60180664 C-7.71929759 42.70137334 -11.11738619 43.46800962 -16.875 43.5625 C-22.56567728 43.44916366 -25.769361 42.78178619 -29.765625 38.703125 C-32.95485713 34.30279207 -33.23871372 31.07792839 -33.1953125 25.609375 C-33.1924826 24.90476135 -33.18965271 24.20014771 -33.18673706 23.47418213 C-33.17557801 21.2326124 -33.15048193 18.99144814 -33.125 16.75 C-33.11496464 15.22656829 -33.10583976 13.70313029 -33.09765625 12.1796875 C-33.07565291 8.45299414 -33.04115272 4.72653667 -33 1 C-29.625 0.8125 -29.625 0.8125 -26 1 C-23.67894109 4.48158836 -23.72644057 5.97670987 -23.65625 10.09375 C-23.62660156 11.28871094 -23.59695312 12.48367187 -23.56640625 13.71484375 C-23.52213542 16.23828125 -23.47786458 18.76171875 -23.43359375 21.28515625 C-23.40394531 22.48011719 -23.37429687 23.67507812 -23.34375 24.90625 C-23.32505859 26.00259766 -23.30636719 27.09894531 -23.28710938 28.22851562 C-23.19567409 31.21133393 -23.19567409 31.21133393 -21 34 C-16.4204547 34.567755 -16.4204547 34.567755 -12.30053711 32.85522461 C-10.43579773 30.1951618 -10.63105275 28.16807837 -10.62890625 24.94140625 C-10.61150391 23.75095703 -10.59410156 22.56050781 -10.57617188 21.33398438 C-10.56707149 18.8235788 -10.56185099 16.31315611 -10.56054688 13.80273438 C-10.54185547 12.61099609 -10.52316406 11.41925781 -10.50390625 10.19140625 C-10.50205322 9.10029541 -10.5002002 8.00918457 -10.49829102 6.88500977 C-10 4 -10 4 -8.34350586 1.61303711 C-5.3857427 -0.42279383 -3.51751677 -0.31977425 0 0 Z " fill="#1F1F1D" transform="translate(196,87)"/>
<path d="M0 0 C1.77049689 -0.05410687 3.54146849 -0.09284119 5.3125 -0.125 C6.29863281 -0.14820312 7.28476563 -0.17140625 8.30078125 -0.1953125 C11 0 11 0 14 2 C13.32077981 10.15064228 10.76464234 15.66979604 4.6875 21.25 C0.99347493 24.35689526 -2.70704268 26.80785158 -7 29 C-6.89300781 29.6290625 -6.78601563 30.258125 -6.67578125 30.90625 C-5.68291211 37.99512216 -6.28982947 42.78618005 -10.17578125 48.828125 C-11.4375 50.5 -11.4375 50.5 -14 53 C-18 53 -18 53 -19.81640625 51.49609375 C-28.27925705 41.51863878 -28.27925705 41.51863878 -27.6875 34.0625 C-27.3471875 32.5465625 -27.3471875 32.5465625 -27 31 C-25 33 -25 33 -24 36 C-22.33657163 34.33657163 -22.63951903 32.2174291 -22.4375 29.9375 C-22.35371094 29.01839844 -22.26992187 28.09929688 -22.18359375 27.15234375 C-22.12300781 26.44207031 -22.06242188 25.73179688 -22 25 C-19.50494038 27.49505962 -19.64051624 28.67328888 -19.375 32.125 C-19.30023438 33.03507812 -19.22546875 33.94515625 -19.1484375 34.8828125 C-19.09945312 35.58148438 -19.05046875 36.28015625 -19 37 C-18.34 37 -17.68 37 -17 37 C-17 34.03 -17 31.06 -17 28 C-16.34 28.33 -15.68 28.66 -15 29 C-14.22197813 26.6984589 -14.22197813 26.6984589 -14 24 C-14.99 22.68 -15.98 21.36 -17 20 C-13.37 20.66 -9.74 21.32 -6 22 C-5.67 20.35 -5.34 18.7 -5 17 C-6.65 16.34 -8.3 15.68 -10 15 C-10 14.67 -10 14.34 -10 14 C-9.24074219 13.98582031 -8.48148438 13.97164062 -7.69921875 13.95703125 C-4.72071806 13.81409412 -1.92030703 13.61162773 1 13 C3.28795759 10.64452575 3.28795759 10.64452575 4 8 C2.35 8 0.7 8 -1 8 C-0.67 5.36 -0.34 2.72 0 0 Z " fill="#F9C506" transform="translate(173,19)"/>
<path d="M0 0 C6.41753653 0.60542797 6.41753653 0.60542797 8.9375 2.3125 C10 4 10 4 10 8 C9.34 8 8.68 8 8 8 C8.515625 8.94875 9.03125 9.8975 9.5625 10.875 C10.036875 11.90625 10.51125 12.9375 11 14 C10.67 14.66 10.34 15.32 10 16 C9.34 15.34 8.68 14.68 8 14 C7.67 15.65 7.34 17.3 7 19 C8.98 20.32 10.96 21.64 13 23 C12.01 23.33 11.02 23.66 10 24 C9.34 23.67 8.68 23.34 8 23 C8 25.31 8 27.62 8 30 C9.98 30.33 11.96 30.66 14 31 C14 31.66 14 32.32 14 33 C12.02 33.495 12.02 33.495 10 34 C9.67 35.32 9.34 36.64 9 38 C10.485 38.495 10.485 38.495 12 39 C11.030625 39.37125 10.06125 39.7425 9.0625 40.125 C5.68859031 41.71052362 5.68859031 41.71052362 5.125 45.1875 C5.08375 46.115625 5.0425 47.04375 5 48 C7.64 45.36 10.28 42.72 13 40 C13 44.24645065 11.18249194 46.38524772 9 50 C10.32 50 11.64 50 13 50 C13 51.32 13 52.64 13 54 C6.91643021 57.09212176 1.81987029 58.56699236 -5 59 C-7.72066892 54.91899662 -7.74857396 51.79389786 -7 47 C-4.87600225 41.77039597 -1.69845953 37.24637946 2 33 C1.65066406 32.33613281 1.30132812 31.67226563 0.94140625 30.98828125 C0.48636719 30.10527344 0.03132813 29.22226562 -0.4375 28.3125 C-1.11619141 27.00732422 -1.11619141 27.00732422 -1.80859375 25.67578125 C-4.51372454 19.60032357 -5.43822029 11.90015197 -3.10546875 5.57421875 C-2.15021234 3.67383231 -1.08433224 1.82981065 0 0 Z " fill="#F4A006" transform="translate(120,0)"/>
<path d="M0 0 C3.3 0 6.6 0 10 0 C10.44988281 0.94359375 10.89976563 1.8871875 11.36328125 2.859375 C16.04125565 12.32307698 21.44541036 19.65082216 29 27 C29.60585938 27.60328125 30.21171875 28.2065625 30.8359375 28.828125 C43.85662478 40.89607906 60.82058545 45.36734642 78 47 C78 47.33 78 47.66 78 48 C55.64994469 48.80945874 37.05715355 44.48091494 20 29 C19.15695313 28.24976563 18.31390625 27.49953125 17.4453125 26.7265625 C9.47609061 19.24179179 3.16567048 10.5733394 0 0 Z " fill="#C88716" transform="translate(21,134)"/>
<path d="M0 0 C6.43415393 3.97403625 10.02092114 11.22355298 11.875 18.375 C11.91625 19.57125 11.9575 20.7675 12 22 C12.04898438 23.00160156 12.09796875 24.00320312 12.1484375 25.03515625 C12.44888216 35.10005221 10.91475373 41.52459057 4 49 C3.505 47.515 3.505 47.515 3 46 C0.525 46.495 0.525 46.495 -2 47 C-0.79310745 43.89656201 0.50596946 40.98806107 2 38 C-0.31 40.31 -2.62 42.62 -5 45 C-6 43 -6 43 -5.375 40 C-4 37 -4 37 -1.375 35.625 C-0.59125 35.41875 0.1925 35.2125 1 35 C0.34 34.67 -0.32 34.34 -1 34 C-0.67 32.35 -0.34 30.7 0 29 C1.32 29 2.64 29 4 29 C4 28.34 4 27.68 4 27 C2.02 26.67 0.04 26.34 -2 26 C-2 23.69 -2 21.38 -2 19 C-1.01 19 -0.02 19 1 19 C-0.65 17.68 -2.3 16.36 -4 15 C-3.67 13.02 -3.34 11.04 -3 9 C-2.01 9.33 -1.02 9.66 0 10 C-0.66 9.01 -1.32 8.02 -2 7 C-2 6.01 -2 5.02 -2 4 C-1.34 4 -0.68 4 0 4 C0 2.68 0 1.36 0 0 Z " fill="#EB6E14" transform="translate(130,4)"/>
<path d="M0 0 C0.99 0 1.98 0 3 0 C4.54656904 5.96533774 5.83445193 11.9490696 7 18 C7.66 16.68 8.32 15.36 9 14 C10.32 14.33 11.64 14.66 13 15 C13.33 16.32 13.66 17.64 14 19 C19.31503711 14.44997265 19.31503711 14.44997265 24.3125 9.5625 C26 8 26 8 29 8 C27.36029345 12.36203987 24.06124581 14.95340089 20.75 18.0625 C12.25080969 26.33964881 8.04455632 34.57868108 4.95703125 46.0546875 C3.9840626 49.04904816 2.68556949 51.35446714 1 54 C0.30177383 55.65369357 -0.37498605 57.31727014 -1 59 C-1.66 59 -2.32 59 -3 59 C-2.86502107 51.72340874 -1.98442246 45.32840985 0.5625 38.5 C5.24473649 25.53177391 2.48162425 13.16147149 0 0 Z " fill="#1A1D1B" transform="translate(138,8)"/>
<path d="M0 0 C9 0 9 0 12.0234375 2 C14.47359862 5.71882163 14.74444405 8.68408839 14.625 13 C14.64433594 13.69867188 14.66367188 14.39734375 14.68359375 15.1171875 C14.64874466 18.81119154 14.05975384 20.90930642 12.0234375 24 C9 26 9 26 0 26 C0 17.42 0 8.84 0 0 Z " fill="#EAECEA" transform="translate(135,95)"/>
<path d="M0 0 C2.49505962 2.49505962 2.35948376 3.67328888 2.625 7.125 C2.69976562 8.03507812 2.77453125 8.94515625 2.8515625 9.8828125 C2.90054688 10.58148438 2.94953125 11.28015625 3 12 C3.66 12 4.32 12 5 12 C5 9.03 5 6.06 5 3 C5.99 3.99 6.98 4.98 8 6 C10.67479327 5.73904456 12.60095141 5.1995243 15 4 C16.31323306 11.72117752 16.11021207 17.16418855 11.82421875 23.828125 C10.5625 25.5 10.5625 25.5 8 28 C4 28 4 28 2.18359375 26.49609375 C-6.27925705 16.51863878 -6.27925705 16.51863878 -5.6875 9.0625 C-5.460625 8.051875 -5.23375 7.04125 -5 6 C-3 8 -3 8 -2 11 C-0.33657163 9.33657163 -0.63951903 7.2174291 -0.4375 4.9375 C-0.35371094 4.01839844 -0.26992187 3.09929688 -0.18359375 2.15234375 C-0.12300781 1.44207031 -0.06242188 0.73179688 0 0 Z " fill="#F9D903" transform="translate(151,44)"/>
<path d="M0 0 C1.32 0 2.64 0 4 0 C3.7834375 0.87011719 3.7834375 0.87011719 3.5625 1.7578125 C1.98490636 8.30580024 1.98490636 8.30580024 2 15 C2.515625 15.639375 3.03125 16.27875 3.5625 16.9375 C5.70111801 20.00595193 4.51348547 22.40560171 4 26 C4.98731742 27.34275169 5.98594743 28.67732273 7 30 C6.25 32.4375 6.25 32.4375 5 35 C4.855625 35.825 4.71125 36.65 4.5625 37.5 C3.68196538 41.41348721 1.81329091 44.18670909 -1 47 C-1.16687448 49.58354218 -1.16687448 49.58354218 -1 52 C1.475 51.505 1.475 51.505 4 51 C3.690625 51.598125 3.38125 52.19625 3.0625 52.8125 C1.89790296 55.08956772 1.89790296 55.08956772 1 58 C-1.97 58.495 -1.97 58.495 -5 59 C-7.72066892 54.91899662 -7.74857396 51.79389786 -7 47 C-4.87600225 41.77039597 -1.69845953 37.24637946 2 33 C1.65066406 32.33613281 1.30132812 31.67226563 0.94140625 30.98828125 C0.48636719 30.10527344 0.03132813 29.22226562 -0.4375 28.3125 C-1.11619141 27.00732422 -1.11619141 27.00732422 -1.80859375 25.67578125 C-4.51372454 19.60032357 -5.43822029 11.90015197 -3.10546875 5.57421875 C-2.15021234 3.67383231 -1.08433224 1.82981065 0 0 Z " fill="#F9C706" transform="translate(120,0)"/>
<path d="M0 0 C0.65393535 5.2859774 1.15859686 10.02108274 -1.60546875 14.7421875 C-3.00045876 16.42245689 -4.44346993 18.06391885 -5.9296875 19.6640625 C-7.93244994 21.92378314 -9.03052912 23.91861704 -10.3125 26.625 C-11.4375 28.5703125 -11.4375 28.5703125 -13 30 C-16.75371206 30.67182915 -20.23035597 30.47533165 -24 30 C-20.96372963 22.88974661 -17.4934493 16.92990899 -12.5 11.0625 C-12.04971436 10.53180908 -11.59942871 10.00111816 -11.13549805 9.4543457 C-2.84407423 0 -2.84407423 0 0 0 Z " fill="#CA8918" transform="translate(46,43)"/>
<path d="M0 0 C0.71164307 0.1652417 1.42328613 0.3304834 2.15649414 0.50073242 C5.91018309 1.48416098 7.08714748 1.84947122 9.3125 5.1875 C7.3125 6.1875 7.3125 6.1875 4.04296875 5.26171875 C-2.02036387 3.63396926 -8.14142496 3.93628944 -14.375 4 C-15.58478516 4.00064453 -16.79457031 4.00128906 -18.04101562 4.00195312 C-23.06816302 4.02696381 -27.77133859 4.05125751 -32.6875 5.1875 C-32.6875 3.2075 -32.6875 1.2275 -32.6875 -0.8125 C-24.16437705 -5.07406147 -8.93549935 -2.10563161 0 0 Z " fill="#C09631" transform="translate(113.6875,28.8125)"/>
<path d="M0 0 C3.44354367 1.27471529 6.32349199 2.78351485 9.375 4.8125 C20.42505338 11.50801382 32.33458165 13.79633613 45 15 C45 15.33 45 15.66 45 16 C28.7357354 16.58904781 15.40464395 15.4419373 1 7 C0 6 0 6 -0.0625 2.9375 C-0.041875 1.968125 -0.02125 0.99875 0 0 Z " fill="#F5D9AC" transform="translate(54,166)"/>
<path d="M0 0 C-1.875 4.875 -1.875 4.875 -3 6 C-5.65463121 6.45459858 -8.32189138 6.70243238 -11 7 C-10.01 7.66 -9.02 8.32 -8 9 C-8.66 10.65 -9.32 12.3 -10 14 C-11.93835966 13.93989582 -13.87584491 13.85108283 -15.8125 13.75 C-16.89144531 13.70359375 -17.97039062 13.6571875 -19.08203125 13.609375 C-22 13 -22 13 -23.88671875 10.953125 C-24.25410156 10.30859375 -24.62148437 9.6640625 -25 9 C-22.39761208 7.51762714 -19.79321772 6.03899869 -17.1875 4.5625 C-16.44951172 4.14162109 -15.71152344 3.72074219 -14.95117188 3.28710938 C-14.23896484 2.88427734 -13.52675781 2.48144531 -12.79296875 2.06640625 C-12.1383667 1.69459229 -11.48376465 1.32277832 -10.80932617 0.93969727 C-6.80259292 -1.14125217 -4.33197786 -0.86639557 0 0 Z " fill="#EA6E13" transform="translate(177,27)"/>
<path d="M0 0 C2.4375 1.1875 2.4375 1.1875 5 3 C5.8125 5.6875 5.8125 5.6875 6 8 C5.34 8 4.68 8 4 8 C4.515625 8.94875 5.03125 9.8975 5.5625 10.875 C6.036875 11.90625 6.51125 12.9375 7 14 C6.67 14.66 6.34 15.32 6 16 C5.34 15.34 4.68 14.68 4 14 C3.67 15.65 3.34 17.3 3 19 C4.98 20.32 6.96 21.64 9 23 C8.01 23.33 7.02 23.66 6 24 C5.34 23.67 4.68 23.34 4 23 C4 24.98 4 26.96 4 29 C0.125 27.125 0.125 27.125 -1 26 C-0.67720355 23.998662 -0.35003026 21.99732454 0.0390625 20.0078125 C0.22984431 17.88594286 0.22984431 17.88594286 -1.48828125 16.51171875 C-3 15 -3 15 -3.14453125 12.94921875 C-2.48249785 8.43960302 -1.64677608 4.28161782 0 0 Z " fill="#F49F06" transform="translate(124,0)"/>
<path d="M0 0 C2.49505962 2.49505962 2.35948376 3.67328888 2.625 7.125 C2.69976562 8.03507812 2.77453125 8.94515625 2.8515625 9.8828125 C2.90054688 10.58148438 2.94953125 11.28015625 3 12 C3.66 12 4.32 12 5 12 C5.33 10.35 5.66 8.7 6 7 C7.5 8.0625 7.5 8.0625 9 10 C9.3862557 14.24881273 9.3297964 17.35969312 7 21 C6.2575 20.62875 5.515 20.2575 4.75 19.875 C2.05716353 18.70484137 2.05716353 18.70484137 -0.3125 19.875 C-1.1478125 20.431875 -1.1478125 20.431875 -2 21 C-5.15224178 17.57365024 -5.75336704 14.60381523 -6 10 C-5.0625 7.5625 -5.0625 7.5625 -4 6 C-3.34 7.65 -2.68 9.3 -2 11 C-0.33657163 9.33657163 -0.63951903 7.2174291 -0.4375 4.9375 C-0.35371094 4.01839844 -0.26992187 3.09929688 -0.18359375 2.15234375 C-0.12300781 1.44207031 -0.06242188 0.73179688 0 0 Z " fill="#F4BC09" transform="translate(151,44)"/>
<path d="M0 0 C1.80159109 3.53883965 3.4061709 7.14532736 5 10.78125 C5.33 11.5134375 5.66 12.245625 6 13 C6.32742187 13.72703125 6.65484375 14.4540625 6.9921875 15.203125 C8.27384356 17.48824821 9.6097729 18.04390916 12 19 C12 19.66 12 20.32 12 21 C15.93673644 19.68775452 18.22719294 18.08089673 21 15 C29 27.17391304 29 27.17391304 29 33 C24.38 32.34 19.76 31.68 15 31 C15 30.67 15 30.34 15 30 C18.3 29.67 21.6 29.34 25 29 C23.35 25.7 21.7 22.4 20 19 C18.35 20.32 16.7 21.64 15 23 C8.42341265 21.4056758 4.55507153 15.40785269 1.0625 10 C0.711875 9.34 0.36125 8.68 0 8 C-2.24585673 9.92209478 -2.24585673 9.92209478 -2.875 13.0625 C-3.431875 14.5165625 -3.431875 14.5165625 -4 16 C-6.125 16.875 -6.125 16.875 -8 17 C-7.34 16.34 -6.68 15.68 -6 15 C-5.24610322 13.06609087 -4.49703132 11.12978893 -3.796875 9.17578125 C-2.65562017 6.05970802 -1.32990001 3.03977144 0 0 Z " fill="#18A04A" transform="translate(143,51)"/>
<path d="M0 0 C0.66 0 1.32 0 2 0 C2.66 1.65 3.32 3.3 4 5 C3.175 5.886875 2.35 6.77375 1.5 7.6875 C-0.46099476 10.01307407 -0.97259478 10.74787194 -1.3125 13.875 C-1.209375 14.57625 -1.10625 15.2775 -1 16 C0.65 15.67 2.3 15.34 4 15 C3.690625 15.598125 3.38125 16.19625 3.0625 16.8125 C1.89790296 19.08956772 1.89790296 19.08956772 1 22 C-0.98 22.33 -2.96 22.66 -5 23 C-7.71691748 18.92462379 -7.7591552 15.78793923 -7 11 C-5.26834629 6.84789352 -3.1875684 3.1875684 0 0 Z " fill="#F3DE04" transform="translate(120,36)"/>
<path d="M0 0 C0.99 0.33 1.98 0.66 3 1 C3.47205799 8.25133529 3.43546933 13.08604089 -1 19 C-3.25 20.9375 -3.25 20.9375 -5 22 C-5 21.01 -5 20.02 -5 19 C-6.65 19.33 -8.3 19.66 -10 20 C-9.0353547 17.32867456 -8.17590717 15.21650113 -6.375 13 C-4.73804851 11.0516767 -4.73804851 11.0516767 -5.125 8.4375 C-5.08375 7.633125 -5.0425 6.82875 -5 6 C-2.5 4.1875 -2.5 4.1875 0 3 C-0.66 2.34 -1.32 1.68 -2 1 C-1.34 0.67 -0.68 0.34 0 0 Z " fill="#E7501A" transform="translate(138,31)"/>
<path d="M0 0 C1.10092089 1.10092089 2.19922121 2.20451615 3.2890625 3.31640625 C4.60370724 4.61004069 5.96136046 5.86008001 7.3359375 7.08984375 C13.7255407 12.98561326 13.7255407 12.98561326 14.578125 16.13671875 C14.5625 18.0625 14.5625 18.0625 14 21 C11.60543125 19.7294125 9.30539116 18.41972931 7 17 C5.99839844 16.39865234 5.99839844 16.39865234 4.9765625 15.78515625 C2.8783581 14.30784907 1.45004866 13.12760117 0 11 C-0.5778364 7.25954114 -0.42053792 3.75146522 0 0 Z " fill="#D19C3B" transform="translate(40,151)"/>
<path d="M0 0 C4.14024501 3.03617968 4.87398892 6.23090866 5.6953125 11.05078125 C6.2442005 16.36373557 6.15046228 21.66694799 6 27 C5.67 27 5.34 27 5 27 C5 24.69 5 22.38 5 20 C4.01 19.67 3.02 19.34 2 19 C-1.51756437 13.27281068 -3.74713783 7.72424044 -3 1 C-2.01 1.495 -2.01 1.495 -1 2 C-0.67 1.34 -0.34 0.68 0 0 Z " fill="#DF3F01" transform="translate(136,12)"/>
<path d="M0 0 C3.3 0 6.6 0 10 0 C10.73080266 1.97746603 11.39421747 3.98072489 12 6 C11.67 6.66 11.34 7.32 11 8 C10.77532169 9.53668865 10.59203195 11.07968054 10.4375 12.625 C10.35371094 13.44226563 10.26992188 14.25953125 10.18359375 15.1015625 C10.12300781 15.72804687 10.06242187 16.35453125 10 17 C6.81321628 14.07647233 4.78276705 11.18387159 2.75 7.375 C1.96882813 5.93253906 1.96882813 5.93253906 1.171875 4.4609375 C0 2 0 2 0 0 Z " fill="#D59E39" transform="translate(21,134)"/>
<path d="M0 0 C0.33 0 0.66 0 1 0 C1.02691685 2.45840605 1.04679802 4.91651882 1.0625 7.375 C1.07087891 8.07367188 1.07925781 8.77234375 1.08789062 9.4921875 C1.11328125 14.7734375 1.11328125 14.7734375 0 17 C-3.3 17 -6.6 17 -10 17 C-9.09111244 15.10042499 -8.17251969 13.20549214 -7.25 11.3125 C-6.73953125 10.25675781 -6.2290625 9.20101562 -5.703125 8.11328125 C-4.05001807 5.09143212 -2.27701639 2.5783862 0 0 Z " fill="#D1972D" transform="translate(32,56)"/>
<path d="M0 0 C3.63 0 7.26 0 11 0 C11 0.99 11 1.98 11 3 C10.54625 3.4125 10.0925 3.825 9.625 4.25 C7.24470991 6.81338933 6.81967925 9.65823073 6 13 C4.35 13.33 2.7 13.66 1 14 C1.99 12.02 2.98 10.04 4 8 C2.35 8 0.7 8 -1 8 C-0.67 5.36 -0.34 2.72 0 0 Z " fill="#F39F0B" transform="translate(173,19)"/>
<path d="M0 0 C0 4.24645065 -1.81750806 6.38524772 -4 10 C-2.68 10 -1.36 10 0 10 C0 11.32 0 12.64 0 14 C-1.43429001 14.67354499 -2.87257057 15.33859701 -4.3125 16 C-5.51326172 16.556875 -5.51326172 16.556875 -6.73828125 17.125 C-9 18 -9 18 -12 18 C-10.45128724 10.50622858 -5.45366478 5.07317654 0 0 Z " fill="#F6C107" transform="translate(133,40)"/>
<path d="M0 0 C2.97 0 5.94 0 9 0 C7.25 6.75 7.25 6.75 5 9 C3.35008418 9.70710678 1.68437744 10.37943989 0 11 C0 13.31 0 15.62 0 18 C-1.65 17.67 -3.3 17.34 -5 17 C-4.6596875 15.39125 -4.6596875 15.39125 -4.3125 13.75 C-3.5544956 9.67127831 -3.5544956 9.67127831 -7 6 C-3.37 6.66 0.26 7.32 4 8 C4.33 6.35 4.66 4.7 5 3 C2.525 2.01 2.525 2.01 0 1 C0 0.67 0 0.34 0 0 Z " fill="#F29909" transform="translate(163,33)"/>
<path d="M0 0 C0.49147001 3.45394199 0.69494 6.56617883 0 10 C-2.33009294 12.6162447 -4.9419644 14.32081081 -8 16 C-8.91431503 6.33196511 -8.91431503 6.33196511 -6.734375 3.15625 C-4.58323843 1.36015539 -2.87519213 0 0 0 Z " fill="#DEAC5A" transform="translate(54,38)"/>
<path d="M0 0 C-0.140625 1.80859375 -0.140625 1.80859375 -1 4 C-3.546875 5.59765625 -3.546875 5.59765625 -6.75 7.0625 C-9.85337246 8.5033515 -12.84172031 9.90364612 -15.765625 11.68359375 C-18 13 -18 13 -20 13 C-17.4222649 6.43849248 -11.24558154 3.95065816 -5.3046875 0.953125 C-3 0 -3 0 0 0 Z " fill="#E45202" transform="translate(172,23)"/>
<path d="M0 0 C5.61 0 11.22 0 17 0 C17 0.33 17 0.66 17 1 C12.05 1 7.1 1 2 1 C2 8.59 2 16.18 2 24 C1.01 24 0.02 24 -1 24 C-3.125 19.375 -3.125 19.375 -2 16 C-1.67 16.66 -1.34 17.32 -1 18 C-0.505 9.09 -0.505 9.09 0 0 Z " fill="#77CA97" transform="translate(79,82)"/>
<path d="M0 0 C2.97 0 5.94 0 9 0 C7 3 7 3 4 5 C3.32456162 6.32891129 2.65873032 7.66272793 2 9 C0.2734375 10.921875 0.2734375 10.921875 -1.625 12.75 C-2.57246094 13.67039062 -2.57246094 13.67039062 -3.5390625 14.609375 C-4.02117187 15.06828125 -4.50328125 15.5271875 -5 16 C-6 14 -6 14 -5.375 11 C-4 8 -4 8 -1.375 6.625 C-0.59125 6.41875 0.1925 6.2125 1 6 C0.34 5.67 -0.32 5.34 -1 5 C-0.67 3.35 -0.34 1.7 0 0 Z " fill="#DF4302" transform="translate(130,33)"/>
<path d="M0 0 C0.33 0.99 0.66 1.98 1 3 C-0.64548828 3.76183594 -0.64548828 3.76183594 -2.32421875 4.5390625 C-3.77901184 5.23360888 -5.23341874 5.92896458 -6.6875 6.625 C-7.40873047 6.95628906 -8.12996094 7.28757812 -8.87304688 7.62890625 C-15.13126014 10.65799578 -19.22508753 14.44111598 -22 21 C-22.66 21 -23.32 21 -24 21 C-21.70784997 12.85013322 -14.07648318 6.20166189 -7 2 C-4.64512597 1.07232235 -2.4897917 0.5187066 0 0 Z " fill="#E33820" transform="translate(172,19)"/>
<path d="M0 0 C0.76681614 10.68430493 0.76681614 10.68430493 -1.11328125 13.91015625 C-2.5 15.25 -2.5 15.25 -5 17 C-6.80175702 15.19824298 -6.29844137 12.62265322 -6.375 10.1875 C-6.35435416 4.39978419 -6.35435416 4.39978419 -3.5625 1.25 C-1 0 -1 0 0 0 Z " fill="#D19835" transform="translate(46,43)"/>
<path d="M0 0 C1.91619141 0.44472656 1.91619141 0.44472656 3.87109375 0.8984375 C8.90680116 2.01748359 13.96416493 2.84976829 19.0625 3.625 C20.3609082 3.82609375 20.3609082 3.82609375 21.68554688 4.03125 C23.78995974 4.35679453 25.89492305 4.67877768 28 5 C28 5.33 28 5.66 28 6 C24.81257885 6.05865035 21.62529882 6.09381259 18.4375 6.125 C17.09461914 6.15013672 17.09461914 6.15013672 15.72460938 6.17578125 C10.39910095 6.21479596 6.03629311 5.75475782 1 4 C0.67 2.68 0.34 1.36 0 0 Z " fill="#D7A044" transform="translate(71,176)"/>
<path d="M0 0 C1.65 1.65 3.3 3.3 5 5 C5.99 4.01 6.98 3.02 8 2 C9 5 9 5 8.0625 7.1875 C7.5365625 8.0846875 7.5365625 8.0846875 7 9 C6.67 9 6.34 9 6 9 C5.67 11.31 5.34 13.62 5 16 C4.34 16 3.68 16 3 16 C2.49411853 14.08487728 1.99551609 12.16783078 1.5 10.25 C1.2215625 9.18265625 0.943125 8.1153125 0.65625 7.015625 C0 4 0 4 0 0 Z " fill="#EB700A" transform="translate(151,40)"/>
<path d="M0 0 C1.32 0.33 2.64 0.66 4 1 C4 5.62 4 10.24 4 15 C2.68 15.33 1.36 15.66 0 16 C0 10.72 0 5.44 0 0 Z " fill="#34B064" transform="translate(140,100)"/>
<path d="M0 0 C1.5 1.0625 1.5 1.0625 3 3 C3.3862557 7.24881273 3.3297964 10.35969312 1 14 C-0.32 13.34 -1.64 12.68 -3 12 C-3 9.69 -3 7.38 -3 5 C-2.34 5 -1.68 5 -1 5 C-0.67 3.35 -0.34 1.7 0 0 Z " fill="#F6A800" transform="translate(157,51)"/>
<path d="M0 0 C0 1.98 0 3.96 0 6 C-4.95 7.485 -4.95 7.485 -10 9 C-9.67 6.69 -9.34 4.38 -9 2 C-5.62902617 0.50178941 -3.79557881 0 0 0 Z " fill="#E7C180" transform="translate(81,28)"/>
<path d="M0 0 C3.24299151 2.38957269 5.50902342 4.2047869 7 8 C6.01 9.485 6.01 9.485 5 11 C4.67 10.67 4.34 10.34 4 10 C3.34 11.32 2.68 12.64 2 14 C-2 7.375 -2 7.375 -2 4 C-1.34 4 -0.68 4 0 4 C0 2.68 0 1.36 0 0 Z " fill="#EA6219" transform="translate(130,4)"/>
<path d="M0 0 C2.2819602 0.30426136 3.81190144 0.87907949 5.75 2.125 C7.66497267 4.99745901 7.18991495 7.64483583 7 11 C0.125 7.125 0.125 7.125 -1 6 C-1.125 3.5 -1.125 3.5 -1 1 C-0.67 0.67 -0.34 0.34 0 0 Z " fill="#DCAD5C" transform="translate(47,161)"/>
<path d="M0 0 C0.33 0.66 0.66 1.32 1 2 C0.34938905 3.67299959 -0.32033324 5.33859237 -1 7 C-1.37593066 8.9924325 -1.71979545 10.9918674 -2 13 C-2.33 13 -2.66 13 -3 13 C-3.33 11.35 -3.66 9.7 -4 8 C-4.9075 8.61875 -5.815 9.2375 -6.75 9.875 C-11.77762462 12.79827865 -17.3113626 13.29008794 -23 14 C-23.33 13.34 -23.66 12.68 -24 12 C-22.91460937 11.76925781 -21.82921875 11.53851563 -20.7109375 11.30078125 C-19.26542007 10.97225456 -17.82011859 10.64277667 -16.375 10.3125 C-15.66214844 10.16361328 -14.94929688 10.01472656 -14.21484375 9.86132812 C-7.70644653 8.33872144 -3.78211055 5.67316582 0 0 Z " fill="#1EA74D" transform="translate(138,47)"/>
<path d="M0 0 C2.84323425 2.46802739 4.15880824 5.08454454 5.6875 8.5 C6.34298828 9.93859375 6.34298828 9.93859375 7.01171875 11.40625 C8 14 8 14 8 17 C3.38 16.34 -1.24 15.68 -6 15 C-6 14.67 -6 14.34 -6 14 C-2.7 13.67 0.6 13.34 4 13 C3.01 10.89625 3.01 10.89625 2 8.75 C0.40783761 5.36665493 0 3.87950965 0 0 Z " fill="#27AA5A" transform="translate(164,67)"/>
<path d="M0 0 C1.24546405 2.49092811 0.7767578 3.41080733 0 6 C0.61875 5.34 1.2375 4.68 1.875 4 C4 2 4 2 6 2 C5.52797514 6.24822374 3.03344482 8.19989709 0 11 C0 10.01 0 9.02 0 8 C-1.65 8.33 -3.3 8.66 -5 9 C-3.7508258 5.54074837 -2.32472205 2.85306797 0 0 Z " fill="#EA8413" transform="translate(133,42)"/>
<path d="M0 0 C0.33 0 0.66 0 1 0 C0.98839844 0.69867188 0.97679687 1.39734375 0.96484375 2.1171875 C0.95582031 3.02726562 0.94679688 3.93734375 0.9375 4.875 C0.92589844 5.77992187 0.91429687 6.68484375 0.90234375 7.6171875 C0.83750743 10.0168585 0.83750743 10.0168585 2 12 C-0.64 12 -3.28 12 -6 12 C-4.02 8.04 -2.04 4.08 0 0 Z " fill="#D9A543" transform="translate(28,61)"/>
<path d="M0 0 C0.66 0.33 1.32 0.66 2 1 C2.4140625 3.06640625 2.4140625 3.06640625 2.625 5.5625 C2.69976562 6.38878906 2.77453125 7.21507812 2.8515625 8.06640625 C2.90054688 8.70449219 2.94953125 9.34257812 3 10 C2.34 10 1.68 10 1 10 C0.34 11.98 -0.32 13.96 -1 16 C-1.66 15.67 -2.32 15.34 -3 15 C-2.5547115 9.72684667 -1.91626837 4.98229776 0 0 Z " fill="#F5A90B" transform="translate(124,0)"/>
<path d="M0 0 C0.66 0.66 1.32 1.32 2 2 C1.9765625 5.0390625 1.9765625 5.0390625 1.625 8.625 C1.51414063 9.81351563 1.40328125 11.00203125 1.2890625 12.2265625 C1.19367188 13.14179687 1.09828125 14.05703125 1 15 C0.38125 14.814375 -0.2375 14.62875 -0.875 14.4375 C-3.04160178 13.76313824 -3.04160178 13.76313824 -5 15 C-5.80967438 12.08517222 -6.21845993 10.53886783 -5.0625 7.6875 C-4.711875 7.130625 -4.36125 6.57375 -4 6 C-3.34 7.65 -2.68 9.3 -2 11 C-0.33657163 9.33657163 -0.63951903 7.2174291 -0.4375 4.9375 C-0.35371094 4.01839844 -0.26992187 3.09929688 -0.18359375 2.15234375 C-0.12300781 1.44207031 -0.06242188 0.73179688 0 0 Z " fill="#F18E0A" transform="translate(151,44)"/>
<path d="M0 0 C0.53625 0.7425 1.0725 1.485 1.625 2.25 C4.14794339 5.17130287 6.79649169 6.88859679 10 9 C10 9.66 10 10.32 10 11 C6.05860922 9.33248852 3.2107188 6.77289351 0 4 C-0.54269531 4.44472656 -1.08539063 4.88945312 -1.64453125 5.34765625 C-2.35996094 5.91355469 -3.07539063 6.47945312 -3.8125 7.0625 C-4.87404297 7.91521484 -4.87404297 7.91521484 -5.95703125 8.78515625 C-6.63121094 9.18605469 -7.30539063 9.58695313 -8 10 C-8.99 9.67 -9.98 9.34 -11 9 C-10.45730469 8.60167969 -9.91460937 8.20335937 -9.35546875 7.79296875 C-8.64003906 7.26316406 -7.92460937 6.73335937 -7.1875 6.1875 C-6.47980469 5.66542969 -5.77210938 5.14335937 -5.04296875 4.60546875 C-3.21468607 3.16871123 -1.60103312 1.68184237 0 0 Z " fill="#54BC7D" transform="translate(160,124)"/>
<path d="M0 0 C0.33 0 0.66 0 1 0 C1.24887295 2.10192697 1.4734719 4.20673964 1.6875 6.3125 C1.81511719 7.48425781 1.94273438 8.65601563 2.07421875 9.86328125 C2 13 2 13 0.51953125 14.91796875 C0.01808594 15.27503906 -0.48335937 15.63210937 -1 16 C-2.87243981 14.12756019 -2.17380392 11.06340482 -2.1875 8.5625 C-2.20167969 7.38816406 -2.21585938 6.21382812 -2.23046875 5.00390625 C-2 2 -2 2 0 0 Z " fill="#CC9026" transform="translate(39,48)"/>
<path d="M0 0 C0.66 0 1.32 0 2 0 C3.14229879 3.42689636 2.90861076 5.61102218 2.5625 9.1875 C2.40974609 10.81751953 2.40974609 10.81751953 2.25390625 12.48046875 C2.17011719 13.31191406 2.08632813 14.14335937 2 15 C1.01 14.34 0.02 13.68 -1 13 C-1.328125 10.46875 -1.328125 10.46875 -1.25 7.5 C-1.23453125 6.5203125 -1.2190625 5.540625 -1.203125 4.53125 C-1 2 -1 2 0 0 Z " fill="#CD9124" transform="translate(32,140)"/>
<path d="M0 0 C0.33 1.65 0.66 3.3 1 5 C-1.64 5.66 -4.28 6.32 -7 7 C-7 5.02 -7 3.04 -7 1 C-4.53721199 -0.231394 -2.7204945 -0.07159196 0 0 Z " fill="#D69C3D" transform="translate(88,27)"/>
<path d="M0 0 C1.66611905 -0.042721 3.33382885 -0.04063832 5 0 C6 1 6 1 6.09765625 3.28515625 C6.08605469 4.20167969 6.07445312 5.11820313 6.0625 6.0625 C6.05347656 6.98160156 6.04445313 7.90070313 6.03515625 8.84765625 C6.02355469 9.55792969 6.01195312 10.26820313 6 11 C3.12878998 8.30572729 1.6117451 5.60723903 0 2 C0 1.34 0 0.68 0 0 Z " fill="#DEAD4E" transform="translate(21,134)"/>
<path d="M0 0 C0 3.41321235 -0.66867466 4.39472885 -2.5 7.1875 C-2.9640625 7.90292969 -3.428125 8.61835937 -3.90625 9.35546875 C-4.2671875 9.89816406 -4.628125 10.44085938 -5 11 C-2.36 11.33 0.28 11.66 3 12 C3 12.66 3 13.32 3 14 C-0.96 14 -4.92 14 -9 14 C-6.49681007 8.62277718 -3.96547239 4.40608044 0 0 Z " fill="#5FC084" transform="translate(42,59)"/>
<path d="M0 0 C2.21484375 0.234375 2.21484375 0.234375 4.9375 0.75 C6.28134766 0.98976563 6.28134766 0.98976563 7.65234375 1.234375 C10 2 10 2 12 5 C9.12339951 6.43830025 7.14884967 5.35128839 4.17578125 4.546875 C1.13523286 3.78264381 -1.89090469 3.38863691 -5 3 C-4.360625 2.690625 -3.72125 2.38125 -3.0625 2.0625 C-1.06389179 1.1654837 -1.06389179 1.1654837 0 0 Z " fill="#D4AC59" transform="translate(111,29)"/>
<path d="M0 0 C3.36179774 1.44077046 5.59156268 3.24750021 8 6 C8 6.66 8 7.32 8 8 C5.36 7.67 2.72 7.34 0 7 C0 4.69 0 2.38 0 0 Z " fill="#E04901" transform="translate(128,23)"/>
<path d="M0 0 C0 2.97 0 5.94 0 9 C-1.65 9.66 -3.3 10.32 -5 11 C-4.8864371 9.35333797 -4.75882619 7.70763918 -4.625 6.0625 C-4.55539063 5.14597656 -4.48578125 4.22945312 -4.4140625 3.28515625 C-4.27742188 2.53105469 -4.14078125 1.77695312 -4 1 C-2 0 -2 0 0 0 Z " fill="#E7C384" transform="translate(58,36)"/>
<path d="M0 0 C0.66 0 1.32 0 2 0 C1.00550277 2.06762912 -0.02220971 4.03494051 -1.25390625 5.97265625 C-4.9728951 11.91193695 -5.85695731 17.04292351 -6 24 C-8.63277778 19.7217361 -7.87691689 16.65740901 -6.90625 11.90625 C-5.49783754 7.38961693 -3.18387627 3.50399427 0 0 Z " fill="#07A058" transform="translate(119,34)"/>
<path d="M0 0 C0.66 0 1.32 0 2 0 C2 3.3 2 6.6 2 10 C1.01 10.33 0.02 10.66 -1 11 C-2.50662097 7.98675805 -2.17770373 5.31713623 -2 2 C-1.34 1.34 -0.68 0.68 0 0 Z " fill="#E0B870" transform="translate(52,38)"/>
<path d="M0 0 C0.66 0 1.32 0 2 0 C2 0.66 2 1.32 2 2 C2.66 2 3.32 2 4 2 C4 6.29 4 10.58 4 15 C3.67 15 3.34 15 3 15 C3 12.69 3 10.38 3 8 C2.01 7.67 1.02 7.34 0 7 C-1.125 2.25 -1.125 2.25 0 0 Z " fill="#BE210F" transform="translate(138,24)"/>
<path d="M0 0 C0.33 0 0.66 0 1 0 C1.08082094 1.95766281 1.13910778 3.91626728 1.1875 5.875 C1.23970703 7.51082031 1.23970703 7.51082031 1.29296875 9.1796875 C1.19628906 10.11039063 1.09960938 11.04109375 1 12 C0.01 12.66 -0.98 13.32 -2 14 C-2.05389087 12.04196493 -2.09274217 10.08351091 -2.125 8.125 C-2.14820313 7.03445312 -2.17140625 5.94390625 -2.1953125 4.8203125 C-2 2 -2 2 0 0 Z " fill="#D7A145" transform="translate(45,43)"/>
<path d="M0 0 C2.52588702 2.36292656 3.88820837 3.66462511 5 7 C5.03954234 9.33299825 5.04401732 11.66708189 5 14 C2.17141734 10.63263969 0.5001747 7.12548042 -1 3 C-0.67 2.01 -0.34 1.02 0 0 Z " fill="#DC411D" transform="translate(136,12)"/>
<path d="M0 0 C-0.33 1.65 -0.66 3.3 -1 5 C-3.97 5 -6.94 5 -10 5 C-10 4.34 -10 3.68 -10 3 C-6.27034861 0.96564469 -4.33094958 0 0 0 Z " fill="#DF4001" transform="translate(174,28)"/>
<path d="M0 0 C2 1.25 2 1.25 4 3 C4 4.32 4 5.64 4 7 C3.34 7 2.68 7 2 7 C2.515625 7.94875 3.03125 8.8975 3.5625 9.875 C4.036875 10.90625 4.51125 11.9375 5 13 C4.67 13.66 4.34 14.32 4 15 C-0.11888494 9.98010898 -0.51211281 6.40141012 0 0 Z " fill="#F1930F" transform="translate(126,1)"/>
<path d="M0 0 C2.15377564 2.62198774 3.40072174 4.64404172 4 8 C1.69 8.33 -0.62 8.66 -3 9 C-2.01 6.03 -1.02 3.06 0 0 Z " fill="#E2E2E2" transform="translate(62,103)"/>
<path d="M0 0 C-0.25 3.375 -0.25 3.375 -1 7 C-3.0625 8.4375 -3.0625 8.4375 -5 9 C-5 6.36 -5 3.72 -5 1 C-2 0 -2 0 0 0 Z " fill="#EFD09C" transform="translate(72,30)"/>
<path d="M0 0 C0.66 0.33 1.32 0.66 2 1 C-1.33562767 5.51290803 -3.33289301 7.68206814 -9 9 C-7.27592413 4.61144323 -4.17026127 2.08513063 0 0 Z " fill="#D01803" transform="translate(161,27)"/>
<path d="M0 0 C1.485 0.99 1.485 0.99 3 2 C3.29296875 4.6015625 3.29296875 4.6015625 3.1875 7.625 C3.16042969 8.62789062 3.13335937 9.63078125 3.10546875 10.6640625 C3.07066406 11.43492187 3.03585938 12.20578125 3 13 C2.01 12.34 1.02 11.68 0 11 C-0.29296875 8.3984375 -0.29296875 8.3984375 -0.1875 5.375 C-0.16042969 4.37210938 -0.13335937 3.36921875 -0.10546875 2.3359375 C-0.07066406 1.56507813 -0.03585938 0.79421875 0 0 Z " fill="#CC8F23" transform="translate(37,148)"/>
<path d="M0 0 C0.66 0.33 1.32 0.66 2 1 C1.40844669 2.31823302 0.80128537 3.62947051 0.1875 4.9375 C-0.31716797 6.03384766 -0.31716797 6.03384766 -0.83203125 7.15234375 C-2 9 -2 9 -5 10 C-4.50769231 3.47692308 -4.50769231 3.47692308 -1.9375 1.0625 C-0.9784375 0.5365625 -0.9784375 0.5365625 0 0 Z " fill="#DA3302" transform="translate(138,38)"/>
<path d="M0 0 C-0.66 1.65 -1.32 3.3 -2 5 C-4.97 4.505 -4.97 4.505 -8 4 C-8.33 3.01 -8.66 2.02 -9 1 C-6.04335481 -0.4783226 -3.25770263 -0.06032783 0 0 Z " fill="#DC3903" transform="translate(165,35)"/>
<path d="M0 0 C2.0625 1.5625 2.0625 1.5625 4 4 C3.75 7.75 3.75 7.75 3 11 C2.34 11 1.68 11 1 11 C-0.20272819 8.59454362 -0.10071472 7.05003047 -0.0625 4.375 C-0.05347656 3.55773438 -0.04445312 2.74046875 -0.03515625 1.8984375 C-0.02355469 1.27195313 -0.01195312 0.64546875 0 0 Z " fill="#E14701" transform="translate(153,45)"/>
<path d="M0 0 C1.4783226 2.95664519 1.06032783 5.74229737 1 9 C-0.9375 9.5625 -0.9375 9.5625 -3 10 C-4 9 -4 9 -4.3125 6.6875 C-3.91080481 3.23292134 -2.60100327 2.19459651 0 0 Z " fill="#F9B100" transform="translate(122,43)"/>
<path d="M0 0 C0.33 0.99 0.66 1.98 1 3 C-0.45381897 3.69699552 -1.91322953 4.38233866 -3.375 5.0625 C-4.18710938 5.44535156 -4.99921875 5.82820313 -5.8359375 6.22265625 C-6.55007812 6.47917969 -7.26421875 6.73570313 -8 7 C-8.66 6.67 -9.32 6.34 -10 6 C-8.10595266 2.65756352 -7.05908409 2.02002851 -3.3125 0.75 C-1.6728125 0.37875 -1.6728125 0.37875 0 0 Z " fill="#E8591B" transform="translate(172,19)"/>
<path d="M0 0 C3.08089673 2.77280706 4.68775452 5.06326356 6 9 C3.625 8.75 3.625 8.75 1 8 C-0.375 6.1875 -0.375 6.1875 -1 4 C-0.625 1.75 -0.625 1.75 0 0 Z " fill="#DF4201" transform="translate(127,13)"/>
<path d="M0 0 C0.66 0.33 1.32 0.66 2 1 C2.25 6.625 2.25 6.625 0 10 C-0.66 10 -1.32 10 -2 10 C-2.33 8.35 -2.66 6.7 -3 5 C-2.34 5 -1.68 5 -1 5 C-0.67 3.35 -0.34 1.7 0 0 Z " fill="#EE7F00" transform="translate(157,51)"/>
<path d="M0 0 C-1.40844718 3.21524305 -3.10344786 5.32183868 -5.625 7.75 C-6.57246094 8.67039062 -6.57246094 8.67039062 -7.5390625 9.609375 C-8.02117188 10.06828125 -8.50328125 10.5271875 -9 11 C-9.66 10.34 -10.32 9.68 -11 9 C-9.54782324 7.49403892 -8.08807139 5.99537896 -6.625 4.5 C-5.40683594 3.24703125 -5.40683594 3.24703125 -4.1640625 1.96875 C-2 0 -2 0 0 0 Z " fill="#4DB874" transform="translate(53,49)"/>
<path d="M0 0 C0.66 0 1.32 0 2 0 C2.07654536 4.51617599 2.10228696 8.59085217 1 13 C-1 11 -1 11 -1.23046875 8.90625 C-1.21628906 8.1121875 -1.20210937 7.318125 -1.1875 6.5 C-1.18105469 5.7059375 -1.17460937 4.911875 -1.16796875 4.09375 C-1 2 -1 2 0 0 Z " fill="#D52603" transform="translate(148,41)"/>
<path d="M0 0 C1.98 0 3.96 0 6 0 C4.75 2.9375 4.75 2.9375 3 6 C0.8125 6.875 0.8125 6.875 -1 7 C-0.67 4.69 -0.34 2.38 0 0 Z " fill="#ED7B0D" transform="translate(173,19)"/>
<path d="M0 0 C2.475 0.99 2.475 0.99 5 2 C4.67 3.98 4.34 5.96 4 8 C2.68 7.34 1.36 6.68 0 6 C0 4.02 0 2.04 0 0 Z " fill="#E9C486" transform="translate(54,166)"/>
<path d="M0 0 C1.98 0.66 3.96 1.32 6 2 C5.34 2.66 4.68 3.32 4 4 C3.3574765 6.06874034 3.3574765 6.06874034 3 8 C2.01 7.67 1.02 7.34 0 7 C0 4.69 0 2.38 0 0 Z " fill="#D6A34A" transform="translate(43,158)"/>
<path d="M0 0 C3.2626876 3.08632611 6.02235218 5.93483504 8 10 C7.67 10.66 7.34 11.32 7 12 C5.68 10.02 4.36 8.04 3 6 C2.01 6.33 1.02 6.66 0 7 C0 4.69 0 2.38 0 0 Z " fill="#77CA97" transform="translate(99,121)"/>
<path d="M0 0 C1.32 0.33 2.64 0.66 4 1 C3.67 1.66 3.34 2.32 3 3 C6.3 3 9.6 3 13 3 C13 3.33 13 3.66 13 4 C7.06 4.495 7.06 4.495 1 5 C0.67 3.35 0.34 1.7 0 0 Z " fill="#D38E22" transform="translate(88,27)"/>
<path d="M0 0 C1.32 1.32 2.64 2.64 4 4 C3.34 5.98 2.68 7.96 2 10 C1.01 9.34 0.02 8.68 -1 8 C-0.67 5.36 -0.34 2.72 0 0 Z " fill="#ED7A00" transform="translate(124,9)"/>
<path d="M0 0 C1.32 0.33 2.64 0.66 4 1 C4 3.31 4 5.62 4 8 C2.68 7.34 1.36 6.68 0 6 C0 4.02 0 2.04 0 0 Z " fill="#E2B76F" transform="translate(50,164)"/>
<path d="M0 0 C0 2.97 0 5.94 0 9 C-1.32 9.33 -2.64 9.66 -4 10 C-3.88637738 8.5199159 -3.75877092 7.04089926 -3.625 5.5625 C-3.55539063 4.73878906 -3.48578125 3.91507813 -3.4140625 3.06640625 C-3.27742188 2.38449219 -3.14078125 1.70257813 -3 1 C-1 0 -1 0 0 0 Z " fill="#EECE98" transform="translate(61,34)"/>
<path d="M0 0 C0.33 0.66 0.66 1.32 1 2 C2.32 2 3.64 2 5 2 C5 3.32 5 4.64 5 6 C3.02 6.99 3.02 6.99 1 8 C-0.42944945 5.64561267 -1.08661261 4.51967567 -0.625 1.75 C-0.41875 1.1725 -0.2125 0.595 0 0 Z " fill="#EEAA0A" transform="translate(128,48)"/>
<path d="M0 0 C0.99 0.66 1.98 1.32 3 2 C3.1875 4.625 3.1875 4.625 3 7 C1.35 6.67 -0.3 6.34 -2 6 C-1.34 4.02 -0.68 2.04 0 0 Z " fill="#F39300" transform="translate(160,44)"/>
<path d="M0 0 C2.4375 0.8125 2.4375 0.8125 5 2 C5.33 2.99 5.66 3.98 6 5 C5.01 6.485 5.01 6.485 4 8 C0 3.375 0 3.375 0 0 Z " fill="#D93202" transform="translate(152,38)"/>
<path d="M0 0 C2.0625 0.4375 2.0625 0.4375 4 1 C3.34 2.65 2.68 4.3 2 6 C0.35 6 -1.3 6 -3 6 C-1.125 1.125 -1.125 1.125 0 0 Z " fill="#EA6C00" transform="translate(165,35)"/>
<path d="M0 0 C1.32 0 2.64 0 4 0 C4 1.98 4 3.96 4 6 C2.68 6.33 1.36 6.66 0 7 C0 4.69 0 2.38 0 0 Z " fill="#E1B265" transform="translate(77,28)"/>
<path d="M0 0 C1.26710868 2.53421737 1.28056176 4.19438238 1 7 C0.01 7.66 -0.98 8.32 -2 9 C-2.99 8.67 -3.98 8.34 -5 8 C-1.125 1.125 -1.125 1.125 0 0 Z " fill="#EB7201" transform="translate(133,42)"/>
<path d="M0 0 C0.8125 1.6875 0.8125 1.6875 1 4 C-1.4375 6.75 -1.4375 6.75 -4 9 C-3.6875 5.625 -3.6875 5.625 -3 2 C-2.01 1.34 -1.02 0.68 0 0 Z " fill="#E96500" transform="translate(128,40)"/>
<path d="M0 0 C-1.75 4.875 -1.75 4.875 -4 6 C-3.67 4.35 -3.34 2.7 -3 1 C-5.31 1.33 -7.62 1.66 -10 2 C-7.85732894 -2.28534211 -3.95706306 -0.79141261 0 0 Z " fill="#EC7706" transform="translate(177,27)"/>
<path d="M0 0 C0 0.99 0 1.98 0 3 C-1 4 -1 4 -2.84765625 4.09765625 C-4.8984375 4.06510417 -6.94921875 4.03255208 -9 4 C-9 3.01 -9 2.02 -9 1 C-7.700625 1.020625 -6.40125 1.04125 -5.0625 1.0625 C-3.70834367 1.08399454 -2.35243917 1.07148199 -1 1 C-0.67 0.67 -0.34 0.34 0 0 Z " fill="#181817" transform="translate(52,125)"/>
<path d="M0 0 C0.33 0 0.66 0 1 0 C1.125 5.75 1.125 5.75 0 8 C-1.32 7.67 -2.64 7.34 -4 7 C-2.68 4.69 -1.36 2.38 0 0 Z " fill="#E0B054" transform="translate(26,65)"/>
<path d="M0 0 C0.99 0 1.98 0 3 0 C2.4140625 6.15234375 2.4140625 6.15234375 2 8 C1.01 8.495 1.01 8.495 0 9 C0 6.03 0 3.06 0 0 Z " fill="#C6751C" transform="translate(144,46)"/>
<path d="M0 0 C0.66 0.33 1.32 0.66 2 1 C2.625 4.0625 2.625 4.0625 3 7 C2.01 6.67 1.02 6.34 0 6 C-0.33 6.99 -0.66 7.98 -1 9 C-1.33 7.35 -1.66 5.7 -2 4 C-1.34 4 -0.68 4 0 4 C0 2.68 0 1.36 0 0 Z " fill="#ED7A0D" transform="translate(130,4)"/>
<path d="M0 0 C2.97 0.495 2.97 0.495 6 1 C6 2.32 6 3.64 6 5 C4.35 4.67 2.7 4.34 1 4 C0.67 2.68 0.34 1.36 0 0 Z " fill="#E8C180" transform="translate(71,176)"/>
<path d="M0 0 C0.33 0 0.66 0 1 0 C1 2.64 1 5.28 1 8 C0.01 8.33 -0.98 8.66 -2 9 C-2.25 3.375 -2.25 3.375 0 0 Z " fill="#F28F00" transform="translate(124,42)"/>
<path d="M0 0 C-0.8125 2.4375 -0.8125 2.4375 -2 5 C-2.99 5.33 -3.98 5.66 -5 6 C-5.33 4.68 -5.66 3.36 -6 2 C-2.25 0 -2.25 0 0 0 Z " fill="#EC7415" transform="translate(139,35)"/>
<path d="M0 0 C0.99 0.33 1.98 0.66 3 1 C1.9024777 3.99324263 1.32317108 4.84610901 -1.625 6.25 C-2.40875 6.4975 -3.1925 6.745 -4 7 C-3.39816251 4.97954558 -2.72693904 2.97888961 -2 1 C-1.34 0.67 -0.68 0.34 0 0 Z " fill="#DB3402" transform="translate(164,25)"/>
<path d="M0 0 C0 2.31 0 4.62 0 7 C-0.99 7 -1.98 7 -3 7 C-3 5.02 -3 3.04 -3 1 C-1 0 -1 0 0 0 Z " fill="#F59E00" transform="translate(124,8)"/>
<path d="M0 0 C1.32 0.33 2.64 0.66 4 1 C4 3.31 4 5.62 4 8 C1.84622436 5.37801226 0.59927826 3.35595828 0 0 Z " fill="#E4B55A" transform="translate(21,134)"/>
<path d="M0 0 C0.33 0 0.66 0 1 0 C1.33 2.64 1.66 5.28 2 8 C0.68 8.33 -0.64 8.66 -2 9 C-1.125 1.125 -1.125 1.125 0 0 Z " fill="#F0D6A7" transform="translate(62,33)"/>
<path d="M0 0 C2.875 0.3125 2.875 0.3125 6 1 C6.66 1.99 7.32 2.98 8 4 C6 5 6 5 3.4375 4.25 C1 3 1 3 0 0 Z " fill="#E5BA76" transform="translate(115,30)"/>
<path d="M0 0 C1.32 0 2.64 0 4 0 C3.67 2.31 3.34 4.62 3 7 C1.68 6.67 0.36 6.34 -1 6 C-0.01 4.35 0.98 2.7 2 1 C1.34 0.67 0.68 0.34 0 0 Z " fill="#F18D00" transform="translate(175,26)"/>
<path d="M0 0 C1.32 0.66 2.64 1.32 4 2 C3.67 3.32 3.34 4.64 3 6 C1.68 5.34 0.36 4.68 -1 4 C-0.67 2.68 -0.34 1.36 0 0 Z " fill="#EDCE9A" transform="translate(68,174)"/>
<path d="M0 0 C1.485 0.99 1.485 0.99 3 2 C2.67 3.65 2.34 5.3 2 7 C1.01 6.67 0.02 6.34 -1 6 C-1.042721 4.33388095 -1.04063832 2.66617115 -1 1 C-0.67 0.67 -0.34 0.34 0 0 Z " fill="#EECF9A" transform="translate(59,169)"/>
<path d="M0 0 C0 0.66 0 1.32 0 2 C-2.64 2 -5.28 2 -8 2 C-8.33 1.34 -8.66 0.68 -9 0 C-2.25 -1.125 -2.25 -1.125 0 0 Z " fill="#161614" transform="translate(82,127)"/>
<path d="M0 0 C0 1.98 0 3.96 0 6 C-0.99 6.33 -1.98 6.66 -3 7 C-3 5.02 -3 3.04 -3 1 C-1 0 -1 0 0 0 Z " fill="#D5A851" transform="translate(84,27)"/>
<path d="M0 0 C1.5625 1.25 1.5625 1.25 3 3 C2.6875 5.1875 2.6875 5.1875 2 7 C1.34 7 0.68 7 0 7 C-1.125 2.25 -1.125 2.25 0 0 Z " fill="#D62702" transform="translate(136,19)"/>
<path d="M0 0 C1.98 0.99 1.98 0.99 4 2 C3.67 3.98 3.34 5.96 3 8 C0.37613513 4.93882432 0 4.26826873 0 0 Z " fill="#E85F02" transform="translate(130,10)"/>
<path d="M0 0 C0.33 0.99 0.66 1.98 1 3 C-0.4375 5.6875 -0.4375 5.6875 -2 8 C-2.99 7.67 -3.98 7.34 -5 7 C-3.35 4.69 -1.7 2.38 0 0 Z " fill="#71C893" transform="translate(163,144)"/>
<path d="M0 0 C0.66 0 1.32 0 2 0 C0.47291037 3.43595166 -1.59927045 6.11912454 -4 9 C-3.4739075 5.21213403 -2.61896089 2.82847776 0 0 Z " fill="#20A241" transform="translate(119,34)"/>
<path d="M0 0 C0 0.66 0 1.32 0 2 C-0.66 2 -1.32 2 -2 2 C-1.67 2.99 -1.34 3.98 -1 5 C-1.99 5 -2.98 5 -4 5 C-4.66 4.01 -5.32 3.02 -6 2 C-2.25 0 -2.25 0 0 0 Z " fill="#E95F19" transform="translate(158,34)"/>
<path d="M0 0 C0.99 0.33 1.98 0.66 3 1 C2.67 2.98 2.34 4.96 2 7 C1.01 6.67 0.02 6.34 -1 6 C-0.67 4.02 -0.34 2.04 0 0 Z " fill="#EE7F00" transform="translate(126,22)"/>
</svg>
